<?xml version="1.0" encoding="UTF-8" standalone="no"?><!DOCTYPE svg PUBLIC "-//W3C//DTD SVG 1.1//EN" "http://www.w3.org/Graphics/SVG/1.1/DTD/svg11.dtd"><svg width="100%" height="100%" viewBox="0 0 100 100" version="1.1" xmlns="http://www.w3.org/2000/svg" xmlns:xlink="http://www.w3.org/1999/xlink" xml:space="preserve" xmlns:serif="http://www.serif.com/" style="fill-rule:evenodd;clip-rule:evenodd;stroke-linejoin:round;stroke-miterlimit:1.41421;"><g><path d="M97.096,39.983c-0.804,-0.644 -1.769,-0.965 -2.734,-0.804l-19.785,3.699c0,-0.161 -0.161,-0.321 -0.322,-0.482l-0.161,-0.161c-0.161,-0.161 -0.322,-0.483 -0.482,-0.644c-0.161,-0.16 -0.161,-0.321 -0.322,-0.321c-0.804,-4.665 -3.056,-9.008 -6.595,-12.225l-1.448,-6.274c1.609,-1.608 2.574,-3.86 2.574,-6.273c0,-4.986 -4.022,-9.008 -9.008,-9.008c-4.987,0 -9.008,4.022 -9.008,9.008c0,0.483 0,0.965 0.161,1.448l-5.952,6.112c-5.791,2.091 -10.616,6.595 -13.029,12.386l-0.161,0.161c-0.322,0.322 -0.482,0.482 -0.804,0.804c-0.322,0.322 -0.644,0.644 -0.965,1.126c-0.322,0.483 -0.644,0.804 -0.965,1.287c-0.161,0.322 -0.483,0.483 -0.644,0.804c-0.321,0.322 -0.482,0.644 -0.643,0.965c-0.322,0.483 -0.483,0.805 -0.804,1.287l-19.786,-3.699c-0.965,-0.161 -2.091,0.16 -2.734,0.804c-0.804,0.643 -1.126,1.769 -0.965,2.734c1.287,9.813 8.364,17.051 20.589,20.912c0.483,2.251 1.448,4.343 2.413,6.434c0.322,11.903 9.008,21.876 20.911,23.967c1.287,0.161 2.574,-0.322 3.217,-1.448l0.804,-1.286l0.644,1.286c0.643,0.966 1.608,1.609 2.734,1.609c0.161,0 0.322,0 0.483,0c11.903,-1.93 20.75,-11.903 20.911,-23.967c1.126,-2.092 1.93,-4.183 2.413,-6.435c12.225,-4.021 19.463,-11.259 20.589,-20.911c0,-1.126 -0.321,-2.091 -1.126,-2.895Zm-38.122,-28.632c2.734,0 4.986,2.252 4.986,4.986c0,1.448 -0.643,2.735 -1.608,3.7l-0.322,-1.126c-0.322,-1.609 -1.609,-2.896 -3.217,-3.217c-0.483,-0.161 -0.804,-0.161 -1.287,-0.161c-0.322,0 -0.643,0 -0.965,0.161c-0.161,0 -0.161,0 -0.322,0.161c-0.321,0 -0.482,0.16 -0.643,0.321c-0.161,0 -0.161,0.161 -0.322,0.161c-0.322,0.161 -0.643,0.483 -0.804,0.644l-0.483,0.482c0,-0.322 0,-0.643 0,-0.804c0,-3.056 2.252,-5.308 4.987,-5.308Zm-3.378,6.434c0.804,-0.804 1.769,-0.965 2.895,-0.804c0.322,0 0.483,0.16 0.644,0.321c0.643,0.322 1.126,0.965 1.286,1.77l0.161,0.643l2.091,8.847c-1.769,-1.287 -3.699,-2.091 -5.79,-2.734c-0.161,0 -0.161,0 -0.322,0c-0.483,-0.161 -0.804,-0.161 -1.287,-0.322c-0.161,0 -0.322,0 -0.482,-0.161c-0.483,0 -0.805,-0.161 -1.287,-0.161l-3.861,0c-0.322,0 -0.643,0 -0.965,0.161c-0.161,0 -0.322,0 -0.482,0l-0.161,0l7.56,-7.56Zm-8.847,9.651c0.804,-0.161 1.448,-0.322 2.252,-0.482c0.161,0 0.161,0 0.321,0c0.805,-0.161 1.448,-0.161 2.252,-0.161l2.252,0c0.322,0 0.644,0 0.966,0.161c0.321,0 0.482,0.16 0.804,0.16c0.161,0 0.482,0.161 0.643,0.161c0.322,0.161 0.644,0.161 0.965,0.322c0.161,0 0.322,0.161 0.483,0.161c0.322,0.161 0.643,0.322 1.126,0.322c0,0 0.161,0 0.161,0.16c4.665,2.092 8.525,5.952 10.134,10.939c-0.644,-0.805 -1.448,-1.448 -2.252,-2.092c-0.644,-0.482 -1.287,-0.965 -1.931,-1.447c0,0 -0.16,0 -0.16,-0.161c-0.644,-0.483 -1.287,-0.804 -1.931,-1.126c-0.161,0 -0.161,-0.161 -0.321,-0.161c-0.644,-0.322 -1.287,-0.643 -1.931,-0.965c-0.161,0 -0.321,-0.161 -0.482,-0.161c-0.644,-0.322 -1.126,-0.482 -1.77,-0.643c-0.16,0 -0.321,-0.161 -0.643,-0.161c-0.643,-0.161 -1.126,-0.322 -1.769,-0.483c-0.161,0 -0.483,-0.161 -0.644,-0.161c-0.643,-0.16 -1.126,-0.16 -1.769,-0.321c-0.161,0 -0.483,0 -0.644,-0.161c-0.804,-0.161 -1.608,-0.161 -2.573,-0.161l-2.896,0c-0.321,0 -0.482,0 -0.804,0.161c-0.161,0 -0.322,0 -0.483,0c-0.321,0 -0.643,0.161 -0.965,0.161c-0.161,0 -0.321,0 -0.321,0.161c-0.161,0 -0.161,0 -0.322,0c-0.644,0.16 -1.126,0.321 -1.77,0.482c-0.16,0 -0.16,0 -0.321,0c-0.805,0.161 -1.448,0.483 -2.091,0.804c-0.161,0 -0.161,0.161 -0.322,0.161c-1.448,0.644 -2.735,1.287 -4.021,2.252c2.412,-3.699 6.273,-6.595 10.777,-7.721Zm-15.925,15.121c0.322,-0.483 0.804,-0.966 1.287,-1.448c0.161,-0.161 0.483,-0.483 0.643,-0.644c0.322,-0.482 0.805,-0.804 1.287,-1.126c0.161,-0.16 0.322,-0.321 0.483,-0.321c0.322,-0.322 0.643,-0.644 1.126,-0.805c0.161,-0.16 0.482,-0.321 0.643,-0.482c0.483,-0.322 0.805,-0.644 1.287,-0.804c0.322,-0.161 0.483,-0.322 0.804,-0.483c0.322,-0.161 0.805,-0.483 1.126,-0.643c0.161,0 0.322,-0.161 0.483,-0.161c0.322,-0.161 0.643,-0.322 0.804,-0.322c0.161,-0.161 0.483,-0.161 0.644,-0.322c0.16,-0.161 0.482,-0.161 0.643,-0.321c0.161,0 0.322,-0.161 0.483,-0.161c0.482,-0.161 0.804,-0.322 1.286,-0.322c0.161,0 0.322,-0.161 0.483,-0.161c0.161,0 0.483,-0.161 0.643,-0.161c0.483,-0.16 0.966,-0.16 1.609,-0.321l0.161,0c0.322,0 0.482,0 0.804,-0.161c0.804,-0.161 1.769,-0.161 2.574,-0.161c0.965,0 1.769,0 2.734,0.161l0.644,0c0.643,0.161 1.447,0.161 2.091,0.322c0.161,0 0.322,0.16 0.643,0.16c0.805,0.161 1.448,0.483 2.091,0.644c0.161,0 0.322,0.161 0.483,0.161c0.804,0.321 1.608,0.643 2.413,0.965l0.161,0c1.608,0.804 3.217,1.93 4.664,3.056l0.161,0.161c0.644,0.482 1.287,1.126 1.77,1.769c0.161,0.161 0.161,0.161 0.321,0.322c0.483,0.643 0.965,1.287 1.448,1.93c0.965,1.287 1.769,2.735 2.413,4.182c0.322,0.805 0.643,1.448 0.965,2.252l0,0.161c0.322,0.644 0.483,1.448 0.643,2.252l0,0.161c0,0.161 0,0.483 0.161,0.644c0.161,0.482 0.161,0.804 0.161,1.286c-5.791,1.126 -11.421,-0.16 -16.085,-3.056c-4.665,-2.895 -8.204,-7.399 -9.973,-12.868c-0.161,-0.322 -0.322,-0.483 -0.644,-0.644l-0.161,0c-0.321,0 -0.482,0.161 -0.643,0.322c-2.574,3.861 -6.917,6.273 -11.582,6.273c-1.608,0 -3.056,-0.321 -4.504,-0.804c0,-0.322 0.161,-0.322 0.322,-0.482Zm28.632,10.616c-0.321,0.483 -0.965,0.804 -1.447,0.804c-0.965,0 -1.931,-0.804 -1.931,-1.93c0,-0.322 0,-0.483 0.161,-0.804c0.965,0.804 2.091,1.447 3.217,1.93Zm-34.583,-1.287c0,0.161 0,0.161 0,0.322c-0.161,0.643 -0.322,1.448 -0.322,2.091c-0.161,0.965 -0.161,1.769 -0.161,2.574c0,0.643 0,1.286 0.161,2.091c0,0.321 0,0.643 0.161,1.126c-10.617,-3.378 -16.729,-9.008 -18.177,-16.729l19.946,3.699c-0.804,1.609 -1.287,3.218 -1.608,4.826Zm29.114,38.123l-3.217,-5.308c-0.161,-0.322 -0.482,-0.322 -0.643,-0.322c-0.322,0 -0.483,0.161 -0.644,0.322l-3.217,5.308c-8.847,-1.77 -15.603,-8.847 -16.729,-17.694c0.161,0.161 0.322,0.482 0.483,0.643c0.161,0.161 0.322,0.483 0.482,0.644c0.322,0.482 0.805,0.965 1.126,1.286c0.161,0.161 0.322,0.483 0.644,0.644c0.482,0.482 0.804,0.804 1.287,1.287c0.161,0.16 0.482,0.321 0.643,0.482c0.322,0.322 0.644,0.483 0.965,0.644c0.322,0.321 0.644,0.482 0.965,0.643c0.322,0.322 0.805,0.483 1.126,0.643c0.322,0.161 0.644,0.322 0.965,0.483c0.322,0.161 0.805,0.322 1.126,0.643c0.322,0.161 0.805,0.322 1.287,0.483c0.322,0.161 0.805,0.322 1.126,0.483c0.322,0.16 0.644,0.16 0.965,0.321c0.483,0.161 1.126,0.322 1.77,0.483c0.322,0 0.482,0.161 0.804,0.161c0.644,0.161 1.287,0.161 2.091,0.321c0.161,0 0.322,0 0.483,0c0.804,0 1.608,0.161 2.413,0.161c0.804,0 1.608,0 2.412,-0.161c0.161,0 0.322,0 0.483,0c0.643,0 1.287,-0.16 2.091,-0.321c0.322,0 0.483,-0.161 0.804,-0.161c0.644,-0.161 1.126,-0.322 1.609,-0.483c0.322,-0.161 0.643,-0.161 0.965,-0.321c0.322,-0.161 0.804,-0.322 1.126,-0.483c0.483,-0.161 0.804,-0.322 1.287,-0.483c0.322,-0.16 0.804,-0.321 1.126,-0.643c0.322,-0.161 0.643,-0.322 0.965,-0.483c0.322,-0.16 0.804,-0.482 1.126,-0.643c0.322,-0.161 0.643,-0.483 1.126,-0.643c0.322,-0.161 0.643,-0.483 0.965,-0.644c0.161,-0.161 0.483,-0.322 0.644,-0.482c0.482,-0.322 0.965,-0.805 1.286,-1.126c0.161,-0.161 0.483,-0.322 0.644,-0.644c0.482,-0.482 0.804,-0.804 1.126,-1.287c0.161,-0.16 0.321,-0.482 0.482,-0.643c0.161,-0.161 0.322,-0.483 0.483,-0.643c-1.448,8.686 -8.043,15.924 -17.051,17.533Zm20.268,-31.045c0,0.643 -0.161,1.287 -0.322,2.091c-0.482,3.217 -1.769,6.273 -3.539,9.008c-0.16,0.321 -0.482,0.643 -0.643,0.965c-0.161,0.322 -0.483,0.643 -0.643,0.965c-0.161,0.322 -0.322,0.483 -0.644,0.804c-0.321,0.322 -0.482,0.644 -0.804,0.965l-1.769,1.77c-0.322,0.161 -0.483,0.482 -0.805,0.643c-0.321,0.161 -0.482,0.322 -0.804,0.644c-0.483,0.321 -0.965,0.643 -1.448,0.965c-0.321,0.161 -0.482,0.321 -0.804,0.482c-0.322,0.161 -0.643,0.322 -0.965,0.483c-0.322,0.161 -0.483,0.322 -0.804,0.322c-0.483,0.321 -1.126,0.482 -1.609,0.643c-0.322,0.161 -0.643,0.322 -0.965,0.322c-0.322,0.161 -0.643,0.161 -0.965,0.321c-0.483,0.161 -0.804,0.161 -1.287,0.322c-0.322,0 -0.483,0.161 -0.804,0.161c-0.644,0.161 -1.126,0.161 -1.77,0.322c-0.161,0 -0.482,0 -0.643,0c-0.644,0 -1.448,0.161 -2.091,0.161c-0.805,0 -1.448,0 -2.091,-0.161c-0.161,0 -0.483,0 -0.644,0c-0.643,0 -1.287,-0.161 -1.769,-0.322c-0.322,0 -0.483,-0.161 -0.804,-0.161c-0.483,-0.161 -0.805,-0.161 -1.287,-0.322c-0.322,-0.16 -0.644,-0.16 -0.965,-0.321c-0.322,-0.161 -0.644,-0.161 -0.966,-0.322c-0.482,-0.161 -1.126,-0.483 -1.608,-0.643c-0.322,-0.161 -0.483,-0.161 -0.804,-0.322c-0.322,-0.161 -0.644,-0.322 -0.966,-0.483c-0.321,-0.161 -0.482,-0.321 -0.804,-0.482c-0.482,-0.322 -0.965,-0.644 -1.447,-0.965c-0.322,-0.161 -0.483,-0.322 -0.805,-0.644c-0.321,-0.161 -0.482,-0.482 -0.804,-0.643l-1.769,-1.77c-0.322,-0.321 -0.644,-0.643 -0.805,-0.965c-0.161,-0.161 -0.482,-0.482 -0.643,-0.804c-0.161,-0.322 -0.483,-0.643 -0.644,-0.965c-0.16,-0.322 -0.482,-0.644 -0.643,-0.965c-1.769,-2.735 -2.895,-5.791 -3.539,-9.008c-0.161,-0.644 -0.161,-1.287 -0.321,-1.93c0,-0.644 -0.161,-1.448 -0.161,-2.092c0,-0.804 0,-1.769 0.161,-2.573c0,-0.161 0,-0.322 0,-0.483c0.16,-0.643 0.16,-1.447 0.321,-2.091c0,-0.161 0,-0.161 0.161,-0.322c0.161,-0.804 0.322,-1.447 0.644,-2.252l0,-0.16c0.321,-0.805 0.482,-1.448 0.965,-2.252c0.482,-0.966 0.804,-1.77 1.447,-2.574c1.77,0.643 3.539,0.965 5.469,0.965c4.665,0 9.008,-2.091 11.904,-5.63c1.608,4.343 4.343,8.043 8.042,10.777c-0.321,0.483 -0.482,1.126 -0.482,1.77c0,1.93 1.608,3.539 3.539,3.539c1.286,0 2.412,-0.644 3.056,-1.77c2.734,1.126 5.791,1.77 9.008,1.77c1.447,0 2.895,-0.161 4.343,-0.483c0,0.643 0.161,1.126 0.161,1.769c-0.322,0.644 -0.322,1.287 -0.322,1.931Zm1.448,1.126c0,-0.322 0,-0.644 0.161,-1.126c0,-0.644 0.16,-1.448 0.16,-2.091c0,-0.805 0,-1.77 -0.16,-2.574c0,-0.161 0,-0.161 0,-0.322l0,-0.161c0,-0.643 -0.161,-1.126 -0.322,-1.769c0,-0.161 0,-0.161 0,-0.322c0,-0.321 -0.161,-0.643 -0.322,-0.965c-0.161,-0.482 -0.322,-1.126 -0.482,-1.608c0,-0.161 -0.161,-0.161 -0.161,-0.322c-0.161,-0.644 -0.483,-1.287 -0.644,-1.93l20.107,-3.539c-1.448,7.721 -7.721,13.351 -18.337,16.729Z" style="fill:#fff;fill-rule:nonzero;"/><path d="M42.245,55.586c1.93,0 3.539,-1.609 3.539,-3.539c0,-1.93 -1.609,-3.539 -3.539,-3.539c-1.93,0 -3.539,1.609 -3.539,3.539c0.161,1.93 1.609,3.539 3.539,3.539Zm0,-5.308c0.965,0 1.93,0.804 1.93,1.93c0,1.126 -0.804,1.93 -1.93,1.93c-1.126,0 -1.77,-0.965 -1.77,-2.091c0,-1.126 0.805,-1.769 1.77,-1.769Z" style="fill:#fff;fill-rule:nonzero;"/><path d="M44.658,60.411c0,1.931 2.413,3.218 5.469,3.218c3.217,0 5.469,-1.448 5.469,-3.218c0,-1.93 -2.413,-3.217 -5.469,-3.217c-3.217,0 -5.469,1.448 -5.469,3.217Zm5.469,-1.608c2.413,0 3.86,0.965 3.86,1.608c0,0.644 -1.447,1.609 -3.86,1.609c-2.413,0 -3.861,-0.965 -3.861,-1.609c0,-0.643 1.448,-1.608 3.861,-1.608Z" style="fill:#fff;fill-rule:nonzero;"/><path d="M68.303,57.677c-0.482,0 -0.804,0.322 -0.804,0.804c0,9.169 -7.238,15.764 -17.372,15.764c-10.134,0 -17.373,-6.595 -17.373,-15.764c0,-0.482 -0.321,-0.804 -0.804,-0.804c-0.482,0 -0.804,0.322 -0.804,0.804c0,10.134 8.043,17.372 18.981,17.372c10.938,0 18.981,-7.238 18.981,-17.372c0,-0.322 -0.322,-0.804 -0.805,-0.804Z" style="fill:#fff;fill-rule:nonzero;"/><path d="M23.103,50.278l-10.938,-3.539c-0.483,-0.161 -0.804,0.161 -0.965,0.482c-0.161,0.483 0.161,0.805 0.482,0.965l5.952,1.931c-0.161,1.769 0.322,4.504 2.895,6.273c0.161,0.161 0.322,0.161 0.483,0.161c0.322,0 0.483,-0.161 0.643,-0.322c0.161,-0.322 0.161,-0.804 -0.321,-1.126c-1.931,-1.287 -2.252,-3.217 -2.091,-4.343l3.378,1.126c0.16,0 0.16,0 0.321,0c0.322,0 0.644,-0.161 0.805,-0.482c0,-0.644 -0.161,-0.966 -0.644,-1.126Z" style="fill:#fff;fill-rule:nonzero;"/><path d="M77.633,51.886c0.161,0 0.161,0 0.322,0l3.378,-1.126c0,1.126 -0.161,3.056 -2.092,4.343c-0.321,0.161 -0.482,0.804 -0.321,1.126c0.161,0.161 0.482,0.322 0.643,0.322c0.161,0 0.322,0 0.483,-0.161c2.573,-1.609 3.056,-4.504 2.895,-6.273l5.791,-1.931c0.483,-0.16 0.643,-0.643 0.483,-0.965c-0.161,-0.482 -0.644,-0.643 -0.966,-0.482l-10.777,3.539c-0.482,0.16 -0.643,0.643 -0.482,0.965c0,0.321 0.321,0.643 0.643,0.643Z" style="fill:#fff;fill-rule:nonzero;"/></g></svg>