<?xml version="1.0" encoding="UTF-8" standalone="no"?><!DOCTYPE svg PUBLIC "-//W3C//DTD SVG 1.1//EN" "http://www.w3.org/Graphics/SVG/1.1/DTD/svg11.dtd"><svg width="100%" height="100%" viewBox="0 0 3750 3750" version="1.1" xmlns="http://www.w3.org/2000/svg" xmlns:xlink="http://www.w3.org/1999/xlink" xml:space="preserve" xmlns:serif="http://www.serif.com/" style="fill-rule:evenodd;clip-rule:evenodd;stroke-linejoin:round;stroke-miterlimit:1.41421;"><g><circle cx="1878.95" cy="1878.24" r="1856.94" style="fill:#fffcfc;"/><path d="M766.375,1117.02c0,0 -93.797,152.125 -59.601,253.697c0,0 34.743,140.401 195.143,226.464c0,0 -126.045,-26.384 -184.817,17.864c0,0 -139.392,373.64 -135.21,506.859c4.175,133.222 37.838,250.789 136.182,257.77c98.348,6.979 116.097,-137.216 25.649,-177.818c0,0 -58.073,-13.644 -65.072,29.868c0,0 -18.543,-72.092 79.086,-62.054c38.384,3.947 116.625,53.662 117.624,130.848c1.544,119.142 -110.861,268.004 -293.546,137.453c0,0 -189.196,-183.14 -201.441,-240.848c-12.244,-57.708 -61.757,-272.535 -63.58,-347.147c-1.817,-74.61 48.559,-494.971 48.559,-494.971c0,0 -2.8,-303.835 84.593,-263.952c87.388,39.884 249.389,77.945 316.431,25.967Z" style="fill:#189c49;fill-rule:nonzero;"/><path d="M720.594,1270.75c0,0 90.666,163.215 139.037,190.706l-8.615,36.678c0,0 -109.851,-116.429 -130.62,-141.092c-20.775,-24.66 11.687,-67.155 0.198,-86.292Z" style="fill:#e22028;fill-rule:nonzero;"/><path d="M771.199,1140.73c0,0 39.292,186.624 141.439,273.515l-28.031,36.959c0,0 -172.128,-214.608 -151.101,-235.475c21.024,-20.857 37.693,-74.999 37.693,-74.999Z" style="fill:#e22028;fill-rule:nonzero;"/><path d="M815.29,1128.51c0,0 65.346,257.256 127.925,292.921l33.246,-4.224c0,0 -107.443,-150.286 -106.197,-304.809l-54.974,16.112Z" style="fill:#e22028;fill-rule:nonzero;"/><path d="M896.372,1099.16l55.905,-32.022c0,0 8.171,253.498 90.533,314.777l-37.931,10.439c0,0 -98.567,-129.593 -108.507,-293.194Z" style="fill:#e22028;fill-rule:nonzero;"/><path d="M974.906,1053.11l43.861,-21.946c0,0 15.006,251.873 114.456,336.523l-53.932,9.902c0,0 -105.602,-195.749 -104.385,-324.479Z" style="fill:#e22028;fill-rule:nonzero;"/><path d="M1071.09,1014.43l34.691,-24.105c0,0 8.546,279.387 99.726,371.766l-38.648,13.498c0,0 -144.618,-208.143 -95.769,-361.159Z" style="fill:#e22028;fill-rule:nonzero;"/><path d="M1146.76,980.62l53.03,-19.793c0,0 -12.853,274.355 99.007,374.82l-53.214,6.851c0,0 -114.052,-200.966 -98.823,-361.878Z" style="fill:#e22028;fill-rule:nonzero;"/><path d="M1237.54,937.431l43.861,-21.949c0,0 -13.775,209.635 102.615,414.374l-49.438,4.511c0,0 -126.829,-242.67 -97.038,-396.936Z" style="fill:#e22028;fill-rule:nonzero;"/><path d="M1315.55,907.383l51.408,-26.626c0,0 -3.164,205.677 111.253,432.529l-53.213,6.85c0,0 -128.82,-275.39 -109.448,-412.753Z" style="fill:#e22028;fill-rule:nonzero;"/><path d="M1405.45,854.321l49.972,-20.513c0,0 -29.796,154.267 120.972,473.516l-56.991,9.19c0,0 -111.359,-226.133 -113.953,-462.193Z" style="fill:#e22028;fill-rule:nonzero;"/><path d="M1487.23,821.929l53.031,-19.794c0,0 19.313,233.536 135.002,496.163l-58.607,2.358c0,0 -89.598,-195.217 -129.426,-478.727Z" style="fill:#e22028;fill-rule:nonzero;"/><path d="M1591.14,791.52l52.311,-16.737c0,0 -13.793,154.799 134.471,512.164l-50.159,7.569c0,0 -128.101,-278.447 -136.623,-502.996Z" style="fill:#e22028;fill-rule:nonzero;"/><path d="M1684.44,765.057l49.256,-17.454c0,0 96.853,383.988 159.108,530.852l-61.666,1.639c0,0 -139.11,-410.046 -146.698,-515.037Z" style="fill:#e22028;fill-rule:nonzero;"/><path d="M1784.75,749.909l43.326,-5.949c0,0 38.174,167.007 70.375,235.858c32.205,68.846 97.349,258.32 102.928,275.758l-60.762,11.523l-99.338,-291.039c0,0 -48.944,-121.162 -56.529,-226.151Z" style="fill:#e22028;fill-rule:nonzero;"/><path d="M1874.47,738.728c0,0 52.389,202.6 86.214,278.281c33.822,75.678 92.301,224.882 92.301,224.882l51.78,-0.735l-183.909,-507.657l-46.386,5.229Z" style="fill:#e22028;fill-rule:nonzero;"/><path d="M1962.74,733.679c0,0 98.989,319.987 208.711,484.453l64.007,2.137c0,0 -245.927,-477.068 -232.265,-480.307l-40.453,-6.283Z" style="fill:#e22028;fill-rule:nonzero;"/><path d="M2049.21,763.682c0,0 180.636,384.322 262.998,445.603l76.05,-7.937c0,0 -259.003,-325.327 -300.745,-422.216l-38.303,-15.45Z" style="fill:#e22028;fill-rule:nonzero;"/><path d="M2118.99,796.187c0,0 237.237,294.41 336.501,366.112c0,0 45.666,-2.175 70.466,-25.374c0,0 -378.003,-285.555 -406.967,-340.738Z" style="fill:#e22028;fill-rule:nonzero;"/><path d="M2147.94,796.547l194.55,77.964c0,0 205.53,99.89 265.229,120.367c0,0 -12.93,55.021 -33.954,75.883l-425.825,-274.214Z" style="fill:#e22028;fill-rule:nonzero;"/><path d="M2107.95,736.7l525.255,122.244l-13.705,91.135l-525.456,-190.022" style="fill:#e22028;fill-rule:nonzero;"/><path d="M2085.2,667.317c0,0 551.498,88.726 564.258,75.595l-6.401,73.44l-560.228,-123.428l2.371,-25.607Z" style="fill:#e22028;fill-rule:nonzero;"/><path d="M2070.62,592.052c0,0 427.398,17.145 571.48,17.023l12.804,83.574c0,0 -135.983,-4.449 -574.849,-51.146l-9.435,-49.451Z" style="fill:#e22028;fill-rule:nonzero;"/><path d="M2052.07,525.938l563.366,-35.483l15.45,77.462l-569.331,-5.21l-9.485,-36.769Z" style="fill:#e22028;fill-rule:nonzero;"/><path d="M1802.17,2456.27c0,0 53.263,170.598 152.348,211.434c0,0 128.752,65.902 298.942,1.319c0,0 -102.608,77.806 -107.782,151.191c0,0 22.97,123.98 45.209,218.253c19.596,83.058 30.395,132.314 140.048,204.322c117.632,62.667 248.429,119.99 318.221,50.348c69.793,-69.639 -27.376,-177.644 -117.361,-136.028c0,0 -48.401,34.876 -20.155,68.706c0,0 -66.569,-33.307 5.056,-100.395c28.161,-26.375 117.022,-52.807 175.92,-2.919c90.928,77.011 129.514,259.506 -88.863,311.714c0,0 -105.676,27.787 -194.336,32.892c-269.597,15.527 -366.82,-24.951 -434.023,-86.389c-55.08,-50.36 -316.499,-434.445 -316.499,-434.445c0,0 -171.371,-228.46 -83.933,-268.241c87.433,-39.781 222.447,-137.065 227.208,-221.762Z" style="fill:#189c49;fill-rule:nonzero;"/><path d="M1888.15,2591.68c0,0 182.66,38.668 235.141,20.197l22.029,30.571c0,0 -159.942,6.508 -192.183,5.998c-32.234,-0.502 -43.007,-52.88 -64.987,-56.766Z" style="fill:#e22028;fill-rule:nonzero;"/><path d="M1823.23,2468.17c0,0 166.612,92.796 299.21,72.719l9.496,45.402c0,0 -274.892,-10.907 -276.839,-40.466c-1.948,-29.558 -31.867,-77.655 -31.867,-77.655Z" style="fill:#e22028;fill-rule:nonzero;"/><path d="M1842.93,2426.9c0,0 237.016,119.467 304.99,95.645l18.626,-27.857c0,0 -183.913,-17.523 -299.709,-119.845l-23.907,52.057Z" style="fill:#e22028;fill-rule:nonzero;"/><path d="M1873.99,2346.47l12.508,-63.199c0,0 196.674,160.156 296.954,138.205l-17.008,35.472c0,0 -162.469,-10.642 -292.454,-110.478Z" style="fill:#e22028;fill-rule:nonzero;"/><path d="M1890.76,2256.96l12.213,-47.504c0,0 199.924,153.936 329.055,134.424l-27.907,47.201c0,0 -217.015,-48.745 -313.361,-134.121Z" style="fill:#e22028;fill-rule:nonzero;"/><path d="M1924.66,2159.02l4.569,-41.995c0,0 216.449,176.86 345.993,168.662l-15.178,38.022c0,0 -251.96,-27.43 -335.384,-164.689Z" style="fill:#e22028;fill-rule:nonzero;"/><path d="M1948.81,2079.69l19.857,-53.009c0,0 198.612,189.709 347.822,171.209l-29.743,44.654c0,0 -226.494,-45.781 -337.936,-162.854Z" style="fill:#e22028;fill-rule:nonzero;"/><path d="M1975.77,1982.86l12.216,-47.506c0,0 149.167,147.943 380.041,194.442l-29.036,40.268c0,0 -266.351,-63.508 -363.221,-187.204Z" style="fill:#e22028;fill-rule:nonzero;"/><path d="M2004.28,1904.28l13.638,-56.263c0,0 153.139,137.336 399.409,199.827l-29.744,44.655c0,0 -292.346,-83.473 -383.303,-188.219Z" style="fill:#e22028;fill-rule:nonzero;"/><path d="M2023.22,1801.62l17.307,-51.174c0,0 96.872,123.705 436.72,219.389l-30.461,49.037c0,0 -243.724,-64.329 -423.566,-217.252Z" style="fill:#e22028;fill-rule:nonzero;"/><path d="M2052.43,1718.65l19.856,-53.006c0,0 188.915,138.648 463.019,223.656l-36.68,45.777c0,0 -206.111,-60.472 -446.195,-216.427Z" style="fill:#e22028;fill-rule:nonzero;"/><path d="M2097.65,1620.28l21.691,-50.456c0,0 107.775,111.972 474.738,234.556l-27.196,42.818c0,0 -294.181,-86.02 -469.233,-226.918Z" style="fill:#e22028;fill-rule:nonzero;"/><path d="M2138.9,1532.5l19.144,-48.624c0,0 353.33,178.85 505.006,228.23l-39.222,47.614c0,0 -400.718,-164.059 -484.928,-227.22Z" style="fill:#e22028;fill-rule:nonzero;"/><path d="M2193.29,1446.87l23.939,-36.598c0,0 151.079,80.775 224.165,101.639c73.088,20.871 258.816,96.022 275.638,103.251l-31.17,53.421l-284.815,-115.987c0,0 -123.545,-42.562 -207.757,-105.726Z" style="fill:#e22028;fill-rule:nonzero;"/><path d="M2243.72,1371.85c0,0 187.267,93.398 266.572,117.521c79.305,24.129 230.272,77.89 230.272,77.89l33.415,-39.56l-503.775,-194.287l-26.484,38.436Z" style="fill:#e22028;fill-rule:nonzero;"/><path d="M2297.82,1301.9c0,0 309.054,129.64 505.162,154.744l49.812,-52.052c0,0 -75.856,-2.376 -161.84,-21.917c-156.075,-35.472 -366.052,-99.165 -361.848,-107.183l-31.286,26.408Z" style="fill:#e22028;fill-rule:nonzero;"/><path d="M2377.21,1256.32c0,0 408.545,115.845 508.832,93.892l22.588,-50.714c0,0 -394.127,-29.876 -494.632,-61.948l-36.788,18.77Z" style="fill:#e22028;fill-rule:nonzero;"/><path d="M2457.07,1204.25c0,0 401.221,64.347 468.947,54.366c0,0 9.274,-23.723 18.741,-38.956c9.465,-15.234 -281.08,-7.536 -442.711,-49.713l-44.977,34.303Z" style="fill:#e22028;fill-rule:nonzero;"/><path d="M2529.65,1147.77l42.855,-41.445c0,0 334.104,42.303 429.617,18.649l-32.834,51.676c0,0 -397.592,-18.042 -439.638,-28.88Z" style="fill:#e22028;fill-rule:nonzero;"/><path d="M2606.88,1065.06c0,0 267.175,28.754 411.081,37.345l29.162,-40.489c0,0 -342.03,-16.652 -413.197,-44.486c0,0 -12.184,40.117 -27.046,47.63Z" style="fill:#e22028;fill-rule:nonzero;"/><path d="M2635.98,990.786l408.403,37.723l28.269,-57.724c0,0 -425.509,-7.217 -429.607,-12.97c-4.098,-5.752 -7.065,32.971 -7.065,32.971Z" style="fill:#e22028;fill-rule:nonzero;"/><path d="M2643.04,936.619l435.651,0l23.362,-50.386l-454.307,5.642l-4.706,44.744Z" style="fill:#e22028;fill-rule:nonzero;"/><path d="M2657.17,861.264l438.793,-1.572l-0.784,-57.298l-435.655,28.256l-2.354,30.614Z" style="fill:#e22028;fill-rule:nonzero;"/><path d="M2668.96,788.274l416.811,-23.549l-4.709,-51.806l-402.682,25.904l-9.42,49.451Z" style="fill:#e22028;fill-rule:nonzero;"/><path d="M2676.01,701.152l390.906,-28.26l-14.129,-49.451l-379.135,30.613l2.358,47.098Z" style="fill:#e22028;fill-rule:nonzero;"/><path d="M2668.96,569.262l4.709,49.452l361.08,-20.407l-17.267,-45.529l-348.522,16.484Z" style="fill:#e22028;fill-rule:nonzero;"/><path d="M2645.4,491.562l9.417,44.745l343.815,-16.485l-21.195,-44.74l-332.037,16.48Z" style="fill:#e22028;fill-rule:nonzero;"/></g></svg>