<?xml version="1.0" encoding="utf-8"?>
<!-- Generator: Adobe Illustrator 22.1.0, SVG Export Plug-In . SVG Version: 6.00 Build 0)  -->
<svg version="1.1" id="Layer_1" xmlns="http://www.w3.org/2000/svg" xmlns:xlink="http://www.w3.org/1999/xlink" x="0px" y="0px"
	 viewBox="0 0 17.9 36.7" style="enable-background:new 0 0 17.9 36.7;" xml:space="preserve">
<style type="text/css">
	.st0{fill:#FF3019;}
</style>
<g id="Layer_2_1_">
	<g id="Слой_3">
		<g id="Solid">
			<path class="st0" d="M17.8,0.8C17.9,0.8,18,1,18,1.1c0,0,0,0,0,0C17.8,2,17.6,3,17.5,3.9c0,0.7-0.1,1.4-0.3,2.1
				c0,0.1-0.1,0.2-0.3,0.3c0,0.1-0.1,0.1-0.1,0.1c-1.6,0.4-3.7-1-4.8,0.9c-0.8,1.3-0.3,3.2-0.2,4.6c1-0.1,2-0.2,3-0.1
				c0.7,0,1.7-0.2,2.3,0.3c0,0.1,0,0.1,0,0.2c0.7,1.4,0,3.6-0.1,5.1c0,0.2-0.1,0.3-0.3,0.3c0,0.1-0.1,0.2-0.3,0.2
				c-1.6,0.4-3.4,0.3-5-0.1c0.2,3-0.1,6.2-0.1,9.2s0.5,6.1,0,9c0,0.1-0.1,0.1-0.1,0.2c0,0.1-0.1,0.2-0.2,0.2
				c-1.2,0.2-2.4,0.3-3.6,0.1c-0.9,0-1.9-0.1-2.8-0.3c-0.2,0.1-0.3,0-0.4-0.2c0,0,0-0.1,0-0.1c-0.1-3.2-0.3-6.4-0.2-9.6
				C4,23.5,4,20.6,4.3,17.8c-0.1,0-0.1,0.1-0.2,0.1c-0.8,0.1-1.5,0.2-2.3,0.1c-0.4,0-0.7-0.1-1-0.3c-0.2,0.1-0.4,0-0.5-0.2
				C0,16.8-0.1,16,0.1,15.2c-0.1-1,0-1.9,0.3-2.8c-0.1-0.2,0-0.4,0.2-0.4c0,0,0.1,0,0.1,0C1.4,12,2,12,2.6,12c0.4,0,0.8-0.1,1.1-0.2
				c-0.2-1.7-0.1-3.4,0.3-5c0.1-1.9,1-3.7,2.4-5c1.4-1.1,3.1-1.6,4.9-1.6c2-0.1,4.5-0.5,6.3,0.6C17.6,0.7,17.7,0.8,17.8,0.8z"/>
		</g>
	</g>
</g>
</svg>
