<svg xmlns="http://www.w3.org/2000/svg" viewBox="0 0 30.01 30.01"><defs><style>.cls-1{fill:#ef4136;}</style></defs><title>Asset 4</title><g id="Layer_2" data-name="Layer 2"><g id="Layer_4" data-name="Layer 4"><path id="_Compound_Path_" data-name="&lt;Compound Path&gt;" class="cls-1" d="M0,3.83A3.83,3.83,0,1,0,3.83,0,3.84,3.84,0,0,0,0,3.83Zm5.79,0a2,2,0,1,1-2-2A2,2,0,0,1,5.79,3.83Z"/><path id="_Compound_Path_2" data-name="&lt;Compound Path&gt;" class="cls-1" d="M11.18,3.83A3.83,3.83,0,1,0,15,0,3.83,3.83,0,0,0,11.18,3.83Zm5.79,0a2,2,0,1,1-2-2A2,2,0,0,1,17,3.83Z"/><path id="_Compound_Path_3" data-name="&lt;Compound Path&gt;" class="cls-1" d="M22.35,3.83A3.83,3.83,0,1,0,26.18,0,3.84,3.84,0,0,0,22.35,3.83Zm5.8,0a2,2,0,1,1-2-2A2,2,0,0,1,28.15,3.83Z"/><path id="_Compound_Path_4" data-name="&lt;Compound Path&gt;" class="cls-1" d="M0,15a3.83,3.83,0,1,0,3.83-3.83A3.84,3.84,0,0,0,0,15Zm5.79,0a2,2,0,1,1-2-2A2,2,0,0,1,5.79,15Z"/><path id="_Compound_Path_5" data-name="&lt;Compound Path&gt;" class="cls-1" d="M22.35,15a3.83,3.83,0,1,0,3.83-3.83A3.84,3.84,0,0,0,22.35,15Zm5.8,0a2,2,0,1,1-2-2A2,2,0,0,1,28.15,15Z"/><path id="_Compound_Path_6" data-name="&lt;Compound Path&gt;" class="cls-1" d="M0,26.18a3.83,3.83,0,1,0,3.83-3.83A3.83,3.83,0,0,0,0,26.18Zm5.79,0a2,2,0,1,1-2-2A2,2,0,0,1,5.79,26.18Z"/><path id="_Compound_Path_7" data-name="&lt;Compound Path&gt;" class="cls-1" d="M11.18,26.18A3.83,3.83,0,1,0,15,22.35,3.82,3.82,0,0,0,11.18,26.18Zm5.79,0a2,2,0,1,1-2-2A2,2,0,0,1,17,26.18Z"/><path id="_Compound_Path_8" data-name="&lt;Compound Path&gt;" class="cls-1" d="M22.35,26.18a3.83,3.83,0,1,0,3.83-3.83A3.83,3.83,0,0,0,22.35,26.18Zm5.8,0a2,2,0,1,1-2-2A2,2,0,0,1,28.15,26.18Z"/></g></g></svg>