<?xml version="1.0" encoding="utf-8"?>
<!-- Generator: Adobe Illustrator 22.1.0, SVG Export Plug-In . SVG Version: 6.00 Build 0)  -->
<svg version="1.1" id="Layer_1" xmlns="http://www.w3.org/2000/svg" xmlns:xlink="http://www.w3.org/1999/xlink" x="0px" y="0px"
	 viewBox="0 0 36.9 37.4" style="enable-background:new 0 0 36.9 37.4;" xml:space="preserve">
<style type="text/css">
	.st0{fill:#FF3019;}
</style>
<path class="st0" d="M36.3,27.2C36.4,27.2,36.4,27.2,36.3,27.2C36,29.6,36.2,32,34.2,34s-5.3,2.5-8,2.7c-5.5,0.4-11.1-0.5-16.6-0.2
	c-1.5-0.3-3-0.1-4.5-0.7C3.2,34.8,1.9,33,1.5,31l0,0c0-0.1,0-0.1-0.1-0.2c-0.5-2.7-0.7-5.4-0.7-8.1c0-2.4-0.1-4.9,0-7.3
	c0.3-2.5,0.4-4.9,0.4-7.4c0.1,0,0.1-0.1,0.1-0.1c0.3-3.4,1.8-6.1,5.4-6.8c2.6-0.5,5.1,0.2,7.7-0.2l0,0C17.7,1,20.9,1.1,24.2,1
	c1.6-0.1,3.2-0.1,4.9,0l0,0c0.2,0,0.4,0.1,0.6,0.1C31.3,1.3,32.5,0.9,34,2c3,2.2,2.3,6.8,2.2,10c-0.1,3.5,0,6.9-0.1,10.4
	c0,1.5,0.1,3.2,0.2,4.8L36.3,27.2z M32.9,26c0.1-3.8,0.7-7.6,0.4-11.5c0-0.1-0.1-0.1-0.1-0.1c0,0-0.1,0-0.1,0l0,0
	c-0.9-0.1-1.8-0.2-2.8-0.1c-0.8,0-1.6,0-2.3,0.1c0-0.1-0.2-0.1-0.2-0.1c-0.1,0-0.1,0.1-0.1,0.2h-0.1c0,0-0.1,0.1,0,0.1c0,0,0,0,0,0
	l0.2,0c0.2,1,0.5,2,0.7,3c0.1,0.9,0.1,1.8-0.1,2.6c0,0-0.1,0-0.1,0c-0.3,0.7-0.6,1.4-1,2.1c-1.6,2.5-4.1,4.3-6.9,5
	c-3.7,0.9-7.5-0.5-9.7-3.7C9,21.4,9.2,19,9.3,16.5c0-0.2,0-0.4,0-0.6c0-0.1,0-0.2,0-0.2v-0.2c0-0.2,0-0.4,0-0.7h0.1
	c0-0.1,0-0.2,0-0.2s0-0.2,0-0.3C8.6,14,7.8,14,7,14.1c-0.9,0-1.9,0.1-2.8,0.4c0-0.1-0.2-0.1-0.2,0l0,0H4c0,0-0.1,0.1,0,0.1
	c0,0,0,0,0,0h0.1c0.2,3.2-0.3,6.4-0.2,9.5c0.1,2.1,0,4.7,1.1,6.6c0.2,0.4,0.5,0.8,0.9,1.1c0,0,0.1-0.1,0.2-0.1c0.4,0.6,1.1,1,1.8,1
	c2.3,0.3,4.8,0.1,7.1,0.2c2.9,0.1,5.9-0.3,8.8-0.2H24c0,0,0-0.1,0-0.2c1.3,0.2,2.5,0.3,3.8,0.2c1.1,0,2.6,0.2,3.5-0.5
	c0,0,0-0.1,0-0.1c0.2-0.1,0.4-0.3,0.5-0.5C33.2,30.2,32.9,27.8,32.9,26z M32,4.4c0.1,0,0.1-0.1,0.1-0.1c0,0,0,0-0.1-0.1
	c-0.8-0.2-1.7-0.2-2.6,0c-1,0.1-1.9,0.1-2.9,0.2c0-0.1-0.1-0.1-0.2,0c0,0,0,0.1-0.1,0.1l0,0c0,0.1,0,0.1,0,0.2
	c0,1.9-0.1,3.8-0.1,5.7c0,0.1,0.1,0.2,0.2,0.2c0,0,0,0.1,0,0.1c0,0,0,0,0,0c1.6,0.1,3.7,0.5,5.3-0.2c0.1,0,0.3,0,0.3-0.2
	C32.1,8.4,32.1,6.4,32,4.4C32,4.4,32,4.4,32,4.4z M22.1,23.3c3.2-2.5,4.2-7.3,1.1-10.2c-2.8-2.4-7-2.2-9.4,0.6
	c-0.3,0.3-0.5,0.6-0.7,0.9c-0.1,0.1,0.1,0.3,0.2,0.2c0.1-0.1,0.2-0.2,0.3-0.2c-1.6,2.1-1.7,5-0.3,7.3c2,2.8,5.8,3.5,8.7,1.6
	C22,23.4,22.1,23.3,22.1,23.3z"/>
</svg>
