<?xml version="1.0" encoding="utf-8"?>
<!-- Generator: Adobe Illustrator 22.0.1, SVG Export Plug-In . SVG Version: 6.00 Build 0)  -->
<svg version="1.1" id="Layer_1" xmlns="http://www.w3.org/2000/svg" xmlns:xlink="http://www.w3.org/1999/xlink" x="0px" y="0px"
	 viewBox="0 0 566.9 566.9" style="enable-background:new 0 0 566.9 566.9;" xml:space="preserve">
<style type="text/css">
	.st0{fill:#EF3926;}
</style>
<g id="XMLID_44_">
	<path id="XMLID_1548_" class="st0" d="M240.5,416H240c-1.7,0-3.1,1.4-3.1,3.1c0,1.7,1.4,3.1,3.1,3.1h0.4c1.7,0,3.1-1.4,3.1-3.1
		C243.5,417.4,242.1,416,240.5,416z"/>
	<path id="XMLID_1547_" class="st0" d="M189.8,416h-0.4c-1.7,0-3.1,1.4-3.1,3.1c0,1.7,1.4,3.1,3.1,3.1h0.4c1.7,0,3.1-1.4,3.1-3.1
		C192.8,417.4,191.5,416,189.8,416z"/>
	<path id="XMLID_1546_" class="st0" d="M215.1,416h-0.4c-1.7,0-3.1,1.4-3.1,3.1c0,1.7,1.4,3.1,3.1,3.1h0.4c1.7,0,3.1-1.4,3.1-3.1
		C218.2,417.4,216.8,416,215.1,416z"/>
	<path id="XMLID_1545_" class="st0" d="M164.4,416H164c-1.7,0-3.1,1.4-3.1,3.1c0,1.7,1.4,3.1,3.1,3.1h0.4c1.7,0,3.1-1.4,3.1-3.1
		C167.5,417.4,166.1,416,164.4,416z"/>
	<path id="XMLID_1544_" class="st0" d="M202.4,416H202c-1.7,0-3.1,1.4-3.1,3.1c0,1.7,1.4,3.1,3.1,3.1h0.4c1.7,0,3.1-1.4,3.1-3.1
		C205.5,417.4,204.1,416,202.4,416z"/>
	<path id="XMLID_1543_" class="st0" d="M253.1,416h-0.4c-1.7,0-3.1,1.4-3.1,3.1c0,1.7,1.4,3.1,3.1,3.1h0.4c1.7,0,3.1-1.4,3.1-3.1
		C256.2,417.4,254.8,416,253.1,416z"/>
	<path id="XMLID_1542_" class="st0" d="M126.4,416H126c-1.7,0-3.1,1.4-3.1,3.1c0,1.7,1.4,3.1,3.1,3.1h0.4c1.7,0,3.1-1.4,3.1-3.1
		C129.5,417.4,128.1,416,126.4,416z"/>
	<path id="XMLID_1541_" class="st0" d="M227.8,416h-0.4c-1.7,0-3.1,1.4-3.1,3.1c0,1.7,1.4,3.1,3.1,3.1h0.4c1.7,0,3.1-1.4,3.1-3.1
		C230.8,417.4,229.5,416,227.8,416z"/>
	<path id="XMLID_1540_" class="st0" d="M139.1,416h-0.4c-1.7,0-3.1,1.4-3.1,3.1c0,1.7,1.4,3.1,3.1,3.1h0.4c1.7,0,3.1-1.4,3.1-3.1
		C142.1,417.4,140.8,416,139.1,416z"/>
	<path id="XMLID_1539_" class="st0" d="M151.7,416h-0.4c-1.7,0-3.1,1.4-3.1,3.1c0,1.7,1.4,3.1,3.1,3.1h0.4c1.7,0,3.1-1.4,3.1-3.1
		C154.8,417.4,153.4,416,151.7,416z"/>
	<path id="XMLID_1538_" class="st0" d="M265.8,416h-0.4c-1.7,0-3.1,1.4-3.1,3.1c0,1.7,1.4,3.1,3.1,3.1h0.4c1.7,0,3.1-1.4,3.1-3.1
		C268.9,417.4,267.5,416,265.8,416z"/>
	<path id="XMLID_1537_" class="st0" d="M177.1,416h-0.4c-1.7,0-3.1,1.4-3.1,3.1c0,1.7,1.4,3.1,3.1,3.1h0.4c1.7,0,3.1-1.4,3.1-3.1
		C180.2,417.4,178.8,416,177.1,416z"/>
	<path id="XMLID_1536_" class="st0" d="M202.4,394.2H202c-1.7,0-3.1,1.4-3.1,3.1s1.4,3.1,3.1,3.1h0.4c1.7,0,3.1-1.4,3.1-3.1
		S204.1,394.2,202.4,394.2z"/>
	<path id="XMLID_1535_" class="st0" d="M189.8,394.2h-0.4c-1.7,0-3.1,1.4-3.1,3.1s1.4,3.1,3.1,3.1h0.4c1.7,0,3.1-1.4,3.1-3.1
		S191.5,394.2,189.8,394.2z"/>
	<path id="XMLID_1534_" class="st0" d="M151.7,394.2h-0.4c-1.7,0-3.1,1.4-3.1,3.1s1.4,3.1,3.1,3.1h0.4c1.7,0,3.1-1.4,3.1-3.1
		S153.4,394.2,151.7,394.2z"/>
	<path id="XMLID_1533_" class="st0" d="M253.1,394.2h-0.4c-1.7,0-3.1,1.4-3.1,3.1s1.4,3.1,3.1,3.1h0.4c1.7,0,3.1-1.4,3.1-3.1
		S254.8,394.2,253.1,394.2z"/>
	<path id="XMLID_1532_" class="st0" d="M177.1,394.2h-0.4c-1.7,0-3.1,1.4-3.1,3.1s1.4,3.1,3.1,3.1h0.4c1.7,0,3.1-1.4,3.1-3.1
		S178.8,394.2,177.1,394.2z"/>
	<path id="XMLID_1531_" class="st0" d="M139.1,394.2h-0.4c-1.7,0-3.1,1.4-3.1,3.1s1.4,3.1,3.1,3.1h0.4c1.7,0,3.1-1.4,3.1-3.1
		S140.8,394.2,139.1,394.2z"/>
	<path id="XMLID_1530_" class="st0" d="M126.4,394.2H126c-1.7,0-3.1,1.4-3.1,3.1s1.4,3.1,3.1,3.1h0.4c1.7,0,3.1-1.4,3.1-3.1
		S128.1,394.2,126.4,394.2z"/>
	<path id="XMLID_1529_" class="st0" d="M227.8,394.2h-0.4c-1.7,0-3.1,1.4-3.1,3.1s1.4,3.1,3.1,3.1h0.4c1.7,0,3.1-1.4,3.1-3.1
		S229.5,394.2,227.8,394.2z"/>
	<path id="XMLID_1528_" class="st0" d="M215.1,394.2h-0.4c-1.7,0-3.1,1.4-3.1,3.1s1.4,3.1,3.1,3.1h0.4c1.7,0,3.1-1.4,3.1-3.1
		S216.8,394.2,215.1,394.2z"/>
	<path id="XMLID_1527_" class="st0" d="M265.8,394.2h-0.4c-1.7,0-3.1,1.4-3.1,3.1s1.4,3.1,3.1,3.1h0.4c1.7,0,3.1-1.4,3.1-3.1
		S267.5,394.2,265.8,394.2z"/>
	<path id="XMLID_1526_" class="st0" d="M164.4,394.2H164c-1.7,0-3.1,1.4-3.1,3.1s1.4,3.1,3.1,3.1h0.4c1.7,0,3.1-1.4,3.1-3.1
		S166.1,394.2,164.4,394.2z"/>
	<path id="XMLID_1525_" class="st0" d="M240.5,394.2H240c-1.7,0-3.1,1.4-3.1,3.1s1.4,3.1,3.1,3.1h0.4c1.7,0,3.1-1.4,3.1-3.1
		S242.1,394.2,240.5,394.2z"/>
	<path id="XMLID_1524_" class="st0" d="M126.4,372.4H126c-1.7,0-3.1,1.4-3.1,3.1s1.4,3.1,3.1,3.1h0.4c1.7,0,3.1-1.4,3.1-3.1
		S128.1,372.4,126.4,372.4z"/>
	<path id="XMLID_1523_" class="st0" d="M189.8,372.4h-0.4c-1.7,0-3.1,1.4-3.1,3.1s1.4,3.1,3.1,3.1h0.4c1.7,0,3.1-1.4,3.1-3.1
		S191.5,372.4,189.8,372.4z"/>
	<path id="XMLID_1522_" class="st0" d="M164.4,372.4H164c-1.7,0-3.1,1.4-3.1,3.1s1.4,3.1,3.1,3.1h0.4c1.7,0,3.1-1.4,3.1-3.1
		S166.1,372.4,164.4,372.4z"/>
	<path id="XMLID_1521_" class="st0" d="M227.8,372.4h-0.4c-1.7,0-3.1,1.4-3.1,3.1s1.4,3.1,3.1,3.1h0.4c1.7,0,3.1-1.4,3.1-3.1
		S229.5,372.4,227.8,372.4z"/>
	<path id="XMLID_1520_" class="st0" d="M240.5,372.4H240c-1.7,0-3.1,1.4-3.1,3.1s1.4,3.1,3.1,3.1h0.4c1.7,0,3.1-1.4,3.1-3.1
		S242.1,372.4,240.5,372.4z"/>
	<path id="XMLID_1519_" class="st0" d="M265.8,372.4h-0.4c-1.7,0-3.1,1.4-3.1,3.1s1.4,3.1,3.1,3.1h0.4c1.7,0,3.1-1.4,3.1-3.1
		S267.5,372.4,265.8,372.4z"/>
	<path id="XMLID_1518_" class="st0" d="M253.1,372.4h-0.4c-1.7,0-3.1,1.4-3.1,3.1s1.4,3.1,3.1,3.1h0.4c1.7,0,3.1-1.4,3.1-3.1
		S254.8,372.4,253.1,372.4z"/>
	<path id="XMLID_1517_" class="st0" d="M202.4,372.4H202c-1.7,0-3.1,1.4-3.1,3.1s1.4,3.1,3.1,3.1h0.4c1.7,0,3.1-1.4,3.1-3.1
		S204.1,372.4,202.4,372.4z"/>
	<path id="XMLID_1516_" class="st0" d="M215.1,372.4h-0.4c-1.7,0-3.1,1.4-3.1,3.1s1.4,3.1,3.1,3.1h0.4c1.7,0,3.1-1.4,3.1-3.1
		S216.8,372.4,215.1,372.4z"/>
	<path id="XMLID_1515_" class="st0" d="M139.1,372.4h-0.4c-1.7,0-3.1,1.4-3.1,3.1s1.4,3.1,3.1,3.1h0.4c1.7,0,3.1-1.4,3.1-3.1
		S140.8,372.4,139.1,372.4z"/>
	<path id="XMLID_1514_" class="st0" d="M151.7,372.4h-0.4c-1.7,0-3.1,1.4-3.1,3.1s1.4,3.1,3.1,3.1h0.4c1.7,0,3.1-1.4,3.1-3.1
		S153.4,372.4,151.7,372.4z"/>
	<path id="XMLID_1513_" class="st0" d="M177.1,372.4h-0.4c-1.7,0-3.1,1.4-3.1,3.1s1.4,3.1,3.1,3.1h0.4c1.7,0,3.1-1.4,3.1-3.1
		S178.8,372.4,177.1,372.4z"/>
	<path id="XMLID_1454_" class="st0" d="M468.8,435.1V239.7c0-4.5-1.9-8.6-5.3-11.6c0,0-0.1-0.1-0.1-0.1c-0.1-0.1-0.2-0.1-0.2-0.2
		c-0.1-0.1-0.2-0.1-0.2-0.2c0,0-0.1,0-0.1-0.1l-0.2-0.1l0,0c-0.6-0.5-1.3-0.9-2-1.3l-30-19.1v-52.8c0-1.7-1.4-3.1-3.1-3.1h-84.9
		l-51.1-32.5c-4.9-3-11-3-16,0l-51.1,32.4h-84.8c-1.7,0-3.1,1.4-3.1,3.1v52.6l-32.6,20.7c-0.4,0.3-0.7,0.6-1,1
		c-2.9,2.8-4.8,6.7-4.8,11.1v195.3c0,8.5,6.9,15.4,15.4,15.4h339.9C461.9,450.4,468.8,443.5,468.8,435.1z M430.5,214.5l15.5,9.8
		h-15.5V214.5z M430.5,230.6h22.9c0.3,0,0.6,0,0.9,0.1L430.5,245V230.6z M278.7,124.1c2.9-1.8,6.5-1.8,9.4,0l42.7,27.1H236
		L278.7,124.1z M142.7,157.4h82.5h116.3l0,0l0,0h82.7v51.4v18.6v21.3l-81.1,48.9l-24.7-0.1l-27.2-27.2l27,0.1l14.2,14.3
		c0.6,0.6,1.4,0.9,2.2,0.9c0.8,0,1.6-0.3,2.2-0.9c1.2-1.2,1.2-3.2,0-4.4l-9.8-9.9l1.2,0c0,0,0,0,0,0l8,0l14.2,14.3
		c0.6,0.6,1.4,0.9,2.2,0.9c0.8,0,1.6-0.3,2.2-0.9c1.2-1.2,1.2-3.2,0-4.4l-9.8-9.9l10.2,0c1.4,5.5,6.4,9.6,12.3,9.6
		c7,0,12.7-5.7,12.7-12.7c0-7-5.7-12.7-12.7-12.7c-5.9,0-10.9,4.1-12.3,9.6l-9.5,0l9.2-9.2c1.2-1.2,1.2-3.2,0-4.4
		c-1.2-1.2-3.2-1.2-4.4,0l-13.7,13.6l-6.8,0c0,0,0,0,0,0l-2.4,0l9.2-9.2c1.2-1.2,1.2-3.2,0-4.4c-1.2-1.2-3.2-1.2-4.4,0l-13.7,13.6
		l-27.7-0.1l26.3-26.3l2.3-2.3l19.7,0.1h0c1.7,0,3.1-1.4,3.1-3.1c0-1.7-1.4-3.1-3.1-3.1l-13.5,0l12.4-12.4c1.2-1.2,1.2-3.2,0-4.4
		c-1.2-1.2-3.2-1.2-4.4,0l-12.4,12.4l0-13.5c0-1.7-1.4-3.1-3.1-3.1c0,0,0,0,0,0c-1.7,0-3.1,1.4-3.1,3.1l-0.1,19.7l-2.4,2.3
		c0,0,0,0,0,0c0,0,0,0,0,0l-26.4,26.4v-27.4l14-13.9c1.2-1.2,1.2-3.2,0-4.4c-1.2-1.2-3.2-1.2-4.4,0l-9.6,9.5v-1.2l0-8l14-13.9
		c1.2-1.2,1.2-3.2,0-4.4c-1.2-1.2-3.2-1.2-4.4,0l-9.6,9.5l0-9.6c5.4-1.5,9.3-6.4,9.3-12.2c0-7-5.7-12.7-12.7-12.7
		c-7,0-12.7,5.7-12.7,12.7c0,6,4.2,11,9.8,12.3l0,9.4L271,196c-1.2-1.2-3.2-1.2-4.4,0c-1.2,1.2-1.2,3.2,0,4.4l13.9,14l0,8
		c0,0,0,0,0,0c0,0,0,0,0,0v1.2L271,214c-1.2-1.2-3.2-1.2-4.4,0c-1.2,1.2-1.2,3.2,0,4.4l13.9,14v27.2L254,233.2l-0.7-0.7l0.1-19.7
		c0-1.7-1.4-3.1-3.1-3.1c0,0,0,0,0,0c-1.7,0-3.1,1.4-3.1,3.1l0,13.5l-14-14.1c-1.2-1.2-3.2-1.2-4.4,0c-1.2,1.2-1.2,3.2,0,4.4
		l14,14.1l-13.5,0c0,0,0,0,0,0c-1.7,0-3.1,1.4-3.1,3.1c0,1.7,1.4,3.1,3.1,3.1l19.7,0.1l0.7,0.7c0,0,0,0,0,0c0,0,0,0,0,0l26.5,26.5
		l-28.1-0.1l-13.6-13.7c-1.2-1.2-3.2-1.2-4.4,0c-1.2,1.2-1.2,3.2,0,4.4l9.2,9.2l-9.2,0l-13.6-13.7c-1.2-1.2-3.2-1.2-4.4,0
		c-1.2,1.2-1.2,3.2,0,4.4l9.2,9.2l-9.7,0c-1.5-5.3-6.4-9.1-12.2-9.1c-7,0-12.7,5.7-12.7,12.7c0,7,5.7,12.7,12.7,12.7
		c6.1,0,11.2-4.3,12.4-10l10,0l-9.8,9.8c-1.2,1.2-1.2,3.2,0,4.4c0.6,0.6,1.4,0.9,2.2,0.9c0.8,0,1.6-0.3,2.2-0.9l14.3-14.2l9.2,0
		l-9.8,9.8c-1.2,1.2-1.2,3.2,0,4.4c0.6,0.6,1.4,0.9,2.2,0.9c0.8,0,1.6-0.3,2.2-0.9l14.3-14.2l27.6,0.1l-25.4,25.4l-31.1-0.1
		L142.7,250v-22.5v-18.8V157.4z M230.2,302l14.3,0l-5.3,5.3L230.2,302z M248.4,307l0,5.9l-3.7-2.2L248.4,307z M254.7,300.7
		l25.7-25.8v27.5l-14.2,14.2c-1.2,1.2-1.2,3.2,0,4.4c1.2,1.2,3.2,1.2,4.4,0l9.8-9.8v9.1l-8,6.8l-17.7-10.5L254.7,300.7z
		 M285.1,189.9c-0.4-0.2-0.9-0.4-1.4-0.4c0,0,0,0,0,0c-0.6,0-1.1,0.2-1.6,0.5c-2.9-0.6-5.1-3.2-5.1-6.3c0-3.5,2.9-6.4,6.4-6.4
		s6.4,2.9,6.4,6.4C289.8,186.7,287.8,189.2,285.1,189.9z M280.4,328.5v3.1c-0.6-0.2-1.2-0.5-1.7-0.8l-0.6-0.4L280.4,328.5z
		 M286.7,329l1.9,1.6l-0.4,0.3c-0.5,0.3-1,0.5-1.5,0.7V329z M294.3,327.2l-7.6-6.3v-9l9.2,9.3c0.6,0.6,1.4,0.9,2.2,0.9
		c0.8,0,1.6-0.3,2.2-0.9c1.2-1.2,1.2-3.2,0-4.4L286.7,303v-28.3l26.9,26.8l-0.1,14L294.3,327.2z M319.8,307.8l2.5,2.5l-2.5,1.5
		L319.8,307.8z M327.8,307l-3.1-3.1l8.1,0L327.8,307z M361.2,267.5c0-3.5,2.9-6.4,6.4-6.4s6.4,2.9,6.4,6.4s-2.9,6.4-6.4,6.4
		S361.2,271.1,361.2,267.5z M205.7,267.5c0,3.5-2.9,6.4-6.4,6.4s-6.4-2.9-6.4-6.4s2.9-6.4,6.4-6.4S205.7,264,205.7,267.5z
		 M136.5,224.3h-15.8l15.8-10V224.3z M113.5,230.6h22.9v15.6L110.9,231C111.7,230.8,112.6,230.6,113.5,230.6z M104.4,435.1V239.7
		c0-1.7,0.5-3.2,1.3-4.5l169.9,101.1c2.5,1.5,5.2,2.2,7.9,2.2c2.7,0,5.5-0.7,7.9-2.2l53.9-32.5c0.3-0.1,0.6-0.3,0.9-0.5l114.4-69
		c1.2,1.6,1.9,3.5,1.9,5.5v195.3c0,5-4.1,9.1-9.1,9.1H113.5C108.5,444.2,104.4,440.1,104.4,435.1z"/>
</g>
</svg>
