<?xml version="1.0" encoding="utf-8"?>
<!-- Generator: Adobe Illustrator 22.1.0, SVG Export Plug-In . SVG Version: 6.00 Build 0)  -->
<svg version="1.1" id="Layer_1" xmlns="http://www.w3.org/2000/svg" xmlns:xlink="http://www.w3.org/1999/xlink" x="0px" y="0px"
	 viewBox="0 0 382 354" style="enable-background:new 0 0 382 354;" xml:space="preserve">
<style type="text/css">
	.st0{fill:#EF3926;}
</style>
<g id="XMLID_44_">
	<path id="XMLID_1548_" class="st0" d="M147.5,312H147c-1.7,0-3.1,1.4-3.1,3.1s1.4,3.1,3.1,3.1h0.4c1.7,0,3.1-1.4,3.1-3.1
		S149.1,312,147.5,312z"/>
	<path id="XMLID_1547_" class="st0" d="M96.8,312h-0.4c-1.7,0-3.1,1.4-3.1,3.1s1.4,3.1,3.1,3.1h0.4c1.7,0,3.1-1.4,3.1-3.1
		C99.8,313.4,98.5,312,96.8,312z"/>
	<path id="XMLID_1546_" class="st0" d="M122.1,312h-0.4c-1.7,0-3.1,1.4-3.1,3.1s1.4,3.1,3.1,3.1h0.4c1.7,0,3.1-1.4,3.1-3.1
		C125.2,313.4,123.8,312,122.1,312z"/>
	<path id="XMLID_1545_" class="st0" d="M71.4,312H71c-1.7,0-3.1,1.4-3.1,3.1s1.4,3.1,3.1,3.1h0.4c1.7,0,3.1-1.4,3.1-3.1
		S73.1,312,71.4,312z"/>
	<path id="XMLID_1544_" class="st0" d="M109.4,312H109c-1.7,0-3.1,1.4-3.1,3.1s1.4,3.1,3.1,3.1h0.4c1.7,0,3.1-1.4,3.1-3.1
		S111.1,312,109.4,312z"/>
	<path id="XMLID_1543_" class="st0" d="M160.1,312h-0.4c-1.7,0-3.1,1.4-3.1,3.1s1.4,3.1,3.1,3.1h0.4c1.7,0,3.1-1.4,3.1-3.1
		S161.8,312,160.1,312z"/>
	<path id="XMLID_1542_" class="st0" d="M33.4,312H33c-1.7,0-3.1,1.4-3.1,3.1s1.4,3.1,3.1,3.1h0.4c1.7,0,3.1-1.4,3.1-3.1
		S35.1,312,33.4,312z"/>
	<path id="XMLID_1541_" class="st0" d="M134.8,312h-0.4c-1.7,0-3.1,1.4-3.1,3.1s1.4,3.1,3.1,3.1h0.4c1.7,0,3.1-1.4,3.1-3.1
		C137.8,313.4,136.5,312,134.8,312z"/>
	<path id="XMLID_1540_" class="st0" d="M46.1,312h-0.4c-1.7,0-3.1,1.4-3.1,3.1s1.4,3.1,3.1,3.1h0.4c1.7,0,3.1-1.4,3.1-3.1
		C49.1,313.4,47.8,312,46.1,312z"/>
	<path id="XMLID_1539_" class="st0" d="M58.7,312h-0.4c-1.7,0-3.1,1.4-3.1,3.1s1.4,3.1,3.1,3.1h0.4c1.7,0,3.1-1.4,3.1-3.1
		S60.4,312,58.7,312z"/>
	<path id="XMLID_1538_" class="st0" d="M172.8,312h-0.4c-1.7,0-3.1,1.4-3.1,3.1s1.4,3.1,3.1,3.1h0.4c1.7,0,3.1-1.4,3.1-3.1
		S174.5,312,172.8,312z"/>
	<path id="XMLID_1537_" class="st0" d="M84.1,312h-0.4c-1.7,0-3.1,1.4-3.1,3.1s1.4,3.1,3.1,3.1h0.4c1.7,0,3.1-1.4,3.1-3.1
		C87.2,313.4,85.8,312,84.1,312z"/>
	<path id="XMLID_1536_" class="st0" d="M109.4,290.2H109c-1.7,0-3.1,1.4-3.1,3.1s1.4,3.1,3.1,3.1h0.4c1.7,0,3.1-1.4,3.1-3.1
		S111.1,290.2,109.4,290.2z"/>
	<path id="XMLID_1535_" class="st0" d="M96.8,290.2h-0.4c-1.7,0-3.1,1.4-3.1,3.1s1.4,3.1,3.1,3.1h0.4c1.7,0,3.1-1.4,3.1-3.1
		S98.5,290.2,96.8,290.2z"/>
	<path id="XMLID_1534_" class="st0" d="M58.7,290.2h-0.4c-1.7,0-3.1,1.4-3.1,3.1s1.4,3.1,3.1,3.1h0.4c1.7,0,3.1-1.4,3.1-3.1
		S60.4,290.2,58.7,290.2z"/>
	<path id="XMLID_1533_" class="st0" d="M160.1,290.2h-0.4c-1.7,0-3.1,1.4-3.1,3.1s1.4,3.1,3.1,3.1h0.4c1.7,0,3.1-1.4,3.1-3.1
		S161.8,290.2,160.1,290.2z"/>
	<path id="XMLID_1532_" class="st0" d="M84.1,290.2h-0.4c-1.7,0-3.1,1.4-3.1,3.1s1.4,3.1,3.1,3.1h0.4c1.7,0,3.1-1.4,3.1-3.1
		S85.8,290.2,84.1,290.2z"/>
	<path id="XMLID_1531_" class="st0" d="M46.1,290.2h-0.4c-1.7,0-3.1,1.4-3.1,3.1s1.4,3.1,3.1,3.1h0.4c1.7,0,3.1-1.4,3.1-3.1
		S47.8,290.2,46.1,290.2z"/>
	<path id="XMLID_1530_" class="st0" d="M33.4,290.2H33c-1.7,0-3.1,1.4-3.1,3.1s1.4,3.1,3.1,3.1h0.4c1.7,0,3.1-1.4,3.1-3.1
		S35.1,290.2,33.4,290.2z"/>
	<path id="XMLID_1529_" class="st0" d="M134.8,290.2h-0.4c-1.7,0-3.1,1.4-3.1,3.1s1.4,3.1,3.1,3.1h0.4c1.7,0,3.1-1.4,3.1-3.1
		S136.5,290.2,134.8,290.2z"/>
	<path id="XMLID_1528_" class="st0" d="M122.1,290.2h-0.4c-1.7,0-3.1,1.4-3.1,3.1s1.4,3.1,3.1,3.1h0.4c1.7,0,3.1-1.4,3.1-3.1
		S123.8,290.2,122.1,290.2z"/>
	<path id="XMLID_1527_" class="st0" d="M172.8,290.2h-0.4c-1.7,0-3.1,1.4-3.1,3.1s1.4,3.1,3.1,3.1h0.4c1.7,0,3.1-1.4,3.1-3.1
		S174.5,290.2,172.8,290.2z"/>
	<path id="XMLID_1526_" class="st0" d="M71.4,290.2H71c-1.7,0-3.1,1.4-3.1,3.1s1.4,3.1,3.1,3.1h0.4c1.7,0,3.1-1.4,3.1-3.1
		S73.1,290.2,71.4,290.2z"/>
	<path id="XMLID_1525_" class="st0" d="M147.5,290.2H147c-1.7,0-3.1,1.4-3.1,3.1s1.4,3.1,3.1,3.1h0.4c1.7,0,3.1-1.4,3.1-3.1
		S149.1,290.2,147.5,290.2z"/>
	<path id="XMLID_1524_" class="st0" d="M33.4,268.4H33c-1.7,0-3.1,1.4-3.1,3.1s1.4,3.1,3.1,3.1h0.4c1.7,0,3.1-1.4,3.1-3.1
		S35.1,268.4,33.4,268.4z"/>
	<path id="XMLID_1523_" class="st0" d="M96.8,268.4h-0.4c-1.7,0-3.1,1.4-3.1,3.1s1.4,3.1,3.1,3.1h0.4c1.7,0,3.1-1.4,3.1-3.1
		S98.5,268.4,96.8,268.4z"/>
	<path id="XMLID_1522_" class="st0" d="M71.4,268.4H71c-1.7,0-3.1,1.4-3.1,3.1s1.4,3.1,3.1,3.1h0.4c1.7,0,3.1-1.4,3.1-3.1
		S73.1,268.4,71.4,268.4z"/>
	<path id="XMLID_1521_" class="st0" d="M134.8,268.4h-0.4c-1.7,0-3.1,1.4-3.1,3.1s1.4,3.1,3.1,3.1h0.4c1.7,0,3.1-1.4,3.1-3.1
		S136.5,268.4,134.8,268.4z"/>
	<path id="XMLID_1520_" class="st0" d="M147.5,268.4H147c-1.7,0-3.1,1.4-3.1,3.1s1.4,3.1,3.1,3.1h0.4c1.7,0,3.1-1.4,3.1-3.1
		S149.1,268.4,147.5,268.4z"/>
	<path id="XMLID_1519_" class="st0" d="M172.8,268.4h-0.4c-1.7,0-3.1,1.4-3.1,3.1s1.4,3.1,3.1,3.1h0.4c1.7,0,3.1-1.4,3.1-3.1
		S174.5,268.4,172.8,268.4z"/>
	<path id="XMLID_1518_" class="st0" d="M160.1,268.4h-0.4c-1.7,0-3.1,1.4-3.1,3.1s1.4,3.1,3.1,3.1h0.4c1.7,0,3.1-1.4,3.1-3.1
		S161.8,268.4,160.1,268.4z"/>
	<path id="XMLID_1517_" class="st0" d="M109.4,268.4H109c-1.7,0-3.1,1.4-3.1,3.1s1.4,3.1,3.1,3.1h0.4c1.7,0,3.1-1.4,3.1-3.1
		S111.1,268.4,109.4,268.4z"/>
	<path id="XMLID_1516_" class="st0" d="M122.1,268.4h-0.4c-1.7,0-3.1,1.4-3.1,3.1s1.4,3.1,3.1,3.1h0.4c1.7,0,3.1-1.4,3.1-3.1
		S123.8,268.4,122.1,268.4z"/>
	<path id="XMLID_1515_" class="st0" d="M46.1,268.4h-0.4c-1.7,0-3.1,1.4-3.1,3.1s1.4,3.1,3.1,3.1h0.4c1.7,0,3.1-1.4,3.1-3.1
		S47.8,268.4,46.1,268.4z"/>
	<path id="XMLID_1514_" class="st0" d="M58.7,268.4h-0.4c-1.7,0-3.1,1.4-3.1,3.1s1.4,3.1,3.1,3.1h0.4c1.7,0,3.1-1.4,3.1-3.1
		S60.4,268.4,58.7,268.4z"/>
	<path id="XMLID_1513_" class="st0" d="M84.1,268.4h-0.4c-1.7,0-3.1,1.4-3.1,3.1s1.4,3.1,3.1,3.1h0.4c1.7,0,3.1-1.4,3.1-3.1
		S85.8,268.4,84.1,268.4z"/>
	<path id="XMLID_1454_" class="st0" d="M375.8,331.1V135.7c0-4.5-1.9-8.6-5.3-11.6l-0.1-0.1c-0.1-0.1-0.2-0.1-0.2-0.2
		c-0.1-0.1-0.2-0.1-0.2-0.2c0,0-0.1,0-0.1-0.1l-0.2-0.1l0,0c-0.6-0.5-1.3-0.9-2-1.3l-30-19.1V50.2c0-1.7-1.4-3.1-3.1-3.1h-84.9
		l-51.1-32.5c-4.9-3-11-3-16,0L131.5,47H46.7c-1.7,0-3.1,1.4-3.1,3.1v52.6L11,123.4c-0.4,0.3-0.7,0.6-1,1c-2.9,2.8-4.8,6.7-4.8,11.1
		v195.3c0,8.5,6.9,15.4,15.4,15.4h339.9C368.9,346.4,375.8,339.5,375.8,331.1z M337.5,110.5l15.5,9.8h-15.5V110.5z M337.5,126.6
		h22.9c0.3,0,0.6,0,0.9,0.1L337.5,141V126.6z M185.7,20.1c2.9-1.8,6.5-1.8,9.4,0l42.7,27.1H143L185.7,20.1z M49.7,53.4h82.5h116.3
		l0,0l0,0h82.7v51.4v18.6v21.3l-81.1,48.9l-24.7-0.1l-27.2-27.2l27,0.1l14.2,14.3c0.6,0.6,1.4,0.9,2.2,0.9c0.8,0,1.6-0.3,2.2-0.9
		c1.2-1.2,1.2-3.2,0-4.4l-9.8-9.9h1.2l0,0h8l14.2,14.3c0.6,0.6,1.4,0.9,2.2,0.9c0.8,0,1.6-0.3,2.2-0.9c1.2-1.2,1.2-3.2,0-4.4
		l-9.8-9.9h10.2c1.4,5.5,6.4,9.6,12.3,9.6c7,0,12.7-5.7,12.7-12.7s-5.7-12.7-12.7-12.7c-5.9,0-10.9,4.1-12.3,9.6h-9.5l9.2-9.2
		c1.2-1.2,1.2-3.2,0-4.4s-3.2-1.2-4.4,0l-13.7,13.6H237l0,0h-2.4l9.2-9.2c1.2-1.2,1.2-3.2,0-4.4s-3.2-1.2-4.4,0l-13.7,13.6
		l-27.7-0.1l26.3-26.3l2.3-2.3l19.7,0.1l0,0c1.7,0,3.1-1.4,3.1-3.1c0-1.7-1.4-3.1-3.1-3.1h-13.5l12.4-12.4c1.2-1.2,1.2-3.2,0-4.4
		s-3.2-1.2-4.4,0L228.4,121v-13.5c0-1.7-1.4-3.1-3.1-3.1l0,0c-1.7,0-3.1,1.4-3.1,3.1l-0.1,19.7l-2.4,2.3l0,0l0,0l-26.4,26.4v-27.4
		l14-13.9c1.2-1.2,1.2-3.2,0-4.4s-3.2-1.2-4.4,0l-9.6,9.5v-1.2v-8l14-13.9c1.2-1.2,1.2-3.2,0-4.4s-3.2-1.2-4.4,0l-9.6,9.5v-9.6
		c5.4-1.5,9.3-6.4,9.3-12.2c0-7-5.7-12.7-12.7-12.7s-12.7,5.7-12.7,12.7c0,6,4.2,11,9.8,12.3v9.4l-9-9.6c-1.2-1.2-3.2-1.2-4.4,0
		c-1.2,1.2-1.2,3.2,0,4.4l13.9,14v8l0,0l0,0v1.2L178,110c-1.2-1.2-3.2-1.2-4.4,0c-1.2,1.2-1.2,3.2,0,4.4l13.9,14v27.2L161,129.2
		l-0.7-0.7l0.1-19.7c0-1.7-1.4-3.1-3.1-3.1l0,0c-1.7,0-3.1,1.4-3.1,3.1v13.5l-14-14.1c-1.2-1.2-3.2-1.2-4.4,0s-1.2,3.2,0,4.4
		l14,14.1h-13.5l0,0c-1.7,0-3.1,1.4-3.1,3.1c0,1.7,1.4,3.1,3.1,3.1L156,133l0.7,0.7l0,0l0,0l26.5,26.5l-28.1-0.1l-13.6-13.7
		c-1.2-1.2-3.2-1.2-4.4,0s-1.2,3.2,0,4.4l9.2,9.2h-9.2l-13.6-13.7c-1.2-1.2-3.2-1.2-4.4,0s-1.2,3.2,0,4.4l9.2,9.2h-9.7
		c-1.5-5.3-6.4-9.1-12.2-9.1c-7,0-12.7,5.7-12.7,12.7s5.7,12.7,12.7,12.7c6.1,0,11.2-4.3,12.4-10h10L119,176c-1.2,1.2-1.2,3.2,0,4.4
		c0.6,0.6,1.4,0.9,2.2,0.9s1.6-0.3,2.2-0.9l14.3-14.2h9.2l-9.8,9.8c-1.2,1.2-1.2,3.2,0,4.4c0.6,0.6,1.4,0.9,2.2,0.9s1.6-0.3,2.2-0.9
		l14.3-14.2l27.6,0.1L158,191.7l-31.1-0.1L49.7,146v-22.5v-18.8V53.4z M137.2,198h14.3l-5.3,5.3L137.2,198z M155.4,203v5.9l-3.7-2.2
		L155.4,203z M161.7,196.7l25.7-25.8v27.5l-14.2,14.2c-1.2,1.2-1.2,3.2,0,4.4c1.2,1.2,3.2,1.2,4.4,0l9.8-9.8v9.1l-8,6.8l-17.7-10.5
		L161.7,196.7z M192.1,85.9c-0.4-0.2-0.9-0.4-1.4-0.4l0,0c-0.6,0-1.1,0.2-1.6,0.5c-2.9-0.6-5.1-3.2-5.1-6.3c0-3.5,2.9-6.4,6.4-6.4
		s6.4,2.9,6.4,6.4C196.8,82.7,194.8,85.2,192.1,85.9z M187.4,224.5v3.1c-0.6-0.2-1.2-0.5-1.7-0.8l-0.6-0.4L187.4,224.5z M193.7,225
		l1.9,1.6l-0.4,0.3c-0.5,0.3-1,0.5-1.5,0.7V225z M201.3,223.2l-7.6-6.3v-9l9.2,9.3c0.6,0.6,1.4,0.9,2.2,0.9c0.8,0,1.6-0.3,2.2-0.9
		c1.2-1.2,1.2-3.2,0-4.4L193.7,199v-28.3l26.9,26.8l-0.1,14L201.3,223.2z M226.8,203.8l2.5,2.5l-2.5,1.5V203.8z M234.8,203l-3.1-3.1
		h8.1L234.8,203z M268.2,163.5c0-3.5,2.9-6.4,6.4-6.4s6.4,2.9,6.4,6.4s-2.9,6.4-6.4,6.4S268.2,167.1,268.2,163.5z M112.7,163.5
		c0,3.5-2.9,6.4-6.4,6.4s-6.4-2.9-6.4-6.4s2.9-6.4,6.4-6.4S112.7,160,112.7,163.5z M43.5,120.3H27.7l15.8-10V120.3z M20.5,126.6
		h22.9v15.6L17.9,127C18.7,126.8,19.6,126.6,20.5,126.6z M11.4,331.1V135.7c0-1.7,0.5-3.2,1.3-4.5l169.9,101.1
		c2.5,1.5,5.2,2.2,7.9,2.2c2.7,0,5.5-0.7,7.9-2.2l53.9-32.5c0.3-0.1,0.6-0.3,0.9-0.5l114.4-69c1.2,1.6,1.9,3.5,1.9,5.5v195.3
		c0,5-4.1,9.1-9.1,9.1H20.5C15.5,340.2,11.4,336.1,11.4,331.1z"/>
</g>
</svg>
