<?xml version="1.0" encoding="UTF-8" standalone="no"?><!DOCTYPE svg PUBLIC "-//W3C//DTD SVG 1.1//EN" "http://www.w3.org/Graphics/SVG/1.1/DTD/svg11.dtd"><svg width="100%" height="100%" viewBox="0 0 214 321" version="1.1" xmlns="http://www.w3.org/2000/svg" xmlns:xlink="http://www.w3.org/1999/xlink" xml:space="preserve" xmlns:serif="http://www.serif.com/" style="fill-rule:evenodd;clip-rule:evenodd;stroke-linejoin:round;stroke-miterlimit:1.41421;"><g id="_Group_"><path id="_Compound_Path_" d="M130.08,320.4c18.234,-0.005 33.243,-14.996 33.27,-33.23l0,-37.3c0,-1.684 -1.386,-3.07 -3.07,-3.07l-6.13,0l0,-40.77l52.67,-56c9.458,-10.106 8.967,-26.19 -1.09,-35.7c-10.106,-9.458 -26.19,-8.967 -35.7,1.09l-15.89,16.89l0,-59.73c0,-0.015 0,-0.029 0,-0.044c0,-39.81 -32.759,-72.57 -72.57,-72.57c-38.526,0 -70.682,30.68 -72.49,69.164c-0.094,0.411 -0.094,0.839 0,1.25c0,0.73 -0.06,1.46 -0.06,2.2l0,174.22l-5.85,0c-0.597,-0.008 -1.183,0.155 -1.69,0.47c-0.941,0.588 -1.493,1.642 -1.44,2.75l0,37.16c0.022,18.227 15.013,33.218 33.24,33.24l96.8,-0.02Zm-107.23,-8.21l0,-59.26l14.5,0l0,61.34l-4.06,0c-3.583,0.006 -7.133,-0.701 -10.44,-2.08Zm35,-59.27l0,61.34l-14.41,0l0,-61.33l14.41,-0.01Zm6.13,0l14.46,0l0,61.34l-14.41,0l-0.05,-61.34Zm20.59,0l14.46,0l0,61.34l-14.41,0l-0.05,-61.34Zm20.59,0l14.46,0l0,61.34l-14.42,0l-0.04,-61.34Zm20.59,61.34l0,-61.33l14.5,0l0,59.35c-3.228,1.319 -6.683,1.998 -10.17,2l-4.33,-0.02Zm31.39,-27.11c-0.009,8.485 -4.009,16.49 -10.79,21.59l0,-55.81l10.8,0l-0.01,34.22Zm17.29,-167.53c7.198,-7.592 19.349,-7.966 27,-0.83c7.587,7.201 7.96,19.347 0.83,27l-53.44,56.95c-0.533,0.569 -0.83,1.32 -0.83,2.1l0,40.5l-132.88,0l0,-158.6l132.88,0l0,53.32c0.005,1.68 1.39,3.06 3.07,3.06c0.843,0 1.65,-0.347 2.23,-0.96l21.14,-22.54Zm-26.49,-46.74l0,7.71l-132.83,0l0,-7.71l132.83,0Zm-0.27,-6.13l-132.32,0c0.222,-2.59 0.596,-5.164 1.12,-7.71l130.1,0c0.534,2.542 0.918,5.113 1.15,7.7l-0.05,0.01Zm-66.12,-60.61c29.03,0.036 54.843,19.061 63.47,46.78l-126.94,0c8.627,-27.719 34.44,-46.744 63.47,-46.78Zm-75.41,281l0,-34.21l10.58,0l0,55.68c-6.666,-5.107 -10.582,-13.042 -10.58,-21.44l0,-0.03Z" style="fill:#ff3019;fill-rule:nonzero;"/><path id="_Path_" d="M79.49,134.74c1.191,1.19 3.149,1.19 4.34,0l13.84,-13.84c0.612,-0.58 0.96,-1.386 0.96,-2.23c0,-1.684 -1.386,-3.07 -3.07,-3.07c-0.844,0 -1.65,0.348 -2.23,0.96l-11.67,11.67l-11.67,-11.67c-0.57,-0.539 -1.326,-0.84 -2.11,-0.84c-1.685,0 -3.07,1.385 -3.07,3.07c0,0.784 0.301,1.54 0.84,2.11l13.84,13.84Z" style="fill:#ff3019;fill-rule:nonzero;"/><path id="_Path_2_" serif:id="_Path_2" d="M79.49,151.49c1.191,1.19 3.149,1.19 4.34,0l13.84,-13.84c0.612,-0.58 0.96,-1.386 0.96,-2.23c0,-1.684 -1.386,-3.07 -3.07,-3.07c-0.844,0 -1.65,0.348 -2.23,0.96l-11.67,11.67l-11.67,-11.67c-0.57,-0.539 -1.326,-0.84 -2.11,-0.84c-1.685,0 -3.07,1.385 -3.07,3.07c0,0.784 0.301,1.54 0.84,2.11l13.84,13.84Z" style="fill:#ff3019;fill-rule:nonzero;"/><path id="_Path_3_" serif:id="_Path_3" d="M56.6,159.59c0,-0.814 -0.324,-1.595 -0.9,-2.17l-13.84,-13.83c-0.57,-0.539 -1.326,-0.84 -2.11,-0.84c-1.685,0 -3.07,1.385 -3.07,3.07c0,0.784 0.301,1.54 0.84,2.11l11.67,11.67l-11.67,11.67c-0.539,0.57 -0.84,1.326 -0.84,2.11c0,1.685 1.385,3.07 3.07,3.07c0.784,0 1.54,-0.301 2.11,-0.84l13.85,-13.87c0.567,-0.572 0.887,-1.345 0.89,-2.15Z" style="fill:#ff3019;fill-rule:nonzero;"/><path id="_Path_4_" serif:id="_Path_4" d="M72.5,157.42l-13.83,-13.83c-0.57,-0.539 -1.326,-0.84 -2.11,-0.84c-1.685,0 -3.07,1.385 -3.07,3.07c0,0.784 0.301,1.54 0.84,2.11l11.67,11.67l-11.65,11.66c-0.539,0.57 -0.84,1.326 -0.84,2.11c0,1.685 1.385,3.07 3.07,3.07c0.784,0 1.54,-0.301 2.11,-0.84l13.81,-13.86c1.177,-1.189 1.177,-3.131 0,-4.32Z" style="fill:#ff3019;fill-rule:nonzero;"/><path id="_Path_5_" serif:id="_Path_5" d="M83.83,182.84c-1.191,-1.19 -3.149,-1.19 -4.34,0l-13.84,13.84c-0.612,0.58 -0.96,1.386 -0.96,2.23c0,1.684 1.386,3.07 3.07,3.07c0.844,0 1.65,-0.348 2.23,-0.96l11.67,-11.67l11.69,11.66c0.58,0.612 1.386,0.96 2.23,0.96c1.684,0 3.07,-1.386 3.07,-3.07c0,-0.844 -0.348,-1.65 -0.96,-2.23l-13.86,-13.83Z" style="fill:#ff3019;fill-rule:nonzero;"/><path id="_Path_6_" serif:id="_Path_6" d="M83.83,166.05c-1.191,-1.19 -3.149,-1.19 -4.34,0l-13.84,13.83c-0.539,0.57 -0.84,1.326 -0.84,2.11c0,1.685 1.385,3.07 3.07,3.07c0.784,0 1.54,-0.301 2.11,-0.84l11.67,-11.67l11.69,11.67c0.57,0.539 1.326,0.84 2.11,0.84c1.685,0 3.07,-1.385 3.07,-3.07c0,-0.784 -0.301,-1.54 -0.84,-2.11l-13.86,-13.83Z" style="fill:#ff3019;fill-rule:nonzero;"/><path id="_Path_7_" serif:id="_Path_7" d="M125.79,141.94c-1.191,-1.19 -3.149,-1.19 -4.34,0l-13.83,13.8c-1.19,1.191 -1.19,3.149 0,4.34l13.83,13.83c0.58,0.612 1.386,0.96 2.23,0.96c1.684,0 3.07,-1.386 3.07,-3.07c0,-0.844 -0.348,-1.65 -0.96,-2.23l-11.67,-11.67l11.67,-11.67c1.158,-1.185 1.158,-3.105 0,-4.29Z" style="fill:#ff3019;fill-rule:nonzero;"/><path id="_Path_8_" serif:id="_Path_8" d="M97.35,157.95l11.67,-11.67c0.612,-0.58 0.96,-1.386 0.96,-2.23c0,-1.684 -1.386,-3.07 -3.07,-3.07c-0.844,0 -1.65,0.348 -2.23,0.96l-13.86,13.8c-1.19,1.191 -1.19,3.149 0,4.34l13.83,13.83c0.58,0.612 1.386,0.96 2.23,0.96c1.684,0 3.07,-1.386 3.07,-3.07c0,-0.844 -0.348,-1.65 -0.96,-2.23l-11.64,-11.62Z" style="fill:#ff3019;fill-rule:nonzero;"/></g></svg>