<?xml version="1.0" encoding="UTF-8" standalone="no"?><!DOCTYPE svg PUBLIC "-//W3C//DTD SVG 1.1//EN" "http://www.w3.org/Graphics/SVG/1.1/DTD/svg11.dtd"><svg width="100%" height="100%" viewBox="0 0 330 517" version="1.1" xmlns="http://www.w3.org/2000/svg" xmlns:xlink="http://www.w3.org/1999/xlink" xml:space="preserve" xmlns:serif="http://www.serif.com/" style="fill-rule:evenodd;clip-rule:evenodd;stroke-linejoin:round;stroke-miterlimit:1.41421;"><g id="_Group_"><path id="_Path_" d="M185.61,389.55l-33.46,33.46l-33.46,-33.46c-0.672,-0.672 -1.585,-1.05 -2.535,-1.05c-1.967,0 -3.585,1.618 -3.585,3.585c0,0.95 0.378,1.863 1.05,2.535l36,36c0.671,0.673 1.584,1.052 2.535,1.052c0.951,0 1.864,-0.379 2.535,-1.052l36,-36c0.672,-0.672 1.05,-1.585 1.05,-2.535c0,-1.967 -1.618,-3.585 -3.585,-3.585c-0.95,0 -1.863,0.378 -2.535,1.05l-0.01,0Z" style="fill:#ff3019;fill-rule:nonzero;"/><path id="_Path_2_" serif:id="_Path_2" d="M185.61,359.65l-33.46,33.46l-33.46,-33.46c-0.672,-0.672 -1.585,-1.05 -2.535,-1.05c-1.967,0 -3.585,1.618 -3.585,3.585c0,0.95 0.378,1.863 1.05,2.535l36,36c0.671,0.673 1.584,1.052 2.535,1.052c0.951,0 1.864,-0.379 2.535,-1.052l36,-36c0.672,-0.672 1.05,-1.585 1.05,-2.535c0,-1.967 -1.618,-3.585 -3.585,-3.585c-0.95,0 -1.863,0.378 -2.535,1.05l-0.01,0Z" style="fill:#ff3019;fill-rule:nonzero;"/><path id="_Path_3_" serif:id="_Path_3" d="M139.68,96.17c1.964,0 3.58,-1.616 3.58,-3.58l0,-0.48c0,-1.967 -1.618,-3.585 -3.585,-3.585c-1.967,0 -3.585,1.618 -3.585,3.585l0,0.48c0,1.964 1.616,3.58 3.58,3.58c0.003,0 0.007,0 0.01,0Z" style="fill:#ff3019;fill-rule:nonzero;"/><path id="_Path_4_" serif:id="_Path_4" d="M136.09,137.02c0,1.967 1.618,3.585 3.585,3.585c1.967,0 3.585,-1.618 3.585,-3.585l0,-0.48c0,-1.967 -1.618,-3.585 -3.585,-3.585c-1.967,0 -3.585,1.618 -3.585,3.585l0,0.48Z" style="fill:#ff3019;fill-rule:nonzero;"/><path id="_Path_5_" serif:id="_Path_5" d="M136.09,107.4c0,1.967 1.618,3.585 3.585,3.585c1.967,0 3.585,-1.618 3.585,-3.585l0,-0.48c0,-1.967 -1.618,-3.585 -3.585,-3.585c-1.967,0 -3.585,1.618 -3.585,3.585l0,0.48Z" style="fill:#ff3019;fill-rule:nonzero;"/><path id="_Path_6_" serif:id="_Path_6" d="M136.09,211.07c0,1.967 1.618,3.585 3.585,3.585c1.967,0 3.585,-1.618 3.585,-3.585l0,-0.48c0,-1.967 -1.618,-3.585 -3.585,-3.585c-1.967,0 -3.585,1.618 -3.585,3.585l0,0.48Z" style="fill:#ff3019;fill-rule:nonzero;"/><path id="_Path_7_" serif:id="_Path_7" d="M136.09,181.45c0,1.967 1.618,3.585 3.585,3.585c1.967,0 3.585,-1.618 3.585,-3.585l0,-0.48c0,-1.967 -1.618,-3.585 -3.585,-3.585c-1.967,0 -3.585,1.618 -3.585,3.585l0,0.48Z" style="fill:#ff3019;fill-rule:nonzero;"/><path id="_Path_8_" serif:id="_Path_8" d="M136.09,122.24c0,1.967 1.618,3.585 3.585,3.585c1.967,0 3.585,-1.618 3.585,-3.585l0,-0.48c0,-1.967 -1.618,-3.585 -3.585,-3.585c-1.967,0 -3.585,1.618 -3.585,3.585l0,0.48Z" style="fill:#ff3019;fill-rule:nonzero;"/><path id="_Path_9_" serif:id="_Path_9" d="M136.09,166.64c0,1.967 1.618,3.585 3.585,3.585c1.967,0 3.585,-1.618 3.585,-3.585l0,-0.48c0,-1.967 -1.618,-3.585 -3.585,-3.585c-1.967,0 -3.585,1.618 -3.585,3.585l0,0.48Z" style="fill:#ff3019;fill-rule:nonzero;"/><path id="_Path_10_" serif:id="_Path_10" d="M136.09,151.83c0,1.967 1.618,3.585 3.585,3.585c1.967,0 3.585,-1.618 3.585,-3.585l0,-0.48c0,-1.967 -1.618,-3.585 -3.585,-3.585c-1.967,0 -3.585,1.618 -3.585,3.585l0,0.48Z" style="fill:#ff3019;fill-rule:nonzero;"/><path id="_Path_11_" serif:id="_Path_11" d="M136.09,196.24c0,1.967 1.618,3.585 3.585,3.585c1.967,0 3.585,-1.618 3.585,-3.585l0,-0.48c0,-1.967 -1.618,-3.585 -3.585,-3.585c-1.967,0 -3.585,1.618 -3.585,3.585l0,0.48Z" style="fill:#ff3019;fill-rule:nonzero;"/><path id="_Path_12_" serif:id="_Path_12" d="M162.6,247.38l0,-129c0,-1.967 -1.618,-3.585 -3.585,-3.585c-1.967,0 -3.585,1.618 -3.585,3.585l0,129c0,1.967 1.618,3.585 3.585,3.585c1.967,0 3.585,-1.618 3.585,-3.585Z" style="fill:#ff3019;fill-rule:nonzero;"/><path id="_Path_13_" serif:id="_Path_13" d="M44.91,216.06c0.671,0.673 1.584,1.052 2.535,1.052c0.951,0 1.864,-0.379 2.535,-1.052l15.76,-15.77l15.75,15.77c0.672,0.672 1.585,1.05 2.535,1.05c1.967,0 3.585,-1.618 3.585,-3.585c0,-0.95 -0.378,-1.863 -1.05,-2.535l-15.75,-15.75l15.77,-15.77c0.672,-0.672 1.05,-1.585 1.05,-2.535c0,-1.967 -1.618,-3.585 -3.585,-3.585c-0.95,0 -1.863,0.378 -2.535,1.05l-15.76,15.77l-15.76,-15.77c-0.672,-0.672 -1.585,-1.05 -2.535,-1.05c-1.967,0 -3.585,1.618 -3.585,3.585c0,0.95 0.378,1.863 1.05,2.535l15.75,15.77l-15.77,15.77c-1.378,1.39 -1.373,3.665 0.01,5.05Z" style="fill:#ff3019;fill-rule:nonzero;"/><path id="_Path_14_" serif:id="_Path_14" d="M102.34,0c-1.964,0 -3.58,1.616 -3.58,3.58l0,22.3l-22.27,0c-1.967,0 -3.585,1.618 -3.585,3.585c0,1.967 1.618,3.585 3.585,3.585l22.3,0l0,22.29c0,1.967 1.618,3.585 3.585,3.585c1.967,0 3.585,-1.618 3.585,-3.585l0,-22.29l22.29,0c1.967,0 3.585,-1.618 3.585,-3.585c0,-1.967 -1.618,-3.585 -3.585,-3.585l-22.33,0l0,-22.29c0,-0.003 0,-0.007 0,-0.01c0,-1.964 -1.616,-3.58 -3.58,-3.58c0,0 0,0 0,0Z" style="fill:#ff3019;fill-rule:nonzero;"/><path id="_Compound_Path_" d="M261.9,144.67c0,-16.381 -13.479,-29.86 -29.86,-29.86c-16.381,0 -29.86,13.479 -29.86,29.86c0,16.381 13.479,29.86 29.86,29.86c16.374,-0.016 29.844,-13.486 29.86,-29.86Zm-52.55,0c0,-12.447 10.243,-22.69 22.69,-22.69c12.447,0 22.69,10.243 22.69,22.69c0,12.447 -10.243,22.69 -22.69,22.69c-12.441,-0.016 -22.674,-10.249 -22.69,-22.69Z" style="fill:#ff3019;fill-rule:nonzero;"/><path id="_Compound_Path_2_" serif:id="_Compound_Path_2" d="M246.49,439.72c0.938,0.673 2.147,0.852 3.24,0.48c1.018,-0.366 2.089,-0.562 3.17,-0.58c27.298,0 49.76,-22.462 49.76,-49.76c0,-27.298 -22.462,-49.76 -49.76,-49.76c-1.081,-0.018 -2.152,-0.214 -3.17,-0.58c-0.37,-0.126 -0.759,-0.19 -1.15,-0.19c-1.964,0 -3.58,1.616 -3.58,3.58l0,93.89c-0.004,1.156 0.551,2.245 1.49,2.92Zm5.72,-92.48l0.74,0c23.367,0 42.595,19.228 42.595,42.595c0,23.367 -19.228,42.595 -42.595,42.595c0,0 -0.74,0 -0.74,0l0,-85.19Z" style="fill:#ff3019;fill-rule:nonzero;"/><path id="_Compound_Path_3_" serif:id="_Compound_Path_3" d="M0,513.37c0,1.964 1.616,3.58 3.58,3.58l284,0c1.967,0 3.585,-1.618 3.585,-3.585c0,-1.967 -1.618,-3.585 -3.585,-3.585l-35.37,0l0,-43.1l0.74,0c41.825,-0.477 75.973,-35.017 75.973,-76.845c0,-41.828 -34.148,-76.368 -75.973,-76.845l-0.74,0l0,-14.58c-0.022,-19.543 -16.097,-35.618 -35.64,-35.64l-136.48,0c-19.528,0.044 -35.578,16.112 -35.6,35.64l0,211.37l-40.91,0c0,0 0,0 0,0c-1.964,0 -3.58,1.616 -3.58,3.58c0,0.003 0,0.007 0,0.01Zm51.62,-215c0.016,-15.617 12.863,-28.464 28.48,-28.48l136.47,0c15.617,0.016 28.464,12.863 28.48,28.48l0,19c0,1.964 1.616,3.58 3.58,3.58c0.391,0 0.78,-0.064 1.15,-0.19c1.018,-0.366 2.089,-0.562 3.17,-0.58c38.225,0 69.68,31.455 69.68,69.68c0,38.225 -31.455,69.68 -69.68,69.68c-1.081,-0.018 -2.152,-0.214 -3.17,-0.58c-0.37,-0.126 -0.759,-0.19 -1.15,-0.19c-1.964,0 -3.58,1.616 -3.58,3.58l0,47.43l-193.43,0l0,-211.41Z" style="fill:#ff3019;fill-rule:nonzero;"/><path id="_Path_15_" serif:id="_Path_15" d="M66.43,311.24l-0.48,0c-1.967,0 -3.585,1.618 -3.585,3.585c0,1.967 1.618,3.585 3.585,3.585l0.48,0c1.967,0 3.585,-1.618 3.585,-3.585c0,-1.967 -1.618,-3.585 -3.585,-3.585Z" style="fill:#ff3019;fill-rule:nonzero;"/><path id="_Path_16_" serif:id="_Path_16" d="M229.34,311.24l-0.48,0c-1.967,0 -3.585,1.618 -3.585,3.585c0,1.967 1.618,3.585 3.585,3.585l0.48,0c1.967,0 3.585,-1.618 3.585,-3.585c0,-1.967 -1.618,-3.585 -3.585,-3.585Z" style="fill:#ff3019;fill-rule:nonzero;"/><path id="_Path_17_" serif:id="_Path_17" d="M184.43,318.36l0.48,0c1.967,0 3.585,-1.618 3.585,-3.585c0,-1.967 -1.618,-3.585 -3.585,-3.585l-0.48,0c-1.967,0 -3.585,1.618 -3.585,3.585c0,1.967 1.618,3.585 3.585,3.585Z" style="fill:#ff3019;fill-rule:nonzero;"/><path id="_Path_18_" serif:id="_Path_18" d="M96.05,311.24l-0.48,0c-1.967,0 -3.585,1.618 -3.585,3.585c0,1.967 1.618,3.585 3.585,3.585l0.48,0c1.967,0 3.585,-1.618 3.585,-3.585c0,-1.967 -1.618,-3.585 -3.585,-3.585Z" style="fill:#ff3019;fill-rule:nonzero;"/><path id="_Path_19_" serif:id="_Path_19" d="M110.38,318.36l0.48,0c1.967,0 3.585,-1.618 3.585,-3.585c0,-1.967 -1.618,-3.585 -3.585,-3.585l-0.48,0c-1.967,0 -3.585,1.618 -3.585,3.585c0,1.967 1.618,3.585 3.585,3.585Z" style="fill:#ff3019;fill-rule:nonzero;"/><path id="_Path_20_" serif:id="_Path_20" d="M125.19,318.36l0.48,0c1.967,0 3.585,-1.618 3.585,-3.585c0,-1.967 -1.618,-3.585 -3.585,-3.585l-0.48,0c-1.967,0 -3.585,1.618 -3.585,3.585c0,1.967 1.618,3.585 3.585,3.585Z" style="fill:#ff3019;fill-rule:nonzero;"/><path id="_Path_21_" serif:id="_Path_21" d="M140,318.36l0.49,0c1.967,0 3.585,-1.618 3.585,-3.585c0,-1.967 -1.618,-3.585 -3.585,-3.585l-0.48,0c-1.967,0 -3.585,1.618 -3.585,3.585c0,1.967 1.618,3.585 3.585,3.585l-0.01,0Z" style="fill:#ff3019;fill-rule:nonzero;"/><path id="_Path_22_" serif:id="_Path_22" d="M81.24,311.24l-0.48,0c-1.967,0 -3.585,1.618 -3.585,3.585c0,1.967 1.618,3.585 3.585,3.585l0.48,0c1.967,0 3.585,-1.618 3.585,-3.585c0,-1.967 -1.618,-3.585 -3.585,-3.585Z" style="fill:#ff3019;fill-rule:nonzero;"/><path id="_Path_23_" serif:id="_Path_23" d="M214.49,311.24l-0.48,0c-1.967,0 -3.585,1.618 -3.585,3.585c0,1.967 1.618,3.585 3.585,3.585l0.48,0c1.967,0 3.585,-1.618 3.585,-3.585c0,-1.967 -1.618,-3.585 -3.585,-3.585Z" style="fill:#ff3019;fill-rule:nonzero;"/><path id="_Path_24_" serif:id="_Path_24" d="M199.72,311.24l-0.48,0c-1.967,0 -3.585,1.618 -3.585,3.585c0,1.967 1.618,3.585 3.585,3.585l0.48,0c1.967,0 3.585,-1.618 3.585,-3.585c0,-1.967 -1.618,-3.585 -3.585,-3.585Z" style="fill:#ff3019;fill-rule:nonzero;"/><path id="_Path_25_" serif:id="_Path_25" d="M169.62,318.36l0.48,0c1.967,0 3.585,-1.618 3.585,-3.585c0,-1.967 -1.618,-3.585 -3.585,-3.585l-0.48,0c-1.967,0 -3.585,1.618 -3.585,3.585c0,1.967 1.618,3.585 3.585,3.585Z" style="fill:#ff3019;fill-rule:nonzero;"/><path id="_Path_26_" serif:id="_Path_26" d="M154.81,318.36l0.48,0c1.967,0 3.585,-1.618 3.585,-3.585c0,-1.967 -1.618,-3.585 -3.585,-3.585l-0.48,0c-1.967,0 -3.585,1.618 -3.585,3.585c0,1.967 1.618,3.585 3.585,3.585Z" style="fill:#ff3019;fill-rule:nonzero;"/><path id="_Path_27_" serif:id="_Path_27" d="M199.72,468.06l-0.48,0c-1.967,0 -3.585,1.618 -3.585,3.585c0,1.967 1.618,3.585 3.585,3.585l0.48,0c1.967,0 3.585,-1.618 3.585,-3.585c0,-1.967 -1.618,-3.585 -3.585,-3.585Z" style="fill:#ff3019;fill-rule:nonzero;"/><path id="_Path_28_" serif:id="_Path_28" d="M110.86,468.06l-0.48,0c-1.967,0 -3.585,1.618 -3.585,3.585c0,1.967 1.618,3.585 3.585,3.585l0.48,0c1.967,0 3.585,-1.618 3.585,-3.585c0,-1.967 -1.618,-3.585 -3.585,-3.585Z" style="fill:#ff3019;fill-rule:nonzero;"/><path id="_Path_29_" serif:id="_Path_29" d="M125.67,468.06l-0.48,0c-1.967,0 -3.585,1.618 -3.585,3.585c0,1.967 1.618,3.585 3.585,3.585l0.48,0c1.967,0 3.585,-1.618 3.585,-3.585c0,-1.967 -1.618,-3.585 -3.585,-3.585Z" style="fill:#ff3019;fill-rule:nonzero;"/><path id="_Path_30_" serif:id="_Path_30" d="M81.24,468.06l-0.48,0c-1.967,0 -3.585,1.618 -3.585,3.585c0,1.967 1.618,3.585 3.585,3.585l0.48,0c1.967,0 3.585,-1.618 3.585,-3.585c0,-1.967 -1.618,-3.585 -3.585,-3.585Z" style="fill:#ff3019;fill-rule:nonzero;"/><path id="_Path_31_" serif:id="_Path_31" d="M140.49,468.06l-0.48,0c-1.967,0 -3.585,1.618 -3.585,3.585c0,1.967 1.618,3.585 3.585,3.585l0.48,0c1.967,0 3.585,-1.618 3.585,-3.585c0,-1.967 -1.618,-3.585 -3.585,-3.585Z" style="fill:#ff3019;fill-rule:nonzero;"/><path id="_Path_32_" serif:id="_Path_32" d="M155.29,468.06l-0.48,0c-1.967,0 -3.585,1.618 -3.585,3.585c0,1.967 1.618,3.585 3.585,3.585l0.48,0c1.967,0 3.585,-1.618 3.585,-3.585c0,-1.967 -1.618,-3.585 -3.585,-3.585Z" style="fill:#ff3019;fill-rule:nonzero;"/><path id="_Path_33_" serif:id="_Path_33" d="M66.43,468.06l-0.48,0c-1.967,0 -3.585,1.618 -3.585,3.585c0,1.967 1.618,3.585 3.585,3.585l0.48,0c1.967,0 3.585,-1.618 3.585,-3.585c0,-1.967 -1.618,-3.585 -3.585,-3.585Z" style="fill:#ff3019;fill-rule:nonzero;"/><path id="_Path_34_" serif:id="_Path_34" d="M184.91,468.06l-0.48,0c-1.967,0 -3.585,1.618 -3.585,3.585c0,1.967 1.618,3.585 3.585,3.585l0.48,0c1.967,0 3.585,-1.618 3.585,-3.585c0,-1.967 -1.618,-3.585 -3.585,-3.585Z" style="fill:#ff3019;fill-rule:nonzero;"/><path id="_Path_35_" serif:id="_Path_35" d="M170.1,468.06l-0.48,0c-1.967,0 -3.585,1.618 -3.585,3.585c0,1.967 1.618,3.585 3.585,3.585l0.48,0c1.967,0 3.585,-1.618 3.585,-3.585c0,-1.967 -1.618,-3.585 -3.585,-3.585Z" style="fill:#ff3019;fill-rule:nonzero;"/><path id="_Path_36_" serif:id="_Path_36" d="M96.05,468.06l-0.48,0c-1.967,0 -3.585,1.618 -3.585,3.585c0,1.967 1.618,3.585 3.585,3.585l0.48,0c1.967,0 3.585,-1.618 3.585,-3.585c0,-1.967 -1.618,-3.585 -3.585,-3.585Z" style="fill:#ff3019;fill-rule:nonzero;"/><path id="_Path_37_" serif:id="_Path_37" d="M214.49,468.06l-0.48,0c-1.967,0 -3.585,1.618 -3.585,3.585c0,1.967 1.618,3.585 3.585,3.585l0.48,0c1.967,0 3.585,-1.618 3.585,-3.585c0,-1.967 -1.618,-3.585 -3.585,-3.585Z" style="fill:#ff3019;fill-rule:nonzero;"/><path id="_Path_38_" serif:id="_Path_38" d="M229.34,468.06l-0.48,0c-1.967,0 -3.585,1.618 -3.585,3.585c0,1.967 1.618,3.585 3.585,3.585l0.48,0c1.967,0 3.585,-1.618 3.585,-3.585c0,-1.967 -1.618,-3.585 -3.585,-3.585Z" style="fill:#ff3019;fill-rule:nonzero;"/></g></svg>