<?xml version="1.0" encoding="utf-8"?>
<!-- Generator: Adobe Illustrator 22.1.0, SVG Export Plug-In . SVG Version: 6.00 Build 0)  -->
<svg version="1.1" xmlns="http://www.w3.org/2000/svg" xmlns:xlink="http://www.w3.org/1999/xlink" x="0px" y="0px"
	 viewBox="0 0 1262.8 1000" style="enable-background:new 0 0 1262.8 1000;" xml:space="preserve">
<style type="text/css">
	.st0{fill:#FABF62;}
	.st1{fill:#1C3E58;}
	.st2{fill:#FF3019;}
	.st3{fill:#EBF0F6;}
	.st4{fill:#4088DA;}
	.st5{fill:#1D9B50;}
	.st6{fill:#2B71B5;}
</style>
<g id="illustration">
	<g>
		<g>
			<g>
				<path class="st0" d="M1051.3,645.3c12.3,2.7,28-1.5,28-1.5c-26.8-11.5-41.2-39.9-41.2-39.9c15.1,2.5,19.2,0,19.2,0
					c-28.3-29-38.5-68.6-38.5-68.6s-10.1,39.6-38.5,68.6c0,0,4.1,2.5,19.2,0c0,0-8.1,16.1-23.6,28.9v13.4c3.4,0.1,7-0.2,10.4-0.9
					c0,0-3.3,6.3-10.4,14.7v67.4c12,2.5,26.2,4.1,42.8,4.1c75.7,0,101.1-32.7,101.1-32.7C1072.2,684.9,1051.3,645.3,1051.3,645.3z"
					/>
			</g>
			<g>
				<rect x="806.9" y="855.6" class="st0" width="90.4" height="24.7"/>
				<path class="st1" d="M897.4,882.4H807c-1.2,0-2.2-0.9-2.2-2.2v-24.7c0-1.2,0.9-2.2,2.2-2.2h90.4c1.2,0,2.2,0.9,2.2,2.2v24.7
					C899.5,881.4,898.6,882.4,897.4,882.4z M809.1,878h86.2v-20.3h-86.2V878z"/>
			</g>
			<g>
				<path class="st1" d="M806.9,956.2H619.4c-1.2,0-2.2-0.9-2.2-2.2V832.5c0-1.2,0.9-2.2,2.2-2.2H807c1.2,0,2.2,0.9,2.2,2.2v121.6
					C809.1,955.2,808.2,956.2,806.9,956.2z M621.5,951.9h183.3V834.6H621.5V951.9z"/>
			</g>
			<g>
				<rect x="388.7" y="836.2" class="st2" width="140.6" height="25.3"/>
				<path class="st1" d="M529.3,863.7H388.7c-1.2,0-2.2-0.9-2.2-2.2v-25.3c0-1.2,0.9-2.2,2.2-2.2h140.6c1.2,0,2.2,0.9,2.2,2.2v25.3
					C531.4,862.7,530.5,863.7,529.3,863.7z M390.9,859.4h136.3v-21.1H390.9V859.4z"/>
			</g>
			<g>
				<path class="st3" d="M331.3,532.8c0,0,7.4,9.2,26,17.7h71.6l9.2,13.9c3.9-0.1,7.6-0.3,11.1-0.5l7.7-9.5c0,0,14.6,1,33.8,2.4
					c31.1-9.4,42.7-23.9,42.7-23.9c-47.7-13.5-68.6-51.9-68.6-51.9c12.3,2.6,28-1.5,28-1.5c-26.8-11.1-41.2-38.7-41.2-38.7
					c15.1,2.4,19.2,0,19.2,0c-28.3-28.2-38.5-66.5-38.5-66.5s-10.1,38.4-38.5,66.5c0,0,4.1,2.4,19.2,0c0,0-14.4,27.6-41.2,38.7
					c0,0,15.7,4.1,28,1.5C399.9,481,379.1,519.4,331.3,532.8z"/>
				<path class="st1" d="M438.1,566.6c-0.8,0-1.4-0.4-1.8-0.9l-8.5-12.9h-70.5c-0.3,0-0.6-0.1-0.9-0.2
					c-18.9-8.6-26.5-17.9-26.7-18.2c-0.5-0.6-0.6-1.3-0.4-2s0.8-1.2,1.4-1.4c37.4-10.6,58.2-37,64.9-47c-11.5,1-23.6-2.1-24.2-2.2
					c-0.9-0.2-1.5-1-1.6-1.9c-0.1-0.9,0.5-1.8,1.3-2.2c20-8.3,33-26.2,37.9-34c-11.6,1.3-15.5-0.5-16.2-0.9c-0.6-0.4-0.9-0.9-1-1.6
					s0.1-1.3,0.7-1.8c27.6-27.4,37.8-65.2,37.9-65.6c0.3-0.9,1.1-1.6,2.1-1.6s1.8,0.7,2.1,1.6c0.1,0.4,10.3,38.2,37.9,65.6
					c0.5,0.5,0.7,1.1,0.7,1.8s-0.5,1.2-1,1.6c-0.8,0.4-4.5,2.2-16.2,0.9c4.9,7.7,17.9,25.7,37.9,34c0.9,0.4,1.4,1.2,1.3,2.2
					c-0.1,0.9-0.7,1.7-1.6,1.9c-0.6,0.2-12.7,3.3-24.2,2.2c6.7,9.9,27.5,36.5,64.9,47c0.7,0.2,1.2,0.8,1.4,1.4
					c0.2,0.7,0.1,1.4-0.4,2c-0.5,0.7-12.4,15.1-43.7,24.6c-0.3,0.1-0.5,0.1-0.8,0.1c-16.1-1-28.9-2-32.8-2.3l-7,8.7
					c-0.4,0.5-0.9,0.8-1.5,0.8C445.8,566.4,442.1,566.5,438.1,566.6C438.2,566.6,438.1,566.6,438.1,566.6z M357.8,548.3H429
					c0.8,0,1.4,0.4,1.8,0.9l8.5,12.9c3-0.1,6-0.2,8.9-0.4l7.1-8.8c0.5-0.6,1.1-0.9,1.8-0.8c0.2,0,14.6,1,33.4,2.3
					c22.2-6.8,34.3-16.2,38.9-20.7c-45.6-14.4-65.7-50.4-66.5-51.9c-0.4-0.8-0.4-1.6,0.2-2.3c0.5-0.7,1.3-0.9,2.2-0.9
					c7,1.5,15.2,0.7,20.8-0.2c-23.4-12.5-35.8-35.8-36.4-36.8c-0.4-0.8-0.3-1.6,0.2-2.3c0.5-0.7,1.2-1,2.1-0.9
					c7.4,1.1,12,1.1,14.6,0.9c-19.8-21-30.1-46.2-34.2-58c-4.1,11.8-14.4,37-34.2,58c2.6,0.3,7.3,0.3,14.6-0.9
					c0.9-0.1,1.6,0.2,2.1,0.9c0.5,0.7,0.6,1.5,0.2,2.3c-0.6,1-12.9,24.4-36.4,36.8c5.5,0.9,13.8,1.7,20.8,0.2
					c0.9-0.2,1.7,0.2,2.2,0.9c0.5,0.7,0.6,1.6,0.2,2.3c-0.9,1.6-20.9,37.6-66.5,51.9C338.7,537.1,345.8,542.9,357.8,548.3z
					 M331.3,532.8L331.3,532.8L331.3,532.8z"/>
			</g>
			<g>
				<path class="st2" d="M527.1,317.1c0,0-21.3-52.6,32.8-92.9s123.9-40.2,160.3-7.5c36.5,32.8,29.5,98.1,67.8,86.2
					c0,0,3.4,23.5-32.4,27.2s-59.3-11.5-74.3,11.3c-14.9,23-23.1-27.8-23.1-27.8L527.1,317.1z"/>
				<path class="st1" d="M673.9,349.6c-0.5,0-0.9-0.1-1.4-0.2c-9.5-2-14.5-25.4-16-33.5l-129.4,3.3c-0.9,0.1-1.7-0.5-2.1-1.3
					c-0.2-0.6-21.3-54.6,33.5-95.4c52.5-39,124.1-42.2,163.2-7.3c16,14.4,23.7,34.5,30.5,52.1c9.7,25.4,16.2,39.5,35.3,33.5
					c0.6-0.2,1.2-0.1,1.8,0.2c0.6,0.4,0.9,0.9,0.9,1.5c0.1,0.4,1.1,8.6-5,16.4c-5.7,7.4-15.6,11.8-29.4,13.2
					c-12.8,1.3-23.9,0.3-33.6-0.7c-18-1.7-29.9-2.8-39,11.1C680.2,347.3,677.1,349.6,673.9,349.6z M658.3,311.5c1,0,2,0.8,2.1,1.8
					c2,12.6,7.4,30.7,12.9,31.9c2.2,0.5,4.6-2.5,6.2-4.9c10.4-16,24.8-14.6,43-12.9c9.6,0.9,20.5,1.9,32.8,0.7
					c12.5-1.3,21.4-5.2,26.4-11.5c3.2-4.1,4-8.2,4.2-10.8c-21.7,5.1-29.3-14.5-37.9-36.8c-6.6-17.3-14.1-36.8-29.4-50.4
					c-37.5-33.6-106.8-30.3-157.7,7.6c-47.9,35.7-35.5,80.4-32.6,89L658.3,311.5L658.3,311.5z"/>
			</g>
			<g>
				<path class="st1" d="M578,583.7c-0.1,0-0.1,0-0.2,0c-1.1-0.1-2-1-2-2.1c-0.3-25.9-16-45.7-27.4-60.3c-2.1-2.6-4.1-5.1-5.8-7.5
					c-5.1-7-12-6.6-12.3-6.6c-0.7,0-1.4-0.3-1.8-0.8c-0.5-0.6-0.6-1.2-0.4-2c2.4-8.2-1.9-14.6-7.4-22.7c-3.9-5.9-8.3-12.4-10.9-20.9
					c-6.5-21.5,5.7-26,6.2-26.2c1.1-0.4,2.4,0.2,2.7,1.3c0.4,1.1-0.2,2.4-1.3,2.7c-0.4,0.1-8.7,3.5-3.5,20.9
					c2.4,7.8,6.6,14.2,10.4,19.7c5.1,7.6,9.9,14.7,8.5,23.7c3.3,0.5,8.9,2.2,13.2,8.2c1.7,2.3,3.6,4.7,5.7,7.4
					c10.3,13,23.9,30.4,27.4,52.7c3.4-6.8,9.9-15.5,22.2-20.1c20.8-7.7,29.8-27.9,30.7-35.9c0.1-1.1,1.2-2,2.4-1.9
					c3.9,0.4,11.1,3.6,14.4,12.5c8.3-7.8,34.3-37.3,24.6-92c-0.2-1.1,0.6-2.3,1.7-2.5c1.1-0.2,2.3,0.6,2.5,1.7
					c11.9,67.2-28.2,98.1-28.7,98.3c-0.6,0.5-1.3,0.6-2.1,0.3c-0.7-0.3-1.2-0.9-1.3-1.6c-1.6-8.1-6.7-11-9.6-12
					c-2.3,10.1-12,29.2-33.1,37c-19.5,7.3-22.8,25.9-22.9,26.6C579.9,582.9,579.1,583.7,578,583.7z"/>
			</g>
			<g>
				<path class="st0" d="M461.4,313.7c-17.3,0-31.4-14-31.4-31.4c0-17.4,14-31.4,31.4-31.4c5.4,0,10.4,1.3,14.8,3.7
					c-8.2-10.7-21.2-17.5-35.7-17.5c-24.9,0-45.2,20.2-45.2,45.2c0,24.9,20.2,45.2,45.2,45.2c14.5,0,27.4-6.9,35.7-17.5
					C471.8,312.3,466.7,313.7,461.4,313.7z"/>
			</g>
			<g>
				<path class="st1" d="M362.7,257.3c-1.2,0-2.2-0.9-2.2-2.2v-19c0-1.2,0.9-2.2,2.2-2.2c1.2,0,2.2,0.9,2.2,2.2v19
					C364.8,256.3,363.8,257.3,362.7,257.3z"/>
			</g>
			<g>
				<path class="st1" d="M372.2,247.8h-19c-1.2,0-2.2-0.9-2.2-2.2c0-1.2,0.9-2.2,2.2-2.2h19c1.2,0,2.2,0.9,2.2,2.2
					C374.3,246.9,373.4,247.8,372.2,247.8z"/>
			</g>
			<g>
				<path class="st1" d="M378.6,348.7c-1.2,0-2.2-0.9-2.2-2.2v-19c0-1.2,0.9-2.2,2.2-2.2s2.2,0.9,2.2,2.2v19
					C380.8,347.7,379.8,348.7,378.6,348.7z"/>
			</g>
			<g>
				<path class="st1" d="M388.1,339.2h-19c-1.2,0-2.2-0.9-2.2-2.2s0.9-2.2,2.2-2.2h19c1.2,0,2.2,0.9,2.2,2.2
					S389.4,339.2,388.1,339.2z"/>
			</g>
			<g>
				<path class="st1" d="M202.2,607.3c-1.2,0-2.2-0.9-2.2-2.2v-19c0-1.2,0.9-2.2,2.2-2.2c1.2,0,2.2,0.9,2.2,2.2v19
					C204.4,606.3,203.4,607.3,202.2,607.3z"/>
			</g>
			<g>
				<path class="st1" d="M211.7,597.8h-19c-1.2,0-2.2-0.9-2.2-2.2s0.9-2.2,2.2-2.2h19c1.2,0,2.2,0.9,2.2,2.2
					C213.9,596.8,212.9,597.8,211.7,597.8z"/>
			</g>
			<g>
				<path class="st1" d="M169.4,672.9c-1.2,0-2.2-0.9-2.2-2.2v-19c0-1.2,0.9-2.2,2.2-2.2c1.2,0,2.2,0.9,2.2,2.2v19
					C171.6,672,170.6,672.9,169.4,672.9z"/>
			</g>
			<g>
				<path class="st1" d="M178.9,663.4h-19c-1.2,0-2.2-0.9-2.2-2.2s0.9-2.2,2.2-2.2h19c1.2,0,2.2,0.9,2.2,2.2
					S180.1,663.4,178.9,663.4z"/>
			</g>
			<g>
				<path class="st1" d="M159.9,887.8c-1.2,0-2.2-0.9-2.2-2.2v-19c0-1.2,0.9-2.2,2.2-2.2s2.2,0.9,2.2,2.2v19
					C162.1,886.8,161.1,887.8,159.9,887.8z"/>
			</g>
			<g>
				<path class="st1" d="M169.4,878.2h-19c-1.2,0-2.2-0.9-2.2-2.2s0.9-2.2,2.2-2.2h19c1.2,0,2.2,0.9,2.2,2.2
					S170.6,878.2,169.4,878.2z"/>
			</g>
			<g>
				<path class="st1" d="M478.2,362.7c-1.2,0-2.2-0.9-2.2-2.2v-19c0-1.2,0.9-2.2,2.2-2.2s2.2,0.9,2.2,2.2v19
					C480.3,361.7,479.4,362.7,478.2,362.7z"/>
			</g>
			<g>
				<path class="st1" d="M487.7,353.2h-19c-1.2,0-2.2-0.9-2.2-2.2c0-1.2,0.9-2.2,2.2-2.2h19c1.2,0,2.2,0.9,2.2,2.2
					C489.9,352.2,488.9,353.2,487.7,353.2z"/>
			</g>
			<g>
				<path class="st1" d="M766.9,376.5c-1.2,0-2.2-0.9-2.2-2.2v-19c0-1.2,0.9-2.2,2.2-2.2s2.2,0.9,2.2,2.2v19
					C769,375.5,768,376.5,766.9,376.5z"/>
			</g>
			<g>
				<path class="st1" d="M776.4,367h-19.1c-1.2,0-2.2-0.9-2.2-2.2s0.9-2.2,2.2-2.2h19c1.2,0,2.2,0.9,2.2,2.2S777.5,367,776.4,367z"
					/>
			</g>
			<g>
				<path class="st1" d="M792.6,432.2c-1.2,0-2.2-0.9-2.2-2.2v-19c0-1.2,0.9-2.2,2.2-2.2c1.2,0,2.2,0.9,2.2,2.2v19
					C794.7,431.3,793.8,432.2,792.6,432.2z"/>
			</g>
			<g>
				<path class="st1" d="M802.1,422.7h-19c-1.2,0-2.2-0.9-2.2-2.2c0-1.2,0.9-2.2,2.2-2.2h19c1.2,0,2.2,0.9,2.2,2.2
					C804.3,421.7,803.2,422.7,802.1,422.7z"/>
			</g>
			<g>
				<path class="st1" d="M1068.2,573.9c-1.2,0-2.2-0.9-2.2-2.2v-19c0-1.2,0.9-2.2,2.2-2.2s2.2,0.9,2.2,2.2v19
					C1070.3,573,1069.4,573.9,1068.2,573.9z"/>
			</g>
			<g>
				<path class="st1" d="M1077.7,564.4h-19c-1.2,0-2.2-0.9-2.2-2.2c0-1.2,0.9-2.2,2.2-2.2h19c1.2,0,2.2,0.9,2.2,2.2
					C1079.9,563.5,1078.9,564.4,1077.7,564.4z"/>
			</g>
			<g>
				<path class="st1" d="M1098,642.3c-1.2,0-2.2-0.9-2.2-2.2v-19c0-1.2,0.9-2.2,2.2-2.2s2.2,0.9,2.2,2.2v19.1
					C1100.2,641.4,1099.2,642.3,1098,642.3z"/>
			</g>
			<g>
				<path class="st1" d="M1107.5,632.9h-19c-1.2,0-2.2-0.9-2.2-2.2c0-1.2,0.9-2.2,2.2-2.2h19c1.2,0,2.2,0.9,2.2,2.2
					C1109.7,631.9,1108.8,632.9,1107.5,632.9z"/>
			</g>
			<g>
				<path class="st1" d="M1132.4,857.2c-1.2,0-2.2-0.9-2.2-2.2v-19c0-1.2,0.9-2.2,2.2-2.2s2.2,0.9,2.2,2.2v19
					C1134.5,856.2,1133.5,857.2,1132.4,857.2z"/>
			</g>
			<g>
				<path class="st1" d="M1141.8,847.6h-19c-1.2,0-2.2-0.9-2.2-2.2c0-1.2,0.9-2.2,2.2-2.2h19c1.2,0,2.2,0.9,2.2,2.2
					C1144,846.7,1143.1,847.6,1141.8,847.6z"/>
			</g>
			<g>
				<path class="st1" d="M333,334c-0.4,0-0.7-0.1-1-0.3l-10.8-5.7l-10.8,5.7c-0.8,0.4-1.6,0.3-2.3-0.2c-0.7-0.5-1-1.3-0.9-2.1
					l2.1-12l-8.7-8.5c-0.6-0.6-0.8-1.4-0.6-2.2c0.3-0.8,0.9-1.3,1.7-1.4l12.1-1.8l5.4-11c0.4-0.8,1.1-1.2,1.9-1.2s1.6,0.5,1.9,1.2
					l5.4,11l12.1,1.8c0.9,0.1,1.5,0.7,1.7,1.4c0.3,0.8,0,1.6-0.6,2.2l-8.7,8.5l2.1,12c0.1,0.9-0.2,1.6-0.9,2.1
					C333.9,333.8,333.4,334,333,334z M306.7,310.9l6.4,6.2c0.5,0.5,0.8,1.2,0.7,1.9l-1.5,8.9l7.9-4.2c0.7-0.3,1.4-0.3,2,0l7.9,4.2
					l-1.5-8.9c-0.1-0.7,0.1-1.4,0.7-1.9l6.4-6.2l-8.9-1.3c-0.7-0.1-1.3-0.6-1.6-1.1l-4-8l-4,8c-0.3,0.7-0.9,1-1.6,1.1L306.7,310.9z"
					/>
			</g>
			<g>
				<g>
					<path class="st1" d="M555.8,447.8c-57.2,0-66.5-47.6-66.6-48.1c-0.2-0.9,0.3-1.8,1-2.3s1.8-0.4,2.5,0.3
						c21.7,19.5,42.4,11.4,59,4.9c6.2-2.5,12.1-4.7,17.3-5.3c19.7-2,26.7,14.9,26.8,15.1c0.1,0.2,0.1,0.3,0.1,0.5
						c0.1,0.6,1.8,12.9-6.8,22.9C582.4,443.8,571.1,447.8,555.8,447.8z M495.3,405.3c4.5,12.4,18.9,38.3,60.6,38.3
						c14,0,24.1-3.5,30.1-10.4c6.7-7.7,6-17.6,5.9-19.3c-0.9-1.9-6.9-13.8-22.3-12.2c-4.6,0.5-10.2,2.6-16.2,5
						C537.8,412.7,517,420.9,495.3,405.3z"/>
				</g>
				<g>
					<path class="st1" d="M632.2,447.8c-15.3,0-26.5-4.1-33.3-11.9c-8.6-10-6.9-22.4-6.8-22.9c0-0.2,0.1-0.4,0.1-0.5
						c0.1-0.2,7.2-17.1,26.8-15.1c5.2,0.6,11.1,2.8,17.3,5.3c16.6,6.5,37.3,14.6,59-4.9c0.7-0.6,1.7-0.8,2.5-0.3
						c0.8,0.5,1.2,1.3,1,2.3C698.8,400.2,689.4,447.8,632.2,447.8z M596.2,413.8c-0.2,1.7-0.9,11.5,5.9,19.3
						c6,6.9,16.1,10.4,30.1,10.4c41.7,0,56.1-25.9,60.6-38.3c-21.7,15.6-42.6,7.5-58.1,1.3c-6-2.4-11.5-4.5-16.2-5
						C603.2,400,597.1,412,596.2,413.8z"/>
				</g>
			</g>
			<g>
				<path class="st1" d="M192.8,748.8c-0.2,0-0.4,0-0.7-0.1c-8.2-2.6-10.5-9-10.6-9.2c-0.4-1,0.2-2.2,1.1-2.6
					c21.2-9.3,29.5-29.9,32.1-38.3c-15.9,3.5-28.2-5.3-28.8-5.7c-0.6-0.4-0.9-1-0.9-1.8c0-0.7,0.4-1.3,0.9-1.7
					c28.6-19.7,33.5-42.1,34.3-49.3c-12.4,0.9-16.8-2.6-17.3-2.9c-0.6-0.5-0.9-1.1-0.8-1.8c0-0.7,0.4-1.3,0.9-1.7
					c38.5-24.8,43-61.8,43.1-62.2c0.1-1.1,1.2-2.1,2.4-1.9c1.1,0.1,2,1.2,1.9,2.4c-0.2,1.5-4.4,37.2-41.7,63.1
					c2.6,0.7,6.9,1.2,13.6,0.5c0.6-0.1,1.2,0.1,1.7,0.6c0.5,0.4,0.8,0.9,0.8,1.6c0,1.2,0,28.9-33.6,53.3c4.6,2.4,14.6,6.2,26,2.5
					c0.8-0.3,1.5-0.1,2.1,0.5c0.6,0.5,0.9,1.3,0.7,2.1c-0.3,1.3-6.6,30.7-33.4,43.8c1,1.5,3.1,3.6,6.8,4.8c1.1,0.4,1.8,1.5,1.4,2.6
					C194.5,748.2,193.6,748.8,192.8,748.8z"/>
			</g>
			<g>
				<circle class="st4" cx="156.1" cy="723.8" r="9.9"/>
			</g>
			<g>
				<path class="st1" d="M244.5,745.8c-6.6,0-12.1-5.4-12.1-12.1c0-6.6,5.4-12.1,12.1-12.1c6.6,0,12.1,5.4,12.1,12.1
					C256.5,740.4,251.1,745.8,244.5,745.8z M244.5,725.9c-4.3,0-7.7,3.5-7.7,7.7c0,4.3,3.5,7.7,7.7,7.7s7.7-3.5,7.7-7.7
					C252.3,729.4,248.8,725.9,244.5,725.9z"/>
			</g>
			<g>
				<path class="st1" d="M238.6,688.9c-4.2,0-7.7-3.4-7.7-7.7c0-4.2,3.4-7.7,7.7-7.7c4.2,0,7.7,3.4,7.7,7.7
					C246.1,685.5,242.7,688.9,238.6,688.9z M238.6,678c-1.8,0-3.3,1.5-3.3,3.3s1.5,3.3,3.3,3.3s3.3-1.5,3.3-3.3S240.4,678,238.6,678
					z"/>
			</g>
			<g>
				<path class="st1" d="M233.1,505c-1.2,0-2.2-0.9-2.2-2.2v-41c0-1.2,0.9-2.2,2.2-2.2c1.2,0,2.2,0.9,2.2,2.2v41
					C235.2,503.9,234.2,505,233.1,505z"/>
			</g>
			<g>
				<path class="st1" d="M253.6,484.4h-41c-1.2,0-2.2-0.9-2.2-2.2s0.9-2.2,2.2-2.2h41c1.2,0,2.2,0.9,2.2,2.2
					C255.8,483.4,254.7,484.4,253.6,484.4z"/>
			</g>
			<g>
				<path class="st1" d="M247.6,498.9c-0.6,0-1.1-0.2-1.5-0.7l-29-29c-0.9-0.9-0.9-2.2,0-3c0.9-0.9,2.2-0.9,3,0l29,29
					c0.9,0.9,0.9,2.2,0,3C248.7,498.7,248.1,498.9,247.6,498.9z"/>
			</g>
			<g>
				<path class="st1" d="M218.5,498.9c-0.6,0-1.1-0.2-1.5-0.7c-0.9-0.9-0.9-2.2,0-3l29-29c0.9-0.9,2.2-0.9,3,0c0.9,0.9,0.9,2.2,0,3
					l-29,29C219.7,498.7,219.1,498.9,218.5,498.9z"/>
			</g>
			<g>
				<path class="st1" d="M834.2,272.5c-1.2,0-2.2-0.9-2.2-2.2v-41c0-1.2,0.9-2.2,2.2-2.2s2.2,0.9,2.2,2.2v41
					C836.4,271.5,835.4,272.5,834.2,272.5z"/>
			</g>
			<g>
				<path class="st1" d="M854.7,252h-41c-1.2,0-2.2-0.9-2.2-2.2s0.9-2.2,2.2-2.2h41c1.2,0,2.2,0.9,2.2,2.2S856,252,854.7,252z"/>
			</g>
			<g>
				<path class="st1" d="M848.7,266.4c-0.6,0-1.1-0.2-1.5-0.7l-29-29c-0.9-0.9-0.9-2.2,0-3s2.2-0.9,3,0l29,29c0.9,0.9,0.9,2.2,0,3
					C849.8,266.2,849.2,266.4,848.7,266.4z"/>
			</g>
			<g>
				<path class="st1" d="M819.7,266.4c-0.6,0-1.1-0.2-1.5-0.7c-0.9-0.9-0.9-2.2,0-3l29-29c0.9-0.9,2.2-0.9,3,0s0.9,2.2,0,3l-29,29
					C820.8,266.2,820.2,266.4,819.7,266.4z"/>
			</g>
			<g>
				<path class="st1" d="M969.3,476.5c-1.2,0-2.2-0.9-2.2-2.2v-41c0-1.2,0.9-2.2,2.2-2.2c1.2,0,2.2,0.9,2.2,2.2v41
					C971.5,475.6,970.5,476.5,969.3,476.5z"/>
			</g>
			<g>
				<path class="st1" d="M989.9,456h-41c-1.2,0-2.2-0.9-2.2-2.2s0.9-2.2,2.2-2.2h41c1.2,0,2.2,0.9,2.2,2.2
					C992,455.1,991,456,989.9,456z"/>
			</g>
			<g>
				<path class="st1" d="M983.9,470.6c-0.6,0-1.1-0.2-1.5-0.7l-29-29c-0.9-0.9-0.9-2.2,0-3c0.9-0.9,2.2-0.9,3,0l29,29
					c0.9,0.9,0.9,2.2,0,3C985,470.4,984.4,470.6,983.9,470.6z"/>
			</g>
			<g>
				<path class="st1" d="M954.9,470.6c-0.6,0-1.1-0.2-1.5-0.7c-0.9-0.9-0.9-2.2,0-3l29-29c0.9-0.9,2.2-0.9,3,0c0.9,0.9,0.9,2.2,0,3
					l-29,29C956,470.4,955.4,470.6,954.9,470.6z"/>
			</g>
			<g>
				<path class="st1" d="M954.1,351.6c-6,0-10.8-4.8-10.8-10.8c0-6,4.8-10.8,10.8-10.8s10.8,4.8,10.8,10.8
					C964.8,346.8,960,351.6,954.1,351.6z M954.1,334.5c-3.6,0-6.4,2.9-6.4,6.4c0,3.6,2.9,6.4,6.4,6.4s6.4-2.9,6.4-6.4
					C960.5,337.4,957.6,334.5,954.1,334.5z"/>
			</g>
			<g>
				<path class="st1" d="M763.5,240c-6,0-10.8-4.8-10.8-10.8c0-6,4.8-10.8,10.8-10.8s10.8,4.8,10.8,10.8
					C774.2,235.2,769.4,240,763.5,240z M763.5,222.9c-3.6,0-6.4,2.9-6.4,6.4c0,3.6,2.9,6.4,6.4,6.4c3.6,0,6.4-2.9,6.4-6.4
					C769.9,225.7,767.1,222.9,763.5,222.9z"/>
			</g>
			<g>
				<ellipse class="st4" cx="981.7" cy="391.3" rx="11.1" ry="11.1"/>
			</g>
			<g>
				<path class="st1" d="M1004.3,505c-5.4,0-9.8-4.3-9.8-9.8c0-5.4,4.3-9.8,9.8-9.8c5.4,0,9.8,4.3,9.8,9.8
					C1014,500.5,1009.7,505,1004.3,505z M1004.3,489.7c-3,0-5.5,2.5-5.5,5.5c0,3,2.5,5.5,5.5,5.5s5.5-2.5,5.5-5.5
					C1009.8,492.1,1007.3,489.7,1004.3,489.7z"/>
			</g>
			<g>
				<path class="st1" d="M1115.2,682.4c-5.4,0-9.8-4.3-9.8-9.8c0-5.4,4.3-9.8,9.8-9.8c5.4,0,9.8,4.3,9.8,9.8
					C1125,678,1120.6,682.4,1115.2,682.4z M1115.2,667.1c-3,0-5.5,2.5-5.5,5.5s2.5,5.5,5.5,5.5c3,0,5.5-2.5,5.5-5.5
					C1120.7,669.5,1118.2,667.1,1115.2,667.1z"/>
			</g>
			<g>
				<path class="st1" d="M1094,854.4c-4.9,0-9-4-9-9c0-4.9,4-9,9-9c4.9,0,9,4,9,9C1102.9,850.5,1098.9,854.4,1094,854.4z
					 M1094,840.9c-2.6,0-4.6,2.1-4.6,4.6s2.1,4.6,4.6,4.6c2.6,0,4.6-2.1,4.6-4.6C1098.7,843,1096.6,840.9,1094,840.9z"/>
			</g>
			<g>
				<path class="st1" d="M970.5,547.8c-9.8,0-17.8-7.9-17.8-17.8s7.9-17.8,17.8-17.8c9.8,0,17.8,7.9,17.8,17.8
					C988.3,539.8,980.3,547.8,970.5,547.8z M970.5,516.5c-7.5,0-13.5,6-13.5,13.5c0,7.5,6,13.5,13.5,13.5c7.5,0,13.5-6,13.5-13.5
					C984,522.5,977.9,516.5,970.5,516.5z"/>
			</g>
			<g>
				<path class="st3" d="M594,296.3c-51.9,0-94,20.7-94,46.2c0,12.5,10,23.7,26.3,32v-41.8l0,0c44.4-11.7,91-11.7,135.4,0l0,0v41.8
					c16.2-8.3,26.3-19.6,26.3-32C688,317,645.9,296.3,594,296.3z"/>
				<path class="st1" d="M661.7,376.6c-0.4,0-0.8-0.1-1.1-0.3c-0.7-0.4-1-1-1-1.8v-40.2c-42.9-11.1-88.1-11.1-131.1,0v40.2
					c0,0.8-0.4,1.4-1,1.8c-0.7,0.4-1.4,0.4-2.1,0.1c-17.7-9.1-27.5-21.1-27.5-33.9c0-26.6,43.1-48.3,96.2-48.3s96.2,21.6,96.2,48.3
					c0,12.8-9.7,24.8-27.5,33.9C662.4,376.5,662,376.6,661.7,376.6z M594,321.7c23,0,45.9,2.9,68.2,8.9c0.9,0.3,1.6,1.1,1.6,2.1
					v38.2c14.3-8,22-18,22-28.4c0-24.3-41.2-44-91.8-44c-50.6,0-91.8,19.7-91.8,44c0,10.4,7.7,20.4,22,28.4v-38.2
					c0-0.9,0.7-1.8,1.6-2.1C548.1,324.6,571,321.7,594,321.7z"/>
			</g>
			<g>
				<circle class="st3" cx="797.9" cy="295.7" r="12.6"/>
				<path class="st1" d="M797.9,310.5c-8.1,0-14.7-6.6-14.7-14.7s6.6-14.7,14.7-14.7c8.1,0,14.7,6.6,14.7,14.7
					S806.1,310.5,797.9,310.5z M797.9,285.2c-5.8,0-10.4,4.7-10.4,10.5c0,5.8,4.7,10.5,10.4,10.5c5.8,0,10.5-4.7,10.5-10.5
					C808.3,290,803.7,285.2,797.9,285.2z"/>
			</g>
			<g>
				<path class="st1" d="M661.7,414.1c-1.2,0-2.2-0.9-2.2-2.2v-37.6c0-1.2,0.9-2.2,2.2-2.2c1.2,0,2.2,0.9,2.2,2.2v37.6
					C663.8,413.1,662.9,414.1,661.7,414.1z"/>
			</g>
			<g>
				<path class="st1" d="M526.3,414.1c-1.2,0-2.2-0.9-2.2-2.2v-37.6c0-1.2,0.9-2.2,2.2-2.2c1.2,0,2.2,0.9,2.2,2.2v37.6
					C528.4,413.1,527.5,414.1,526.3,414.1z"/>
			</g>
			<g>
				<path class="st1" d="M575.9,370.8l-12.9-2.1l-12.9,2.1c-1.2,0-2.2-0.9-2.2-2.2c0-1.2,0.9-2.2,2.2-2.2l12.9-3.8l12.9,3.8
					c1.2,0,2.2,0.9,2.2,2.2C578,369.9,577.1,370.8,575.9,370.8z"/>
			</g>
			<g>
				<path class="st1" d="M635.9,370.8l-12.9-2.2l-12.9,2.2c-1.2,0-2.2-0.9-2.2-2.2c0-1.2,0.9-2.2,2.2-2.2l12.9-3.8l12.9,3.8
					c1.2,0,2.2,0.9,2.2,2.2C638.1,369.9,637.2,370.8,635.9,370.8z"/>
			</g>
			<g>
				<path class="st1" d="M512.5,249.3c-0.4,0-0.8-0.1-1.1-0.3c-1-0.7-1.3-1.9-0.8-2.9c0,0,0.4-0.6,1.1-1.7c0.7-0.9,2-1.2,3-0.6
					c0.9,0.7,1.2,2,0.6,3c-0.7,0.9-0.9,1.5-1,1.5C513.9,249,513.2,249.3,512.5,249.3z M519.2,240c-0.5,0-0.9-0.2-1.3-0.5
					c-0.9-0.8-1-2.1-0.4-3c0.4-0.5,0.8-0.9,1.2-1.5c0.8-0.9,2.1-1,3-0.3c0.9,0.8,1,2.1,0.3,3c-0.4,0.5-0.8,0.9-1.1,1.4
					C520.5,239.7,519.8,240,519.2,240z M526.6,231.3c-0.5,0-1-0.2-1.4-0.6c-0.9-0.8-0.9-2.2-0.1-3c0.5-0.5,0.9-0.9,1.3-1.4
					c0.9-0.9,2.2-0.9,3-0.1c0.9,0.9,0.9,2.2,0.1,3c-0.5,0.5-0.9,0.9-1.3,1.4C527.8,231.1,527.2,231.3,526.6,231.3z M534.7,223.2
					c-0.6,0-1.1-0.2-1.5-0.7c-0.9-0.9-0.8-2.2,0.1-3l1.4-1.3c0.9-0.9,2.3-0.8,3,0.1c0.9,0.9,0.8,2.3-0.1,3l-1.3,1.3
					C535.7,223,535.1,223.2,534.7,223.2z M543.2,215.5c-0.6,0-1.2-0.3-1.6-0.8c-0.8-0.9-0.7-2.3,0.3-3c0.5-0.4,0.9-0.9,1.5-1.2
					c0.9-0.8,2.3-0.7,3,0.3c0.8,0.9,0.7,2.3-0.3,3c-0.5,0.4-0.9,0.9-1.4,1.2C544.1,215.3,543.6,215.5,543.2,215.5z M552.1,208.4
					c-0.7,0-1.3-0.3-1.7-0.9c-0.7-0.9-0.5-2.3,0.5-3c0.5-0.4,1-0.8,1.6-1.1c0.9-0.7,2.3-0.5,3,0.5c0.7,0.9,0.5,2.3-0.5,3
					c-0.5,0.4-1,0.8-1.5,1.1C553,208.3,552.6,208.4,552.1,208.4z M561.6,202c-0.7,0-1.4-0.4-1.8-0.9c-0.7-1-0.4-2.4,0.7-2.9
					c0.6-0.4,1-0.7,1.6-1c1-0.7,2.4-0.3,2.9,0.7c0.7,1,0.3,2.4-0.7,2.9c-0.6,0.4-1,0.7-1.6,1C562.3,201.8,562,202,561.6,202z
					 M571.4,196.1c-0.8,0-1.5-0.4-1.9-1.1c-0.6-1-0.2-2.4,0.9-2.9c0.6-0.3,1.1-0.6,1.7-0.9c1-0.6,2.4-0.2,2.9,0.9
					c0.6,1,0.2,2.4-0.9,2.9c-0.6,0.3-1.1,0.6-1.7,0.9C572.1,196.1,571.7,196.1,571.4,196.1z M581.5,190.9c-0.9,0-1.6-0.5-2-1.2
					c-0.5-1,0-2.4,1-2.8c0.6-0.3,1.1-0.6,1.8-0.9c1-0.5,2.4,0,2.8,1c0.5,1,0,2.4-1,2.8c-0.6,0.3-1.1,0.6-1.7,0.8
					C582.2,190.9,581.9,190.9,581.5,190.9z M592.1,186.5c-0.9,0-1.7-0.6-2-1.4c-0.5-1.1,0.1-2.4,1.2-2.7c0.6-0.2,1.2-0.5,1.8-0.7
					c1.1-0.4,2.4,0.2,2.7,1.2c0.4,1.1-0.2,2.4-1.2,2.7c-0.6,0.2-1.1,0.5-1.8,0.7C592.6,186.4,592.3,186.5,592.1,186.5z"/>
			</g>
			<g>
				<path class="st1" d="M790.4,478.1c-0.7,0-1.3-0.4-1.8-0.9c-21-31.1-52.2-41.6-52.6-41.7c-1.1-0.4-1.7-1.6-1.4-2.7
					c0.4-1.1,1.6-1.7,2.7-1.4c1.3,0.5,33.1,11.1,54.8,43.4c0.7,0.9,0.4,2.4-0.6,3C791.1,478,790.8,478.1,790.4,478.1z"/>
			</g>
			<g>
				<path class="st1" d="M874.7,380.6c-16.5,0-29.9-13.4-29.9-29.9s13.4-29.9,29.9-29.9s29.9,13.4,29.9,29.9
					C904.7,367.2,891.2,380.6,874.7,380.6z M874.7,325c-14.2,0-25.7,11.5-25.7,25.7s11.5,25.7,25.7,25.7s25.7-11.5,25.7-25.7
					S888.8,325,874.7,325z"/>
			</g>
			<g>
				<path class="st1" d="M890.2,456.1c-0.2,0-0.5,0-0.7-0.1c-9.6-3-20.2-3-29.9,0c-0.5,0.2-1,0.1-1.5-0.1c-15.2-6.6-25-21.5-25-38.1
					c0-22.9,18.6-41.5,41.5-41.5s41.5,18.6,41.5,41.5c0,16.5-9.8,31.6-25,38.1C890.8,456,890.5,456.1,890.2,456.1z M874.7,449.5
					c5.3,0,10.5,0.8,15.4,2.2c13.2-6,21.7-19.3,21.7-33.8c0-20.5-16.7-37.2-37.2-37.2s-37.2,16.7-37.2,37.2
					c0,14.6,8.5,27.8,21.7,33.8C864.3,450.3,869.5,449.5,874.7,449.5z"/>
			</g>
			<g>
				<path class="st1" d="M832.3,410.8c-7.9,0-14.5-6.5-14.5-14.5s6.5-14.5,14.5-14.5c6.4,0,12.2,4.3,13.9,10.6
					c0.2,0.7,0,1.4-0.4,1.9c-3.4,4.2-5.8,8.9-7.1,14c-0.2,0.7-0.7,1.2-1.3,1.4C835.7,410.4,834,410.8,832.3,410.8z M832.3,386.1
					c-5.6,0-10.2,4.5-10.2,10.2c0,5.6,4.5,10.2,10.2,10.2c0.9,0,1.7-0.1,2.6-0.4c1.4-4.9,3.8-9.4,6.9-13.5
					C840.3,388.8,836.5,386.1,832.3,386.1z"/>
			</g>
			<g>
				<path class="st1" d="M917.9,410.8c-2.2,0-4.3-0.5-6.2-1.4c-0.6-0.3-0.9-0.8-1.1-1.4c-1.3-4.6-3.4-9-6.4-12.8
					c-0.4-0.5-0.6-1.1-0.4-1.7c1.3-6.7,7.3-11.5,14.2-11.5c7.9,0,14.5,6.5,14.5,14.5C932.4,404.3,925.9,410.8,917.9,410.8z
					 M914.4,405.9c1.1,0.4,2.3,0.7,3.5,0.7c5.6,0,10.2-4.5,10.2-10.2c0-5.6-4.5-10.2-10.2-10.2c-4.5,0-8.4,3-9.7,7.2
					C910.9,397.2,913,401.3,914.4,405.9z"/>
			</g>
			<g>
				<path class="st0" d="M874.2,322.8c-0.2-1.1-0.5-2.3-1-3.2c-3.8-6.7-14.8-7.6-24.8-2s-15,15.5-11.3,22.2
					c1.9,3.4,5.8,5.3,10.4,5.6C849.8,332.8,860.9,323.1,874.2,322.8z"/>
				<path class="st1" d="M847.4,347.6L847.4,347.6c-5.7-0.4-10-2.7-12.2-6.7c-2.2-3.9-2-8.7,0.5-13.5c2.4-4.5,6.4-8.7,11.6-11.6
					s10.9-4.3,16-3.9c5.4,0.5,9.6,2.8,11.8,6.6c0.7,1.2,1.1,2.6,1.3,4c0.1,0.6-0.1,1.2-0.5,1.7c-0.4,0.5-0.9,0.8-1.6,0.8
					c-12.1,0.2-22.5,9-24.8,20.8C849.2,346.8,848.4,347.6,847.4,347.6z M861.4,316.1c-3.9,0-8.1,1.2-12.1,3.4
					c-4.4,2.5-7.9,6-9.9,9.8c-1.8,3.5-2,6.9-0.6,9.4c1.2,2.3,3.6,3.7,6.8,4.3c3.1-11.9,13.4-20.8,25.7-22.2c0-0.1-0.1-0.2-0.1-0.3
					c-1.4-2.6-4.4-4.2-8.4-4.4C862.4,316.1,861.9,316.1,861.4,316.1z"/>
			</g>
			<g>
				<path class="st1" d="M888,327.4c-0.8,0-1.5-0.4-1.9-1.1c-0.6-1-0.1-2.4,0.9-2.9l12.8-6.7c1-0.6,2.4-0.1,2.9,0.9
					c0.6,1,0.1,2.4-0.9,2.9l-12.8,6.7C888.6,327.3,888.3,327.4,888,327.4z"/>
			</g>
			<g>
				<path class="st1" d="M830,357.4c-0.8,0-1.5-0.4-1.9-1.1c-0.6-1-0.1-2.4,0.9-2.9l16.6-8.6c1-0.6,2.4-0.1,2.9,0.9
					c0.6,1,0.1,2.4-0.9,2.9l-16.6,8.6C830.6,357.3,830.3,357.4,830,357.4z"/>
			</g>
			<g>
				<path class="st1" d="M922.7,355.5h-32.3c-1.2,0-2.2-0.9-2.2-2.2s0.9-2.2,2.2-2.2h32.3c1.2,0,2.2,0.9,2.2,2.2
					C924.8,354.5,923.9,355.5,922.7,355.5z"/>
			</g>
			<g>
				<path class="st1" d="M874.2,346l-4-1.1l-4,1.1c-1.2,0-2.2-0.9-2.2-2.2c0-1.2,0.9-2.2,2.2-2.2l4-0.8l4,0.8c1.2,0,2.2,0.9,2.2,2.2
					C876.4,345,875.4,346,874.2,346z"/>
			</g>
			<g>
				<path class="st1" d="M891.9,346l-4-0.9l-4,0.9c-1.2,0-2.2-0.9-2.2-2.2c0-1.2,0.9-2.2,2.2-2.2l4-0.8l4,0.8c1.2,0,2.2,0.9,2.2,2.2
					C894,345,893.1,346,891.9,346z"/>
			</g>
			<g>
				<path class="st1" d="M853.6,583.7c-0.7,0-1.2-0.3-1.7-0.9l-12.8-16.2h-61c-1.2,0-2.2-0.9-2.2-2.2c0-1.2,0.9-2.2,2.2-2.2h62.1
					c0.7,0,1.3,0.3,1.7,0.9l11.3,14.4l7.4-14.1c0.4-0.7,1.1-1.1,1.9-1.1H976c1.2,0,2.2,0.9,2.2,2.2c0,1.2-0.9,2.2-2.2,2.2H863.8
					l-8.3,15.8c-0.4,0.7-0.9,1-1.7,1.1C853.7,583.6,853.6,583.7,853.6,583.7z"/>
			</g>
			<g>
				<path class="st1" d="M275.7,800.7c-1.2,0-2.2-0.9-2.2-2.2v-248c0-1.2,0.9-2.2,2.2-2.2h153.2c0.8,0,1.4,0.4,1.8,0.9l12.4,18.8
					l12.1-15c0.8-0.9,2.1-1,3-0.3c0.9,0.8,1,2.1,0.3,3l-13.9,17.3c-0.5,0.6-1,0.9-1.8,0.8c-0.7,0-1.3-0.4-1.7-0.9l-13.3-20.3H277.9
					v245.8C277.9,799.7,276.8,800.7,275.7,800.7z"/>
			</g>
			<g>
				<path class="st5" d="M275.7,550.5h119.8c19.2-10.9,26.8-23,26.8-23c-47.7-17.2-68.6-66-68.6-66c12.3,3.4,28-1.9,28-1.9
					c-26.8-14.2-41.2-49.2-41.2-49.2c15.1,3,19.2,0,19.2,0c-28.3-35.8-38.5-84.6-38.5-84.6s-10.1,48.8-38.5,84.6c0,0,4.1,3,19.2,0
					c0,0-14.4,35-41.2,49.2c0,0,15.7,5.2,28,1.9c0,0-20.9,48.8-68.6,66c0,0,14.8,23.5,55.5,34.6L275.7,550.5L275.7,550.5z"/>
			</g>
			<g>
				<path class="st2" d="M428.9,550.5l14,21.3l14-17.4c0,0,89.9,6.6,117.6,6.2c-6.7-20.8-21.5-36.7-30-48.2
					c-6-8.1-14.2-7.5-14.2-7.5c4.4-15.7-12.3-24.9-18.2-44.8c-4.3-14.5,0.3-20.3,3-22.5h-2.5c-65.3,0-118.9,49.3-125.9,112.7
					L428.9,550.5L428.9,550.5z"/>
				<path class="st1" d="M442.9,573.9L442.9,573.9c-0.8,0-1.4-0.4-1.8-0.9l-13.3-20.3h-41.2c-0.6,0-1.2-0.3-1.6-0.8s-0.6-1-0.6-1.7
					c7.2-65.4,62.3-114.6,128.1-114.6h2.5c0.9,0,1.7,0.6,2.1,1.5c0.3,0.9,0,1.8-0.8,2.4c-2.1,1.5-6.4,6.6-2.3,20.1
					c2.4,7.8,6.6,14.2,10.4,19.7c5.1,7.6,9.9,14.7,8.5,23.7c3.3,0.5,8.9,2.2,13.2,8.2c1.7,2.3,3.6,4.7,5.7,7.4
					c8.6,10.9,19.3,24.5,24.8,41.5c0.2,0.7,0.1,1.3-0.3,1.9c-0.4,0.6-1,0.9-1.7,0.9c-25.7,0.3-106.2-5.4-116.7-6.1l-13.3,16.4
					C444.2,573.7,443.6,573.9,442.9,573.9z M389.1,548.3h39.9c0.8,0,1.4,0.4,1.8,0.9l12.4,18.8l12.1-15c0.5-0.6,1.1-0.9,1.8-0.8
					c0.9,0.1,84.2,6.1,114.4,6.2c-5.5-15-15.2-27.3-23.1-37.3c-2.1-2.6-4.1-5.1-5.8-7.5c-5.1-7-12-6.6-12.3-6.6
					c-0.7,0-1.4-0.3-1.8-0.8c-0.5-0.6-0.6-1.2-0.4-2c2.4-8.2-1.9-14.6-7.4-22.7c-3.9-5.9-8.3-12.4-10.9-20.9
					c-3.2-10.6-1.9-17,0.4-20.9C448.5,441.1,397,487.1,389.1,548.3z"/>
			</g>
			<g>
				<path class="st2" d="M765.4,538.2c5.6,0,10.9,1,15.7,2.8c3.4-7,8.2-13.2,14.1-18.2c-17.2-49.2-63.8-84.6-118.8-84.9
					c9.4,63.5-28.5,91.8-28.5,91.8c-2.6-13-13.4-14.2-13.4-14.2c-1.1,9.7-11.1,29.9-32,37.7c-5,1.9-9,4.4-12.1,7.3
					c28,0,92,1.5,137.6,2.7C731.9,548.8,747.1,538.2,765.4,538.2z"/>
				<path class="st1" d="M727.7,565.3L727.7,565.3c-47.5-1.2-110-2.7-137.6-2.7c-0.9,0-1.7-0.6-2-1.4c-0.3-0.9-0.1-1.8,0.6-2.4
					c3.7-3.3,8-6,12.8-7.7c20.8-7.7,29.8-27.9,30.7-35.9c0.1-1.1,1.1-2,2.4-1.9c3.9,0.4,11.1,3.6,14.4,12.5
					c8.1-7.7,33-35.7,25.3-87.7c-0.1-0.7,0.1-1.2,0.5-1.7c0.4-0.5,1-0.8,1.6-0.8l0,0c54.3,0.4,102.9,35.1,120.7,86.4
					c0.3,0.9,0,1.8-0.7,2.4c-5.7,4.9-10.3,10.8-13.5,17.6c-0.5,1-1.6,1.4-2.6,1c-4.7-1.8-9.7-2.6-14.9-2.6
					c-16.9,0-31.6,9.6-35.6,23.4C729.5,564.7,728.7,565.3,727.7,565.3z M596.5,558.4c29.7,0.2,85.7,1.5,129.6,2.6
					c5.2-14.7,21-24.9,39.2-24.9c5,0,9.9,0.8,14.5,2.3c3.2-6.1,7.5-11.5,12.6-16.2c-17.4-48.1-62.7-80.8-113.7-82.1
					c8.1,62.4-29.4,91.1-29.8,91.4c-0.6,0.5-1.3,0.6-2.1,0.3c-0.7-0.3-1.2-0.9-1.3-1.6c-1.6-8.1-6.7-11-9.6-12
					c-2.3,10.1-12,29.2-33.1,37C600.7,556,598.5,557,596.5,558.4z"/>
			</g>
			<g>
				<path class="st1" d="M853.6,583.7c-0.7,0-1.2-0.3-1.7-0.9l-12.8-16.2h-61c0,0,0,0-0.1,0c0,0-21.4-0.6-50.4-1.3
					c-0.7,0-1.3-0.4-1.7-0.9c-0.4-0.6-0.5-1.2-0.3-1.9c4.5-15.6,20.9-26.5,39.7-26.5c5,0,9.9,0.8,14.5,2.3
					c10-19.1,30.2-31.4,52-31.4c20.8,0,40,11,50.4,28.7c4.8-1.7,9.9-2.6,15.2-2.6c20.4,0,37.6,13,40.9,31.1c0.1,0.7-0.1,1.2-0.5,1.8
					c-0.4,0.5-1,0.8-1.6,0.8h-72.6l-8.3,15.8c-0.4,0.7-0.9,1-1.7,1.1C853.7,583.6,853.6,583.7,853.6,583.7z M778.1,562.4h62.1
					c0.7,0,1.3,0.3,1.7,0.9l11.3,14.4l7.4-14.1c0.4-0.7,1.1-1.1,1.9-1.1h71.1c-4.1-14.6-18.8-25-36.1-25c-5.3,0-10.5,0.9-15.3,2.9
					c-1,0.4-2.2,0-2.6-0.9c-9.5-17.3-27.9-28.1-47.6-28.1c-20.8,0-40,12-49,30.7c-0.5,1-1.6,1.4-2.6,1c-4.7-1.8-9.7-2.6-14.9-2.6
					c-15.9,0-29.7,8.4-34.7,20.7C757.5,561.8,777.2,562.3,778.1,562.4z"/>
			</g>
			<g>
				<path class="st1" d="M914.4,540.8c-0.3,0-0.6-0.1-0.9-0.2c-5-2.2-10.4-3.2-16.1-3.2c-5.3,0-10.5,0.9-15.3,2.9
					c-1,0.4-2.2,0-2.6-0.9c-9.5-17.3-27.9-28.1-47.6-28.1c-3,0-6.1,0.3-9.2,0.8c-0.6,0.1-1.1-0.1-1.7-0.4c-0.5-0.4-0.8-0.9-0.9-1.5
					c-0.2-2-0.3-4-0.3-6c0-30.1,24.6-54.7,54.7-54.7c30.1,0,54.7,24.6,54.7,54.7c0,13.1-4.7,25.9-13.3,35.8
					C915.7,540.5,915,540.8,914.4,540.8z M897.6,533.1c5.7,0,11.1,1,16.2,2.9c7.3-9,11.3-20.2,11.3-31.8c0-27.8-22.6-50.4-50.4-50.4
					c-27.8,0-50.4,22.6-50.4,50.4c0,1,0,2.2,0.1,3.2c2.6-0.3,5.1-0.5,7.6-0.5c20.8,0,40,11,50.4,28.7
					C887.2,534,892.3,533.1,897.6,533.1z"/>
			</g>
			<g>
				<path class="st1" d="M976,805.1c-1.2,0-2.2-0.9-2.2-2.2V566.7H863.8l-8.3,15.8c-0.4,0.7-0.9,1-1.7,1.1c-0.8,0.1-1.4-0.2-1.9-0.9
					l-12.8-16.2h-61c-1.5,0-141.5-4-187.3-4.1c-1.2,0-2.2-0.9-2.2-2.2c0-1.2,0.9-2.2,2.2-2.2l0,0c45.8,0.1,186,4.1,187.4,4.1h62.1
					c0.7,0,1.3,0.3,1.7,0.9l11.3,14.4l7.4-14.1c0.4-0.7,1.1-1.1,1.9-1.1h113.6c1.2,0,2.2,0.9,2.2,2.2v238.4
					C978.2,804.2,977.3,805.1,976,805.1z"/>
			</g>
			<g>
				<path class="st1" d="M275.7,800.7c-1.2,0-2.2-0.9-2.2-2.2v-248c0-1.2,0.9-2.2,2.2-2.2h153.2c0.8,0,1.4,0.4,1.8,0.9l12.4,18.8
					l12.1-15c0.5-0.6,1.1-0.9,1.8-0.8c0.9,0.1,90.2,6.6,117.4,6.2l0,0c1.1,0,2.2,0.9,2.2,2.1c0,1.2-0.9,2.2-2.1,2.2
					c-25.7,0.3-106.2-5.4-116.7-6.1l-13.2,16.4c-0.5,0.6-1,0.9-1.8,0.8c-0.7,0-1.3-0.4-1.7-0.9l-13.3-20.3H277.9v245.8
					C277.9,799.7,276.8,800.7,275.7,800.7z"/>
			</g>
			<g>
				<path class="st2" d="M270.4,684.2L270.4,684.2c21.2,0,38.4-17.2,38.4-38.4l0,0c0-21.2-17.2-38.4-38.4-38.4l0,0
					c-10.7,0-19.3,8.6-19.3,19.3v38.1C251,675.6,259.7,684.2,270.4,684.2z"/>
				<path class="st1" d="M270.4,686.4c-11.8,0-21.4-9.6-21.4-21.4v-38.1c0-11.8,9.6-21.4,21.4-21.4c22.3,0,40.4,18.1,40.4,40.4
					C310.8,668.2,292.7,686.4,270.4,686.4z M270.4,609.7c-9.4,0-17.2,7.7-17.2,17.2V665c0,9.4,7.7,17.2,17.2,17.2
					c19.9,0,36.2-16.2,36.2-36.2C306.5,626,290.3,609.7,270.4,609.7z"/>
			</g>
			<g>
				<path class="st2" d="M980,684.2L980,684.2c-21.2,0-38.4-17.2-38.4-38.4l0,0c0-21.2,17.2-38.4,38.4-38.4l0,0
					c10.7,0,19.3,8.6,19.3,19.3v38.1C999.3,675.6,990.7,684.2,980,684.2z"/>
				<path class="st1" d="M980,686.4c-22.3,0-40.4-18.1-40.4-40.4c0-22.3,18.1-40.4,40.4-40.4c11.8,0,21.4,9.6,21.4,21.4V665
					C1001.4,676.7,991.8,686.4,980,686.4z M980,609.7c-19.9,0-36.2,16.2-36.2,36.2c0,19.9,16.2,36.2,36.2,36.2
					c9.4,0,17.2-7.7,17.2-17.2v-38.1C997.2,617.4,989.4,609.7,980,609.7z"/>
			</g>
			<g>
				<path class="st1" d="M778,587.9H661.7c-1.2,0-2.2-0.9-2.2-2.2c0-1.2,0.9-2.2,2.2-2.2h116.4c1.2,0,2.2,0.9,2.2,2.2
					C780.2,587,779.2,587.9,778,587.9z"/>
			</g>
			<g>
				<path class="st1" d="M371.9,583.7h-71.6c-1.2,0-2.2-0.9-2.2-2.2c0-1.2,0.9-2.2,2.2-2.2h71.6c1.2,0,2.2,0.9,2.2,2.2
					C374.1,582.6,373.1,583.7,371.9,583.7z"/>
			</g>
			<g>
				<path class="st1" d="M424.9,526.2c-0.3,0-0.6-0.1-0.9-0.2c-1-0.5-1.5-1.8-1-2.8c18.2-40,57.2-53.6,58.8-54.1
					c1.1-0.4,2.4,0.2,2.7,1.3c0.4,1.1-0.2,2.4-1.3,2.7c-0.4,0.1-38.8,13.6-56.3,51.9C426.5,525.8,425.7,526.2,424.9,526.2z"/>
			</g>
			<g>
				<circle class="st3" cx="298.7" cy="524.1" r="14.9"/>
				<path class="st1" d="M298.7,541.1c-9.4,0-17-7.7-17-17c0-9.4,7.7-17,17-17s17,7.7,17,17C315.8,533.4,308.1,541.1,298.7,541.1z
					 M298.7,511.3c-7,0-12.8,5.8-12.8,12.8c0,7,5.8,12.8,12.8,12.8s12.8-5.8,12.8-12.8C311.4,517,305.7,511.3,298.7,511.3z"/>
			</g>
			<g>
				<circle class="st6" cx="334.2" cy="462.2" r="9"/>
				<path class="st1" d="M334.2,473.2c-6.1,0-11.1-5-11.1-11.1c0-6.1,5-11.1,11.1-11.1c6.1,0,11.1,5,11.1,11.1
					C345.2,468.2,340.2,473.2,334.2,473.2z M334.2,455.4c-3.8,0-6.8,3-6.8,6.8c0,3.8,3,6.8,6.8,6.8c3.8,0,6.8-3,6.8-6.8
					C341,458.4,337.9,455.4,334.2,455.4z"/>
			</g>
			<g>
				<path class="st2" d="M313.6,419.1c8.4,0,15.2-6.8,15.2-15.2s-6.8-15.2-15.2-15.2s-15.2,6.8-15.2,15.2c0,2.6,0.7,4.9,1.7,7
					c0.7-0.1,1.2-0.2,1.9-0.4c0,0-0.3,0.8-0.9,2.1C303.9,416.5,308.4,419.1,313.6,419.1z"/>
			</g>
			<g>
				<path class="st0" d="M369.3,487.2c-0.3,0-0.5,0-0.8,0c-12.9,0-23.5,10.5-23.5,23.5c0,12.9,10.5,23.5,23.5,23.5
					c12.9,0,23.5-10.5,23.5-23.5v-0.1C382.7,503.1,375.2,494.9,369.3,487.2z"/>
			</g>
			<g>
				<path class="st1" d="M557.4,263.8c-0.5,0-0.9-0.2-1.3-0.5c-0.9-0.8-1-2.1-0.3-3c1-1.2,25.5-30.2,71.1-42
					c1.1-0.3,2.4,0.4,2.6,1.5c0.3,1.1-0.4,2.4-1.5,2.6c-44.2,11.4-68.6,40.3-68.9,40.6C558.6,263.6,558.1,263.8,557.4,263.8z"/>
			</g>
			<g>
				<path class="st5" d="M262.1,809.3c-8.1-7-19.7-20.1-13.6-34.2c0,0-37.1,6.1-44.1-18.1c0,0-18.7,26-50.1,17.9
					c0,0,12,21.5-3.9,42.8c0,0,16.2,8.4,12.3,22.7c0,0,33.5-12.3,38.4,16c0,0,6.8-5,15.4-8.1c13-4.8,24,10.5,15.2,21.4
					c-8,9.8-24,13-41.6,9.8c0,0,4.2,31.1-30.2,33.8c0,0,18.7,15.4,9.5,40.5c0,0,33.3,3.1,32.7,30.5c0,0,15.1-19.6,42.2-5.9
					c0,0,8.7-35.5,40.2-28.5c0,0-16.2-29.9,10.4-41.4c0,0-16.2-26.3,13.7-27.4c22.4-0.9,25.7,32.9,19.6,41.9c0,0,28.5-20.3,52.9,7.9
					c0,0,14-37.5,46.7-25.4c0,0-8.1-24.7,13.4-29.1c0,0-29.7-12.8-19.8-32.7c0,0-39.2-0.3-39.4-26.5c0,0-34.1,13.1-41.9-15.4
					c0,0-24.1,29.4-44.2,8.4c0,0-2.6,7.8-15.2,7.2C273.7,816.5,267.3,813.8,262.1,809.3z"/>
			</g>
			<g>
				
					<ellipse transform="matrix(0.7071 -0.7071 0.7071 0.7071 -506.5863 427.7611)" class="st0" cx="263.1" cy="825.4" rx="25.3" ry="25.3"/>
				<path class="st1" d="M263,852.9c-15.2,0-27.5-12.4-27.5-27.5c0-15.2,12.4-27.5,27.5-27.5c15.2,0,27.5,12.4,27.5,27.5
					C290.5,840.5,278.2,852.9,263,852.9z M263,802.2c-12.8,0-23.2,10.4-23.2,23.2s10.4,23.2,23.2,23.2c12.8,0,23.2-10.4,23.2-23.2
					S275.8,802.2,263,802.2z"/>
			</g>
			<g>
				<circle class="st3" cx="270.5" cy="876.1" r="25.3"/>
				<path class="st1" d="M270.5,903.6c-15.2,0-27.5-12.4-27.5-27.5c0-15.2,12.4-27.5,27.5-27.5c15.2,0,27.5,12.4,27.5,27.5
					C298,891.3,285.6,903.6,270.5,903.6z M270.5,852.9c-12.8,0-23.2,10.4-23.2,23.2s10.4,23.2,23.2,23.2c12.8,0,23.2-10.4,23.2-23.2
					S283.3,852.9,270.5,852.9z"/>
			</g>
			<g>
				<circle class="st0" cx="313.8" cy="848.9" r="25.3"/>
				<path class="st1" d="M313.8,876.3c-15.2,0-27.5-12.4-27.5-27.5c0-15.2,12.4-27.5,27.5-27.5c15.2,0,27.5,12.4,27.5,27.5
					C341.3,864.1,328.9,876.3,313.8,876.3z M313.8,825.7c-12.8,0-23.2,10.4-23.2,23.2c0,12.8,10.4,23.2,23.2,23.2
					s23.2-10.4,23.2-23.2C336.9,836.1,326.5,825.7,313.8,825.7z"/>
			</g>
			<g>
				<path class="st1" d="M223.4,821.7c-0.7,0-1.2-0.3-1.7-0.8c-0.1-0.2-14-16.7-42.6-25.3c-1.1-0.4-1.8-1.5-1.4-2.6s1.5-1.8,2.6-1.4
					c29.9,9.1,44.1,26,44.7,26.7c0.8,0.9,0.7,2.3-0.3,3C224.3,821.6,223.8,821.7,223.4,821.7z"/>
			</g>
			<g>
				<path class="st1" d="M203.5,948.4c-0.4,0-0.8-0.1-1-0.3c-1-0.6-1.4-1.9-0.8-2.9c17.9-31.1,38.5-47.2,39.4-47.9
					c0.9-0.8,2.3-0.6,3,0.4c0.8,0.9,0.6,2.3-0.4,3c-0.2,0.2-20.9,16.3-38.4,46.7C204.9,948,204.3,948.4,203.5,948.4z"/>
			</g>
			<g>
				<path class="st1" d="M400.4,896.8c-0.9,0-1.6-0.5-2-1.3c-10.9-26-37.5-32.1-48.6-33.5c-0.7-0.1-0.9-0.2-1-0.2
					c-1.1-0.4-1.7-1.6-1.3-2.7c0.4-1,1.4-1.7,2.6-1.4c0.1,0,0.3,0,0.5,0.1c11.7,1.5,40.2,8.1,52,36.2c0.5,1.1-0.1,2.4-1.1,2.8
					C401,896.7,400.7,896.8,400.4,896.8z"/>
			</g>
			<g>
				<rect x="601.8" y="813.4" class="st2" width="222.7" height="19"/>
				<path class="st1" d="M824.5,834.6H601.8c-1.2,0-2.2-0.9-2.2-2.2v-19c0-1.2,0.9-2.2,2.2-2.2h222.7c1.2,0,2.2,0.9,2.2,2.2v19
					C826.6,833.6,825.6,834.6,824.5,834.6z M604,830.3h218.3v-14.7H604V830.3z"/>
			</g>
			<g>
				<rect x="522.4" y="870.5" class="st3" width="142.7" height="24.1"/>
				<path class="st1" d="M665,896.8H522.4c-1.2,0-2.2-0.9-2.2-2.2v-24.1c0-1.2,0.9-2.2,2.2-2.2H665c1.2,0,2.2,0.9,2.2,2.2v24.1
					C667.2,895.7,666.3,896.8,665,896.8z M524.5,892.4h138.3v-19.7H524.5V892.4z"/>
			</g>
			<g>
				<rect x="522.4" y="894.6" class="st5" width="123.3" height="59.5"/>
				<path class="st1" d="M645.7,956.2H522.4c-1.2,0-2.2-0.9-2.2-2.2v-59.5c0-1.2,0.9-2.2,2.2-2.2h123.3c1.2,0,2.2,0.9,2.2,2.2V954
					C647.8,955.2,646.8,956.2,645.7,956.2z M524.5,951.9h118.9v-55.2H524.5V951.9z"/>
			</g>
			<g>
				<path class="st1" d="M522.4,872.7c-1.2,0-2.2-0.9-2.2-2.2v-9c0-1.2,0.9-2.2,2.2-2.2c1.2,0,2.2,0.9,2.2,2.2v9
					C524.5,871.7,523.6,872.7,522.4,872.7z"/>
			</g>
			<g>
				<circle class="st4" cx="466.1" cy="898.9" r="9.4"/>
				<path class="st1" d="M466.1,910.4c-6.3,0-11.5-5.2-11.5-11.5s5.2-11.5,11.5-11.5s11.5,5.2,11.5,11.5
					C477.6,905.3,472.4,910.4,466.1,910.4z M466.1,891.6c-4,0-7.2,3.2-7.2,7.2s3.2,7.2,7.2,7.2s7.2-3.2,7.2-7.2
					C473.2,895,470,891.6,466.1,891.6z"/>
			</g>
			<g>
				<path class="st0" d="M522.4,889.1c-3.1-3.2-7.4-5.2-12.2-5.2c-9.4,0-16.9,7.6-16.9,16.9s7.6,16.9,16.9,16.9
					c4.8,0,9.1-2,12.2-5.2V889.1z"/>
				<path class="st1" d="M510.2,919.9c-10.5,0-19.1-8.6-19.1-19.1c0-10.5,8.6-19.1,19.1-19.1c5.2,0,10.1,2.1,13.7,5.9
					c0.4,0.4,0.6,0.9,0.6,1.5v23.5c0,0.6-0.2,1.1-0.6,1.5C520.3,917.8,515.5,919.9,510.2,919.9z M510.2,886.1
					c-8.1,0-14.7,6.6-14.7,14.7c0,8.1,6.6,14.7,14.7,14.7c3.8,0,7.3-1.4,10-4v-21.7C517.5,887.5,514,886.1,510.2,886.1z"/>
			</g>
			<g>
				<path class="st6" d="M504.3,936.1c-9.9,0-18,8-18,18h36.1C522.4,944.1,514.3,936.1,504.3,936.1z"/>
				<path class="st1" d="M522.4,956.2h-36.1c-1.2,0-2.2-0.9-2.2-2.2c0-11.1,9.1-20.2,20.2-20.2s20.2,9.1,20.2,20.2
					C524.5,955.2,523.6,956.2,522.4,956.2z M488.6,951.9h31.5c-1-7.7-7.7-13.8-15.8-13.8C496.3,938.1,489.7,944.2,488.6,951.9z"/>
			</g>
			<g>
				<path class="st3" d="M460.3,954c1.8-2.9,2.8-6.4,2.8-10.1c0-10.9-8.8-19.7-19.7-19.7c-10.9,0-19.7,8.8-19.7,19.7
					c0,3.7,1,7.1,2.8,10.1H460.3z"/>
				<path class="st1" d="M460.3,956.2h-33.7c-0.8,0-1.4-0.4-1.9-1c-2-3.4-3.1-7.3-3.1-11.1c0-12,9.8-21.8,21.8-21.8
					s21.8,9.8,21.8,21.8c0,3.9-1,7.7-3.1,11.1C461.7,955.8,461.1,956.2,460.3,956.2z M427.8,951.9h31.3c1.2-2.5,1.9-5.2,1.9-7.9
					c0-9.6-7.8-17.6-17.6-17.6c-9.6,0-17.6,7.8-17.6,17.6C425.9,946.7,426.6,949.5,427.8,951.9z"/>
			</g>
			<g>
				<path class="st1" d="M522.4,956.2H323c-1.2,0-2.2-0.9-2.2-2.2c0-1.2,0.9-2.2,2.2-2.2h199.3c1.2,0,2.2,0.9,2.2,2.2
					C524.5,955.2,523.6,956.2,522.4,956.2z"/>
			</g>
			<g>
				<path class="st5" d="M998.1,797.6c-0.8-5-2.6-10.8-5.7-16.9c0,0,31-2.3,31.7-31.7c0,0,24.3-6.7,26.8-27.2c0,0,13.8,3,23.9-9.7
					c0,0,11.9,17.9,37.3,12.3c0,0-8.2,22.8,13,38.1c0,0-17.6,23.9,0,45.2c0,0-29.1-6.7-40.6,13.8c0,0-28.7-15.3-39.9,11.1
					c0,0-15.7-9.4-23.1,6.2c-7.5,15.8,16.1,34.8,63.4,29.9c0,0-2.6,15.7,40.2,17.2c0,0-21.6,29.5,5.2,58.6c0,0-20.1,3.7-17.9,24.9
					c0,0-40.6-14.2-60.1,17.2c0,0-7.5-32.8-38.8-22.4c0,0,7.8-29.5-21.3-28.7c0,0,21.9-36.9,2.4-46.4c-14.6-7.1-21.7,9.9-18.7,15.5
					c0,0-33.5-7.1-41.4,13.4c0,0-33.2-19.7-56.7,11.5c0,0-3.4-32-28-26.5c0,0,16.8-21.6,0-45.9c0,0,31.4,1.9,43.6-31.7
					c0,0,29.9,11.5,42.5-6.3c0,0,16.8,19.5,40.1,12.9C991.1,827.9,1000.6,812.9,998.1,797.6z"/>
			</g>
			<g>
				<ellipse class="st0" cx="1017.3" cy="831.2" rx="19.5" ry="19.5"/>
				<path class="st1" d="M1017.3,852.8c-11.9,0-21.6-9.7-21.6-21.6c0-11.9,9.7-21.5,21.6-21.5c11.9,0,21.5,9.6,21.5,21.5
					C1038.9,843.1,1029.2,852.8,1017.3,852.8z M1017.3,813.9c-9.5,0-17.3,7.7-17.3,17.3s7.7,17.3,17.3,17.3
					c9.5,0,17.3-7.7,17.3-17.3S1026.9,813.9,1017.3,813.9z"/>
			</g>
			<g>
				<circle class="st2" cx="1019.3" cy="871.7" r="19.5"/>
				<path class="st1" d="M1019.3,893.4c-11.9,0-21.5-9.7-21.5-21.6c0-11.9,9.6-21.5,21.5-21.5c11.9,0,21.5,9.6,21.5,21.5
					C1040.8,883.6,1031.2,893.4,1019.3,893.4z M1019.3,854.4c-9.5,0-17.3,7.7-17.3,17.3s7.7,17.3,17.3,17.3
					c9.5,0,17.3-7.7,17.3-17.3C1036.6,862.2,1028.8,854.4,1019.3,854.4z"/>
			</g>
			<g>
				<ellipse class="st0" cx="978.5" cy="858.2" rx="19.5" ry="19.5"/>
				<path class="st1" d="M978.5,879.7c-11.9,0-21.5-9.6-21.5-21.5s9.6-21.6,21.5-21.6c11.9,0,21.5,9.7,21.5,21.6
					C1000,870.1,990.4,879.7,978.5,879.7z M978.5,840.9c-9.5,0-17.3,7.7-17.3,17.3s7.7,17.3,17.3,17.3s17.3-7.7,17.3-17.3
					C995.8,848.7,988,840.9,978.5,840.9z"/>
			</g>
			<g>
				<path class="st1" d="M976,956.2H806.9c-1.2,0-2.2-0.9-2.2-2.2c0-1.2,0.9-2.2,2.2-2.2h167v-31.6c0-1.2,0.9-2.2,2.2-2.2
					c1.2,0,2.2,0.9,2.2,2.2v33.7C978.2,955.2,977.3,956.2,976,956.2z"/>
			</g>
			<g>
				<path class="st1" d="M990.2,956.2H976c-1.2,0-2.2-0.9-2.2-2.2c0-1.2,0.9-2.2,2.2-2.2h14.2c1.2,0,2.2,0.9,2.2,2.2
					C992.4,955.2,991.4,956.2,990.2,956.2z"/>
			</g>
			<g>
				<path class="st1" d="M1091.3,956.2c-0.8,0-1.4-0.4-1.9-1c-22.2-37.5-49.4-55.1-49.7-55.3c-1-0.7-1.3-2-0.7-2.9
					c0.7-1,2-1.3,2.9-0.7c1.1,0.8,28.3,18.2,51,56.7c0.6,1,0.3,2.4-0.8,2.9C1092,956.1,1091.7,956.2,1091.3,956.2z"/>
			</g>
			<g>
				<path class="st1" d="M870.9,891.6c-0.7,0-1.4-0.4-1.8-0.9c-0.7-1-0.4-2.4,0.7-2.9c33.3-21.3,68-26,68.4-26.1
					c1.1-0.2,2.3,0.7,2.4,1.9c0.2,1.1-0.7,2.3-1.9,2.4c-0.4,0-34.3,4.7-66.6,25.4C871.7,891.6,871.3,891.6,870.9,891.6z"/>
			</g>
			<g>
				<path class="st1" d="M1036.8,797c-0.3,0-0.6-0.1-0.9-0.2c-1-0.5-1.5-1.8-1-2.8c0.4-0.9,10.7-22.7,55.8-36.6
					c1.1-0.4,2.4,0.3,2.6,1.4c0.4,1.1-0.3,2.4-1.4,2.6c-43.1,13.3-53.1,34.1-53.2,34.3C1038.4,796.5,1037.6,797,1036.8,797z"/>
			</g>
			<g>
				<path class="st1" d="M956.2,956.2c-1.2,0-2.2-0.9-2.2-2.2v-50.4c0-1.2,0.9-2.2,2.2-2.2s2.2,0.9,2.2,2.2V954
					C958.4,955.2,957.4,956.2,956.2,956.2z"/>
			</g>
			<g>
				<path class="st1" d="M955.7,978.9h-1.9c-1.2,0-2.2-0.9-2.2-2.2c0-1.2,0.9-2.2,2.2-2.2h1.9c1.2,0,2.2,0.9,2.2,2.2
					C957.9,978,956.9,978.9,955.7,978.9z M944.3,978.9h-1.9c-1.2,0-2.2-0.9-2.2-2.2c0-1.2,0.9-2.2,2.2-2.2h1.9
					c1.2,0,2.2,0.9,2.2,2.2C946.5,978,945.4,978.9,944.3,978.9z M932.9,978.9H931c-1.2,0-2.2-0.9-2.2-2.2c0-1.2,0.9-2.2,2.2-2.2h1.9
					c1.2,0,2.2,0.9,2.2,2.2C935,978,934,978.9,932.9,978.9z M921.4,978.9h-1.9c-1.2,0-2.2-0.9-2.2-2.2c0-1.2,0.9-2.2,2.2-2.2h1.9
					c1.2,0,2.2,0.9,2.2,2.2C923.6,978,922.6,978.9,921.4,978.9z M910,978.9h-1.9c-1.2,0-2.2-0.9-2.2-2.2c0-1.2,0.9-2.2,2.2-2.2h1.9
					c1.2,0,2.2,0.9,2.2,2.2C912.2,978,911.1,978.9,910,978.9z M898.6,978.9h-1.9c-1.2,0-2.2-0.9-2.2-2.2c0-1.2,0.9-2.2,2.2-2.2h1.9
					c1.2,0,2.2,0.9,2.2,2.2C900.7,978,899.7,978.9,898.6,978.9z M887.1,978.9h-1.9c-1.2,0-2.2-0.9-2.2-2.2c0-1.2,0.9-2.2,2.2-2.2
					h1.9c1.2,0,2.2,0.9,2.2,2.2C889.3,978,888.3,978.9,887.1,978.9z M875.7,978.9h-1.9c-1.2,0-2.2-0.9-2.2-2.2
					c0-1.2,0.9-2.2,2.2-2.2h1.9c1.2,0,2.2,0.9,2.2,2.2C877.9,978,876.8,978.9,875.7,978.9z M864.3,978.9h-1.9
					c-1.2,0-2.2-0.9-2.2-2.2c0-1.2,0.9-2.2,2.2-2.2h1.9c1.2,0,2.2,0.9,2.2,2.2C866.4,978,865.5,978.9,864.3,978.9z M852.8,978.9
					h-1.9c-1.2,0-2.2-0.9-2.2-2.2c0-1.2,0.9-2.2,2.2-2.2h1.9c1.2,0,2.2,0.9,2.2,2.2C855,978,854.1,978.9,852.8,978.9z M841.4,978.9
					h-1.9c-1.2,0-2.2-0.9-2.2-2.2c0-1.2,0.9-2.2,2.2-2.2h1.9c1.2,0,2.2,0.9,2.2,2.2C843.6,978,842.6,978.9,841.4,978.9z M830,978.9
					h-1.9c-1.2,0-2.2-0.9-2.2-2.2c0-1.2,0.9-2.2,2.2-2.2h1.9c1.2,0,2.2,0.9,2.2,2.2C832.1,978,831.2,978.9,830,978.9z M818.5,978.9
					h-1.9c-1.2,0-2.2-0.9-2.2-2.2c0-1.2,0.9-2.2,2.2-2.2h1.9c1.2,0,2.2,0.9,2.2,2.2C820.7,978,819.8,978.9,818.5,978.9z
					 M807.1,978.9h-1.9c-1.2,0-2.2-0.9-2.2-2.2c0-1.2,0.9-2.2,2.2-2.2h1.9c1.2,0,2.2,0.9,2.2,2.2C809.3,978,808.3,978.9,807.1,978.9
					z M795.7,978.9h-1.9c-1.2,0-2.2-0.9-2.2-2.2c0-1.2,0.9-2.2,2.2-2.2h1.9c1.2,0,2.2,0.9,2.2,2.2
					C797.9,978,796.9,978.9,795.7,978.9z M784.2,978.9h-1.9c-1.2,0-2.2-0.9-2.2-2.2c0-1.2,0.9-2.2,2.2-2.2h1.9
					c1.2,0,2.2,0.9,2.2,2.2C786.4,978,785.5,978.9,784.2,978.9z M772.8,978.9h-1.9c-1.2,0-2.2-0.9-2.2-2.2c0-1.2,0.9-2.2,2.2-2.2
					h1.9c1.2,0,2.2,0.9,2.2,2.2C775,978,774,978.9,772.8,978.9z M761.4,978.9h-1.9c-1.2,0-2.2-0.9-2.2-2.2c0-1.2,0.9-2.2,2.2-2.2
					h1.9c1.2,0,2.2,0.9,2.2,2.2C763.6,978,762.6,978.9,761.4,978.9z M750,978.9h-1.9c-1.2,0-2.2-0.9-2.2-2.2c0-1.2,0.9-2.2,2.2-2.2
					h1.9c1.2,0,2.2,0.9,2.2,2.2C752.1,978,751.2,978.9,750,978.9z M738.5,978.9h-1.9c-1.2,0-2.2-0.9-2.2-2.2c0-1.2,0.9-2.2,2.2-2.2
					h1.9c1.2,0,2.2,0.9,2.2,2.2C740.7,978,739.8,978.9,738.5,978.9z M727.1,978.9h-1.9c-1.2,0-2.2-0.9-2.2-2.2
					c0-1.2,0.9-2.2,2.2-2.2h1.9c1.2,0,2.2,0.9,2.2,2.2C729.3,978,728.3,978.9,727.1,978.9z M715.7,978.9h-1.9
					c-1.2,0-2.2-0.9-2.2-2.2c0-1.2,0.9-2.2,2.2-2.2h1.9c1.2,0,2.2,0.9,2.2,2.2C717.8,978,716.9,978.9,715.7,978.9z M704.2,978.9
					h-1.9c-1.2,0-2.2-0.9-2.2-2.2c0-1.2,0.9-2.2,2.2-2.2h1.9c1.2,0,2.2,0.9,2.2,2.2C706.4,978,705.5,978.9,704.2,978.9z
					 M692.8,978.9h-1.9c-1.2,0-2.2-0.9-2.2-2.2c0-1.2,0.9-2.2,2.2-2.2h1.9c1.2,0,2.2,0.9,2.2,2.2C695,978,694,978.9,692.8,978.9z
					 M681.4,978.9h-1.9c-1.2,0-2.2-0.9-2.2-2.2c0-1.2,0.9-2.2,2.2-2.2h1.9c1.2,0,2.2,0.9,2.2,2.2C683.5,978,682.6,978.9,681.4,978.9
					z M669.9,978.9H668c-1.2,0-2.2-0.9-2.2-2.2c0-1.2,0.9-2.2,2.2-2.2h1.9c1.2,0,2.2,0.9,2.2,2.2C672.1,978,671.2,978.9,669.9,978.9
					z M658.5,978.9h-1.9c-1.2,0-2.2-0.9-2.2-2.2c0-1.2,0.9-2.2,2.2-2.2h1.9c1.2,0,2.2,0.9,2.2,2.2
					C660.7,978,659.7,978.9,658.5,978.9z M647.1,978.9h-1.9c-1.2,0-2.2-0.9-2.2-2.2c0-1.2,0.9-2.2,2.2-2.2h1.9
					c1.2,0,2.2,0.9,2.2,2.2C649.2,978,648.3,978.9,647.1,978.9z M635.6,978.9h-1.9c-1.2,0-2.2-0.9-2.2-2.2c0-1.2,0.9-2.2,2.2-2.2
					h1.9c1.2,0,2.2,0.9,2.2,2.2C637.8,978,636.9,978.9,635.6,978.9z M624.2,978.9h-1.9c-1.2,0-2.2-0.9-2.2-2.2
					c0-1.2,0.9-2.2,2.2-2.2h1.9c1.2,0,2.2,0.9,2.2,2.2C626.4,978,625.4,978.9,624.2,978.9z M612.8,978.9h-1.9
					c-1.2,0-2.2-0.9-2.2-2.2c0-1.2,0.9-2.2,2.2-2.2h1.9c1.2,0,2.2,0.9,2.2,2.2C615,978,614,978.9,612.8,978.9z M601.4,978.9h-1.9
					c-1.2,0-2.2-0.9-2.2-2.2c0-1.2,0.9-2.2,2.2-2.2h1.9c1.2,0,2.2,0.9,2.2,2.2C603.5,978,602.6,978.9,601.4,978.9z M589.9,978.9H588
					c-1.2,0-2.2-0.9-2.2-2.2c0-1.2,0.9-2.2,2.2-2.2h1.9c1.2,0,2.2,0.9,2.2,2.2C592.1,978,591.1,978.9,589.9,978.9z M578.5,978.9
					h-1.9c-1.2,0-2.2-0.9-2.2-2.2c0-1.2,0.9-2.2,2.2-2.2h1.9c1.2,0,2.2,0.9,2.2,2.2C580.7,978,579.7,978.9,578.5,978.9z
					 M567.1,978.9h-1.9c-1.2,0-2.2-0.9-2.2-2.2c0-1.2,0.9-2.2,2.2-2.2h1.9c1.2,0,2.2,0.9,2.2,2.2C569.2,978,568.3,978.9,567.1,978.9
					z M555.6,978.9h-1.9c-1.2,0-2.2-0.9-2.2-2.2c0-1.2,0.9-2.2,2.2-2.2h1.9c1.2,0,2.2,0.9,2.2,2.2
					C557.8,978,556.9,978.9,555.6,978.9z M544.2,978.9h-1.9c-1.2,0-2.2-0.9-2.2-2.2c0-1.2,0.9-2.2,2.2-2.2h1.9
					c1.2,0,2.2,0.9,2.2,2.2C546.4,978,545.4,978.9,544.2,978.9z M532.8,978.9h-1.9c-1.2,0-2.2-0.9-2.2-2.2c0-1.2,0.9-2.2,2.2-2.2
					h1.9c1.2,0,2.2,0.9,2.2,2.2C534.9,978,534,978.9,532.8,978.9z M521.3,978.9h-1.9c-1.2,0-2.2-0.9-2.2-2.2c0-1.2,0.9-2.2,2.2-2.2
					h1.9c1.2,0,2.2,0.9,2.2,2.2C523.5,978,522.6,978.9,521.3,978.9z M509.9,978.9H508c-1.2,0-2.2-0.9-2.2-2.2c0-1.2,0.9-2.2,2.2-2.2
					h1.9c1.2,0,2.2,0.9,2.2,2.2C512.1,978,511.1,978.9,509.9,978.9z M498.5,978.9h-1.9c-1.2,0-2.2-0.9-2.2-2.2
					c0-1.2,0.9-2.2,2.2-2.2h1.9c1.2,0,2.2,0.9,2.2,2.2C500.6,978,499.7,978.9,498.5,978.9z M487,978.9h-1.9c-1.2,0-2.2-0.9-2.2-2.2
					c0-1.2,0.9-2.2,2.2-2.2h1.9c1.2,0,2.2,0.9,2.2,2.2C489.2,978,488.3,978.9,487,978.9z M475.6,978.9h-1.9c-1.2,0-2.2-0.9-2.2-2.2
					c0-1.2,0.9-2.2,2.2-2.2h1.9c1.2,0,2.2,0.9,2.2,2.2C477.8,978,476.8,978.9,475.6,978.9z M464.2,978.9h-1.9
					c-1.2,0-2.2-0.9-2.2-2.2c0-1.2,0.9-2.2,2.2-2.2h1.9c1.2,0,2.2,0.9,2.2,2.2C466.4,978,465.4,978.9,464.2,978.9z M452.7,978.9
					h-1.9c-1.2,0-2.2-0.9-2.2-2.2c0-1.2,0.9-2.2,2.2-2.2h1.9c1.2,0,2.2,0.9,2.2,2.2C454.9,978,454,978.9,452.7,978.9z M441.4,978.9
					h-1.9c-1.2,0-2.2-0.9-2.2-2.2c0-1.2,0.9-2.2,2.2-2.2h1.9c1.2,0,2.2,0.9,2.2,2.2C443.5,978,442.5,978.9,441.4,978.9z M430,978.9
					h-1.9c-1.2,0-2.2-0.9-2.2-2.2c0-1.2,0.9-2.2,2.2-2.2h1.9c1.2,0,2.2,0.9,2.2,2.2C432.1,978,431.1,978.9,430,978.9z M418.5,978.9
					h-1.9c-1.2,0-2.2-0.9-2.2-2.2c0-1.2,0.9-2.2,2.2-2.2h1.9c1.2,0,2.2,0.9,2.2,2.2C420.6,978,419.7,978.9,418.5,978.9z
					 M407.1,978.9h-1.9c-1.2,0-2.2-0.9-2.2-2.2c0-1.2,0.9-2.2,2.2-2.2h1.9c1.2,0,2.2,0.9,2.2,2.2C409.2,978,408.2,978.9,407.1,978.9
					z M395.7,978.9h-1.9c-1.2,0-2.2-0.9-2.2-2.2c0-1.2,0.9-2.2,2.2-2.2h1.9c1.2,0,2.2,0.9,2.2,2.2
					C397.8,978,396.8,978.9,395.7,978.9z M384.3,978.9h-1.9c-1.2,0-2.2-0.9-2.2-2.2c0-1.2,0.9-2.2,2.2-2.2h1.9
					c1.2,0,2.2,0.9,2.2,2.2C386.3,978,385.4,978.9,384.3,978.9z M372.8,978.9h-1.9c-1.2,0-2.2-0.9-2.2-2.2c0-1.2,0.9-2.2,2.2-2.2
					h1.9c1.2,0,2.2,0.9,2.2,2.2C374.9,978,374,978.9,372.8,978.9z M361.4,978.9h-1.9c-1.2,0-2.2-0.9-2.2-2.2c0-1.2,0.9-2.2,2.2-2.2
					h1.9c1.2,0,2.2,0.9,2.2,2.2C363.5,978,362.5,978.9,361.4,978.9z M350,978.9h-1.9c-1.2,0-2.2-0.9-2.2-2.2c0-1.2,0.9-2.2,2.2-2.2
					h1.9c1.2,0,2.2,0.9,2.2,2.2C352,978,351.1,978.9,350,978.9z M338.5,978.9h-1.9c-1.2,0-2.2-0.9-2.2-2.2c0-1.2,0.9-2.2,2.2-2.2
					h1.9c1.2,0,2.2,0.9,2.2,2.2C340.6,978,339.7,978.9,338.5,978.9z M327.1,978.9h-1.9c-1.2,0-2.2-0.9-2.2-2.2
					c0-1.2,0.9-2.2,2.2-2.2h1.9c1.2,0,2.2,0.9,2.2,2.2C329.2,978,328.2,978.9,327.1,978.9z M315.7,978.9h-1.9
					c-1.2,0-2.2-0.9-2.2-2.2c0-1.2,0.9-2.2,2.2-2.2h1.9c1.2,0,2.2,0.9,2.2,2.2C317.7,978,316.8,978.9,315.7,978.9z"/>
			</g>
			<g>
				<path class="st1" d="M647.7,861.7c-0.6,0-1.1-0.2-1.5-0.7c-0.9-0.9-0.9-2.2,0-3l13-13c0.9-0.9,2.2-0.9,3,0s0.9,2.2,0,3l-13,13
					C648.8,861.5,648.2,861.7,647.7,861.7z"/>
			</g>
			<g>
				<path class="st1" d="M671.4,866c-0.6,0-1.1-0.2-1.5-0.7c-0.9-0.9-0.9-2.2,0-3l15.9-15.9c0.9-0.9,2.2-0.9,3,0s0.9,2.2,0,3
					L673,865.3C672.6,865.8,672,866,671.4,866z"/>
			</g>
			<g>
				<path class="st1" d="M683.2,887.9c-0.6,0-1.1-0.2-1.5-0.7c-0.9-0.9-0.9-2.2,0-3l37.8-37.8c0.9-0.9,2.2-0.9,3,0s0.9,2.2,0,3
					l-37.8,37.8C684.3,887.6,683.7,887.9,683.2,887.9z"/>
			</g>
			<g>
				<path class="st1" d="M672.1,932.5c-0.6,0-1.1-0.2-1.5-0.7c-0.9-0.9-0.9-2.2,0-3l82.4-82.4c0.9-0.9,2.2-0.9,3,0s0.9,2.2,0,3
					l-82.4,82.4C673.2,932.3,672.7,932.5,672.1,932.5z"/>
			</g>
			<g>
				<path class="st1" d="M704.7,934.1c-0.6,0-1.1-0.2-1.5-0.7c-0.9-0.9-0.9-2.2,0-3l84-84c0.9-0.9,2.2-0.9,3,0s0.9,2.2,0,3l-84,84
					C705.7,933.9,705.2,934.1,704.7,934.1z"/>
			</g>
			<g>
				<path class="st1" d="M738.9,934.4c-0.6,0-1.1-0.2-1.5-0.7c-0.9-0.9-0.9-2.2,0-3l49.7-49.7c0.9-0.9,2.2-0.9,3,0
					c0.9,0.9,0.9,2.2,0,3l-49.7,49.7C740,934.2,739.5,934.4,738.9,934.4z"/>
			</g>
			<g>
				<path class="st1" d="M772.2,933.9c-0.6,0-1.1-0.2-1.5-0.7c-0.9-0.9-0.9-2.2,0-3l16.4-16.4c0.9-0.9,2.2-0.9,3,0
					c0.9,0.9,0.9,2.2,0,3l-16.4,16.4C773.3,933.7,772.7,933.9,772.2,933.9z"/>
			</g>
			<g>
				<path class="st6" d="M1016.3,589c0,4.2,3.3,7.5,7.5,7.5s7.5-3.3,7.5-7.5c0-4.2-3.3-7.5-7.5-7.5S1016.3,584.8,1016.3,589z"/>
				<path class="st1" d="M1023.7,598.5c-5.3,0-9.6-4.3-9.6-9.6s4.3-9.6,9.6-9.6c5.3,0,9.6,4.3,9.6,9.6
					C1033.3,594.3,1029,598.5,1023.7,598.5z M1023.7,583.7c-2.9,0-5.3,2.4-5.3,5.3s2.4,5.3,5.3,5.3c2.9,0,5.3-2.4,5.3-5.3
					S1026.7,583.7,1023.7,583.7z"/>
			</g>
			<g>
				<path class="st0" d="M1028,645.7c0,3,2.5,5.5,5.5,5.5s5.5-2.5,5.5-5.5s-2.5-5.5-5.5-5.5S1028,642.7,1028,645.7z"/>
				<path class="st1" d="M1033.5,653.4c-4.3,0-7.7-3.4-7.7-7.7c0-4.3,3.4-7.7,7.7-7.7c4.3,0,7.7,3.4,7.7,7.7
					C1041.1,649.9,1037.7,653.4,1033.5,653.4z M1033.5,642.3c-1.9,0-3.3,1.5-3.3,3.4c0,1.9,1.5,3.3,3.3,3.3c1.9,0,3.4-1.5,3.4-3.3
					C1036.9,643.8,1035.4,642.3,1033.5,642.3z"/>
			</g>
			<g>
				<circle class="st6" cx="1046.3" cy="694.9" r="10.7"/>
				<path class="st1" d="M1046.3,707.6c-7.1,0-12.8-5.8-12.8-12.8c0-7.1,5.8-12.8,12.8-12.8s12.8,5.8,12.8,12.8
					S1053.3,707.6,1046.3,707.6z M1046.3,686.4c-4.6,0-8.5,3.8-8.5,8.5c0,4.7,3.8,8.5,8.5,8.5c4.6,0,8.5-3.8,8.5-8.5
					C1054.8,690.1,1050.9,686.4,1046.3,686.4z"/>
			</g>
			<g>
				<polygon class="st0" points="1058.7,468.4 1066.1,483.5 1082.7,485.9 1070.7,497.6 1073.5,514.1 1058.7,506.4 1043.9,514.1 
					1046.7,497.6 1034.6,485.9 1051.2,483.5 				"/>
			</g>
			<g>
				<polygon class="st0" points="164.5,536.1 171.9,551.2 188.5,553.5 176.5,565.2 179.3,581.8 164.5,574 149.7,581.8 152.5,565.2 
					140.4,553.5 157,551.2 				"/>
			</g>
			<g>
				<polygon class="st0" points="245.1,349.7 252.6,364.7 269.2,367.1 257.1,378.9 259.9,395.4 245.1,387.5 230.3,395.4 
					233.1,378.9 221.1,367.1 237.7,364.7 				"/>
			</g>
			<g>
				<polygon class="st0" points="918,252.3 925.5,267.3 942,269.7 930,281.5 932.9,298 918,290.1 903.2,298 906,281.5 894,269.7 
					910.6,267.3 				"/>
			</g>
			<g>
				<polygon class="st0" points="721,355.6 725.2,364.2 734.7,365.6 727.8,372.3 729.5,381.9 721,377.3 712.4,381.9 714.1,372.3 
					707.1,365.6 716.6,364.2 				"/>
			</g>
			<g>
				<path class="st1" d="M573.6,612.2h-1.9c-1.2,0-2.2-0.9-2.2-2.2c0-1.2,0.9-2.2,2.2-2.2h1.9c1.2,0,2.2,0.9,2.2,2.2
					C575.7,611.3,574.8,612.2,573.6,612.2z M562.1,612.2h-1.9c-1.2,0-2.2-0.9-2.2-2.2c0-1.2,0.9-2.2,2.2-2.2h1.9
					c1.2,0,2.2,0.9,2.2,2.2C564.3,611.3,563.4,612.2,562.1,612.2z M550.7,612.2h-1.9c-1.2,0-2.2-0.9-2.2-2.2c0-1.2,0.9-2.2,2.2-2.2
					h1.9c1.2,0,2.2,0.9,2.2,2.2C552.9,611.3,551.9,612.2,550.7,612.2z M539.3,612.2h-1.9c-1.2,0-2.2-0.9-2.2-2.2
					c0-1.2,0.9-2.2,2.2-2.2h1.9c1.2,0,2.2,0.9,2.2,2.2C541.5,611.3,540.5,612.2,539.3,612.2z M527.9,612.2H526
					c-1.2,0-2.2-0.9-2.2-2.2c0-1.2,0.9-2.2,2.2-2.2h1.9c1.2,0,2.2,0.9,2.2,2.2C530,611.3,529.1,612.2,527.9,612.2z M516.4,612.2
					h-1.9c-1.2,0-2.2-0.9-2.2-2.2c0-1.2,0.9-2.2,2.2-2.2h1.9c1.2,0,2.2,0.9,2.2,2.2C518.6,611.3,517.6,612.2,516.4,612.2z
					 M505,612.2h-1.9c-1.2,0-2.2-0.9-2.2-2.2c0-1.2,0.9-2.2,2.2-2.2h1.9c1.2,0,2.2,0.9,2.2,2.2C507.2,611.3,506.2,612.2,505,612.2z
					 M493.6,612.2h-1.9c-1.2,0-2.2-0.9-2.2-2.2c0-1.2,0.9-2.2,2.2-2.2h1.9c1.2,0,2.2,0.9,2.2,2.2
					C495.7,611.3,494.8,612.2,493.6,612.2z M482.1,612.2h-1.9c-1.2,0-2.2-0.9-2.2-2.2c0-1.2,0.9-2.2,2.2-2.2h1.9
					c1.2,0,2.2,0.9,2.2,2.2C484.3,611.3,483.4,612.2,482.1,612.2z M470.7,612.2h-1.9c-1.2,0-2.2-0.9-2.2-2.2c0-1.2,0.9-2.2,2.2-2.2
					h1.9c1.2,0,2.2,0.9,2.2,2.2C472.9,611.3,471.9,612.2,470.7,612.2z M459.3,612.2h-1.9c-1.2,0-2.2-0.9-2.2-2.2
					c0-1.2,0.9-2.2,2.2-2.2h1.9c1.2,0,2.2,0.9,2.2,2.2C461.4,611.3,460.5,612.2,459.3,612.2z M447.8,612.2h-1.9
					c-1.2,0-2.2-0.9-2.2-2.2c0-1.2,0.9-2.2,2.2-2.2h1.9c1.2,0,2.2,0.9,2.2,2.2C450,611.3,449.1,612.2,447.8,612.2z M436.4,612.2
					h-1.9c-1.2,0-2.2-0.9-2.2-2.2c0-1.2,0.9-2.2,2.2-2.2h1.9c1.2,0,2.2,0.9,2.2,2.2C438.6,611.3,437.6,612.2,436.4,612.2z
					 M425,612.2h-1.9c-1.2,0-2.2-0.9-2.2-2.2c0-1.2,0.9-2.2,2.2-2.2h1.9c1.2,0,2.2,0.9,2.2,2.2C427.1,611.3,426.2,612.2,425,612.2z
					 M413.5,612.2h-1.9c-1.2,0-2.2-0.9-2.2-2.2c0-1.2,0.9-2.2,2.2-2.2h1.9c1.2,0,2.2,0.9,2.2,2.2
					C415.7,611.3,414.8,612.2,413.5,612.2z M402.1,612.2h-1.9c-1.2,0-2.2-0.9-2.2-2.2c0-1.2,0.9-2.2,2.2-2.2h1.9
					c1.2,0,2.2,0.9,2.2,2.2C404.3,611.3,403.3,612.2,402.1,612.2z M390.7,612.2h-1.9c-1.2,0-2.2-0.9-2.2-2.2c0-1.2,0.9-2.2,2.2-2.2
					h1.9c1.2,0,2.2,0.9,2.2,2.2C392.9,611.3,391.9,612.2,390.7,612.2z"/>
			</g>
			<g>
				<path class="st1" d="M770.2,530.4c-0.9,0-1.6-0.5-2-1.3l-0.2-0.5c-0.5-1.1,0.1-2.4,1.2-2.8c1.1-0.5,2.4,0.1,2.8,1.2l0.2,0.5
					c0.5,1.1-0.1,2.4-1.1,2.8C770.7,530.3,770.5,530.4,770.2,530.4z M766.1,521.2c-0.8,0-1.5-0.5-1.9-1.2c-0.3-0.6-0.6-1.1-0.9-1.7
					c-0.6-1-0.1-2.4,0.9-2.9s2.4-0.1,2.9,0.9c0.3,0.6,0.6,1.1,0.9,1.7c0.6,1,0.1,2.4-0.9,2.8C766.8,521.1,766.5,521.2,766.1,521.2z
					 M760.6,511.2c-0.8,0-1.4-0.4-1.8-1c-0.3-0.6-0.7-1-0.9-1.6c-0.7-1-0.4-2.4,0.7-2.9c1-0.7,2.4-0.4,2.9,0.7
					c0.4,0.6,0.7,1.1,1,1.6c0.7,1,0.3,2.4-0.7,2.9C761.4,511.1,761,511.2,760.6,511.2z M754.2,501.8c-0.7,0-1.3-0.3-1.7-0.9
					c-0.4-0.5-0.8-1-1.1-1.5c-0.8-0.9-0.6-2.3,0.4-3c0.9-0.8,2.3-0.6,3,0.4c0.4,0.5,0.8,1,1.1,1.5c0.7,0.9,0.5,2.3-0.5,3
					C755.2,501.7,754.7,501.8,754.2,501.8z M747,492.9c-0.6,0-1.1-0.3-1.6-0.8c-0.4-0.5-0.9-0.9-1.2-1.4c-0.9-0.9-0.8-2.3,0.1-3
					c0.9-0.9,2.3-0.8,3,0.1c0.5,0.5,0.9,0.9,1.3,1.4c0.8,0.9,0.8,2.3-0.2,3C748,492.8,747.5,492.9,747,492.9z M739,484.8
					c-0.6,0-1-0.2-1.4-0.6c-0.5-0.4-0.9-0.9-1.4-1.2c-0.9-0.8-0.9-2.2-0.2-3c0.8-0.9,2.2-0.9,3-0.2c0.5,0.5,0.9,0.9,1.4,1.3
					c0.9,0.9,0.9,2.2,0.1,3C740.1,484.6,739.6,484.8,739,484.8z M730.2,477.4c-0.5,0-0.9-0.2-1.3-0.5c-0.5-0.4-1-0.8-1.5-1.1
					c-0.9-0.8-1.1-2.1-0.5-3c0.8-0.9,2.1-1.1,3-0.5c0.5,0.4,1,0.8,1.5,1.1c0.9,0.8,1.1,2.1,0.4,3
					C731.5,477.1,730.9,477.4,730.2,477.4z M720.9,470.9c-0.4,0-0.8-0.1-1.1-0.4c-0.6-0.4-1-0.7-1.6-1c-1-0.7-1.3-2-0.7-2.9
					c0.7-1,2-1.3,2.9-0.7c0.6,0.4,1.1,0.7,1.6,1c1,0.7,1.3,2,0.7,2.9C722.3,470.5,721.6,470.9,720.9,470.9z M710.9,465.2
					c-0.3,0-0.7-0.1-0.9-0.3c-0.6-0.3-1.1-0.6-1.7-0.9c-1-0.6-1.5-1.8-0.9-2.8c0.6-1,1.8-1.5,2.8-0.9c0.6,0.3,1.1,0.6,1.7,0.9
					c1,0.6,1.5,1.8,0.9,2.9C712.5,464.7,711.8,465.2,710.9,465.2z M700.5,460.4c-0.3,0-0.6-0.1-0.9-0.2c-0.6-0.2-1.1-0.5-1.7-0.7
					c-1.1-0.5-1.7-1.7-1.2-2.7c0.5-1.1,1.7-1.7,2.7-1.2c0.6,0.2,1.2,0.5,1.8,0.8c1.1,0.5,1.6,1.7,1.2,2.8
					C702.2,459.9,701.4,460.4,700.5,460.4z M689.8,456.6c-0.2,0-0.4,0-0.7-0.1c-0.6-0.2-1.2-0.4-1.8-0.6c-1.1-0.3-1.8-1.5-1.5-2.6
					c0.3-1.1,1.5-1.8,2.6-1.5c0.7,0.2,1.2,0.4,1.9,0.6c1.1,0.4,1.8,1.5,1.4,2.6C691.6,456,690.7,456.6,689.8,456.6z"/>
			</g>
			<g>
				<path class="st1" d="M971.6,787h-1.9c-1.2,0-2.2-0.9-2.2-2.2s0.9-2.2,2.2-2.2h1.9c1.2,0,2.2,0.9,2.2,2.2S972.7,787,971.6,787z
					 M960.2,787h-1.9c-1.2,0-2.2-0.9-2.2-2.2s0.9-2.2,2.2-2.2h1.9c1.2,0,2.2,0.9,2.2,2.2S961.3,787,960.2,787z M948.7,787h-1.9
					c-1.2,0-2.2-0.9-2.2-2.2s0.9-2.2,2.2-2.2h1.9c1.2,0,2.2,0.9,2.2,2.2C950.9,786,949.9,787,948.7,787z M937.3,787h-1.9
					c-1.2,0-2.2-0.9-2.2-2.2s0.9-2.2,2.2-2.2h1.9c1.2,0,2.2,0.9,2.2,2.2S938.4,787,937.3,787z M925.9,787H924
					c-1.2,0-2.2-0.9-2.2-2.2s0.9-2.2,2.2-2.2h1.9c1.2,0,2.2,0.9,2.2,2.2S927,787,925.9,787z M914.4,787h-1.9c-1.2,0-2.2-0.9-2.2-2.2
					s0.9-2.2,2.2-2.2h1.9c1.2,0,2.2,0.9,2.2,2.2S915.6,787,914.4,787z M903,787h-1.9c-1.2,0-2.2-0.9-2.2-2.2s0.9-2.2,2.2-2.2h1.9
					c1.2,0,2.2,0.9,2.2,2.2S904.1,787,903,787z M891.6,787h-1.9c-1.2,0-2.2-0.9-2.2-2.2s0.9-2.2,2.2-2.2h1.9c1.2,0,2.2,0.9,2.2,2.2
					C893.7,786,892.7,787,891.6,787z M880.1,787h-1.9c-1.2,0-2.2-0.9-2.2-2.2s0.9-2.2,2.2-2.2h1.9c1.2,0,2.2,0.9,2.2,2.2
					S881.4,787,880.1,787z M868.7,787h-1.9c-1.2,0-2.2-0.9-2.2-2.2s0.9-2.2,2.2-2.2h1.9c1.2,0,2.2,0.9,2.2,2.2S869.9,787,868.7,787z
					 M857.3,787h-1.9c-1.2,0-2.2-0.9-2.2-2.2s0.9-2.2,2.2-2.2h1.9c1.2,0,2.2,0.9,2.2,2.2S858.5,787,857.3,787z M845.8,787H844
					c-1.2,0-2.2-0.9-2.2-2.2s0.9-2.2,2.2-2.2h1.9c1.2,0,2.2,0.9,2.2,2.2S847.1,787,845.8,787z M834.4,787h-1.9
					c-1.2,0-2.2-0.9-2.2-2.2s0.9-2.2,2.2-2.2h1.9c1.2,0,2.2,0.9,2.2,2.2C836.6,786,835.6,787,834.4,787z M823,787h-1.9
					c-1.2,0-2.2-0.9-2.2-2.2s0.9-2.2,2.2-2.2h1.9c1.2,0,2.2,0.9,2.2,2.2S824.2,787,823,787z M811.6,787h-1.9c-1.2,0-2.2-0.9-2.2-2.2
					s0.9-2.2,2.2-2.2h1.9c1.2,0,2.2,0.9,2.2,2.2S812.8,787,811.6,787z M800.1,787h-1.9c-1.2,0-2.2-0.9-2.2-2.2s0.9-2.2,2.2-2.2h1.9
					c1.2,0,2.2,0.9,2.2,2.2S801.3,787,800.1,787z M788.7,787h-1.9c-1.2,0-2.2-0.9-2.2-2.2s0.9-2.2,2.2-2.2h1.9
					c1.2,0,2.2,0.9,2.2,2.2S789.9,787,788.7,787z M777.3,787h-1.9c-1.2,0-2.2-0.9-2.2-2.2s0.9-2.2,2.2-2.2h1.9
					c1.2,0,2.2,0.9,2.2,2.2S778.5,787,777.3,787z M765.8,787h-1.9c-1.2,0-2.2-0.9-2.2-2.2s0.9-2.2,2.2-2.2h1.9
					c1.2,0,2.2,0.9,2.2,2.2S767.1,787,765.8,787z M754.4,787h-1.9c-1.2,0-2.2-0.9-2.2-2.2s0.9-2.2,2.2-2.2h1.9
					c1.2,0,2.2,0.9,2.2,2.2S755.6,787,754.4,787z M743,787h-1.9c-1.2,0-2.2-0.9-2.2-2.2s0.9-2.2,2.2-2.2h1.9c1.2,0,2.2,0.9,2.2,2.2
					S744.2,787,743,787z M731.5,787h-1.9c-1.2,0-2.2-0.9-2.2-2.2s0.9-2.2,2.2-2.2h1.9c1.2,0,2.2,0.9,2.2,2.2S732.8,787,731.5,787z
					 M720.1,787h-1.9c-1.2,0-2.2-0.9-2.2-2.2s0.9-2.2,2.2-2.2h1.9c1.2,0,2.2,0.9,2.2,2.2C722.3,786,721.3,787,720.1,787z M708.7,787
					h-1.9c-1.2,0-2.2-0.9-2.2-2.2s0.9-2.2,2.2-2.2h1.9c1.2,0,2.2,0.9,2.2,2.2S709.9,787,708.7,787z M697.2,787h-1.9
					c-1.2,0-2.2-0.9-2.2-2.2s0.9-2.2,2.2-2.2h1.9c1.2,0,2.2,0.9,2.2,2.2S698.5,787,697.2,787z M685.8,787h-1.9
					c-1.2,0-2.2-0.9-2.2-2.2s0.9-2.2,2.2-2.2h1.9c1.2,0,2.2,0.9,2.2,2.2S687,787,685.8,787z M674.4,787h-1.9c-1.2,0-2.2-0.9-2.2-2.2
					s0.9-2.2,2.2-2.2h1.9c1.2,0,2.2,0.9,2.2,2.2S675.6,787,674.4,787z M662.9,787h-1.9c-1.2,0-2.2-0.9-2.2-2.2s0.9-2.2,2.2-2.2h1.9
					c1.2,0,2.2,0.9,2.2,2.2C665.1,786,664.2,787,662.9,787z M651.5,787h-1.9c-1.2,0-2.2-0.9-2.2-2.2s0.9-2.2,2.2-2.2h1.9
					c1.2,0,2.2,0.9,2.2,2.2S652.7,787,651.5,787z M640.1,787h-1.9c-1.2,0-2.2-0.9-2.2-2.2s0.9-2.2,2.2-2.2h1.9
					c1.2,0,2.2,0.9,2.2,2.2S641.3,787,640.1,787z M628.7,787h-1.9c-1.2,0-2.2-0.9-2.2-2.2s0.9-2.2,2.2-2.2h1.9
					c1.2,0,2.2,0.9,2.2,2.2S629.9,787,628.7,787z M617.2,787h-1.9c-1.2,0-2.2-0.9-2.2-2.2s0.9-2.2,2.2-2.2h1.9
					c1.2,0,2.2,0.9,2.2,2.2S618.5,787,617.2,787z M605.8,787h-1.9c-1.2,0-2.2-0.9-2.2-2.2s0.9-2.2,2.2-2.2h1.9
					c1.2,0,2.2,0.9,2.2,2.2C608,786,607,787,605.8,787z M594.4,787h-1.9c-1.2,0-2.2-0.9-2.2-2.2s0.9-2.2,2.2-2.2h1.9
					c1.2,0,2.2,0.9,2.2,2.2S595.6,787,594.4,787z M582.9,787H581c-1.2,0-2.2-0.9-2.2-2.2s0.9-2.2,2.2-2.2h1.9c1.2,0,2.2,0.9,2.2,2.2
					S584.2,787,582.9,787z M571.5,787h-1.9c-1.2,0-2.2-0.9-2.2-2.2s0.9-2.2,2.2-2.2h1.9c1.2,0,2.2,0.9,2.2,2.2S572.7,787,571.5,787z
					 M560.1,787h-1.9c-1.2,0-2.2-0.9-2.2-2.2s0.9-2.2,2.2-2.2h1.9c1.2,0,2.2,0.9,2.2,2.2S561.3,787,560.1,787z M548.6,787h-1.9
					c-1.2,0-2.2-0.9-2.2-2.2s0.9-2.2,2.2-2.2h1.9c1.2,0,2.2,0.9,2.2,2.2C550.8,786,549.9,787,548.6,787z M537.2,787h-1.9
					c-1.2,0-2.2-0.9-2.2-2.2s0.9-2.2,2.2-2.2h1.9c1.2,0,2.2,0.9,2.2,2.2S538.4,787,537.2,787z M525.8,787h-1.9
					c-1.2,0-2.2-0.9-2.2-2.2s0.9-2.2,2.2-2.2h1.9c1.2,0,2.2,0.9,2.2,2.2S527,787,525.8,787z M514.3,787h-1.9c-1.2,0-2.2-0.9-2.2-2.2
					s0.9-2.2,2.2-2.2h1.9c1.2,0,2.2,0.9,2.2,2.2S515.6,787,514.3,787z M502.9,787H501c-1.2,0-2.2-0.9-2.2-2.2s0.9-2.2,2.2-2.2h1.9
					c1.2,0,2.2,0.9,2.2,2.2S504.1,787,502.9,787z M491.5,787h-1.9c-1.2,0-2.2-0.9-2.2-2.2s0.9-2.2,2.2-2.2h1.9
					c1.2,0,2.2,0.9,2.2,2.2S492.7,787,491.5,787z M480,787h-1.9c-1.2,0-2.2-0.9-2.2-2.2s0.9-2.2,2.2-2.2h1.9c1.2,0,2.2,0.9,2.2,2.2
					S481.3,787,480,787z"/>
			</g>
			<g>
				<path class="st1" d="M356.6,709.9h-1.9c-1.2,0-2.2-0.9-2.2-2.2c0-1.2,0.9-2.2,2.2-2.2h1.9c1.2,0,2.2,0.9,2.2,2.2
					C358.7,708.8,357.8,709.9,356.6,709.9z M345.1,709.9h-1.9c-1.2,0-2.2-0.9-2.2-2.2c0-1.2,0.9-2.2,2.2-2.2h1.9
					c1.2,0,2.2,0.9,2.2,2.2C347.3,708.8,346.4,709.9,345.1,709.9z M333.7,709.9h-1.9c-1.2,0-2.2-0.9-2.2-2.2c0-1.2,0.9-2.2,2.2-2.2
					h1.9c1.2,0,2.2,0.9,2.2,2.2C335.9,708.8,334.9,709.9,333.7,709.9z M322.3,709.9h-1.9c-1.2,0-2.2-0.9-2.2-2.2
					c0-1.2,0.9-2.2,2.2-2.2h1.9c1.2,0,2.2,0.9,2.2,2.2C324.5,708.8,323.5,709.9,322.3,709.9z M310.8,709.9H309
					c-1.2,0-2.2-0.9-2.2-2.2c0-1.2,0.9-2.2,2.2-2.2h1.9c1.2,0,2.2,0.9,2.2,2.2C313,708.8,312.1,709.9,310.8,709.9z M299.4,709.9
					h-1.9c-1.2,0-2.2-0.9-2.2-2.2c0-1.2,0.9-2.2,2.2-2.2h1.9c1.2,0,2.2,0.9,2.2,2.2C301.6,708.8,300.6,709.9,299.4,709.9z
					 M288,709.9h-1.9c-1.2,0-2.2-0.9-2.2-2.2c0-1.2,0.9-2.2,2.2-2.2h1.9c1.2,0,2.2,0.9,2.2,2.2C290.2,708.8,289.2,709.9,288,709.9z
					 M276.6,709.9h-0.9c-1.2,0-2.2-0.9-2.2-2.2c0-1.2,0.9-2.2,2.2-2.2h0.9c1.2,0,2.2,0.9,2.2,2.2
					C278.7,708.8,277.8,709.9,276.6,709.9z"/>
			</g>
			<g>
				<path class="st1" d="M879.3,653.2c-1.2,0-2.2-0.9-2.2-2.2v-1.9c0-1.2,0.9-2.2,2.2-2.2s2.2,0.9,2.2,2.2v1.9
					C881.5,652.3,880.5,653.2,879.3,653.2z M879.3,641.8c-1.2,0-2.2-0.9-2.2-2.2v-1.9c0-1.2,0.9-2.2,2.2-2.2s2.2,0.9,2.2,2.2v1.9
					C881.5,640.8,880.5,641.8,879.3,641.8z M879.3,630.3c-1.2,0-2.2-0.9-2.2-2.2v-1.9c0-1.2,0.9-2.2,2.2-2.2s2.2,0.9,2.2,2.2v1.9
					C881.5,629.4,880.5,630.3,879.3,630.3z M879.3,618.9c-1.2,0-2.2-0.9-2.2-2.2v-1.9c0-1.2,0.9-2.2,2.2-2.2s2.2,0.9,2.2,2.2v1.9
					C881.5,618,880.5,618.9,879.3,618.9z M879.3,607.5c-1.2,0-2.2-0.9-2.2-2.2v-1.9c0-1.2,0.9-2.2,2.2-2.2s2.2,0.9,2.2,2.2v1.9
					C881.5,606.5,880.5,607.5,879.3,607.5z M963.7,598.5h-1.9c-1.2,0-2.2-0.9-2.2-2.2s0.9-2.2,2.2-2.2h1.9c1.2,0,2.2,0.9,2.2,2.2
					S964.9,598.5,963.7,598.5z M952.2,598.5h-1.9c-1.2,0-2.2-0.9-2.2-2.2s0.9-2.2,2.2-2.2h1.9c1.2,0,2.2,0.9,2.2,2.2
					S953.4,598.5,952.2,598.5z M940.8,598.5h-1.9c-1.2,0-2.2-0.9-2.2-2.2s0.9-2.2,2.2-2.2h1.9c1.2,0,2.2,0.9,2.2,2.2
					S942,598.5,940.8,598.5z M929.4,598.5h-1.9c-1.2,0-2.2-0.9-2.2-2.2s0.9-2.2,2.2-2.2h1.9c1.2,0,2.2,0.9,2.2,2.2
					C931.5,597.6,930.6,598.5,929.4,598.5z M917.9,598.5H916c-1.2,0-2.2-0.9-2.2-2.2s0.9-2.2,2.2-2.2h1.9c1.2,0,2.2,0.9,2.2,2.2
					S919.2,598.5,917.9,598.5z M906.5,598.5h-1.9c-1.2,0-2.2-0.9-2.2-2.2s0.9-2.2,2.2-2.2h1.9c1.2,0,2.2,0.9,2.2,2.2
					S907.7,598.5,906.5,598.5z M895.1,598.5h-1.9c-1.2,0-2.2-0.9-2.2-2.2s0.9-2.2,2.2-2.2h1.9c1.2,0,2.2,0.9,2.2,2.2
					S896.3,598.5,895.1,598.5z M883.6,598.5h-1.9c-1.2,0-2.2-0.9-2.2-2.2s0.9-2.2,2.2-2.2h1.9c1.2,0,2.2,0.9,2.2,2.2
					S884.9,598.5,883.6,598.5z"/>
			</g>
			<g>
				<path class="st1" d="M829.1,612.2h-1.9c-1.2,0-2.2-0.9-2.2-2.2c0-1.2,0.9-2.2,2.2-2.2h1.9c1.2,0,2.2,0.9,2.2,2.2
					C831.3,611.3,830.3,612.2,829.1,612.2z M817.7,612.2h-1.9c-1.2,0-2.2-0.9-2.2-2.2c0-1.2,0.9-2.2,2.2-2.2h1.9
					c1.2,0,2.2,0.9,2.2,2.2C819.9,611.3,818.8,612.2,817.7,612.2z M806.3,612.2h-1.9c-1.2,0-2.2-0.9-2.2-2.2c0-1.2,0.9-2.2,2.2-2.2
					h1.9c1.2,0,2.2,0.9,2.2,2.2C808.4,611.3,807.4,612.2,806.3,612.2z M794.8,612.2h-1.9c-1.2,0-2.2-0.9-2.2-2.2
					c0-1.2,0.9-2.2,2.2-2.2h1.9c1.2,0,2.2,0.9,2.2,2.2C797,611.3,796,612.2,794.8,612.2z M783.4,612.2h-1.9c-1.2,0-2.2-0.9-2.2-2.2
					c0-1.2,0.9-2.2,2.2-2.2h1.9c1.2,0,2.2,0.9,2.2,2.2C785.6,611.3,784.5,612.2,783.4,612.2z M772,612.2h-1.9
					c-1.2,0-2.2-0.9-2.2-2.2c0-1.2,0.9-2.2,2.2-2.2h1.9c1.2,0,2.2,0.9,2.2,2.2C774.1,611.3,773.1,612.2,772,612.2z M760.5,612.2
					h-1.9c-1.2,0-2.2-0.9-2.2-2.2c0-1.2,0.9-2.2,2.2-2.2h1.9c1.2,0,2.2,0.9,2.2,2.2C762.7,611.3,761.7,612.2,760.5,612.2z
					 M749.1,612.2h-1.9c-1.2,0-2.2-0.9-2.2-2.2c0-1.2,0.9-2.2,2.2-2.2h1.9c1.2,0,2.2,0.9,2.2,2.2
					C751.3,611.3,750.2,612.2,749.1,612.2z M737.7,612.2h-1.9c-1.2,0-2.2-0.9-2.2-2.2c0-1.2,0.9-2.2,2.2-2.2h1.9
					c1.2,0,2.2,0.9,2.2,2.2C739.8,611.3,738.8,612.2,737.7,612.2z M726.2,612.2h-1.9c-1.2,0-2.2-0.9-2.2-2.2c0-1.2,0.9-2.2,2.2-2.2
					h1.9c1.2,0,2.2,0.9,2.2,2.2C728.4,611.3,727.4,612.2,726.2,612.2z M714.8,612.2h-1.9c-1.2,0-2.2-0.9-2.2-2.2
					c0-1.2,0.9-2.2,2.2-2.2h1.9c1.2,0,2.2,0.9,2.2,2.2C717,611.3,715.9,612.2,714.8,612.2z M703.4,612.2h-1.9
					c-1.2,0-2.2-0.9-2.2-2.2c0-1.2,0.9-2.2,2.2-2.2h1.9c1.2,0,2.2,0.9,2.2,2.2C705.6,611.3,704.5,612.2,703.4,612.2z M692,612.2
					h-1.9c-1.2,0-2.2-0.9-2.2-2.2c0-1.2,0.9-2.2,2.2-2.2h1.9c1.2,0,2.2,0.9,2.2,2.2C694.1,611.3,693.1,612.2,692,612.2z
					 M680.5,612.2h-1.9c-1.2,0-2.2-0.9-2.2-2.2c0-1.2,0.9-2.2,2.2-2.2h1.9c1.2,0,2.2,0.9,2.2,2.2
					C682.7,611.3,681.7,612.2,680.5,612.2z M669.1,612.2h-1.9c-1.2,0-2.2-0.9-2.2-2.2c0-1.2,0.9-2.2,2.2-2.2h1.9
					c1.2,0,2.2,0.9,2.2,2.2C671.3,611.3,670.3,612.2,669.1,612.2z M657.7,612.2h-1.9c-1.2,0-2.2-0.9-2.2-2.2c0-1.2,0.9-2.2,2.2-2.2
					h1.9c1.2,0,2.2,0.9,2.2,2.2C659.8,611.3,658.9,612.2,657.7,612.2z M646.2,612.2h-1.9c-1.2,0-2.2-0.9-2.2-2.2
					c0-1.2,0.9-2.2,2.2-2.2h1.9c1.2,0,2.2,0.9,2.2,2.2C648.4,611.3,647.5,612.2,646.2,612.2z M634.8,612.2h-1.9
					c-1.2,0-2.2-0.9-2.2-2.2c0-1.2,0.9-2.2,2.2-2.2h1.9c1.2,0,2.2,0.9,2.2,2.2C637,611.3,636,612.2,634.8,612.2z M623.4,612.2h-1.9
					c-1.2,0-2.2-0.9-2.2-2.2c0-1.2,0.9-2.2,2.2-2.2h1.9c1.2,0,2.2,0.9,2.2,2.2C625.5,611.3,624.6,612.2,623.4,612.2z M611.9,612.2
					H610c-1.2,0-2.2-0.9-2.2-2.2c0-1.2,0.9-2.2,2.2-2.2h1.9c1.2,0,2.2,0.9,2.2,2.2C614.1,611.3,613.2,612.2,611.9,612.2z"/>
			</g>
			<g>
				<path class="st1" d="M422.2,787.9h-1.9c-1.2,0-2.2-0.9-2.2-2.2c0-1.2,0.9-2.2,2.2-2.2h1.9c1.2,0,2.2,0.9,2.2,2.2
					C424.4,787,423.5,787.9,422.2,787.9z M410.8,787.9h-1.9c-1.2,0-2.2-0.9-2.2-2.2c0-1.2,0.9-2.2,2.2-2.2h1.9
					c1.2,0,2.2,0.9,2.2,2.2C413,787,412,787.9,410.8,787.9z M399.4,787.9h-1.9c-1.2,0-2.2-0.9-2.2-2.2c0-1.2,0.9-2.2,2.2-2.2h1.9
					c1.2,0,2.2,0.9,2.2,2.2C401.5,787,400.6,787.9,399.4,787.9z M387.9,787.9H386c-1.2,0-2.2-0.9-2.2-2.2c0-1.2,0.9-2.2,2.2-2.2h1.9
					c1.2,0,2.2,0.9,2.2,2.2C390.1,787,389.2,787.9,387.9,787.9z M376.5,787.9h-1.9c-1.2,0-2.2-0.9-2.2-2.2c0-1.2,0.9-2.2,2.2-2.2
					h1.9c1.2,0,2.2,0.9,2.2,2.2C378.7,787,377.7,787.9,376.5,787.9z M365.1,787.9h-1.9c-1.2,0-2.2-0.9-2.2-2.2
					c0-1.2,0.9-2.2,2.2-2.2h1.9c1.2,0,2.2,0.9,2.2,2.2C367.2,787,366.3,787.9,365.1,787.9z M353.6,787.9h-1.9
					c-1.2,0-2.2-0.9-2.2-2.2c0-1.2,0.9-2.2,2.2-2.2h1.9c1.2,0,2.2,0.9,2.2,2.2C355.8,787,354.9,787.9,353.6,787.9z M342.2,787.9
					h-1.9c-1.2,0-2.2-0.9-2.2-2.2c0-1.2,0.9-2.2,2.2-2.2h1.9c1.2,0,2.2,0.9,2.2,2.2C344.4,787,343.4,787.9,342.2,787.9z
					 M330.8,787.9h-1.9c-1.2,0-2.2-0.9-2.2-2.2c0-1.2,0.9-2.2,2.2-2.2h1.9c1.2,0,2.2,0.9,2.2,2.2C333,787,332,787.9,330.8,787.9z
					 M319.4,787.9h-1.9c-1.2,0-2.2-0.9-2.2-2.2c0-1.2,0.9-2.2,2.2-2.2h1.9c1.2,0,2.2,0.9,2.2,2.2C321.5,787,320.6,787.9,319.4,787.9
					z M307.9,787.9H306c-1.2,0-2.2-0.9-2.2-2.2c0-1.2,0.9-2.2,2.2-2.2h1.9c1.2,0,2.2,0.9,2.2,2.2C310.1,787,309.1,787.9,307.9,787.9
					z M296.5,787.9h-1.9c-1.2,0-2.2-0.9-2.2-2.2c0-1.2,0.9-2.2,2.2-2.2h1.9c1.2,0,2.2,0.9,2.2,2.2
					C298.7,787,297.7,787.9,296.5,787.9z M285.1,787.9h-1.9c-1.2,0-2.2-0.9-2.2-2.2c0-1.2,0.9-2.2,2.2-2.2h1.9
					c1.2,0,2.2,0.9,2.2,2.2C287.2,787,286.3,787.9,285.1,787.9z"/>
			</g>
			<g>
				<path class="st1" d="M642.4,913.9h-1.9c-1.2,0-2.2-0.9-2.2-2.2s0.9-2.2,2.2-2.2h1.9c1.2,0,2.2,0.9,2.2,2.2
					S643.6,913.9,642.4,913.9z M631,913.9h-1.9c-1.2,0-2.2-0.9-2.2-2.2s0.9-2.2,2.2-2.2h1.9c1.2,0,2.2,0.9,2.2,2.2
					S632.1,913.9,631,913.9z M619.6,913.9h-1.9c-1.2,0-2.2-0.9-2.2-2.2s0.9-2.2,2.2-2.2h1.9c1.2,0,2.2,0.9,2.2,2.2
					S620.7,913.9,619.6,913.9z M608.2,913.9h-1.9c-1.2,0-2.2-0.9-2.2-2.2s0.9-2.2,2.2-2.2h1.9c1.2,0,2.2,0.9,2.2,2.2
					S609.3,913.9,608.2,913.9z M596.7,913.9h-1.9c-1.2,0-2.2-0.9-2.2-2.2s0.9-2.2,2.2-2.2h1.9c1.2,0,2.2,0.9,2.2,2.2
					S597.9,913.9,596.7,913.9z M585.3,913.9h-1.9c-1.2,0-2.2-0.9-2.2-2.2s0.9-2.2,2.2-2.2h1.9c1.2,0,2.2,0.9,2.2,2.2
					S586.4,913.9,585.3,913.9z M573.9,913.9H572c-1.2,0-2.2-0.9-2.2-2.2s0.9-2.2,2.2-2.2h1.9c1.2,0,2.2,0.9,2.2,2.2
					S575,913.9,573.9,913.9z M562.4,913.9h-1.9c-1.2,0-2.2-0.9-2.2-2.2s0.9-2.2,2.2-2.2h1.9c1.2,0,2.2,0.9,2.2,2.2
					S563.6,913.9,562.4,913.9z M551,913.9h-1.9c-1.2,0-2.2-0.9-2.2-2.2s0.9-2.2,2.2-2.2h1.9c1.2,0,2.2,0.9,2.2,2.2
					S552.1,913.9,551,913.9z M539.6,913.9h-1.9c-1.2,0-2.2-0.9-2.2-2.2s0.9-2.2,2.2-2.2h1.9c1.2,0,2.2,0.9,2.2,2.2
					S540.7,913.9,539.6,913.9z"/>
			</g>
			<g>
				<path class="st1" d="M639.3,219.8c-1.2,0-2.3-0.9-2.5-2.1c-0.3-1.4,0.6-2.7,2-3c0.2,0,0.4-0.1,0.5-0.1c1.2,0,2.3,0.9,2.5,2.1
					c0.3,1.4-0.6,2.7-2,3C639.7,219.8,639.5,219.8,639.3,219.8L639.3,219.8z"/>
			</g>
			<g>
				<path class="st1" d="M495.5,470.5c-1.2,0-2.3-0.9-2.5-2.1c-0.3-1.4,0.6-2.7,2-3c0.2,0,0.4-0.1,0.5-0.1c1.2,0,2.3,0.9,2.5,2.1
					c0.1,0.7,0,1.3-0.4,1.9c-0.4,0.6-0.9,0.9-1.6,1.1C495.9,470.5,495.7,470.5,495.5,470.5z"/>
			</g>
			<g>
				<path class="st1" d="M386.7,583.7c-1.2,0-2.3-0.9-2.5-2.1c-0.1-0.7,0-1.3,0.4-1.9c0.4-0.6,0.9-0.9,1.6-1.1
					c0.2,0,0.4-0.1,0.5-0.1c1.2,0,2.3,0.9,2.5,2.1c0.1,0.7,0,1.3-0.4,1.9c-0.4,0.6-0.9,0.9-1.6,1.1
					C387,583.7,386.8,583.7,386.7,583.7L386.7,583.7z"/>
			</g>
			<g>
				<path class="st1" d="M265,836.7c-1.2,0-2.3-0.9-2.5-2.1c-0.3-1.4,0.6-2.7,2-3c0.2,0,0.4-0.1,0.5-0.1c1.2,0,2.3,0.9,2.5,2.1
					c0.1,0.7,0,1.3-0.4,1.9c-0.4,0.6-0.9,0.9-1.6,1.1C265.4,836.7,265.2,836.7,265,836.7L265,836.7z"/>
			</g>
			<g>
				<path class="st1" d="M302.2,855.3c-1.2,0-2.3-0.9-2.5-2.1c-0.1-0.7,0-1.3,0.4-1.9c0.4-0.6,0.9-0.9,1.6-1.1
					c0.2,0,0.4-0.1,0.5-0.1c1.2,0,2.3,0.9,2.5,2.1c0.1,0.7,0,1.3-0.4,1.9c-0.4,0.6-0.9,0.9-1.6,1.1
					C302.4,855.3,302.3,855.3,302.2,855.3L302.2,855.3z"/>
			</g>
			<g>
				<path class="st1" d="M273.6,871.1c-1.2,0-2.3-0.9-2.5-2.1c-0.1-0.7,0-1.3,0.4-1.9c0.4-0.6,0.9-0.9,1.6-1.1
					c0.2,0,0.4-0.1,0.5-0.1c1.2,0,2.3,0.9,2.5,2.1c0.3,1.4-0.6,2.7-2,3C274,871,273.8,871.1,273.6,871.1z"/>
			</g>
			<g>
				<path class="st1" d="M983.1,860.3c-0.3,0-0.6,0-0.8-0.1c-1.3-0.5-2.1-1.9-1.6-3.2c0.4-1,1.3-1.8,2.5-1.8c0.3,0,0.6,0,0.8,0.1
					c1.3,0.5,2.1,1.9,1.6,3.2C985.2,859.5,984.2,860.3,983.1,860.3L983.1,860.3z"/>
			</g>
			<g>
				<path class="st1" d="M1017.4,837c-0.3,0-0.6,0-0.8-0.1c-0.7-0.2-1.1-0.7-1.5-1.2c-0.3-0.6-0.4-1.3-0.2-2c0.4-1,1.3-1.8,2.5-1.8
					c0.3,0,0.6,0,0.8,0.1c0.7,0.2,1.1,0.7,1.5,1.2c0.3,0.6,0.4,1.3,0.2,2C1019.5,836.3,1018.5,837,1017.4,837L1017.4,837z"/>
			</g>
			<g>
				<path class="st1" d="M1015,871.1c-0.3,0-0.6,0-0.8-0.1c-1.3-0.5-2.1-1.9-1.6-3.2c0.4-1,1.3-1.8,2.5-1.8c0.3,0,0.6,0,0.8,0.1
					c1.3,0.5,2.1,1.9,1.6,3.2C1017.1,870.4,1016.1,871.1,1015,871.1L1015,871.1z"/>
			</g>
			<g>
				<path class="st1" d="M306.2,956.6c-1.2,0-2.3-0.9-2.5-2.1c-0.3-1.4,0.6-2.7,2-3c0.2,0,0.4-0.1,0.5-0.1c1.2,0,2.3,0.9,2.5,2.1
					c0.1,0.7,0,1.3-0.4,1.9c-0.4,0.6-0.9,0.9-1.6,1.1C306.5,956.6,306.3,956.6,306.2,956.6L306.2,956.6z"/>
			</g>
			<g>
				<path class="st1" d="M971,979.3c-1.2,0-2.3-0.9-2.5-2.1c-0.1-0.7,0-1.3,0.4-1.9c0.4-0.6,0.9-0.9,1.6-1.1c0.2,0,0.4-0.1,0.5-0.1
					c1.2,0,2.3,0.9,2.5,2.1c0.1,0.7,0,1.3-0.4,1.9c-0.4,0.6-0.9,0.9-1.6,1.1C971.3,979.3,971.1,979.3,971,979.3z"/>
			</g>
			<g>
				<path class="st1" d="M880,402.5c-1.2,0-2.3-0.9-2.5-2.1c-0.3-1.4,0.6-2.7,2-3c0.2,0,0.4-0.1,0.5-0.1c1.2,0,2.3,0.9,2.5,2.1
					c0.1,0.7,0,1.3-0.4,1.9s-0.9,0.9-1.6,1.1C880.4,402.4,880.2,402.5,880,402.5L880,402.5z"/>
			</g>
			<g>
				<path class="st1" d="M880,418.8c-1.2,0-2.3-0.9-2.5-2.1c-0.3-1.4,0.6-2.7,2-3c0.2,0,0.4-0.1,0.5-0.1c1.2,0,2.3,0.9,2.5,2.1
					c0.3,1.4-0.6,2.7-2,3C880.4,418.8,880.2,418.8,880,418.8z"/>
			</g>
			<g>
				<path class="st1" d="M880,470.2c-1.2,0-2.3-0.9-2.5-2.1c-0.3-1.4,0.6-2.7,2-3c0.2,0,0.4-0.1,0.5-0.1c1.2,0,2.3,0.9,2.5,2.1
					c0.3,1.4-0.6,2.7-2,3C880.4,470.2,880.2,470.2,880,470.2z"/>
			</g>
			<g>
				<path class="st1" d="M880,490c-1.2,0-2.3-0.9-2.5-2.1c-0.3-1.4,0.6-2.7,2-3c0.2,0,0.4-0.1,0.5-0.1c1.2,0,2.3,0.9,2.5,2.1
					c0.3,1.4-0.6,2.7-2,3C880.4,490,880.2,490,880,490z"/>
			</g>
			<g>
				<path class="st1" d="M880,509.8c-1.2,0-2.3-0.9-2.5-2.1c-0.3-1.4,0.6-2.7,2-3c0.2,0,0.4-0.1,0.5-0.1c1.2,0,2.3,0.9,2.5,2.1
					c0.3,1.4-0.6,2.7-2,3C880.4,509.8,880.2,509.8,880,509.8z"/>
			</g>
			<g>
				<path class="st1" d="M797.1,489.3c-1.2,0-2.3-0.9-2.5-2.1c-0.3-1.4,0.6-2.7,2-3c0.2,0,0.4-0.1,0.5-0.1c1.2,0,2.3,0.9,2.5,2.1
					c0.1,0.7,0,1.3-0.4,1.9c-0.4,0.6-0.9,0.9-1.6,1.1C797.4,489.3,797.3,489.3,797.1,489.3z"/>
			</g>
			<g>
				<path class="st1" d="M795,588.3c-1.2,0-2.3-0.9-2.5-2.1c-0.1-0.7,0-1.3,0.4-1.9c0.4-0.6,0.9-0.9,1.6-1.1c0.2,0,0.4-0.1,0.5-0.1
					c1.2,0,2.3,0.9,2.5,2.1c0.3,1.4-0.6,2.7-2,3C795.4,588.3,795.2,588.3,795,588.3z"/>
			</g>
		</g>
	</g>
</g>
<g id="Layer_2">
	<g>
		<path class="st2" d="M327.2,620.2h-19.3v-11.4h52.5v11.4h-19.3v48.8h-13.9V620.2z"/>
		<path class="st2" d="M414.2,642.6v26.5h-13.4v-24.4c0-7.5-3.4-10.9-9.4-10.9c-6.5,0-11.1,4-11.1,12.5v22.9h-13.4v-63.8h13.4v22.4
			c3.6-3.6,8.8-5.5,14.7-5.5C406,622.1,414.2,628.5,414.2,642.6z"/>
		<path class="st2" d="M471.9,649.7h-35c1.3,5.8,6.2,9.3,13.2,9.3c4.9,0,8.4-1.5,11.6-4.5l7.1,7.7c-4.3,4.9-10.8,7.5-19.1,7.5
			c-16,0-26.4-10.1-26.4-23.8c0-13.8,10.6-23.8,24.7-23.8c13.6,0,24.1,9.1,24.1,24C472.2,647.2,472,648.6,471.9,649.7z M436.8,641.9
			h22.8c-0.9-5.8-5.3-9.6-11.4-9.6C442.1,632.3,437.7,636,436.8,641.9z"/>
		<path class="st2" d="M583.7,642.6v26.5h-13.4v-24.4c0-7.5-3.4-10.9-8.8-10.9c-6,0-10.2,3.9-10.2,12.1v23.2h-13.4v-24.4
			c0-7.5-3.2-10.9-8.8-10.9c-5.9,0-10.1,3.9-10.1,12.1v23.2h-13.4v-46.3h12.8v5.3c3.4-4,8.6-6,14.5-6c6.5,0,12,2.5,15.2,7.6
			c3.7-4.7,9.7-7.6,16.7-7.6C575.7,622.1,583.7,628.5,583.7,642.6z"/>
		<path class="st2" d="M592.8,646c0-13.9,10.8-23.8,25.5-23.8c14.7,0,25.4,9.9,25.4,23.8s-10.7,23.8-25.4,23.8
			C603.5,669.8,592.8,659.9,592.8,646z M630,646c0-8-5.1-12.8-11.8-12.8c-6.7,0-11.9,4.8-11.9,12.8s5.2,12.8,11.9,12.8
			C624.9,658.8,630,654,630,646z"/>
		<path class="st2" d="M681.3,622.1v12.4c-1.1-0.1-2-0.2-3-0.2c-7.4,0-12.3,4-12.3,12.9v21.8h-13.4v-46.3h12.8v6.1
			C668.6,624.5,674.1,622.1,681.3,622.1z"/>
		<path class="st2" d="M733.9,649.7h-35c1.3,5.8,6.2,9.3,13.2,9.3c4.9,0,8.4-1.5,11.6-4.5l7.1,7.7c-4.3,4.9-10.8,7.5-19.1,7.5
			c-16,0-26.4-10.1-26.4-23.8c0-13.8,10.6-23.8,24.7-23.8c13.6,0,24.1,9.1,24.1,24C734.2,647.2,734,648.6,733.9,649.7z M698.7,641.9
			h22.8c-0.9-5.8-5.3-9.6-11.4-9.6C704.1,632.3,699.7,636,698.7,641.9z"/>
		<path class="st2" d="M465.3,770.1c-2.8,2-6.8,2.9-10.9,2.9c-10.9,0-17.3-5.6-17.3-16.6v-19H430v-10.3h7.1v-11.3h13.4v11.3h11.5
			v10.3h-11.5v18.8c0,4,2.1,6.1,5.8,6.1c2,0,4-0.6,5.4-1.7L465.3,770.1z"/>
		<path class="st2" d="M520.2,745.8v26.5h-13.4v-24.4c0-7.5-3.4-10.9-9.4-10.9c-6.5,0-11.1,4-11.1,12.5v22.9h-13.4v-63.8h13.4v22.4
			c3.6-3.6,8.8-5.5,14.7-5.5C511.9,725.3,520.2,731.7,520.2,745.8z"/>
		<path class="st2" d="M577.9,752.9h-35c1.3,5.8,6.2,9.3,13.2,9.3c4.9,0,8.4-1.5,11.6-4.5l7.1,7.7c-4.3,4.9-10.8,7.5-19.1,7.5
			c-16,0-26.4-10.1-26.4-23.8c0-13.8,10.6-23.8,24.7-23.8c13.6,0,24.1,9.1,24.1,24C578.2,750.4,578,751.8,577.9,752.9z M542.7,745.1
			h22.8c-0.9-5.8-5.3-9.6-11.4-9.6C548.1,735.5,543.7,739.2,542.7,745.1z"/>
		<path class="st2" d="M689.6,745.8v26.5h-13.4v-24.4c0-7.5-3.4-10.9-8.8-10.9c-6,0-10.2,3.9-10.2,12.1v23.2h-13.4v-24.4
			c0-7.5-3.2-10.9-8.8-10.9c-5.9,0-10.1,3.9-10.1,12.1v23.2h-13.4V726h12.8v5.3c3.4-4,8.6-6,14.5-6c6.5,0,12,2.5,15.2,7.6
			c3.7-4.7,9.7-7.6,16.7-7.6C681.7,725.3,689.6,731.7,689.6,745.8z"/>
		<path class="st2" d="M747.2,752.9h-35c1.3,5.8,6.2,9.3,13.2,9.3c4.9,0,8.4-1.5,11.6-4.5l7.1,7.7c-4.3,4.9-10.8,7.5-19.1,7.5
			c-16,0-26.4-10.1-26.4-23.8c0-13.8,10.6-23.8,24.7-23.8c13.6,0,24.1,9.1,24.1,24C747.5,750.4,747.3,751.8,747.2,752.9z
			 M712.1,745.1h22.8c-0.9-5.8-5.3-9.6-11.4-9.6C717.4,735.5,713,739.2,712.1,745.1z"/>
		<path class="st2" d="M785.2,725.3v12.4c-1.1-0.1-2-0.2-3-0.2c-7.4,0-12.3,4-12.3,12.9v21.8h-13.4V726h12.8v6.1
			C772.5,727.7,778,725.3,785.2,725.3z"/>
		<path class="st2" d="M821.9,725.3v12.4c-1.1-0.1-2-0.2-3-0.2c-7.4,0-12.3,4-12.3,12.9v21.8h-13.4V726H806v6.1
			C809.2,727.7,814.7,725.3,821.9,725.3z"/>
		<path class="st2" d="M829.9,726h13.4v46.3h-13.4V726z"/>
		<path class="st2" d="M900.8,752.9h-35c1.3,5.8,6.2,9.3,13.2,9.3c4.9,0,8.4-1.5,11.6-4.5l7.1,7.7c-4.3,4.9-10.8,7.5-19.1,7.5
			c-16,0-26.4-10.1-26.4-23.8c0-13.8,10.6-23.8,24.7-23.8c13.6,0,24.1,9.1,24.1,24C901.1,750.4,900.9,751.8,900.8,752.9z
			 M865.7,745.1h22.8c-0.9-5.8-5.3-9.6-11.4-9.6C871,735.5,866.6,739.2,865.7,745.1z"/>
		<path class="st2" d="M938.8,725.3v12.4c-1.1-0.1-2-0.2-3-0.2c-7.4,0-12.3,4-12.3,12.9v21.8H910V726h12.8v6.1
			C926.1,727.7,931.6,725.3,938.8,725.3z"/>
		<path class="st2" d="M945.1,765.2c0-4.4,3.4-7.7,8.3-7.7c4.8,0,8.3,3.3,8.3,7.7c0,4.3-3.4,7.8-8.3,7.8
			C948.6,773,945.1,769.5,945.1,765.2z M945.4,712.1h16l-2.7,39.3H948L945.4,712.1z"/>
	</g>
	<g>
		<path class="st1" d="M837.2,723.4c-1.2,0-2.2-0.9-2.2-2.2v-41c0-1.2,0.9-2.2,2.2-2.2s2.2,0.9,2.2,2.2v41
			C839.4,722.5,838.5,723.4,837.2,723.4z"/>
	</g>
	<g>
		<path class="st1" d="M857.8,702.9h-41c-1.2,0-2.2-0.9-2.2-2.2c0-1.2,0.9-2.2,2.2-2.2h41c1.2,0,2.2,0.9,2.2,2.2
			C859.9,701.9,859,702.9,857.8,702.9z"/>
	</g>
	<g>
		<path class="st1" d="M851.8,717.4c-0.6,0-1.1-0.2-1.5-0.7l-29-29c-0.9-0.9-0.9-2.2,0-3s2.2-0.9,3,0l29,29c0.9,0.9,0.9,2.2,0,3
			C852.9,717.3,852.4,717.4,851.8,717.4z"/>
	</g>
	<g>
		<path class="st1" d="M822.8,717.4c-0.6,0-1.1-0.2-1.5-0.7c-0.9-0.9-0.9-2.2,0-3l29-29c0.9-0.9,2.2-0.9,3,0c0.9,0.9,0.9,2.2,0,3
			l-29,29C823.9,717.3,823.4,717.4,822.8,717.4z"/>
	</g>
</g>
</svg>
