<?xml version="1.0" encoding="utf-8"?>
<!-- Generator: Adobe Illustrator 22.1.0, SVG Export Plug-In . SVG Version: 6.00 Build 0)  -->
<svg version="1.1" id="Christmas" xmlns="http://www.w3.org/2000/svg" xmlns:xlink="http://www.w3.org/1999/xlink" x="0px" y="0px"
	 viewBox="0 0 1711.4 1024.4" style="enable-background:new 0 0 1711.4 1024.4;" xml:space="preserve">
<style type="text/css">
	.st0{fill:#E2E2E2;}
	.st1{fill:#171A04;}
	.st2{fill:#00A158;}
	.st3{fill:#FF3019;}
	.st4{fill:#FCA203;}
	.st5{fill:#FFFFFF;}
</style>
<g>
	<polygon class="st0" points="840.2,707.4 848.1,723.3 865.7,725.9 852.9,738.3 855.9,755.8 840.2,747.5 824.5,755.8 827.5,738.3 
		814.7,725.9 832.3,723.3 	"/>
	<path class="st0" d="M1357.2,779.8h-326.9c-11.8,0-21.3,9.5-21.3,21.3l0,0c0,11.8,9.5,21.3,21.3,21.3h80.5l43.3-41.8l54.1,41.8h149
		c11.8,0,21.3-9.5,21.3-21.3l0,0C1378.5,789.3,1369,779.8,1357.2,779.8z"/>
	<path class="st1" d="M1357.2,824.7h-149c-0.5,0-1-0.2-1.4-0.5l-52.5-40.6l-41.9,40.4c-0.4,0.4-1,0.6-1.6,0.6h-80.5
		c-13,0-23.6-10.6-23.6-23.6s10.6-23.6,23.6-23.6h326.9c13,0,23.6,10.6,23.6,23.6C1380.9,814.1,1370.3,824.7,1357.2,824.7z
		 M1209,820.1h148.2c10.5,0,19-8.5,19-19s-8.5-19-19-19h-197.5L1209,820.1z M1030.3,782.1c-10.5,0-19,8.5-19,19s8.5,19,19,19h79.6
		l39.4-38H1030.3z"/>
	<path class="st1" d="M1040.8,977.9H772.9c-1.3,0-2.3-1-2.3-2.3v-91.1c0-1.3,1-2.3,2.3-2.3h267.9c1.3,0,2.3,1,2.3,2.3v91.1
		C1043.1,976.8,1042.1,977.9,1040.8,977.9z M775.2,973.3h263.3v-86.5H775.2V973.3z"/>
	<path class="st1" d="M772.9,977.9h-34.6c-1.1,0-2-0.8-2.3-1.9c-2.9-14.5-16.4-25-32.1-25c-5.5,0-10.9,1.3-15.7,3.8
		c-1,0.5-2.2,0.2-2.9-0.6c-4.6-5.7-10.5-10.2-17.3-13c-0.8-0.3-1.4-1.2-1.4-2.1v-0.2c0-0.6,0-1.1,0-1.7c0-29.7,19.1-55.5,47.5-64.2
		c0.5-0.2,1.1-0.1,1.6,0.1c5.7,2.4,11.7,3.7,18,3.7c6.2,0,12.3-1.2,18-3.7c0.5-0.2,1.1-0.2,1.6-0.1c7.6,2.3,14.7,5.9,21,10.8
		c0.6,0.4,0.9,1.1,0.9,1.8v89.8C775.2,976.8,774.2,977.9,772.9,977.9z M740.1,973.3h30.5v-86.4c-5.5-4-11.5-7.1-17.9-9.1
		c-6,2.5-12.4,3.7-19,3.7s-13-1.3-19-3.7c-26,8.3-43.5,32.1-43.5,59.5c0,0.1,0,0.2,0,0.3c6.3,2.9,12,7.1,16.5,12.3
		c5-2.3,10.5-3.5,16.1-3.5C721.1,946.5,736,957.6,740.1,973.3z"/>
	<path class="st1" d="M882.4,450.6c-0.8,0-1.6-0.5-2-1.2c-0.6-1.1-0.1-2.5,1-3.1c39.5-20.5,46.7-49.6,48-58.7
		c-14.2,2-25.8-4.3-26.3-4.6c-0.7-0.4-1.2-1.2-1.2-2s0.5-1.6,1.2-2c31.1-17,45.3-49.5,49.4-60.4c-11.5,1.4-22.2-4.2-22.7-4.4
		c-0.8-0.4-1.3-1.3-1.2-2.2s0.6-1.7,1.5-2c55-20.7,77.2-93.3,77.4-94.1c0.3-1,1.2-1.6,2.2-1.6s1.9,0.7,2.2,1.6
		c0.2,0.7,22.4,73.4,77.4,94.1c0.9,0.3,1.4,1.1,1.5,2s-0.4,1.8-1.2,2.2c-0.5,0.3-11.2,5.8-22.7,4.4c4.1,10.9,18.4,43.4,49.4,60.4
		c0.7,0.4,1.2,1.2,1.2,2s-0.4,1.6-1.2,2c-0.6,0.3-13.9,7.6-29.4,4c-1.2-0.3-2-1.5-1.7-2.8c0.3-1.2,1.5-2,2.8-1.7
		c9.1,2.1,17.5-0.1,22.2-1.8c-36.1-22.2-48.4-62.8-48.9-64.6c-0.2-0.8,0-1.7,0.6-2.3s1.5-0.8,2.3-0.6c6.7,1.9,13.8,0.3,18.4-1.2
		c-44.3-19.8-66.1-70.2-72.7-88.4c-6.6,18.2-28.5,68.6-72.7,88.4c4.6,1.5,11.7,3.1,18.4,1.2c0.8-0.2,1.7,0,2.3,0.6s0.8,1.5,0.6,2.3
		c-0.5,1.8-12.8,42.4-48.9,64.6c4.7,1.8,13.1,3.9,22.2,1.8c0.7-0.2,1.4,0,2,0.4s0.9,1.1,0.9,1.8c0,1.6-1,39.8-50.7,65.6
		C883.1,450.5,882.8,450.6,882.4,450.6z"/>
	<path class="st2" d="M892.6,492c38.3,6,49.1-13.4,49.1-13.4c-55.6-28.9-56-71.9-56-71.9c16.8,3.9,31.4-4.3,31.4-4.3
		c-43.9-24.1-58.6-74.1-58.6-74.1c13.8,3.9,28.4-3.9,28.4-3.9c-64-24-89-108-89-108s-25,84-89.2,108.1c0,0,14.6,7.8,28.4,3.9
		c0,0-14.6,50-58.6,74.1c0,0,14.6,8.2,31.4,4.3c0,0-0.4,43.1-56,71.9c0,0,10.8,19.4,49.1,13.4c0,0-18.5,28-57.7,37
		c0,0,20.5,68.5,152.5,57.5c132,11,152.5-57.5,152.5-57.5C911.2,520,892.6,492,892.6,492z"/>
	<path class="st1" d="M720.9,669.6c-1.3,0-2.3-1-2.3-2.3v-14.6c0-1.3,1-2.3,2.3-2.3s2.3,1,2.3,2.3v14.6
		C723.2,668.6,722.2,669.6,720.9,669.6z"/>
	<path class="st1" d="M720.9,703.6c-1.3,0-2.3-1-2.3-2.3v-14.6c0-1.3,1-2.3,2.3-2.3s2.3,1,2.3,2.3v14.6
		C723.2,702.6,722.2,703.6,720.9,703.6z"/>
	<path class="st1" d="M711.2,679.3h-14.6c-1.3,0-2.3-1-2.3-2.3s1-2.3,2.3-2.3h14.6c1.3,0,2.3,1,2.3,2.3S712.5,679.3,711.2,679.3z"/>
	<path class="st1" d="M745.2,679.3h-14.6c-1.3,0-2.3-1-2.3-2.3s1-2.3,2.3-2.3h14.6c1.3,0,2.3,1,2.3,2.3S746.5,679.3,745.2,679.3z"/>
	<rect x="293.8" y="455.8" class="st3" width="396.7" height="242.2"/>
	<path class="st1" d="M690.5,700.3H293.8c-1.3,0-2.3-1-2.3-2.3V455.8c0-1.3,1-2.3,2.3-2.3h396.7c1.3,0,2.3,1,2.3,2.3V698
		C692.8,699.2,691.8,700.3,690.5,700.3z M296.1,695.6h392.1V458.1H296.1V695.6z"/>
	<path class="st4" d="M660.7,346.3c-22.8,0-41.4-16.2-41.4-36.2s18.5-36.2,41.4-36.2c3.7,0,7.3,0.4,10.7,1.2
		c-9.7-9.2-22.8-14.8-37.2-14.8c-30,0-54.3,24.3-54.3,54.3s24.3,54.3,54.3,54.3c20.2,0,37.9-11.1,47.2-27.5
		C675.3,344.6,668.2,346.3,660.7,346.3z"/>
	<path class="st1" d="M447.2,356.1c-9.6,0-17.4-7.8-17.4-17.4s7.8-17.4,17.4-17.4s17.4,7.8,17.4,17.4
		C464.6,348.3,456.8,356.1,447.2,356.1z M447.2,325.9c-7,0-12.8,5.7-12.8,12.8c0,7,5.7,12.8,12.8,12.8c7,0,12.8-5.7,12.8-12.8
		C460,331.7,454.3,325.9,447.2,325.9z"/>
	<path class="st1" d="M407.6,356.1c-4.4,0-7.9-3.5-7.9-7.9s3.5-7.9,7.9-7.9s7.9,3.5,7.9,7.9C415.5,352.5,412,356.1,407.6,356.1z
		 M407.6,344.9c-1.8,0-3.3,1.5-3.3,3.3s1.5,3.3,3.3,3.3s3.3-1.5,3.3-3.3S409.4,344.9,407.6,344.9z"/>
	<g>
		<path class="st1" d="M519.9,348.4c-1.3,0-2.3-1-2.3-2.3v-53.4c0-1.3,1-2.3,2.3-2.3s2.3,1,2.3,2.3v53.4
			C522.2,347.4,521.2,348.4,519.9,348.4z"/>
	</g>
	<g>
		<path class="st1" d="M496.8,335.1c-0.8,0-1.6-0.4-2-1.2c-0.6-1.1-0.3-2.5,0.8-3.2l46.3-26.7c1.1-0.6,2.5-0.3,3.2,0.8
			c0.6,1.1,0.3,2.5-0.8,3.2l-46.4,26.8C497.6,335,497.2,335.1,496.8,335.1z"/>
	</g>
	<g>
		<path class="st1" d="M543,335.1c-0.4,0-0.8-0.1-1.2-0.3l-46.3-26.7c-1.1-0.6-1.5-2-0.8-3.2c0.6-1.1,2-1.5,3.2-0.8l46.3,26.7
			c1.1,0.6,1.5,2,0.8,3.2C544.6,334.7,543.8,335.1,543,335.1z"/>
	</g>
	<g>
		<path class="st1" d="M808.5,707.8c-1.3,0-2.3-1-2.3-2.3v-40c0-1.3,1-2.3,2.3-2.3s2.3,1,2.3,2.3v40
			C810.8,706.8,809.7,707.8,808.5,707.8z"/>
	</g>
	<g>
		<path class="st1" d="M791.1,697.8c-0.8,0-1.6-0.4-2-1.2c-0.6-1.1-0.3-2.5,0.8-3.1l34.6-20c1.1-0.6,2.5-0.3,3.2,0.8
			c0.6,1.1,0.3,2.5-0.8,3.1l-34.6,20C791.9,697.7,791.5,697.8,791.1,697.8z"/>
	</g>
	<g>
		<path class="st1" d="M825.8,697.8c-0.4,0-0.8-0.1-1.2-0.3l-34.6-20c-1.1-0.6-1.5-2-0.8-3.1c0.6-1.1,2-1.5,3.2-0.8l34.6,20
			c1.1,0.6,1.5,2,0.8,3.1C827.3,697.4,826.6,697.8,825.8,697.8z"/>
	</g>
	<path class="st1" d="M557.5,378.9H306.8c-1.3,0-2.3-1-2.3-2.3s1-2.3,2.3-2.3h250.7c1.3,0,2.3,1,2.3,2.3S558.8,378.9,557.5,378.9z"
		/>
	<path class="st1" d="M274.1,597.7c-1.3,0-2.3-1-2.3-2.3V433.9c0-1.3,1-2.3,2.3-2.3c1.3,0,2.3,1,2.3,2.3v161.5
		C276.4,596.7,275.3,597.7,274.1,597.7z"/>
	<path class="st1" d="M1106.9,728.3c-28.7,0-50.9-6.1-51.2-6.1c-1-0.3-1.7-1.2-1.7-2.2s0.7-1.9,1.7-2.2c45-13.2,60.4-48.7,65-64.3
		c-6.7,3.9-15.8,4.9-17.2,5c-1,0.1-2-0.5-2.4-1.4c-0.4-1-0.1-2,0.7-2.7c0.7-0.5,16.1-13.4-0.5-39.2l-0.4-0.7
		c-18-27.8-26.2-40.5-26.6-62.5c-0.2-12.3,4.2-19.7,8-23.8c0.9-0.9,2.3-1,3.3-0.1c0.9,0.9,1,2.3,0.1,3.3c-3.2,3.4-7,9.8-6.8,20.5
		c0.4,20.7,8.4,33.1,25.9,60.1l0.4,0.7c12.8,19.7,8.3,33.3,3.9,40.1c5.3-1.2,11.8-3.6,13.7-7.6c0.5-1,1.7-1.5,2.8-1.2
		s1.8,1.4,1.6,2.5c-0.1,0.5-8.3,52.7-62.2,72.9c11.1,2.2,32.7,5.5,56.8,3.6c46.2-3.7,79.1-23.8,97.6-59.8c0.3-0.7,1-1.1,1.8-1.2
		c0.4,0,3.9-0.4,7.1,2.7c3,2.9,4.6,7.8,4.7,14.6c10.6-10.1,39.2-42.3,36.1-95c-2.1-35.7-12.3-52.9-20.4-61c-0.9-0.9-0.9-2.4,0-3.3
		c0.9-0.9,2.4-0.9,3.3,0c8.7,8.7,19.6,26.9,21.8,64c3.9,66.8-41.4,102-41.8,102.3c-0.7,0.6-1.7,0.6-2.5,0.2
		c-0.8-0.4-1.3-1.3-1.2-2.2c0.8-10.1-1.2-14.4-3.1-16.2c-0.8-0.8-1.7-1.2-2.3-1.4c-19.2,36.2-54,57.2-100.8,60.9
		C1116.8,728.1,1111.7,728.3,1106.9,728.3z"/>
	<path class="st3" d="M1355.9,570.4c-14.6-23.8-51.9-31.2-94-30.9c4.5,10.4,8.2,24.7,9.4,44.7c3.9,66.3-40.9,100.4-40.9,100.4
		c1.7-21.5-9-20.2-9-20.2c-45.7,88.7-165,55.6-165,55.6c60.3-17.7,68.5-73.7,68.5-73.7c-3.9,8.2-21.5,9.9-21.5,9.9s18.1-14.2,0-42.2
		c-13.6-21.1-21.6-33.4-24.9-47.4H863.6v62.7l184.8,19.4c0,0-47.2,36.8-21.3,131.2h363.8C1390.8,779.8,1397.3,637.6,1355.9,570.4z"
		/>
	<path class="st1" d="M1390.8,782.1H1027c-1,0-1.9-0.7-2.2-1.7c-21.8-79.6,7.2-118.6,18.3-130l-179.8-18.9c-1.2-0.1-2.1-1.1-2.1-2.3
		v-62.7c0-1.3,1-2.3,2.3-2.3h214.8c1.1,0,2,0.7,2.2,1.8c3.2,13.5,11.1,25.7,24.2,46l0.4,0.7c12.8,19.7,8.3,33.3,3.9,40.1
		c5.3-1.2,11.8-3.6,13.7-7.6c0.5-1,1.7-1.5,2.8-1.2s1.8,1.4,1.6,2.5c-0.1,0.5-8.3,52.7-62.2,72.9c11.1,2.2,32.7,5.5,56.8,3.6
		c46.2-3.7,79.1-23.8,97.6-59.8c0.3-0.7,1-1.1,1.8-1.2c0.4,0,3.9-0.4,7.1,2.7c3,2.9,4.6,7.8,4.7,14.6c10.6-10.1,39.2-42.3,36.1-95
		c-1-17.6-4.1-32.3-9.2-43.9c-0.3-0.7-0.2-1.5,0.2-2.2c0.4-0.7,1.1-1,1.9-1.1c50.4-0.4,82.7,10.4,96,32l0,0
		c41.3,67,35.5,204.8,35.2,210.7C1393.1,781.1,1392.1,782.1,1390.8,782.1z M1028.8,777.5h359.8c0.6-18.2,3.1-144.5-34.6-205.8
		c-12.1-19.7-41.9-29.7-88.6-29.8c4.5,11.5,7.3,25.7,8.2,42.2c3.9,66.8-41.4,102-41.8,102.3c-0.7,0.6-1.7,0.6-2.5,0.2
		c-0.8-0.4-1.3-1.3-1.2-2.2c0.8-10.1-1.2-14.4-3.1-16.2c-0.8-0.8-1.7-1.2-2.3-1.4c-19.2,36.2-54,57.3-100.8,60.9
		c-35.5,2.8-65.9-5.5-66.2-5.6c-1-0.3-1.7-1.2-1.7-2.2s0.7-1.9,1.7-2.2c45.1-13.2,60.4-48.7,65-64.3c-6.7,3.9-15.8,4.9-17.2,5
		c-1,0.1-2-0.5-2.4-1.4c-0.4-1-0.1-2,0.7-2.7c0.7-0.5,16.1-13.4-0.5-39.2l-0.4-0.7c-12.8-19.8-20.8-32.2-24.4-45.7H865.9V627
		l182.7,19.2c0.9,0.1,1.7,0.8,2,1.7c0.3,0.9-0.1,1.9-0.8,2.5C1049.3,650.8,1004.7,687.2,1028.8,777.5z"/>
	<path class="st3" d="M1368.2,523.9c0,0-20.4,27.8-56.9-1.6c-36.5-29.4,22-77.5,34.6-118.6c12.6-41-5.5-123.7-134.1-123.7
		s-133.7,119.2-133.7,119.2l199,13.6l-0.4,2.6h4.3v87.7c0,14-10,25.7-23.3,28.4c5.7,9.4,10.8,23.6,13,44.9
		c13.2,5.7,32.3,11,55.2,8.3c44.3-5.2,52.7-48.9,52.7-48.9L1368.2,523.9z"/>
	<path class="st1" d="M1313.7,587.7c-18.4,0-33.7-4.8-44-9.2c-0.8-0.3-1.3-1.1-1.4-1.9c-1.8-18.3-6.1-33.1-12.6-43.9
		c-0.4-0.6-0.4-1.4-0.1-2.1s0.9-1.2,1.7-1.3c12.4-2.5,21.4-13.4,21.4-26.1v-85.4h-2c-0.7,0-1.3-0.3-1.8-0.8
		c-0.4-0.5-0.6-1.2-0.5-1.9V415l-196.5-13.5c-1.2-0.1-2.2-1.2-2.1-2.4c0.1-1.2,1.5-30.7,19-60.7c16.1-27.7,49.6-60.8,117.1-60.8
		c71.7,0,105.8,25.7,121.8,47.3c20.3,27.4,20.5,59.9,14.5,79.4c-4.3,13.9-13.7,28.7-22.9,42.9c-18.1,28.2-35.2,54.9-12.5,73.2
		c12.2,9.8,23.8,14.1,34.4,12.7c12.4-1.6,19.1-10.6,19.2-10.7c0.4-0.6,1.1-0.9,1.8-0.9c0.7,0,1.4,0.3,1.8,0.8l10.3,11.9
		c0.5,0.5,0.7,1.3,0.5,1.9c-0.1,0.5-9.2,45.4-54.7,50.7C1321.9,587.4,1317.7,587.7,1313.7,587.7z M1272.8,574.8
		c12,5,30.6,10.2,52.8,7.6c38.3-4.5,48.8-39.4,50.4-45.9l-7.8-9c-3.1,3.2-10,9-20.4,10.4c-11.9,1.6-24.6-3.1-37.9-13.7
		c-26-20.9-6.9-50.6,11.5-79.3c9-14,18.2-28.4,22.3-41.8c5.7-18.4,5.4-49.2-13.8-75.3c-15.3-20.7-48.2-45.5-118.1-45.5
		c-52.4,0-90.5,19.7-113.1,58.5c-14.2,24.3-17.5,48.9-18.2,56.3l196.7,13.4c0.7,0,1.3,0.4,1.7,0.9c0.4,0.5,0.6,1.1,0.5,1.7h1.6
		c1.3,0,2.3,1,2.3,2.3v87.7c0,13.8-9.1,25.9-22.1,29.8C1267.1,543.8,1271,557.8,1272.8,574.8z"/>
	<path class="st1" d="M1241.8,494.5c-1.3,0-2.3-1-2.3-2.3v-18.7c0-1.3,1-2.3,2.3-2.3h8.3c3.4,0,6.2-2.8,6.2-6.2v-10.9
		c0-2.8-2.3-5-5-5h-9.5c-1.3,0-2.3-1-2.3-2.3v-14.1c0-1.3,1-2.3,2.3-2.3s2.3,1,2.3,2.3v11.8h7.2c5.3,0,9.6,4.3,9.6,9.6V465
		c0,6-4.9,10.8-10.8,10.8h-6v16.4C1244.1,493.5,1243.1,494.5,1241.8,494.5z"/>
	<path class="st0" d="M1282.3,431.5h-207.8c-8.9,0-16.2-7.2-16.2-16.2l0,0c0-8.9,7.2-16.2,16.2-16.2h207.7c8.9,0,16.2,7.2,16.2,16.2
		l0,0C1298.4,424.3,1291.2,431.5,1282.3,431.5z"/>
	<path class="st1" d="M1282.3,433.8h-207.8c-10.2,0-18.5-8.3-18.5-18.5s8.3-18.5,18.5-18.5h207.7c10.2,0,18.5,8.3,18.5,18.5
		C1300.7,425.5,1292.4,433.8,1282.3,433.8z M1074.5,401.5c-7.6,0-13.8,6.2-13.8,13.8s6.2,13.8,13.8,13.8h207.7
		c7.6,0,13.8-6.2,13.8-13.8s-6.2-13.8-13.8-13.8H1074.5z"/>
	<path class="st1" d="M1082.6,495.6c-1.3,0-2.3-1-2.3-2.3v-61.7c0-1.3,1-2.3,2.3-2.3c1.3,0,2.3,1,2.3,2.3v61.7
		C1084.9,494.5,1083.9,495.6,1082.6,495.6z"/>
	<g>
		<path class="st1" d="M1123.2,539.6c-8.6,0-18.8-1.5-30.5-5c-49.8-15-41.8-58.7-41.7-59.2c0.2-0.9,0.8-1.6,1.7-1.8
			c0.9-0.2,1.8,0.1,2.3,0.8c18.3,22,49.7,19.6,70.6,18c5-0.4,9.3-0.7,13-0.7c6.4,0,11.8,1.6,16.1,4.8c7.9,6,10.2,16.9,5.3,25.9
			C1154.9,531.7,1143,539.6,1123.2,539.6z M1055,481.1c-0.5,11.1,2.4,38,39,49c35.9,10.8,55.5,1.9,61.9-10l0,0
			c3.8-7,2.1-15.5-4-20.1c-3.4-2.6-7.9-3.9-13.3-3.9c-3.5,0-7.7,0.3-12.6,0.7C1105.4,498.5,1075,500.8,1055,481.1z"/>
	</g>
	<g>
		<path class="st1" d="M1197.2,539.6c-19.8,0-31.7-7.8-36.8-17.2l0,0c-4.9-9.1-2.6-20,5.3-25.9c4.2-3.2,9.6-4.8,16.1-4.8
			c3.7,0,8,0.3,13,0.7c20.8,1.6,52.3,4,70.6-18c0.6-0.7,1.5-1,2.3-0.8c0.9,0.2,1.5,0.9,1.7,1.8c0.1,0.4,8.1,44.2-41.7,59.2
			C1216,538.1,1205.9,539.6,1197.2,539.6z M1181.9,496.2c-5.4,0-9.9,1.3-13.3,3.9c-6.1,4.6-7.8,13-4,20.1l0,0
			c6.4,11.9,26,20.8,61.9,10c36.6-11,39.5-37.9,39-49c-20,19.7-50.4,17.4-70.9,15.8C1189.6,496.5,1185.3,496.2,1181.9,496.2z"/>
	</g>
	<path class="st1" d="M1244.1,626.1c-0.3,0-0.7-0.1-1-0.2c-1.2-0.5-1.7-1.9-1.1-3.1c13.2-28.2-1.2-63.9-1.3-64.2
		c-0.5-1.2,0.1-2.5,1.3-3c1.2-0.5,2.5,0.1,3,1.3c0.6,1.5,15.3,37.9,1.3,68C1245.8,625.7,1245,626.1,1244.1,626.1z"/>
	<circle class="st0" cx="1387.4" cy="516" r="28.6"/>
	<path class="st1" d="M1387.4,546.9c-17.1,0-31-13.9-31-31c0-17.1,13.9-31,31-31s31,13.9,31,31
		C1418.3,533,1404.4,546.9,1387.4,546.9z M1387.4,489.6c-14.5,0-26.3,11.8-26.3,26.3c0,14.5,11.8,26.3,26.3,26.3
		s26.3-11.8,26.3-26.3C1413.7,501.4,1401.9,489.6,1387.4,489.6z"/>
	<g>
		<path class="st1" d="M1140.7,466.6h-27.1c-1.3,0-2.3-1-2.3-2.3s1-2.3,2.3-2.3h27.1c1.3,0,2.3,1,2.3,2.3S1142,466.6,1140.7,466.6z"
			/>
	</g>
	<g>
		<path class="st1" d="M1199.5,466.6h-27.1c-1.3,0-2.3-1-2.3-2.3s1-2.3,2.3-2.3h27.1c1.3,0,2.3,1,2.3,2.3S1200.8,466.6,1199.5,466.6
			z"/>
	</g>
	<path class="st1" d="M1340.9,506.1c-0.2,0-0.4,0-0.6-0.1c-1.2-0.3-2-1.6-1.7-2.8c5.8-22.1,25.8-37.6,48.7-37.6
		c10.6,0,20.8,3.3,29.4,9.5c1,0.7,1.3,2.2,0.5,3.2c-0.7,1-2.2,1.3-3.2,0.5c-7.8-5.6-17.1-8.6-26.7-8.6c-20.8,0-39,14-44.2,34.2
		C1342.9,505.4,1341.9,506.1,1340.9,506.1z"/>
	<path class="st4" d="M852.4,568.8H712.5c-6.2,0-11.1,5-11.1,11.1l0,0c0,6.2,5,11.1,11.1,11.1H747v46.1h106.6v-46.2
		c5.6-0.6,9.9-5.3,9.9-11.1l0,0C863.6,573.8,858.6,568.8,852.4,568.8z"/>
	<path class="st1" d="M853.7,639.5H747c-1.3,0-2.3-1-2.3-2.3v-43.8h-32.2c-7.4,0-13.5-6-13.5-13.5c0-7.4,6-13.5,13.5-13.5h139.9
		c7.4,0,13.5,6,13.5,13.5c0,6.2-4.1,11.4-9.9,13v44.3C856,638.5,854.9,639.5,853.7,639.5z M749.4,634.9h102V591
		c0-1.2,0.9-2.2,2.1-2.3c4.5-0.5,7.9-4.3,7.9-8.8c0-4.9-4-8.8-8.8-8.8H712.5c-4.9,0-8.8,4-8.8,8.8c0,4.9,4,8.8,8.8,8.8H747
		c1.3,0,2.3,1,2.3,2.3v43.9H749.4z"/>
	<path class="st4" d="M782.6,610.1h-37.3c-5.2,0-9.5-4.2-9.5-9.5l0,0c0-5.2,4.2-9.5,9.5-9.5h37.3c5.2,0,9.5,4.2,9.5,9.5l0,0
		C792.1,605.8,787.8,610.1,782.6,610.1z"/>
	<path class="st1" d="M782.6,612.4h-37.3c-6.5,0-11.8-5.3-11.8-11.8s5.3-11.8,11.8-11.8h37.3c6.5,0,11.8,5.3,11.8,11.8
		S789.1,612.4,782.6,612.4z M745.3,593.4c-4,0-7.2,3.2-7.2,7.2s3.2,7.2,7.2,7.2h37.3c4,0,7.2-3.2,7.2-7.2s-3.2-7.2-7.2-7.2H745.3z"
		/>
	<path class="st4" d="M779.8,629h-32.1c-5.2,0-9.5-4.2-9.5-9.5l0,0c0-5.2,4.2-9.5,9.5-9.5h32.1c5.2,0,9.5,4.2,9.5,9.5l0,0
		C789.3,624.8,785,629,779.8,629z"/>
	<path class="st1" d="M779.8,631.3h-32.1c-6.5,0-11.8-5.3-11.8-11.8s5.3-11.8,11.8-11.8h32.1c6.5,0,11.8,5.3,11.8,11.8
		C791.6,626,786.3,631.3,779.8,631.3z M747.7,612.4c-4,0-7.2,3.2-7.2,7.2s3.2,7.2,7.2,7.2h32.1c4,0,7.2-3.2,7.2-7.2
		s-3.2-7.2-7.2-7.2H747.7z"/>
	<path class="st4" d="M777.6,648h-24.7c-5.2,0-9.5-4.2-9.5-9.5l0,0c0-5.2,4.2-9.5,9.5-9.5h24.8c5.2,0,9.5,4.2,9.5,9.5l0,0
		C787.1,643.7,782.9,648,777.6,648z"/>
	<path class="st1" d="M777.6,650.3h-24.7c-6.5,0-11.8-5.3-11.8-11.8s5.3-11.8,11.8-11.8h24.8c6.5,0,11.8,5.3,11.8,11.8
		C789.4,645,784.1,650.3,777.6,650.3z M752.9,631.3c-4,0-7.2,3.2-7.2,7.2s3.2,7.2,7.2,7.2h24.8c4,0,7.2-3.2,7.2-7.2
		s-3.2-7.2-7.2-7.2H752.9z"/>
	<path class="st0" d="M859.7,653.8L859.7,653.8c8.6,0,15.5-6.9,15.5-15.5v-66.2c0-8.6-6.9-15.5-15.5-15.5l0,0
		c-8.6,0-15.5,6.9-15.5,15.5v66.2C844.2,646.9,851.1,653.8,859.7,653.8z"/>
	<path class="st1" d="M859.7,656.1c-9.8,0-17.8-8-17.8-17.8v-66.2c0-9.8,8-17.8,17.8-17.8s17.8,8,17.8,17.8v66.2
		C877.5,648.1,869.5,656.1,859.7,656.1z M859.7,558.9c-7.3,0-13.2,5.9-13.2,13.2v66.2c0,7.3,5.9,13.2,13.2,13.2s13.2-5.9,13.2-13.2
		v-66.2C872.9,564.8,867,558.9,859.7,558.9z"/>
	<polygon class="st4" points="963.9,661.7 972.5,679 991.6,681.8 977.7,695.3 981,714.4 963.9,705.4 946.7,714.4 950,695.3 
		936.1,681.8 955.3,679 	"/>
	<polygon class="st4" points="797.9,183.4 806.4,200.8 825.6,203.6 811.7,217.1 815,236.2 797.9,227.2 780.7,236.2 784,217.1 
		770.1,203.6 789.3,200.8 	"/>
	<path class="st1" d="M815,238.5c-0.4,0-0.7-0.1-1.1-0.3l-16.1-8.4l-16.1,8.4c-0.8,0.4-1.7,0.3-2.4-0.2s-1.1-1.4-0.9-2.3l3.1-17.9
		l-13-12.7c-0.6-0.6-0.9-1.5-0.6-2.4c0.3-0.8,1-1.4,1.9-1.6l18-2.6l8-16.3c0.4-0.8,1.2-1.3,2.1-1.3c0.9,0,1.7,0.5,2.1,1.3l8,16.3
		l18,2.6c0.9,0.1,1.6,0.7,1.9,1.6c0.3,0.8,0,1.8-0.6,2.4l-13,12.7l3.1,17.9c0.1,0.9-0.2,1.7-0.9,2.3
		C816,238.4,815.5,238.5,815,238.5z M797.9,224.9c0.4,0,0.7,0.1,1.1,0.3l13,6.8l-2.5-14.5c-0.1-0.7,0.1-1.5,0.7-2l10.5-10.3
		l-14.5-2.1c-0.8-0.1-1.4-0.6-1.7-1.3l-6.5-13.2l-6.5,13.2c-0.3,0.7-1,1.2-1.7,1.3l-14.5,2.1l10.5,10.3c0.5,0.5,0.8,1.3,0.7,2
		L784,232l13-6.8C797.1,225,797.5,224.9,797.9,224.9z"/>
	<path class="st1" d="M274.7,994.5c-10.4,0-18.9-8.5-18.9-18.9s8.5-18.9,18.9-18.9s18.9,8.5,18.9,18.9S285.1,994.5,274.7,994.5z
		 M274.7,961.3c-7.9,0-14.3,6.4-14.3,14.3c0,7.9,6.4,14.3,14.3,14.3c7.9,0,14.3-6.4,14.3-14.3C289,967.7,282.6,961.3,274.7,961.3z"
		/>
	<path class="st1" d="M1470.3,994.5c-10.4,0-18.9-8.5-18.9-18.9s8.5-18.9,18.9-18.9s18.9,8.5,18.9,18.9S1480.7,994.5,1470.3,994.5z
		 M1470.3,961.3c-7.9,0-14.3,6.4-14.3,14.3c0,7.9,6.4,14.3,14.3,14.3s14.3-6.4,14.3-14.3C1484.6,967.7,1478.2,961.3,1470.3,961.3z"
		/>
	<path class="st1" d="M1453.7,977.9H291.3c-1.3,0-2.3-1-2.3-2.3s1-2.3,2.3-2.3h1162.4c1.3,0,2.3,1,2.3,2.3S1455,977.9,1453.7,977.9z
		"/>
	<rect x="312" y="843.5" class="st2" width="218" height="132"/>
	<path class="st1" d="M529.9,977.9h-218c-1.3,0-2.3-1-2.3-2.3v-132c0-1.3,1-2.3,2.3-2.3h218c1.3,0,2.3,1,2.3,2.3v132
		C532.2,976.8,531.2,977.9,529.9,977.9z M314.3,973.3h213.4V845.9H314.3V973.3z"/>
	<rect x="294.3" y="814.7" class="st4" width="253.3" height="28.9"/>
	<path class="st1" d="M547.6,845.9H294.3c-1.3,0-2.3-1-2.3-2.3v-28.9c0-1.3,1-2.3,2.3-2.3h253.3c1.3,0,2.3,1,2.3,2.3v28.9
		C549.9,844.8,548.9,845.9,547.6,845.9z M296.6,841.2h248.7V817H296.6V841.2z"/>
	<ellipse class="st0" cx="579.8" cy="885.4" rx="19.5" ry="19.5"/>
	<path class="st1" d="M579.8,907.3c-12,0-21.8-9.8-21.8-21.8s9.8-21.8,21.8-21.8s21.8,9.8,21.8,21.8S591.8,907.3,579.8,907.3z
		 M579.8,868.3c-9.5,0-17.2,7.7-17.2,17.2s7.7,17.2,17.2,17.2S597,895,597,885.5C597,876,589.3,868.3,579.8,868.3z"/>
	
		<ellipse transform="matrix(0.8057 -0.5923 0.5923 0.8057 -412.0724 548.9443)" class="st4" cx="630.7" cy="902.6" rx="12.1" ry="12.1"/>
	<path class="st1" d="M630.7,916.9c-7.9,0-14.4-6.4-14.4-14.4c0-7.9,6.4-14.4,14.4-14.4c7.9,0,14.4,6.4,14.4,14.4
		C645,910.5,638.6,916.9,630.7,916.9z M630.7,892.8c-5.4,0-9.8,4.4-9.8,9.8c0,5.4,4.4,9.8,9.8,9.8s9.8-4.4,9.8-9.8
		C640.4,897.2,636,892.8,630.7,892.8z"/>
	<path class="st1" d="M456.3,762.7H300.8c-1.3,0-2.3-1-2.3-2.3v-25c0-1.3,1-2.3,2.3-2.3h206.3c1.3,0,2.3,1,2.3,2.3v15.5
		c0,1.3-1,2.3-2.3,2.3h-48.5v7.2C458.6,761.7,457.6,762.7,456.3,762.7z M303.1,758.1H454v-7.2c0-1.3,1-2.3,2.3-2.3h48.5v-10.9H303.1
		V758.1z"/>
	<path class="st1" d="M479.5,817H322.7c-1.3,0-2.3-1-2.3-2.3v-54.3c0-1.3,1-2.3,2.3-2.3h133.5c1.3,0,2.3,1,2.3,2.3v17.1h21
		c1.3,0,2.3,1,2.3,2.3v34.9C481.8,816,480.8,817,479.5,817z M325.1,812.4h152.2v-30.3h-21c-1.3,0-2.3-1-2.3-2.3v-17.1H325.1V812.4z"
		/>
	<path class="st1" d="M646,865.2c-7.4,0-13.5-6-13.5-13.5c0-7.4,6-13.5,13.5-13.5c7.4,0,13.5,6,13.5,13.5
		C659.4,859.1,653.4,865.2,646,865.2z M646,842.9c-4.9,0-8.8,4-8.8,8.8c0,4.9,4,8.8,8.8,8.8c4.9,0,8.8-4,8.8-8.8
		C654.8,846.8,650.9,842.9,646,842.9z"/>
	<path class="st1" d="M569.1,955.6c-7.4,0-13.5-6-13.5-13.5s6-13.5,13.5-13.5c7.4,0,13.5,6,13.5,13.5S576.6,955.6,569.1,955.6z
		 M569.1,933.3c-4.9,0-8.8,4-8.8,8.8s4,8.8,8.8,8.8c4.9,0,8.8-4,8.8-8.8S574,933.3,569.1,933.3z"/>
	<circle class="st0" cx="425.3" cy="831.9" r="47"/>
	<path class="st1" d="M425.3,881.2c-27.2,0-49.3-22.1-49.3-49.3s22.1-49.3,49.3-49.3c27.2,0,49.3,22.1,49.3,49.3
		C474.5,859.1,452.4,881.2,425.3,881.2z M425.3,787.3c-24.6,0-44.6,20-44.6,44.6s20,44.6,44.6,44.6s44.6-20,44.6-44.6
		S449.9,787.3,425.3,787.3z"/>
	<path class="st3" d="M425.3,846.5c17.2,5.4,31.2,7.1,41.6,7.2c3.4-6.5,5.4-13.9,5.4-21.8c0-2.4-0.2-4.8-0.5-7.1
		c-5.2,1.8-11.9,2.6-20.4,1.2c-25.5-4.2-26.5-11.5-46-9.3c-10.3,1.1-19.6,4.8-26.5,8.3c-0.3,2.3-0.5,4.6-0.5,6.9
		c0,7.7,1.9,15,5.1,21.4C394.7,847.7,411.1,842,425.3,846.5z"/>
	<path class="st1" d="M466.8,856.1L466.8,856.1c-13.2-0.2-27.4-2.7-42.3-7.3l0,0c-13.4-4.2-29.2,1.3-40.1,6.6
		c-1.1,0.6-2.5,0.1-3.1-1c-3.6-7-5.4-14.5-5.4-22.4c0-2.4,0.2-4.8,0.5-7.3c0.1-0.7,0.6-1.4,1.2-1.7c9.3-4.7,18.4-7.6,27.3-8.5
		c11.8-1.3,17.4,0.7,24.5,3.4c5.1,1.9,11.5,4.2,22.1,6c7.2,1.2,13.7,0.8,19.2-1.1c0.6-0.2,1.4-0.1,1.9,0.2c0.6,0.4,1,1,1.1,1.6
		c0.4,2.4,0.6,5,0.6,7.4c0,8-2,15.9-5.7,22.9C468.5,855.6,467.7,856.1,466.8,856.1z M414.3,842.6c4,0,7.9,0.5,11.7,1.7l0,0
		c13.9,4.4,27.2,6.8,39.5,7.1c2.9-6,4.5-12.8,4.5-19.5c0-1.4-0.1-2.7-0.2-4.1c-5.6,1.4-11.9,1.6-18.8,0.5c-11.1-1.8-17.7-4.2-23-6.2
		c-7.1-2.6-11.7-4.3-22.4-3.1c-7.8,0.9-16.3,3.5-24.6,7.5c-0.2,1.8-0.3,3.6-0.3,5.4c0,6.4,1.3,12.5,3.9,18.3
		C392.9,846.3,403.6,842.6,414.3,842.6z"/>
	<path class="st1" d="M425.3,787.3c-1.3,0-2.3-1-2.3-2.3v-85.6c0-1.3,1-2.3,2.3-2.3s2.3,1,2.3,2.3V785
		C427.6,786.2,426.5,787.3,425.3,787.3z"/>
	<path class="st1" d="M595.4,833.4c-27.6,0-50.1-22.5-50.1-50.1s22.5-50.1,50.1-50.1c27.6,0,50.1,22.5,50.1,50.1
		S623.1,833.4,595.4,833.4z M595.4,737.7c-25.1,0-45.5,20.4-45.5,45.5s20.4,45.5,45.5,45.5c25.1,0,45.5-20.4,45.5-45.5
		S620.5,737.7,595.4,737.7z"/>
	<path class="st3" d="M559.6,814.9l73.8-60.6c-5.1-6.7-12.1-12.1-20-15.3l-64.9,53.3C550.1,800.9,554,808.6,559.6,814.9z"/>
	<path class="st1" d="M559.6,817.2c-0.6,0-1.3-0.3-1.7-0.8c-6-6.7-10-14.9-11.7-23.7c-0.2-0.8,0.1-1.7,0.8-2.2l64.9-53.3
		c0.7-0.5,1.6-0.7,2.3-0.4c8.3,3.4,15.5,8.9,21,16.1c0.8,1,0.6,2.4-0.4,3.2L561,816.7C560.6,817,560.1,817.2,559.6,817.2z
		 M551,793.2c1.5,6.8,4.6,13.1,8.9,18.5l70.3-57.8c-4.5-5.3-10.1-9.5-16.4-12.3L551,793.2z"/>
	<path class="st3" d="M595.4,831.1c26.4,0,47.8-21.4,47.8-47.8c0-2.7-0.2-5.3-0.6-7.8l-64,52.6C583.8,830,589.5,831.1,595.4,831.1z"
		/>
	<path class="st1" d="M595.4,833.4c-6.1,0-12-1.1-17.6-3.2c-0.8-0.3-1.3-1-1.5-1.8c-0.1-0.8,0.2-1.6,0.8-2.2l64-52.6
		c0.6-0.5,1.5-0.7,2.3-0.4s1.3,1,1.5,1.8c0.4,2.7,0.7,5.5,0.7,8.2C645.5,810.9,623.1,833.4,595.4,833.4z M583.3,827.1
		c3.9,1.1,8,1.6,12.1,1.6c25.1,0,45.5-20.4,45.5-45.5c0-1.1,0-2.2-0.1-3.4L583.3,827.1z"/>
	<path class="st1" d="M547.7,782.1h-91.5c-1.3,0-2.3-1-2.3-2.3v-28.9c0-1.3,1-2.3,2.3-2.3h103.9c0.9,0,1.7,0.5,2.1,1.4
		c0.4,0.8,0.2,1.8-0.4,2.5c-6.9,7.5-11.1,17.3-11.8,27.5C550,781.2,549,782.1,547.7,782.1z M458.6,777.5h87.1
		c1-8.8,4.4-17.2,9.6-24.2h-96.7V777.5z"/>
	<path class="st1" d="M595.4,737.7c-1.3,0-2.3-1-2.3-2.3v-37.5c0-1.3,1-2.3,2.3-2.3s2.3,1,2.3,2.3v37.5
		C597.7,736.7,596.7,737.7,595.4,737.7z"/>
	<path class="st1" d="M733.7,793.3c-21.8,0-39.5-17.7-39.5-39.5s17.7-39.5,39.5-39.5s39.5,17.7,39.5,39.5S755.5,793.3,733.7,793.3z
		 M733.7,719c-19.2,0-34.8,15.6-34.8,34.8s15.6,34.8,34.8,34.8s34.8-15.6,34.8-34.8C768.5,734.6,752.9,719,733.7,719z"/>
	<path class="st1" d="M707.1,782.1h-64c-1.2,0-2.2-0.9-2.3-2.1c-0.7-10.2-4.9-19.9-11.8-27.5c-0.6-0.7-0.8-1.6-0.4-2.5
		c0.4-0.8,1.2-1.4,2.1-1.4h66c0.6,0,1.3,0.3,1.7,0.7c0.4,0.5,0.7,1.1,0.6,1.7c-0.1,0.9-0.1,1.8-0.1,2.7c0,9.1,3.5,17.8,9.9,24.3
		c0.6,0.7,0.8,1.7,0.5,2.5C708.9,781.5,708,782.1,707.1,782.1z M645.2,777.5h56.9c-5.1-6.8-7.9-15-7.9-23.6c0-0.2,0-0.4,0-0.6h-58.7
		C640.8,760.3,644.2,768.7,645.2,777.5z"/>
	<path class="st1" d="M733.7,881.5c-27.7,0-50.3-22.6-50.3-50.3c0-20.8,12.5-39.2,31.9-46.8c0.6-0.2,1.3-0.2,1.9,0.1
		c10.1,5.4,22.9,5.4,33,0c0.6-0.3,1.3-0.4,1.9-0.1c19.4,7.6,31.9,26,31.9,46.8C784,858.9,761.4,881.5,733.7,881.5z M716,789.1
		c-17,7.2-28,23.6-28,42.1c0,25.2,20.5,45.7,45.7,45.7s45.7-20.5,45.7-45.7c0-18.5-10.9-35-28-42.1
		C740.5,794.6,726.9,794.6,716,789.1z"/>
	<path class="st1" d="M738.2,977.9h-133c-0.7,0-1.3-0.3-1.7-0.8s-0.6-1.2-0.6-1.8c3-24,23.7-42.1,48.1-42.1
		c14.2,0,27.5,6.1,36.8,16.7c5-2.3,10.5-3.5,16.1-3.5c17.9,0,33.3,12.1,36.6,28.7c0.1,0.7,0,1.4-0.5,1.9
		C739.6,977.6,738.9,977.9,738.2,977.9z M607.8,973.3h127.4c-4-13-16.7-22.2-31.4-22.2c-5.5,0-10.9,1.3-15.7,3.8
		c-1,0.5-2.2,0.3-2.9-0.6c-8.4-10.4-20.9-16.4-34.4-16.4C629.8,937.8,611.7,952.9,607.8,973.3z"/>
	<polygon class="st2" points="1309.1,891.6 1292.6,907.5 1157.1,794.9 1157.1,765.4 	"/>
	<path class="st1" d="M1292.6,909.8c-0.5,0-1-0.2-1.5-0.5l-135.6-112.6c-0.5-0.4-0.8-1.1-0.8-1.8v-29.5c0-0.9,0.5-1.7,1.3-2.1
		c0.8-0.4,1.8-0.3,2.5,0.3l152,126.2c0.5,0.4,0.8,1,0.8,1.7s-0.2,1.3-0.7,1.7l-16.5,15.9C1293.8,909.6,1293.2,909.8,1292.6,909.8z
		 M1159.4,793.8l133.1,110.6l13.1-12.7l-146.3-121.5v23.6H1159.4z"/>
	<rect x="816.4" y="922.4" class="st4" width="47.6" height="53"/>
	<path class="st1" d="M864,977.7h-47.6c-1.3,0-2.3-1-2.3-2.3v-53c0-1.3,1-2.3,2.3-2.3H864c1.3,0,2.3,1,2.3,2.3v53
		C866.3,976.6,865.3,977.7,864,977.7z M818.7,973.1h43v-48.4h-43V973.1z"/>
	<rect x="884.9" y="912.3" class="st3" width="48.2" height="13.2"/>
	<path class="st1" d="M933.1,927.8h-48.2c-1.3,0-2.3-1-2.3-2.3v-13.2c0-1.3,1-2.3,2.3-2.3h48.2c1.3,0,2.3,1,2.3,2.3v13.1
		C935.4,926.7,934.4,927.8,933.1,927.8z M887.2,923.1h43.6v-8.6h-43.6V923.1z"/>
	<rect x="884.9" y="925.4" class="st3" width="48.2" height="13.2"/>
	<path class="st1" d="M933.1,941h-48.2c-1.3,0-2.3-1-2.3-2.3v-13.3c0-1.3,1-2.3,2.3-2.3h48.2c1.3,0,2.3,1,2.3,2.3v13.2
		C935.4,939.9,934.4,941,933.1,941z M887.2,936.3h43.6v-8.6h-43.6V936.3z"/>
	<rect x="956.8" y="912.3" class="st3" width="48.2" height="13.2"/>
	<path class="st1" d="M1005.1,927.8h-48.2c-1.3,0-2.3-1-2.3-2.3v-13.2c0-1.3,1-2.3,2.3-2.3h48.2c1.3,0,2.3,1,2.3,2.3v13.1
		C1007.4,926.7,1006.3,927.8,1005.1,927.8z M959.1,923.1h43.6v-8.6h-43.6V923.1z"/>
	<rect x="956.8" y="925.4" class="st3" width="48.2" height="13.2"/>
	<path class="st1" d="M1005.1,941h-48.2c-1.3,0-2.3-1-2.3-2.3v-13.3c0-1.3,1-2.3,2.3-2.3h48.2c1.3,0,2.3,1,2.3,2.3v13.2
		C1007.4,939.9,1006.3,941,1005.1,941z M959.1,936.3h43.6v-8.6h-43.6V936.3z"/>
	<path class="st1" d="M946.8,865.5h-96c-1.3,0-2.3-1-2.3-2.3s1-2.3,2.3-2.3h96c1.3,0,2.3,1,2.3,2.3S948.1,865.5,946.8,865.5z"/>
	<path class="st1" d="M933.7,845.9H864c-1.3,0-2.3-1-2.3-2.3s1-2.3,2.3-2.3h69.7c1.3,0,2.3,1,2.3,2.3
		C936,844.8,935,845.9,933.7,845.9z"/>
	<path class="st1" d="M924.8,826.3h-51.9c-1.3,0-2.3-1-2.3-2.3s1-2.3,2.3-2.3h51.8c1.3,0,2.3,1,2.3,2.3
		C927.1,825.2,926,826.3,924.8,826.3z"/>
	<path class="st1" d="M792.2,756.1h-51c-1.3,0-2.3-1-2.3-2.3s1-2.3,2.3-2.3h51c1.3,0,2.3,1,2.3,2.3S793.4,756.1,792.2,756.1z"/>
	<path class="st1" d="M736.1,776.8L736.1,776.8c-17.2-1-23.1-12.3-23.3-12.7c-0.6-1.1-0.1-2.5,1-3.1s2.5-0.1,3.1,1
		c0.2,0.4,5.1,9.4,19.4,10.2c1.3,0.1,2.2,1.2,2.2,2.4C738.3,775.8,737.3,776.8,736.1,776.8z"/>
	<path class="st1" d="M727.6,746.2h-12.8c-1.3,0-2.3-1-2.3-2.3s1-2.3,2.3-2.3h12.8c1.3,0,2.3,1,2.3,2.3S728.8,746.2,727.6,746.2z"/>
	<path class="st1" d="M755.7,746.2h-12.8c-1.3,0-2.3-1-2.3-2.3s1-2.3,2.3-2.3h12.8c1.3,0,2.3,1,2.3,2.3S756.9,746.2,755.7,746.2z"/>
	<path class="st1" d="M697.7,815.7L697.7,815.7c-0.8,0-16.4-0.8-30.2-10.6c-1-0.7-1.3-2.2-0.6-3.2s2.2-1.3,3.2-0.6
		c12.7,9,27.5,9.7,27.6,9.7c1.3,0.1,2.3,1.1,2.2,2.4C700,814.7,699,815.7,697.7,815.7z"/>
	<path class="st1" d="M770.8,810.6c-0.8,0-1.6-0.4-2-1.2c-0.6-1.1-0.2-2.5,1-3.1l28.1-14.7c1.1-0.6,2.5-0.2,3.1,1
		c0.6,1.1,0.2,2.5-1,3.1l-28.1,14.7C771.6,810.5,771.2,810.6,770.8,810.6z"/>
	<polygon class="st2" points="1027.9,872.7 1045.8,887.3 1157.1,794.9 1157.1,765.4 	"/>
	<path class="st1" d="M1045.8,889.6c-0.5,0-1-0.2-1.5-0.5l-18-14.7c-0.5-0.4-0.8-1.1-0.8-1.8s0.3-1.3,0.8-1.8l129.2-107.3
		c0.7-0.6,1.6-0.7,2.5-0.3c0.8,0.4,1.3,1.2,1.3,2.1v29.6c0,0.7-0.3,1.3-0.8,1.8l-111.3,92.4C1046.9,889.5,1046.3,889.6,1045.8,889.6
		z M1031.5,872.7l14.3,11.7l109-90.5v-23.6L1031.5,872.7z"/>
	<polygon class="st4" points="737.9,891.1 755.3,909.4 898.8,779.8 898.8,745.8 	"/>
	<path class="st1" d="M755.3,911.7c-0.6,0-1.2-0.2-1.7-0.7l-17.4-18.3c-0.4-0.5-0.7-1.1-0.6-1.7c0-0.6,0.3-1.2,0.8-1.6l160.9-145.3
		c0.7-0.6,1.7-0.8,2.5-0.4c0.8,0.4,1.4,1.2,1.4,2.1v34c0,0.7-0.3,1.3-0.8,1.7L756.9,911.1C756.4,911.5,755.9,911.7,755.3,911.7z
		 M741.2,891.2l14.2,15l141.1-127.4V751L741.2,891.2z"/>
	<polygon class="st4" points="1059.8,891.1 1042.4,909.4 898.8,779.8 898.8,745.8 	"/>
	<path class="st1" d="M1042.4,911.7c-0.6,0-1.1-0.2-1.5-0.6L897.3,781.5c-0.5-0.4-0.8-1.1-0.8-1.7v-34c0-0.9,0.5-1.7,1.4-2.1
		c0.8-0.4,1.8-0.2,2.5,0.4l160.9,145.3c0.5,0.4,0.7,1,0.8,1.6c0,0.6-0.2,1.2-0.6,1.7l-17.4,18.3
		C1043.6,911.4,1043,911.7,1042.4,911.7z M901.1,778.8l141.1,127.4l14.2-15L901.1,751V778.8z"/>
	<rect x="1187.7" y="918.9" class="st4" width="47.2" height="56.7"/>
	<path class="st1" d="M1234.9,977.9h-47.2c-1.3,0-2.3-1-2.3-2.3v-56.7c0-1.3,1-2.3,2.3-2.3h47.2c1.3,0,2.3,1,2.3,2.3v56.7
		C1237.2,976.8,1236.2,977.9,1234.9,977.9z M1190,973.3h42.6v-52.1H1190V973.3z"/>
	<rect x="1130.4" y="914.6" class="st3" width="26.7" height="24"/>
	<path class="st1" d="M1157.1,941h-26.7c-1.3,0-2.3-1-2.3-2.3v-24c0-1.3,1-2.3,2.3-2.3h26.7c1.3,0,2.3,1,2.3,2.3v24
		C1159.4,939.9,1158.4,941,1157.1,941z M1132.7,936.3h22v-19.4h-22V936.3L1132.7,936.3z"/>
	<rect x="1103.8" y="914.6" class="st3" width="26.7" height="24"/>
	<path class="st1" d="M1130.4,941h-26.7c-1.3,0-2.3-1-2.3-2.3v-24c0-1.3,1-2.3,2.3-2.3h26.7c1.3,0,2.3,1,2.3,2.3v24
		C1132.7,939.9,1131.7,941,1130.4,941z M1106.1,936.3h22v-19.4h-22V936.3z"/>
	<path class="st1" d="M1276,977.9c-1.3,0-2.3-1-2.3-2.3v-81.9c0-1.3,1-2.3,2.3-2.3s2.3,1,2.3,2.3v81.9
		C1278.3,976.8,1277.2,977.9,1276,977.9z"/>
	<path class="st1" d="M1266.8,888.4h-180.6c-1.3,0-2.3-1-2.3-2.3s1-2.3,2.3-2.3h180.7c1.3,0,2.3,1,2.3,2.3
		C1269.1,887.3,1268.1,888.4,1266.8,888.4z"/>
	<g>
		<path class="st1" d="M1193.7,865.5H1117c-1.3,0-2.3-1-2.3-2.3s1-2.3,2.3-2.3h76.7c1.3,0,2.3,1,2.3,2.3S1195,865.5,1193.7,865.5z"
			/>
	</g>
	<g>
		<path class="st1" d="M1180.4,842.2h-50c-1.3,0-2.3-1-2.3-2.3s1-2.3,2.3-2.3h50c1.3,0,2.3,1,2.3,2.3S1181.7,842.2,1180.4,842.2z"/>
	</g>
	<path class="st1" d="M1421.5,977.9c-0.9,0-1.7-0.5-2.1-1.3c-20.7-44.4-63.4-39.9-65.2-39.6c-0.8,0.1-1.6-0.2-2.1-0.9
		c-27.1-34.7-61.4-12.2-62.8-11.2c-1.1,0.7-2.5,0.4-3.2-0.6c-0.7-1.1-0.4-2.5,0.6-3.2c0.4-0.3,38.6-25.4,68.2,11.2
		c7.8-0.5,48.5-0.6,68.6,42.4c0.5,1.2,0,2.5-1.1,3.1C1422.2,977.8,1421.8,977.9,1421.5,977.9z"/>
	<path class="st4" d="M1339.8,803.1v64.5c0,15.6,12.7,28.3,28.3,28.3l0,0c15.6,0,28.3-12.7,28.3-28.3v-64.5H1339.8z"/>
	<path class="st1" d="M1368,898.1c-16.9,0-30.6-13.7-30.6-30.6V803c0-1.3,1-2.3,2.3-2.3h56.5c1.3,0,2.3,1,2.3,2.3v64.5
		C1398.6,884.4,1384.9,898.1,1368,898.1z M1342.1,805.4v62.1c0,14.3,11.6,26,26,26c14.3,0,26-11.6,26-26v-62.1H1342.1z"/>
	<path class="st4" d="M1339.8,839.9L1339.8,839.9c-10.6,0-19.2-8.6-19.2-19.2v-19.6h19.2V839.9z"/>
	<path class="st1" d="M1339.8,842.2c-11.8,0-21.5-9.6-21.5-21.5v-19.6c0-1.3,1-2.3,2.3-2.3h19.2c1.3,0,2.3,1,2.3,2.3v38.8
		C1342.1,841.2,1341.1,842.2,1339.8,842.2z M1322.9,803.4v17.3c0,8.5,6.3,15.6,14.6,16.7v-34H1322.9z"/>
	<path class="st0" d="M1323.3,804.6h71.3c6.2,0,11.3-5.1,11.3-11.3v-2.2c0-6.2-5.1-11.3-11.3-11.3h-71.3c-6.2,0-11.3,5.1-11.3,11.3
		v2.2C1312,799.5,1317.1,804.6,1323.3,804.6z"/>
	<path class="st1" d="M1394.6,806.9h-71.3c-7.5,0-13.6-6.1-13.6-13.6v-2.2c0-7.5,6.1-13.6,13.6-13.6h71.3c7.5,0,13.6,6.1,13.6,13.6
		v2.2C1408.2,800.8,1402.1,806.9,1394.6,806.9z M1323.3,782.1c-5,0-9,4-9,9v2.2c0,5,4,9,9,9h71.3c5,0,9-4,9-9v-2.2c0-5-4-9-9-9
		H1323.3z"/>
	<path class="st1" d="M1338.6,923c-0.5,0-1-0.1-1.4-0.5c-1-0.8-1.2-2.2-0.5-3.2c13.3-17.8,15.8-27.3,15.8-27.4
		c0.3-1.2,1.6-2,2.8-1.7c1.2,0.3,2,1.6,1.7,2.8c-0.1,0.4-2.8,10.5-16.6,29C1340,922.7,1339.3,923,1338.6,923z"/>
	<path class="st1" d="M1382.4,923h-0.9c-1.3,0-2.3-1-2.3-2.3s1-2.3,2.3-2.3h0.9c26.4,0,47.8-21.4,47.8-47.8c0-1.3,1-2.3,2.3-2.3
		s2.3,1,2.3,2.3C1434.8,899.5,1411.3,923,1382.4,923z"/>
	<path class="st1" d="M1339.8,782.1c-1.1,0-2.1-0.8-2.3-2c-0.1-0.9-13.2-87.6-38.5-134.5c-0.6-1.1-0.2-2.5,0.9-3.1s2.5-0.2,3.1,0.9
		c25.7,47.6,38.9,135.1,39,136c0.2,1.3-0.7,2.4-1.9,2.6C1340,782.1,1339.9,782.1,1339.8,782.1z"/>
	<path class="st1" d="M1418.6,708.9L1418.6,708.9c-1.3,0-2.3-1-2.3-2.3c0.4-62-19-106.7-19.2-107.2c-0.5-1.2,0-2.5,1.2-3
		s2.5,0,3,1.2c0.2,0.5,20,46,19.6,109.1C1420.9,707.8,1419.9,708.9,1418.6,708.9z"/>
	<path class="st1" d="M1024.5,590.1H903.3c-1.3,0-2.3-1-2.3-2.3s1-2.3,2.3-2.3h121.2c1.3,0,2.3,1,2.3,2.3S1025.7,590.1,1024.5,590.1
		z"/>
	<path class="st1" d="M906.9,680.5c-1.3,0-2.3-1-2.3-2.3v-21.7c0-1.3,1-2.3,2.3-2.3s2.3,1,2.3,2.3v21.7
		C909.2,679.4,908.1,680.5,906.9,680.5z"/>
	<path class="st1" d="M917.7,669.6H896c-1.3,0-2.3-1-2.3-2.3s1-2.3,2.3-2.3h21.7c1.3,0,2.3,1,2.3,2.3S919,669.6,917.7,669.6z"/>
	<circle class="st0" cx="826.4" cy="309.7" r="9.7"/>
	<path class="st1" d="M826.4,321.7c-6.6,0-12.1-5.4-12.1-12.1c0-6.6,5.4-12.1,12.1-12.1c6.6,0,12.1,5.4,12.1,12.1
		C838.4,316.3,833,321.7,826.4,321.7z M826.4,302.2c-4.1,0-7.4,3.3-7.4,7.4s3.3,7.4,7.4,7.4s7.4-3.3,7.4-7.4
		C833.8,305.6,830.5,302.2,826.4,302.2z"/>
	<circle class="st3" cx="770.8" cy="350.8" r="16.3"/>
	<path class="st1" d="M770.8,369.4c-10.3,0-18.6-8.4-18.6-18.6s8.4-18.6,18.6-18.6c10.3,0,18.6,8.4,18.6,18.6
		S781.1,369.4,770.8,369.4z M770.8,336.7c-7.7,0-14,6.3-14,14c0,7.7,6.3,14,14,14s14-6.3,14-14C784.9,343,778.6,336.7,770.8,336.7z"
		/>
	<circle class="st4" cx="846.4" cy="410.8" r="22"/>
	<path class="st1" d="M846.4,435.1c-13.4,0-24.3-10.9-24.3-24.3s10.9-24.3,24.3-24.3s24.3,10.9,24.3,24.3
		C870.7,424.2,859.8,435.1,846.4,435.1z M846.4,391.2c-10.8,0-19.7,8.8-19.7,19.7c0,10.8,8.8,19.7,19.7,19.7s19.7-8.8,19.7-19.7
		C866.1,400,857.3,391.2,846.4,391.2z"/>
	<ellipse transform="matrix(0.973 -0.2307 0.2307 0.973 -74.7183 189.8984)" class="st4" cx="774.7" cy="414.4" rx="9.4" ry="9.4"/>
	<path class="st1" d="M774.7,426.2c-6.5,0-11.7-5.3-11.7-11.7c0-6.5,5.3-11.7,11.7-11.7s11.7,5.3,11.7,11.7S781.1,426.2,774.7,426.2
		z M774.7,407.3c-3.9,0-7.1,3.2-7.1,7.1s3.2,7.1,7.1,7.1c3.9,0,7.1-3.2,7.1-7.1C781.8,410.5,778.6,407.3,774.7,407.3z"/>
	<circle class="st0" cx="808.3" cy="475.8" r="13.6"/>
	<path class="st1" d="M808.3,491.7c-8.8,0-15.9-7.1-15.9-15.9s7.1-15.9,15.9-15.9c8.8,0,15.9,7.1,15.9,15.9
		C824.2,484.5,817.1,491.7,808.3,491.7z M808.3,464.5c-6.2,0-11.3,5.1-11.3,11.3s5.1,11.3,11.3,11.3s11.3-5.1,11.3-11.3
		S814.5,464.5,808.3,464.5z"/>
	<circle class="st4" cx="860" cy="521" r="24.2"/>
	<path class="st1" d="M860,547.5c-14.6,0-26.5-11.9-26.5-26.5c0-14.6,11.9-26.5,26.5-26.5s26.5,11.9,26.5,26.5
		C886.6,535.6,874.6,547.5,860,547.5z M860,499.1c-12.1,0-21.9,9.8-21.9,21.9c0,12.1,9.8,21.9,21.9,21.9c12.1,0,21.9-9.8,21.9-21.9
		C881.9,508.9,872.1,499.1,860,499.1z"/>
	<circle class="st3" cx="728" cy="480.8" r="23.4"/>
	<path class="st1" d="M728,506.5c-14.2,0-25.7-11.5-25.7-25.7s11.5-25.7,25.7-25.7s25.7,11.5,25.7,25.7
		C753.8,495,742.2,506.5,728,506.5z M728,459.7c-11.6,0-21.1,9.5-21.1,21.1s9.5,21.1,21.1,21.1s21.1-9.5,21.1-21.1
		C749.2,469.1,739.7,459.7,728,459.7z"/>
	<path class="st1" d="M942.6,445c-0.1,0-0.3,0-0.4,0c-1.3-0.2-2.1-1.5-1.8-2.7c0.1-0.6,0.2-1.2,0.2-1.7c0.1-1.3,1.1-2.2,2.4-2.2
		c1.3,0.1,2.2,1.2,2.2,2.4c0,0.8-0.1,1.6-0.3,2.3C944.6,444.3,943.7,445,942.6,445z M940.5,433.1c-0.9,0-1.7-0.5-2.1-1.4l-0.2-0.4
		c-0.2-0.5-0.5-1-0.7-1.5c-0.5-1.2,0-2.5,1.2-3s2.5,0,3,1.2c0.2,0.5,0.4,1,0.7,1.5l0.2,0.4c0.5,1.2,0,2.5-1.2,3
		C941.1,433.1,940.8,433.1,940.5,433.1z M937.8,421.4c-0.1,0-0.2,0-0.3,0c-1.3-0.1-2.2-1.3-2-2.6c0.1-0.7,0.2-1.5,0.4-2.3
		c0.3-1.2,1.5-2,2.8-1.7c1.2,0.3,2,1.5,1.7,2.8c-0.1,0.6-0.2,1.2-0.3,1.7C940,420.5,939,421.4,937.8,421.4z M943.1,410.6
		c-0.6,0-1.2-0.2-1.7-0.7c-0.9-0.9-0.8-2.4,0.1-3.3c0.6-0.5,1.1-1,1.8-1.5c1-0.8,2.5-0.5,3.2,0.5c0.8,1,0.5,2.5-0.5,3.2
		c-0.5,0.3-0.9,0.7-1.4,1.1C944.2,410.4,943.6,410.6,943.1,410.6z M953.5,404.1c-0.7,0-1.5-0.4-1.9-1c-0.7-1.1-0.4-2.5,0.6-3.2
		c0.5-0.3,1-0.7,1.4-1.1c1-0.8,2.4-0.7,3.3,0.3c0.8,1,0.7,2.4-0.3,3.2c-0.6,0.5-1.2,0.9-1.8,1.4C954.4,404,953.9,404.1,953.5,404.1z
		 M960.4,394.4c-0.2,0-0.4,0-0.6-0.1c-1.2-0.3-1.9-1.6-1.6-2.9c0.2-0.6,0.3-1.2,0.4-1.7c0.2-1.3,1.4-2.1,2.7-1.9s2.1,1.4,1.9,2.7
		c-0.1,0.7-0.3,1.5-0.5,2.3C962.4,393.7,961.4,394.4,960.4,394.4z M959.4,382.4c-0.9,0-1.8-0.5-2.1-1.4c-0.3-0.6-0.5-1.2-0.8-1.8
		c-0.5-1.2,0-2.5,1.2-3s2.5,0,3,1.2c0.3,0.6,0.6,1.3,0.8,1.9c0.5,1.2-0.1,2.5-1.3,3C960,382.3,959.7,382.4,959.4,382.4z
		 M955.9,370.7L955.9,370.7c-1.3,0-2.3-1.1-2.3-2.3c0-0.8,0.1-1.6,0.2-2.3c0.2-1.3,1.4-2.1,2.6-2c1.3,0.2,2.1,1.3,2,2.6
		c-0.1,0.6-0.1,1.2-0.1,1.7C958.2,369.7,957.2,370.7,955.9,370.7z M960.2,359.5c-0.5,0-1.1-0.2-1.5-0.6c-1-0.8-1.1-2.3-0.2-3.3
		c0.5-0.6,1.1-1.1,1.7-1.7c1-0.8,2.4-0.8,3.3,0.2c0.8,1,0.7,2.4-0.2,3.3c-0.4,0.4-0.9,0.8-1.2,1.2
		C961.5,359.2,960.8,359.5,960.2,359.5z M970.3,352.7c-0.8,0-1.6-0.4-2-1.1c-0.6-1.1-0.3-2.5,0.8-3.2c0.5-0.3,1.1-0.6,1.6-1
		c1-0.7,2.5-0.5,3.2,0.6c0.7,1,0.5,2.5-0.6,3.2c-0.6,0.4-1.2,0.8-1.9,1.2C971.1,352.6,970.7,352.7,970.3,352.7z M978.2,343.6
		c-0.3,0-0.5,0-0.8-0.1c-1.2-0.4-1.8-1.8-1.4-3l0.1-0.3c0.2-0.5,0.3-0.9,0.4-1.4c0.3-1.2,1.6-2,2.8-1.6c1.2,0.3,2,1.6,1.6,2.8
		c-0.1,0.6-0.3,1.1-0.5,1.7l-0.2,0.4C980,343.1,979.1,343.6,978.2,343.6z M978.2,331.7c-0.9,0-1.8-0.6-2.2-1.5
		c-0.2-0.6-0.5-1.2-0.7-1.8c-0.5-1.2,0.1-2.5,1.2-3c1.2-0.5,2.5,0.1,3,1.2c0.3,0.7,0.5,1.3,0.8,2c0.4,1.2-0.2,2.5-1.4,2.9
		C978.8,331.6,978.5,331.7,978.2,331.7z M974.2,320.1c-1.2,0-2.2-0.9-2.3-2.1c-0.1-0.6-0.1-1.1-0.1-1.7c0-0.2,0-0.4,0-0.7
		c0-1.3,1.2-2.3,2.4-2.2c1.3,0,2.3,1.1,2.2,2.4v0.5c0,0.4,0,0.8,0.1,1.3c0.1,1.3-0.8,2.4-2.1,2.5
		C974.4,320.1,974.3,320.1,974.2,320.1z M977.4,308.5c-0.5,0-0.9-0.1-1.3-0.4c-1-0.7-1.3-2.2-0.6-3.2c0.5-0.6,0.9-1.3,1.5-1.8
		c0.9-0.9,2.3-1,3.3-0.1c0.9,0.9,1,2.3,0.1,3.3c-0.4,0.4-0.8,0.9-1.1,1.4C978.8,308.1,978.1,308.5,977.4,308.5z M987.1,301.3
		c-0.8,0-1.6-0.4-2-1.2c-0.6-1.1-0.2-2.5,0.9-3.1c0.6-0.3,1.1-0.6,1.7-1c1.1-0.7,2.5-0.3,3.2,0.8s0.3,2.5-0.8,3.2
		c-0.6,0.4-1.2,0.7-1.9,1.1C987.9,301.2,987.5,301.3,987.1,301.3z M995.8,292.9c-0.3,0-0.7-0.1-1-0.2c-1.2-0.5-1.7-1.9-1.1-3.1
		c0.2-0.5,0.5-1.1,0.7-1.7c0.4-1.2,1.7-1.8,2.9-1.4s1.8,1.7,1.4,2.9c-0.3,0.8-0.5,1.5-0.9,2.1C997.5,292.4,996.6,292.9,995.8,292.9z
		"/>
	<path class="st1" d="M1044.7,444.5c-0.9,0-1.8-0.6-2.2-1.5c-0.2-0.5-0.4-1.1-0.7-1.5c-0.6-1.1-0.2-2.5,0.9-3.1
		c1.1-0.6,2.5-0.2,3.1,0.9c0.4,0.7,0.7,1.4,1,2.2c0.4,1.2-0.2,2.5-1.3,3C1045.3,444.4,1045,444.5,1044.7,444.5z M1036.5,435.7
		c-0.4,0-0.9-0.1-1.3-0.4c-0.6-0.4-1.2-0.8-1.7-1.2c-1-0.7-1.3-2.2-0.6-3.2c0.7-1,2.2-1.3,3.2-0.6c0.5,0.4,1.1,0.7,1.7,1.1
		c1.1,0.7,1.4,2.1,0.7,3.2C1038,435.4,1037.2,435.7,1036.5,435.7z M1028.4,426.8c-1,0-1.9-0.6-2.2-1.6c-0.2-0.7-0.4-1.5-0.6-2.2
		c-0.3-1.2,0.5-2.5,1.8-2.7c1.2-0.3,2.5,0.5,2.7,1.8c0.1,0.6,0.3,1.2,0.5,1.7c0.4,1.2-0.2,2.5-1.4,2.9
		C1028.9,426.8,1028.7,426.8,1028.4,426.8z M1029.3,414.9c-0.4,0-0.7-0.1-1.1-0.3c-1.1-0.6-1.6-2-1-3.1c0.3-0.7,0.7-1.3,1.1-1.9
		c0.7-1.1,2.1-1.4,3.2-0.7c1.1,0.7,1.4,2.1,0.7,3.2c-0.3,0.5-0.6,1.1-0.9,1.6C1030.9,414.5,1030.1,414.9,1029.3,414.9z
		 M1035.4,404.3c-0.2,0-0.5,0-0.7-0.1c-1.2-0.4-1.9-1.7-1.5-2.9c0.2-0.5,0.3-1.1,0.4-1.6c0.2-1.3,1.4-2.1,2.6-2
		c1.3,0.2,2.1,1.4,2,2.6c-0.1,0.8-0.3,1.6-0.5,2.3C1037.3,403.7,1036.4,404.3,1035.4,404.3z M1033.9,392.5c-0.8,0-1.5-0.4-2-1.1
		c-0.3-0.5-0.6-0.9-1-1.4c-0.8-1-0.7-2.4,0.3-3.2c1-0.8,2.4-0.7,3.2,0.3c0.5,0.6,1,1.3,1.4,2c0.7,1.1,0.3,2.5-0.8,3.2
		C1034.7,392.4,1034.3,392.5,1033.9,392.5z M1024.6,384.6c-0.5,0-0.9-0.1-1.3-0.4c-0.6-0.4-1.2-0.9-1.8-1.4c-1-0.8-1.1-2.3-0.3-3.3
		s2.3-1.1,3.3-0.3c0.5,0.4,1,0.8,1.5,1.1c1,0.7,1.3,2.2,0.5,3.2C1026.1,384.3,1025.3,384.6,1024.6,384.6z M1018.1,374.7
		c-1.1,0-2.1-0.8-2.3-1.9c-0.1-0.8-0.2-1.6-0.3-2.3c-0.1-1.3,0.9-2.4,2.2-2.4c1.3-0.1,2.4,0.9,2.4,2.2c0,0.6,0.1,1.2,0.2,1.7
		c0.2,1.3-0.6,2.5-1.9,2.7C1018.3,374.7,1018.2,374.7,1018.1,374.7z M1020.8,363.1c-0.4,0-0.9-0.1-1.3-0.4c-1.1-0.7-1.4-2.1-0.7-3.2
		c0.4-0.6,0.8-1.2,1.2-1.7c0.7-1.1,2.2-1.3,3.2-0.6c1.1,0.7,1.3,2.2,0.6,3.2c-0.4,0.5-0.8,1.1-1.1,1.7
		C1022.3,362.7,1021.6,363.1,1020.8,363.1z M1026.2,352.2c-0.1,0-0.2,0-0.2,0c-1.3-0.1-2.2-1.3-2-2.5c0-0.4,0.1-0.8,0.1-1.2V348
		c0-1.3,0.9-2.3,2.2-2.4c1.2-0.1,2.3,0.9,2.4,2.2v0.6c0,0.6,0,1.2-0.1,1.7C1028.3,351.3,1027.3,352.2,1026.2,352.2z M1022.6,340.8
		c-0.6,0-1.3-0.3-1.7-0.8c-0.4-0.4-0.8-0.8-1.3-1.2c-1-0.8-1.1-2.3-0.2-3.3c0.8-1,2.3-1.1,3.3-0.2c0.6,0.5,1.2,1.1,1.7,1.6
		c0.8,1,0.8,2.4-0.2,3.3C1023.7,340.6,1023.2,340.8,1022.6,340.8z M1012.9,333.4c-0.5,0-1.1-0.2-1.5-0.6c-0.6-0.5-1.1-1.1-1.6-1.7
		c-0.8-1-0.7-2.4,0.3-3.3c1-0.8,2.4-0.7,3.3,0.2c0.4,0.4,0.8,0.8,1.2,1.2c0.9,0.9,1,2.3,0.2,3.3
		C1014.2,333.1,1013.5,333.4,1012.9,333.4z M1008,322.5c-1.3,0-2.3-1-2.3-2.3v-0.3c0-0.7,0-1.4,0.1-2.1c0.2-1.3,1.3-2.2,2.6-2
		c1.3,0.2,2.2,1.3,2,2.6c-0.1,0.5-0.1,0.9-0.1,1.4v0.2C1010.4,321.4,1009.4,322.5,1008,322.5C1008.1,322.5,1008.1,322.5,1008,322.5z
		 M1012.5,311.3c-0.5,0-0.9-0.1-1.3-0.4c-1-0.7-1.3-2.2-0.6-3.2c0.4-0.5,0.7-1.1,1.1-1.6c0.7-1.1,2.1-1.4,3.2-0.7
		c1.1,0.7,1.4,2.1,0.7,3.2c-0.4,0.6-0.8,1.2-1.2,1.8C1013.9,311,1013.2,311.3,1012.5,311.3z M1016.4,300c-1.2,0-2.2-0.9-2.3-2.1
		c0-0.6-0.1-1.2-0.2-1.7c-0.2-1.2,0.6-2.5,1.8-2.7c1.3-0.2,2.5,0.6,2.7,1.8c0.2,0.8,0.3,1.6,0.3,2.3c0.1,1.3-0.9,2.4-2.1,2.5
		C1016.5,300,1016.5,300,1016.4,300z"/>
	<path class="st1" d="M999.7,528.7c-0.9,0-1.7-0.5-2.1-1.3c-0.3-0.6-0.6-1.1-0.9-1.6c-0.7-1.1-0.3-2.5,0.8-3.2s2.5-0.3,3.2,0.8
		c0.4,0.6,0.7,1.3,1.1,2c0.6,1.1,0.1,2.5-1.1,3.1C1000.4,528.6,1000.1,528.7,999.7,528.7z M992.6,518.7c-0.7,0-1.5-0.4-1.9-1
		c-0.4-0.6-0.8-1.2-1.2-1.9c-0.6-1.1-0.2-2.5,0.9-3.1c1.1-0.6,2.5-0.2,3.1,0.9c0.3,0.5,0.6,1.1,1,1.6c0.7,1.1,0.4,2.5-0.6,3.2
		C993.5,518.6,993.1,518.7,992.6,518.7z M989.1,507.2c-1.3,0-2.3-1-2.3-2.3v-0.3v-0.4c0-0.5,0-1.1,0.1-1.6c0.1-1.3,1.2-2.2,2.5-2.2
		c1.3,0.1,2.2,1.2,2.1,2.5c0,0.4,0,0.9-0.1,1.3v0.3v0.2C991.4,506.1,990.4,507.2,989.1,507.2L989.1,507.2z M992.2,495.6
		c-0.4,0-0.9-0.1-1.3-0.4c-1.1-0.7-1.4-2.1-0.7-3.2c0.4-0.6,0.8-1.2,1.3-1.8c0.8-1,2.2-1.2,3.2-0.4c1,0.8,1.2,2.2,0.4,3.2
		c-0.4,0.5-0.7,1-1.1,1.5C993.7,495.2,993,495.6,992.2,495.6z M999.7,485.8c-0.4,0-0.8-0.1-1.2-0.3c-1.1-0.6-1.5-2.1-0.8-3.2
		c0.3-0.5,0.6-1,0.8-1.6c0.5-1.2,1.9-1.7,3.1-1.1c1.2,0.5,1.7,1.9,1.1,3.1c-0.3,0.7-0.7,1.4-1.1,2
		C1001.2,485.4,1000.5,485.8,999.7,485.8z M1002.3,474.1c-1.2,0-2.2-1-2.3-2.2c0-0.6-0.1-1.2-0.2-1.8c-0.2-1.3,0.7-2.4,2-2.6
		s2.4,0.7,2.6,2c0.1,0.7,0.2,1.5,0.2,2.2C1004.7,473,1003.7,474.1,1002.3,474.1C1002.4,474.1,1002.4,474.1,1002.3,474.1z
		 M998.2,462.7c-0.7,0-1.4-0.3-1.9-0.9c-0.4-0.5-0.8-1-1.2-1.5c-0.8-1-0.6-2.4,0.4-3.2c1-0.8,2.4-0.6,3.2,0.4
		c0.4,0.6,0.9,1.1,1.3,1.7c0.7,1,0.5,2.5-0.5,3.2C999.2,462.6,998.7,462.7,998.2,462.7z M991.3,452.7c-0.9,0-1.8-0.5-2.1-1.4
		c-0.3-0.7-0.6-1.4-0.8-2.2c-0.4-1.2,0.3-2.5,1.6-2.9c1.2-0.4,2.5,0.3,2.9,1.6c0.2,0.6,0.4,1.2,0.6,1.7c0.5,1.2-0.1,2.5-1.2,3
		C991.9,452.6,991.6,452.7,991.3,452.7z M990.1,440.6c-0.1,0-0.3,0-0.4,0c-1.3-0.2-2.1-1.4-1.9-2.7c0.1-0.8,0.3-1.5,0.5-2.2
		c0.3-1.2,1.6-1.9,2.8-1.6s2,1.6,1.6,2.8c-0.2,0.6-0.3,1.1-0.4,1.8C992.2,439.8,991.2,440.6,990.1,440.6z M995.6,429.8
		c-0.5,0-1-0.2-1.5-0.5c-1-0.8-1.1-2.3-0.3-3.2l1.3-1.6c0.8-1,2.3-1.1,3.3-0.3c1,0.8,1.1,2.3,0.3,3.2l-1.3,1.6
		C996.9,429.5,996.2,429.8,995.6,429.8z M1002.1,419.6c-0.2,0-0.5,0-0.7-0.1c-1.2-0.4-1.9-1.7-1.5-2.9c0.2-0.5,0.3-1.1,0.4-1.7
		c0.2-1.2,1.5-2.1,2.7-1.8c1.3,0.2,2.1,1.5,1.8,2.7c-0.2,0.8-0.3,1.5-0.6,2.2C1004,419,1003.1,419.6,1002.1,419.6z M1002.4,407.5
		c-1,0-2-0.7-2.2-1.7c-0.2-0.6-0.3-1.2-0.5-1.7c-0.5-1.2,0.1-2.5,1.3-3c1.2-0.4,2.5,0.1,3,1.3c0.3,0.7,0.5,1.5,0.7,2.2
		c0.3,1.2-0.4,2.5-1.7,2.8C1002.8,407.5,1002.6,407.5,1002.4,407.5z M996.3,397c-0.7,0-1.3-0.3-1.8-0.9c-0.4-0.5-0.9-1.1-1.3-1.7
		c-0.8-1-0.6-2.5,0.5-3.2c1-0.8,2.5-0.6,3.2,0.5c0.4,0.5,0.8,1,1.2,1.5c0.8,1,0.6,2.4-0.3,3.2C997.3,396.8,996.8,397,996.3,397z
		 M990.8,386.2c-1.1,0-2.1-0.8-2.3-1.9c-0.1-0.7-0.2-1.5-0.3-2.2c-0.1-1.3,0.9-2.4,2.1-2.5c1.3-0.1,2.4,0.9,2.5,2.1
		c0,0.6,0.1,1.2,0.2,1.8c0.2,1.3-0.6,2.4-1.9,2.7C991.1,386.2,990.9,386.2,990.8,386.2z M992,374.2c-0.3,0-0.6-0.1-0.9-0.2
		c-1.2-0.5-1.7-1.8-1.3-3c0.3-0.7,0.6-1.4,1-2.1c0.6-1.1,2-1.5,3.1-0.9s1.5,2,0.9,3.1c-0.3,0.5-0.5,1-0.8,1.6
		C993.8,373.6,992.9,374.2,992,374.2z M999.1,364.2c-0.5,0-1-0.2-1.4-0.5c-1-0.8-1.2-2.2-0.4-3.2c0.4-0.5,0.8-1,1.1-1.5
		c0.7-1.1,2.2-1.3,3.2-0.6c1.1,0.7,1.3,2.2,0.6,3.2c-0.4,0.6-0.9,1.2-1.3,1.8C1000.4,363.9,999.7,364.2,999.1,364.2z M1003.7,353.1
		c-0.1,0-0.1,0-0.2,0c-1.3-0.1-2.2-1.2-2.1-2.5c0.1-0.6,0.1-1.2,0.1-1.9c0-1.3,1-2.3,2.3-2.3l0,0c1.3,0,2.3,1.1,2.3,2.3
		c0,0.8,0,1.5-0.1,2.2C1005.9,352.2,1004.9,353.1,1003.7,353.1z"/>
	<path class="st1" d="M1275.6,401.5c-1.3,0-2.3-1-2.3-2.3V365c0-1.3,1-2.3,2.3-2.3s2.3,1,2.3,2.3v34.2
		C1277.9,400.5,1276.9,401.5,1275.6,401.5z"/>
	<path class="st1" d="M1094.7,307.2c-0.3,0-0.6-0.1-0.9-0.2c-1.2-0.5-1.7-1.8-1.2-3c0.9-2.2,24.1-54.6,125.8-52
		c1.3,0,2.3,1.1,2.2,2.4c0,1.3-1,2.3-2.4,2.2c-98.4-2.5-121.2,48.7-121.4,49.2C1096.4,306.7,1095.6,307.2,1094.7,307.2z"/>
	<path class="st1" d="M288.3,931.6c-1.3,0-2.3-1-2.3-2.3v-68.5c0-1.3,1-2.3,2.3-2.3c1.3,0,2.3,1,2.3,2.3v68.5
		C290.6,930.5,289.6,931.6,288.3,931.6z"/>
	<path class="st1" d="M334.8,885.1c-0.6,0-1.2-0.2-1.6-0.7c-0.9-0.9-0.9-2.4,0-3.3l16.8-16.8c0.9-0.9,2.4-0.9,3.3,0s0.9,2.4,0,3.3
		l-16.9,16.8C336,884.8,335.4,885.1,334.8,885.1z"/>
	<path class="st1" d="M333.7,922c-0.6,0-1.2-0.2-1.6-0.7c-0.9-0.9-0.9-2.4,0-3.3l49.3-49.3c0.9-0.9,2.4-0.9,3.3,0s0.9,2.4,0,3.3
		l-49.3,49.3C334.9,921.8,334.3,922,333.7,922z"/>
	<path class="st1" d="M334.8,961.3c-0.6,0-1.2-0.2-1.6-0.7c-0.9-0.9-0.9-2.4,0-3.3l70.8-70.8c0.9-0.9,2.4-0.9,3.3,0s0.9,2.4,0,3.3
		l-70.8,70.8C336,961.1,335.4,961.3,334.8,961.3z"/>
	<path class="st1" d="M375.1,961.3c-0.6,0-1.2-0.2-1.6-0.7c-0.9-0.9-0.9-2.4,0-3.3l73.5-73.5c0.9-0.9,2.4-0.9,3.3,0s0.9,2.4,0,3.3
		l-73.5,73.5C376.3,961.1,375.7,961.3,375.1,961.3z"/>
	<path class="st1" d="M421,961.3c-0.6,0-1.2-0.2-1.6-0.7c-0.9-0.9-0.9-2.4,0-3.3l93.6-93.6c0.9-0.9,2.4-0.9,3.3,0
		c0.9,0.9,0.9,2.4,0,3.3l-93.6,93.6C422.1,961.1,421.5,961.3,421,961.3z"/>
	<path class="st1" d="M467.8,961.3c-0.6,0-1.2-0.2-1.6-0.7c-0.9-0.9-0.9-2.4,0-3.3l48.1-48.1c0.9-0.9,2.4-0.9,3.3,0
		c0.9,0.9,0.9,2.4,0,3.3l-48.1,48.1C468.9,961.1,468.3,961.3,467.8,961.3z"/>
	<path class="st1" d="M507.5,961.3c-0.6,0-1.2-0.2-1.6-0.7c-0.9-0.9-0.9-2.4,0-3.3l8.1-8.1c0.9-0.9,2.4-0.9,3.3,0
		c0.9,0.9,0.9,2.4,0,3.3l-8.1,8.1C508.7,961.1,508.1,961.3,507.5,961.3z"/>
	<path class="st1" d="M1042.2,860.6c-0.8,0-1.6-0.4-2-1.2c-6.9-13.2-8-35.9-8-36.8c-0.1-1.3,0.9-2.3,2.2-2.4
		c1.3-0.1,2.3,0.9,2.4,2.2c0,0.2,1,22.6,7.5,34.9c0.6,1.1,0.2,2.5-1,3.1C1043,860.5,1042.6,860.6,1042.2,860.6z"/>
	<path class="st1" d="M274.1,626.5c-1.3,0-2.4-0.9-2.7-2.2c-0.3-1.5,0.7-3,2.2-3.3c0.2,0,0.4-0.1,0.6-0.1c1.3,0,2.4,0.9,2.7,2.2
		c0.1,0.7,0,1.5-0.4,2.1s-1,1-1.8,1.2C274.4,626.5,274.3,626.5,274.1,626.5L274.1,626.5z"/>
	<path class="st1" d="M574.3,379.4c-1.3,0-2.4-0.9-2.7-2.2c-0.1-0.7,0-1.5,0.4-2.1c0.4-0.6,1-1,1.8-1.2c0.2,0,0.4-0.1,0.6-0.1
		c1.3,0,2.4,0.9,2.7,2.2c0.3,1.5-0.7,3-2.2,3.3C574.6,379.3,574.4,379.4,574.3,379.4z"/>
	<path class="st1" d="M288.3,944.9c-1.3,0-2.4-0.9-2.7-2.2c-0.1-0.7,0-1.5,0.4-2.1s1-1,1.8-1.2c0.2,0,0.4-0.1,0.6-0.1
		c1.3,0,2.4,0.9,2.7,2.2c0.3,1.5-0.7,3-2.2,3.3C288.7,944.9,288.5,944.9,288.3,944.9z"/>
	<path class="st1" d="M1432.5,856.3c-1.3,0-2.4-0.9-2.7-2.2c-0.3-1.5,0.7-3,2.2-3.3c0.2,0,0.4-0.1,0.6-0.1c1.3,0,2.5,0.9,2.7,2.2
		c0.3,1.5-0.7,3-2.2,3.3C1432.9,856.3,1432.7,856.3,1432.5,856.3z"/>
	<path class="st1" d="M1418.6,731.7c-1.3,0-2.4-0.9-2.7-2.2c-0.3-1.5,0.7-3,2.2-3.3c0.2,0,0.4-0.1,0.6-0.1c1.3,0,2.4,0.9,2.7,2.2
		c0.1,0.7,0,1.5-0.4,2.1s-1,1-1.8,1.2C1419,731.7,1418.8,731.7,1418.6,731.7z"/>
	<path class="st1" d="M1294.8,633.1c-1.3,0-2.4-0.9-2.7-2.2c-0.1-0.7,0-1.5,0.4-2.1s1-1,1.8-1.2c0.2,0,0.4-0.1,0.6-0.1
		c1.3,0,2.4,0.9,2.7,2.2c0.3,1.5-0.7,3-2.2,3.3C1295.1,633.1,1294.9,633.1,1294.8,633.1z"/>
	<path class="st1" d="M1236,640.8c-1.3,0-2.4-0.9-2.7-2.2c-0.1-0.7,0-1.5,0.4-2.1s1-1,1.8-1.2c0.2,0,0.4-0.1,0.6-0.1
		c1.3,0,2.4,0.9,2.7,2.2c0.3,1.5-0.7,3-2.2,3.3C1236.3,640.8,1236.1,640.8,1236,640.8z"/>
	<path class="st1" d="M1425,494.3c-1.3,0-2.4-0.9-2.7-2.2c-0.3-1.5,0.7-3,2.2-3.3c0.2,0,0.4-0.1,0.6-0.1c1.3,0,2.4,0.9,2.7,2.2
		c0.1,0.7,0,1.5-0.4,2.1s-1,1-1.8,1.2C1425.4,494.3,1425.2,494.3,1425,494.3z"/>
	<path class="st1" d="M1237.2,261.1c-1.3,0-2.4-0.9-2.7-2.2c-0.1-0.7,0-1.5,0.4-2.1s1-1,1.8-1.2c0.2,0,0.4-0.1,0.6-0.1
		c1.3,0,2.4,0.9,2.7,2.2c0.3,1.5-0.7,3-2.2,3.3C1237.6,261.1,1237.4,261.1,1237.2,261.1z"/>
	<path class="st1" d="M1043.5,590.6c-1.3,0-2.4-0.9-2.7-2.2c-0.3-1.5,0.7-3,2.2-3.3c0.2,0,0.4-0.1,0.6-0.1c1.3,0,2.4,0.9,2.7,2.2
		c0.1,0.7,0,1.5-0.4,2.1c-0.4,0.6-1,1-1.8,1.2C1043.9,590.5,1043.7,590.6,1043.5,590.6z"/>
	<path class="st1" d="M815.2,771c-0.6,0-1.3-0.3-1.7-0.8c-0.8-1-0.7-2.4,0.2-3.3l1.5-1.3c1-0.8,2.4-0.7,3.3,0.2
		c0.8,1,0.7,2.4-0.2,3.3l-1.5,1.3C816.3,770.8,815.7,771,815.2,771z M983.7,770.8c-0.5,0-1.1-0.2-1.5-0.6l-1.6-1.3
		c-1-0.8-1.1-2.3-0.2-3.3c0.8-1,2.3-1.1,3.3-0.2l1.6,1.3c1,0.8,1.1,2.3,0.2,3.3C985,770.5,984.3,770.8,983.7,770.8z M824.4,762.9
		c-0.6,0-1.3-0.3-1.7-0.8c-0.8-1-0.7-2.4,0.2-3.3l1.5-1.3c1-0.8,2.4-0.7,3.3,0.2c0.8,1,0.7,2.4-0.2,3.3l-1.6,1.4
		C825.5,762.8,825,762.9,824.4,762.9z M974.4,762.8c-0.5,0-1.1-0.2-1.5-0.6l-1.6-1.3c-1-0.8-1.1-2.3-0.2-3.3c0.8-1,2.3-1.1,3.3-0.2
		l1.6,1.3c1,0.8,1.1,2.3,0.2,3.3C975.7,762.5,975,762.8,974.4,762.8z M833.7,754.9c-0.6,0-1.3-0.3-1.7-0.8c-0.8-1-0.7-2.4,0.2-3.3
		l1.5-1.3c1-0.8,2.4-0.7,3.3,0.2c0.8,1,0.7,2.4-0.2,3.3l-1.5,1.3C834.8,754.7,834.2,754.9,833.7,754.9z M965.1,754.8
		c-0.5,0-1.1-0.2-1.5-0.6l-1.6-1.3c-1-0.8-1.1-2.3-0.2-3.3c0.8-1,2.3-1.1,3.3-0.2l1.6,1.3c1,0.8,1.1,2.3,0.2,3.3
		C966.4,754.5,965.7,754.8,965.1,754.8z M842.9,746.8c-0.6,0-1.3-0.3-1.7-0.8c-0.8-1-0.7-2.4,0.2-3.3l1.5-1.3c1-0.8,2.4-0.7,3.3,0.2
		c0.8,1,0.7,2.4-0.2,3.3l-1.5,1.3C844,746.6,843.5,746.8,842.9,746.8z M955.8,746.8c-0.5,0-1.1-0.2-1.5-0.6l-1.6-1.3
		c-1-0.8-1.1-2.3-0.2-3.3c0.8-1,2.3-1.1,3.3-0.2l1.6,1.3c1,0.8,1.1,2.3,0.2,3.3C957.1,746.5,956.4,746.8,955.8,746.8z M946.5,738.8
		c-0.5,0-1.1-0.2-1.5-0.6l-1.6-1.3c-1-0.8-1.1-2.3-0.2-3.3c0.8-1,2.3-1.1,3.3-0.2l1.6,1.3c1,0.8,1.1,2.3,0.2,3.3
		C947.7,738.5,947.1,738.8,946.5,738.8z M852.2,738.7c-0.6,0-1.3-0.3-1.7-0.8c-0.8-1-0.7-2.4,0.2-3.3l1.5-1.3c1-0.8,2.4-0.7,3.3,0.2
		c0.8,1,0.7,2.4-0.2,3.3l-1.5,1.3C853.2,738.5,852.7,738.7,852.2,738.7z M937.1,730.8c-0.5,0-1.1-0.2-1.5-0.6l-1.6-1.3
		c-1-0.8-1.1-2.3-0.2-3.3c0.8-1,2.3-1.1,3.3-0.2l1.6,1.3c1,0.8,1.1,2.3,0.2,3.3C938.4,730.5,937.8,730.8,937.1,730.8z M861.4,730.6
		c-0.6,0-1.3-0.3-1.7-0.8c-0.8-1-0.7-2.4,0.2-3.3l1.5-1.3c1-0.8,2.4-0.7,3.3,0.2c0.8,1,0.7,2.4-0.2,3.3L863,730
		C862.5,730.4,861.9,730.6,861.4,730.6z M927.8,722.8c-0.5,0-1.1-0.2-1.5-0.6l-1.6-1.3c-1-0.8-1.1-2.3-0.2-3.3
		c0.8-1,2.3-1.1,3.3-0.2l1.6,1.3c1,0.8,1.1,2.3,0.2,3.3C929.1,722.5,928.5,722.8,927.8,722.8z M870.6,722.5c-0.6,0-1.3-0.3-1.7-0.8
		c-0.8-1-0.7-2.4,0.2-3.3l1.5-1.3c1-0.8,2.4-0.7,3.3,0.2c0.8,1,0.7,2.4-0.2,3.3l-1.5,1.3C871.7,722.3,871.2,722.5,870.6,722.5z
		 M918.5,714.7c-0.5,0-1.1-0.2-1.5-0.6l-1.6-1.3c-1-0.8-1.1-2.3-0.2-3.3c0.8-1,2.3-1.1,3.3-0.2l1.6,1.3c1,0.8,1.1,2.3,0.2,3.3
		C919.8,714.5,919.2,714.7,918.5,714.7z M879.9,714.4c-0.6,0-1.3-0.3-1.7-0.8c-0.8-1-0.7-2.4,0.2-3.3l1.5-1.3c1-0.8,2.4-0.7,3.3,0.2
		c0.8,1,0.7,2.4-0.2,3.3l-1.5,1.3C881,714.2,880.4,714.4,879.9,714.4z M909.2,706.7c-0.5,0-1.1-0.2-1.5-0.6l-1.6-1.3
		c-1-0.8-1.1-2.3-0.2-3.3c0.8-1,2.3-1.1,3.3-0.2l1.6,1.3c1,0.8,1.1,2.3,0.2,3.3C910.5,706.5,909.9,706.7,909.2,706.7z M889.1,706.3
		c-0.6,0-1.3-0.3-1.7-0.8c-0.8-1-0.7-2.4,0.2-3.3l1.5-1.3c1-0.8,2.4-0.7,3.3,0.2c0.8,1,0.7,2.4-0.2,3.3l-1.5,1.3
		C890.2,706.2,889.7,706.3,889.1,706.3z M899.9,698.7c-0.5,0-1-0.2-1.4-0.5c-0.7,0-1.4-0.2-1.9-0.8c-0.8-1-0.7-2.4,0.2-3.3l0.5-0.4
		c0.9-0.8,2.2-0.8,3,0l1.1,0.9c1,0.8,1.1,2.3,0.2,3.3C901.2,698.5,900.5,698.7,899.9,698.7z"/>
	<path class="st1" d="M361.1,776.8h-2c-1.3,0-2.3-1-2.3-2.3s1-2.3,2.3-2.3h2c1.3,0,2.3,1,2.3,2.3
		C363.4,775.7,362.4,776.8,361.1,776.8z M348.9,776.8h-2c-1.3,0-2.3-1-2.3-2.3s1-2.3,2.3-2.3h2c1.3,0,2.3,1,2.3,2.3
		C351.2,775.7,350.1,776.8,348.9,776.8z M336.6,776.8h-2c-1.3,0-2.3-1-2.3-2.3s1-2.3,2.3-2.3h2c1.3,0,2.3,1,2.3,2.3
		C338.9,775.7,337.9,776.8,336.6,776.8z M324.3,776.8h-2c-1.3,0-2.3-1-2.3-2.3s1-2.3,2.3-2.3h2c1.3,0,2.3,1,2.3,2.3
		C326.6,775.7,325.6,776.8,324.3,776.8z M312,776.8h-2c-1.3,0-2.3-1-2.3-2.3s1-2.3,2.3-2.3h2c1.3,0,2.3,1,2.3,2.3
		C314.3,775.7,313.3,776.8,312,776.8z M299.7,776.8h-2c-1.3,0-2.3-1-2.3-2.3s1-2.3,2.3-2.3h2c1.3,0,2.3,1,2.3,2.3
		C302.1,775.7,301,776.8,299.7,776.8z M287.5,776.8h-2c-1.3,0-2.3-1-2.3-2.3s1-2.3,2.3-2.3h2c1.3,0,2.3,1,2.3,2.3
		C289.8,775.7,288.7,776.8,287.5,776.8z M275.2,776.8h-2c-1.3,0-2.3-1-2.3-2.3s1-2.3,2.3-2.3h2c1.3,0,2.3,1,2.3,2.3
		C277.5,775.7,276.5,776.8,275.2,776.8z M262.9,776.8h-2c-1.3,0-2.3-1-2.3-2.3s1-2.3,2.3-2.3h2c1.3,0,2.3,1,2.3,2.3
		C265.2,775.7,264.2,776.8,262.9,776.8z M250.6,776.8h-2c-1.3,0-2.3-1-2.3-2.3s1-2.3,2.3-2.3h2c1.3,0,2.3,1,2.3,2.3
		C252.9,775.7,251.9,776.8,250.6,776.8z"/>
	<path class="st1" d="M1412,1008.4h-2c-1.3,0-2.3-1-2.3-2.3s1-2.3,2.3-2.3h2c1.3,0,2.3,1,2.3,2.3S1413.2,1008.4,1412,1008.4z
		 M1399.7,1008.4h-2c-1.3,0-2.3-1-2.3-2.3s1-2.3,2.3-2.3h2c1.3,0,2.3,1,2.3,2.3C1402,1007.4,1401,1008.4,1399.7,1008.4z
		 M1387.4,1008.4h-2c-1.3,0-2.3-1-2.3-2.3s1-2.3,2.3-2.3h2c1.3,0,2.3,1,2.3,2.3S1388.7,1008.4,1387.4,1008.4z M1375.1,1008.4h-2
		c-1.3,0-2.3-1-2.3-2.3s1-2.3,2.3-2.3h2c1.3,0,2.3,1,2.3,2.3S1376.4,1008.4,1375.1,1008.4z M1362.8,1008.4h-2c-1.3,0-2.3-1-2.3-2.3
		s1-2.3,2.3-2.3h2c1.3,0,2.3,1,2.3,2.3C1365.2,1007.4,1364.1,1008.4,1362.8,1008.4z M1350.6,1008.4h-2c-1.3,0-2.3-1-2.3-2.3
		s1-2.3,2.3-2.3h2c1.3,0,2.3,1,2.3,2.3S1351.8,1008.4,1350.6,1008.4z M1338.3,1008.4h-2c-1.3,0-2.3-1-2.3-2.3s1-2.3,2.3-2.3h2
		c1.3,0,2.3,1,2.3,2.3C1340.6,1007.4,1339.6,1008.4,1338.3,1008.4z M1326,1008.4h-2c-1.3,0-2.3-1-2.3-2.3s1-2.3,2.3-2.3h2
		c1.3,0,2.3,1,2.3,2.3S1327.3,1008.4,1326,1008.4z M1313.7,1008.4h-2c-1.3,0-2.3-1-2.3-2.3s1-2.3,2.3-2.3h2c1.3,0,2.3,1,2.3,2.3
		C1316,1007.4,1315,1008.4,1313.7,1008.4z M1301.5,1008.4h-2c-1.3,0-2.3-1-2.3-2.3s1-2.3,2.3-2.3h2c1.3,0,2.3,1,2.3,2.3
		S1302.7,1008.4,1301.5,1008.4z M1289.2,1008.4h-2c-1.3,0-2.3-1-2.3-2.3s1-2.3,2.3-2.3h2c1.3,0,2.3,1,2.3,2.3
		C1291.5,1007.4,1290.5,1008.4,1289.2,1008.4z M1276.9,1008.4h-2c-1.3,0-2.3-1-2.3-2.3s1-2.3,2.3-2.3h2c1.3,0,2.3,1,2.3,2.3
		S1278.2,1008.4,1276.9,1008.4z M1264.6,1008.4h-2c-1.3,0-2.3-1-2.3-2.3s1-2.3,2.3-2.3h2c1.3,0,2.3,1,2.3,2.3
		S1265.9,1008.4,1264.6,1008.4z M1252.3,1008.4h-2c-1.3,0-2.3-1-2.3-2.3s1-2.3,2.3-2.3h2c1.3,0,2.3,1,2.3,2.3
		C1254.6,1007.4,1253.6,1008.4,1252.3,1008.4z M1240.1,1008.4h-2c-1.3,0-2.3-1-2.3-2.3s1-2.3,2.3-2.3h2c1.3,0,2.3,1,2.3,2.3
		S1241.3,1008.4,1240.1,1008.4z M1227.8,1008.4h-2c-1.3,0-2.3-1-2.3-2.3s1-2.3,2.3-2.3h2c1.3,0,2.3,1,2.3,2.3
		C1230.1,1007.4,1229.1,1008.4,1227.8,1008.4z M1215.5,1008.4h-2c-1.3,0-2.3-1-2.3-2.3s1-2.3,2.3-2.3h2c1.3,0,2.3,1,2.3,2.3
		S1216.8,1008.4,1215.5,1008.4z M1203.2,1008.4h-2c-1.3,0-2.3-1-2.3-2.3s1-2.3,2.3-2.3h2c1.3,0,2.3,1,2.3,2.3
		C1205.5,1007.4,1204.5,1008.4,1203.2,1008.4z M1191,1008.4h-2c-1.3,0-2.3-1-2.3-2.3s1-2.3,2.3-2.3h2c1.3,0,2.3,1,2.3,2.3
		S1192.2,1008.4,1191,1008.4z M1178.7,1008.4h-2c-1.3,0-2.3-1-2.3-2.3s1-2.3,2.3-2.3h2c1.3,0,2.3,1,2.3,2.3
		C1181,1007.4,1179.9,1008.4,1178.7,1008.4z M1166.4,1008.4h-2c-1.3,0-2.3-1-2.3-2.3s1-2.3,2.3-2.3h2c1.3,0,2.3,1,2.3,2.3
		S1167.7,1008.4,1166.4,1008.4z M1154.1,1008.4h-2c-1.3,0-2.3-1-2.3-2.3s1-2.3,2.3-2.3h2c1.3,0,2.3,1,2.3,2.3
		S1155.4,1008.4,1154.1,1008.4z M1141.8,1008.4h-2c-1.3,0-2.3-1-2.3-2.3s1-2.3,2.3-2.3h2c1.3,0,2.3,1,2.3,2.3
		C1144.1,1007.4,1143.1,1008.4,1141.8,1008.4z M1129.6,1008.4h-2c-1.3,0-2.3-1-2.3-2.3s1-2.3,2.3-2.3h2c1.3,0,2.3,1,2.3,2.3
		S1130.8,1008.4,1129.6,1008.4z M1117.3,1008.4h-2c-1.3,0-2.3-1-2.3-2.3s1-2.3,2.3-2.3h2c1.3,0,2.3,1,2.3,2.3
		S1118.6,1008.4,1117.3,1008.4z M1105,1008.4h-2c-1.3,0-2.3-1-2.3-2.3s1-2.3,2.3-2.3h2c1.3,0,2.3,1,2.3,2.3
		S1106.3,1008.4,1105,1008.4z M1092.7,1008.4h-2c-1.3,0-2.3-1-2.3-2.3s1-2.3,2.3-2.3h2c1.3,0,2.3,1,2.3,2.3
		S1094,1008.4,1092.7,1008.4z M1080.4,1008.4h-2c-1.3,0-2.3-1-2.3-2.3s1-2.3,2.3-2.3h2c1.3,0,2.3,1,2.3,2.3
		C1082.8,1007.4,1081.7,1008.4,1080.4,1008.4z M1068.2,1008.4h-2c-1.3,0-2.3-1-2.3-2.3s1-2.3,2.3-2.3h2c1.3,0,2.3,1,2.3,2.3
		S1069.4,1008.4,1068.2,1008.4z M1055.9,1008.4h-2c-1.3,0-2.3-1-2.3-2.3s1-2.3,2.3-2.3h2c1.3,0,2.3,1,2.3,2.3
		S1057.2,1008.4,1055.9,1008.4z M1043.6,1008.4h-2c-1.3,0-2.3-1-2.3-2.3s1-2.3,2.3-2.3h2c1.3,0,2.3,1,2.3,2.3
		S1044.9,1008.4,1043.6,1008.4z M1031.3,1008.4h-2c-1.3,0-2.3-1-2.3-2.3s1-2.3,2.3-2.3h2c1.3,0,2.3,1,2.3,2.3
		S1032.6,1008.4,1031.3,1008.4z M1019.1,1008.4h-2c-1.3,0-2.3-1-2.3-2.3s1-2.3,2.3-2.3h2c1.3,0,2.3,1,2.3,2.3
		S1020.3,1008.4,1019.1,1008.4z M1006.8,1008.4h-2c-1.3,0-2.3-1-2.3-2.3s1-2.3,2.3-2.3h2c1.3,0,2.3,1,2.3,2.3
		S1008,1008.4,1006.8,1008.4z M994.5,1008.4h-2c-1.3,0-2.3-1-2.3-2.3s1-2.3,2.3-2.3h2c1.3,0,2.3,1,2.3,2.3
		C996.8,1007.4,995.8,1008.4,994.5,1008.4z M982.2,1008.4h-2c-1.3,0-2.3-1-2.3-2.3s1-2.3,2.3-2.3h2c1.3,0,2.3,1,2.3,2.3
		S983.5,1008.4,982.2,1008.4z M969.9,1008.4h-2c-1.3,0-2.3-1-2.3-2.3s1-2.3,2.3-2.3h2c1.3,0,2.3,1,2.3,2.3
		S971.2,1008.4,969.9,1008.4z M957.7,1008.4h-2c-1.3,0-2.3-1-2.3-2.3s1-2.3,2.3-2.3h2c1.3,0,2.3,1,2.3,2.3
		S958.9,1008.4,957.7,1008.4z M945.4,1008.4h-2c-1.3,0-2.3-1-2.3-2.3s1-2.3,2.3-2.3h2c1.3,0,2.3,1,2.3,2.3
		S946.7,1008.4,945.4,1008.4z M933.1,1008.4h-2c-1.3,0-2.3-1-2.3-2.3s1-2.3,2.3-2.3h2c1.3,0,2.3,1,2.3,2.3
		S934.4,1008.4,933.1,1008.4z M920.8,1008.4h-2c-1.3,0-2.3-1-2.3-2.3s1-2.3,2.3-2.3h2c1.3,0,2.3,1,2.3,2.3
		S922.1,1008.4,920.8,1008.4z M908.5,1008.4h-2c-1.3,0-2.3-1-2.3-2.3s1-2.3,2.3-2.3h2c1.3,0,2.3,1,2.3,2.3
		C910.9,1007.4,909.8,1008.4,908.5,1008.4z M896.3,1008.4h-2c-1.3,0-2.3-1-2.3-2.3s1-2.3,2.3-2.3h2c1.3,0,2.3,1,2.3,2.3
		S897.5,1008.4,896.3,1008.4z M884,1008.4h-2c-1.3,0-2.3-1-2.3-2.3s1-2.3,2.3-2.3h2c1.3,0,2.3,1,2.3,2.3
		C886.3,1007.4,885.3,1008.4,884,1008.4z M871.7,1008.4h-2c-1.3,0-2.3-1-2.3-2.3s1-2.3,2.3-2.3h2c1.3,0,2.3,1,2.3,2.3
		S873,1008.4,871.7,1008.4z M859.4,1008.4h-2c-1.3,0-2.3-1-2.3-2.3s1-2.3,2.3-2.3h2c1.3,0,2.3,1,2.3,2.3S860.7,1008.4,859.4,1008.4z
		 M847.2,1008.4h-2c-1.3,0-2.3-1-2.3-2.3s1-2.3,2.3-2.3h2c1.3,0,2.3,1,2.3,2.3S848.4,1008.4,847.2,1008.4z M834.9,1008.4h-2
		c-1.3,0-2.3-1-2.3-2.3s1-2.3,2.3-2.3h2c1.3,0,2.3,1,2.3,2.3S836.2,1008.4,834.9,1008.4z M822.6,1008.4h-2c-1.3,0-2.3-1-2.3-2.3
		s1-2.3,2.3-2.3h2c1.3,0,2.3,1,2.3,2.3S823.9,1008.4,822.6,1008.4z M810.3,1008.4h-2c-1.3,0-2.3-1-2.3-2.3s1-2.3,2.3-2.3h2
		c1.3,0,2.3,1,2.3,2.3S811.6,1008.4,810.3,1008.4z M798,1008.4h-2c-1.3,0-2.3-1-2.3-2.3s1-2.3,2.3-2.3h2c1.3,0,2.3,1,2.3,2.3
		C800.3,1007.4,799.3,1008.4,798,1008.4z M785.8,1008.4h-2c-1.3,0-2.3-1-2.3-2.3s1-2.3,2.3-2.3h2c1.3,0,2.3,1,2.3,2.3
		S787,1008.4,785.8,1008.4z M773.5,1008.4h-2c-1.3,0-2.3-1-2.3-2.3s1-2.3,2.3-2.3h2c1.3,0,2.3,1,2.3,2.3
		C775.8,1007.4,774.8,1008.4,773.5,1008.4z M761.2,1008.4h-2c-1.3,0-2.3-1-2.3-2.3s1-2.3,2.3-2.3h2c1.3,0,2.3,1,2.3,2.3
		S762.5,1008.4,761.2,1008.4z M748.9,1008.4h-2c-1.3,0-2.3-1-2.3-2.3s1-2.3,2.3-2.3h2c1.3,0,2.3,1,2.3,2.3
		S750.2,1008.4,748.9,1008.4z M736.7,1008.4h-2c-1.3,0-2.3-1-2.3-2.3s1-2.3,2.3-2.3h2c1.3,0,2.3,1,2.3,2.3
		S737.9,1008.4,736.7,1008.4z M724.4,1008.4h-2c-1.3,0-2.3-1-2.3-2.3s1-2.3,2.3-2.3h2c1.3,0,2.3,1,2.3,2.3
		S725.6,1008.4,724.4,1008.4z M712.1,1008.4h-2c-1.3,0-2.3-1-2.3-2.3s1-2.3,2.3-2.3h2c1.3,0,2.3,1,2.3,2.3
		S713.4,1008.4,712.1,1008.4z M699.8,1008.4h-2c-1.3,0-2.3-1-2.3-2.3s1-2.3,2.3-2.3h2c1.3,0,2.3,1,2.3,2.3
		S701.1,1008.4,699.8,1008.4z M687.5,1008.4h-2c-1.3,0-2.3-1-2.3-2.3s1-2.3,2.3-2.3h2c1.3,0,2.3,1,2.3,2.3
		C689.8,1007.4,688.8,1008.4,687.5,1008.4z M675.3,1008.4h-2c-1.3,0-2.3-1-2.3-2.3s1-2.3,2.3-2.3h2c1.3,0,2.3,1,2.3,2.3
		S676.5,1008.4,675.3,1008.4z M663,1008.4h-2c-1.3,0-2.3-1-2.3-2.3s1-2.3,2.3-2.3h2c1.3,0,2.3,1,2.3,2.3
		C665.3,1007.4,664.3,1008.4,663,1008.4z M650.7,1008.4h-2c-1.3,0-2.3-1-2.3-2.3s1-2.3,2.3-2.3h2c1.3,0,2.3,1,2.3,2.3
		S652,1008.4,650.7,1008.4z M638.4,1008.4h-2c-1.3,0-2.3-1-2.3-2.3s1-2.3,2.3-2.3h2c1.3,0,2.3,1,2.3,2.3S639.7,1008.4,638.4,1008.4z
		 M626.1,1008.4h-2c-1.3,0-2.3-1-2.3-2.3s1-2.3,2.3-2.3h2c1.3,0,2.3,1,2.3,2.3C628.5,1007.4,627.4,1008.4,626.1,1008.4z
		 M613.9,1008.4h-2c-1.3,0-2.3-1-2.3-2.3s1-2.3,2.3-2.3h2c1.3,0,2.3,1,2.3,2.3S615.1,1008.4,613.9,1008.4z M601.6,1008.4h-2
		c-1.3,0-2.3-1-2.3-2.3s1-2.3,2.3-2.3h2c1.3,0,2.3,1,2.3,2.3S602.9,1008.4,601.6,1008.4z M589.3,1008.4h-2c-1.3,0-2.3-1-2.3-2.3
		s1-2.3,2.3-2.3h2c1.3,0,2.3,1,2.3,2.3C591.6,1007.4,590.6,1008.4,589.3,1008.4z M577,1008.4h-2c-1.3,0-2.3-1-2.3-2.3s1-2.3,2.3-2.3
		h2c1.3,0,2.3,1,2.3,2.3S578.3,1008.4,577,1008.4z M564.8,1008.4h-2c-1.3,0-2.3-1-2.3-2.3s1-2.3,2.3-2.3h2c1.3,0,2.3,1,2.3,2.3
		C567.1,1007.4,566,1008.4,564.8,1008.4z M552.5,1008.4h-2c-1.3,0-2.3-1-2.3-2.3s1-2.3,2.3-2.3h2c1.3,0,2.3,1,2.3,2.3
		S553.8,1008.4,552.5,1008.4z M540.2,1008.4h-2c-1.3,0-2.3-1-2.3-2.3s1-2.3,2.3-2.3h2c1.3,0,2.3,1,2.3,2.3
		S541.5,1008.4,540.2,1008.4z M527.9,1008.4h-2c-1.3,0-2.3-1-2.3-2.3s1-2.3,2.3-2.3h2c1.3,0,2.3,1,2.3,2.3
		S529.2,1008.4,527.9,1008.4z M515.6,1008.4h-2c-1.3,0-2.3-1-2.3-2.3s1-2.3,2.3-2.3h2c1.3,0,2.3,1,2.3,2.3
		S516.9,1008.4,515.6,1008.4z M503.4,1008.4h-2c-1.3,0-2.3-1-2.3-2.3s1-2.3,2.3-2.3h2c1.3,0,2.3,1,2.3,2.3
		S504.6,1008.4,503.4,1008.4z M491.1,1008.4h-2c-1.3,0-2.3-1-2.3-2.3s1-2.3,2.3-2.3h2c1.3,0,2.3,1,2.3,2.3
		S492.4,1008.4,491.1,1008.4z M478.8,1008.4h-2c-1.3,0-2.3-1-2.3-2.3s1-2.3,2.3-2.3h2c1.3,0,2.3,1,2.3,2.3
		C481.1,1007.4,480.1,1008.4,478.8,1008.4z M466.5,1008.4h-2c-1.3,0-2.3-1-2.3-2.3s1-2.3,2.3-2.3h2c1.3,0,2.3,1,2.3,2.3
		S467.8,1008.4,466.5,1008.4z M454.3,1008.4h-2c-1.3,0-2.3-1-2.3-2.3s1-2.3,2.3-2.3h2c1.3,0,2.3,1,2.3,2.3
		C456.6,1007.4,455.5,1008.4,454.3,1008.4z M442,1008.4h-2c-1.3,0-2.3-1-2.3-2.3s1-2.3,2.3-2.3h2c1.3,0,2.3,1,2.3,2.3
		S443.2,1008.4,442,1008.4z M429.7,1008.4h-2c-1.3,0-2.3-1-2.3-2.3s1-2.3,2.3-2.3h2c1.3,0,2.3,1,2.3,2.3
		C432,1007.4,431,1008.4,429.7,1008.4z M417.4,1008.4h-2c-1.3,0-2.3-1-2.3-2.3s1-2.3,2.3-2.3h2c1.3,0,2.3,1,2.3,2.3
		S418.7,1008.4,417.4,1008.4z M405.1,1008.4h-2c-1.3,0-2.3-1-2.3-2.3s1-2.3,2.3-2.3h2c1.3,0,2.3,1,2.3,2.3
		S406.4,1008.4,405.1,1008.4z M392.9,1008.4h-2c-1.3,0-2.3-1-2.3-2.3s1-2.3,2.3-2.3h2c1.3,0,2.3,1,2.3,2.3
		S394.1,1008.4,392.9,1008.4z M380.6,1008.4h-2c-1.3,0-2.3-1-2.3-2.3s1-2.3,2.3-2.3h2c1.3,0,2.3,1,2.3,2.3
		S381.9,1008.4,380.6,1008.4z M368.3,1008.4h-2c-1.3,0-2.3-1-2.3-2.3s1-2.3,2.3-2.3h2c1.3,0,2.3,1,2.3,2.3
		S369.6,1008.4,368.3,1008.4z M356,1008.4h-2c-1.3,0-2.3-1-2.3-2.3s1-2.3,2.3-2.3h2c1.3,0,2.3,1,2.3,2.3
		C358.3,1007.4,357.3,1008.4,356,1008.4z M343.7,1008.4h-2c-1.3,0-2.3-1-2.3-2.3s1-2.3,2.3-2.3h2c1.3,0,2.3,1,2.3,2.3
		C346.1,1007.4,345,1008.4,343.7,1008.4z M331.5,1008.4h-2c-1.3,0-2.3-1-2.3-2.3s1-2.3,2.3-2.3h2c1.3,0,2.3,1,2.3,2.3
		C333.8,1007.4,332.7,1008.4,331.5,1008.4z"/>
	<path class="st1" d="M638,359c-1.2,0-2.3-1-2.3-2.2c0-1.3,1-2.3,2.2-2.4c0.6,0,1.3-0.1,1.9-0.1c1.3-0.1,2.4,0.8,2.5,2.1
		c0.1,1.3-0.9,2.4-2.1,2.5C639.5,359,638.7,359,638,359L638,359z M627.8,358.1c-0.2,0-0.3,0-0.5-0.1c-0.7-0.1-1.4-0.3-2.1-0.5
		c-1.2-0.3-2-1.6-1.6-2.8c0.3-1.2,1.6-2,2.8-1.6c0.6,0.2,1.2,0.3,1.9,0.4c1.2,0.3,2,1.5,1.8,2.7
		C629.8,357.4,628.9,358.1,627.8,358.1z M616.3,353.9c-0.4,0-0.7-0.1-1.1-0.3c-0.6-0.3-1.3-0.7-1.9-1.1c-1.1-0.7-1.4-2.1-0.8-3.2
		c0.7-1.1,2.1-1.4,3.2-0.8c0.6,0.3,1.1,0.7,1.7,1c1.1,0.6,1.5,2,0.9,3.1C617.9,353.4,617.1,353.9,616.3,353.9z M606.5,346.6
		c-0.6,0-1.2-0.2-1.6-0.7c-0.5-0.5-1-1-1.5-1.6c-0.9-0.9-0.8-2.4,0.1-3.3c0.9-0.9,2.4-0.8,3.3,0.1c0.4,0.5,0.9,0.9,1.3,1.4
		c0.9,0.9,0.9,2.4,0,3.3C607.7,346.4,607.1,346.6,606.5,346.6z M599.1,336.8c-0.8,0-1.6-0.4-2-1.2c-0.3-0.6-0.7-1.3-1-1.9
		c-0.6-1.1-0.1-2.5,1.1-3.1c1.1-0.6,2.5-0.1,3.1,1.1c0.3,0.6,0.6,1.2,0.9,1.7c0.6,1.1,0.2,2.5-0.9,3.1
		C599.9,336.7,599.5,336.8,599.1,336.8z M594.8,325.4c-1.1,0-2-0.7-2.2-1.8l-0.1-0.5c-0.1-0.5-0.2-1-0.3-1.6
		c-0.2-1.3,0.6-2.4,1.9-2.7c1.3-0.2,2.4,0.6,2.7,1.9c0.1,0.5,0.2,0.9,0.3,1.4l0.1,0.5c0.3,1.2-0.5,2.5-1.7,2.8
		C595.1,325.3,595,325.4,594.8,325.4z M593.9,313.2c-0.1,0-0.1,0-0.2,0c-1.3-0.1-2.2-1.2-2.1-2.5c0.1-0.7,0.1-1.4,0.2-2.1
		c0.1-1.3,1.3-2.2,2.6-2c1.3,0.1,2.2,1.3,2,2.6c-0.1,0.6-0.1,1.3-0.2,1.9C596.1,312.2,595.1,313.2,593.9,313.2z M596.5,301.2
		c-0.3,0-0.5,0-0.8-0.1c-1.2-0.4-1.8-1.8-1.4-3c0.3-0.7,0.5-1.3,0.8-2c0.5-1.2,1.9-1.7,3-1.2c1.2,0.5,1.7,1.9,1.2,3
		c-0.3,0.6-0.5,1.2-0.7,1.8C598.3,300.6,597.4,301.2,596.5,301.2z M602.3,290.5c-0.5,0-1-0.1-1.4-0.5c-1-0.8-1.2-2.2-0.5-3.2
		c0.4-0.6,0.9-1.1,1.3-1.7c0.8-1,2.3-1.1,3.2-0.3c1,0.8,1.1,2.3,0.3,3.2c-0.4,0.5-0.8,1-1.2,1.5C603.7,290.1,603,290.5,602.3,290.5z
		 M611,281.8c-0.7,0-1.4-0.3-1.8-0.9c-0.8-1-0.6-2.5,0.5-3.2c0.6-0.4,1.2-0.8,1.8-1.3c1.1-0.7,2.5-0.4,3.2,0.6
		c0.7,1.1,0.4,2.5-0.6,3.2c-0.5,0.4-1.1,0.7-1.6,1.1C611.9,281.6,611.5,281.8,611,281.8z M621.7,275.9c-0.9,0-1.8-0.6-2.2-1.5
		c-0.4-1.2,0.2-2.5,1.4-3c0.7-0.2,1.3-0.5,2-0.7c1.2-0.4,2.5,0.3,2.9,1.5c0.4,1.2-0.3,2.5-1.5,2.9c-0.6,0.2-1.2,0.4-1.8,0.6
		C622.3,275.9,622,275.9,621.7,275.9z"/>
	<polygon class="st4" points="337.3,319.3 343.4,331.5 356.9,333.5 347.1,343.1 349.4,356.5 337.3,350.2 325.2,356.5 327.5,343.1 
		317.7,333.5 331.3,331.5 	"/>
	<polygon class="st0" points="265.6,677.1 273.5,693.1 291.1,695.6 278.3,708 281.3,725.6 265.6,717.3 249.8,725.6 252.8,708 
		240.1,695.6 257.7,693.1 	"/>
	<path class="st1" d="M730.8,865.5c-0.1,0-0.2,0-0.2,0c-0.4,0-0.7-0.1-1.1-0.1c-0.4,0-0.7-0.1-1.1-0.2c-1.3-0.2-2.1-1.4-1.9-2.7
		c0.2-1.3,1.4-2.1,2.7-1.9c0.3,0.1,0.6,0.1,1,0.1c0.3,0,0.6,0.1,0.9,0.1c1.3,0.1,2.2,1.3,2.1,2.5C733,864.6,732,865.5,730.8,865.5z
		 M741,865c-1.1,0-2-0.7-2.3-1.8c-0.3-1.2,0.5-2.5,1.8-2.7c0.6-0.1,1.2-0.3,1.9-0.4c1.2-0.3,2.5,0.4,2.8,1.6
		c0.3,1.2-0.4,2.5-1.6,2.8c-0.7,0.2-1.4,0.4-2.1,0.5C741.3,864.9,741.1,865,741,865z M719.1,862c-0.4,0-0.7-0.1-1.1-0.3
		c-0.6-0.3-1.3-0.7-1.9-1.1c-1.1-0.7-1.4-2.1-0.8-3.2c0.7-1.1,2.1-1.4,3.2-0.8c0.5,0.3,1.1,0.6,1.7,0.9c1.1,0.6,1.6,2,1,3.1
		C720.7,861.5,719.9,862,719.1,862z M752.2,860.3c-0.8,0-1.5-0.4-1.9-1c-0.7-1.1-0.4-2.5,0.7-3.2c0.5-0.3,1.1-0.7,1.6-1.1
		c1-0.8,2.5-0.5,3.2,0.5c0.8,1,0.5,2.5-0.5,3.2c-0.6,0.4-1.2,0.9-1.8,1.3C753.1,860.2,752.7,860.3,752.2,860.3z M709.5,854.5
		c-0.6,0-1.3-0.3-1.7-0.8c-0.5-0.5-0.9-1.1-1.4-1.7c-0.8-1-0.6-2.5,0.4-3.2s2.5-0.6,3.2,0.4c0.4,0.5,0.8,1,1.2,1.5
		c0.8,1,0.7,2.4-0.2,3.3C710.6,854.3,710,854.5,709.5,854.5z M761.1,851.9c-0.5,0-0.9-0.1-1.3-0.4c-1-0.7-1.3-2.2-0.5-3.2
		c0.4-0.5,0.7-1,1.1-1.6c0.7-1.1,2.1-1.4,3.2-0.7c1.1,0.7,1.4,2.1,0.7,3.2c-0.4,0.6-0.8,1.2-1.2,1.8
		C762.5,851.5,761.8,851.9,761.1,851.9z M703.2,844c-0.9,0-1.8-0.6-2.2-1.5c-0.2-0.7-0.5-1.4-0.7-2.1c-0.4-1.2,0.3-2.5,1.6-2.9
		c1.2-0.4,2.5,0.3,2.9,1.6c0.2,0.6,0.4,1.2,0.6,1.8c0.4,1.2-0.2,2.5-1.4,3C703.8,843.9,703.5,844,703.2,844z M766.2,840.8
		c-0.2,0-0.4,0-0.6-0.1c-1.2-0.3-2-1.6-1.7-2.8c0.2-0.6,0.3-1.2,0.4-1.9c0.2-1.3,1.4-2.1,2.7-1.8c1.3,0.2,2.1,1.4,1.8,2.7
		c-0.1,0.7-0.3,1.4-0.5,2.1C768.2,840.1,767.2,840.8,766.2,840.8z M701.3,831.9C701.3,831.9,701.2,831.9,701.3,831.9
		c-1.3,0-2.3-1.1-2.3-2.4c0-0.7,0.1-1.5,0.1-2.2c0.1-1.3,1.2-2.2,2.5-2.1c1.3,0.1,2.2,1.2,2.1,2.5c-0.1,0.6-0.1,1.3-0.1,1.9
		C703.5,830.9,702.5,831.9,701.3,831.9z"/>
	<path class="st1" d="M1157.1,962.8h-2c-1.3,0-2.3-1-2.3-2.3s1-2.3,2.3-2.3h2c1.3,0,2.3,1,2.3,2.3S1158.3,962.8,1157.1,962.8z
		 M1144.8,962.8h-2c-1.3,0-2.3-1-2.3-2.3s1-2.3,2.3-2.3h2c1.3,0,2.3,1,2.3,2.3C1147.1,961.8,1146.1,962.8,1144.8,962.8z
		 M1132.5,962.8h-2c-1.3,0-2.3-1-2.3-2.3s1-2.3,2.3-2.3h2c1.3,0,2.3,1,2.3,2.3S1133.8,962.8,1132.5,962.8z M1120.2,962.8h-2
		c-1.3,0-2.3-1-2.3-2.3s1-2.3,2.3-2.3h2c1.3,0,2.3,1,2.3,2.3S1121.5,962.8,1120.2,962.8z M1107.9,962.8h-2c-1.3,0-2.3-1-2.3-2.3
		s1-2.3,2.3-2.3h2c1.3,0,2.3,1,2.3,2.3C1110.3,961.8,1109.2,962.8,1107.9,962.8z M1095.7,962.8h-2c-1.3,0-2.3-1-2.3-2.3
		s1-2.3,2.3-2.3h2c1.3,0,2.3,1,2.3,2.3S1096.9,962.8,1095.7,962.8z M1083.4,962.8h-2c-1.3,0-2.3-1-2.3-2.3s1-2.3,2.3-2.3h2
		c1.3,0,2.3,1,2.3,2.3S1084.7,962.8,1083.4,962.8z M1071.1,962.8h-2c-1.3,0-2.3-1-2.3-2.3s1-2.3,2.3-2.3h2c1.3,0,2.3,1,2.3,2.3
		S1072.4,962.8,1071.1,962.8z M1058.8,962.8h-2c-1.3,0-2.3-1-2.3-2.3s1-2.3,2.3-2.3h2c1.3,0,2.3,1,2.3,2.3
		S1060.1,962.8,1058.8,962.8z M1046.6,962.8h-2c-1.3,0-2.3-1-2.3-2.3s1-2.3,2.3-2.3h2c1.3,0,2.3,1,2.3,2.3
		S1047.8,962.8,1046.6,962.8z M1034.3,962.8h-2c-1.3,0-2.3-1-2.3-2.3s1-2.3,2.3-2.3h2c1.3,0,2.3,1,2.3,2.3
		S1035.6,962.8,1034.3,962.8z M1022,962.8h-2c-1.3,0-2.3-1-2.3-2.3s1-2.3,2.3-2.3h2c1.3,0,2.3,1,2.3,2.3S1023.3,962.8,1022,962.8z
		 M1009.7,962.8h-2c-1.3,0-2.3-1-2.3-2.3s1-2.3,2.3-2.3h2c1.3,0,2.3,1,2.3,2.3S1011,962.8,1009.7,962.8z M997.4,962.8h-2
		c-1.3,0-2.3-1-2.3-2.3s1-2.3,2.3-2.3h2c1.3,0,2.3,1,2.3,2.3S998.7,962.8,997.4,962.8z M985.2,962.8h-2c-1.3,0-2.3-1-2.3-2.3
		s1-2.3,2.3-2.3h2c1.3,0,2.3,1,2.3,2.3S986.4,962.8,985.2,962.8z M972.9,962.8h-2c-1.3,0-2.3-1-2.3-2.3s1-2.3,2.3-2.3h2
		c1.3,0,2.3,1,2.3,2.3S974.2,962.8,972.9,962.8z M960.6,962.8h-2c-1.3,0-2.3-1-2.3-2.3s1-2.3,2.3-2.3h2c1.3,0,2.3,1,2.3,2.3
		S961.9,962.8,960.6,962.8z M948.3,962.8h-2c-1.3,0-2.3-1-2.3-2.3s1-2.3,2.3-2.3h2c1.3,0,2.3,1,2.3,2.3S949.6,962.8,948.3,962.8z
		 M936,962.8h-2c-1.3,0-2.3-1-2.3-2.3s1-2.3,2.3-2.3h2c1.3,0,2.3,1,2.3,2.3C938.4,961.8,937.3,962.8,936,962.8z M923.8,962.8h-2
		c-1.3,0-2.3-1-2.3-2.3s1-2.3,2.3-2.3h2c1.3,0,2.3,1,2.3,2.3S925,962.8,923.8,962.8z M911.5,962.8h-2c-1.3,0-2.3-1-2.3-2.3
		s1-2.3,2.3-2.3h2c1.3,0,2.3,1,2.3,2.3C913.8,961.8,912.8,962.8,911.5,962.8z M899.2,962.8h-2c-1.3,0-2.3-1-2.3-2.3s1-2.3,2.3-2.3h2
		c1.3,0,2.3,1,2.3,2.3S900.5,962.8,899.2,962.8z M886.9,962.8h-2c-1.3,0-2.3-1-2.3-2.3s1-2.3,2.3-2.3h2c1.3,0,2.3,1,2.3,2.3
		S888.2,962.8,886.9,962.8z"/>
	<path class="st1" d="M825.7,955.8c-1.3,0-2.3-1-2.3-2.3v-4.6c0-1.3,1-2.3,2.3-2.3s2.3,1,2.3,2.3v4.6
		C828,954.7,826.9,955.8,825.7,955.8z"/>
	<path class="st1" d="M1224.8,955.8c-1.3,0-2.3-1-2.3-2.3v-4.6c0-1.3,1-2.3,2.3-2.3s2.3,1,2.3,2.3v4.6
		C1227.1,954.7,1226,955.8,1224.8,955.8z"/>
	<path class="st1" d="M1002.9,901.1h-2c-1.3,0-2.3-1-2.3-2.3s1-2.3,2.3-2.3h2c1.3,0,2.3,1,2.3,2.3
		C1005.3,900.1,1004.2,901.1,1002.9,901.1z M990.7,901.1h-2c-1.3,0-2.3-1-2.3-2.3s1-2.3,2.3-2.3h2c1.3,0,2.3,1,2.3,2.3
		S991.9,901.1,990.7,901.1z M978.4,901.1h-2c-1.3,0-2.3-1-2.3-2.3s1-2.3,2.3-2.3h2c1.3,0,2.3,1,2.3,2.3S979.7,901.1,978.4,901.1z
		 M966.1,901.1h-2c-1.3,0-2.3-1-2.3-2.3s1-2.3,2.3-2.3h2c1.3,0,2.3,1,2.3,2.3S967.4,901.1,966.1,901.1z M953.8,901.1h-2
		c-1.3,0-2.3-1-2.3-2.3s1-2.3,2.3-2.3h2c1.3,0,2.3,1,2.3,2.3S955.1,901.1,953.8,901.1z M941.6,901.1h-2c-1.3,0-2.3-1-2.3-2.3
		s1-2.3,2.3-2.3h2c1.3,0,2.3,1,2.3,2.3S942.8,901.1,941.6,901.1z M929.3,901.1h-2c-1.3,0-2.3-1-2.3-2.3s1-2.3,2.3-2.3h2
		c1.3,0,2.3,1,2.3,2.3S930.6,901.1,929.3,901.1z M917,901.1h-2c-1.3,0-2.3-1-2.3-2.3s1-2.3,2.3-2.3h2c1.3,0,2.3,1,2.3,2.3
		C919.3,900.1,918.3,901.1,917,901.1z M904.7,901.1h-2c-1.3,0-2.3-1-2.3-2.3s1-2.3,2.3-2.3h2c1.3,0,2.3,1,2.3,2.3
		S906,901.1,904.7,901.1z M892.4,901.1h-2c-1.3,0-2.3-1-2.3-2.3s1-2.3,2.3-2.3h2c1.3,0,2.3,1,2.3,2.3S893.7,901.1,892.4,901.1z
		 M880.2,901.1h-2c-1.3,0-2.3-1-2.3-2.3s1-2.3,2.3-2.3h2c1.3,0,2.3,1,2.3,2.3S881.4,901.1,880.2,901.1z M867.9,901.1h-2
		c-1.3,0-2.3-1-2.3-2.3s1-2.3,2.3-2.3h2c1.3,0,2.3,1,2.3,2.3S869.2,901.1,867.9,901.1z M855.6,901.1h-2c-1.3,0-2.3-1-2.3-2.3
		s1-2.3,2.3-2.3h2c1.3,0,2.3,1,2.3,2.3S856.9,901.1,855.6,901.1z M843.3,901.1h-2c-1.3,0-2.3-1-2.3-2.3s1-2.3,2.3-2.3h2
		c1.3,0,2.3,1,2.3,2.3S844.6,901.1,843.3,901.1z M831.1,901.1h-2c-1.3,0-2.3-1-2.3-2.3s1-2.3,2.3-2.3h2c1.3,0,2.3,1,2.3,2.3
		S832.3,901.1,831.1,901.1z M818.8,901.1h-2c-1.3,0-2.3-1-2.3-2.3s1-2.3,2.3-2.3h2c1.3,0,2.3,1,2.3,2.3S820,901.1,818.8,901.1z
		 M806.5,901.1h-2c-1.3,0-2.3-1-2.3-2.3s1-2.3,2.3-2.3h2c1.3,0,2.3,1,2.3,2.3C808.8,900.1,807.8,901.1,806.5,901.1z M794.2,901.1h-2
		c-1.3,0-2.3-1-2.3-2.3s1-2.3,2.3-2.3h2c1.3,0,2.3,1,2.3,2.3S795.5,901.1,794.2,901.1z"/>
	<path class="st1" d="M1276,901.1h-0.3c-1.3,0-2.3-1-2.3-2.3s1-2.3,2.3-2.3h0.3c1.3,0,2.3,1,2.3,2.3S1277.2,901.1,1276,901.1z
		 M1265.4,901.1h-2c-1.3,0-2.3-1-2.3-2.3s1-2.3,2.3-2.3h2c1.3,0,2.3,1,2.3,2.3S1266.7,901.1,1265.4,901.1z M1253.2,901.1h-2
		c-1.3,0-2.3-1-2.3-2.3s1-2.3,2.3-2.3h2c1.3,0,2.3,1,2.3,2.3C1255.5,900.1,1254.4,901.1,1253.2,901.1z M1240.9,901.1h-2
		c-1.3,0-2.3-1-2.3-2.3s1-2.3,2.3-2.3h2c1.3,0,2.3,1,2.3,2.3S1242.1,901.1,1240.9,901.1z M1228.6,901.1h-2c-1.3,0-2.3-1-2.3-2.3
		s1-2.3,2.3-2.3h2c1.3,0,2.3,1,2.3,2.3S1229.9,901.1,1228.6,901.1z M1216.3,901.1h-2c-1.3,0-2.3-1-2.3-2.3s1-2.3,2.3-2.3h2
		c1.3,0,2.3,1,2.3,2.3C1218.6,900.1,1217.6,901.1,1216.3,901.1z M1204,901.1h-2c-1.3,0-2.3-1-2.3-2.3s1-2.3,2.3-2.3h2
		c1.3,0,2.3,1,2.3,2.3S1205.3,901.1,1204,901.1z M1191.8,901.1h-2c-1.3,0-2.3-1-2.3-2.3s1-2.3,2.3-2.3h2c1.3,0,2.3,1,2.3,2.3
		C1194.1,900.1,1193,901.1,1191.8,901.1z M1179.5,901.1h-2c-1.3,0-2.3-1-2.3-2.3s1-2.3,2.3-2.3h2c1.3,0,2.3,1,2.3,2.3
		S1180.8,901.1,1179.5,901.1z M1167.2,901.1h-2c-1.3,0-2.3-1-2.3-2.3s1-2.3,2.3-2.3h2c1.3,0,2.3,1,2.3,2.3
		C1169.5,900.1,1168.5,901.1,1167.2,901.1z M1154.9,901.1h-2c-1.3,0-2.3-1-2.3-2.3s1-2.3,2.3-2.3h2c1.3,0,2.3,1,2.3,2.3
		S1156.2,901.1,1154.9,901.1z M1142.6,901.1h-2c-1.3,0-2.3-1-2.3-2.3s1-2.3,2.3-2.3h2c1.3,0,2.3,1,2.3,2.3
		C1145,900.1,1143.9,901.1,1142.6,901.1z M1130.4,901.1h-2c-1.3,0-2.3-1-2.3-2.3s1-2.3,2.3-2.3h2c1.3,0,2.3,1,2.3,2.3
		S1131.6,901.1,1130.4,901.1z M1118.1,901.1h-2c-1.3,0-2.3-1-2.3-2.3s1-2.3,2.3-2.3h2c1.3,0,2.3,1,2.3,2.3
		S1119.4,901.1,1118.1,901.1z M1105.8,901.1h-2c-1.3,0-2.3-1-2.3-2.3s1-2.3,2.3-2.3h2c1.3,0,2.3,1,2.3,2.3
		S1107.1,901.1,1105.8,901.1z"/>
	<path class="st1" d="M1103,381.6c-0.2,0-0.4,0-0.6-0.1c-1.2-0.3-2-1.6-1.6-2.8c0.2-0.7,0.4-1.3,0.6-2c0.4-1.2,1.6-1.9,2.9-1.6
		c1.2,0.4,1.9,1.6,1.6,2.9c-0.2,0.6-0.4,1.3-0.5,1.9C1104.9,380.9,1104,381.6,1103,381.6z M1106.8,369.9c-0.3,0-0.6-0.1-0.8-0.2
		c-1.2-0.5-1.8-1.8-1.3-3c0.3-0.6,0.5-1.3,0.8-1.9c0.5-1.2,1.8-1.7,3-1.2c1.2,0.5,1.7,1.8,1.2,3c-0.3,0.6-0.5,1.2-0.8,1.9
		C1108.6,369.4,1107.7,369.9,1106.8,369.9z M1111.9,358.8c-0.4,0-0.7-0.1-1.1-0.3c-1.1-0.6-1.5-2-0.9-3.1c0.3-0.6,0.7-1.2,1-1.8
		c0.6-1.1,2-1.5,3.1-0.9s1.5,2,0.9,3.1c-0.3,0.6-0.6,1.2-1,1.8C1113.6,358.3,1112.8,358.8,1111.9,358.8z M1118.3,348.3
		c-0.5,0-0.9-0.1-1.3-0.4c-1-0.7-1.3-2.2-0.6-3.2c0.4-0.6,0.8-1.1,1.2-1.7c0.7-1,2.2-1.3,3.2-0.5c1,0.7,1.3,2.2,0.5,3.2
		c-0.4,0.5-0.8,1.1-1.2,1.6C1119.8,348,1119.1,348.3,1118.3,348.3z M1125.9,338.6c-0.5,0-1.1-0.2-1.5-0.6c-1-0.8-1.1-2.3-0.2-3.3
		c0.5-0.5,0.9-1,1.4-1.6c0.9-0.9,2.3-1,3.3-0.2c0.9,0.9,1,2.3,0.2,3.3c-0.4,0.5-0.9,1-1.3,1.5
		C1127.2,338.4,1126.5,338.6,1125.9,338.6z M1134.5,329.9c-0.6,0-1.3-0.3-1.7-0.8c-0.9-0.9-0.8-2.4,0.2-3.3c0.5-0.5,1-0.9,1.6-1.4
		c1-0.8,2.4-0.7,3.3,0.2c0.8,1,0.7,2.4-0.2,3.3c-0.5,0.4-1,0.9-1.5,1.3C1135.6,329.7,1135,329.9,1134.5,329.9z M1144,322.1
		c-0.7,0-1.4-0.3-1.9-1c-0.7-1-0.5-2.5,0.5-3.2c0.6-0.4,1.1-0.8,1.7-1.2c1-0.7,2.5-0.5,3.2,0.6c0.7,1,0.5,2.5-0.6,3.2
		c-0.5,0.4-1.1,0.8-1.6,1.2C1145,322,1144.5,322.1,1144,322.1z M1154.4,315.6c-0.8,0-1.6-0.4-2-1.2c-0.6-1.1-0.2-2.5,0.9-3.1
		c0.6-0.3,1.2-0.7,1.8-1c1.1-0.6,2.5-0.2,3.1,1c0.6,1.1,0.2,2.5-1,3.1c-0.6,0.3-1.2,0.6-1.8,1
		C1155.2,315.5,1154.8,315.6,1154.4,315.6z M1165.4,310.2c-0.9,0-1.8-0.5-2.1-1.4c-0.5-1.2,0.1-2.5,1.2-3c0.6-0.3,1.3-0.5,1.9-0.8
		c1.2-0.5,2.5,0.1,3,1.3c0.5,1.2-0.1,2.5-1.3,3c-0.6,0.2-1.2,0.5-1.9,0.8C1166,310.1,1165.7,310.2,1165.4,310.2z M1177,306.1
		c-1,0-1.9-0.7-2.2-1.7c-0.4-1.2,0.4-2.5,1.6-2.9c0.7-0.2,1.3-0.4,2-0.6c1.2-0.3,2.5,0.4,2.8,1.6s-0.4,2.5-1.6,2.8
		c-0.6,0.2-1.3,0.4-1.9,0.5C1177.4,306.1,1177.2,306.1,1177,306.1z M1227.6,304c-0.1,0-0.3,0-0.4,0c-0.7-0.1-1.3-0.3-2-0.4
		c-1.3-0.2-2.1-1.4-1.9-2.7c0.2-1.3,1.4-2.1,2.7-1.9c0.7,0.1,1.4,0.3,2.1,0.4c1.3,0.2,2.1,1.5,1.8,2.7
		C1229.6,303.2,1228.7,304,1227.6,304z M1188.9,303.4c-1.1,0-2.1-0.8-2.3-1.9c-0.2-1.3,0.6-2.4,1.9-2.7c0.7-0.1,1.4-0.2,2.1-0.3
		c1.2-0.2,2.4,0.7,2.6,1.9c0.2,1.3-0.7,2.4-1.9,2.6c-0.7,0.1-1.3,0.2-2,0.3C1189.2,303.4,1189.1,303.4,1188.9,303.4z M1215.4,302.3
		c-0.1,0-0.1,0-0.2,0c-0.7-0.1-1.3-0.1-2-0.1c-1.3-0.1-2.2-1.2-2.2-2.4c0.1-1.3,1.1-2.2,2.4-2.2c0.7,0,1.4,0.1,2.1,0.2
		c1.3,0.1,2.2,1.2,2.1,2.5C1217.6,301.4,1216.6,302.3,1215.4,302.3z M1201.1,302.1c-1.2,0-2.2-1-2.3-2.2c-0.1-1.3,0.9-2.4,2.2-2.4
		c0.7,0,1.4-0.1,2.1-0.1c1.3-0.1,2.3,1,2.4,2.2c0,1.3-1,2.3-2.2,2.4c-0.7,0-1.3,0.1-2,0.1C1201.2,302.1,1201.2,302.1,1201.1,302.1z"
		/>
	<path class="st1" d="M782.4,317.1c-0.3,0-0.6-0.1-0.9-0.2c-1.2-0.5-1.7-1.9-1.2-3c0.3-0.6,0.5-1.2,0.8-1.9c0.5-1.2,1.9-1.7,3-1.2
		c1.2,0.5,1.7,1.9,1.2,3c-0.3,0.6-0.5,1.3-0.8,1.9C784.1,316.6,783.3,317.1,782.4,317.1z M786.9,305.7c-0.3,0-0.5,0-0.8-0.1
		c-1.2-0.4-1.8-1.7-1.4-2.9c0.2-0.6,0.4-1.3,0.7-1.9c0.4-1.2,1.7-1.9,2.9-1.4c1.2,0.4,1.9,1.7,1.4,2.9c-0.2,0.7-0.4,1.3-0.7,2
		C788.8,305.1,787.9,305.7,786.9,305.7z M790.6,294c-0.2,0-0.4,0-0.6-0.1c-1.2-0.3-2-1.6-1.6-2.8l0.5-2c0.3-1.2,1.6-2,2.8-1.6
		c1.2,0.3,2,1.6,1.6,2.8l-0.5,2C792.5,293.3,791.6,294,790.6,294z M793.5,282.1c-0.2,0-0.3,0-0.5,0c-1.2-0.3-2-1.5-1.8-2.7
		c0.1-0.7,0.3-1.3,0.4-2c0.2-1.2,1.5-2.1,2.7-1.8c1.2,0.2,2.1,1.5,1.8,2.7c-0.1,0.7-0.3,1.3-0.4,2
		C795.5,281.3,794.5,282.1,793.5,282.1z M795.6,270c-0.1,0-0.2,0-0.3,0c-1.3-0.2-2.1-1.4-1.9-2.6l0.3-2c0.2-1.3,1.4-2.1,2.6-2
		c1.3,0.2,2.1,1.3,2,2.6l-0.3,2C797.7,269.1,796.7,270,795.6,270z M797.1,257.8c-0.1,0-0.1,0-0.2,0c-1.3-0.1-2.2-1.2-2.1-2.5
		c0.1-0.7,0.1-1.4,0.2-2c0.1-1.3,1.2-2.2,2.5-2.1c1.3,0.1,2.2,1.2,2.1,2.5c-0.1,0.7-0.1,1.4-0.2,2.1
		C799.3,256.9,798.3,257.8,797.1,257.8z M797.8,245.5L797.8,245.5c-1.3,0-2.3-1.1-2.3-2.4c0-1,0-1.7,0-1.9c0-1.3,1-2.4,2.3-2.4
		s2.3,1,2.3,2.3v0.1c0,0.2,0,0.9,0,2C800.1,244.5,799.1,245.5,797.8,245.5z"/>
	<path class="st1" d="M730.6,444.5c-0.4,0-0.9-0.1-1.3-0.4c-1.1-0.7-1.3-2.1-0.6-3.2c0,0,0.4-0.6,1-1.6c0.7-1.1,2.1-1.4,3.2-0.8
		c1.1,0.7,1.5,2.1,0.8,3.2c-0.7,1.2-1.1,1.8-1.1,1.8C732.1,444.1,731.3,444.5,730.6,444.5z M736.5,433.7c-0.3,0-0.7-0.1-1-0.2
		c-1.1-0.6-1.6-1.9-1.1-3.1c0.3-0.6,0.6-1.2,0.9-1.8c0.5-1.2,1.9-1.7,3.1-1.1c1.2,0.5,1.6,1.9,1.1,3.1c-0.3,0.6-0.6,1.3-0.9,1.9
		C738.2,433.2,737.4,433.7,736.5,433.7z M741.5,422.5c-0.3,0-0.6-0.1-0.9-0.2c-1.2-0.5-1.8-1.8-1.3-3c0.2-0.6,0.5-1.2,0.7-1.9
		c0.5-1.2,1.8-1.8,3-1.3s1.8,1.8,1.3,3c-0.3,0.7-0.5,1.3-0.8,1.9C743.2,421.9,742.4,422.5,741.5,422.5z M745.7,410.9
		c-0.2,0-0.5,0-0.7-0.1c-1.2-0.4-1.9-1.7-1.5-2.9c0.2-0.6,0.4-1.3,0.6-1.9c0.4-1.2,1.7-1.9,2.9-1.5s1.9,1.7,1.5,2.9
		c-0.2,0.7-0.4,1.3-0.6,2C747.6,410.3,746.7,410.9,745.7,410.9z M749.3,399.2c-0.2,0-0.4,0-0.6-0.1c-1.2-0.3-1.9-1.6-1.6-2.8l0.5-2
		c0.3-1.2,1.6-2,2.8-1.6c1.2,0.3,2,1.6,1.6,2.8l-0.5,2C751.2,398.5,750.3,399.2,749.3,399.2z M752.3,387.3c-0.2,0-0.3,0-0.5-0.1
		c-1.2-0.3-2-1.5-1.7-2.8l0.4-2c0.3-1.2,1.5-2,2.7-1.8c1.2,0.3,2,1.5,1.8,2.7l-0.4,2C754.3,386.6,753.3,387.3,752.3,387.3z"/>
	<path class="st1" d="M765.7,535.9c-0.1,0-0.3,0-0.5,0c-1.2-0.2-2.1-1.5-1.8-2.7l0.4-2c0.2-1.3,1.5-2.1,2.7-1.8
		c1.3,0.2,2.1,1.4,1.8,2.7l-0.4,2C767.7,535.1,766.7,535.9,765.7,535.9z M767.9,523.8c-0.1,0-0.3,0-0.4,0c-1.3-0.2-2.1-1.4-1.9-2.7
		l0.3-2c0.2-1.3,1.4-2.1,2.7-1.9s2.1,1.4,1.9,2.7l-0.3,2C770,523,769,523.8,767.9,523.8z M769.8,511.7c-0.1,0-0.2,0-0.3,0
		c-1.3-0.2-2.1-1.3-2-2.6l0.3-2c0.2-1.3,1.3-2.1,2.6-2c1.3,0.2,2.1,1.3,2,2.6l-0.3,2C771.9,510.9,770.9,511.7,769.8,511.7z
		 M771.4,499.5c-0.1,0-0.2,0-0.3,0c-1.3-0.2-2.2-1.3-2-2.6l0.2-2c0.1-1.3,1.3-2.2,2.6-2c1.3,0.1,2.2,1.3,2,2.6l-0.2,2
		C773.6,498.7,772.6,499.5,771.4,499.5z M772.7,487.3c-0.1,0-0.1,0-0.2,0c-1.3-0.1-2.2-1.2-2.1-2.5l0.2-2c0.1-1.3,1.2-2.2,2.5-2.1
		s2.2,1.2,2.1,2.5l-0.2,2C774.9,486.4,773.9,487.3,772.7,487.3z M773.7,475.1c-0.1,0-0.1,0-0.2,0c-1.3-0.1-2.2-1.2-2.1-2.5l0.1-2
		c0.1-1.3,1.1-2.2,2.5-2.1c1.3,0.1,2.2,1.2,2.1,2.5l-0.1,2C776,474.1,774.9,475.1,773.7,475.1z M774.4,462.8L774.4,462.8
		c-1.4-0.1-2.4-1.1-2.3-2.4l0.1-2c0-1.3,1.1-2.2,2.4-2.2c1.3,0,2.3,1.1,2.2,2.4l-0.1,2.1C776.7,461.8,775.7,462.8,774.4,462.8z
		 M774.8,450.5L774.8,450.5c-1.3,0-2.3-1.1-2.3-2.3v-2c0-1.3,1-2.3,2.3-2.3l0,0c1.3,0,2.3,1.1,2.3,2.3v2.1
		C777.1,449.5,776.1,450.5,774.8,450.5z M774.7,438.2c-1.2,0-2.3-1-2.3-2.2c0-1.3-0.1-2-0.1-2c-0.1-1.3,0.9-2.4,2.2-2.4
		c1.3-0.1,2.4,0.9,2.4,2.2c0,0,0,0.7,0.1,2.1C777.1,437.1,776.1,438.2,774.7,438.2C774.8,438.2,774.7,438.2,774.7,438.2z"/>
	<path class="st1" d="M821.9,442c-0.5,0-1-0.2-1.4-0.5c-0.6-0.4-1.1-0.9-1.7-1.4c-1-0.8-1.1-2.3-0.2-3.3c0.8-1,2.3-1.1,3.3-0.2
		c0.5,0.4,1,0.8,1.5,1.2c1,0.8,1.2,2.2,0.4,3.2C823.3,441.7,822.6,442,821.9,442z M813.6,433c-0.8,0-1.5-0.4-1.9-1s-0.8-1.2-1.1-1.9
		c-0.6-1.1-0.3-2.5,0.8-3.1s2.5-0.3,3.1,0.8c0.3,0.6,0.7,1.1,1,1.6c0.7,1.1,0.4,2.5-0.7,3.2C814.5,432.9,814.1,433,813.6,433z
		 M808.7,421.8c-1,0-2-0.7-2.2-1.7c-0.2-0.7-0.3-1.4-0.5-2.1c-0.2-1.2,0.6-2.5,1.8-2.7c1.3-0.2,2.5,0.6,2.7,1.8
		c0.1,0.6,0.3,1.3,0.4,1.9c0.3,1.2-0.4,2.5-1.7,2.8C809.1,421.8,808.9,421.8,808.7,421.8z M807.7,409.6c-0.1,0-0.1,0-0.2,0
		c-1.3-0.1-2.2-1.2-2.1-2.5c0.1-0.7,0.1-1.4,0.2-2.2c0.2-1.3,1.4-2.1,2.6-2c1.3,0.2,2.1,1.3,2,2.6c-0.1,0.6-0.2,1.3-0.2,1.9
		C809.9,408.7,808.9,409.6,807.7,409.6z M810.8,397.8c-0.3,0-0.6-0.1-0.9-0.2c-1.2-0.5-1.7-1.9-1.2-3c0.3-0.7,0.6-1.3,0.9-2
		c0.6-1.1,2-1.6,3.1-1s1.6,2,1,3.1c-0.3,0.6-0.6,1.1-0.8,1.7C812.5,397.3,811.7,397.8,810.8,397.8z M872.5,388.2
		c-0.6,0-1.3-0.3-1.7-0.8l-0.3-0.4c-0.9-0.9-0.8-2.4,0.2-3.3c0.9-0.9,2.4-0.8,3.3,0.2l0.4,0.4c0.8,1,0.7,2.4-0.2,3.3
		C873.5,388,873,388.2,872.5,388.2z M817.5,387.6c-0.6,0-1.1-0.2-1.6-0.6c-0.9-0.9-1-2.3-0.1-3.3c0.5-0.5,1-1.1,1.5-1.6
		c0.9-0.9,2.4-0.9,3.3,0.1c0.9,0.9,0.9,2.4-0.1,3.3c-0.5,0.4-0.9,0.9-1.3,1.4C818.7,387.3,818.1,387.6,817.5,387.6z M864.3,381.3
		c-0.4,0-0.8-0.1-1.2-0.3c-0.5-0.3-1.1-0.7-1.7-1c-1.1-0.6-1.5-2-0.9-3.1s2-1.5,3.1-0.9c0.6,0.3,1.3,0.7,1.9,1.1
		c1.1,0.7,1.4,2.1,0.7,3.2C865.8,380.9,865,381.3,864.3,381.3z M827.2,380.1c-0.8,0-1.6-0.4-2-1.2c-0.6-1.1-0.2-2.5,0.9-3.1
		c0.6-0.3,1.3-0.7,1.9-1c1.2-0.5,2.5,0,3.1,1.1c0.5,1.2,0,2.5-1.1,3.1c-0.6,0.3-1.2,0.6-1.7,0.9C827.9,380,827.5,380.1,827.2,380.1z
		 M853,376.6c-0.2,0-0.3,0-0.5-0.1c-0.6-0.1-1.3-0.3-1.9-0.4c-1.3-0.2-2.1-1.4-1.9-2.7c0.2-1.3,1.4-2.1,2.7-1.9
		c0.7,0.1,1.4,0.3,2.1,0.4c1.2,0.3,2,1.5,1.7,2.8C855,375.9,854,376.6,853,376.6z M838.7,376.2c-1.1,0-2.1-0.8-2.3-1.9
		c-0.2-1.3,0.6-2.4,1.9-2.6c0.7-0.1,1.4-0.2,2.2-0.3c1.2-0.1,2.4,0.8,2.5,2c0.1,1.3-0.8,2.4-2.1,2.5c-0.6,0.1-1.3,0.2-1.9,0.3
		C839,376.1,838.9,376.2,838.7,376.2z"/>
	<path class="st1" d="M825.6,558.9h-2c-1.3,0-2.3-1-2.3-2.3s1-2.3,2.3-2.3h2c1.3,0,2.3,1,2.3,2.3
		C827.9,557.8,826.9,558.9,825.6,558.9z M813.3,558.9h-2c-1.3,0-2.3-1-2.3-2.3s1-2.3,2.3-2.3h2c1.3,0,2.3,1,2.3,2.3
		C815.6,557.8,814.6,558.9,813.3,558.9z M801.1,558.9h-2c-1.3,0-2.3-1-2.3-2.3s1-2.3,2.3-2.3h2c1.3,0,2.3,1,2.3,2.3
		C803.4,557.8,802.3,558.9,801.1,558.9z M788.8,558.9h-2c-1.3,0-2.3-1-2.3-2.3s1-2.3,2.3-2.3h2c1.3,0,2.3,1,2.3,2.3
		C791.1,557.8,790,558.9,788.8,558.9z M776.5,558.9h-2c-1.3,0-2.3-1-2.3-2.3s1-2.3,2.3-2.3h2c1.3,0,2.3,1,2.3,2.3
		C778.8,557.8,777.8,558.9,776.5,558.9z M764.2,558.9h-2c-1.3,0-2.3-1-2.3-2.3s1-2.3,2.3-2.3h2c1.3,0,2.3,1,2.3,2.3
		C766.5,557.8,765.5,558.9,764.2,558.9z M751.9,558.9h-2c-1.3,0-2.3-1-2.3-2.3s1-2.3,2.3-2.3h2c1.3,0,2.3,1,2.3,2.3
		C754.2,557.8,753.2,558.9,751.9,558.9z M739.7,558.9h-2c-1.3,0-2.3-1-2.3-2.3s1-2.3,2.3-2.3h2c1.3,0,2.3,1,2.3,2.3
		C742,557.8,740.9,558.9,739.7,558.9z M727.4,558.9h-2c-1.3,0-2.3-1-2.3-2.3s1-2.3,2.3-2.3h2c1.3,0,2.3,1,2.3,2.3
		C729.7,557.8,728.7,558.9,727.4,558.9z M715.1,558.9h-2c-1.3,0-2.3-1-2.3-2.3s1-2.3,2.3-2.3h2c1.3,0,2.3,1,2.3,2.3
		C717.4,557.8,716.4,558.9,715.1,558.9z M702.8,558.9h-2c-1.3,0-2.3-1-2.3-2.3s1-2.3,2.3-2.3h2c1.3,0,2.3,1,2.3,2.3
		C705.1,557.8,704.1,558.9,702.8,558.9z"/>
	<path class="st1" d="M696.6,391.2c-0.7,0-1.4-0.3-1.8-0.9c-0.8-1-0.6-2.4,0.4-3.2c0,0,0.6-0.4,1.5-1.2c1-0.8,2.4-0.8,3.3,0.2
		c0.8,1,0.8,2.4-0.2,3.3c-1.1,0.9-1.7,1.4-1.7,1.4C697.6,391,697.1,391.2,696.6,391.2z M705.4,382.7c-0.6,0-1.1-0.2-1.6-0.6
		c-0.9-0.9-1-2.3-0.1-3.3c0.4-0.5,0.9-1,1.4-1.5c0.9-0.9,2.3-1,3.3-0.2c0.9,0.9,1,2.3,0.2,3.3c-0.5,0.5-0.9,1-1.4,1.5
		C706.7,382.4,706.1,382.7,705.4,382.7z M713.4,373.3c-0.5,0-1-0.2-1.4-0.5c-1-0.8-1.2-2.2-0.4-3.2c0.4-0.5,0.8-1.1,1.2-1.6
		c0.8-1,2.2-1.2,3.2-0.5c1,0.8,1.2,2.2,0.5,3.2c-0.4,0.6-0.8,1.1-1.3,1.7S714.1,373.3,713.4,373.3z M720.5,363.3
		c-0.4,0-0.9-0.1-1.3-0.4c-1.1-0.7-1.4-2.1-0.7-3.2c0.4-0.6,0.7-1.1,1.1-1.7c0.7-1.1,2.1-1.4,3.2-0.7c1.1,0.7,1.4,2.1,0.7,3.2
		c-0.4,0.6-0.8,1.2-1.1,1.7C722,362.9,721.3,363.3,720.5,363.3z M726.9,352.8c-0.4,0-0.8-0.1-1.1-0.3c-1.1-0.6-1.5-2-0.9-3.1
		c0.3-0.6,0.6-1.2,1-1.8c0.6-1.1,2-1.5,3.1-0.9s1.5,2,0.9,3.1c-0.3,0.6-0.7,1.2-1,1.8C728.4,352.4,727.7,352.8,726.9,352.8z
		 M732.4,341.9c-0.3,0-0.7-0.1-1-0.2c-1.2-0.5-1.7-1.9-1.1-3.1c0.3-0.6,0.6-1.2,0.8-1.8c0.5-1.2,1.9-1.7,3-1.2
		c1.2,0.5,1.7,1.9,1.2,3c-0.3,0.6-0.6,1.3-0.9,1.9C734.1,341.4,733.3,341.9,732.4,341.9z"/>
	<path class="st1" d="M1357.1,761.3h-2c-1.3,0-2.3-1-2.3-2.3s1-2.3,2.3-2.3h2c1.3,0,2.3,1,2.3,2.3S1358.4,761.3,1357.1,761.3z
		 M1344.9,761.3h-2c-1.3,0-2.3-1-2.3-2.3s1-2.3,2.3-2.3h2c1.3,0,2.3,1,2.3,2.3S1346.1,761.3,1344.9,761.3z M1332.6,761.3h-2
		c-1.3,0-2.3-1-2.3-2.3s1-2.3,2.3-2.3h2c1.3,0,2.3,1,2.3,2.3S1333.9,761.3,1332.6,761.3z M1320.3,761.3h-2c-1.3,0-2.3-1-2.3-2.3
		s1-2.3,2.3-2.3h2c1.3,0,2.3,1,2.3,2.3C1322.6,760.3,1321.6,761.3,1320.3,761.3z M1308,761.3h-2c-1.3,0-2.3-1-2.3-2.3s1-2.3,2.3-2.3
		h2c1.3,0,2.3,1,2.3,2.3S1309.3,761.3,1308,761.3z M1295.7,761.3h-2c-1.3,0-2.3-1-2.3-2.3s1-2.3,2.3-2.3h2c1.3,0,2.3,1,2.3,2.3
		C1298,760.3,1297,761.3,1295.7,761.3z M1283.5,761.3h-2c-1.3,0-2.3-1-2.3-2.3s1-2.3,2.3-2.3h2c1.3,0,2.3,1,2.3,2.3
		S1284.7,761.3,1283.5,761.3z M1271.2,761.3h-2c-1.3,0-2.3-1-2.3-2.3s1-2.3,2.3-2.3h2c1.3,0,2.3,1,2.3,2.3
		C1273.5,760.3,1272.5,761.3,1271.2,761.3z M1258.9,761.3h-2c-1.3,0-2.3-1-2.3-2.3s1-2.3,2.3-2.3h2c1.3,0,2.3,1,2.3,2.3
		S1260.2,761.3,1258.9,761.3z M1246.6,761.3h-2c-1.3,0-2.3-1-2.3-2.3s1-2.3,2.3-2.3h2c1.3,0,2.3,1,2.3,2.3
		S1247.9,761.3,1246.6,761.3z M1234.3,761.3h-2c-1.3,0-2.3-1-2.3-2.3s1-2.3,2.3-2.3h2c1.3,0,2.3,1,2.3,2.3
		C1236.7,760.3,1235.6,761.3,1234.3,761.3z M1222.1,761.3h-2c-1.3,0-2.3-1-2.3-2.3s1-2.3,2.3-2.3h2c1.3,0,2.3,1,2.3,2.3
		S1223.3,761.3,1222.1,761.3z M1209.8,761.3h-2c-1.3,0-2.3-1-2.3-2.3s1-2.3,2.3-2.3h2c1.3,0,2.3,1,2.3,2.3
		C1212.1,760.3,1211.1,761.3,1209.8,761.3z M1197.5,761.3h-2c-1.3,0-2.3-1-2.3-2.3s1-2.3,2.3-2.3h2c1.3,0,2.3,1,2.3,2.3
		S1198.8,761.3,1197.5,761.3z M1185.2,761.3h-2c-1.3,0-2.3-1-2.3-2.3s1-2.3,2.3-2.3h2c1.3,0,2.3,1,2.3,2.3
		C1187.5,760.3,1186.5,761.3,1185.2,761.3z"/>
	<path class="st1" d="M308.4,614.2c-1.3,0-2.3-1-2.3-2.3v-2c0-1.3,1-2.3,2.3-2.3c1.3,0,2.3,1,2.3,2.3v2
		C310.7,613.2,309.7,614.2,308.4,614.2z M308.4,602c-1.3,0-2.3-1-2.3-2.3v-2c0-1.3,1-2.3,2.3-2.3c1.3,0,2.3,1,2.3,2.3v2
		C310.7,600.9,309.7,602,308.4,602z M308.4,589.7c-1.3,0-2.3-1-2.3-2.3v-2c0-1.3,1-2.3,2.3-2.3c1.3,0,2.3,1,2.3,2.3v2
		C310.7,588.6,309.7,589.7,308.4,589.7z M308.4,577.4c-1.3,0-2.3-1-2.3-2.3v-2c0-1.3,1-2.3,2.3-2.3c1.3,0,2.3,1,2.3,2.3v2
		C310.7,576.4,309.7,577.4,308.4,577.4z M308.4,565.1c-1.3,0-2.3-1-2.3-2.3v-2c0-1.3,1-2.3,2.3-2.3c1.3,0,2.3,1,2.3,2.3v2
		C310.7,564.1,309.7,565.1,308.4,565.1z M308.4,552.8c-1.3,0-2.3-1-2.3-2.3v-2c0-1.3,1-2.3,2.3-2.3c1.3,0,2.3,1,2.3,2.3v2
		C310.7,551.8,309.7,552.8,308.4,552.8z M308.4,540.6c-1.3,0-2.3-1-2.3-2.3v-2c0-1.3,1-2.3,2.3-2.3c1.3,0,2.3,1,2.3,2.3v2
		C310.7,539.5,309.7,540.6,308.4,540.6z M308.4,528.3c-1.3,0-2.3-1-2.3-2.3v-2c0-1.3,1-2.3,2.3-2.3c1.3,0,2.3,1,2.3,2.3v2
		C310.7,527.3,309.7,528.3,308.4,528.3z M308.4,516c-1.3,0-2.3-1-2.3-2.3v-2c0-1.3,1-2.3,2.3-2.3c1.3,0,2.3,1,2.3,2.3v2
		C310.7,515,309.7,516,308.4,516z M308.4,503.7c-1.3,0-2.3-1-2.3-2.3v-2c0-1.3,1-2.3,2.3-2.3c1.3,0,2.3,1,2.3,2.3v2
		C310.7,502.7,309.7,503.7,308.4,503.7z M308.4,491.5c-1.3,0-2.3-1-2.3-2.3v-2c0-1.3,1-2.3,2.3-2.3c1.3,0,2.3,1,2.3,2.3v2
		C310.7,490.4,309.7,491.5,308.4,491.5z M308.4,479.2c-1.3,0-2.3-1-2.3-2.3v-2c0-1.3,1-2.3,2.3-2.3c1.3,0,2.3,1,2.3,2.3v2
		C310.7,478.1,309.7,479.2,308.4,479.2z M308.4,466.9c-1.3,0-2.3-1-2.3-2.3v-2c0-1.3,1-2.3,2.3-2.3c1.3,0,2.3,1,2.3,2.3v2
		C310.7,465.9,309.7,466.9,308.4,466.9z M308.4,454.6c-1.3,0-2.3-1-2.3-2.3v-2c0-1.3,1-2.3,2.3-2.3c1.3,0,2.3,1,2.3,2.3v2
		C310.7,453.6,309.7,454.6,308.4,454.6z M308.4,442.3c-1.3,0-2.3-1-2.3-2.3v-2c0-1.3,1-2.3,2.3-2.3c1.3,0,2.3,1,2.3,2.3v2
		C310.7,441.3,309.7,442.3,308.4,442.3z M308.4,430.1c-1.3,0-2.3-1-2.3-2.3v-2c0-1.3,1-2.3,2.3-2.3c1.3,0,2.3,1,2.3,2.3v2
		C310.7,429,309.7,430.1,308.4,430.1z M308.4,417.8c-1.3,0-2.3-1-2.3-2.3v-2c0-1.3,1-2.3,2.3-2.3c1.3,0,2.3,1,2.3,2.3v2
		C310.7,416.8,309.7,417.8,308.4,417.8z M308.4,405.5c-1.3,0-2.3-1-2.3-2.3v-2c0-1.3,1-2.3,2.3-2.3c1.3,0,2.3,1,2.3,2.3v2
		C310.7,404.5,309.7,405.5,308.4,405.5z M308.4,393.2c-1.3,0-2.3-1-2.3-2.3v-2c0-1.3,1-2.3,2.3-2.3c1.3,0,2.3,1,2.3,2.3v2
		C310.7,392.2,309.7,393.2,308.4,393.2z"/>
	<path class="st1" d="M859.5,697.8c-6.1,0-11-4.9-11-11s4.9-11,11-11s11,4.9,11,11S865.6,697.8,859.5,697.8z M859.5,680.5
		c-3.5,0-6.4,2.9-6.4,6.4s2.9,6.4,6.4,6.4s6.4-2.9,6.4-6.4C865.9,683.3,863.1,680.5,859.5,680.5z"/>
	<path class="st1" d="M965.4,508.8c-6,0-10.9-4.9-10.9-10.9s4.9-10.9,10.9-10.9s10.9,4.9,10.9,10.9
		C976.3,504,971.4,508.8,965.4,508.8z M965.4,491.7c-3.5,0-6.3,2.8-6.3,6.3s2.8,6.3,6.3,6.3s6.3-2.8,6.3-6.3
		C971.7,494.5,968.9,491.7,965.4,491.7z"/>
	<path class="st1" d="M1043.6,330.2c-6.3,0-11.4-5.1-11.4-11.4c0-6.3,5.1-11.4,11.4-11.4c6.3,0,11.4,5.1,11.4,11.4
		C1055,325.1,1049.9,330.2,1043.6,330.2z M1043.6,312c-3.8,0-6.8,3.1-6.8,6.8c0,3.8,3.1,6.8,6.8,6.8c3.8,0,6.8-3.1,6.8-6.8
		C1050.4,315,1047.3,312,1043.6,312z"/>
	<path class="st1" d="M1036.8,555c-10,0-18.2-8.2-18.2-18.2s8.2-18.2,18.2-18.2s18.2,8.2,18.2,18.2
		C1055,546.9,1046.9,555,1036.8,555z M1036.8,523.3c-7.5,0-13.6,6.1-13.6,13.6s6.1,13.6,13.6,13.6s13.6-6.1,13.6-13.6
		S1044.3,523.3,1036.8,523.3z"/>
	<path class="st1" d="M1432.7,818.6c-5.5,0-10-4.5-10-10s4.5-10,10-10s10,4.5,10,10S1438.2,818.6,1432.7,818.6z M1432.7,803.3
		c-3,0-5.4,2.4-5.4,5.4s2.4,5.4,5.4,5.4s5.4-2.4,5.4-5.4C1438.1,805.7,1435.7,803.3,1432.7,803.3z"/>
	<path class="st1" d="M1306.2,969.3c-9.1,0-16.5-7.4-16.5-16.5s7.4-16.5,16.5-16.5s16.5,7.4,16.5,16.5S1315.3,969.3,1306.2,969.3z
		 M1306.2,941c-6.6,0-11.9,5.3-11.9,11.9c0,6.6,5.3,11.9,11.9,11.9s11.9-5.3,11.9-11.9C1318.1,946.3,1312.8,941,1306.2,941z"/>
	<path class="st1" d="M534.5,733.7c-6,0-10.8-4.9-10.8-10.8c0-6,4.9-10.8,10.8-10.8c6,0,10.8,4.9,10.8,10.8
		C545.3,728.9,540.5,733.7,534.5,733.7z M534.5,716.7c-3.4,0-6.2,2.8-6.2,6.2s2.8,6.2,6.2,6.2s6.2-2.8,6.2-6.2
		S538,716.7,534.5,716.7z"/>
	<path class="st1" d="M669.3,326.2c-8,0-14.4-6.5-14.4-14.4c0-8,6.5-14.4,14.4-14.4s14.4,6.5,14.4,14.4
		C683.7,319.7,677.2,326.2,669.3,326.2z M669.3,301.9c-5.4,0-9.8,4.4-9.8,9.8c0,5.4,4.4,9.8,9.8,9.8c5.4,0,9.8-4.4,9.8-9.8
		C679.1,306.3,674.7,301.9,669.3,301.9z"/>
	<path class="st1" d="M737.9,271.1c-5.3,0-9.6-4.3-9.6-9.6c0-5.3,4.3-9.6,9.6-9.6s9.6,4.3,9.6,9.6
		C747.5,266.8,743.2,271.1,737.9,271.1z M737.9,256.5c-2.8,0-5,2.2-5,5c0,2.8,2.2,5,5,5s5-2.2,5-5
		C742.9,258.7,740.7,256.5,737.9,256.5z"/>
	<path class="st1" d="M864,275.8h-13.1c-1.3,0-2.3-1-2.3-2.3v-13.1c0-1.3,1-2.3,2.3-2.3H864c1.3,0,2.3,1,2.3,2.3v13.1
		C866.3,274.8,865.3,275.8,864,275.8z M853.2,271.2h8.5v-8.5h-8.5V271.2z"/>
	<path class="st1" d="M954.6,281.8h-18.4c-1.3,0-2.3-1-2.3-2.3v-18.4c0-1.3,1-2.3,2.3-2.3h18.4c1.3,0,2.3,1,2.3,2.3v18.4
		C956.9,280.8,955.8,281.8,954.6,281.8z M938.5,277.2h13.8v-13.8h-13.8V277.2z"/>
	<path class="st1" d="M272.6,810.6h-17.3c-1.3,0-2.3-1-2.3-2.3V791c0-1.3,1-2.3,2.3-2.3h17.3c1.3,0,2.3,1,2.3,2.3v17.3
		C274.9,809.6,273.9,810.6,272.6,810.6z M257.6,806h12.7v-12.7h-12.7V806z"/>
	<path class="st1" d="M1378.2,452.5h-23.4c-1.3,0-2.3-1-2.3-2.3v-23.4c0-1.3,1-2.3,2.3-2.3h23.4c1.3,0,2.3,1,2.3,2.3v23.4
		C1380.5,451.4,1379.5,452.5,1378.2,452.5z M1357.1,447.8h18.8V429h-18.8V447.8z"/>
</g>
<g>
	<path class="st5" d="M377,585.4h-42.8l-8.9,20.1h-11.8L350,525h11.4l36.6,80.5h-12.1L377,585.4z M373,576.2l-17.4-39.4l-17.4,39.4
		H373z"/>
	<path class="st5" d="M471.4,575c0,18.6-13,31.2-30.8,31.2c-9,0-16.8-3.5-21.7-10.4v9.7h-10.6v-85.3h11v33.6
		c5.1-6.6,12.7-9.8,21.3-9.8C458.5,544,471.4,556.4,471.4,575z M460.3,575c0-13-8.9-21.4-20.6-21.4c-11.6,0-20.5,8.4-20.5,21.4
		c0,13,8.9,21.5,20.5,21.5C451.4,596.5,460.3,588,460.3,575z"/>
	<path class="st5" d="M481.1,575c0-18.2,13.5-31.1,31.7-31.1c18.3,0,31.6,12.9,31.6,31.1s-13.3,31.2-31.6,31.2
		C494.6,606.2,481.1,593.2,481.1,575z M533.3,575c0-13-8.7-21.4-20.5-21.4c-11.7,0-20.6,8.4-20.6,21.4c0,13,8.9,21.5,20.6,21.5
		C524.6,596.5,533.3,588,533.3,575z"/>
	<path class="st5" d="M616.6,544.5v61h-10.5v-9.2c-4.5,6.3-12.1,9.9-20.7,9.9c-15.8,0-26.2-8.6-26.2-26.6v-35.1h11v33.8
		c0,12,6,17.9,16.4,17.9c11.5,0,18.9-7.1,18.9-20.2v-31.5H616.6z"/>
	<path class="st5" d="M671.9,601.9c-3.3,2.9-8.4,4.3-13.3,4.3c-12.3,0-19.3-6.8-19.3-19.1v-33.5h-10.4v-9.1h10.4v-13.3h11v13.3h17.5
		v9.1h-17.5v33c0,6.6,3.5,10.2,9.5,10.2c3.2,0,6.3-1,8.6-2.9L671.9,601.9z"/>
</g>
<path class="st1" d="M580.9,611.9c0,1.3-1,2.3-2.3,2.3h-2c-1.3,0-2.3-1-2.3-2.3c0-1.3,1-2.3,2.3-2.3h2
	C579.8,609.6,580.9,610.6,580.9,611.9z M568.6,611.9c0,1.3-1,2.3-2.3,2.3h-2c-1.3,0-2.3-1-2.3-2.3c0-1.3,1-2.3,2.3-2.3h2
	C567.5,609.6,568.6,610.6,568.6,611.9z M556.3,611.9c0,1.3-1,2.3-2.3,2.3h-2c-1.3,0-2.3-1-2.3-2.3c0-1.3,1-2.3,2.3-2.3h2
	C555.3,609.6,556.3,610.6,556.3,611.9z M544,611.9c0,1.3-1,2.3-2.3,2.3h-2c-1.3,0-2.3-1-2.3-2.3c0-1.3,1-2.3,2.3-2.3h2
	C543,609.6,544,610.6,544,611.9z M531.7,611.9c0,1.3-1,2.3-2.3,2.3h-2c-1.3,0-2.3-1-2.3-2.3c0-1.3,1-2.3,2.3-2.3h2
	C530.7,609.6,531.7,610.6,531.7,611.9z M519.5,611.9c0,1.3-1,2.3-2.3,2.3h-2c-1.3,0-2.3-1-2.3-2.3c0-1.3,1-2.3,2.3-2.3h2
	C518.4,609.6,519.5,610.6,519.5,611.9z M507.2,611.9c0,1.3-1,2.3-2.3,2.3h-2c-1.3,0-2.3-1-2.3-2.3c0-1.3,1-2.3,2.3-2.3h2
	C506.1,609.6,507.2,610.6,507.2,611.9z M494.9,611.9c0,1.3-1,2.3-2.3,2.3h-2c-1.3,0-2.3-1-2.3-2.3c0-1.3,1-2.3,2.3-2.3h2
	C493.9,609.6,494.9,610.6,494.9,611.9z M482.6,611.9c0,1.3-1,2.3-2.3,2.3h-2c-1.3,0-2.3-1-2.3-2.3c0-1.3,1-2.3,2.3-2.3h2
	C481.6,609.6,482.6,610.6,482.6,611.9z M470.3,611.9c0,1.3-1,2.3-2.3,2.3h-2c-1.3,0-2.3-1-2.3-2.3c0-1.3,1-2.3,2.3-2.3h2
	C469.3,609.6,470.3,610.6,470.3,611.9z M458.1,611.9c0,1.3-1,2.3-2.3,2.3h-2c-1.3,0-2.3-1-2.3-2.3c0-1.3,1-2.3,2.3-2.3h2
	C457,609.6,458.1,610.6,458.1,611.9z M445.8,611.9c0,1.3-1,2.3-2.3,2.3h-2c-1.3,0-2.3-1-2.3-2.3c0-1.3,1-2.3,2.3-2.3h2
	C444.8,609.6,445.8,610.6,445.8,611.9z M433.5,611.9c0,1.3-1,2.3-2.3,2.3h-2c-1.3,0-2.3-1-2.3-2.3c0-1.3,1-2.3,2.3-2.3h2
	C432.5,609.6,433.5,610.6,433.5,611.9z M421.2,611.9c0,1.3-1,2.3-2.3,2.3h-2c-1.3,0-2.3-1-2.3-2.3c0-1.3,1-2.3,2.3-2.3h2
	C420.2,609.6,421.2,610.6,421.2,611.9z M409,611.9c0,1.3-1,2.3-2.3,2.3h-2c-1.3,0-2.3-1-2.3-2.3c0-1.3,1-2.3,2.3-2.3h2
	C407.9,609.6,409,610.6,409,611.9z M396.7,611.9c0,1.3-1,2.3-2.3,2.3h-2c-1.3,0-2.3-1-2.3-2.3c0-1.3,1-2.3,2.3-2.3h2
	C395.6,609.6,396.7,610.6,396.7,611.9z M384.4,611.9c0,1.3-1,2.3-2.3,2.3h-2c-1.3,0-2.3-1-2.3-2.3c0-1.3,1-2.3,2.3-2.3h2
	C383.4,609.6,384.4,610.6,384.4,611.9z M372.1,611.9c0,1.3-1,2.3-2.3,2.3h-2c-1.3,0-2.3-1-2.3-2.3c0-1.3,1-2.3,2.3-2.3h2
	C371.1,609.6,372.1,610.6,372.1,611.9z M359.8,611.9c0,1.3-1,2.3-2.3,2.3h-2c-1.3,0-2.3-1-2.3-2.3c0-1.3,1-2.3,2.3-2.3h2
	C358.8,609.6,359.8,610.6,359.8,611.9z M347.6,611.9c0,1.3-1,2.3-2.3,2.3h-2c-1.3,0-2.3-1-2.3-2.3c0-1.3,1-2.3,2.3-2.3h2
	C346.5,609.6,347.6,610.6,347.6,611.9z M335.3,611.9c0,1.3-1,2.3-2.3,2.3h-2c-1.3,0-2.3-1-2.3-2.3c0-1.3,1-2.3,2.3-2.3h2
	C334.3,609.6,335.3,610.6,335.3,611.9z M323,611.9c0,1.3-1,2.3-2.3,2.3h-2c-1.3,0-2.3-1-2.3-2.3c0-1.3,1-2.3,2.3-2.3h2
	C322,609.6,323,610.6,323,611.9z"/>
</svg>
