<?xml version="1.0" encoding="utf-8"?>
<!-- Generator: Adobe Illustrator 22.1.0, SVG Export Plug-In . SVG Version: 6.00 Build 0)  -->
<svg version="1.1" id="Christmas" xmlns="http://www.w3.org/2000/svg" xmlns:xlink="http://www.w3.org/1999/xlink" x="0px" y="0px"
	 viewBox="0 0 1465.8 1000" style="enable-background:new 0 0 1465.8 1000;" xml:space="preserve">
<style type="text/css">
	.st0{fill:#FFFFFF;}
	.st1{fill:#E2E2E2;}
	.st2{fill:#171A04;}
	.st3{fill:#00A158;}
	.st4{fill:#FF3019;}
	.st5{fill:#FCA203;}
</style>
<rect x="0" class="st0" width="1465.8" height="1000"/>
<g>
	<polygon class="st1" points="723.3,620 731.2,635.9 748.8,638.5 736,650.9 739,668.4 723.3,660.1 707.6,668.4 710.6,650.9 
		697.8,638.5 715.4,635.9 	"/>
	<path class="st1" d="M1240.3,692.4H913.4c-11.8,0-21.3,9.5-21.3,21.3v0c0,11.8,9.5,21.3,21.3,21.3h80.5l43.3-41.8l54.1,41.8h149
		c11.8,0,21.3-9.5,21.3-21.3v0C1261.6,701.9,1252.1,692.4,1240.3,692.4z"/>
	<path class="st2" d="M1240.3,737.3h-149c-0.5,0-1-0.2-1.4-0.5l-52.5-40.6l-41.9,40.4c-0.4,0.4-1,0.6-1.6,0.6h-80.5
		c-13,0-23.6-10.6-23.6-23.6c0-13,10.6-23.6,23.6-23.6h326.9c13,0,23.6,10.6,23.6,23.6C1264,726.7,1253.4,737.3,1240.3,737.3z
		 M1092.1,732.7h148.2c10.5,0,19-8.5,19-19c0-10.5-8.5-19-19-19h-197.5L1092.1,732.7z M913.4,694.7c-10.5,0-19,8.5-19,19
		c0,10.5,8.5,19,19,19H993l39.4-38H913.4z"/>
	<path class="st2" d="M923.9,890.5H656c-1.3,0-2.3-1-2.3-2.3v-91.1c0-1.3,1-2.3,2.3-2.3h267.9c1.3,0,2.3,1,2.3,2.3v91.1
		C926.2,889.4,925.2,890.5,923.9,890.5z M658.3,885.9h263.3v-86.5H658.3V885.9z"/>
	<path class="st2" d="M656,890.5h-34.6c-1.1,0-2-0.8-2.3-1.9c-2.9-14.5-16.4-25-32.1-25c-5.5,0-10.9,1.3-15.7,3.8
		c-1,0.5-2.2,0.2-2.9-0.6c-4.6-5.7-10.5-10.2-17.3-13c-0.8-0.3-1.4-1.2-1.4-2.1l0-0.2c0-0.6,0-1.1,0-1.7c0-29.7,19.1-55.5,47.5-64.2
		c0.5-0.2,1.1-0.1,1.6,0.1c5.7,2.4,11.7,3.7,18,3.7c6.2,0,12.3-1.2,18-3.7c0.5-0.2,1.1-0.2,1.6-0.1c7.6,2.3,14.7,5.9,21,10.8
		c0.6,0.4,0.9,1.1,0.9,1.8v89.8C658.3,889.4,657.3,890.5,656,890.5z M623.2,885.9h30.5v-86.4c-5.5-4-11.5-7.1-17.9-9.1
		c-6,2.5-12.4,3.7-19,3.7s-13-1.3-19-3.7c-26,8.3-43.5,32.1-43.5,59.5c0,0.1,0,0.2,0,0.3c6.3,2.9,12,7.1,16.5,12.3
		c5-2.3,10.5-3.5,16.1-3.5C604.2,859.1,619.1,870.2,623.2,885.9z"/>
	<path class="st2" d="M765.5,363.2c-0.8,0-1.6-0.5-2-1.2c-0.6-1.1-0.1-2.5,1-3.1c39.5-20.5,46.7-49.6,48-58.7
		c-14.2,2-25.8-4.3-26.3-4.6c-0.7-0.4-1.2-1.2-1.2-2c0-0.8,0.5-1.6,1.2-2c31.1-17,45.3-49.5,49.4-60.4c-11.5,1.4-22.2-4.2-22.7-4.4
		c-0.8-0.4-1.3-1.3-1.2-2.2c0.1-0.9,0.6-1.7,1.5-2c55-20.7,77.2-93.3,77.4-94.1c0.3-1,1.2-1.6,2.2-1.6c1,0,1.9,0.7,2.2,1.6
		c0.2,0.7,22.4,73.4,77.4,94.1c0.9,0.3,1.4,1.1,1.5,2c0.1,0.9-0.4,1.8-1.2,2.2c-0.5,0.3-11.2,5.8-22.7,4.4
		c4.1,10.9,18.4,43.4,49.4,60.4c0.7,0.4,1.2,1.2,1.2,2c0,0.8-0.4,1.6-1.2,2c-0.6,0.3-13.9,7.6-29.4,4c-1.2-0.3-2-1.5-1.7-2.8
		c0.3-1.2,1.5-2,2.8-1.7c9.1,2.1,17.5-0.1,22.2-1.8c-36.1-22.2-48.4-62.8-48.9-64.6c-0.2-0.8,0-1.7,0.6-2.3c0.6-0.6,1.5-0.8,2.3-0.6
		c6.7,1.9,13.8,0.3,18.4-1.2c-44.3-19.8-66.1-70.2-72.7-88.4c-6.6,18.2-28.5,68.6-72.7,88.4c4.6,1.5,11.7,3.1,18.4,1.2
		c0.8-0.2,1.7,0,2.3,0.6c0.6,0.6,0.8,1.5,0.6,2.3c-0.5,1.8-12.8,42.4-48.9,64.6c4.7,1.8,13.1,3.9,22.2,1.8c0.7-0.2,1.4,0,2,0.4
		c0.6,0.4,0.9,1.1,0.9,1.8c0,1.6-1,39.8-50.7,65.6C766.2,363.1,765.9,363.2,765.5,363.2z"/>
	<path class="st3" d="M775.7,404.6c38.3,6,49.1-13.4,49.1-13.4c-55.6-28.9-56-71.9-56-71.9c16.8,3.9,31.4-4.3,31.4-4.3
		c-43.9-24.1-58.6-74.1-58.6-74.1c13.8,3.9,28.4-3.9,28.4-3.9C706,213,681,129,681,129s-25,84-89.2,108.1c0,0,14.6,7.8,28.4,3.9
		c0,0-14.6,50-58.6,74.1c0,0,14.6,8.2,31.4,4.3c0,0-0.4,43.1-56,71.9c0,0,10.8,19.4,49.1,13.4c0,0-18.5,28-57.7,37
		c0,0,20.5,68.5,152.5,57.5c132,11,152.5-57.5,152.5-57.5C794.3,432.6,775.7,404.6,775.7,404.6z"/>
	<path class="st2" d="M604,582.2c-1.3,0-2.3-1-2.3-2.3v-14.6c0-1.3,1-2.3,2.3-2.3c1.3,0,2.3,1,2.3,2.3v14.6
		C606.3,581.2,605.3,582.2,604,582.2z"/>
	<path class="st2" d="M604,616.2c-1.3,0-2.3-1-2.3-2.3v-14.6c0-1.3,1-2.3,2.3-2.3c1.3,0,2.3,1,2.3,2.3v14.6
		C606.3,615.2,605.3,616.2,604,616.2z"/>
	<path class="st2" d="M594.3,591.9h-14.6c-1.3,0-2.3-1-2.3-2.3c0-1.3,1-2.3,2.3-2.3h14.6c1.3,0,2.3,1,2.3,2.3
		C596.6,590.9,595.6,591.9,594.3,591.9z"/>
	<path class="st2" d="M628.3,591.9h-14.6c-1.3,0-2.3-1-2.3-2.3c0-1.3,1-2.3,2.3-2.3h14.6c1.3,0,2.3,1,2.3,2.3
		C630.6,590.9,629.6,591.9,628.3,591.9z"/>
	<rect x="189.9" y="319.4" class="st4" width="368.7" height="291.2"/>
	<path class="st2" d="M558.6,612.9H189.9c-1.3,0-2.3-1-2.3-2.3V319.4c0-1.3,1-2.3,2.3-2.3h368.7c1.3,0,2.3,1,2.3,2.3v291.2
		C560.9,611.8,559.9,612.9,558.6,612.9z M192.2,608.2h364.1V321.7H192.2V608.2z"/>
	<path class="st5" d="M543.8,258.9c-22.8,0-41.4-16.2-41.4-36.2s18.5-36.2,41.4-36.2c3.7,0,7.3,0.4,10.7,1.2
		c-9.7-9.2-22.8-14.8-37.2-14.8c-30,0-54.3,24.3-54.3,54.3s24.3,54.3,54.3,54.3c20.2,0,37.9-11.1,47.2-27.5
		C558.4,257.2,551.3,258.9,543.8,258.9z"/>
	<path class="st2" d="M330.3,268.7c-9.6,0-17.4-7.8-17.4-17.4c0-9.6,7.8-17.4,17.4-17.4c9.6,0,17.4,7.8,17.4,17.4
		C347.7,260.9,339.9,268.7,330.3,268.7z M330.3,238.5c-7,0-12.8,5.7-12.8,12.8c0,7,5.7,12.8,12.8,12.8c7,0,12.8-5.7,12.8-12.8
		C343.1,244.3,337.4,238.5,330.3,238.5z"/>
	<path class="st2" d="M290.7,268.7c-4.4,0-7.9-3.5-7.9-7.9c0-4.4,3.5-7.9,7.9-7.9c4.4,0,7.9,3.5,7.9,7.9
		C298.6,265.1,295.1,268.7,290.7,268.7z M290.7,257.5c-1.8,0-3.3,1.5-3.3,3.3c0,1.8,1.5,3.3,3.3,3.3s3.3-1.5,3.3-3.3
		C294,259,292.5,257.5,290.7,257.5z"/>
	<g>
		<path class="st2" d="M403,261c-1.3,0-2.3-1-2.3-2.3v-53.4c0-1.3,1-2.3,2.3-2.3c1.3,0,2.3,1,2.3,2.3v53.4
			C405.3,260,404.3,261,403,261z"/>
	</g>
	<g>
		<path class="st2" d="M379.9,247.7c-0.8,0-1.6-0.4-2-1.2c-0.6-1.1-0.3-2.5,0.8-3.2l46.3-26.7c1.1-0.6,2.5-0.3,3.2,0.8
			c0.6,1.1,0.3,2.5-0.8,3.2L381,247.4C380.7,247.6,380.3,247.7,379.9,247.7z"/>
	</g>
	<g>
		<path class="st2" d="M426.1,247.7c-0.4,0-0.8-0.1-1.2-0.3l-46.3-26.7c-1.1-0.6-1.5-2-0.8-3.2c0.6-1.1,2-1.5,3.2-0.8l46.3,26.7
			c1.1,0.6,1.5,2,0.8,3.2C427.7,247.3,426.9,247.7,426.1,247.7z"/>
	</g>
	<g>
		<path class="st2" d="M691.6,620.4c-1.3,0-2.3-1-2.3-2.3v-40c0-1.3,1-2.3,2.3-2.3s2.3,1,2.3,2.3v40
			C693.9,619.4,692.8,620.4,691.6,620.4z"/>
	</g>
	<g>
		<path class="st2" d="M674.2,610.4c-0.8,0-1.6-0.4-2-1.2c-0.6-1.1-0.3-2.5,0.8-3.1l34.6-20c1.1-0.6,2.5-0.3,3.2,0.8
			c0.6,1.1,0.3,2.5-0.8,3.1l-34.6,20C675,610.3,674.6,610.4,674.2,610.4z"/>
	</g>
	<g>
		<path class="st2" d="M708.9,610.4c-0.4,0-0.8-0.1-1.2-0.3l-34.6-20c-1.1-0.6-1.5-2-0.8-3.1c0.6-1.1,2-1.5,3.2-0.8l34.6,20
			c1.1,0.6,1.5,2,0.8,3.1C710.4,610,709.7,610.4,708.9,610.4z"/>
	</g>
	<path class="st2" d="M440.6,291.5H189.9c-1.3,0-2.3-1-2.3-2.3s1-2.3,2.3-2.3h250.7c1.3,0,2.3,1,2.3,2.3S441.9,291.5,440.6,291.5z"
		/>
	<path class="st2" d="M157.2,510.3c-1.3,0-2.3-1-2.3-2.3V346.5c0-1.3,1-2.3,2.3-2.3c1.3,0,2.3,1,2.3,2.3V508
		C159.5,509.3,158.4,510.3,157.2,510.3z"/>
	<path class="st2" d="M990,640.9c-28.7,0-50.9-6.1-51.2-6.1c-1-0.3-1.7-1.2-1.7-2.2c0-1,0.7-1.9,1.7-2.2c45-13.2,60.4-48.7,65-64.3
		c-6.7,3.9-15.8,4.9-17.2,5c-1,0.1-2-0.5-2.4-1.4c-0.4-1-0.1-2,0.7-2.7c0.7-0.5,16.1-13.4-0.5-39.2l-0.4-0.7
		c-18-27.8-26.2-40.5-26.6-62.5c-0.2-12.3,4.2-19.7,8-23.8c0.9-0.9,2.3-1,3.3-0.1c0.9,0.9,1,2.3,0.1,3.3c-3.2,3.4-7,9.8-6.8,20.5
		c0.4,20.7,8.4,33.1,25.9,60.1l0.4,0.7c12.8,19.7,8.3,33.3,3.9,40.1c5.3-1.2,11.8-3.6,13.7-7.6c0.5-1,1.7-1.5,2.8-1.2
		c1.1,0.3,1.8,1.4,1.6,2.5c-0.1,0.5-8.3,52.7-62.2,72.9c11.1,2.2,32.7,5.5,56.8,3.6c46.2-3.7,79.1-23.8,97.6-59.8
		c0.3-0.7,1-1.1,1.8-1.2c0.4,0,3.9-0.4,7.1,2.7c3,2.9,4.6,7.8,4.7,14.6c10.6-10.1,39.2-42.3,36.1-95c-2.1-35.7-12.3-52.9-20.4-61
		c-0.9-0.9-0.9-2.4,0-3.3c0.9-0.9,2.4-0.9,3.3,0c8.7,8.7,19.6,26.9,21.8,64c3.9,66.8-41.4,102-41.8,102.3c-0.7,0.6-1.7,0.6-2.5,0.2
		c-0.8-0.4-1.3-1.3-1.2-2.2c0.8-10.1-1.2-14.4-3.1-16.2c-0.8-0.8-1.7-1.2-2.3-1.4c-19.2,36.2-54,57.2-100.8,60.9
		C999.9,640.7,994.8,640.9,990,640.9z"/>
	<path class="st4" d="M1239,483c-14.6-23.8-51.9-31.2-94-30.9c4.5,10.4,8.2,24.7,9.4,44.7c3.9,66.3-40.9,100.4-40.9,100.4
		c1.7-21.5-9-20.2-9-20.2c-45.7,88.7-165,55.6-165,55.6c60.3-17.7,68.5-73.7,68.5-73.7c-3.9,8.2-21.5,9.9-21.5,9.9s18.1-14.2,0-42.2
		c-13.6-21.1-21.6-33.4-24.9-47.4H746.7v62.7l184.8,19.4c0,0-47.2,36.8-21.3,131.2h363.8C1273.9,692.4,1280.4,550.2,1239,483z"/>
	<path class="st2" d="M1273.9,694.7H910.1c-1,0-1.9-0.7-2.2-1.7c-21.8-79.6,7.2-118.6,18.3-130l-179.8-18.9
		c-1.2-0.1-2.1-1.1-2.1-2.3v-62.7c0-1.3,1-2.3,2.3-2.3h214.8c1.1,0,2,0.7,2.2,1.8c3.2,13.5,11.1,25.7,24.2,46l0.4,0.7
		c12.8,19.7,8.3,33.3,3.9,40.1c5.3-1.2,11.8-3.6,13.7-7.6c0.5-1,1.7-1.5,2.8-1.2c1.1,0.3,1.8,1.4,1.6,2.5
		c-0.1,0.5-8.3,52.7-62.2,72.9c11.1,2.2,32.7,5.5,56.8,3.6c46.2-3.7,79.1-23.8,97.6-59.8c0.3-0.7,1-1.1,1.8-1.2
		c0.4,0,3.9-0.4,7.1,2.7c3,2.9,4.6,7.8,4.7,14.6c10.6-10.1,39.2-42.3,36.1-95c-1-17.6-4.1-32.3-9.2-43.9c-0.3-0.7-0.2-1.5,0.2-2.2
		c0.4-0.7,1.1-1,1.9-1.1c50.4-0.4,82.7,10.4,96,32l0,0c41.3,67,35.5,204.8,35.2,210.7C1276.2,693.7,1275.2,694.7,1273.9,694.7z
		 M911.9,690.1h359.8c0.6-18.2,3.1-144.5-34.6-205.8c-12.1-19.7-41.9-29.7-88.6-29.8c4.5,11.5,7.3,25.7,8.2,42.2
		c3.9,66.8-41.4,102-41.8,102.3c-0.7,0.6-1.7,0.6-2.5,0.2c-0.8-0.4-1.3-1.3-1.2-2.2c0.8-10.1-1.2-14.4-3.1-16.2
		c-0.8-0.8-1.7-1.2-2.3-1.4c-19.2,36.2-54,57.3-100.8,60.9c-35.5,2.8-65.9-5.5-66.2-5.6c-1-0.3-1.7-1.2-1.7-2.2c0-1,0.7-1.9,1.7-2.2
		c45.1-13.2,60.4-48.7,65-64.3c-6.7,3.9-15.8,4.9-17.2,5c-1,0.1-2-0.5-2.4-1.4c-0.4-1-0.1-2,0.7-2.7c0.7-0.5,16.1-13.4-0.5-39.2
		l-0.4-0.7c-12.8-19.8-20.8-32.2-24.4-45.7H749v58.3l182.7,19.2c0.9,0.1,1.7,0.8,2,1.7c0.3,0.9-0.1,1.9-0.8,2.5
		C932.4,563.4,887.8,599.8,911.9,690.1z"/>
	<path class="st4" d="M1251.3,436.5c0,0-20.4,27.8-56.9-1.6c-36.5-29.4,22-77.5,34.6-118.6c12.6-41-5.5-123.7-134.1-123.7
		S961.2,311.8,961.2,311.8l199,13.6l-0.4,2.6h4.3v87.7c0,14-10,25.7-23.3,28.4c5.7,9.4,10.8,23.6,13,44.9c13.2,5.7,32.3,11,55.2,8.3
		c44.3-5.2,52.7-48.9,52.7-48.9L1251.3,436.5z"/>
	<path class="st2" d="M1196.8,500.3c-18.4,0-33.7-4.8-44-9.2c-0.8-0.3-1.3-1.1-1.4-1.9c-1.8-18.3-6.1-33.1-12.6-43.9
		c-0.4-0.6-0.4-1.4-0.1-2.1c0.3-0.7,0.9-1.2,1.7-1.3c12.4-2.5,21.4-13.4,21.4-26.1v-85.4h-2c-0.7,0-1.3-0.3-1.8-0.8
		c-0.4-0.5-0.6-1.2-0.5-1.9l0-0.1L961,314.1c-1.2-0.1-2.2-1.2-2.1-2.4c0.1-1.2,1.5-30.7,19-60.7c16.1-27.7,49.6-60.8,117.1-60.8
		c71.7,0,105.8,25.7,121.8,47.3c20.3,27.4,20.5,59.9,14.5,79.4c-4.3,13.9-13.7,28.7-22.9,42.9c-18.1,28.2-35.2,54.9-12.5,73.2
		c12.2,9.8,23.8,14.1,34.4,12.7c12.4-1.6,19.1-10.6,19.2-10.7c0.4-0.6,1.1-0.9,1.8-0.9c0.7,0,1.4,0.3,1.8,0.8l10.3,11.9
		c0.5,0.5,0.7,1.3,0.5,1.9c-0.1,0.5-9.2,45.4-54.7,50.7C1205,500,1200.8,500.3,1196.8,500.3z M1155.9,487.4c12,5,30.6,10.2,52.8,7.6
		c38.3-4.5,48.8-39.4,50.4-45.9l-7.8-9c-3.1,3.2-10,9-20.4,10.4c-11.9,1.6-24.6-3.1-37.9-13.7c-26-20.9-6.9-50.6,11.5-79.3
		c9-14,18.2-28.4,22.3-41.8c5.7-18.4,5.4-49.2-13.8-75.3c-15.3-20.7-48.2-45.5-118.1-45.5c-52.4,0-90.5,19.7-113.1,58.5
		c-14.2,24.3-17.5,48.9-18.2,56.3l196.7,13.4c0.7,0,1.3,0.4,1.7,0.9c0.4,0.5,0.6,1.1,0.5,1.7h1.6c1.3,0,2.3,1,2.3,2.3v87.7
		c0,13.8-9.1,25.9-22.1,29.8C1150.2,456.4,1154.1,470.4,1155.9,487.4z"/>
	<path class="st2" d="M1124.9,407.1c-1.3,0-2.3-1-2.3-2.3v-18.7c0-1.3,1-2.3,2.3-2.3h8.3c3.4,0,6.2-2.8,6.2-6.2v-10.9
		c0-2.8-2.3-5-5-5h-9.5c-1.3,0-2.3-1-2.3-2.3v-14.1c0-1.3,1-2.3,2.3-2.3c1.3,0,2.3,1,2.3,2.3v11.8h7.2c5.3,0,9.6,4.3,9.6,9.6v10.9
		c0,6-4.9,10.8-10.8,10.8h-6v16.4C1127.2,406.1,1126.2,407.1,1124.9,407.1z"/>
	<path class="st1" d="M1165.4,344.1H957.6c-8.9,0-16.2-7.2-16.2-16.2l0,0c0-8.9,7.2-16.2,16.2-16.2h207.7c8.9,0,16.2,7.2,16.2,16.2
		l0,0C1181.5,336.9,1174.3,344.1,1165.4,344.1z"/>
	<path class="st2" d="M1165.4,346.4H957.6c-10.2,0-18.5-8.3-18.5-18.5c0-10.2,8.3-18.5,18.5-18.5h207.7c10.2,0,18.5,8.3,18.5,18.5
		C1183.8,338.1,1175.5,346.4,1165.4,346.4z M957.6,314.1c-7.6,0-13.8,6.2-13.8,13.8s6.2,13.8,13.8,13.8h207.7
		c7.6,0,13.8-6.2,13.8-13.8s-6.2-13.8-13.8-13.8H957.6z"/>
	<path class="st2" d="M965.7,408.2c-1.3,0-2.3-1-2.3-2.3v-61.7c0-1.3,1-2.3,2.3-2.3c1.3,0,2.3,1,2.3,2.3v61.7
		C968,407.1,967,408.2,965.7,408.2z"/>
	<g>
		<path class="st2" d="M1006.3,452.2c-8.6,0-18.8-1.5-30.5-5c-49.8-15-41.8-58.7-41.7-59.2c0.2-0.9,0.8-1.6,1.7-1.8
			c0.9-0.2,1.8,0.1,2.3,0.8c18.3,22,49.7,19.6,70.6,18c5-0.4,9.3-0.7,13-0.7c6.4,0,11.8,1.6,16.1,4.8c7.9,6,10.2,16.9,5.3,25.9
			C1038,444.3,1026.1,452.2,1006.3,452.2z M938.1,393.7c-0.5,11.1,2.4,38,39,49c35.9,10.8,55.5,1.9,61.9-10l0,0
			c3.8-7,2.1-15.5-4-20.1c-3.4-2.6-7.9-3.9-13.3-3.9c-3.5,0-7.7,0.3-12.6,0.7C988.5,411.1,958.1,413.4,938.1,393.7z"/>
	</g>
	<g>
		<path class="st2" d="M1080.3,452.2c-19.8,0-31.7-7.8-36.8-17.2l0,0c-4.9-9.1-2.6-20,5.3-25.9c4.2-3.2,9.6-4.8,16.1-4.8
			c3.7,0,8,0.3,13,0.7c20.8,1.6,52.3,4,70.6-18c0.6-0.7,1.5-1,2.3-0.8c0.9,0.2,1.5,0.9,1.7,1.8c0.1,0.4,8.1,44.2-41.7,59.2
			C1099.1,450.7,1089,452.2,1080.3,452.2z M1065,408.8c-5.4,0-9.9,1.3-13.3,3.9c-6.1,4.6-7.8,13-4,20.1l0,0
			c6.4,11.9,26,20.8,61.9,10c36.6-11,39.5-37.9,39-49c-20,19.7-50.4,17.4-70.9,15.8C1072.7,409.1,1068.4,408.8,1065,408.8z"/>
	</g>
	<path class="st2" d="M1127.2,538.7c-0.3,0-0.7-0.1-1-0.2c-1.2-0.5-1.7-1.9-1.1-3.1c13.2-28.2-1.2-63.9-1.3-64.2
		c-0.5-1.2,0.1-2.5,1.3-3c1.2-0.5,2.5,0.1,3,1.3c0.6,1.5,15.3,37.9,1.3,68C1128.9,538.3,1128.1,538.7,1127.2,538.7z"/>
	<circle class="st1" cx="1270.5" cy="428.6" r="28.6"/>
	<path class="st2" d="M1270.5,459.5c-17.1,0-31-13.9-31-31c0-17.1,13.9-31,31-31s31,13.9,31,31
		C1301.4,445.6,1287.5,459.5,1270.5,459.5z M1270.5,402.2c-14.5,0-26.3,11.8-26.3,26.3c0,14.5,11.8,26.3,26.3,26.3
		c14.5,0,26.3-11.8,26.3-26.3C1296.8,414,1285,402.2,1270.5,402.2z"/>
	<g>
		<path class="st2" d="M1023.8,379.2h-27.1c-1.3,0-2.3-1-2.3-2.3c0-1.3,1-2.3,2.3-2.3h27.1c1.3,0,2.3,1,2.3,2.3
			C1026.1,378.2,1025.1,379.2,1023.8,379.2z"/>
	</g>
	<g>
		<path class="st2" d="M1082.6,379.2h-27.1c-1.3,0-2.3-1-2.3-2.3c0-1.3,1-2.3,2.3-2.3h27.1c1.3,0,2.3,1,2.3,2.3
			C1084.9,378.2,1083.9,379.2,1082.6,379.2z"/>
	</g>
	<path class="st2" d="M1224,418.7c-0.2,0-0.4,0-0.6-0.1c-1.2-0.3-2-1.6-1.7-2.8c5.8-22.1,25.8-37.6,48.7-37.6
		c10.6,0,20.8,3.3,29.4,9.5c1,0.7,1.3,2.2,0.5,3.2c-0.7,1-2.2,1.3-3.2,0.5c-7.8-5.6-17.1-8.6-26.7-8.6c-20.8,0-39,14-44.2,34.2
		C1226,418,1225,418.7,1224,418.7z"/>
	<path class="st5" d="M735.5,481.4H595.6c-6.2,0-11.1,5-11.1,11.1l0,0c0,6.2,5,11.1,11.1,11.1h34.5v46.1h106.6v-46.2
		c5.6-0.6,9.9-5.3,9.9-11.1l0,0C746.7,486.4,741.7,481.4,735.5,481.4z"/>
	<path class="st2" d="M736.8,552.1H630.1c-1.3,0-2.3-1-2.3-2.3V506h-32.2c-7.4,0-13.5-6-13.5-13.5c0-7.4,6-13.5,13.5-13.5h139.9
		c7.4,0,13.5,6,13.5,13.5c0,6.2-4.1,11.4-9.9,13v44.3C739.1,551.1,738,552.1,736.8,552.1z M632.5,547.5h102v-43.9
		c0-1.2,0.9-2.2,2.1-2.3c4.5-0.5,7.9-4.3,7.9-8.8c0-4.9-4-8.8-8.8-8.8H595.6c-4.9,0-8.8,4-8.8,8.8c0,4.9,4,8.8,8.8,8.8h34.5
		c1.3,0,2.3,1,2.3,2.3V547.5z"/>
	<path class="st5" d="M665.7,522.7h-37.3c-5.2,0-9.5-4.2-9.5-9.5l0,0c0-5.2,4.2-9.5,9.5-9.5h37.3c5.2,0,9.5,4.2,9.5,9.5l0,0
		C675.2,518.4,670.9,522.7,665.7,522.7z"/>
	<path class="st2" d="M665.7,525h-37.3c-6.5,0-11.8-5.3-11.8-11.8c0-6.5,5.3-11.8,11.8-11.8h37.3c6.5,0,11.8,5.3,11.8,11.8
		C677.5,519.7,672.2,525,665.7,525z M628.4,506c-4,0-7.2,3.2-7.2,7.2c0,4,3.2,7.2,7.2,7.2h37.3c4,0,7.2-3.2,7.2-7.2
		c0-4-3.2-7.2-7.2-7.2H628.4z"/>
	<path class="st5" d="M662.9,541.6h-32.1c-5.2,0-9.5-4.2-9.5-9.5v0c0-5.2,4.2-9.5,9.5-9.5h32.1c5.2,0,9.5,4.2,9.5,9.5v0
		C672.4,537.4,668.1,541.6,662.9,541.6z"/>
	<path class="st2" d="M662.9,543.9h-32.1c-6.5,0-11.8-5.3-11.8-11.8c0-6.5,5.3-11.8,11.8-11.8h32.1c6.5,0,11.8,5.3,11.8,11.8
		C674.7,538.6,669.4,543.9,662.9,543.9z M630.8,525c-4,0-7.2,3.2-7.2,7.2c0,4,3.2,7.2,7.2,7.2h32.1c4,0,7.2-3.2,7.2-7.2
		c0-4-3.2-7.2-7.2-7.2H630.8z"/>
	<path class="st5" d="M660.7,560.6H636c-5.2,0-9.5-4.2-9.5-9.5l0,0c0-5.2,4.2-9.5,9.5-9.5h24.8c5.2,0,9.5,4.2,9.5,9.5l0,0
		C670.2,556.3,666,560.6,660.7,560.6z"/>
	<path class="st2" d="M660.7,562.9H636c-6.5,0-11.8-5.3-11.8-11.8c0-6.5,5.3-11.8,11.8-11.8h24.8c6.5,0,11.8,5.3,11.8,11.8
		C672.5,557.6,667.2,562.9,660.7,562.9z M636,543.9c-4,0-7.2,3.2-7.2,7.2c0,4,3.2,7.2,7.2,7.2h24.8c4,0,7.2-3.2,7.2-7.2
		c0-4-3.2-7.2-7.2-7.2H636z"/>
	<path class="st1" d="M742.8,566.4L742.8,566.4c8.6,0,15.5-6.9,15.5-15.5v-66.2c0-8.6-6.9-15.5-15.5-15.5l0,0
		c-8.6,0-15.5,6.9-15.5,15.5v66.2C727.3,559.5,734.2,566.4,742.8,566.4z"/>
	<path class="st2" d="M742.8,568.7c-9.8,0-17.8-8-17.8-17.8v-66.2c0-9.8,8-17.8,17.8-17.8c9.8,0,17.8,8,17.8,17.8v66.2
		C760.6,560.7,752.6,568.7,742.8,568.7z M742.8,471.5c-7.3,0-13.2,5.9-13.2,13.2v66.2c0,7.3,5.9,13.2,13.2,13.2s13.2-5.9,13.2-13.2
		v-66.2C756,477.4,750.1,471.5,742.8,471.5z"/>
	<polygon class="st5" points="847,574.3 855.6,591.6 874.7,594.4 860.8,607.9 864.1,627 847,618 829.8,627 833.1,607.9 819.2,594.4 
		838.4,591.6 	"/>
	<polygon class="st5" points="681,96 689.5,113.4 708.7,116.2 694.8,129.7 698.1,148.8 681,139.8 663.8,148.8 667.1,129.7 
		653.2,116.2 672.4,113.4 	"/>
	<path class="st2" d="M698.1,151.1c-0.4,0-0.7-0.1-1.1-0.3l-16.1-8.4l-16.1,8.4c-0.8,0.4-1.7,0.3-2.4-0.2c-0.7-0.5-1.1-1.4-0.9-2.3
		l3.1-17.9l-13-12.7c-0.6-0.6-0.9-1.5-0.6-2.4c0.3-0.8,1-1.4,1.9-1.6l18-2.6l8-16.3c0.4-0.8,1.2-1.3,2.1-1.3c0.9,0,1.7,0.5,2.1,1.3
		l8,16.3l18,2.6c0.9,0.1,1.6,0.7,1.9,1.6c0.3,0.8,0,1.8-0.6,2.4l-13,12.7l3.1,17.9c0.1,0.9-0.2,1.7-0.9,2.3
		C699.1,151,698.6,151.1,698.1,151.1z M681,137.5c0.4,0,0.7,0.1,1.1,0.3l13,6.8l-2.5-14.5c-0.1-0.7,0.1-1.5,0.7-2l10.5-10.3
		l-14.5-2.1c-0.8-0.1-1.4-0.6-1.7-1.3l-6.5-13.2l-6.5,13.2c-0.3,0.7-1,1.2-1.7,1.3l-14.5,2.1l10.5,10.3c0.5,0.5,0.8,1.3,0.7,2
		l-2.5,14.5l13-6.8C680.2,137.6,680.6,137.5,681,137.5z"/>
	<path class="st2" d="M157.8,907.1c-10.4,0-18.9-8.5-18.9-18.9s8.5-18.9,18.9-18.9c10.4,0,18.9,8.5,18.9,18.9
		S168.2,907.1,157.8,907.1z M157.8,873.9c-7.9,0-14.3,6.4-14.3,14.3c0,7.9,6.4,14.3,14.3,14.3c7.9,0,14.3-6.4,14.3-14.3
		C172.1,880.3,165.7,873.9,157.8,873.9z"/>
	<path class="st2" d="M1353.4,907.1c-10.4,0-18.9-8.5-18.9-18.9s8.5-18.9,18.9-18.9s18.9,8.5,18.9,18.9S1363.8,907.1,1353.4,907.1z
		 M1353.4,873.9c-7.9,0-14.3,6.4-14.3,14.3c0,7.9,6.4,14.3,14.3,14.3c7.9,0,14.3-6.4,14.3-14.3
		C1367.7,880.3,1361.3,873.9,1353.4,873.9z"/>
	<path class="st2" d="M1336.8,890.5H174.4c-1.3,0-2.3-1-2.3-2.3s1-2.3,2.3-2.3h1162.4c1.3,0,2.3,1,2.3,2.3
		S1338.1,890.5,1336.8,890.5z"/>
	<rect x="195.1" y="756.1" class="st3" width="218" height="132"/>
	<path class="st2" d="M413,890.5h-218c-1.3,0-2.3-1-2.3-2.3v-132c0-1.3,1-2.3,2.3-2.3h218c1.3,0,2.3,1,2.3,2.3v132
		C415.3,889.4,414.3,890.5,413,890.5z M197.4,885.9h213.4V758.5H197.4V885.9z"/>
	<rect x="177.4" y="727.3" class="st5" width="253.3" height="28.9"/>
	<path class="st2" d="M430.7,758.5H177.4c-1.3,0-2.3-1-2.3-2.3v-28.9c0-1.3,1-2.3,2.3-2.3h253.3c1.3,0,2.3,1,2.3,2.3v28.9
		C433,757.4,432,758.5,430.7,758.5z M179.7,753.8h248.7v-24.2H179.7V753.8z"/>
	
		<ellipse transform="matrix(0.3827 -0.9239 0.9239 0.3827 -451.5898 920.2974)" class="st1" cx="462.9" cy="798.1" rx="19.5" ry="19.5"/>
	<path class="st2" d="M462.9,819.9c-12,0-21.8-9.8-21.8-21.8s9.8-21.8,21.8-21.8c12,0,21.8,9.8,21.8,21.8S474.9,819.9,462.9,819.9z
		 M462.9,780.9c-9.5,0-17.2,7.7-17.2,17.2c0,9.5,7.7,17.2,17.2,17.2c9.5,0,17.2-7.7,17.2-17.2C480.1,788.6,472.4,780.9,462.9,780.9z
		"/>
	
		<ellipse transform="matrix(0.9711 -0.2389 0.2389 0.9711 -179.8471 146.3222)" class="st5" cx="513.8" cy="815.2" rx="12.1" ry="12.1"/>
	<path class="st2" d="M513.8,829.5c-7.9,0-14.4-6.4-14.4-14.4c0-7.9,6.4-14.4,14.4-14.4c7.9,0,14.4,6.4,14.4,14.4
		C528.1,823.1,521.7,829.5,513.8,829.5z M513.8,805.4c-5.4,0-9.8,4.4-9.8,9.8c0,5.4,4.4,9.8,9.8,9.8c5.4,0,9.8-4.4,9.8-9.8
		C523.5,809.8,519.1,805.4,513.8,805.4z"/>
	<path class="st2" d="M339.4,675.3H183.9c-1.3,0-2.3-1-2.3-2.3v-25c0-1.3,1-2.3,2.3-2.3h206.3c1.3,0,2.3,1,2.3,2.3v15.5
		c0,1.3-1,2.3-2.3,2.3h-48.5v7.2C341.7,674.3,340.7,675.3,339.4,675.3z M186.2,670.7h150.9v-7.2c0-1.3,1-2.3,2.3-2.3h48.5v-10.9
		H186.2V670.7z"/>
	<path class="st2" d="M362.6,729.6H205.8c-1.3,0-2.3-1-2.3-2.3V673c0-1.3,1-2.3,2.3-2.3h133.5c1.3,0,2.3,1,2.3,2.3v17.1h21
		c1.3,0,2.3,1,2.3,2.3v34.9C364.9,728.6,363.9,729.6,362.6,729.6z M208.2,725h152.2v-30.3h-21c-1.3,0-2.3-1-2.3-2.3v-17.1H208.2V725
		z"/>
	<path class="st2" d="M529.1,777.8c-7.4,0-13.5-6-13.5-13.5c0-7.4,6-13.5,13.5-13.5c7.4,0,13.5,6,13.5,13.5
		C542.5,771.7,536.5,777.8,529.1,777.8z M529.1,755.5c-4.9,0-8.8,4-8.8,8.8c0,4.9,4,8.8,8.8,8.8c4.9,0,8.8-4,8.8-8.8
		C537.9,759.4,534,755.5,529.1,755.5z"/>
	<path class="st2" d="M452.2,868.2c-7.4,0-13.5-6-13.5-13.5s6-13.5,13.5-13.5c7.4,0,13.5,6,13.5,13.5S459.7,868.2,452.2,868.2z
		 M452.2,845.9c-4.9,0-8.8,4-8.8,8.8s4,8.8,8.8,8.8c4.9,0,8.8-4,8.8-8.8S457.1,845.9,452.2,845.9z"/>
	<circle class="st1" cx="308.4" cy="744.5" r="47"/>
	<path class="st2" d="M308.4,793.8c-27.2,0-49.3-22.1-49.3-49.3c0-27.2,22.1-49.3,49.3-49.3c27.2,0,49.3,22.1,49.3,49.3
		C357.6,771.7,335.5,793.8,308.4,793.8z M308.4,699.9c-24.6,0-44.6,20-44.6,44.6c0,24.6,20,44.6,44.6,44.6c24.6,0,44.6-20,44.6-44.6
		C353,719.9,333,699.9,308.4,699.9z"/>
	<path class="st4" d="M308.4,759.1c17.2,5.4,31.2,7.1,41.6,7.2c3.4-6.5,5.4-13.9,5.4-21.8c0-2.4-0.2-4.8-0.5-7.1
		c-5.2,1.8-11.9,2.6-20.4,1.2c-25.5-4.2-26.5-11.5-46-9.3c-10.3,1.1-19.6,4.8-26.5,8.3c-0.3,2.3-0.5,4.6-0.5,6.9
		c0,7.7,1.9,15,5.1,21.4C277.8,760.3,294.2,754.6,308.4,759.1z"/>
	<path class="st2" d="M349.9,768.7C349.9,768.7,349.9,768.7,349.9,768.7c-13.2-0.2-27.4-2.7-42.3-7.3l0,0
		c-13.4-4.2-29.2,1.3-40.1,6.6c-1.1,0.6-2.5,0.1-3.1-1c-3.6-7-5.4-14.5-5.4-22.4c0-2.4,0.2-4.8,0.5-7.3c0.1-0.7,0.6-1.4,1.2-1.7
		c9.3-4.7,18.4-7.6,27.3-8.5c11.8-1.3,17.4,0.7,24.5,3.4c5.1,1.9,11.5,4.2,22.1,6c7.2,1.2,13.7,0.8,19.2-1.1
		c0.6-0.2,1.4-0.1,1.9,0.2c0.6,0.4,1,1,1.1,1.6c0.4,2.4,0.6,5,0.6,7.4c0,8-2,15.9-5.7,22.9C351.6,768.2,350.8,768.7,349.9,768.7z
		 M297.4,755.2c4,0,7.9,0.5,11.7,1.7l0,0c13.9,4.4,27.2,6.8,39.5,7.1c2.9-6,4.5-12.8,4.5-19.5c0-1.4-0.1-2.7-0.2-4.1
		c-5.6,1.4-11.9,1.6-18.8,0.5c-11.1-1.8-17.7-4.2-23-6.2c-7.1-2.6-11.7-4.3-22.4-3.1c-7.8,0.9-16.3,3.5-24.6,7.5
		c-0.2,1.8-0.3,3.6-0.3,5.4c0,6.4,1.3,12.5,3.9,18.3C276,758.9,286.7,755.2,297.4,755.2z"/>
	<path class="st2" d="M308.4,699.9c-1.3,0-2.3-1-2.3-2.3v-85.6c0-1.3,1-2.3,2.3-2.3s2.3,1,2.3,2.3v85.6
		C310.7,698.8,309.6,699.9,308.4,699.9z"/>
	<path class="st2" d="M478.5,746c-27.6,0-50.1-22.5-50.1-50.1c0-27.6,22.5-50.1,50.1-50.1c27.6,0,50.1,22.5,50.1,50.1
		C528.6,723.5,506.2,746,478.5,746z M478.5,650.3c-25.1,0-45.5,20.4-45.5,45.5c0,25.1,20.4,45.5,45.5,45.5
		c25.1,0,45.5-20.4,45.5-45.5C524,670.7,503.6,650.3,478.5,650.3z"/>
	<path class="st4" d="M442.7,727.5l73.8-60.6c-5.1-6.7-12.1-12.1-20-15.3l-64.9,53.3C433.2,713.5,437.1,721.2,442.7,727.5z"/>
	<path class="st2" d="M442.7,729.8c-0.6,0-1.3-0.3-1.7-0.8c-6-6.7-10-14.9-11.7-23.7c-0.2-0.8,0.1-1.7,0.8-2.2l64.9-53.3
		c0.7-0.5,1.6-0.7,2.3-0.4c8.3,3.4,15.5,8.9,21,16.1c0.8,1,0.6,2.4-0.4,3.2l-73.8,60.6C443.7,729.6,443.2,729.8,442.7,729.8z
		 M434.1,705.8c1.5,6.8,4.6,13.1,8.9,18.5l70.3-57.8c-4.5-5.3-10.1-9.5-16.4-12.3L434.1,705.8z"/>
	<path class="st4" d="M478.5,743.7c26.4,0,47.8-21.4,47.8-47.8c0-2.7-0.2-5.3-0.6-7.8l-64,52.6C466.9,742.6,472.6,743.7,478.5,743.7
		z"/>
	<path class="st2" d="M478.5,746c-6.1,0-12-1.1-17.6-3.2c-0.8-0.3-1.3-1-1.5-1.8c-0.1-0.8,0.2-1.6,0.8-2.2l64-52.6
		c0.6-0.5,1.5-0.7,2.3-0.4c0.8,0.3,1.3,1,1.5,1.8c0.4,2.7,0.7,5.5,0.7,8.2C528.6,723.5,506.2,746,478.5,746z M466.4,739.7
		c3.9,1.1,8,1.6,12.1,1.6c25.1,0,45.5-20.4,45.5-45.5c0-1.1,0-2.2-0.1-3.4L466.4,739.7z"/>
	<path class="st2" d="M430.8,694.7h-91.5c-1.3,0-2.3-1-2.3-2.3v-28.9c0-1.3,1-2.3,2.3-2.3h103.9c0.9,0,1.7,0.5,2.1,1.4
		c0.4,0.8,0.2,1.8-0.4,2.5c-6.9,7.5-11.1,17.3-11.8,27.5C433.1,693.8,432.1,694.7,430.8,694.7z M341.7,690.1h87.1
		c1-8.8,4.4-17.2,9.6-24.2h-96.7V690.1z"/>
	<path class="st2" d="M478.5,650.3c-1.3,0-2.3-1-2.3-2.3v-37.5c0-1.3,1-2.3,2.3-2.3c1.3,0,2.3,1,2.3,2.3V648
		C480.8,649.3,479.8,650.3,478.5,650.3z"/>
	<path class="st2" d="M616.8,705.9c-21.8,0-39.5-17.7-39.5-39.5c0-21.8,17.7-39.5,39.5-39.5s39.5,17.7,39.5,39.5
		C656.3,688.2,638.6,705.9,616.8,705.9z M616.8,631.6c-19.2,0-34.8,15.6-34.8,34.8c0,19.2,15.6,34.8,34.8,34.8s34.8-15.6,34.8-34.8
		C651.6,647.2,636,631.6,616.8,631.6z"/>
	<path class="st2" d="M590.2,694.7h-64c-1.2,0-2.2-0.9-2.3-2.1c-0.7-10.2-4.9-19.9-11.8-27.5c-0.6-0.7-0.8-1.6-0.4-2.5
		c0.4-0.8,1.2-1.4,2.1-1.4h66c0.6,0,1.3,0.3,1.7,0.7c0.4,0.5,0.7,1.1,0.6,1.7c-0.1,0.9-0.1,1.8-0.1,2.7c0,9.1,3.5,17.8,9.9,24.3
		c0.6,0.7,0.8,1.7,0.5,2.5C592,694.1,591.1,694.7,590.2,694.7z M528.3,690.1h56.9c-5.1-6.8-7.9-15-7.9-23.6c0-0.2,0-0.4,0-0.6h-58.7
		C523.9,672.9,527.3,681.3,528.3,690.1z"/>
	<path class="st2" d="M616.8,794.1c-27.7,0-50.3-22.6-50.3-50.3c0-20.8,12.5-39.2,31.9-46.8c0.6-0.2,1.3-0.2,1.9,0.1
		c10.1,5.4,22.9,5.4,33,0c0.6-0.3,1.3-0.4,1.9-0.1c19.4,7.6,31.9,26,31.9,46.8C667.1,771.5,644.5,794.1,616.8,794.1z M599.1,701.7
		c-17,7.2-28,23.6-28,42.1c0,25.2,20.5,45.7,45.7,45.7s45.7-20.5,45.7-45.7c0-18.5-10.9-35-28-42.1
		C623.6,707.2,610,707.2,599.1,701.7z"/>
	<path class="st2" d="M621.3,890.5H488.3c-0.7,0-1.3-0.3-1.7-0.8c-0.4-0.5-0.6-1.2-0.6-1.8c3-24,23.7-42.1,48.1-42.1
		c14.2,0,27.5,6.1,36.8,16.7c5-2.3,10.5-3.5,16.1-3.5c17.9,0,33.3,12.1,36.6,28.7c0.1,0.7,0,1.4-0.5,1.9
		C622.7,890.2,622,890.5,621.3,890.5z M490.9,885.9h127.4c-4-13-16.7-22.2-31.4-22.2c-5.5,0-10.9,1.3-15.7,3.8
		c-1,0.5-2.2,0.3-2.9-0.6c-8.4-10.4-20.9-16.4-34.4-16.4C512.9,850.4,494.8,865.5,490.9,885.9z"/>
	<polygon class="st3" points="1192.2,804.2 1175.7,820.1 1040.2,707.5 1040.2,678 	"/>
	<path class="st2" d="M1175.7,822.4c-0.5,0-1-0.2-1.5-0.5l-135.6-112.6c-0.5-0.4-0.8-1.1-0.8-1.8V678c0-0.9,0.5-1.7,1.3-2.1
		c0.8-0.4,1.8-0.3,2.5,0.3l152,126.2c0.5,0.4,0.8,1,0.8,1.7c0,0.7-0.2,1.3-0.7,1.7l-16.5,15.9
		C1176.9,822.2,1176.3,822.4,1175.7,822.4z M1042.5,706.4L1175.6,817l13.1-12.7l-146.3-121.5V706.4z"/>
	<rect x="699.5" y="835" class="st5" width="47.6" height="53"/>
	<path class="st2" d="M747.1,890.3h-47.6c-1.3,0-2.3-1-2.3-2.3v-53c0-1.3,1-2.3,2.3-2.3h47.6c1.3,0,2.3,1,2.3,2.3v53
		C749.4,889.2,748.4,890.3,747.1,890.3z M701.8,885.7h43v-48.4h-43V885.7z"/>
	<rect x="768" y="824.9" class="st4" width="48.2" height="13.2"/>
	<path class="st2" d="M816.2,840.4H768c-1.3,0-2.3-1-2.3-2.3v-13.2c0-1.3,1-2.3,2.3-2.3h48.2c1.3,0,2.3,1,2.3,2.3V838
		C818.5,839.3,817.5,840.4,816.2,840.4z M770.3,835.7h43.6v-8.6h-43.6V835.7z"/>
	<rect x="768" y="838" class="st4" width="48.2" height="13.2"/>
	<path class="st2" d="M816.2,853.6H768c-1.3,0-2.3-1-2.3-2.3V838c0-1.3,1-2.3,2.3-2.3h48.2c1.3,0,2.3,1,2.3,2.3v13.2
		C818.5,852.5,817.5,853.6,816.2,853.6z M770.3,848.9h43.6v-8.6h-43.6V848.9z"/>
	<rect x="839.9" y="824.9" class="st4" width="48.2" height="13.2"/>
	<path class="st2" d="M888.2,840.4h-48.2c-1.3,0-2.3-1-2.3-2.3v-13.2c0-1.3,1-2.3,2.3-2.3h48.2c1.3,0,2.3,1,2.3,2.3V838
		C890.5,839.3,889.4,840.4,888.2,840.4z M842.2,835.7h43.6v-8.6h-43.6V835.7z"/>
	<rect x="839.9" y="838" class="st4" width="48.2" height="13.2"/>
	<path class="st2" d="M888.2,853.6h-48.2c-1.3,0-2.3-1-2.3-2.3V838c0-1.3,1-2.3,2.3-2.3h48.2c1.3,0,2.3,1,2.3,2.3v13.2
		C890.5,852.5,889.4,853.6,888.2,853.6z M842.2,848.9h43.6v-8.6h-43.6V848.9z"/>
	<path class="st2" d="M829.9,778.1h-96c-1.3,0-2.3-1-2.3-2.3s1-2.3,2.3-2.3h96c1.3,0,2.3,1,2.3,2.3S831.2,778.1,829.9,778.1z"/>
	<path class="st2" d="M816.8,758.5h-69.7c-1.3,0-2.3-1-2.3-2.3c0-1.3,1-2.3,2.3-2.3h69.7c1.3,0,2.3,1,2.3,2.3
		C819.1,757.4,818.1,758.5,816.8,758.5z"/>
	<path class="st2" d="M807.9,738.9H756c-1.3,0-2.3-1-2.3-2.3c0-1.3,1-2.3,2.3-2.3h51.8c1.3,0,2.3,1,2.3,2.3
		C810.2,737.8,809.1,738.9,807.9,738.9z"/>
	<path class="st2" d="M675.3,668.7h-51c-1.3,0-2.3-1-2.3-2.3c0-1.3,1-2.3,2.3-2.3h51c1.3,0,2.3,1,2.3,2.3
		C677.6,667.7,676.5,668.7,675.3,668.7z"/>
	<path class="st2" d="M619.2,689.4c0,0-0.1,0-0.1,0c-17.1-1-23-12.3-23.2-12.7c-0.6-1.1-0.1-2.5,1-3.1c1.1-0.6,2.5-0.1,3.1,1
		c0.2,0.4,5.1,9.4,19.4,10.2c1.3,0.1,2.2,1.2,2.2,2.4C621.4,688.4,620.4,689.4,619.2,689.4z"/>
	<path class="st2" d="M610.7,658.8h-12.8c-1.3,0-2.3-1-2.3-2.3c0-1.3,1-2.3,2.3-2.3h12.8c1.3,0,2.3,1,2.3,2.3
		C613,657.8,611.9,658.8,610.7,658.8z"/>
	<path class="st2" d="M638.8,658.8H626c-1.3,0-2.3-1-2.3-2.3c0-1.3,1-2.3,2.3-2.3h12.8c1.3,0,2.3,1,2.3,2.3
		C641.1,657.8,640,658.8,638.8,658.8z"/>
	<path class="st2" d="M580.8,728.3c0,0-0.1,0-0.1,0c-0.7,0-16.3-0.8-30.1-10.6c-1-0.7-1.3-2.2-0.6-3.2c0.7-1,2.2-1.3,3.2-0.6
		c12.7,9,27.5,9.7,27.6,9.7c1.3,0.1,2.3,1.1,2.2,2.4C583.1,727.3,582.1,728.3,580.8,728.3z"/>
	<path class="st2" d="M653.9,723.2c-0.8,0-1.6-0.4-2-1.2c-0.6-1.1-0.2-2.5,1-3.1l28.1-14.7c1.1-0.6,2.5-0.2,3.1,1
		c0.6,1.1,0.2,2.5-1,3.1L655,723C654.7,723.1,654.3,723.2,653.9,723.2z"/>
	<polygon class="st3" points="911,785.3 928.9,799.9 1040.2,707.5 1040.2,678 	"/>
	<path class="st2" d="M928.9,802.2c-0.5,0-1-0.2-1.5-0.5l-18-14.7c-0.5-0.4-0.8-1.1-0.8-1.8c0-0.7,0.3-1.3,0.8-1.8l129.2-107.3
		c0.7-0.6,1.6-0.7,2.5-0.3c0.8,0.4,1.3,1.2,1.3,2.1v29.6c0,0.7-0.3,1.3-0.8,1.8l-111.3,92.4C930,802.1,929.4,802.2,928.9,802.2z
		 M914.6,785.3l14.3,11.7l109-90.5v-23.6L914.6,785.3z"/>
	<polygon class="st5" points="621,803.7 638.4,822 781.9,692.4 781.9,658.4 	"/>
	<path class="st2" d="M638.4,824.3c-0.6,0-1.2-0.2-1.7-0.7l-17.4-18.3c-0.4-0.5-0.7-1.1-0.6-1.7c0-0.6,0.3-1.2,0.8-1.6l160.9-145.3
		c0.7-0.6,1.7-0.8,2.5-0.4c0.8,0.4,1.4,1.2,1.4,2.1v34c0,0.7-0.3,1.3-0.8,1.7L640,823.7C639.5,824.1,639,824.3,638.4,824.3z
		 M624.3,803.8l14.2,15l141.1-127.4v-27.8L624.3,803.8z"/>
	<polygon class="st5" points="942.9,803.7 925.5,822 781.9,692.4 781.9,658.4 	"/>
	<path class="st2" d="M925.5,824.3c-0.6,0-1.1-0.2-1.5-0.6L780.4,694.1c-0.5-0.4-0.8-1.1-0.8-1.7v-34c0-0.9,0.5-1.7,1.4-2.1
		c0.8-0.4,1.8-0.2,2.5,0.4L944.4,802c0.5,0.4,0.7,1,0.8,1.6c0,0.6-0.2,1.2-0.6,1.7l-17.4,18.3C926.7,824,926.1,824.3,925.5,824.3z
		 M784.2,691.4l141.1,127.4l14.2-15L784.2,663.6V691.4z"/>
	<rect x="1070.8" y="831.5" class="st5" width="47.2" height="56.7"/>
	<path class="st2" d="M1118,890.5h-47.2c-1.3,0-2.3-1-2.3-2.3v-56.7c0-1.3,1-2.3,2.3-2.3h47.2c1.3,0,2.3,1,2.3,2.3v56.7
		C1120.3,889.4,1119.3,890.5,1118,890.5z M1073.1,885.9h42.6v-52.1h-42.6V885.9z"/>
	<rect x="1013.5" y="827.2" class="st4" width="26.7" height="24"/>
	<path class="st2" d="M1040.2,853.6h-26.7c-1.3,0-2.3-1-2.3-2.3v-24c0-1.3,1-2.3,2.3-2.3h26.7c1.3,0,2.3,1,2.3,2.3v24
		C1042.5,852.5,1041.5,853.6,1040.2,853.6z M1015.8,848.9h22v-19.4h-22V848.9z"/>
	<rect x="986.9" y="827.2" class="st4" width="26.7" height="24"/>
	<path class="st2" d="M1013.5,853.6h-26.7c-1.3,0-2.3-1-2.3-2.3v-24c0-1.3,1-2.3,2.3-2.3h26.7c1.3,0,2.3,1,2.3,2.3v24
		C1015.8,852.5,1014.8,853.6,1013.5,853.6z M989.2,848.9h22v-19.4h-22V848.9z"/>
	<path class="st2" d="M1159.1,890.5c-1.3,0-2.3-1-2.3-2.3v-81.9c0-1.3,1-2.3,2.3-2.3c1.3,0,2.3,1,2.3,2.3v81.9
		C1161.4,889.4,1160.3,890.5,1159.1,890.5z"/>
	<path class="st2" d="M1149.9,801H969.3c-1.3,0-2.3-1-2.3-2.3c0-1.3,1-2.3,2.3-2.3h180.7c1.3,0,2.3,1,2.3,2.3
		C1152.2,799.9,1151.2,801,1149.9,801z"/>
	<g>
		<path class="st2" d="M1076.8,778.1h-76.7c-1.3,0-2.3-1-2.3-2.3s1-2.3,2.3-2.3h76.7c1.3,0,2.3,1,2.3,2.3S1078.1,778.1,1076.8,778.1
			z"/>
	</g>
	<g>
		<path class="st2" d="M1063.5,754.8h-50c-1.3,0-2.3-1-2.3-2.3c0-1.3,1-2.3,2.3-2.3h50c1.3,0,2.3,1,2.3,2.3
			C1065.8,753.8,1064.8,754.8,1063.5,754.8z"/>
	</g>
	<path class="st2" d="M1304.6,890.5c-0.9,0-1.7-0.5-2.1-1.3c-20.7-44.4-63.4-39.9-65.2-39.6c-0.8,0.1-1.6-0.2-2.1-0.9
		c-27.1-34.7-61.4-12.2-62.8-11.2c-1.1,0.7-2.5,0.4-3.2-0.6c-0.7-1.1-0.4-2.5,0.6-3.2c0.4-0.3,38.6-25.4,68.2,11.2
		c7.8-0.5,48.5-0.6,68.6,42.4c0.5,1.2,0,2.5-1.1,3.1C1305.3,890.4,1304.9,890.5,1304.6,890.5z"/>
	<path class="st5" d="M1222.9,715.7v64.5c0,15.6,12.7,28.3,28.3,28.3l0,0c15.6,0,28.3-12.7,28.3-28.3v-64.5H1222.9z"/>
	<path class="st2" d="M1251.1,810.7c-16.9,0-30.6-13.7-30.6-30.6v-64.5c0-1.3,1-2.3,2.3-2.3h56.5c1.3,0,2.3,1,2.3,2.3v64.5
		C1281.7,797,1268,810.7,1251.1,810.7z M1225.2,718v62.1c0,14.3,11.6,26,26,26c14.3,0,26-11.6,26-26V718H1225.2z"/>
	<path class="st5" d="M1222.9,752.5L1222.9,752.5c-10.6,0-19.2-8.6-19.2-19.2v-19.6h19.2V752.5z"/>
	<path class="st2" d="M1222.9,754.8c-11.8,0-21.5-9.6-21.5-21.5v-19.6c0-1.3,1-2.3,2.3-2.3h19.2c1.3,0,2.3,1,2.3,2.3v38.8
		C1225.2,753.8,1224.2,754.8,1222.9,754.8z M1206,716v17.3c0,8.5,6.3,15.6,14.6,16.7v-34H1206z"/>
	<path class="st1" d="M1206.4,717.2h71.3c6.2,0,11.3-5.1,11.3-11.3v-2.2c0-6.2-5.1-11.3-11.3-11.3h-71.3c-6.2,0-11.3,5.1-11.3,11.3
		v2.2C1195.1,712.1,1200.2,717.2,1206.4,717.2z"/>
	<path class="st2" d="M1277.7,719.5h-71.3c-7.5,0-13.6-6.1-13.6-13.6v-2.2c0-7.5,6.1-13.6,13.6-13.6h71.3c7.5,0,13.6,6.1,13.6,13.6
		v2.2C1291.3,713.4,1285.2,719.5,1277.7,719.5z M1206.4,694.7c-5,0-9,4-9,9v2.2c0,5,4,9,9,9h71.3c5,0,9-4,9-9v-2.2c0-5-4-9-9-9
		H1206.4z"/>
	<path class="st2" d="M1221.7,835.6c-0.5,0-1-0.1-1.4-0.5c-1-0.8-1.2-2.2-0.5-3.2c13.3-17.8,15.8-27.3,15.8-27.4
		c0.3-1.2,1.6-2,2.8-1.7c1.2,0.3,2,1.6,1.7,2.8c-0.1,0.4-2.8,10.5-16.6,29C1223.1,835.3,1222.4,835.6,1221.7,835.6z"/>
	<path class="st2" d="M1265.5,835.6h-0.9c-1.3,0-2.3-1-2.3-2.3c0-1.3,1-2.3,2.3-2.3h0.9c26.4,0,47.8-21.4,47.8-47.8
		c0-1.3,1-2.3,2.3-2.3c1.3,0,2.3,1,2.3,2.3C1317.9,812.1,1294.4,835.6,1265.5,835.6z"/>
	<path class="st2" d="M1222.9,694.7c-1.1,0-2.1-0.8-2.3-2c-0.1-0.9-13.2-87.6-38.5-134.5c-0.6-1.1-0.2-2.5,0.9-3.1
		c1.1-0.6,2.5-0.2,3.1,0.9c25.7,47.6,38.9,135.1,39,136c0.2,1.3-0.7,2.4-1.9,2.6C1223.1,694.7,1223,694.7,1222.9,694.7z"/>
	<path class="st2" d="M1301.7,621.5C1301.7,621.5,1301.7,621.5,1301.7,621.5c-1.3,0-2.3-1-2.3-2.3c0.4-62-19-106.7-19.2-107.2
		c-0.5-1.2,0-2.5,1.2-3c1.2-0.5,2.5,0,3,1.2c0.2,0.5,20,46,19.6,109.1C1304,620.4,1303,621.5,1301.7,621.5z"/>
	<path class="st2" d="M907.6,502.7H786.4c-1.3,0-2.3-1-2.3-2.3c0-1.3,1-2.3,2.3-2.3h121.2c1.3,0,2.3,1,2.3,2.3
		C909.9,501.7,908.8,502.7,907.6,502.7z"/>
	<path class="st2" d="M790,593.1c-1.3,0-2.3-1-2.3-2.3v-21.7c0-1.3,1-2.3,2.3-2.3c1.3,0,2.3,1,2.3,2.3v21.7
		C792.3,592,791.2,593.1,790,593.1z"/>
	<path class="st2" d="M800.8,582.2h-21.7c-1.3,0-2.3-1-2.3-2.3c0-1.3,1-2.3,2.3-2.3h21.7c1.3,0,2.3,1,2.3,2.3
		C803.1,581.2,802.1,582.2,800.8,582.2z"/>
	<circle class="st1" cx="709.5" cy="222.3" r="9.7"/>
	<path class="st2" d="M709.5,234.3c-6.6,0-12.1-5.4-12.1-12.1c0-6.6,5.4-12.1,12.1-12.1c6.6,0,12.1,5.4,12.1,12.1
		C721.5,228.9,716.1,234.3,709.5,234.3z M709.5,214.8c-4.1,0-7.4,3.3-7.4,7.4c0,4.1,3.3,7.4,7.4,7.4s7.4-3.3,7.4-7.4
		C716.9,218.2,713.6,214.8,709.5,214.8z"/>
	<circle class="st4" cx="653.9" cy="263.4" r="16.3"/>
	<path class="st2" d="M653.9,282c-10.3,0-18.6-8.4-18.6-18.6s8.4-18.6,18.6-18.6c10.3,0,18.6,8.4,18.6,18.6S664.2,282,653.9,282z
		 M653.9,249.3c-7.7,0-14,6.3-14,14c0,7.7,6.3,14,14,14c7.7,0,14-6.3,14-14C668,255.6,661.7,249.3,653.9,249.3z"/>
	<circle class="st5" cx="729.5" cy="323.4" r="22"/>
	<path class="st2" d="M729.5,347.7c-13.4,0-24.3-10.9-24.3-24.3c0-13.4,10.9-24.3,24.3-24.3s24.3,10.9,24.3,24.3
		C753.8,336.8,742.9,347.7,729.5,347.7z M729.5,303.8c-10.8,0-19.7,8.8-19.7,19.7c0,10.8,8.8,19.7,19.7,19.7s19.7-8.8,19.7-19.7
		C749.2,312.6,740.4,303.8,729.5,303.8z"/>
	<ellipse transform="matrix(0.973 -0.2307 0.2307 0.973 -57.71 160.5555)" class="st5" cx="657.8" cy="327.1" rx="9.4" ry="9.4"/>
	<path class="st2" d="M657.8,338.8c-6.5,0-11.7-5.3-11.7-11.7c0-6.5,5.3-11.7,11.7-11.7s11.7,5.3,11.7,11.7
		C669.5,333.5,664.2,338.8,657.8,338.8z M657.8,319.9c-3.9,0-7.1,3.2-7.1,7.1c0,3.9,3.2,7.1,7.1,7.1c3.9,0,7.1-3.2,7.1-7.1
		C664.9,323.1,661.7,319.9,657.8,319.9z"/>
	<circle class="st1" cx="691.4" cy="388.4" r="13.6"/>
	<path class="st2" d="M691.4,404.3c-8.8,0-15.9-7.1-15.9-15.9c0-8.8,7.1-15.9,15.9-15.9c8.8,0,15.9,7.1,15.9,15.9
		C707.3,397.1,700.2,404.3,691.4,404.3z M691.4,377.1c-6.2,0-11.3,5.1-11.3,11.3s5.1,11.3,11.3,11.3c6.2,0,11.3-5.1,11.3-11.3
		S697.6,377.1,691.4,377.1z"/>
	<circle class="st5" cx="743.1" cy="433.6" r="24.2"/>
	<path class="st2" d="M743.1,460.1c-14.6,0-26.5-11.9-26.5-26.5c0-14.6,11.9-26.5,26.5-26.5c14.6,0,26.5,11.9,26.5,26.5
		C769.7,448.2,757.7,460.1,743.1,460.1z M743.1,411.7c-12.1,0-21.9,9.8-21.9,21.9s9.8,21.9,21.9,21.9c12.1,0,21.9-9.8,21.9-21.9
		S755.2,411.7,743.1,411.7z"/>
	<circle class="st4" cx="611.1" cy="393.4" r="23.4"/>
	<path class="st2" d="M611.1,419.1c-14.2,0-25.7-11.5-25.7-25.7c0-14.2,11.5-25.7,25.7-25.7s25.7,11.5,25.7,25.7
		C636.9,407.6,625.3,419.1,611.1,419.1z M611.1,372.3c-11.6,0-21.1,9.5-21.1,21.1c0,11.6,9.5,21.1,21.1,21.1s21.1-9.5,21.1-21.1
		C632.3,381.7,622.8,372.3,611.1,372.3z"/>
	<path class="st2" d="M825.7,357.6c-0.1,0-0.3,0-0.4,0c-1.3-0.2-2.1-1.5-1.8-2.7c0.1-0.6,0.2-1.2,0.2-1.7c0.1-1.3,1.1-2.2,2.4-2.2
		c1.3,0.1,2.2,1.2,2.2,2.4c0,0.8-0.1,1.6-0.3,2.3C827.7,356.9,826.8,357.6,825.7,357.6z M823.6,345.7c-0.9,0-1.7-0.5-2.1-1.4
		l-0.2-0.4c-0.2-0.5-0.5-1-0.7-1.5c-0.5-1.2,0-2.5,1.2-3c1.2-0.5,2.5,0,3,1.2c0.2,0.5,0.4,1,0.7,1.5l0.2,0.4c0.5,1.2,0,2.5-1.2,3
		C824.2,345.7,823.9,345.7,823.6,345.7z M820.9,334c-0.1,0-0.2,0-0.3,0c-1.3-0.1-2.2-1.3-2-2.6c0.1-0.7,0.2-1.5,0.4-2.3
		c0.3-1.2,1.5-2,2.8-1.7c1.2,0.3,2,1.5,1.7,2.8c-0.1,0.6-0.2,1.2-0.3,1.7C823.1,333.1,822.1,334,820.9,334z M826.2,323.2
		c-0.6,0-1.2-0.2-1.7-0.7c-0.9-0.9-0.8-2.4,0.1-3.3c0.6-0.5,1.1-1,1.8-1.5c1-0.8,2.5-0.5,3.2,0.5c0.8,1,0.5,2.5-0.5,3.2
		c-0.5,0.3-0.9,0.7-1.4,1.1C827.3,323,826.7,323.2,826.2,323.2z M836.6,316.7c-0.7,0-1.5-0.4-1.9-1c-0.7-1.1-0.4-2.5,0.6-3.2
		c0.5-0.3,1-0.7,1.4-1.1c1-0.8,2.4-0.7,3.3,0.3c0.8,1,0.7,2.4-0.3,3.2c-0.6,0.5-1.2,0.9-1.8,1.4C837.5,316.6,837,316.7,836.6,316.7z
		 M843.5,307c-0.2,0-0.4,0-0.6-0.1c-1.2-0.3-1.9-1.6-1.6-2.9c0.2-0.6,0.3-1.2,0.4-1.7c0.2-1.3,1.4-2.1,2.7-1.9
		c1.3,0.2,2.1,1.4,1.9,2.7c-0.1,0.7-0.3,1.5-0.5,2.3C845.5,306.3,844.5,307,843.5,307z M842.5,295c-0.9,0-1.8-0.5-2.1-1.4
		c-0.3-0.6-0.5-1.2-0.8-1.8c-0.5-1.2,0-2.5,1.2-3c1.2-0.5,2.5,0,3,1.2c0.3,0.6,0.6,1.3,0.8,1.9c0.5,1.2-0.1,2.5-1.3,3
		C843.1,294.9,842.8,295,842.5,295z M839,283.3C839,283.3,839,283.3,839,283.3c-1.3,0-2.3-1.1-2.3-2.3c0-0.8,0.1-1.6,0.2-2.3
		c0.2-1.3,1.4-2.1,2.6-2c1.3,0.2,2.1,1.3,2,2.6c-0.1,0.6-0.1,1.2-0.1,1.7C841.3,282.3,840.3,283.3,839,283.3z M843.3,272.1
		c-0.5,0-1.1-0.2-1.5-0.6c-1-0.8-1.1-2.3-0.2-3.3c0.5-0.6,1.1-1.1,1.7-1.7c1-0.8,2.4-0.8,3.3,0.2c0.8,1,0.7,2.4-0.2,3.3
		c-0.4,0.4-0.9,0.8-1.2,1.2C844.6,271.8,843.9,272.1,843.3,272.1z M853.4,265.3c-0.8,0-1.6-0.4-2-1.1c-0.6-1.1-0.3-2.5,0.8-3.2
		c0.5-0.3,1.1-0.6,1.6-1c1-0.7,2.5-0.5,3.2,0.6c0.7,1,0.5,2.5-0.6,3.2c-0.6,0.4-1.2,0.8-1.9,1.2
		C854.2,265.2,853.8,265.3,853.4,265.3z M861.3,256.2c-0.3,0-0.5,0-0.8-0.1c-1.2-0.4-1.8-1.8-1.4-3l0.1-0.3c0.2-0.5,0.3-0.9,0.4-1.4
		c0.3-1.2,1.6-2,2.8-1.6c1.2,0.3,2,1.6,1.6,2.8c-0.1,0.6-0.3,1.1-0.5,1.7l-0.2,0.4C863.1,255.7,862.2,256.2,861.3,256.2z
		 M861.3,244.3c-0.9,0-1.8-0.6-2.2-1.5c-0.2-0.6-0.5-1.2-0.7-1.8c-0.5-1.2,0.1-2.5,1.2-3c1.2-0.5,2.5,0.1,3,1.2
		c0.3,0.7,0.5,1.3,0.8,2c0.4,1.2-0.2,2.5-1.4,2.9C861.9,244.2,861.6,244.3,861.3,244.3z M857.3,232.7c-1.2,0-2.2-0.9-2.3-2.1
		c-0.1-0.6-0.1-1.1-0.1-1.7c0-0.2,0-0.4,0-0.7c0-1.3,1.2-2.3,2.4-2.2c1.3,0,2.3,1.1,2.2,2.4l0,0.5c0,0.4,0,0.8,0.1,1.3
		c0.1,1.3-0.8,2.4-2.1,2.5C857.5,232.7,857.4,232.7,857.3,232.7z M860.5,221.1c-0.5,0-0.9-0.1-1.3-0.4c-1-0.7-1.3-2.2-0.6-3.2
		c0.5-0.6,0.9-1.3,1.5-1.8c0.9-0.9,2.3-1,3.3-0.1c0.9,0.9,1,2.3,0.1,3.3c-0.4,0.4-0.8,0.9-1.1,1.4
		C861.9,220.7,861.2,221.1,860.5,221.1z M870.2,213.9c-0.8,0-1.6-0.4-2-1.2c-0.6-1.1-0.2-2.5,0.9-3.1c0.6-0.3,1.1-0.6,1.7-1
		c1.1-0.7,2.5-0.3,3.2,0.8c0.7,1.1,0.3,2.5-0.8,3.2c-0.6,0.4-1.2,0.7-1.9,1.1C871,213.8,870.6,213.9,870.2,213.9z M878.9,205.5
		c-0.3,0-0.7-0.1-1-0.2c-1.2-0.5-1.7-1.9-1.1-3.1c0.2-0.5,0.5-1.1,0.7-1.7c0.4-1.2,1.7-1.8,2.9-1.4c1.2,0.4,1.8,1.7,1.4,2.9
		c-0.3,0.8-0.5,1.5-0.9,2.1C880.6,205,879.7,205.5,878.9,205.5z"/>
	<path class="st2" d="M927.8,357.1c-0.9,0-1.8-0.6-2.2-1.5c-0.2-0.5-0.4-1.1-0.7-1.5c-0.6-1.1-0.2-2.5,0.9-3.1
		c1.1-0.6,2.5-0.2,3.1,0.9c0.4,0.7,0.7,1.4,1,2.2c0.4,1.2-0.2,2.5-1.3,3C928.4,357,928.1,357.1,927.8,357.1z M919.6,348.3
		c-0.4,0-0.9-0.1-1.3-0.4c-0.6-0.4-1.2-0.8-1.7-1.2c-1-0.7-1.3-2.2-0.6-3.2c0.7-1,2.2-1.3,3.2-0.6c0.5,0.4,1.1,0.7,1.7,1.1
		c1.1,0.7,1.4,2.1,0.7,3.2C921.1,348,920.3,348.3,919.6,348.3z M911.5,339.4c-1,0-1.9-0.6-2.2-1.6c-0.2-0.7-0.4-1.5-0.6-2.2
		c-0.3-1.2,0.5-2.5,1.8-2.7c1.2-0.3,2.5,0.5,2.7,1.8c0.1,0.6,0.3,1.2,0.5,1.7c0.4,1.2-0.2,2.5-1.4,2.9
		C912,339.4,911.8,339.4,911.5,339.4z M912.4,327.5c-0.4,0-0.7-0.1-1.1-0.3c-1.1-0.6-1.6-2-1-3.1c0.3-0.7,0.7-1.3,1.1-1.9
		c0.7-1.1,2.1-1.4,3.2-0.7c1.1,0.7,1.4,2.1,0.7,3.2c-0.3,0.5-0.6,1.1-0.9,1.6C914,327.1,913.2,327.5,912.4,327.5z M918.5,316.9
		c-0.2,0-0.5,0-0.7-0.1c-1.2-0.4-1.9-1.7-1.5-2.9c0.2-0.5,0.3-1.1,0.4-1.6c0.2-1.3,1.4-2.1,2.6-2c1.3,0.2,2.1,1.4,2,2.6
		c-0.1,0.8-0.3,1.6-0.5,2.3C920.4,316.3,919.5,316.9,918.5,316.9z M917,305.1c-0.8,0-1.5-0.4-2-1.1c-0.3-0.5-0.6-0.9-1-1.4
		c-0.8-1-0.7-2.4,0.3-3.2c1-0.8,2.4-0.7,3.2,0.3c0.5,0.6,1,1.3,1.4,2c0.7,1.1,0.3,2.5-0.8,3.2C917.8,305,917.4,305.1,917,305.1z
		 M907.7,297.2c-0.5,0-0.9-0.1-1.3-0.4c-0.6-0.4-1.2-0.9-1.8-1.4c-1-0.8-1.1-2.3-0.3-3.3c0.8-1,2.3-1.1,3.3-0.3
		c0.5,0.4,1,0.8,1.5,1.1c1,0.7,1.3,2.2,0.5,3.2C909.2,296.9,908.4,297.2,907.7,297.2z M901.2,287.3c-1.1,0-2.1-0.8-2.3-1.9
		c-0.1-0.8-0.2-1.6-0.3-2.3c-0.1-1.3,0.9-2.4,2.2-2.4c1.3-0.1,2.4,0.9,2.4,2.2c0,0.6,0.1,1.2,0.2,1.7c0.2,1.3-0.6,2.5-1.9,2.7
		C901.4,287.3,901.3,287.3,901.2,287.3z M903.9,275.7c-0.4,0-0.9-0.1-1.3-0.4c-1.1-0.7-1.4-2.1-0.7-3.2c0.4-0.6,0.8-1.2,1.2-1.7
		c0.7-1.1,2.2-1.3,3.2-0.6c1.1,0.7,1.3,2.2,0.6,3.2c-0.4,0.5-0.8,1.1-1.1,1.7C905.4,275.3,904.7,275.7,903.9,275.7z M909.3,264.8
		c-0.1,0-0.2,0-0.2,0c-1.3-0.1-2.2-1.3-2-2.5c0-0.4,0.1-0.8,0.1-1.2l0-0.5c0-1.3,0.9-2.3,2.2-2.4c1.2-0.1,2.3,0.9,2.4,2.2l0,0.6
		c0,0.6,0,1.2-0.1,1.7C911.4,263.9,910.4,264.8,909.3,264.8z M905.7,253.4c-0.6,0-1.3-0.3-1.7-0.8c-0.4-0.4-0.8-0.8-1.3-1.2
		c-1-0.8-1.1-2.3-0.2-3.3c0.8-1,2.3-1.1,3.3-0.2c0.6,0.5,1.2,1.1,1.7,1.6c0.8,1,0.8,2.4-0.2,3.3
		C906.8,253.2,906.3,253.4,905.7,253.4z M896,246c-0.5,0-1.1-0.2-1.5-0.6c-0.6-0.5-1.1-1.1-1.6-1.7c-0.8-1-0.7-2.4,0.3-3.3
		c1-0.8,2.4-0.7,3.3,0.2c0.4,0.4,0.8,0.8,1.2,1.2c0.9,0.9,1,2.3,0.2,3.3C897.3,245.7,896.6,246,896,246z M891.1,235.1
		c-1.3,0-2.3-1-2.3-2.3l0-0.3c0-0.7,0-1.4,0.1-2.1c0.2-1.3,1.3-2.2,2.6-2c1.3,0.2,2.2,1.3,2,2.6c-0.1,0.5-0.1,0.9-0.1,1.4l0,0.2
		C893.5,234,892.5,235.1,891.1,235.1C891.2,235.1,891.2,235.1,891.1,235.1z M895.6,223.9c-0.5,0-0.9-0.1-1.3-0.4
		c-1-0.7-1.3-2.2-0.6-3.2c0.4-0.5,0.7-1.1,1.1-1.6c0.7-1.1,2.1-1.4,3.2-0.7c1.1,0.7,1.4,2.1,0.7,3.2c-0.4,0.6-0.8,1.2-1.2,1.8
		C897,223.6,896.3,223.9,895.6,223.9z M899.5,212.6c-1.2,0-2.2-0.9-2.3-2.1c0-0.6-0.1-1.2-0.2-1.7c-0.2-1.2,0.6-2.5,1.8-2.7
		c1.3-0.2,2.5,0.6,2.7,1.8c0.2,0.8,0.3,1.6,0.3,2.3c0.1,1.3-0.9,2.4-2.1,2.5C899.6,212.6,899.6,212.6,899.5,212.6z"/>
	<path class="st2" d="M882.8,441.3c-0.9,0-1.7-0.5-2.1-1.3c-0.3-0.6-0.6-1.1-0.9-1.6c-0.7-1.1-0.3-2.5,0.8-3.2
		c1.1-0.7,2.5-0.3,3.2,0.8c0.4,0.6,0.7,1.3,1.1,2c0.6,1.1,0.1,2.5-1.1,3.1C883.5,441.2,883.2,441.3,882.8,441.3z M875.7,431.3
		c-0.7,0-1.5-0.4-1.9-1c-0.4-0.6-0.8-1.2-1.2-1.9c-0.6-1.1-0.2-2.5,0.9-3.1c1.1-0.6,2.5-0.2,3.1,0.9c0.3,0.5,0.6,1.1,1,1.6
		c0.7,1.1,0.4,2.5-0.6,3.2C876.6,431.2,876.2,431.3,875.7,431.3z M872.2,419.8c-1.3,0-2.3-1-2.3-2.3l0-0.3l0-0.4
		c0-0.5,0-1.1,0.1-1.6c0.1-1.3,1.2-2.2,2.5-2.2c1.3,0.1,2.2,1.2,2.1,2.5c0,0.4,0,0.9-0.1,1.3l0,0.3l0,0.2
		C874.5,418.7,873.5,419.8,872.2,419.8C872.2,419.8,872.2,419.8,872.2,419.8z M875.3,408.2c-0.4,0-0.9-0.1-1.3-0.4
		c-1.1-0.7-1.4-2.1-0.7-3.2c0.4-0.6,0.8-1.2,1.3-1.8c0.8-1,2.2-1.2,3.2-0.4c1,0.8,1.2,2.2,0.4,3.2c-0.4,0.5-0.7,1-1.1,1.5
		C876.8,407.8,876.1,408.2,875.3,408.2z M882.8,398.4c-0.4,0-0.8-0.1-1.2-0.3c-1.1-0.6-1.5-2.1-0.8-3.2c0.3-0.5,0.6-1,0.8-1.6
		c0.5-1.2,1.9-1.7,3.1-1.1c1.2,0.5,1.7,1.9,1.1,3.1c-0.3,0.7-0.7,1.4-1.1,2C884.3,398,883.6,398.4,882.8,398.4z M885.4,386.7
		c-1.2,0-2.2-1-2.3-2.2c0-0.6-0.1-1.2-0.2-1.8c-0.2-1.3,0.7-2.4,2-2.6c1.3-0.2,2.4,0.7,2.6,2c0.1,0.7,0.2,1.5,0.2,2.2
		c0.1,1.3-0.9,2.4-2.2,2.4C885.5,386.7,885.5,386.7,885.4,386.7z M881.3,375.3c-0.7,0-1.4-0.3-1.9-0.9c-0.4-0.5-0.8-1-1.2-1.5
		c-0.8-1-0.6-2.4,0.4-3.2c1-0.8,2.4-0.6,3.2,0.4c0.4,0.6,0.9,1.1,1.3,1.7c0.7,1,0.5,2.5-0.5,3.2
		C882.3,375.2,881.8,375.3,881.3,375.3z M874.4,365.3c-0.9,0-1.8-0.5-2.1-1.4c-0.3-0.7-0.6-1.4-0.8-2.2c-0.4-1.2,0.3-2.5,1.6-2.9
		c1.2-0.4,2.5,0.3,2.9,1.6c0.2,0.6,0.4,1.2,0.6,1.7c0.5,1.2-0.1,2.5-1.2,3C875,365.2,874.7,365.3,874.4,365.3z M873.2,353.2
		c-0.1,0-0.3,0-0.4,0c-1.3-0.2-2.1-1.4-1.9-2.7c0.1-0.8,0.3-1.5,0.5-2.2c0.3-1.2,1.6-1.9,2.8-1.6c1.2,0.3,2,1.6,1.6,2.8
		c-0.2,0.6-0.3,1.1-0.4,1.8C875.3,352.4,874.3,353.2,873.2,353.2z M878.7,342.4c-0.5,0-1-0.2-1.5-0.5c-1-0.8-1.1-2.3-0.3-3.2
		l1.3-1.6c0.8-1,2.3-1.1,3.3-0.3c1,0.8,1.1,2.3,0.3,3.2l-1.3,1.6C880,342.1,879.3,342.4,878.7,342.4z M885.2,332.2
		c-0.2,0-0.5,0-0.7-0.1c-1.2-0.4-1.9-1.7-1.5-2.9c0.2-0.5,0.3-1.1,0.4-1.7c0.2-1.2,1.5-2.1,2.7-1.8c1.3,0.2,2.1,1.5,1.8,2.7
		c-0.2,0.8-0.3,1.5-0.6,2.2C887.1,331.6,886.2,332.2,885.2,332.2z M885.5,320.1c-1,0-2-0.7-2.2-1.7c-0.2-0.6-0.3-1.2-0.5-1.7
		c-0.5-1.2,0.1-2.5,1.3-3c1.2-0.4,2.5,0.1,3,1.3c0.3,0.7,0.5,1.5,0.7,2.2c0.3,1.2-0.4,2.5-1.7,2.8
		C885.9,320.1,885.7,320.1,885.5,320.1z M879.4,309.6c-0.7,0-1.3-0.3-1.8-0.9c-0.4-0.5-0.9-1.1-1.3-1.7c-0.8-1-0.6-2.5,0.5-3.2
		c1-0.8,2.5-0.6,3.2,0.5c0.4,0.5,0.8,1,1.2,1.5c0.8,1,0.6,2.4-0.3,3.2C880.4,309.4,879.9,309.6,879.4,309.6z M873.9,298.8
		c-1.1,0-2.1-0.8-2.3-1.9c-0.1-0.7-0.2-1.5-0.3-2.2c-0.1-1.3,0.9-2.4,2.1-2.5c1.3-0.1,2.4,0.9,2.5,2.1c0,0.6,0.1,1.2,0.2,1.8
		c0.2,1.3-0.6,2.4-1.9,2.7C874.2,298.8,874,298.8,873.9,298.8z M875.1,286.8c-0.3,0-0.6-0.1-0.9-0.2c-1.2-0.5-1.7-1.8-1.3-3
		c0.3-0.7,0.6-1.4,1-2.1c0.6-1.1,2-1.5,3.1-0.9c1.1,0.6,1.5,2,0.9,3.1c-0.3,0.5-0.5,1-0.8,1.6C876.9,286.2,876,286.8,875.1,286.8z
		 M882.2,276.8c-0.5,0-1-0.2-1.4-0.5c-1-0.8-1.2-2.2-0.4-3.2c0.4-0.5,0.8-1,1.1-1.5c0.7-1.1,2.2-1.3,3.2-0.6
		c1.1,0.7,1.3,2.2,0.6,3.2c-0.4,0.6-0.9,1.2-1.3,1.8C883.5,276.5,882.8,276.8,882.2,276.8z M886.8,265.7c-0.1,0-0.1,0-0.2,0
		c-1.3-0.1-2.2-1.2-2.1-2.5c0.1-0.6,0.1-1.2,0.1-1.9c0-1.3,1-2.3,2.3-2.3c0,0,0,0,0,0c1.3,0,2.3,1.1,2.3,2.3c0,0.8,0,1.5-0.1,2.2
		C889,264.8,888,265.7,886.8,265.7z"/>
	<path class="st2" d="M1158.7,314.1c-1.3,0-2.3-1-2.3-2.3v-34.2c0-1.3,1-2.3,2.3-2.3c1.3,0,2.3,1,2.3,2.3v34.2
		C1161,313.1,1160,314.1,1158.7,314.1z"/>
	<path class="st2" d="M977.8,219.8c-0.3,0-0.6-0.1-0.9-0.2c-1.2-0.5-1.7-1.8-1.2-3c0.9-2.2,24.1-54.6,125.8-52
		c1.3,0,2.3,1.1,2.2,2.4c0,1.3-1,2.3-2.4,2.2c-98.4-2.5-121.2,48.7-121.4,49.2C979.5,219.3,978.7,219.8,977.8,219.8z"/>
	<path class="st2" d="M171.4,844.2c-1.3,0-2.3-1-2.3-2.3v-68.5c0-1.3,1-2.3,2.3-2.3c1.3,0,2.3,1,2.3,2.3v68.5
		C173.7,843.1,172.7,844.2,171.4,844.2z"/>
	<path class="st2" d="M217.9,797.7c-0.6,0-1.2-0.2-1.6-0.7c-0.9-0.9-0.9-2.4,0-3.3l16.8-16.8c0.9-0.9,2.4-0.9,3.3,0
		c0.9,0.9,0.9,2.4,0,3.3L219.5,797C219.1,797.4,218.5,797.7,217.9,797.7z"/>
	<path class="st2" d="M216.8,834.6c-0.6,0-1.2-0.2-1.6-0.7c-0.9-0.9-0.9-2.4,0-3.3l49.3-49.3c0.9-0.9,2.4-0.9,3.3,0
		c0.9,0.9,0.9,2.4,0,3.3l-49.3,49.3C218,834.4,217.4,834.6,216.8,834.6z"/>
	<path class="st2" d="M217.9,873.9c-0.6,0-1.2-0.2-1.6-0.7c-0.9-0.9-0.9-2.4,0-3.3l70.8-70.8c0.9-0.9,2.4-0.9,3.3,0
		c0.9,0.9,0.9,2.4,0,3.3l-70.8,70.8C219.1,873.7,218.5,873.9,217.9,873.9z"/>
	<path class="st2" d="M258.2,873.9c-0.6,0-1.2-0.2-1.6-0.7c-0.9-0.9-0.9-2.4,0-3.3l73.5-73.5c0.9-0.9,2.4-0.9,3.3,0
		c0.9,0.9,0.9,2.4,0,3.3l-73.5,73.5C259.4,873.7,258.8,873.9,258.2,873.9z"/>
	<path class="st2" d="M304.1,873.9c-0.6,0-1.2-0.2-1.6-0.7c-0.9-0.9-0.9-2.4,0-3.3l93.6-93.6c0.9-0.9,2.4-0.9,3.3,0
		c0.9,0.9,0.9,2.4,0,3.3l-93.6,93.6C305.2,873.7,304.6,873.9,304.1,873.9z"/>
	<path class="st2" d="M350.9,873.9c-0.6,0-1.2-0.2-1.6-0.7c-0.9-0.9-0.9-2.4,0-3.3l48.1-48.1c0.9-0.9,2.4-0.9,3.3,0
		c0.9,0.9,0.9,2.4,0,3.3l-48.1,48.1C352,873.7,351.4,873.9,350.9,873.9z"/>
	<path class="st2" d="M390.6,873.9c-0.6,0-1.2-0.2-1.6-0.7c-0.9-0.9-0.9-2.4,0-3.3l8.1-8.1c0.9-0.9,2.4-0.9,3.3,0
		c0.9,0.9,0.9,2.4,0,3.3l-8.1,8.1C391.8,873.7,391.2,873.9,390.6,873.9z"/>
	<path class="st2" d="M925.3,773.2c-0.8,0-1.6-0.4-2-1.2c-6.9-13.2-8-35.9-8-36.8c-0.1-1.3,0.9-2.3,2.2-2.4c1.3-0.1,2.3,0.9,2.4,2.2
		c0,0.2,1,22.6,7.5,34.9c0.6,1.1,0.2,2.5-1,3.1C926.1,773.1,925.7,773.2,925.3,773.2z"/>
	<path class="st2" d="M157.2,539.1c-1.3,0-2.4-0.9-2.7-2.2c-0.3-1.5,0.7-3,2.2-3.3c0.2,0,0.4-0.1,0.6-0.1c1.3,0,2.4,0.9,2.7,2.2
		c0.1,0.7,0,1.5-0.4,2.1s-1,1-1.8,1.2C157.5,539.1,157.4,539.1,157.2,539.1L157.2,539.1z"/>
	<path class="st2" d="M457.4,292c-1.3,0-2.4-0.9-2.7-2.2c-0.1-0.7,0-1.5,0.4-2.1c0.4-0.6,1-1,1.8-1.2c0.2,0,0.4-0.1,0.6-0.1
		c1.3,0,2.4,0.9,2.7,2.2c0.3,1.5-0.7,3-2.2,3.3C457.7,291.9,457.5,292,457.4,292z"/>
	<path class="st2" d="M171.4,857.5c-1.3,0-2.4-0.9-2.7-2.2c-0.1-0.7,0-1.5,0.4-2.1c0.4-0.6,1-1,1.8-1.2c0.2,0,0.4-0.1,0.6-0.1
		c1.3,0,2.4,0.9,2.7,2.2c0.3,1.5-0.7,3-2.2,3.3C171.8,857.5,171.6,857.5,171.4,857.5z"/>
	<path class="st2" d="M1315.6,768.9c-1.3,0-2.4-0.9-2.7-2.2c-0.3-1.5,0.7-3,2.2-3.3c0.2,0,0.4-0.1,0.6-0.1c1.3,0,2.5,0.9,2.7,2.2
		c0.3,1.5-0.7,3-2.2,3.3C1316,768.9,1315.8,768.9,1315.6,768.9z"/>
	<path class="st2" d="M1301.7,644.3c-1.3,0-2.4-0.9-2.7-2.2c-0.3-1.5,0.7-3,2.2-3.3c0.2,0,0.4-0.1,0.6-0.1c1.3,0,2.4,0.9,2.7,2.2
		c0.1,0.7,0,1.5-0.4,2.1c-0.4,0.6-1,1-1.8,1.2C1302.1,644.3,1301.9,644.3,1301.7,644.3z"/>
	<path class="st2" d="M1177.9,545.7c-1.3,0-2.4-0.9-2.7-2.2c-0.1-0.7,0-1.5,0.4-2.1c0.4-0.6,1-1,1.8-1.2c0.2,0,0.4-0.1,0.6-0.1
		c1.3,0,2.4,0.9,2.7,2.2c0.3,1.5-0.7,3-2.2,3.3C1178.2,545.7,1178,545.7,1177.9,545.7z"/>
	<path class="st2" d="M1119.1,553.4c-1.3,0-2.4-0.9-2.7-2.2c-0.1-0.7,0-1.5,0.4-2.1c0.4-0.6,1-1,1.8-1.2c0.2,0,0.4-0.1,0.6-0.1
		c1.3,0,2.4,0.9,2.7,2.2c0.3,1.5-0.7,3-2.2,3.3C1119.4,553.4,1119.2,553.4,1119.1,553.4z"/>
	<path class="st2" d="M1308.1,406.9c-1.3,0-2.4-0.9-2.7-2.2c-0.3-1.5,0.7-3,2.2-3.3c0.2,0,0.4-0.1,0.6-0.1c1.3,0,2.4,0.9,2.7,2.2
		c0.1,0.7,0,1.5-0.4,2.1c-0.4,0.6-1,1-1.8,1.2C1308.5,406.9,1308.3,406.9,1308.1,406.9z"/>
	<path class="st2" d="M1120.3,173.7c-1.3,0-2.4-0.9-2.7-2.2c-0.1-0.7,0-1.5,0.4-2.1c0.4-0.6,1-1,1.8-1.2c0.2,0,0.4-0.1,0.6-0.1
		c1.3,0,2.4,0.9,2.7,2.2c0.3,1.5-0.7,3-2.2,3.3C1120.7,173.7,1120.5,173.7,1120.3,173.7z"/>
	<path class="st2" d="M926.6,503.2c-1.3,0-2.4-0.9-2.7-2.2c-0.3-1.5,0.7-3,2.2-3.3c0.2,0,0.4-0.1,0.6-0.1c1.3,0,2.4,0.9,2.7,2.2
		c0.1,0.7,0,1.5-0.4,2.1c-0.4,0.6-1,1-1.8,1.2C927,503.1,926.8,503.2,926.6,503.2z"/>
	<path class="st2" d="M698.3,683.6c-0.6,0-1.3-0.3-1.7-0.8c-0.8-1-0.7-2.4,0.2-3.3l1.5-1.3c1-0.8,2.4-0.7,3.3,0.2
		c0.8,1,0.7,2.4-0.2,3.3l-1.5,1.3C699.4,683.4,698.8,683.6,698.3,683.6z M866.8,683.4c-0.5,0-1.1-0.2-1.5-0.6l-1.6-1.3
		c-1-0.8-1.1-2.3-0.2-3.3c0.8-1,2.3-1.1,3.3-0.2l1.6,1.3c1,0.8,1.1,2.3,0.2,3.3C868.1,683.1,867.4,683.4,866.8,683.4z M707.5,675.5
		c-0.6,0-1.3-0.3-1.7-0.8c-0.8-1-0.7-2.4,0.2-3.3l1.5-1.3c1-0.8,2.4-0.7,3.3,0.2c0.8,1,0.7,2.4-0.2,3.3L709,675
		C708.6,675.4,708.1,675.5,707.5,675.5z M857.5,675.4c-0.5,0-1.1-0.2-1.5-0.6l-1.6-1.3c-1-0.8-1.1-2.3-0.2-3.3
		c0.8-1,2.3-1.1,3.3-0.2l1.6,1.3c1,0.8,1.1,2.3,0.2,3.3C858.8,675.1,858.1,675.4,857.5,675.4z M716.8,667.5c-0.6,0-1.3-0.3-1.7-0.8
		c-0.8-1-0.7-2.4,0.2-3.3l1.5-1.3c1-0.8,2.4-0.7,3.3,0.2c0.8,1,0.7,2.4-0.2,3.3l-1.5,1.3C717.9,667.3,717.3,667.5,716.8,667.5z
		 M848.2,667.4c-0.5,0-1.1-0.2-1.5-0.6l-1.6-1.3c-1-0.8-1.1-2.3-0.2-3.3c0.8-1,2.3-1.1,3.3-0.2l1.6,1.3c1,0.8,1.1,2.3,0.2,3.3
		C849.5,667.1,848.8,667.4,848.2,667.4z M726,659.4c-0.6,0-1.3-0.3-1.7-0.8c-0.8-1-0.7-2.4,0.2-3.3l1.5-1.3c1-0.8,2.4-0.7,3.3,0.2
		c0.8,1,0.7,2.4-0.2,3.3l-1.5,1.3C727.1,659.2,726.6,659.4,726,659.4z M838.9,659.4c-0.5,0-1.1-0.2-1.5-0.6l-1.6-1.3
		c-1-0.8-1.1-2.3-0.2-3.3c0.8-1,2.3-1.1,3.3-0.2l1.6,1.3c1,0.8,1.1,2.3,0.2,3.3C840.2,659.1,839.5,659.4,838.9,659.4z M829.6,651.4
		c-0.5,0-1.1-0.2-1.5-0.6l-1.6-1.3c-1-0.8-1.1-2.3-0.2-3.3c0.8-1,2.3-1.1,3.3-0.2l1.6,1.3c1,0.8,1.1,2.3,0.2,3.3
		C830.8,651.1,830.2,651.4,829.6,651.4z M735.3,651.3c-0.6,0-1.3-0.3-1.7-0.8c-0.8-1-0.7-2.4,0.2-3.3l1.5-1.3c1-0.8,2.4-0.7,3.3,0.2
		c0.8,1,0.7,2.4-0.2,3.3l-1.5,1.3C736.3,651.1,735.8,651.3,735.3,651.3z M820.2,643.4c-0.5,0-1.1-0.2-1.5-0.6l-1.6-1.3
		c-1-0.8-1.1-2.3-0.2-3.3c0.8-1,2.3-1.1,3.3-0.2l1.6,1.3c1,0.8,1.1,2.3,0.2,3.3C821.5,643.1,820.9,643.4,820.2,643.4z M744.5,643.2
		c-0.6,0-1.3-0.3-1.7-0.8c-0.8-1-0.7-2.4,0.2-3.3l1.5-1.3c1-0.8,2.4-0.7,3.3,0.2c0.8,1,0.7,2.4-0.2,3.3l-1.5,1.3
		C745.6,643,745,643.2,744.5,643.2z M810.9,635.4c-0.5,0-1.1-0.2-1.5-0.6l-1.6-1.3c-1-0.8-1.1-2.3-0.2-3.3c0.8-1,2.3-1.1,3.3-0.2
		l1.6,1.3c1,0.8,1.1,2.3,0.2,3.3C812.2,635.1,811.6,635.4,810.9,635.4z M753.7,635.1c-0.6,0-1.3-0.3-1.7-0.8c-0.8-1-0.7-2.4,0.2-3.3
		l1.5-1.3c1-0.8,2.4-0.7,3.3,0.2c0.8,1,0.7,2.4-0.2,3.3l-1.5,1.3C754.8,634.9,754.3,635.1,753.7,635.1z M801.6,627.3
		c-0.5,0-1.1-0.2-1.5-0.6l-1.6-1.3c-1-0.8-1.1-2.3-0.2-3.3c0.8-1,2.3-1.1,3.3-0.2l1.6,1.3c1,0.8,1.1,2.3,0.2,3.3
		C802.9,627.1,802.3,627.3,801.6,627.3z M763,627c-0.6,0-1.3-0.3-1.7-0.8c-0.8-1-0.7-2.4,0.2-3.3l1.5-1.3c1-0.8,2.4-0.7,3.3,0.2
		c0.8,1,0.7,2.4-0.2,3.3l-1.5,1.3C764.1,626.8,763.5,627,763,627z M792.3,619.3c-0.5,0-1.1-0.2-1.5-0.6l-1.6-1.3
		c-1-0.8-1.1-2.3-0.2-3.3c0.8-1,2.3-1.1,3.3-0.2l1.6,1.3c1,0.8,1.1,2.3,0.2,3.3C793.6,619.1,793,619.3,792.3,619.3z M772.2,618.9
		c-0.6,0-1.3-0.3-1.7-0.8c-0.8-1-0.7-2.4,0.2-3.3l1.5-1.3c1-0.8,2.4-0.7,3.3,0.2c0.8,1,0.7,2.4-0.2,3.3l-1.5,1.3
		C773.3,618.8,772.8,618.9,772.2,618.9z M783,611.3c-0.5,0-1-0.2-1.4-0.5c-0.7,0-1.4-0.2-1.9-0.8c-0.8-1-0.7-2.4,0.2-3.3l0.5-0.4
		c0.9-0.8,2.2-0.8,3,0l1.1,0.9c1,0.8,1.1,2.3,0.2,3.3C784.3,611.1,783.6,611.3,783,611.3z"/>
	<path class="st2" d="M244.2,689.4h-2c-1.3,0-2.3-1-2.3-2.3c0-1.3,1-2.3,2.3-2.3h2c1.3,0,2.3,1,2.3,2.3
		C246.5,688.3,245.5,689.4,244.2,689.4z M232,689.4h-2c-1.3,0-2.3-1-2.3-2.3c0-1.3,1-2.3,2.3-2.3h2c1.3,0,2.3,1,2.3,2.3
		C234.3,688.3,233.2,689.4,232,689.4z M219.7,689.4h-2c-1.3,0-2.3-1-2.3-2.3c0-1.3,1-2.3,2.3-2.3h2c1.3,0,2.3,1,2.3,2.3
		C222,688.3,221,689.4,219.7,689.4z M207.4,689.4h-2c-1.3,0-2.3-1-2.3-2.3c0-1.3,1-2.3,2.3-2.3h2c1.3,0,2.3,1,2.3,2.3
		C209.7,688.3,208.7,689.4,207.4,689.4z M195.1,689.4h-2c-1.3,0-2.3-1-2.3-2.3c0-1.3,1-2.3,2.3-2.3h2c1.3,0,2.3,1,2.3,2.3
		C197.4,688.3,196.4,689.4,195.1,689.4z M182.8,689.4h-2c-1.3,0-2.3-1-2.3-2.3c0-1.3,1-2.3,2.3-2.3h2c1.3,0,2.3,1,2.3,2.3
		C185.2,688.3,184.1,689.4,182.8,689.4z M170.6,689.4h-2c-1.3,0-2.3-1-2.3-2.3c0-1.3,1-2.3,2.3-2.3h2c1.3,0,2.3,1,2.3,2.3
		C172.9,688.3,171.8,689.4,170.6,689.4z M158.3,689.4h-2c-1.3,0-2.3-1-2.3-2.3c0-1.3,1-2.3,2.3-2.3h2c1.3,0,2.3,1,2.3,2.3
		C160.6,688.3,159.6,689.4,158.3,689.4z M146,689.4h-2c-1.3,0-2.3-1-2.3-2.3c0-1.3,1-2.3,2.3-2.3h2c1.3,0,2.3,1,2.3,2.3
		C148.3,688.3,147.3,689.4,146,689.4z M133.7,689.4h-2c-1.3,0-2.3-1-2.3-2.3c0-1.3,1-2.3,2.3-2.3h2c1.3,0,2.3,1,2.3,2.3
		C136,688.3,135,689.4,133.7,689.4z"/>
	<path class="st2" d="M1295.1,921h-2c-1.3,0-2.3-1-2.3-2.3c0-1.3,1-2.3,2.3-2.3h2c1.3,0,2.3,1,2.3,2.3
		C1297.4,920,1296.3,921,1295.1,921z M1282.8,921h-2c-1.3,0-2.3-1-2.3-2.3c0-1.3,1-2.3,2.3-2.3h2c1.3,0,2.3,1,2.3,2.3
		C1285.1,920,1284.1,921,1282.8,921z M1270.5,921h-2c-1.3,0-2.3-1-2.3-2.3c0-1.3,1-2.3,2.3-2.3h2c1.3,0,2.3,1,2.3,2.3
		C1272.8,920,1271.8,921,1270.5,921z M1258.2,921h-2c-1.3,0-2.3-1-2.3-2.3c0-1.3,1-2.3,2.3-2.3h2c1.3,0,2.3,1,2.3,2.3
		C1260.5,920,1259.5,921,1258.2,921z M1245.9,921h-2c-1.3,0-2.3-1-2.3-2.3c0-1.3,1-2.3,2.3-2.3h2c1.3,0,2.3,1,2.3,2.3
		C1248.3,920,1247.2,921,1245.9,921z M1233.7,921h-2c-1.3,0-2.3-1-2.3-2.3c0-1.3,1-2.3,2.3-2.3h2c1.3,0,2.3,1,2.3,2.3
		C1236,920,1234.9,921,1233.7,921z M1221.4,921h-2c-1.3,0-2.3-1-2.3-2.3c0-1.3,1-2.3,2.3-2.3h2c1.3,0,2.3,1,2.3,2.3
		C1223.7,920,1222.7,921,1221.4,921z M1209.1,921h-2c-1.3,0-2.3-1-2.3-2.3c0-1.3,1-2.3,2.3-2.3h2c1.3,0,2.3,1,2.3,2.3
		C1211.4,920,1210.4,921,1209.1,921z M1196.8,921h-2c-1.3,0-2.3-1-2.3-2.3c0-1.3,1-2.3,2.3-2.3h2c1.3,0,2.3,1,2.3,2.3
		C1199.1,920,1198.1,921,1196.8,921z M1184.6,921h-2c-1.3,0-2.3-1-2.3-2.3c0-1.3,1-2.3,2.3-2.3h2c1.3,0,2.3,1,2.3,2.3
		C1186.9,920,1185.8,921,1184.6,921z M1172.3,921h-2c-1.3,0-2.3-1-2.3-2.3c0-1.3,1-2.3,2.3-2.3h2c1.3,0,2.3,1,2.3,2.3
		C1174.6,920,1173.6,921,1172.3,921z M1160,921h-2c-1.3,0-2.3-1-2.3-2.3c0-1.3,1-2.3,2.3-2.3h2c1.3,0,2.3,1,2.3,2.3
		C1162.3,920,1161.3,921,1160,921z M1147.7,921h-2c-1.3,0-2.3-1-2.3-2.3c0-1.3,1-2.3,2.3-2.3h2c1.3,0,2.3,1,2.3,2.3
		C1150,920,1149,921,1147.7,921z M1135.4,921h-2c-1.3,0-2.3-1-2.3-2.3c0-1.3,1-2.3,2.3-2.3h2c1.3,0,2.3,1,2.3,2.3
		C1137.7,920,1136.7,921,1135.4,921z M1123.2,921h-2c-1.3,0-2.3-1-2.3-2.3c0-1.3,1-2.3,2.3-2.3h2c1.3,0,2.3,1,2.3,2.3
		C1125.5,920,1124.4,921,1123.2,921z M1110.9,921h-2c-1.3,0-2.3-1-2.3-2.3c0-1.3,1-2.3,2.3-2.3h2c1.3,0,2.3,1,2.3,2.3
		C1113.2,920,1112.2,921,1110.9,921z M1098.6,921h-2c-1.3,0-2.3-1-2.3-2.3c0-1.3,1-2.3,2.3-2.3h2c1.3,0,2.3,1,2.3,2.3
		C1100.9,920,1099.9,921,1098.6,921z M1086.3,921h-2c-1.3,0-2.3-1-2.3-2.3c0-1.3,1-2.3,2.3-2.3h2c1.3,0,2.3,1,2.3,2.3
		C1088.6,920,1087.6,921,1086.3,921z M1074.1,921h-2c-1.3,0-2.3-1-2.3-2.3c0-1.3,1-2.3,2.3-2.3h2c1.3,0,2.3,1,2.3,2.3
		C1076.4,920,1075.3,921,1074.1,921z M1061.8,921h-2c-1.3,0-2.3-1-2.3-2.3c0-1.3,1-2.3,2.3-2.3h2c1.3,0,2.3,1,2.3,2.3
		C1064.1,920,1063,921,1061.8,921z M1049.5,921h-2c-1.3,0-2.3-1-2.3-2.3c0-1.3,1-2.3,2.3-2.3h2c1.3,0,2.3,1,2.3,2.3
		C1051.8,920,1050.8,921,1049.5,921z M1037.2,921h-2c-1.3,0-2.3-1-2.3-2.3c0-1.3,1-2.3,2.3-2.3h2c1.3,0,2.3,1,2.3,2.3
		C1039.5,920,1038.5,921,1037.2,921z M1024.9,921h-2c-1.3,0-2.3-1-2.3-2.3c0-1.3,1-2.3,2.3-2.3h2c1.3,0,2.3,1,2.3,2.3
		C1027.2,920,1026.2,921,1024.9,921z M1012.7,921h-2c-1.3,0-2.3-1-2.3-2.3c0-1.3,1-2.3,2.3-2.3h2c1.3,0,2.3,1,2.3,2.3
		C1015,920,1013.9,921,1012.7,921z M1000.4,921h-2c-1.3,0-2.3-1-2.3-2.3c0-1.3,1-2.3,2.3-2.3h2c1.3,0,2.3,1,2.3,2.3
		C1002.7,920,1001.7,921,1000.4,921z M988.1,921h-2c-1.3,0-2.3-1-2.3-2.3c0-1.3,1-2.3,2.3-2.3h2c1.3,0,2.3,1,2.3,2.3
		C990.4,920,989.4,921,988.1,921z M975.8,921h-2c-1.3,0-2.3-1-2.3-2.3c0-1.3,1-2.3,2.3-2.3h2c1.3,0,2.3,1,2.3,2.3
		C978.1,920,977.1,921,975.8,921z M963.5,921h-2c-1.3,0-2.3-1-2.3-2.3c0-1.3,1-2.3,2.3-2.3h2c1.3,0,2.3,1,2.3,2.3
		C965.9,920,964.8,921,963.5,921z M951.3,921h-2c-1.3,0-2.3-1-2.3-2.3c0-1.3,1-2.3,2.3-2.3h2c1.3,0,2.3,1,2.3,2.3
		C953.6,920,952.5,921,951.3,921z M939,921h-2c-1.3,0-2.3-1-2.3-2.3c0-1.3,1-2.3,2.3-2.3h2c1.3,0,2.3,1,2.3,2.3
		C941.3,920,940.3,921,939,921z M926.7,921h-2c-1.3,0-2.3-1-2.3-2.3c0-1.3,1-2.3,2.3-2.3h2c1.3,0,2.3,1,2.3,2.3
		C929,920,928,921,926.7,921z M914.4,921h-2c-1.3,0-2.3-1-2.3-2.3c0-1.3,1-2.3,2.3-2.3h2c1.3,0,2.3,1,2.3,2.3
		C916.7,920,915.7,921,914.4,921z M902.2,921h-2c-1.3,0-2.3-1-2.3-2.3c0-1.3,1-2.3,2.3-2.3h2c1.3,0,2.3,1,2.3,2.3
		C904.5,920,903.4,921,902.2,921z M889.9,921h-2c-1.3,0-2.3-1-2.3-2.3c0-1.3,1-2.3,2.3-2.3h2c1.3,0,2.3,1,2.3,2.3
		C892.2,920,891.1,921,889.9,921z M877.6,921h-2c-1.3,0-2.3-1-2.3-2.3c0-1.3,1-2.3,2.3-2.3h2c1.3,0,2.3,1,2.3,2.3
		C879.9,920,878.9,921,877.6,921z M865.3,921h-2c-1.3,0-2.3-1-2.3-2.3c0-1.3,1-2.3,2.3-2.3h2c1.3,0,2.3,1,2.3,2.3
		C867.6,920,866.6,921,865.3,921z M853,921h-2c-1.3,0-2.3-1-2.3-2.3c0-1.3,1-2.3,2.3-2.3h2c1.3,0,2.3,1,2.3,2.3
		C855.3,920,854.3,921,853,921z M840.8,921h-2c-1.3,0-2.3-1-2.3-2.3c0-1.3,1-2.3,2.3-2.3h2c1.3,0,2.3,1,2.3,2.3
		C843.1,920,842,921,840.8,921z M828.5,921h-2c-1.3,0-2.3-1-2.3-2.3c0-1.3,1-2.3,2.3-2.3h2c1.3,0,2.3,1,2.3,2.3
		C830.8,920,829.8,921,828.5,921z M816.2,921h-2c-1.3,0-2.3-1-2.3-2.3c0-1.3,1-2.3,2.3-2.3h2c1.3,0,2.3,1,2.3,2.3
		C818.5,920,817.5,921,816.2,921z M803.9,921h-2c-1.3,0-2.3-1-2.3-2.3c0-1.3,1-2.3,2.3-2.3h2c1.3,0,2.3,1,2.3,2.3
		C806.2,920,805.2,921,803.9,921z M791.6,921h-2c-1.3,0-2.3-1-2.3-2.3c0-1.3,1-2.3,2.3-2.3h2c1.3,0,2.3,1,2.3,2.3
		C794,920,792.9,921,791.6,921z M779.4,921h-2c-1.3,0-2.3-1-2.3-2.3c0-1.3,1-2.3,2.3-2.3h2c1.3,0,2.3,1,2.3,2.3
		C781.7,920,780.6,921,779.4,921z M767.1,921h-2c-1.3,0-2.3-1-2.3-2.3c0-1.3,1-2.3,2.3-2.3h2c1.3,0,2.3,1,2.3,2.3
		C769.4,920,768.4,921,767.1,921z M754.8,921h-2c-1.3,0-2.3-1-2.3-2.3c0-1.3,1-2.3,2.3-2.3h2c1.3,0,2.3,1,2.3,2.3
		C757.1,920,756.1,921,754.8,921z M742.5,921h-2c-1.3,0-2.3-1-2.3-2.3c0-1.3,1-2.3,2.3-2.3h2c1.3,0,2.3,1,2.3,2.3
		C744.8,920,743.8,921,742.5,921z M730.3,921h-2c-1.3,0-2.3-1-2.3-2.3c0-1.3,1-2.3,2.3-2.3h2c1.3,0,2.3,1,2.3,2.3
		C732.6,920,731.5,921,730.3,921z M718,921h-2c-1.3,0-2.3-1-2.3-2.3c0-1.3,1-2.3,2.3-2.3h2c1.3,0,2.3,1,2.3,2.3
		C720.3,920,719.3,921,718,921z M705.7,921h-2c-1.3,0-2.3-1-2.3-2.3c0-1.3,1-2.3,2.3-2.3h2c1.3,0,2.3,1,2.3,2.3
		C708,920,707,921,705.7,921z M693.4,921h-2c-1.3,0-2.3-1-2.3-2.3c0-1.3,1-2.3,2.3-2.3h2c1.3,0,2.3,1,2.3,2.3
		C695.7,920,694.7,921,693.4,921z M681.1,921h-2c-1.3,0-2.3-1-2.3-2.3c0-1.3,1-2.3,2.3-2.3h2c1.3,0,2.3,1,2.3,2.3
		C683.4,920,682.4,921,681.1,921z M668.9,921h-2c-1.3,0-2.3-1-2.3-2.3c0-1.3,1-2.3,2.3-2.3h2c1.3,0,2.3,1,2.3,2.3
		C671.2,920,670.1,921,668.9,921z M656.6,921h-2c-1.3,0-2.3-1-2.3-2.3c0-1.3,1-2.3,2.3-2.3h2c1.3,0,2.3,1,2.3,2.3
		C658.9,920,657.9,921,656.6,921z M644.3,921h-2c-1.3,0-2.3-1-2.3-2.3c0-1.3,1-2.3,2.3-2.3h2c1.3,0,2.3,1,2.3,2.3
		C646.6,920,645.6,921,644.3,921z M632,921h-2c-1.3,0-2.3-1-2.3-2.3c0-1.3,1-2.3,2.3-2.3h2c1.3,0,2.3,1,2.3,2.3
		C634.3,920,633.3,921,632,921z M619.8,921h-2c-1.3,0-2.3-1-2.3-2.3c0-1.3,1-2.3,2.3-2.3h2c1.3,0,2.3,1,2.3,2.3
		C622.1,920,621,921,619.8,921z M607.5,921h-2c-1.3,0-2.3-1-2.3-2.3c0-1.3,1-2.3,2.3-2.3h2c1.3,0,2.3,1,2.3,2.3
		C609.8,920,608.7,921,607.5,921z M595.2,921h-2c-1.3,0-2.3-1-2.3-2.3c0-1.3,1-2.3,2.3-2.3h2c1.3,0,2.3,1,2.3,2.3
		C597.5,920,596.5,921,595.2,921z M582.9,921h-2c-1.3,0-2.3-1-2.3-2.3c0-1.3,1-2.3,2.3-2.3h2c1.3,0,2.3,1,2.3,2.3
		C585.2,920,584.2,921,582.9,921z M570.6,921h-2c-1.3,0-2.3-1-2.3-2.3c0-1.3,1-2.3,2.3-2.3h2c1.3,0,2.3,1,2.3,2.3
		C572.9,920,571.9,921,570.6,921z M558.4,921h-2c-1.3,0-2.3-1-2.3-2.3c0-1.3,1-2.3,2.3-2.3h2c1.3,0,2.3,1,2.3,2.3
		C560.7,920,559.6,921,558.4,921z M546.1,921h-2c-1.3,0-2.3-1-2.3-2.3c0-1.3,1-2.3,2.3-2.3h2c1.3,0,2.3,1,2.3,2.3
		C548.4,920,547.4,921,546.1,921z M533.8,921h-2c-1.3,0-2.3-1-2.3-2.3c0-1.3,1-2.3,2.3-2.3h2c1.3,0,2.3,1,2.3,2.3
		C536.1,920,535.1,921,533.8,921z M521.5,921h-2c-1.3,0-2.3-1-2.3-2.3c0-1.3,1-2.3,2.3-2.3h2c1.3,0,2.3,1,2.3,2.3
		C523.8,920,522.8,921,521.5,921z M509.2,921h-2c-1.3,0-2.3-1-2.3-2.3c0-1.3,1-2.3,2.3-2.3h2c1.3,0,2.3,1,2.3,2.3
		C511.6,920,510.5,921,509.2,921z M497,921h-2c-1.3,0-2.3-1-2.3-2.3c0-1.3,1-2.3,2.3-2.3h2c1.3,0,2.3,1,2.3,2.3
		C499.3,920,498.2,921,497,921z M484.7,921h-2c-1.3,0-2.3-1-2.3-2.3c0-1.3,1-2.3,2.3-2.3h2c1.3,0,2.3,1,2.3,2.3
		C487,920,486,921,484.7,921z M472.4,921h-2c-1.3,0-2.3-1-2.3-2.3c0-1.3,1-2.3,2.3-2.3h2c1.3,0,2.3,1,2.3,2.3
		C474.7,920,473.7,921,472.4,921z M460.1,921h-2c-1.3,0-2.3-1-2.3-2.3c0-1.3,1-2.3,2.3-2.3h2c1.3,0,2.3,1,2.3,2.3
		C462.4,920,461.4,921,460.1,921z M447.9,921h-2c-1.3,0-2.3-1-2.3-2.3c0-1.3,1-2.3,2.3-2.3h2c1.3,0,2.3,1,2.3,2.3
		C450.2,920,449.1,921,447.9,921z M435.6,921h-2c-1.3,0-2.3-1-2.3-2.3c0-1.3,1-2.3,2.3-2.3h2c1.3,0,2.3,1,2.3,2.3
		C437.9,920,436.9,921,435.6,921z M423.3,921h-2c-1.3,0-2.3-1-2.3-2.3c0-1.3,1-2.3,2.3-2.3h2c1.3,0,2.3,1,2.3,2.3
		C425.6,920,424.6,921,423.3,921z M411,921h-2c-1.3,0-2.3-1-2.3-2.3c0-1.3,1-2.3,2.3-2.3h2c1.3,0,2.3,1,2.3,2.3
		C413.3,920,412.3,921,411,921z M398.7,921h-2c-1.3,0-2.3-1-2.3-2.3c0-1.3,1-2.3,2.3-2.3h2c1.3,0,2.3,1,2.3,2.3
		C401,920,400,921,398.7,921z M386.5,921h-2c-1.3,0-2.3-1-2.3-2.3c0-1.3,1-2.3,2.3-2.3h2c1.3,0,2.3,1,2.3,2.3
		C388.8,920,387.7,921,386.5,921z M374.2,921h-2c-1.3,0-2.3-1-2.3-2.3c0-1.3,1-2.3,2.3-2.3h2c1.3,0,2.3,1,2.3,2.3
		C376.5,920,375.5,921,374.2,921z M361.9,921h-2c-1.3,0-2.3-1-2.3-2.3c0-1.3,1-2.3,2.3-2.3h2c1.3,0,2.3,1,2.3,2.3
		C364.2,920,363.2,921,361.9,921z M349.6,921h-2c-1.3,0-2.3-1-2.3-2.3c0-1.3,1-2.3,2.3-2.3h2c1.3,0,2.3,1,2.3,2.3
		C351.9,920,350.9,921,349.6,921z M337.4,921h-2c-1.3,0-2.3-1-2.3-2.3c0-1.3,1-2.3,2.3-2.3h2c1.3,0,2.3,1,2.3,2.3
		C339.7,920,338.6,921,337.4,921z M325.1,921h-2c-1.3,0-2.3-1-2.3-2.3c0-1.3,1-2.3,2.3-2.3h2c1.3,0,2.3,1,2.3,2.3
		C327.4,920,326.3,921,325.1,921z M312.8,921h-2c-1.3,0-2.3-1-2.3-2.3c0-1.3,1-2.3,2.3-2.3h2c1.3,0,2.3,1,2.3,2.3
		C315.1,920,314.1,921,312.8,921z M300.5,921h-2c-1.3,0-2.3-1-2.3-2.3c0-1.3,1-2.3,2.3-2.3h2c1.3,0,2.3,1,2.3,2.3
		C302.8,920,301.8,921,300.5,921z M288.2,921h-2c-1.3,0-2.3-1-2.3-2.3c0-1.3,1-2.3,2.3-2.3h2c1.3,0,2.3,1,2.3,2.3
		C290.5,920,289.5,921,288.2,921z M276,921h-2c-1.3,0-2.3-1-2.3-2.3c0-1.3,1-2.3,2.3-2.3h2c1.3,0,2.3,1,2.3,2.3
		C278.3,920,277.2,921,276,921z M263.7,921h-2c-1.3,0-2.3-1-2.3-2.3c0-1.3,1-2.3,2.3-2.3h2c1.3,0,2.3,1,2.3,2.3
		C266,920,265,921,263.7,921z M251.4,921h-2c-1.3,0-2.3-1-2.3-2.3c0-1.3,1-2.3,2.3-2.3h2c1.3,0,2.3,1,2.3,2.3
		C253.7,920,252.7,921,251.4,921z M239.1,921h-2c-1.3,0-2.3-1-2.3-2.3c0-1.3,1-2.3,2.3-2.3h2c1.3,0,2.3,1,2.3,2.3
		C241.4,920,240.4,921,239.1,921z M226.8,921h-2c-1.3,0-2.3-1-2.3-2.3c0-1.3,1-2.3,2.3-2.3h2c1.3,0,2.3,1,2.3,2.3
		C229.2,920,228.1,921,226.8,921z M214.6,921h-2c-1.3,0-2.3-1-2.3-2.3c0-1.3,1-2.3,2.3-2.3h2c1.3,0,2.3,1,2.3,2.3
		C216.9,920,215.8,921,214.6,921z"/>
	<path class="st2" d="M521.1,271.6c-1.2,0-2.3-1-2.3-2.2c0-1.3,1-2.3,2.2-2.4c0.6,0,1.3-0.1,1.9-0.1c1.3-0.1,2.4,0.8,2.5,2.1
		c0.1,1.3-0.9,2.4-2.1,2.5C522.6,271.6,521.8,271.6,521.1,271.6C521.1,271.6,521.1,271.6,521.1,271.6z M510.9,270.7
		c-0.2,0-0.3,0-0.5-0.1c-0.7-0.1-1.4-0.3-2.1-0.5c-1.2-0.3-2-1.6-1.6-2.8c0.3-1.2,1.6-2,2.8-1.6c0.6,0.2,1.2,0.3,1.9,0.4
		c1.2,0.3,2,1.5,1.8,2.7C512.9,270,512,270.7,510.9,270.7z M499.4,266.5c-0.4,0-0.7-0.1-1.1-0.3c-0.6-0.3-1.3-0.7-1.9-1.1
		c-1.1-0.7-1.4-2.1-0.8-3.2c0.7-1.1,2.1-1.4,3.2-0.8c0.6,0.3,1.1,0.7,1.7,1c1.1,0.6,1.5,2,0.9,3.1C501,266,500.2,266.5,499.4,266.5z
		 M489.6,259.2c-0.6,0-1.2-0.2-1.6-0.7c-0.5-0.5-1-1-1.5-1.6c-0.9-0.9-0.8-2.4,0.1-3.3c0.9-0.9,2.4-0.8,3.3,0.1
		c0.4,0.5,0.9,0.9,1.3,1.4c0.9,0.9,0.9,2.4,0,3.3C490.8,259,490.2,259.2,489.6,259.2z M482.2,249.4c-0.8,0-1.6-0.4-2-1.2
		c-0.3-0.6-0.7-1.3-1-1.9c-0.6-1.1-0.1-2.5,1.1-3.1c1.1-0.6,2.5-0.1,3.1,1.1c0.3,0.6,0.6,1.2,0.9,1.7c0.6,1.1,0.2,2.5-0.9,3.1
		C483,249.3,482.6,249.4,482.2,249.4z M477.9,238c-1.1,0-2-0.7-2.2-1.8l-0.1-0.5c-0.1-0.5-0.2-1-0.3-1.6c-0.2-1.3,0.6-2.4,1.9-2.7
		c1.3-0.2,2.4,0.6,2.7,1.9c0.1,0.5,0.2,0.9,0.3,1.4l0.1,0.5c0.3,1.2-0.5,2.5-1.7,2.8C478.2,237.9,478.1,238,477.9,238z M477,225.8
		c-0.1,0-0.1,0-0.2,0c-1.3-0.1-2.2-1.2-2.1-2.5c0.1-0.7,0.1-1.4,0.2-2.1c0.1-1.3,1.3-2.2,2.6-2c1.3,0.1,2.2,1.3,2,2.6
		c-0.1,0.6-0.1,1.3-0.2,1.9C479.2,224.8,478.2,225.8,477,225.8z M479.6,213.8c-0.3,0-0.5,0-0.8-0.1c-1.2-0.4-1.8-1.8-1.4-3
		c0.3-0.7,0.5-1.3,0.8-2c0.5-1.2,1.9-1.7,3-1.2c1.2,0.5,1.7,1.9,1.2,3c-0.3,0.6-0.5,1.2-0.7,1.8
		C481.4,213.2,480.5,213.8,479.6,213.8z M485.4,203.1c-0.5,0-1-0.1-1.4-0.5c-1-0.8-1.2-2.2-0.5-3.2c0.4-0.6,0.9-1.1,1.3-1.7
		c0.8-1,2.3-1.1,3.2-0.3c1,0.8,1.1,2.3,0.3,3.2c-0.4,0.5-0.8,1-1.2,1.5C486.8,202.7,486.1,203.1,485.4,203.1z M494.1,194.4
		c-0.7,0-1.4-0.3-1.8-0.9c-0.8-1-0.6-2.5,0.5-3.2c0.6-0.4,1.2-0.8,1.8-1.3c1.1-0.7,2.5-0.4,3.2,0.6c0.7,1.1,0.4,2.5-0.6,3.2
		c-0.5,0.4-1.1,0.7-1.6,1.1C495,194.2,494.6,194.4,494.1,194.4z M504.8,188.5c-0.9,0-1.8-0.6-2.2-1.5c-0.4-1.2,0.2-2.5,1.4-3
		c0.7-0.2,1.3-0.5,2-0.7c1.2-0.4,2.5,0.3,2.9,1.5c0.4,1.2-0.3,2.5-1.5,2.9c-0.6,0.2-1.2,0.4-1.8,0.6
		C505.4,188.5,505.1,188.5,504.8,188.5z"/>
	<polygon class="st5" points="220.4,231.9 226.5,244.1 240,246.1 230.2,255.7 232.5,269.1 220.4,262.8 208.3,269.1 210.6,255.7 
		200.8,246.1 214.4,244.1 	"/>
	<polygon class="st1" points="148.7,589.7 156.6,605.7 174.2,608.2 161.4,620.6 164.4,638.2 148.7,629.9 132.9,638.2 135.9,620.6 
		123.2,608.2 140.8,605.7 	"/>
	<path class="st2" d="M613.9,778.1c-0.1,0-0.2,0-0.2,0c-0.4,0-0.7-0.1-1.1-0.1c-0.4,0-0.7-0.1-1.1-0.2c-1.3-0.2-2.1-1.4-1.9-2.7
		c0.2-1.3,1.4-2.1,2.7-1.9c0.3,0.1,0.6,0.1,1,0.1c0.3,0,0.6,0.1,0.9,0.1c1.3,0.1,2.2,1.3,2.1,2.5
		C616.1,777.2,615.1,778.1,613.9,778.1z M624.1,777.6c-1.1,0-2-0.7-2.3-1.8c-0.3-1.2,0.5-2.5,1.8-2.7c0.6-0.1,1.2-0.3,1.9-0.4
		c1.2-0.3,2.5,0.4,2.8,1.6c0.3,1.2-0.4,2.5-1.6,2.8c-0.7,0.2-1.4,0.4-2.1,0.5C624.4,777.5,624.2,777.6,624.1,777.6z M602.2,774.6
		c-0.4,0-0.7-0.1-1.1-0.3c-0.6-0.3-1.3-0.7-1.9-1.1c-1.1-0.7-1.4-2.1-0.8-3.2c0.7-1.1,2.1-1.4,3.2-0.8c0.5,0.3,1.1,0.6,1.7,0.9
		c1.1,0.6,1.6,2,1,3.1C603.8,774.1,603,774.6,602.2,774.6z M635.3,772.9c-0.8,0-1.5-0.4-1.9-1c-0.7-1.1-0.4-2.5,0.7-3.2
		c0.5-0.3,1.1-0.7,1.6-1.1c1-0.8,2.5-0.5,3.2,0.5c0.8,1,0.5,2.5-0.5,3.2c-0.6,0.4-1.2,0.9-1.8,1.3
		C636.2,772.8,635.8,772.9,635.3,772.9z M592.6,767.1c-0.6,0-1.3-0.3-1.7-0.8c-0.5-0.5-0.9-1.1-1.4-1.7c-0.8-1-0.6-2.5,0.4-3.2
		s2.5-0.6,3.2,0.4c0.4,0.5,0.8,1,1.2,1.5c0.8,1,0.7,2.4-0.2,3.3C593.7,766.9,593.1,767.1,592.6,767.1z M644.2,764.5
		c-0.5,0-0.9-0.1-1.3-0.4c-1-0.7-1.3-2.2-0.5-3.2c0.4-0.5,0.7-1,1.1-1.6c0.7-1.1,2.1-1.4,3.2-0.7c1.1,0.7,1.4,2.1,0.7,3.2
		c-0.4,0.6-0.8,1.2-1.2,1.8C645.6,764.1,644.9,764.5,644.2,764.5z M586.3,756.6c-0.9,0-1.8-0.6-2.2-1.5c-0.2-0.7-0.5-1.4-0.7-2.1
		c-0.4-1.2,0.3-2.5,1.6-2.9c1.2-0.4,2.5,0.3,2.9,1.6c0.2,0.6,0.4,1.2,0.6,1.8c0.4,1.2-0.2,2.5-1.4,3
		C586.9,756.5,586.6,756.6,586.3,756.6z M649.3,753.4c-0.2,0-0.4,0-0.6-0.1c-1.2-0.3-2-1.6-1.7-2.8c0.2-0.6,0.3-1.2,0.4-1.9
		c0.2-1.3,1.4-2.1,2.7-1.8c1.3,0.2,2.1,1.4,1.8,2.7c-0.1,0.7-0.3,1.4-0.5,2.1C651.3,752.7,650.3,753.4,649.3,753.4z M584.4,744.5
		C584.4,744.5,584.3,744.5,584.4,744.5c-1.3,0-2.3-1.1-2.3-2.4c0-0.7,0.1-1.5,0.1-2.2c0.1-1.3,1.2-2.2,2.5-2.1
		c1.3,0.1,2.2,1.2,2.1,2.5c-0.1,0.6-0.1,1.3-0.1,1.9C586.6,743.5,585.6,744.5,584.4,744.5z"/>
	<path class="st2" d="M1040.2,875.4h-2c-1.3,0-2.3-1-2.3-2.3c0-1.3,1-2.3,2.3-2.3h2c1.3,0,2.3,1,2.3,2.3
		C1042.5,874.4,1041.4,875.4,1040.2,875.4z M1027.9,875.4h-2c-1.3,0-2.3-1-2.3-2.3c0-1.3,1-2.3,2.3-2.3h2c1.3,0,2.3,1,2.3,2.3
		C1030.2,874.4,1029.2,875.4,1027.9,875.4z M1015.6,875.4h-2c-1.3,0-2.3-1-2.3-2.3c0-1.3,1-2.3,2.3-2.3h2c1.3,0,2.3,1,2.3,2.3
		C1017.9,874.4,1016.9,875.4,1015.6,875.4z M1003.3,875.4h-2c-1.3,0-2.3-1-2.3-2.3c0-1.3,1-2.3,2.3-2.3h2c1.3,0,2.3,1,2.3,2.3
		C1005.6,874.4,1004.6,875.4,1003.3,875.4z M991,875.4h-2c-1.3,0-2.3-1-2.3-2.3c0-1.3,1-2.3,2.3-2.3h2c1.3,0,2.3,1,2.3,2.3
		C993.4,874.4,992.3,875.4,991,875.4z M978.8,875.4h-2c-1.3,0-2.3-1-2.3-2.3c0-1.3,1-2.3,2.3-2.3h2c1.3,0,2.3,1,2.3,2.3
		C981.1,874.4,980,875.4,978.8,875.4z M966.5,875.4h-2c-1.3,0-2.3-1-2.3-2.3c0-1.3,1-2.3,2.3-2.3h2c1.3,0,2.3,1,2.3,2.3
		C968.8,874.4,967.8,875.4,966.5,875.4z M954.2,875.4h-2c-1.3,0-2.3-1-2.3-2.3c0-1.3,1-2.3,2.3-2.3h2c1.3,0,2.3,1,2.3,2.3
		C956.5,874.4,955.5,875.4,954.2,875.4z M941.9,875.4h-2c-1.3,0-2.3-1-2.3-2.3c0-1.3,1-2.3,2.3-2.3h2c1.3,0,2.3,1,2.3,2.3
		C944.2,874.4,943.2,875.4,941.9,875.4z M929.7,875.4h-2c-1.3,0-2.3-1-2.3-2.3c0-1.3,1-2.3,2.3-2.3h2c1.3,0,2.3,1,2.3,2.3
		C932,874.4,930.9,875.4,929.7,875.4z M917.4,875.4h-2c-1.3,0-2.3-1-2.3-2.3c0-1.3,1-2.3,2.3-2.3h2c1.3,0,2.3,1,2.3,2.3
		C919.7,874.4,918.7,875.4,917.4,875.4z M905.1,875.4h-2c-1.3,0-2.3-1-2.3-2.3c0-1.3,1-2.3,2.3-2.3h2c1.3,0,2.3,1,2.3,2.3
		C907.4,874.4,906.4,875.4,905.1,875.4z M892.8,875.4h-2c-1.3,0-2.3-1-2.3-2.3c0-1.3,1-2.3,2.3-2.3h2c1.3,0,2.3,1,2.3,2.3
		C895.1,874.4,894.1,875.4,892.8,875.4z M880.5,875.4h-2c-1.3,0-2.3-1-2.3-2.3c0-1.3,1-2.3,2.3-2.3h2c1.3,0,2.3,1,2.3,2.3
		C882.8,874.4,881.8,875.4,880.5,875.4z M868.3,875.4h-2c-1.3,0-2.3-1-2.3-2.3c0-1.3,1-2.3,2.3-2.3h2c1.3,0,2.3,1,2.3,2.3
		C870.6,874.4,869.5,875.4,868.3,875.4z M856,875.4h-2c-1.3,0-2.3-1-2.3-2.3c0-1.3,1-2.3,2.3-2.3h2c1.3,0,2.3,1,2.3,2.3
		C858.3,874.4,857.3,875.4,856,875.4z M843.7,875.4h-2c-1.3,0-2.3-1-2.3-2.3c0-1.3,1-2.3,2.3-2.3h2c1.3,0,2.3,1,2.3,2.3
		C846,874.4,845,875.4,843.7,875.4z M831.4,875.4h-2c-1.3,0-2.3-1-2.3-2.3c0-1.3,1-2.3,2.3-2.3h2c1.3,0,2.3,1,2.3,2.3
		C833.7,874.4,832.7,875.4,831.4,875.4z M819.1,875.4h-2c-1.3,0-2.3-1-2.3-2.3c0-1.3,1-2.3,2.3-2.3h2c1.3,0,2.3,1,2.3,2.3
		C821.5,874.4,820.4,875.4,819.1,875.4z M806.9,875.4h-2c-1.3,0-2.3-1-2.3-2.3c0-1.3,1-2.3,2.3-2.3h2c1.3,0,2.3,1,2.3,2.3
		C809.2,874.4,808.1,875.4,806.9,875.4z M794.6,875.4h-2c-1.3,0-2.3-1-2.3-2.3c0-1.3,1-2.3,2.3-2.3h2c1.3,0,2.3,1,2.3,2.3
		C796.9,874.4,795.9,875.4,794.6,875.4z M782.3,875.4h-2c-1.3,0-2.3-1-2.3-2.3c0-1.3,1-2.3,2.3-2.3h2c1.3,0,2.3,1,2.3,2.3
		C784.6,874.4,783.6,875.4,782.3,875.4z M770,875.4h-2c-1.3,0-2.3-1-2.3-2.3c0-1.3,1-2.3,2.3-2.3h2c1.3,0,2.3,1,2.3,2.3
		C772.3,874.4,771.3,875.4,770,875.4z"/>
	<path class="st2" d="M708.8,868.4c-1.3,0-2.3-1-2.3-2.3v-4.6c0-1.3,1-2.3,2.3-2.3c1.3,0,2.3,1,2.3,2.3v4.6
		C711.1,867.3,710,868.4,708.8,868.4z"/>
	<path class="st2" d="M1107.9,868.4c-1.3,0-2.3-1-2.3-2.3v-4.6c0-1.3,1-2.3,2.3-2.3c1.3,0,2.3,1,2.3,2.3v4.6
		C1110.2,867.3,1109.1,868.4,1107.9,868.4z"/>
	<path class="st2" d="M886,813.7h-2c-1.3,0-2.3-1-2.3-2.3c0-1.3,1-2.3,2.3-2.3h2c1.3,0,2.3,1,2.3,2.3
		C888.4,812.7,887.3,813.7,886,813.7z M873.8,813.7h-2c-1.3,0-2.3-1-2.3-2.3c0-1.3,1-2.3,2.3-2.3h2c1.3,0,2.3,1,2.3,2.3
		C876.1,812.7,875,813.7,873.8,813.7z M861.5,813.7h-2c-1.3,0-2.3-1-2.3-2.3c0-1.3,1-2.3,2.3-2.3h2c1.3,0,2.3,1,2.3,2.3
		C863.8,812.7,862.8,813.7,861.5,813.7z M849.2,813.7h-2c-1.3,0-2.3-1-2.3-2.3c0-1.3,1-2.3,2.3-2.3h2c1.3,0,2.3,1,2.3,2.3
		C851.5,812.7,850.5,813.7,849.2,813.7z M836.9,813.7h-2c-1.3,0-2.3-1-2.3-2.3c0-1.3,1-2.3,2.3-2.3h2c1.3,0,2.3,1,2.3,2.3
		C839.2,812.7,838.2,813.7,836.9,813.7z M824.7,813.7h-2c-1.3,0-2.3-1-2.3-2.3c0-1.3,1-2.3,2.3-2.3h2c1.3,0,2.3,1,2.3,2.3
		C827,812.7,825.9,813.7,824.7,813.7z M812.4,813.7h-2c-1.3,0-2.3-1-2.3-2.3c0-1.3,1-2.3,2.3-2.3h2c1.3,0,2.3,1,2.3,2.3
		C814.7,812.7,813.7,813.7,812.4,813.7z M800.1,813.7h-2c-1.3,0-2.3-1-2.3-2.3c0-1.3,1-2.3,2.3-2.3h2c1.3,0,2.3,1,2.3,2.3
		C802.4,812.7,801.4,813.7,800.1,813.7z M787.8,813.7h-2c-1.3,0-2.3-1-2.3-2.3c0-1.3,1-2.3,2.3-2.3h2c1.3,0,2.3,1,2.3,2.3
		C790.1,812.7,789.1,813.7,787.8,813.7z M775.5,813.7h-2c-1.3,0-2.3-1-2.3-2.3c0-1.3,1-2.3,2.3-2.3h2c1.3,0,2.3,1,2.3,2.3
		C777.8,812.7,776.8,813.7,775.5,813.7z M763.3,813.7h-2c-1.3,0-2.3-1-2.3-2.3c0-1.3,1-2.3,2.3-2.3h2c1.3,0,2.3,1,2.3,2.3
		C765.6,812.7,764.5,813.7,763.3,813.7z M751,813.7h-2c-1.3,0-2.3-1-2.3-2.3c0-1.3,1-2.3,2.3-2.3h2c1.3,0,2.3,1,2.3,2.3
		C753.3,812.7,752.3,813.7,751,813.7z M738.7,813.7h-2c-1.3,0-2.3-1-2.3-2.3c0-1.3,1-2.3,2.3-2.3h2c1.3,0,2.3,1,2.3,2.3
		C741,812.7,740,813.7,738.7,813.7z M726.4,813.7h-2c-1.3,0-2.3-1-2.3-2.3c0-1.3,1-2.3,2.3-2.3h2c1.3,0,2.3,1,2.3,2.3
		C728.7,812.7,727.7,813.7,726.4,813.7z M714.2,813.7h-2c-1.3,0-2.3-1-2.3-2.3c0-1.3,1-2.3,2.3-2.3h2c1.3,0,2.3,1,2.3,2.3
		C716.5,812.7,715.4,813.7,714.2,813.7z M701.9,813.7h-2c-1.3,0-2.3-1-2.3-2.3c0-1.3,1-2.3,2.3-2.3h2c1.3,0,2.3,1,2.3,2.3
		C704.2,812.7,703.1,813.7,701.9,813.7z M689.6,813.7h-2c-1.3,0-2.3-1-2.3-2.3c0-1.3,1-2.3,2.3-2.3h2c1.3,0,2.3,1,2.3,2.3
		C691.9,812.7,690.9,813.7,689.6,813.7z M677.3,813.7h-2c-1.3,0-2.3-1-2.3-2.3c0-1.3,1-2.3,2.3-2.3h2c1.3,0,2.3,1,2.3,2.3
		C679.6,812.7,678.6,813.7,677.3,813.7z"/>
	<path class="st2" d="M1159.1,813.7h-0.3c-1.3,0-2.3-1-2.3-2.3c0-1.3,1-2.3,2.3-2.3h0.3c1.3,0,2.3,1,2.3,2.3
		C1161.4,812.7,1160.3,813.7,1159.1,813.7z M1148.5,813.7h-2c-1.3,0-2.3-1-2.3-2.3c0-1.3,1-2.3,2.3-2.3h2c1.3,0,2.3,1,2.3,2.3
		C1150.8,812.7,1149.8,813.7,1148.5,813.7z M1136.3,813.7h-2c-1.3,0-2.3-1-2.3-2.3c0-1.3,1-2.3,2.3-2.3h2c1.3,0,2.3,1,2.3,2.3
		C1138.6,812.7,1137.5,813.7,1136.3,813.7z M1124,813.7h-2c-1.3,0-2.3-1-2.3-2.3c0-1.3,1-2.3,2.3-2.3h2c1.3,0,2.3,1,2.3,2.3
		C1126.3,812.7,1125.2,813.7,1124,813.7z M1111.7,813.7h-2c-1.3,0-2.3-1-2.3-2.3c0-1.3,1-2.3,2.3-2.3h2c1.3,0,2.3,1,2.3,2.3
		C1114,812.7,1113,813.7,1111.7,813.7z M1099.4,813.7h-2c-1.3,0-2.3-1-2.3-2.3c0-1.3,1-2.3,2.3-2.3h2c1.3,0,2.3,1,2.3,2.3
		C1101.7,812.7,1100.7,813.7,1099.4,813.7z M1087.1,813.7h-2c-1.3,0-2.3-1-2.3-2.3c0-1.3,1-2.3,2.3-2.3h2c1.3,0,2.3,1,2.3,2.3
		C1089.4,812.7,1088.4,813.7,1087.1,813.7z M1074.9,813.7h-2c-1.3,0-2.3-1-2.3-2.3c0-1.3,1-2.3,2.3-2.3h2c1.3,0,2.3,1,2.3,2.3
		C1077.2,812.7,1076.1,813.7,1074.9,813.7z M1062.6,813.7h-2c-1.3,0-2.3-1-2.3-2.3c0-1.3,1-2.3,2.3-2.3h2c1.3,0,2.3,1,2.3,2.3
		C1064.9,812.7,1063.9,813.7,1062.6,813.7z M1050.3,813.7h-2c-1.3,0-2.3-1-2.3-2.3c0-1.3,1-2.3,2.3-2.3h2c1.3,0,2.3,1,2.3,2.3
		C1052.6,812.7,1051.6,813.7,1050.3,813.7z M1038,813.7h-2c-1.3,0-2.3-1-2.3-2.3c0-1.3,1-2.3,2.3-2.3h2c1.3,0,2.3,1,2.3,2.3
		C1040.3,812.7,1039.3,813.7,1038,813.7z M1025.7,813.7h-2c-1.3,0-2.3-1-2.3-2.3c0-1.3,1-2.3,2.3-2.3h2c1.3,0,2.3,1,2.3,2.3
		C1028.1,812.7,1027,813.7,1025.7,813.7z M1013.5,813.7h-2c-1.3,0-2.3-1-2.3-2.3c0-1.3,1-2.3,2.3-2.3h2c1.3,0,2.3,1,2.3,2.3
		C1015.8,812.7,1014.7,813.7,1013.5,813.7z M1001.2,813.7h-2c-1.3,0-2.3-1-2.3-2.3c0-1.3,1-2.3,2.3-2.3h2c1.3,0,2.3,1,2.3,2.3
		C1003.5,812.7,1002.5,813.7,1001.2,813.7z M988.9,813.7h-2c-1.3,0-2.3-1-2.3-2.3c0-1.3,1-2.3,2.3-2.3h2c1.3,0,2.3,1,2.3,2.3
		C991.2,812.7,990.2,813.7,988.9,813.7z"/>
	<path class="st2" d="M986.1,294.2c-0.2,0-0.4,0-0.6-0.1c-1.2-0.3-2-1.6-1.6-2.8c0.2-0.7,0.4-1.3,0.6-2c0.4-1.2,1.6-1.9,2.9-1.6
		c1.2,0.4,1.9,1.6,1.6,2.9c-0.2,0.6-0.4,1.3-0.5,1.9C988,293.5,987.1,294.2,986.1,294.2z M989.9,282.5c-0.3,0-0.6-0.1-0.8-0.2
		c-1.2-0.5-1.8-1.8-1.3-3c0.3-0.6,0.5-1.3,0.8-1.9c0.5-1.2,1.8-1.7,3-1.2c1.2,0.5,1.7,1.8,1.2,3c-0.3,0.6-0.5,1.2-0.8,1.9
		C991.7,282,990.8,282.5,989.9,282.5z M995,271.4c-0.4,0-0.7-0.1-1.1-0.3c-1.1-0.6-1.5-2-0.9-3.1c0.3-0.6,0.7-1.2,1-1.8
		c0.6-1.1,2-1.5,3.1-0.9c1.1,0.6,1.5,2,0.9,3.1c-0.3,0.6-0.6,1.2-1,1.8C996.7,270.9,995.9,271.4,995,271.4z M1001.4,260.9
		c-0.5,0-0.9-0.1-1.3-0.4c-1-0.7-1.3-2.2-0.6-3.2c0.4-0.6,0.8-1.1,1.2-1.7c0.7-1,2.2-1.3,3.2-0.5c1,0.7,1.3,2.2,0.5,3.2
		c-0.4,0.5-0.8,1.1-1.2,1.6C1002.9,260.6,1002.2,260.9,1001.4,260.9z M1009,251.2c-0.5,0-1.1-0.2-1.5-0.6c-1-0.8-1.1-2.3-0.2-3.3
		c0.5-0.5,0.9-1,1.4-1.6c0.9-0.9,2.3-1,3.3-0.2c0.9,0.9,1,2.3,0.2,3.3c-0.4,0.5-0.9,1-1.3,1.5C1010.3,251,1009.6,251.2,1009,251.2z
		 M1017.6,242.5c-0.6,0-1.3-0.3-1.7-0.8c-0.9-0.9-0.8-2.4,0.2-3.3c0.5-0.5,1-0.9,1.6-1.4c1-0.8,2.4-0.7,3.3,0.2
		c0.8,1,0.7,2.4-0.2,3.3c-0.5,0.4-1,0.9-1.5,1.3C1018.7,242.3,1018.1,242.5,1017.6,242.5z M1027.1,234.7c-0.7,0-1.4-0.3-1.9-1
		c-0.7-1-0.5-2.5,0.5-3.2c0.6-0.4,1.1-0.8,1.7-1.2c1-0.7,2.5-0.5,3.2,0.6c0.7,1,0.5,2.5-0.6,3.2c-0.5,0.4-1.1,0.8-1.6,1.2
		C1028.1,234.6,1027.6,234.7,1027.1,234.7z M1037.5,228.2c-0.8,0-1.6-0.4-2-1.2c-0.6-1.1-0.2-2.5,0.9-3.1c0.6-0.3,1.2-0.7,1.8-1
		c1.1-0.6,2.5-0.2,3.1,1c0.6,1.1,0.2,2.5-1,3.1c-0.6,0.3-1.2,0.6-1.8,1C1038.3,228.1,1037.9,228.2,1037.5,228.2z M1048.5,222.8
		c-0.9,0-1.8-0.5-2.1-1.4c-0.5-1.2,0.1-2.5,1.2-3c0.6-0.3,1.3-0.5,1.9-0.8c1.2-0.5,2.5,0.1,3,1.3c0.5,1.2-0.1,2.5-1.3,3
		c-0.6,0.2-1.2,0.5-1.9,0.8C1049.1,222.7,1048.8,222.8,1048.5,222.8z M1060.1,218.7c-1,0-1.9-0.7-2.2-1.7c-0.4-1.2,0.4-2.5,1.6-2.9
		c0.7-0.2,1.3-0.4,2-0.6c1.2-0.3,2.5,0.4,2.8,1.6c0.3,1.2-0.4,2.5-1.6,2.8c-0.6,0.2-1.3,0.4-1.9,0.5
		C1060.5,218.7,1060.3,218.7,1060.1,218.7z M1110.7,216.6c-0.1,0-0.3,0-0.4,0c-0.7-0.1-1.3-0.3-2-0.4c-1.3-0.2-2.1-1.4-1.9-2.7
		s1.4-2.1,2.7-1.9c0.7,0.1,1.4,0.3,2.1,0.4c1.3,0.2,2.1,1.5,1.8,2.7C1112.7,215.8,1111.8,216.6,1110.7,216.6z M1072,216
		c-1.1,0-2.1-0.8-2.3-1.9c-0.2-1.3,0.6-2.4,1.9-2.7c0.7-0.1,1.4-0.2,2.1-0.3c1.2-0.2,2.4,0.7,2.6,1.9c0.2,1.3-0.7,2.4-1.9,2.6
		c-0.7,0.1-1.3,0.2-2,0.3C1072.3,216,1072.2,216,1072,216z M1098.5,214.9c-0.1,0-0.1,0-0.2,0c-0.7-0.1-1.3-0.1-2-0.1
		c-1.3-0.1-2.2-1.2-2.2-2.4c0.1-1.3,1.1-2.2,2.4-2.2c0.7,0,1.4,0.1,2.1,0.2c1.3,0.1,2.2,1.2,2.1,2.5
		C1100.7,214,1099.7,214.9,1098.5,214.9z M1084.2,214.7c-1.2,0-2.2-1-2.3-2.2c-0.1-1.3,0.9-2.4,2.2-2.4c0.7,0,1.4-0.1,2.1-0.1
		c1.3-0.1,2.3,1,2.4,2.2c0,1.3-1,2.3-2.2,2.4c-0.7,0-1.3,0.1-2,0.1C1084.3,214.7,1084.3,214.7,1084.2,214.7z"/>
	<path class="st2" d="M665.5,229.7c-0.3,0-0.6-0.1-0.9-0.2c-1.2-0.5-1.7-1.9-1.2-3c0.3-0.6,0.5-1.2,0.8-1.9c0.5-1.2,1.9-1.7,3-1.2
		c1.2,0.5,1.7,1.9,1.2,3c-0.3,0.6-0.5,1.3-0.8,1.9C667.2,229.2,666.4,229.7,665.5,229.7z M670,218.3c-0.3,0-0.5,0-0.8-0.1
		c-1.2-0.4-1.8-1.7-1.4-2.9c0.2-0.6,0.4-1.3,0.7-1.9c0.4-1.2,1.7-1.9,2.9-1.4c1.2,0.4,1.9,1.7,1.4,2.9c-0.2,0.7-0.4,1.3-0.7,2
		C671.9,217.7,671,218.3,670,218.3z M673.7,206.6c-0.2,0-0.4,0-0.6-0.1c-1.2-0.3-2-1.6-1.6-2.8l0.5-2c0.3-1.2,1.6-2,2.8-1.6
		c1.2,0.3,2,1.6,1.6,2.8l-0.5,2C675.6,205.9,674.7,206.6,673.7,206.6z M676.6,194.7c-0.2,0-0.3,0-0.5,0c-1.2-0.3-2-1.5-1.8-2.7
		c0.1-0.7,0.3-1.3,0.4-2c0.2-1.2,1.5-2.1,2.7-1.8c1.2,0.2,2.1,1.5,1.8,2.7c-0.1,0.7-0.3,1.3-0.4,2
		C678.6,193.9,677.6,194.7,676.6,194.7z M678.7,182.6c-0.1,0-0.2,0-0.3,0c-1.3-0.2-2.1-1.4-1.9-2.6l0.3-2c0.2-1.3,1.4-2.1,2.6-2
		c1.3,0.2,2.1,1.3,2,2.6l-0.3,2C680.8,181.7,679.8,182.6,678.7,182.6z M680.2,170.4c-0.1,0-0.1,0-0.2,0c-1.3-0.1-2.2-1.2-2.1-2.5
		c0.1-0.7,0.1-1.4,0.2-2c0.1-1.3,1.2-2.2,2.5-2.1c1.3,0.1,2.2,1.2,2.1,2.5c-0.1,0.7-0.1,1.4-0.2,2.1
		C682.4,169.5,681.4,170.4,680.2,170.4z M680.9,158.1C680.9,158.1,680.9,158.1,680.9,158.1c-1.3,0-2.3-1.1-2.3-2.4c0-1,0-1.7,0-1.9
		c0-1.3,1-2.4,2.3-2.4c1.3,0,2.3,1,2.3,2.3v0.1c0,0.2,0,0.9,0,2C683.2,157.1,682.2,158.1,680.9,158.1z"/>
	<path class="st2" d="M613.7,357.1c-0.4,0-0.9-0.1-1.3-0.4c-1.1-0.7-1.3-2.1-0.6-3.2c0,0,0.4-0.6,1-1.6c0.7-1.1,2.1-1.4,3.2-0.8
		c1.1,0.7,1.5,2.1,0.8,3.2c-0.7,1.2-1.1,1.8-1.1,1.8C615.2,356.7,614.4,357.1,613.7,357.1z M619.6,346.3c-0.3,0-0.7-0.1-1-0.2
		c-1.1-0.6-1.6-1.9-1.1-3.1c0.3-0.6,0.6-1.2,0.9-1.8c0.5-1.2,1.9-1.7,3.1-1.1c1.2,0.5,1.6,1.9,1.1,3.1c-0.3,0.6-0.6,1.3-0.9,1.9
		C621.3,345.8,620.5,346.3,619.6,346.3z M624.6,335.1c-0.3,0-0.6-0.1-0.9-0.2c-1.2-0.5-1.8-1.8-1.3-3c0.2-0.6,0.5-1.2,0.7-1.9
		c0.5-1.2,1.8-1.8,3-1.3c1.2,0.5,1.8,1.8,1.3,3c-0.3,0.7-0.5,1.3-0.8,1.9C626.3,334.5,625.5,335.1,624.6,335.1z M628.8,323.5
		c-0.2,0-0.5,0-0.7-0.1c-1.2-0.4-1.9-1.7-1.5-2.9c0.2-0.6,0.4-1.3,0.6-1.9c0.4-1.2,1.7-1.9,2.9-1.5c1.2,0.4,1.9,1.7,1.5,2.9
		c-0.2,0.7-0.4,1.3-0.6,2C630.7,322.9,629.8,323.5,628.8,323.5z M632.4,311.8c-0.2,0-0.4,0-0.6-0.1c-1.2-0.3-1.9-1.6-1.6-2.8l0.5-2
		c0.3-1.2,1.6-2,2.8-1.6c1.2,0.3,2,1.6,1.6,2.8l-0.5,2C634.3,311.1,633.4,311.8,632.4,311.8z M635.4,299.9c-0.2,0-0.3,0-0.5-0.1
		c-1.2-0.3-2-1.5-1.7-2.8l0.4-2c0.3-1.2,1.5-2,2.7-1.8c1.2,0.3,2,1.5,1.8,2.7l-0.4,2C637.4,299.2,636.4,299.9,635.4,299.9z"/>
	<path class="st2" d="M648.8,448.5c-0.1,0-0.3,0-0.5,0c-1.2-0.2-2.1-1.5-1.8-2.7l0.4-2c0.2-1.3,1.5-2.1,2.7-1.8
		c1.3,0.2,2.1,1.4,1.8,2.7l-0.4,2C650.8,447.7,649.8,448.5,648.8,448.5z M651,436.4c-0.1,0-0.3,0-0.4,0c-1.3-0.2-2.1-1.4-1.9-2.7
		l0.3-2c0.2-1.3,1.4-2.1,2.7-1.9c1.3,0.2,2.1,1.4,1.9,2.7l-0.3,2C653.1,435.6,652.1,436.4,651,436.4z M652.9,424.3
		c-0.1,0-0.2,0-0.3,0c-1.3-0.2-2.1-1.3-2-2.6l0.3-2c0.2-1.3,1.3-2.1,2.6-2c1.3,0.2,2.1,1.3,2,2.6l-0.3,2
		C655,423.5,654,424.3,652.9,424.3z M654.5,412.1c-0.1,0-0.2,0-0.3,0c-1.3-0.2-2.2-1.3-2-2.6l0.2-2c0.1-1.3,1.3-2.2,2.6-2
		c1.3,0.1,2.2,1.3,2,2.6l-0.2,2C656.7,411.3,655.7,412.1,654.5,412.1z M655.8,399.9c-0.1,0-0.1,0-0.2,0c-1.3-0.1-2.2-1.2-2.1-2.5
		l0.2-2c0.1-1.3,1.2-2.2,2.5-2.1c1.3,0.1,2.2,1.2,2.1,2.5l-0.2,2C658,399,657,399.9,655.8,399.9z M656.8,387.7c-0.1,0-0.1,0-0.2,0
		c-1.3-0.1-2.2-1.2-2.1-2.5l0.1-2c0.1-1.3,1.1-2.2,2.5-2.1c1.3,0.1,2.2,1.2,2.1,2.5l-0.1,2C659.1,386.7,658,387.7,656.8,387.7z
		 M657.5,375.4c0,0-0.1,0-0.1,0c-1.3-0.1-2.3-1.1-2.2-2.4l0.1-2c0-1.3,1.1-2.2,2.4-2.2c1.3,0,2.3,1.1,2.2,2.4l-0.1,2.1
		C659.8,374.4,658.8,375.4,657.5,375.4z M657.9,363.1C657.9,363.1,657.9,363.1,657.9,363.1c-1.3,0-2.3-1.1-2.3-2.3l0-2
		c0-1.3,1-2.3,2.3-2.3c0,0,0,0,0,0c1.3,0,2.3,1.1,2.3,2.3l0,2.1C660.2,362.1,659.2,363.1,657.9,363.1z M657.8,350.8
		c-1.2,0-2.3-1-2.3-2.2c0-1.3-0.1-2-0.1-2c-0.1-1.3,0.9-2.4,2.2-2.4c1.3-0.1,2.4,0.9,2.4,2.2c0,0,0,0.7,0.1,2.1
		C660.2,349.7,659.2,350.8,657.8,350.8C657.9,350.8,657.8,350.8,657.8,350.8z"/>
	<path class="st2" d="M705,354.6c-0.5,0-1-0.2-1.4-0.5c-0.6-0.4-1.1-0.9-1.7-1.4c-1-0.8-1.1-2.3-0.2-3.3c0.8-1,2.3-1.1,3.3-0.2
		c0.5,0.4,1,0.8,1.5,1.2c1,0.8,1.2,2.2,0.4,3.2C706.4,354.3,705.7,354.6,705,354.6z M696.7,345.6c-0.8,0-1.5-0.4-1.9-1
		c-0.4-0.6-0.8-1.2-1.1-1.9c-0.6-1.1-0.3-2.5,0.8-3.1c1.1-0.6,2.5-0.3,3.1,0.8c0.3,0.6,0.7,1.1,1,1.6c0.7,1.1,0.4,2.5-0.7,3.2
		C697.6,345.5,697.2,345.6,696.7,345.6z M691.8,334.4c-1,0-2-0.7-2.2-1.7c-0.2-0.7-0.3-1.4-0.5-2.1c-0.2-1.2,0.6-2.5,1.8-2.7
		c1.3-0.2,2.5,0.6,2.7,1.8c0.1,0.6,0.3,1.3,0.4,1.9c0.3,1.2-0.4,2.5-1.7,2.8C692.2,334.4,692,334.4,691.8,334.4z M690.8,322.2
		c-0.1,0-0.1,0-0.2,0c-1.3-0.1-2.2-1.2-2.1-2.5c0.1-0.7,0.1-1.4,0.2-2.2c0.2-1.3,1.4-2.1,2.6-2c1.3,0.2,2.1,1.3,2,2.6
		c-0.1,0.6-0.2,1.3-0.2,1.9C693,321.3,692,322.2,690.8,322.2z M693.9,310.4c-0.3,0-0.6-0.1-0.9-0.2c-1.2-0.5-1.7-1.9-1.2-3
		c0.3-0.7,0.6-1.3,0.9-2c0.6-1.1,2-1.6,3.1-1c1.1,0.6,1.6,2,1,3.1c-0.3,0.6-0.6,1.1-0.8,1.7C695.6,309.9,694.8,310.4,693.9,310.4z
		 M755.6,300.8c-0.6,0-1.3-0.3-1.7-0.8l-0.3-0.4c-0.9-0.9-0.8-2.4,0.2-3.3c0.9-0.9,2.4-0.8,3.3,0.2l0.4,0.4c0.8,1,0.7,2.4-0.2,3.3
		C756.6,300.6,756.1,300.8,755.6,300.8z M700.6,300.2c-0.6,0-1.1-0.2-1.6-0.6c-0.9-0.9-1-2.3-0.1-3.3c0.5-0.5,1-1.1,1.5-1.6
		c0.9-0.9,2.4-0.9,3.3,0.1c0.9,0.9,0.9,2.4-0.1,3.3c-0.5,0.4-0.9,0.9-1.3,1.4C701.8,299.9,701.2,300.2,700.6,300.2z M747.4,293.9
		c-0.4,0-0.8-0.1-1.2-0.3c-0.5-0.3-1.1-0.7-1.7-1c-1.1-0.6-1.5-2-0.9-3.1c0.6-1.1,2-1.5,3.1-0.9c0.6,0.3,1.3,0.7,1.9,1.1
		c1.1,0.7,1.4,2.1,0.7,3.2C748.9,293.5,748.1,293.9,747.4,293.9z M710.3,292.7c-0.8,0-1.6-0.4-2-1.2c-0.6-1.1-0.2-2.5,0.9-3.1
		c0.6-0.3,1.3-0.7,1.9-1c1.2-0.5,2.5,0,3.1,1.1c0.5,1.2,0,2.5-1.1,3.1c-0.6,0.3-1.2,0.6-1.7,0.9C711,292.6,710.6,292.7,710.3,292.7z
		 M736.1,289.2c-0.2,0-0.3,0-0.5-0.1c-0.6-0.1-1.3-0.3-1.9-0.4c-1.3-0.2-2.1-1.4-1.9-2.7c0.2-1.3,1.4-2.1,2.7-1.9
		c0.7,0.1,1.4,0.3,2.1,0.4c1.2,0.3,2,1.5,1.7,2.8C738.1,288.5,737.1,289.2,736.1,289.2z M721.8,288.8c-1.1,0-2.1-0.8-2.3-1.9
		c-0.2-1.3,0.6-2.4,1.9-2.6c0.7-0.1,1.4-0.2,2.2-0.3c1.2-0.1,2.4,0.8,2.5,2c0.1,1.3-0.8,2.4-2.1,2.5c-0.6,0.1-1.3,0.2-1.9,0.3
		C722.1,288.7,722,288.8,721.8,288.8z"/>
	<path class="st2" d="M708.7,471.5h-2c-1.3,0-2.3-1-2.3-2.3c0-1.3,1-2.3,2.3-2.3h2c1.3,0,2.3,1,2.3,2.3
		C711,470.4,710,471.5,708.7,471.5z M696.4,471.5h-2c-1.3,0-2.3-1-2.3-2.3c0-1.3,1-2.3,2.3-2.3h2c1.3,0,2.3,1,2.3,2.3
		C698.7,470.4,697.7,471.5,696.4,471.5z M684.2,471.5h-2c-1.3,0-2.3-1-2.3-2.3c0-1.3,1-2.3,2.3-2.3h2c1.3,0,2.3,1,2.3,2.3
		C686.5,470.4,685.4,471.5,684.2,471.5z M671.9,471.5h-2c-1.3,0-2.3-1-2.3-2.3c0-1.3,1-2.3,2.3-2.3h2c1.3,0,2.3,1,2.3,2.3
		C674.2,470.4,673.1,471.5,671.9,471.5z M659.6,471.5h-2c-1.3,0-2.3-1-2.3-2.3c0-1.3,1-2.3,2.3-2.3h2c1.3,0,2.3,1,2.3,2.3
		C661.9,470.4,660.9,471.5,659.6,471.5z M647.3,471.5h-2c-1.3,0-2.3-1-2.3-2.3c0-1.3,1-2.3,2.3-2.3h2c1.3,0,2.3,1,2.3,2.3
		C649.6,470.4,648.6,471.5,647.3,471.5z M635,471.5h-2c-1.3,0-2.3-1-2.3-2.3c0-1.3,1-2.3,2.3-2.3h2c1.3,0,2.3,1,2.3,2.3
		C637.3,470.4,636.3,471.5,635,471.5z M622.8,471.5h-2c-1.3,0-2.3-1-2.3-2.3c0-1.3,1-2.3,2.3-2.3h2c1.3,0,2.3,1,2.3,2.3
		C625.1,470.4,624,471.5,622.8,471.5z M610.5,471.5h-2c-1.3,0-2.3-1-2.3-2.3c0-1.3,1-2.3,2.3-2.3h2c1.3,0,2.3,1,2.3,2.3
		C612.8,470.4,611.8,471.5,610.5,471.5z M598.2,471.5h-2c-1.3,0-2.3-1-2.3-2.3c0-1.3,1-2.3,2.3-2.3h2c1.3,0,2.3,1,2.3,2.3
		C600.5,470.4,599.5,471.5,598.2,471.5z M585.9,471.5h-2c-1.3,0-2.3-1-2.3-2.3c0-1.3,1-2.3,2.3-2.3h2c1.3,0,2.3,1,2.3,2.3
		C588.2,470.4,587.2,471.5,585.9,471.5z M573.6,471.5h-2c-1.3,0-2.3-1-2.3-2.3c0-1.3,1-2.3,2.3-2.3h2c1.3,0,2.3,1,2.3,2.3
		C576,470.4,574.9,471.5,573.6,471.5z M561.4,471.5h-2c-1.3,0-2.3-1-2.3-2.3c0-1.3,1-2.3,2.3-2.3h2c1.3,0,2.3,1,2.3,2.3
		C563.7,470.4,562.6,471.5,561.4,471.5z M549.1,471.5h-2c-1.3,0-2.3-1-2.3-2.3c0-1.3,1-2.3,2.3-2.3h2c1.3,0,2.3,1,2.3,2.3
		C551.4,470.4,550.4,471.5,549.1,471.5z M536.8,471.5h-2c-1.3,0-2.3-1-2.3-2.3c0-1.3,1-2.3,2.3-2.3h2c1.3,0,2.3,1,2.3,2.3
		C539.1,470.4,538.1,471.5,536.8,471.5z M533,462.9c-1.3,0-2.3-1-2.3-2.3v-2c0-1.3,1-2.3,2.3-2.3c1.3,0,2.3,1,2.3,2.3v2
		C535.3,461.9,534.3,462.9,533,462.9z M533,450.7c-1.3,0-2.3-1-2.3-2.3v-2c0-1.3,1-2.3,2.3-2.3c1.3,0,2.3,1,2.3,2.3v2
		C535.3,449.6,534.3,450.7,533,450.7z M533,438.4c-1.3,0-2.3-1-2.3-2.3v-2c0-1.3,1-2.3,2.3-2.3c1.3,0,2.3,1,2.3,2.3v2
		C535.3,437.4,534.3,438.4,533,438.4z M533,426.1c-1.3,0-2.3-1-2.3-2.3v-2c0-1.3,1-2.3,2.3-2.3c1.3,0,2.3,1,2.3,2.3v2
		C535.3,425.1,534.3,426.1,533,426.1z M533,413.8c-1.3,0-2.3-1-2.3-2.3v-2c0-1.3,1-2.3,2.3-2.3c1.3,0,2.3,1,2.3,2.3v2
		C535.3,412.8,534.3,413.8,533,413.8z M533,401.6c-1.3,0-2.3-1-2.3-2.3v-2c0-1.3,1-2.3,2.3-2.3c1.3,0,2.3,1,2.3,2.3v2
		C535.3,400.5,534.3,401.6,533,401.6z M533,389.3c-1.3,0-2.3-1-2.3-2.3v-2c0-1.3,1-2.3,2.3-2.3c1.3,0,2.3,1,2.3,2.3v2
		C535.3,388.2,534.3,389.3,533,389.3z M533,377c-1.3,0-2.3-1-2.3-2.3v-2c0-1.3,1-2.3,2.3-2.3c1.3,0,2.3,1,2.3,2.3v2
		C535.3,376,534.3,377,533,377z M533,364.7c-1.3,0-2.3-1-2.3-2.3v-2c0-1.3,1-2.3,2.3-2.3c1.3,0,2.3,1,2.3,2.3v2
		C535.3,363.7,534.3,364.7,533,364.7z M533,352.4c-1.3,0-2.3-1-2.3-2.3v-2c0-1.3,1-2.3,2.3-2.3c1.3,0,2.3,1,2.3,2.3v2
		C535.3,351.4,534.3,352.4,533,352.4z"/>
	<path class="st2" d="M579.7,303.8c-0.7,0-1.4-0.3-1.8-0.9c-0.8-1-0.6-2.4,0.4-3.2c0,0,0.6-0.4,1.5-1.2c1-0.8,2.4-0.8,3.3,0.2
		c0.8,1,0.8,2.4-0.2,3.3c-1.1,0.9-1.7,1.4-1.7,1.4C580.7,303.6,580.2,303.8,579.7,303.8z M588.5,295.3c-0.6,0-1.1-0.2-1.6-0.6
		c-0.9-0.9-1-2.3-0.1-3.3c0.4-0.5,0.9-1,1.4-1.5c0.9-0.9,2.3-1,3.3-0.2c0.9,0.9,1,2.3,0.2,3.3c-0.5,0.5-0.9,1-1.4,1.5
		C589.8,295,589.2,295.3,588.5,295.3z M596.5,285.9c-0.5,0-1-0.2-1.4-0.5c-1-0.8-1.2-2.2-0.4-3.2c0.4-0.5,0.8-1.1,1.2-1.6
		c0.8-1,2.2-1.2,3.2-0.5c1,0.8,1.2,2.2,0.5,3.2c-0.4,0.6-0.8,1.1-1.3,1.7C597.8,285.6,597.2,285.9,596.5,285.9z M603.6,275.9
		c-0.4,0-0.9-0.1-1.3-0.4c-1.1-0.7-1.4-2.1-0.7-3.2c0.4-0.6,0.7-1.1,1.1-1.7c0.7-1.1,2.1-1.4,3.2-0.7c1.1,0.7,1.4,2.1,0.7,3.2
		c-0.4,0.6-0.8,1.2-1.1,1.7C605.1,275.5,604.4,275.9,603.6,275.9z M610,265.4c-0.4,0-0.8-0.1-1.1-0.3c-1.1-0.6-1.5-2-0.9-3.1
		c0.3-0.6,0.6-1.2,1-1.8c0.6-1.1,2-1.5,3.1-0.9c1.1,0.6,1.5,2,0.9,3.1c-0.3,0.6-0.7,1.2-1,1.8C611.5,265,610.8,265.4,610,265.4z
		 M615.5,254.5c-0.3,0-0.7-0.1-1-0.2c-1.2-0.5-1.7-1.9-1.1-3.1c0.3-0.6,0.6-1.2,0.8-1.8c0.5-1.2,1.9-1.7,3-1.2
		c1.2,0.5,1.7,1.9,1.2,3c-0.3,0.6-0.6,1.3-0.9,1.9C617.2,254,616.4,254.5,615.5,254.5z"/>
	<path class="st2" d="M1240.2,673.9h-2c-1.3,0-2.3-1-2.3-2.3c0-1.3,1-2.3,2.3-2.3h2c1.3,0,2.3,1,2.3,2.3
		C1242.5,672.9,1241.5,673.9,1240.2,673.9z M1228,673.9h-2c-1.3,0-2.3-1-2.3-2.3c0-1.3,1-2.3,2.3-2.3h2c1.3,0,2.3,1,2.3,2.3
		C1230.3,672.9,1229.2,673.9,1228,673.9z M1215.7,673.9h-2c-1.3,0-2.3-1-2.3-2.3c0-1.3,1-2.3,2.3-2.3h2c1.3,0,2.3,1,2.3,2.3
		C1218,672.9,1217,673.9,1215.7,673.9z M1203.4,673.9h-2c-1.3,0-2.3-1-2.3-2.3c0-1.3,1-2.3,2.3-2.3h2c1.3,0,2.3,1,2.3,2.3
		C1205.7,672.9,1204.7,673.9,1203.4,673.9z M1191.1,673.9h-2c-1.3,0-2.3-1-2.3-2.3c0-1.3,1-2.3,2.3-2.3h2c1.3,0,2.3,1,2.3,2.3
		C1193.4,672.9,1192.4,673.9,1191.1,673.9z M1178.8,673.9h-2c-1.3,0-2.3-1-2.3-2.3c0-1.3,1-2.3,2.3-2.3h2c1.3,0,2.3,1,2.3,2.3
		C1181.1,672.9,1180.1,673.9,1178.8,673.9z M1166.6,673.9h-2c-1.3,0-2.3-1-2.3-2.3c0-1.3,1-2.3,2.3-2.3h2c1.3,0,2.3,1,2.3,2.3
		C1168.9,672.9,1167.8,673.9,1166.6,673.9z M1154.3,673.9h-2c-1.3,0-2.3-1-2.3-2.3c0-1.3,1-2.3,2.3-2.3h2c1.3,0,2.3,1,2.3,2.3
		C1156.6,672.9,1155.6,673.9,1154.3,673.9z M1142,673.9h-2c-1.3,0-2.3-1-2.3-2.3c0-1.3,1-2.3,2.3-2.3h2c1.3,0,2.3,1,2.3,2.3
		C1144.3,672.9,1143.3,673.9,1142,673.9z M1129.7,673.9h-2c-1.3,0-2.3-1-2.3-2.3c0-1.3,1-2.3,2.3-2.3h2c1.3,0,2.3,1,2.3,2.3
		C1132,672.9,1131,673.9,1129.7,673.9z M1117.4,673.9h-2c-1.3,0-2.3-1-2.3-2.3c0-1.3,1-2.3,2.3-2.3h2c1.3,0,2.3,1,2.3,2.3
		C1119.8,672.9,1118.7,673.9,1117.4,673.9z M1105.2,673.9h-2c-1.3,0-2.3-1-2.3-2.3c0-1.3,1-2.3,2.3-2.3h2c1.3,0,2.3,1,2.3,2.3
		C1107.5,672.9,1106.4,673.9,1105.2,673.9z M1092.9,673.9h-2c-1.3,0-2.3-1-2.3-2.3c0-1.3,1-2.3,2.3-2.3h2c1.3,0,2.3,1,2.3,2.3
		C1095.2,672.9,1094.2,673.9,1092.9,673.9z M1080.6,673.9h-2c-1.3,0-2.3-1-2.3-2.3c0-1.3,1-2.3,2.3-2.3h2c1.3,0,2.3,1,2.3,2.3
		C1082.9,672.9,1081.9,673.9,1080.6,673.9z M1068.3,673.9h-2c-1.3,0-2.3-1-2.3-2.3c0-1.3,1-2.3,2.3-2.3h2c1.3,0,2.3,1,2.3,2.3
		C1070.6,672.9,1069.6,673.9,1068.3,673.9z"/>
	<path class="st2" d="M212.5,576c-1.3,0-2.3-1-2.3-2.3v-2c0-1.3,1-2.3,2.3-2.3c1.3,0,2.3,1,2.3,2.3v2
		C214.8,574.9,213.8,576,212.5,576z M212.5,563.7c-1.3,0-2.3-1-2.3-2.3v-2c0-1.3,1-2.3,2.3-2.3c1.3,0,2.3,1,2.3,2.3v2
		C214.8,562.6,213.8,563.7,212.5,563.7z M212.5,551.4c-1.3,0-2.3-1-2.3-2.3v-2c0-1.3,1-2.3,2.3-2.3c1.3,0,2.3,1,2.3,2.3v2
		C214.8,550.4,213.8,551.4,212.5,551.4z M212.5,539.1c-1.3,0-2.3-1-2.3-2.3v-2c0-1.3,1-2.3,2.3-2.3c1.3,0,2.3,1,2.3,2.3v2
		C214.8,538.1,213.8,539.1,212.5,539.1z M212.5,526.8c-1.3,0-2.3-1-2.3-2.3v-2c0-1.3,1-2.3,2.3-2.3c1.3,0,2.3,1,2.3,2.3v2
		C214.8,525.8,213.8,526.8,212.5,526.8z M212.5,514.6c-1.3,0-2.3-1-2.3-2.3v-2c0-1.3,1-2.3,2.3-2.3c1.3,0,2.3,1,2.3,2.3v2
		C214.8,513.5,213.8,514.6,212.5,514.6z M212.5,502.3c-1.3,0-2.3-1-2.3-2.3v-2c0-1.3,1-2.3,2.3-2.3c1.3,0,2.3,1,2.3,2.3v2
		C214.8,501.2,213.8,502.3,212.5,502.3z M212.5,490c-1.3,0-2.3-1-2.3-2.3v-2c0-1.3,1-2.3,2.3-2.3c1.3,0,2.3,1,2.3,2.3v2
		C214.8,489,213.8,490,212.5,490z M212.5,477.7c-1.3,0-2.3-1-2.3-2.3v-2c0-1.3,1-2.3,2.3-2.3c1.3,0,2.3,1,2.3,2.3v2
		C214.8,476.7,213.8,477.7,212.5,477.7z M212.5,465.4c-1.3,0-2.3-1-2.3-2.3v-2c0-1.3,1-2.3,2.3-2.3c1.3,0,2.3,1,2.3,2.3v2
		C214.8,464.4,213.8,465.4,212.5,465.4z M212.5,453.2c-1.3,0-2.3-1-2.3-2.3v-2c0-1.3,1-2.3,2.3-2.3c1.3,0,2.3,1,2.3,2.3v2
		C214.8,452.1,213.8,453.2,212.5,453.2z M212.5,440.9c-1.3,0-2.3-1-2.3-2.3v-2c0-1.3,1-2.3,2.3-2.3c1.3,0,2.3,1,2.3,2.3v2
		C214.8,439.9,213.8,440.9,212.5,440.9z M212.5,428.6c-1.3,0-2.3-1-2.3-2.3v-2c0-1.3,1-2.3,2.3-2.3c1.3,0,2.3,1,2.3,2.3v2
		C214.8,427.6,213.8,428.6,212.5,428.6z M212.5,416.3c-1.3,0-2.3-1-2.3-2.3v-2c0-1.3,1-2.3,2.3-2.3c1.3,0,2.3,1,2.3,2.3v2
		C214.8,415.3,213.8,416.3,212.5,416.3z M212.5,404.1c-1.3,0-2.3-1-2.3-2.3v-2c0-1.3,1-2.3,2.3-2.3c1.3,0,2.3,1,2.3,2.3v2
		C214.8,403,213.8,404.1,212.5,404.1z M212.5,391.8c-1.3,0-2.3-1-2.3-2.3v-2c0-1.3,1-2.3,2.3-2.3c1.3,0,2.3,1,2.3,2.3v2
		C214.8,390.7,213.8,391.8,212.5,391.8z M212.5,379.5c-1.3,0-2.3-1-2.3-2.3v-2c0-1.3,1-2.3,2.3-2.3c1.3,0,2.3,1,2.3,2.3v2
		C214.8,378.5,213.8,379.5,212.5,379.5z M212.5,367.2c-1.3,0-2.3-1-2.3-2.3v-2c0-1.3,1-2.3,2.3-2.3c1.3,0,2.3,1,2.3,2.3v2
		C214.8,366.2,213.8,367.2,212.5,367.2z M212.5,354.9c-1.3,0-2.3-1-2.3-2.3v-2c0-1.3,1-2.3,2.3-2.3c1.3,0,2.3,1,2.3,2.3v2
		C214.8,353.9,213.8,354.9,212.5,354.9z M212.5,342.7c-1.3,0-2.3-1-2.3-2.3v-2c0-1.3,1-2.3,2.3-2.3c1.3,0,2.3,1,2.3,2.3v2
		C214.8,341.6,213.8,342.7,212.5,342.7z M212.5,330.4c-1.3,0-2.3-1-2.3-2.3v-2c0-1.3,1-2.3,2.3-2.3c1.3,0,2.3,1,2.3,2.3v2
		C214.8,329.4,213.8,330.4,212.5,330.4z M212.5,318.1c-1.3,0-2.3-1-2.3-2.3v-2c0-1.3,1-2.3,2.3-2.3c1.3,0,2.3,1,2.3,2.3v2
		C214.8,317.1,213.8,318.1,212.5,318.1z M212.5,305.8c-1.3,0-2.3-1-2.3-2.3v-2c0-1.3,1-2.3,2.3-2.3c1.3,0,2.3,1,2.3,2.3v2
		C214.8,304.8,213.8,305.8,212.5,305.8z"/>
	<path class="st2" d="M742.6,610.4c-6.1,0-11-4.9-11-11s4.9-11,11-11c6.1,0,11,4.9,11,11S748.7,610.4,742.6,610.4z M742.6,593.1
		c-3.5,0-6.4,2.9-6.4,6.4c0,3.5,2.9,6.4,6.4,6.4c3.5,0,6.4-2.9,6.4-6.4C749,595.9,746.2,593.1,742.6,593.1z"/>
	<path class="st2" d="M848.5,421.4c-6,0-10.9-4.9-10.9-10.9c0-6,4.9-10.9,10.9-10.9c6,0,10.9,4.9,10.9,10.9
		C859.4,416.6,854.5,421.4,848.5,421.4z M848.5,404.3c-3.5,0-6.3,2.8-6.3,6.3c0,3.5,2.8,6.3,6.3,6.3c3.5,0,6.3-2.8,6.3-6.3
		C854.8,407.1,852,404.3,848.5,404.3z"/>
	<path class="st2" d="M926.7,242.8c-6.3,0-11.4-5.1-11.4-11.4c0-6.3,5.1-11.4,11.4-11.4c6.3,0,11.4,5.1,11.4,11.4
		C938.1,237.7,933,242.8,926.7,242.8z M926.7,224.6c-3.8,0-6.8,3.1-6.8,6.8c0,3.8,3.1,6.8,6.8,6.8c3.8,0,6.8-3.1,6.8-6.8
		C933.5,227.6,930.4,224.6,926.7,224.6z"/>
	<path class="st2" d="M919.9,467.6c-10,0-18.2-8.2-18.2-18.2c0-10,8.2-18.2,18.2-18.2c10,0,18.2,8.2,18.2,18.2
		C938.1,459.5,930,467.6,919.9,467.6z M919.9,435.9c-7.5,0-13.6,6.1-13.6,13.6c0,7.5,6.1,13.6,13.6,13.6c7.5,0,13.6-6.1,13.6-13.6
		C933.5,442,927.4,435.9,919.9,435.9z"/>
	<path class="st2" d="M1315.8,731.2c-5.5,0-10-4.5-10-10c0-5.5,4.5-10,10-10c5.5,0,10,4.5,10,10
		C1325.8,726.7,1321.3,731.2,1315.8,731.2z M1315.8,715.9c-3,0-5.4,2.4-5.4,5.4c0,3,2.4,5.4,5.4,5.4s5.4-2.4,5.4-5.4
		C1321.2,718.3,1318.8,715.9,1315.8,715.9z"/>
	<path class="st2" d="M1189.3,881.9c-9.1,0-16.5-7.4-16.5-16.5c0-9.1,7.4-16.5,16.5-16.5c9.1,0,16.5,7.4,16.5,16.5
		C1205.8,874.5,1198.4,881.9,1189.3,881.9z M1189.3,853.6c-6.6,0-11.9,5.3-11.9,11.9c0,6.6,5.3,11.9,11.9,11.9
		c6.6,0,11.9-5.3,11.9-11.9C1201.2,858.9,1195.9,853.6,1189.3,853.6z"/>
	<path class="st2" d="M417.6,646.3c-6,0-10.8-4.9-10.8-10.8c0-6,4.9-10.8,10.8-10.8c6,0,10.8,4.9,10.8,10.8
		C428.4,641.5,423.6,646.3,417.6,646.3z M417.6,629.3c-3.4,0-6.2,2.8-6.2,6.2c0,3.4,2.8,6.2,6.2,6.2c3.4,0,6.2-2.8,6.2-6.2
		C423.8,632.1,421.1,629.3,417.6,629.3z"/>
	<path class="st2" d="M552.4,238.8c-8,0-14.4-6.5-14.4-14.4c0-8,6.5-14.4,14.4-14.4s14.4,6.5,14.4,14.4
		C566.8,232.3,560.3,238.8,552.4,238.8z M552.4,214.5c-5.4,0-9.8,4.4-9.8,9.8c0,5.4,4.4,9.8,9.8,9.8c5.4,0,9.8-4.4,9.8-9.8
		C562.2,218.9,557.8,214.5,552.4,214.5z"/>
	<path class="st2" d="M621,183.7c-5.3,0-9.6-4.3-9.6-9.6s4.3-9.6,9.6-9.6c5.3,0,9.6,4.3,9.6,9.6S626.3,183.7,621,183.7z M621,169.1
		c-2.8,0-5,2.2-5,5s2.2,5,5,5s5-2.2,5-5S623.8,169.1,621,169.1z"/>
	<path class="st2" d="M747.1,188.4H734c-1.3,0-2.3-1-2.3-2.3V173c0-1.3,1-2.3,2.3-2.3h13.1c1.3,0,2.3,1,2.3,2.3v13.1
		C749.4,187.4,748.4,188.4,747.1,188.4z M736.3,183.8h8.5v-8.5h-8.5V183.8z"/>
	<path class="st2" d="M837.7,194.4h-18.4c-1.3,0-2.3-1-2.3-2.3v-18.4c0-1.3,1-2.3,2.3-2.3h18.4c1.3,0,2.3,1,2.3,2.3v18.4
		C840,193.4,838.9,194.4,837.7,194.4z M821.6,189.8h13.8V176h-13.8V189.8z"/>
	<path class="st2" d="M155.7,723.2h-17.3c-1.3,0-2.3-1-2.3-2.3v-17.3c0-1.3,1-2.3,2.3-2.3h17.3c1.3,0,2.3,1,2.3,2.3v17.3
		C158,722.2,157,723.2,155.7,723.2z M140.7,718.6h12.7v-12.7h-12.7V718.6z"/>
	<path class="st2" d="M1261.3,365.1h-23.4c-1.3,0-2.3-1-2.3-2.3v-23.4c0-1.3,1-2.3,2.3-2.3h23.4c1.3,0,2.3,1,2.3,2.3v23.4
		C1263.6,364,1262.6,365.1,1261.3,365.1z M1240.2,360.4h18.8v-18.8h-18.8V360.4z"/>
</g>
</svg>
