<?xml version="1.0" encoding="UTF-8" standalone="no"?><!DOCTYPE svg PUBLIC "-//W3C//DTD SVG 1.1//EN" "http://www.w3.org/Graphics/SVG/1.1/DTD/svg11.dtd"><svg width="100%" height="100%" viewBox="0 0 100 100" version="1.1" xmlns="http://www.w3.org/2000/svg" xmlns:xlink="http://www.w3.org/1999/xlink" xml:space="preserve" xmlns:serif="http://www.serif.com/" style="fill-rule:evenodd;clip-rule:evenodd;stroke-linejoin:round;stroke-miterlimit:1.41421;"><path d="M82.773,61.175l-2.926,-6.369c6.369,-2.066 11.017,-7.919 11.017,-14.977c0,-8.607 -7.058,-15.837 -15.837,-15.837c-1.033,0 -2.066,0.172 -3.099,0.344l-2.754,-3.787c-4.304,-6.025 -11.19,-9.64 -18.075,-9.812c-5.681,-0.172 -8.435,2.238 -9.812,4.131c-6.542,9.468 -19.281,35.634 -24.445,46.135l-0.172,0c-4.992,0 -9.124,4.131 -9.124,9.123l0,13.255c0,4.993 4.132,9.124 9.124,9.124l66.103,0c4.992,0 9.124,-4.131 9.124,-9.124l0,-13.255c-0.172,-4.992 -4.132,-8.951 -9.124,-8.951Zm0,27.199l-66.103,0c-2.582,0 -4.82,-2.238 -4.82,-4.821l0,-13.255c0,-2.582 2.238,-4.82 4.82,-4.82l66.103,0c2.582,0 4.82,2.238 4.82,4.82l0,13.255c-0.172,2.583 -2.238,4.821 -4.82,4.821Zm-38.044,-70.924c1.033,-1.549 3.271,-2.41 6.198,-2.237c5.68,0.172 11.189,3.098 14.632,8.09l3.615,4.82c-0.172,0 -0.172,0.172 -0.345,0.172c-0.172,0 -0.344,0.173 -0.516,0.345c-0.344,0.172 -0.516,0.344 -0.861,0.516c-0.172,0.172 -0.344,0.172 -0.516,0.344c-0.344,0.173 -0.517,0.517 -0.861,0.689c-0.172,0.172 -0.172,0.172 -0.344,0.344l-0.172,0.172l-2.066,-4.303c-0.172,-0.517 -0.689,-0.689 -1.205,-0.344c-0.516,0.344 -0.689,0.688 -0.344,1.205l2.582,5.508l9.124,20.141l5.164,11.361l-58.529,0c4.82,-10.5 17.903,-37.527 24.444,-46.823Zm26.166,11.706c1.377,-0.516 2.755,-0.861 4.132,-0.861c6.369,0 11.533,5.165 11.533,11.534c0,6.197 -4.992,11.189 -11.189,11.362l-8.779,-19.108c1.205,-1.378 2.582,-2.41 4.303,-2.927Z" style="fill:#fff;fill-rule:nonzero;"/></svg>