<?xml version="1.0" encoding="utf-8"?>
<!-- Generator: Adobe Illustrator 22.1.0, SVG Export Plug-In . SVG Version: 6.00 Build 0)  -->
<svg version="1.1" id="illustration" xmlns="http://www.w3.org/2000/svg" xmlns:xlink="http://www.w3.org/1999/xlink" x="0px"
	 y="0px" viewBox="0 0 1262.8 1000" style="enable-background:new 0 0 1262.8 1000;" xml:space="preserve">
<style type="text/css">
	.st0{fill:#FABF62;}
	.st1{fill:#1C3E58;}
	.st2{fill:#FF3019;}
	.st3{fill:#EBF0F6;}
	.st4{fill:#4088DA;}
	.st5{fill:#1D9B50;}
	.st6{fill:#2B71B5;}
</style>
<g>
	<g>
		<g>
			<path class="st0" d="M1077.2,575.3c13,2.9,29.6-1.6,29.6-1.6c-28.4-12.2-43.6-42.2-43.6-42.2c16,2.6,20.3,0,20.3,0
				c-30-30.7-40.7-72.6-40.7-72.6s-10.7,41.9-40.7,72.6c0,0,4.3,2.6,20.3,0c0,0-8.6,17-25,30.6v14.2c3.6,0.1,7.4-0.2,11-1
				c0,0-3.5,6.7-11,15.6v71.3c12.7,2.6,27.7,4.3,45.3,4.3c80.1,0,107-34.6,107-34.6C1099.3,617.2,1077.2,575.3,1077.2,575.3z"/>
		</g>
		<g>
			<rect x="818.5" y="797.9" class="st0" width="95.7" height="26.1"/>
			<path class="st1" d="M914.3,826.3h-95.7c-1.3,0-2.3-1-2.3-2.3v-26.1c0-1.3,1-2.3,2.3-2.3h95.7c1.3,0,2.3,1,2.3,2.3V824
				C916.5,825.2,915.5,826.3,914.3,826.3z M820.8,821.7H912v-21.5h-91.2V821.7z"/>
		</g>
		<g>
			<path class="st1" d="M818.5,904.4H620c-1.3,0-2.3-1-2.3-2.3V773.5c0-1.3,1-2.3,2.3-2.3h198.6c1.3,0,2.3,1,2.3,2.3v128.7
				C820.8,903.4,819.8,904.4,818.5,904.4z M622.2,899.9h194V775.7h-194V899.9z"/>
		</g>
		<g>
			<rect x="375.8" y="777.4" class="st2" width="148.8" height="26.8"/>
			<path class="st1" d="M524.6,806.5H375.8c-1.3,0-2.3-1-2.3-2.3v-26.8c0-1.3,1-2.3,2.3-2.3h148.8c1.3,0,2.3,1,2.3,2.3v26.8
				C526.9,805.5,525.9,806.5,524.6,806.5z M378.1,802h144.3v-22.3H378.1V802z"/>
		</g>
		<g>
			<path class="st3" d="M315.1,456.3c0,0,7.8,9.7,27.5,18.7h75.8l9.7,14.7c4.1-0.1,8-0.3,11.8-0.5l8.1-10.1c0,0,15.5,1.1,35.8,2.5
				c32.9-9.9,45.2-25.3,45.2-25.3c-50.5-14.3-72.6-54.9-72.6-54.9c13,2.8,29.6-1.6,29.6-1.6c-28.4-11.8-43.6-41-43.6-41
				c16,2.5,20.3,0,20.3,0c-30-29.8-40.7-70.4-40.7-70.4s-10.7,40.6-40.7,70.4c0,0,4.3,2.5,20.3,0c0,0-15.2,29.2-43.6,41
				c0,0,16.6,4.3,29.6,1.6C387.7,401.4,365.6,442.1,315.1,456.3z"/>
			<path class="st1" d="M428.1,492c-0.8,0-1.5-0.4-1.9-1l-9-13.7h-74.6c-0.3,0-0.6-0.1-0.9-0.2c-20-9.1-28-18.9-28.3-19.3
				c-0.5-0.6-0.6-1.4-0.4-2.1c0.2-0.7,0.8-1.3,1.5-1.5c39.6-11.2,61.6-39.2,68.7-49.7c-12.2,1.1-25-2.2-25.6-2.3
				c-0.9-0.2-1.6-1.1-1.7-2c-0.1-1,0.5-1.9,1.4-2.3c21.2-8.8,34.9-27.7,40.1-36c-12.3,1.4-16.4-0.5-17.1-0.9c-0.6-0.4-1-1-1.1-1.7
				c-0.1-0.7,0.1-1.4,0.7-1.9c29.2-29,40-69,40.1-69.4c0.3-1,1.2-1.7,2.2-1.7c1,0,1.9,0.7,2.2,1.7c0.1,0.4,10.9,40.4,40.1,69.4
				c0.5,0.5,0.7,1.2,0.7,1.9s-0.5,1.3-1.1,1.7c-0.8,0.4-4.8,2.3-17.1,0.9c5.2,8.2,19,27.2,40.1,36c0.9,0.4,1.5,1.3,1.4,2.3
				c-0.1,1-0.7,1.8-1.7,2c-0.6,0.2-13.4,3.5-25.6,2.3c7.1,10.5,29.1,38.6,68.7,49.7c0.7,0.2,1.3,0.8,1.5,1.5
				c0.2,0.7,0.1,1.5-0.4,2.1c-0.5,0.7-13.1,16-46.3,26c-0.3,0.1-0.5,0.1-0.8,0.1c-17-1.1-30.6-2.1-34.7-2.4l-7.4,9.2
				c-0.4,0.5-1,0.8-1.6,0.8C436.3,491.8,432.3,491.9,428.1,492C428.2,492,428.1,492,428.1,492z M343.1,472.7h75.4
				c0.8,0,1.5,0.4,1.9,1l9,13.7c3.2-0.1,6.4-0.2,9.4-0.4l7.5-9.3c0.5-0.6,1.2-0.9,1.9-0.8c0.2,0,15.5,1.1,35.4,2.4
				c23.5-7.2,36.3-17.2,41.2-21.9c-48.3-15.2-69.5-53.3-70.4-54.9c-0.4-0.8-0.4-1.7,0.2-2.4c0.5-0.7,1.4-1,2.3-0.9
				c7.4,1.6,16.1,0.7,22-0.2c-24.8-13.2-37.9-37.9-38.5-39c-0.4-0.8-0.3-1.7,0.2-2.4c0.5-0.7,1.3-1.1,2.2-0.9
				c7.8,1.2,12.7,1.2,15.5,0.9c-21-22.2-31.9-48.9-36.2-61.4c-4.3,12.5-15.2,39.2-36.2,61.4c2.8,0.3,7.7,0.3,15.5-0.9
				c0.9-0.1,1.7,0.2,2.2,0.9c0.5,0.7,0.6,1.6,0.2,2.4c-0.6,1.1-13.7,25.8-38.5,39c5.8,0.9,14.6,1.8,22,0.2c0.9-0.2,1.8,0.2,2.3,0.9
				c0.5,0.7,0.6,1.7,0.2,2.4c-0.9,1.7-22.1,39.8-70.4,54.9C322.9,460.8,330.4,466.9,343.1,472.7z M315.1,456.3L315.1,456.3
				L315.1,456.3z"/>
		</g>
		<g>
			<path class="st2" d="M522.3,227.9c0,0-22.5-55.7,34.7-98.3C614.2,87,688.1,87,726.7,121.7s31.2,103.8,71.8,91.2
				c0,0,3.6,24.9-34.3,28.8c-37.9,3.9-62.8-12.2-78.6,12c-15.8,24.3-24.5-29.4-24.5-29.4L522.3,227.9z"/>
			<path class="st1" d="M677.7,262.3c-0.5,0-1-0.1-1.5-0.2c-10.1-2.1-15.4-26.9-16.9-35.5l-137,3.5c-0.9,0.1-1.8-0.5-2.2-1.4
				c-0.2-0.6-22.5-57.8,35.5-101C611.2,86.4,687,83,728.3,120c16.9,15.2,25.1,36.5,32.3,55.2c10.3,26.9,17.1,41.8,37.4,35.5
				c0.6-0.2,1.3-0.1,1.9,0.2c0.6,0.4,0.9,0.9,1,1.6c0.1,0.4,1.2,9.1-5.3,17.4c-6,7.8-16.5,12.5-31.1,14c-13.5,1.4-25.3,0.3-35.6-0.7
				c-19.1-1.8-31.7-3-41.3,11.7C684.4,259.9,681.1,262.3,677.7,262.3z M661.2,222c1.1,0,2.1,0.8,2.2,1.9
				c2.1,13.3,7.8,32.5,13.7,33.8c2.3,0.5,4.9-2.6,6.6-5.2c11-16.9,26.2-15.5,45.5-13.7c10.2,0.9,21.7,2,34.7,0.7
				c13.2-1.4,22.6-5.5,27.9-12.2c3.4-4.3,4.2-8.7,4.4-11.4c-23,5.4-31-15.3-40.1-39c-7-18.3-14.9-39-31.1-53.4
				c-39.7-35.6-113-32.1-166.9,8c-50.7,37.8-37.6,85.1-34.5,94.2L661.2,222C661.2,222,661.2,222,661.2,222z"/>
		</g>
		<g>
			<path class="st1" d="M576.2,510.1c-0.1,0-0.1,0-0.2,0c-1.2-0.1-2.1-1.1-2.1-2.2c-0.3-27.4-16.9-48.4-29-63.8
				c-2.2-2.8-4.3-5.4-6.1-7.9c-5.4-7.4-12.7-7-13-7c-0.7,0-1.5-0.3-1.9-0.8c-0.5-0.6-0.6-1.3-0.4-2.1c2.5-8.7-2-15.5-7.8-24
				c-4.1-6.2-8.8-13.1-11.5-22.1c-6.9-22.8,6-27.5,6.6-27.7c1.2-0.4,2.5,0.2,2.9,1.4c0.4,1.2-0.2,2.5-1.4,2.9
				c-0.4,0.1-9.2,3.7-3.7,22.1c2.5,8.3,7,15,11,20.8c5.4,8,10.5,15.6,9,25.1c3.5,0.5,9.4,2.3,14,8.7c1.8,2.4,3.8,5,6,7.8
				c10.9,13.8,25.3,32.2,29,55.8c3.6-7.2,10.5-16.4,23.5-21.3c22-8.2,31.5-29.5,32.5-38c0.1-1.2,1.3-2.1,2.5-2
				c4.1,0.4,11.8,3.8,15.2,13.2c8.8-8.3,36.3-39.5,26-97.4c-0.2-1.2,0.6-2.4,1.8-2.6c1.2-0.2,2.4,0.6,2.6,1.8
				c12.6,71.1-29.9,103.8-30.4,104.1c-0.6,0.5-1.4,0.6-2.2,0.3c-0.7-0.3-1.3-0.9-1.4-1.7c-1.7-8.6-7.1-11.6-10.2-12.7
				c-2.4,10.7-12.7,30.9-35,39.2c-20.6,7.7-24.1,27.4-24.2,28.2C578.2,509.3,577.3,510.1,576.2,510.1z"/>
		</g>
		<g>
			<path class="st0" d="M452.8,224.3c-18.3,0-33.2-14.8-33.2-33.2s14.8-33.2,33.2-33.2c5.7,0,11,1.4,15.7,3.9
				c-8.7-11.3-22.4-18.5-37.8-18.5c-26.4,0-47.8,21.4-47.8,47.8s21.4,47.8,47.8,47.8c15.4,0,29-7.3,37.8-18.5
				C463.8,222.9,458.4,224.3,452.8,224.3z"/>
		</g>
		<g>
			<path class="st1" d="M348.3,164.6c-1.3,0-2.3-1-2.3-2.3v-20.1c0-1.3,1-2.3,2.3-2.3c1.3,0,2.3,1,2.3,2.3v20.1
				C350.5,163.6,349.5,164.6,348.3,164.6z"/>
		</g>
		<g>
			<path class="st1" d="M358.3,154.6h-20.1c-1.3,0-2.3-1-2.3-2.3c0-1.3,1-2.3,2.3-2.3h20.1c1.3,0,2.3,1,2.3,2.3
				C360.6,153.6,359.6,154.6,358.3,154.6z"/>
		</g>
		<g>
			<path class="st1" d="M365.1,261.4c-1.3,0-2.3-1-2.3-2.3v-20.1c0-1.3,1-2.3,2.3-2.3s2.3,1,2.3,2.3v20.1
				C367.4,260.3,366.4,261.4,365.1,261.4z"/>
		</g>
		<g>
			<path class="st1" d="M375.2,251.3h-20.1c-1.3,0-2.3-1-2.3-2.3s1-2.3,2.3-2.3h20.1c1.3,0,2.3,1,2.3,2.3S376.5,251.3,375.2,251.3z"
				/>
		</g>
		<g>
			<path class="st1" d="M178.4,535.1c-1.3,0-2.3-1-2.3-2.3v-20.1c0-1.3,1-2.3,2.3-2.3s2.3,1,2.3,2.3v20.1
				C180.7,534.1,179.7,535.1,178.4,535.1z"/>
		</g>
		<g>
			<path class="st1" d="M188.5,525.1h-20.1c-1.3,0-2.3-1-2.3-2.3c0-1.3,1-2.3,2.3-2.3h20.1c1.3,0,2.3,1,2.3,2.3
				C190.8,524,189.7,525.1,188.5,525.1z"/>
		</g>
		<g>
			<path class="st1" d="M143.7,604.6c-1.3,0-2.3-1-2.3-2.3v-20.1c0-1.3,1-2.3,2.3-2.3s2.3,1,2.3,2.3v20.1
				C146,603.6,144.9,604.6,143.7,604.6z"/>
		</g>
		<g>
			<path class="st1" d="M153.7,594.5h-20.1c-1.3,0-2.3-1-2.3-2.3s1-2.3,2.3-2.3h20.1c1.3,0,2.3,1,2.3,2.3S155,594.5,153.7,594.5z"/>
		</g>
		<g>
			<path class="st1" d="M133.6,832c-1.3,0-2.3-1-2.3-2.3v-20.1c0-1.3,1-2.3,2.3-2.3s2.3,1,2.3,2.3v20.1
				C135.9,831,134.9,832,133.6,832z"/>
		</g>
		<g>
			<path class="st1" d="M143.7,821.9h-20.1c-1.3,0-2.3-1-2.3-2.3s1-2.3,2.3-2.3h20.1c1.3,0,2.3,1,2.3,2.3S144.9,821.9,143.7,821.9z"
				/>
		</g>
		<g>
			<path class="st1" d="M470.5,276.2c-1.3,0-2.3-1-2.3-2.3v-20.1c0-1.3,1-2.3,2.3-2.3s2.3,1,2.3,2.3v20.1
				C472.8,275.1,471.8,276.2,470.5,276.2z"/>
		</g>
		<g>
			<path class="st1" d="M480.6,266.1h-20.1c-1.3,0-2.3-1-2.3-2.3c0-1.3,1-2.3,2.3-2.3h20.1c1.3,0,2.3,1,2.3,2.3
				C482.9,265.1,481.9,266.1,480.6,266.1z"/>
		</g>
		<g>
			<path class="st1" d="M776.1,290.8c-1.3,0-2.3-1-2.3-2.3v-20.1c0-1.3,1-2.3,2.3-2.3c1.3,0,2.3,1,2.3,2.3v20.1
				C778.4,289.7,777.3,290.8,776.1,290.8z"/>
		</g>
		<g>
			<path class="st1" d="M786.2,280.7H766c-1.3,0-2.3-1-2.3-2.3s1-2.3,2.3-2.3h20.1c1.3,0,2.3,1,2.3,2.3S787.4,280.7,786.2,280.7z"/>
		</g>
		<g>
			<path class="st1" d="M803.3,349.8c-1.3,0-2.3-1-2.3-2.3v-20.1c0-1.3,1-2.3,2.3-2.3c1.3,0,2.3,1,2.3,2.3v20.1
				C805.6,348.8,804.6,349.8,803.3,349.8z"/>
		</g>
		<g>
			<path class="st1" d="M813.4,339.7h-20.1c-1.3,0-2.3-1-2.3-2.3c0-1.3,1-2.3,2.3-2.3h20.1c1.3,0,2.3,1,2.3,2.3
				C815.7,338.7,814.6,339.7,813.4,339.7z"/>
		</g>
		<g>
			<path class="st1" d="M1095.1,499.8c-1.3,0-2.3-1-2.3-2.3v-20.1c0-1.3,1-2.3,2.3-2.3c1.3,0,2.3,1,2.3,2.3v20.1
				C1097.3,498.8,1096.3,499.8,1095.1,499.8z"/>
		</g>
		<g>
			<path class="st1" d="M1105.1,489.7H1085c-1.3,0-2.3-1-2.3-2.3c0-1.3,1-2.3,2.3-2.3h20.1c1.3,0,2.3,1,2.3,2.3
				C1107.4,488.7,1106.4,489.7,1105.1,489.7z"/>
		</g>
		<g>
			<path class="st1" d="M1126.6,572.2c-1.3,0-2.3-1-2.3-2.3v-20.1c0-1.3,1-2.3,2.3-2.3c1.3,0,2.3,1,2.3,2.3V570
				C1128.9,571.2,1127.9,572.2,1126.6,572.2z"/>
		</g>
		<g>
			<path class="st1" d="M1136.7,562.2h-20.1c-1.3,0-2.3-1-2.3-2.3s1-2.3,2.3-2.3h20.1c1.3,0,2.3,1,2.3,2.3S1138,562.2,1136.7,562.2z
				"/>
		</g>
		<g>
			<path class="st1" d="M1163,799.6c-1.3,0-2.3-1-2.3-2.3v-20.1c0-1.3,1-2.3,2.3-2.3c1.3,0,2.3,1,2.3,2.3v20.1
				C1165.2,798.6,1164.2,799.6,1163,799.6z"/>
		</g>
		<g>
			<path class="st1" d="M1173,789.5h-20.1c-1.3,0-2.3-1-2.3-2.3s1-2.3,2.3-2.3h20.1c1.3,0,2.3,1,2.3,2.3S1174.3,789.5,1173,789.5z"
				/>
		</g>
		<g>
			<path class="st1" d="M316.8,245.8c-0.4,0-0.7-0.1-1.1-0.3l-11.4-6l-11.4,6c-0.8,0.4-1.7,0.3-2.4-0.2c-0.7-0.5-1.1-1.4-0.9-2.2
				l2.2-12.7l-9.2-9c-0.6-0.6-0.8-1.5-0.6-2.3c0.3-0.8,1-1.4,1.8-1.5l12.8-1.9l5.7-11.6c0.4-0.8,1.2-1.3,2-1.3s1.7,0.5,2,1.3
				l5.7,11.6l12.8,1.9c0.9,0.1,1.6,0.7,1.8,1.5c0.3,0.8,0,1.7-0.6,2.3l-9.2,9l2.2,12.7c0.1,0.9-0.2,1.7-0.9,2.2
				C317.8,245.6,317.3,245.8,316.8,245.8z M289,221.4l6.8,6.6c0.5,0.5,0.8,1.3,0.7,2l-1.6,9.4l8.4-4.4c0.7-0.3,1.5-0.3,2.1,0
				l8.4,4.4l-1.6-9.4c-0.1-0.7,0.1-1.5,0.7-2l6.8-6.6l-9.4-1.4c-0.7-0.1-1.4-0.6-1.7-1.2l-4.2-8.5l-4.2,8.5c-0.3,0.7-1,1.1-1.7,1.2
				L289,221.4z"/>
		</g>
		<g>
			<g>
				<path class="st1" d="M552.7,366.3c-60.5,0-70.4-50.4-70.5-50.9c-0.2-1,0.3-1.9,1.1-2.4s1.9-0.4,2.6,0.3
					c23,20.6,44.9,12.1,62.5,5.2c6.6-2.6,12.8-5,18.3-5.6c20.8-2.1,28.3,15.8,28.4,16c0.1,0.2,0.1,0.3,0.1,0.5
					c0.1,0.6,1.9,13.7-7.2,24.2C580.8,362,568.9,366.3,552.7,366.3z M488.6,321.3c4.8,13.1,20,40.5,64.1,40.5
					c14.8,0,25.5-3.7,31.9-11c7.1-8.2,6.4-18.6,6.2-20.4c-0.9-2-7.3-14.6-23.6-12.9c-4.9,0.5-10.8,2.8-17.1,5.3
					C533.6,329.1,511.6,337.8,488.6,321.3z"/>
			</g>
			<g>
				<path class="st1" d="M633.6,366.3c-16.2,0-28.1-4.3-35.3-12.6c-9.1-10.6-7.3-23.7-7.2-24.2c0-0.2,0.1-0.4,0.1-0.5
					c0.1-0.2,7.6-18.1,28.4-16c5.5,0.6,11.7,3,18.3,5.6c17.6,6.9,39.5,15.5,62.5-5.2c0.7-0.6,1.8-0.8,2.6-0.3
					c0.8,0.5,1.3,1.4,1.1,2.4C704,315.9,694.1,366.3,633.6,366.3z M595.5,330.3c-0.2,1.8-0.9,12.2,6.2,20.4c6.3,7.3,17,11,31.9,11
					c44.1,0,59.4-27.4,64.1-40.5c-23,16.5-45.1,7.9-61.5,1.4c-6.3-2.5-12.2-4.8-17.1-5.3C602.9,315.7,596.4,328.4,595.5,330.3z"/>
			</g>
		</g>
		<g>
			<path class="st1" d="M168.4,684.9c-0.2,0-0.4,0-0.7-0.1c-8.7-2.7-11.1-9.5-11.2-9.7c-0.4-1.1,0.2-2.3,1.2-2.8
				c22.4-9.8,31.2-31.7,34-40.5c-16.8,3.7-29.9-5.6-30.5-6c-0.6-0.4-1-1.1-0.9-1.9c0-0.7,0.4-1.4,1-1.8
				c30.3-20.8,35.5-44.6,36.3-52.2c-13.1,0.9-17.8-2.7-18.3-3.1c-0.6-0.5-0.9-1.2-0.8-1.9c0-0.7,0.4-1.4,1-1.8
				c40.8-26.3,45.5-65.4,45.6-65.8c0.1-1.2,1.3-2.2,2.5-2c1.2,0.1,2.1,1.3,2,2.5c-0.2,1.6-4.7,39.4-44.1,66.8
				c2.7,0.7,7.3,1.3,14.4,0.5c0.6-0.1,1.3,0.1,1.8,0.6c0.5,0.4,0.8,1,0.8,1.7c0,1.3,0,30.6-35.6,56.4c4.9,2.5,15.5,6.6,27.5,2.6
				c0.8-0.3,1.6-0.1,2.2,0.5c0.6,0.5,0.9,1.4,0.7,2.2c-0.3,1.4-7,32.5-35.4,46.4c1.1,1.6,3.3,3.8,7.2,5.1c1.2,0.4,1.9,1.6,1.5,2.8
				C170.2,684.3,169.3,684.9,168.4,684.9z"/>
		</g>
		<g>
			<circle class="st4" cx="129.6" cy="658.4" r="10.5"/>
		</g>
		<g>
			<path class="st1" d="M223.2,681.7c-7,0-12.8-5.7-12.8-12.8c0-7,5.7-12.8,12.8-12.8c7,0,12.8,5.7,12.8,12.8
				C235.9,676,230.2,681.7,223.2,681.7z M223.2,660.7c-4.5,0-8.2,3.7-8.2,8.2s3.7,8.2,8.2,8.2c4.5,0,8.2-3.7,8.2-8.2
				S227.7,660.7,223.2,660.7z"/>
		</g>
		<g>
			<path class="st1" d="M216.9,621.5c-4.4,0-8.1-3.6-8.1-8.1c0-4.4,3.6-8.1,8.1-8.1c4.4,0,8.1,3.6,8.1,8.1
				C224.9,617.9,221.3,621.5,216.9,621.5z M216.9,609.9c-1.9,0-3.5,1.6-3.5,3.5c0,1.9,1.6,3.5,3.5,3.5c1.9,0,3.5-1.6,3.5-3.5
				C220.4,611.5,218.8,609.9,216.9,609.9z"/>
		</g>
		<g>
			<path class="st1" d="M211.1,426.8c-1.3,0-2.3-1-2.3-2.3v-43.4c0-1.3,1-2.3,2.3-2.3c1.3,0,2.3,1,2.3,2.3v43.4
				C213.3,425.7,212.3,426.8,211.1,426.8z"/>
		</g>
		<g>
			<path class="st1" d="M232.8,405h-43.4c-1.3,0-2.3-1-2.3-2.3c0-1.3,1-2.3,2.3-2.3h43.4c1.3,0,2.3,1,2.3,2.3
				C235.1,404,234,405,232.8,405z"/>
		</g>
		<g>
			<path class="st1" d="M226.4,420.4c-0.6,0-1.2-0.2-1.6-0.7L194.1,389c-0.9-0.9-0.9-2.3,0-3.2c0.9-0.9,2.3-0.9,3.2,0l30.7,30.7
				c0.9,0.9,0.9,2.3,0,3.2C227.6,420.2,227,420.4,226.4,420.4z"/>
		</g>
		<g>
			<path class="st1" d="M195.7,420.4c-0.6,0-1.2-0.2-1.6-0.7c-0.9-0.9-0.9-2.3,0-3.2l30.7-30.7c0.9-0.9,2.3-0.9,3.2,0
				c0.9,0.9,0.9,2.3,0,3.2l-30.7,30.7C196.9,420.2,196.3,420.4,195.7,420.4z"/>
		</g>
		<g>
			<path class="st1" d="M847.4,180.7c-1.3,0-2.3-1-2.3-2.3V135c0-1.3,1-2.3,2.3-2.3s2.3,1,2.3,2.3v43.4
				C849.7,179.7,848.6,180.7,847.4,180.7z"/>
		</g>
		<g>
			<path class="st1" d="M869.1,159h-43.4c-1.3,0-2.3-1-2.3-2.3s1-2.3,2.3-2.3h43.4c1.3,0,2.3,1,2.3,2.3S870.4,159,869.1,159z"/>
		</g>
		<g>
			<path class="st1" d="M862.7,174.3c-0.6,0-1.2-0.2-1.6-0.7l-30.7-30.7c-0.9-0.9-0.9-2.3,0-3.2s2.3-0.9,3.2,0l30.7,30.7
				c0.9,0.9,0.9,2.3,0,3.2C863.9,174.1,863.3,174.3,862.7,174.3z"/>
		</g>
		<g>
			<path class="st1" d="M832,174.3c-0.6,0-1.2-0.2-1.6-0.7c-0.9-0.9-0.9-2.3,0-3.2l30.7-30.7c0.9-0.9,2.3-0.9,3.2,0s0.9,2.3,0,3.2
				l-30.7,30.7C833.2,174.1,832.6,174.3,832,174.3z"/>
		</g>
		<g>
			<path class="st1" d="M990.4,396.7c-1.3,0-2.3-1-2.3-2.3V351c0-1.3,1-2.3,2.3-2.3c1.3,0,2.3,1,2.3,2.3v43.4
				C992.7,395.7,991.7,396.7,990.4,396.7z"/>
		</g>
		<g>
			<path class="st1" d="M1012.2,375h-43.4c-1.3,0-2.3-1-2.3-2.3c0-1.3,1-2.3,2.3-2.3h43.4c1.3,0,2.3,1,2.3,2.3
				C1014.4,374,1013.4,375,1012.2,375z"/>
		</g>
		<g>
			<path class="st1" d="M1005.8,390.4c-0.6,0-1.2-0.2-1.6-0.7L973.5,359c-0.9-0.9-0.9-2.3,0-3.2c0.9-0.9,2.3-0.9,3.2,0l30.7,30.7
				c0.9,0.9,0.9,2.3,0,3.2C1007,390.2,1006.4,390.4,1005.8,390.4z"/>
		</g>
		<g>
			<path class="st1" d="M975.1,390.4c-0.6,0-1.2-0.2-1.6-0.7c-0.9-0.9-0.9-2.3,0-3.2l30.7-30.7c0.9-0.9,2.3-0.9,3.2,0
				c0.9,0.9,0.9,2.3,0,3.2l-30.7,30.7C976.3,390.2,975.7,390.4,975.1,390.4z"/>
		</g>
		<g>
			<path class="st1" d="M974.3,264.5c-6.3,0-11.4-5.1-11.4-11.4c0-6.3,5.1-11.4,11.4-11.4c6.3,0,11.4,5.1,11.4,11.4
				C985.6,259.4,980.5,264.5,974.3,264.5z M974.3,246.4c-3.8,0-6.8,3.1-6.8,6.8c0,3.8,3.1,6.8,6.8,6.8s6.8-3.1,6.8-6.8
				C981.1,249.4,978,246.4,974.3,246.4z"/>
		</g>
		<g>
			<path class="st1" d="M772.5,146.3c-6.3,0-11.4-5.1-11.4-11.4c0-6.3,5.1-11.4,11.4-11.4c6.3,0,11.4,5.1,11.4,11.4
				C783.9,141.2,778.8,146.3,772.5,146.3z M772.5,128.2c-3.8,0-6.8,3.1-6.8,6.8c0,3.8,3.1,6.8,6.8,6.8c3.8,0,6.8-3.1,6.8-6.8
				C779.3,131.2,776.3,128.2,772.5,128.2z"/>
		</g>
		<g>
			
				<ellipse transform="matrix(0.9773 -0.2119 0.2119 0.9773 -42.1508 219.6073)" class="st4" cx="1003.5" cy="306.5" rx="11.8" ry="11.8"/>
		</g>
		<g>
			<path class="st1" d="M1027.4,426.8c-5.7,0-10.4-4.6-10.4-10.4c0-5.7,4.6-10.4,10.4-10.4c5.7,0,10.4,4.6,10.4,10.4
				C1037.7,422.1,1033.1,426.8,1027.4,426.8z M1027.4,410.6c-3.2,0-5.8,2.6-5.8,5.8c0,3.2,2.6,5.8,5.8,5.8c3.2,0,5.8-2.6,5.8-5.8
				C1033.2,413.2,1030.6,410.6,1027.4,410.6z"/>
		</g>
		<g>
			<path class="st1" d="M1144.8,614.6c-5.7,0-10.4-4.6-10.4-10.4c0-5.7,4.6-10.4,10.4-10.4c5.7,0,10.4,4.6,10.4,10.4
				C1155.2,609.9,1150.5,614.6,1144.8,614.6z M1144.8,598.4c-3.2,0-5.8,2.6-5.8,5.8c0,3.2,2.6,5.8,5.8,5.8c3.2,0,5.8-2.6,5.8-5.8
				C1150.6,601,1148,598.4,1144.8,598.4z"/>
		</g>
		<g>
			<path class="st1" d="M1122.4,796.7c-5.2,0-9.5-4.2-9.5-9.5c0-5.2,4.2-9.5,9.5-9.5c5.2,0,9.5,4.2,9.5,9.5
				C1131.8,792.5,1127.6,796.7,1122.4,796.7z M1122.4,782.4c-2.7,0-4.9,2.2-4.9,4.9c0,2.7,2.2,4.9,4.9,4.9s4.9-2.2,4.9-4.9
				C1127.3,784.6,1125.1,782.4,1122.4,782.4z"/>
		</g>
		<g>
			<path class="st1" d="M991.6,472.1c-10.4,0-18.8-8.4-18.8-18.8c0-10.4,8.4-18.8,18.8-18.8c10.4,0,18.8,8.4,18.8,18.8
				C1010.5,463.7,1002,472.1,991.6,472.1z M991.6,439c-7.9,0-14.3,6.4-14.3,14.3c0,7.9,6.4,14.3,14.3,14.3s14.3-6.4,14.3-14.3
				C1005.9,445.4,999.5,439,991.6,439z"/>
		</g>
		<g>
			<path class="st3" d="M593.1,205.9c-54.9,0-99.5,21.9-99.5,48.9c0,13.2,10.6,25.1,27.8,33.9v-44.2l0,0c47-12.4,96.3-12.4,143.3,0
				l0,0v44.2c17.2-8.8,27.8-20.7,27.8-33.9C692.6,227.8,648.1,205.9,593.1,205.9z"/>
			<path class="st1" d="M664.8,290.9c-0.4,0-0.8-0.1-1.2-0.3c-0.7-0.4-1.1-1.1-1.1-1.9v-42.5c-45.4-11.7-93.3-11.7-138.8,0v42.5
				c0,0.8-0.4,1.5-1.1,1.9c-0.7,0.4-1.5,0.4-2.2,0.1c-18.7-9.6-29.1-22.3-29.1-35.9c0-28.2,45.6-51.1,101.8-51.1
				s101.8,22.9,101.8,51.1c0,13.6-10.3,26.3-29.1,35.9C665.5,290.8,665.1,290.9,664.8,290.9z M593.1,232.8c24.3,0,48.6,3.1,72.2,9.4
				c1,0.3,1.7,1.2,1.7,2.2v40.4c15.1-8.5,23.3-19.1,23.3-30.1c0-25.7-43.6-46.6-97.2-46.6s-97.2,20.9-97.2,46.6
				c0,11,8.2,21.6,23.3,30.1v-40.4c0-1,0.7-1.9,1.7-2.2C544.5,235.9,568.8,232.8,593.1,232.8z"/>
		</g>
		<g>
			<circle class="st3" cx="809" cy="205.3" r="13.3"/>
			<path class="st1" d="M809,220.9c-8.6,0-15.6-7-15.6-15.6s7-15.6,15.6-15.6s15.6,7,15.6,15.6S817.6,220.9,809,220.9z M809,194.2
				c-6.1,0-11,5-11,11.1c0,6.1,5,11.1,11,11.1c6.1,0,11.1-5,11.1-11.1C820,199.2,815.1,194.2,809,194.2z"/>
		</g>
		<g>
			<path class="st1" d="M664.8,330.6c-1.3,0-2.3-1-2.3-2.3v-39.8c0-1.3,1-2.3,2.3-2.3c1.3,0,2.3,1,2.3,2.3v39.8
				C667,329.6,666,330.6,664.8,330.6z"/>
		</g>
		<g>
			<path class="st1" d="M521.5,330.6c-1.3,0-2.3-1-2.3-2.3v-39.8c0-1.3,1-2.3,2.3-2.3c1.3,0,2.3,1,2.3,2.3v39.8
				C523.7,329.6,522.7,330.6,521.5,330.6z"/>
		</g>
		<g>
			<path class="st1" d="M574,284.8h-27.4c-1.3,0-2.3-1-2.3-2.3c0-1.3,1-2.3,2.3-2.3H574c1.3,0,2.3,1,2.3,2.3
				C576.2,283.8,575.2,284.8,574,284.8z"/>
		</g>
		<g>
			<path class="st1" d="M637.5,284.8h-27.4c-1.3,0-2.3-1-2.3-2.3c0-1.3,1-2.3,2.3-2.3h27.4c1.3,0,2.3,1,2.3,2.3
				C639.8,283.8,638.8,284.8,637.5,284.8z"/>
		</g>
		<g>
			<path class="st1" d="M506.8,156.2c-0.4,0-0.8-0.1-1.2-0.3c-1.1-0.7-1.4-2-0.8-3.1c0,0,0.4-0.6,1.2-1.8c0.7-1,2.1-1.3,3.2-0.6
				c1,0.7,1.3,2.1,0.6,3.2c-0.7,1-1,1.6-1.1,1.6C508.3,155.8,507.6,156.2,506.8,156.2z M513.9,146.3c-0.5,0-1-0.2-1.4-0.5
				c-1-0.8-1.1-2.2-0.4-3.2c0.4-0.5,0.8-1,1.3-1.6c0.8-1,2.2-1.1,3.2-0.3c1,0.8,1.1,2.2,0.3,3.2c-0.4,0.5-0.8,1-1.2,1.5
				C515.3,146,514.6,146.3,513.9,146.3z M521.8,137.1c-0.5,0-1.1-0.2-1.5-0.6c-0.9-0.8-1-2.3-0.1-3.2c0.5-0.5,0.9-1,1.4-1.5
				c0.9-0.9,2.3-1,3.2-0.1c0.9,0.9,1,2.3,0.1,3.2c-0.5,0.5-0.9,1-1.4,1.5C523,136.9,522.4,137.1,521.8,137.1z M530.3,128.5
				c-0.6,0-1.2-0.2-1.6-0.7c-0.9-0.9-0.8-2.3,0.1-3.2l1.5-1.4c0.9-0.9,2.4-0.8,3.2,0.1c0.9,0.9,0.8,2.4-0.1,3.2l-1.4,1.4
				C531.4,128.3,530.8,128.5,530.3,128.5z M539.3,120.4c-0.6,0-1.3-0.3-1.7-0.8c-0.8-1-0.7-2.4,0.3-3.2c0.5-0.4,1-0.9,1.6-1.3
				c1-0.8,2.4-0.7,3.2,0.3c0.8,1,0.7,2.4-0.3,3.2c-0.5,0.4-1,0.9-1.5,1.3C540.3,120.2,539.8,120.4,539.3,120.4z M548.8,112.9
				c-0.7,0-1.4-0.3-1.8-0.9c-0.7-1-0.5-2.4,0.5-3.2c0.5-0.4,1.1-0.8,1.7-1.2c1-0.7,2.4-0.5,3.2,0.5c0.7,1,0.5,2.4-0.5,3.2
				c-0.5,0.4-1.1,0.8-1.6,1.2C549.7,112.8,549.3,112.9,548.8,112.9z M558.8,106.1c-0.7,0-1.5-0.4-1.9-1c-0.7-1.1-0.4-2.5,0.7-3.1
				c0.6-0.4,1.1-0.7,1.7-1.1c1.1-0.7,2.5-0.3,3.1,0.7c0.7,1.1,0.3,2.5-0.7,3.1c-0.6,0.4-1.1,0.7-1.7,1.1
				C559.6,105.9,559.2,106.1,558.8,106.1z M569.2,99.9c-0.8,0-1.6-0.4-2-1.2c-0.6-1.1-0.2-2.5,0.9-3.1c0.6-0.3,1.2-0.6,1.8-1
				c1.1-0.6,2.5-0.2,3.1,0.9c0.6,1.1,0.2,2.5-0.9,3.1c-0.6,0.3-1.2,0.6-1.8,1C569.9,99.8,569.5,99.9,569.2,99.9z M579.9,94.4
				c-0.9,0-1.7-0.5-2.1-1.3c-0.5-1.1,0-2.5,1.1-3c0.6-0.3,1.2-0.6,1.9-0.9c1.1-0.5,2.5,0,3,1.1c0.5,1.1,0,2.5-1.1,3
				c-0.6,0.3-1.2,0.6-1.8,0.8C580.6,94.3,580.3,94.4,579.9,94.4z M591.1,89.7c-0.9,0-1.8-0.6-2.1-1.5c-0.5-1.2,0.1-2.5,1.3-2.9
				c0.6-0.2,1.3-0.5,1.9-0.7c1.2-0.4,2.5,0.2,2.9,1.3c0.4,1.2-0.2,2.5-1.3,2.9c-0.6,0.2-1.2,0.5-1.9,0.7
				C591.6,89.6,591.3,89.7,591.1,89.7z"/>
		</g>
		<g>
			<path class="st1" d="M801,398.3c-0.7,0-1.4-0.4-1.9-1c-22.2-32.9-55.3-44-55.7-44.1c-1.2-0.4-1.8-1.7-1.5-2.9
				c0.4-1.2,1.7-1.8,2.9-1.5c1.4,0.5,35,11.7,58,45.9c0.7,1,0.4,2.5-0.6,3.2C801.8,398.2,801.4,398.3,801,398.3z"/>
		</g>
		<g>
			<path class="st1" d="M890.2,295.2c-17.5,0-31.7-14.2-31.7-31.7c0-17.5,14.2-31.7,31.7-31.7c17.5,0,31.7,14.2,31.7,31.7
				C922,281,907.7,295.2,890.2,295.2z M890.2,236.3c-15,0-27.2,12.2-27.2,27.2c0,15,12.2,27.2,27.2,27.2s27.2-12.2,27.2-27.2
				C917.4,248.5,905.2,236.3,890.2,236.3z"/>
		</g>
		<g>
			<path class="st1" d="M906.7,375.1c-0.2,0-0.5,0-0.7-0.1c-10.2-3.2-21.4-3.2-31.6,0c-0.5,0.2-1.1,0.1-1.6-0.1
				c-16.1-7-26.5-22.8-26.5-40.3c0-24.2,19.7-43.9,43.9-43.9c24.2,0,43.9,19.7,43.9,43.9c0,17.5-10.4,33.4-26.5,40.3
				C907.3,375,907,375.1,906.7,375.1z M890.2,368.1c5.6,0,11.1,0.8,16.3,2.3c14-6.4,23-20.4,23-35.8c0-21.7-17.7-39.4-39.4-39.4
				c-21.7,0-39.4,17.7-39.4,39.4c0,15.5,9,29.4,23,35.8C879.2,368.9,884.7,368.1,890.2,368.1z"/>
		</g>
		<g>
			<path class="st1" d="M845.4,327.1c-8.4,0-15.3-6.9-15.3-15.3c0-8.4,6.9-15.3,15.3-15.3c6.8,0,12.9,4.6,14.7,11.2
				c0.2,0.7,0,1.5-0.4,2c-3.6,4.4-6.1,9.4-7.5,14.8c-0.2,0.7-0.7,1.3-1.4,1.5C849,326.7,847.2,327.1,845.4,327.1z M845.4,301
				c-5.9,0-10.8,4.8-10.8,10.8c0,5.9,4.8,10.8,10.8,10.8c0.9,0,1.8-0.1,2.7-0.4c1.5-5.2,4-10,7.3-14.3
				C853.8,303.8,849.8,301,845.4,301z"/>
		</g>
		<g>
			<path class="st1" d="M936,327.1c-2.3,0-4.5-0.5-6.6-1.5c-0.6-0.3-1-0.8-1.2-1.5c-1.4-4.9-3.6-9.5-6.8-13.6
				c-0.4-0.5-0.6-1.2-0.4-1.8c1.4-7.1,7.7-12.2,15-12.2c8.4,0,15.3,6.9,15.3,15.3C951.3,320.2,944.4,327.1,936,327.1z M932.3,321.9
				c1.2,0.4,2.4,0.7,3.7,0.7c5.9,0,10.8-4.8,10.8-10.8c0-5.9-4.8-10.8-10.8-10.8c-4.8,0-8.9,3.2-10.3,7.6
				C928.6,312.7,930.8,317.1,932.3,321.9z"/>
		</g>
		<g>
			<path class="st0" d="M889.7,234c-0.2-1.2-0.5-2.4-1.1-3.4c-4-7.1-15.7-8-26.3-2.1c-10.6,5.9-15.9,16.4-12,23.5
				c2,3.6,6.1,5.6,11,5.9C863.9,244.5,875.6,234.3,889.7,234z"/>
			<path class="st1" d="M861.3,260.2c0,0-0.1,0-0.1,0c-5.9-0.4-10.5-2.9-12.8-7.1c-2.3-4.1-2.1-9.2,0.5-14.3
				c2.5-4.8,6.8-9.2,12.3-12.3c5.5-3.1,11.5-4.5,16.9-4.1c5.7,0.5,10.2,3,12.5,7c0.7,1.3,1.2,2.7,1.4,4.2c0.1,0.6-0.1,1.3-0.5,1.8
				c-0.4,0.5-1,0.8-1.7,0.8c-12.8,0.2-23.8,9.5-26.2,22C863.3,259.4,862.4,260.2,861.3,260.2z M876.2,226.9c-4.1,0-8.6,1.3-12.8,3.6
				c-4.7,2.6-8.4,6.3-10.5,10.4c-1.9,3.7-2.1,7.3-0.6,10c1.3,2.4,3.8,3.9,7.2,4.5c3.3-12.6,14.2-22,27.2-23.5c0-0.1-0.1-0.2-0.1-0.3
				c-1.5-2.7-4.7-4.4-8.9-4.7C877.2,226.9,876.7,226.9,876.2,226.9z"/>
		</g>
		<g>
			<path class="st1" d="M904.3,238.8c-0.8,0-1.6-0.4-2-1.2c-0.6-1.1-0.1-2.5,1-3.1l13.6-7.1c1.1-0.6,2.5-0.1,3.1,1
				c0.6,1.1,0.1,2.5-1,3.1l-13.6,7.1C905,238.7,904.6,238.8,904.3,238.8z"/>
		</g>
		<g>
			<path class="st1" d="M842.9,270.6c-0.8,0-1.6-0.4-2-1.2c-0.6-1.1-0.1-2.5,1-3.1l17.6-9.1c1.1-0.6,2.5-0.1,3.1,1
				c0.6,1.1,0.1,2.5-1,3.1l-17.6,9.1C843.6,270.5,843.2,270.6,842.9,270.6z"/>
		</g>
		<g>
			<path class="st1" d="M941,268.6h-34.2c-1.3,0-2.3-1-2.3-2.3c0-1.3,1-2.3,2.3-2.3H941c1.3,0,2.3,1,2.3,2.3
				C943.3,267.5,942.3,268.6,941,268.6z"/>
		</g>
		<g>
			<path class="st1" d="M889.7,258.5h-8.4c-1.3,0-2.3-1-2.3-2.3c0-1.3,1-2.3,2.3-2.3h8.4c1.3,0,2.3,1,2.3,2.3
				C892,257.5,891,258.5,889.7,258.5z"/>
		</g>
		<g>
			<path class="st1" d="M908.4,258.5h-8.4c-1.3,0-2.3-1-2.3-2.3c0-1.3,1-2.3,2.3-2.3h8.4c1.3,0,2.3,1,2.3,2.3
				C910.7,257.5,909.7,258.5,908.4,258.5z"/>
		</g>
		<g>
			<path class="st1" d="M867.9,510.1c-0.7,0-1.3-0.3-1.8-0.9l-13.5-17.1h-64.6c-1.3,0-2.3-1-2.3-2.3c0-1.3,1-2.3,2.3-2.3h65.7
				c0.7,0,1.4,0.3,1.8,0.9l12,15.2l7.8-14.9c0.4-0.7,1.2-1.2,2-1.2h120.2c1.3,0,2.3,1,2.3,2.3c0,1.3-1,2.3-2.3,2.3H878.7l-8.8,16.7
				c-0.4,0.7-1,1.1-1.8,1.2C868,510,867.9,510.1,867.9,510.1z"/>
		</g>
		<g>
			<path class="st1" d="M256.2,739.8c-1.3,0-2.3-1-2.3-2.3V475c0-1.3,1-2.3,2.3-2.3h162.2c0.8,0,1.5,0.4,1.9,1l13.1,19.9l12.8-15.9
				c0.8-1,2.2-1.1,3.2-0.3c1,0.8,1.1,2.2,0.3,3.2L435,498.9c-0.5,0.6-1.1,0.9-1.9,0.8c-0.7,0-1.4-0.4-1.8-1l-14.1-21.5H258.5v260.2
				C258.5,738.8,257.4,739.8,256.2,739.8z"/>
		</g>
		<g>
			<path class="st5" d="M256.2,475H383c20.3-11.5,28.4-24.3,28.4-24.3c-50.5-18.2-72.6-69.9-72.6-69.9c13,3.6,29.6-2,29.6-2
				c-28.4-15-43.6-52.1-43.6-52.1c16,3.2,20.3,0,20.3,0c-30-37.9-40.7-89.6-40.7-89.6s-10.7,51.7-40.7,89.6c0,0,4.3,3.2,20.3,0
				c0,0-15.2,37.1-43.6,52.1c0,0,16.6,5.5,29.6,2c0,0-22.1,51.7-72.6,69.9c0,0,15.7,24.9,58.8,36.6V475z"/>
		</g>
		<g>
			<path class="st2" d="M418.4,475l14.8,22.5l14.8-18.4c0,0,95.2,7,124.5,6.6c-7.1-22-22.8-38.8-31.8-51c-6.3-8.6-15-7.9-15-7.9
				c4.7-16.6-13-26.4-19.3-47.4c-4.6-15.3,0.3-21.5,3.2-23.8H507c-69.1,0-125.9,52.2-133.3,119.3H418.4z"/>
			<path class="st1" d="M433.2,499.8c0,0-0.1,0-0.1,0c-0.7,0-1.4-0.4-1.8-1l-14.1-21.5h-43.6c-0.6,0-1.3-0.3-1.7-0.8
				c-0.4-0.5-0.6-1.1-0.6-1.8c7.6-69.2,65.9-121.3,135.6-121.3h2.6c1,0,1.8,0.6,2.2,1.6c0.3,0.9,0,1.9-0.8,2.5
				c-2.2,1.6-6.8,7-2.4,21.3c2.5,8.3,7,15,11,20.8c5.4,8,10.5,15.6,9,25.1c3.5,0.5,9.4,2.3,14,8.7c1.8,2.4,3.8,5,6,7.8
				c9.1,11.5,20.4,25.9,26.2,43.9c0.2,0.7,0.1,1.4-0.3,2c-0.4,0.6-1.1,0.9-1.8,0.9c-27.2,0.3-112.4-5.7-123.5-6.5L435,498.9
				C434.6,499.5,433.9,499.8,433.2,499.8z M376.2,472.7h42.2c0.8,0,1.5,0.4,1.9,1l13.1,19.9l12.8-15.9c0.5-0.6,1.2-0.9,1.9-0.8
				c0.9,0.1,89.1,6.5,121.1,6.6c-5.8-15.9-16.1-28.9-24.4-39.5c-2.2-2.8-4.3-5.4-6.1-7.9c-5.4-7.4-12.7-7-13-7
				c-0.7,0-1.5-0.3-1.9-0.8c-0.5-0.6-0.6-1.3-0.4-2.1c2.5-8.7-2-15.5-7.8-24c-4.1-6.2-8.8-13.1-11.5-22.1c-3.4-11.2-2-18,0.4-22.1
				C439.1,359.2,384.6,407.9,376.2,472.7z"/>
		</g>
		<g>
			<path class="st2" d="M774.5,462c5.9,0,11.5,1.1,16.6,3c3.6-7.4,8.7-14,14.9-19.3c-18.2-52.1-67.5-89.5-125.7-89.9
				c9.9,67.2-30.2,97.2-30.2,97.2c-2.8-13.8-14.2-15-14.2-15c-1.2,10.3-11.8,31.6-33.9,39.9c-5.3,2-9.5,4.7-12.8,7.7
				c29.6,0,97.4,1.6,145.6,2.9C739.1,473.2,755.2,462,774.5,462z"/>
			<path class="st1" d="M734.6,490.7C734.6,490.7,734.6,490.7,734.6,490.7c-50.3-1.3-116.4-2.9-145.6-2.9c-0.9,0-1.8-0.6-2.1-1.5
				c-0.3-0.9-0.1-1.9,0.6-2.5c3.9-3.5,8.5-6.3,13.5-8.2c22-8.2,31.5-29.5,32.5-38c0.1-1.2,1.2-2.1,2.5-2c4.1,0.4,11.8,3.8,15.2,13.2
				c8.6-8.1,34.9-37.8,26.8-92.8c-0.1-0.7,0.1-1.3,0.5-1.8c0.4-0.5,1.1-0.8,1.7-0.8c0,0,0,0,0,0c57.5,0.4,108.9,37.2,127.8,91.5
				c0.3,0.9,0,1.9-0.7,2.5c-6,5.2-10.9,11.4-14.3,18.6c-0.5,1.1-1.7,1.5-2.8,1.1c-5-1.9-10.3-2.8-15.8-2.8
				c-17.9,0-33.4,10.2-37.7,24.8C736.5,490,735.7,490.7,734.6,490.7z M595.8,483.3c31.4,0.2,90.7,1.6,137.2,2.8
				c5.5-15.6,22.2-26.4,41.5-26.4c5.3,0,10.5,0.8,15.4,2.4c3.4-6.5,7.9-12.2,13.3-17.2c-18.4-50.9-66.4-85.5-120.4-86.9
				c8.6,66-31.1,96.4-31.5,96.7c-0.6,0.5-1.4,0.6-2.2,0.3c-0.7-0.3-1.3-0.9-1.4-1.7c-1.7-8.6-7.1-11.6-10.2-12.7
				c-2.4,10.7-12.7,30.9-35,39.2C600.2,480.8,597.9,481.9,595.8,483.3z"/>
		</g>
		<g>
			<path class="st1" d="M867.9,510.1c-0.7,0-1.3-0.3-1.8-0.9l-13.5-17.1h-64.6c0,0,0,0-0.1,0c0,0-22.7-0.6-53.3-1.4
				c-0.7,0-1.4-0.4-1.8-0.9c-0.4-0.6-0.5-1.3-0.3-2c4.8-16.5,22.1-28,42-28c5.3,0,10.5,0.8,15.4,2.4c10.6-20.2,32-33.2,55-33.2
				c22,0,42.3,11.6,53.4,30.4c5.1-1.8,10.5-2.7,16.1-2.7c21.6,0,39.8,13.8,43.3,32.9c0.1,0.7-0.1,1.3-0.5,1.9
				c-0.4,0.5-1.1,0.8-1.7,0.8h-76.8l-8.8,16.7c-0.4,0.7-1,1.1-1.8,1.2C868,510,867.9,510.1,867.9,510.1z M788,487.6h65.7
				c0.7,0,1.4,0.3,1.8,0.9l12,15.2l7.8-14.9c0.4-0.7,1.2-1.2,2-1.2h75.3c-4.3-15.5-19.9-26.5-38.2-26.5c-5.6,0-11.1,1-16.2,3.1
				c-1.1,0.4-2.3,0-2.8-1c-10.1-18.3-29.5-29.7-50.4-29.7c-22,0-42.3,12.7-51.9,32.5c-0.5,1.1-1.7,1.5-2.8,1.1
				c-5-1.9-10.3-2.8-15.8-2.8c-16.8,0-31.4,8.9-36.7,21.9C766.2,486.9,787,487.5,788,487.6z"/>
		</g>
		<g>
			<path class="st1" d="M932.3,464.7c-0.3,0-0.6-0.1-0.9-0.2c-5.3-2.3-11-3.4-17-3.4c-5.6,0-11.1,1-16.2,3.1c-1.1,0.4-2.3,0-2.8-1
				c-10.1-18.3-29.5-29.7-50.4-29.7c-3.2,0-6.5,0.3-9.7,0.8c-0.6,0.1-1.2-0.1-1.8-0.4c-0.5-0.4-0.8-0.9-0.9-1.6
				c-0.2-2.1-0.3-4.2-0.3-6.3c0-31.9,26-57.9,57.9-57.9c31.9,0,57.9,26,57.9,57.9c0,13.9-5,27.4-14.1,37.9
				C933.6,464.4,932.9,464.7,932.3,464.7z M914.5,456.6c6,0,11.7,1.1,17.2,3.1c7.7-9.5,12-21.4,12-33.7c0-29.4-23.9-53.4-53.4-53.4
				c-29.4,0-53.4,23.9-53.4,53.4c0,1.1,0,2.3,0.1,3.4c2.7-0.3,5.4-0.5,8-0.5c22,0,42.3,11.6,53.4,30.4
				C903.5,457.5,908.9,456.6,914.5,456.6z"/>
		</g>
		<g>
			<path class="st1" d="M997.5,744.5c-1.3,0-2.3-1-2.3-2.3V492.1H878.7l-8.8,16.7c-0.4,0.7-1,1.1-1.8,1.2c-0.8,0.1-1.5-0.2-2-0.9
				l-13.5-17.1h-64.6c-1.6,0-149.8-4.2-198.3-4.3c-1.3,0-2.3-1-2.3-2.3c0-1.3,1-2.3,2.3-2.3c0,0,0,0,0,0
				c48.5,0.1,196.9,4.3,198.4,4.3l65.7,0c0.7,0,1.4,0.3,1.8,0.9l12,15.2l7.8-14.9c0.4-0.7,1.2-1.2,2-1.2h120.2c1.3,0,2.3,1,2.3,2.3
				v252.4C999.8,743.5,998.8,744.5,997.5,744.5z"/>
		</g>
		<g>
			<path class="st1" d="M256.2,739.8c-1.3,0-2.3-1-2.3-2.3V475c0-1.3,1-2.3,2.3-2.3h162.2c0.8,0,1.5,0.4,1.9,1l13.1,19.9l12.8-15.9
				c0.5-0.6,1.2-0.9,1.9-0.8c1,0.1,95.5,7,124.3,6.6c0,0,0,0,0,0c1.2,0,2.3,1,2.3,2.2c0,1.3-1,2.3-2.2,2.3
				c-27.2,0.3-112.4-5.7-123.5-6.5L435,498.9c-0.5,0.6-1.1,0.9-1.9,0.8c-0.7,0-1.4-0.4-1.8-1l-14.1-21.5H258.5v260.2
				C258.5,738.8,257.4,739.8,256.2,739.8z"/>
		</g>
		<g>
			<path class="st2" d="M250.6,616.5L250.6,616.5c22.4,0,40.6-18.2,40.6-40.6l0,0c0-22.4-18.2-40.6-40.6-40.6h0
				c-11.3,0-20.4,9.1-20.4,20.4v40.3C230.1,607.4,239.3,616.5,250.6,616.5z"/>
			<path class="st1" d="M250.6,618.8c-12.5,0-22.7-10.2-22.7-22.7v-40.3c0-12.5,10.2-22.7,22.7-22.7c23.6,0,42.8,19.2,42.8,42.8
				C293.4,599.6,274.2,618.8,250.6,618.8z M250.6,537.7c-10,0-18.2,8.1-18.2,18.2v40.3c0,10,8.1,18.2,18.2,18.2
				c21.1,0,38.3-17.2,38.3-38.3C288.8,554.9,271.7,537.7,250.6,537.7z"/>
		</g>
		<g>
			<path class="st2" d="M1001.7,616.5L1001.7,616.5c-22.4,0-40.6-18.2-40.6-40.6l0,0c0-22.4,18.2-40.6,40.6-40.6l0,0
				c11.3,0,20.4,9.1,20.4,20.4v40.3C1022.1,607.4,1013,616.5,1001.7,616.5z"/>
			<path class="st1" d="M1001.7,618.8c-23.6,0-42.8-19.2-42.8-42.8c0-23.6,19.2-42.8,42.8-42.8c12.5,0,22.7,10.2,22.7,22.7v40.3
				C1024.4,608.6,1014.2,618.8,1001.7,618.8z M1001.7,537.7c-21.1,0-38.3,17.2-38.3,38.3c0,21.1,17.2,38.3,38.3,38.3
				c10,0,18.2-8.1,18.2-18.2v-40.3C1019.9,545.8,1011.7,537.7,1001.7,537.7z"/>
		</g>
		<g>
			<path class="st1" d="M787.9,514.6H664.8c-1.3,0-2.3-1-2.3-2.3c0-1.3,1-2.3,2.3-2.3h123.2c1.3,0,2.3,1,2.3,2.3
				C790.2,513.6,789.2,514.6,787.9,514.6z"/>
		</g>
		<g>
			<path class="st1" d="M358,510.1h-75.8c-1.3,0-2.3-1-2.3-2.3c0-1.3,1-2.3,2.3-2.3H358c1.3,0,2.3,1,2.3,2.3
				C360.3,509,359.3,510.1,358,510.1z"/>
		</g>
		<g>
			<path class="st1" d="M414.1,449.3c-0.3,0-0.6-0.1-0.9-0.2c-1.1-0.5-1.6-1.9-1.1-3c19.3-42.3,60.5-56.7,62.2-57.3
				c1.2-0.4,2.5,0.2,2.9,1.4c0.4,1.2-0.2,2.5-1.4,2.9c-0.4,0.1-41.1,14.4-59.6,54.9C415.8,448.8,415,449.3,414.1,449.3z"/>
		</g>
		<g>
			<circle class="st3" cx="280.5" cy="447" r="15.8"/>
			<path class="st1" d="M280.5,465c-9.9,0-18-8.1-18-18c0-9.9,8.1-18,18-18c9.9,0,18,8.1,18,18C298.6,456.9,290.5,465,280.5,465z
				 M280.5,433.5c-7.4,0-13.5,6.1-13.5,13.5c0,7.4,6.1,13.5,13.5,13.5c7.4,0,13.5-6.1,13.5-13.5C294,439.5,288,433.5,280.5,433.5z"
				/>
		</g>
		<g>
			<circle class="st6" cx="318.1" cy="381.5" r="9.5"/>
			<path class="st1" d="M318.1,393.2c-6.5,0-11.7-5.3-11.7-11.7c0-6.5,5.3-11.7,11.7-11.7c6.5,0,11.7,5.3,11.7,11.7
				C329.8,387.9,324.5,393.2,318.1,393.2z M318.1,374.3c-4,0-7.2,3.2-7.2,7.2s3.2,7.2,7.2,7.2c4,0,7.2-3.2,7.2-7.2
				S322,374.3,318.1,374.3z"/>
		</g>
		<g>
			<path class="st2" d="M296.3,335.9c8.9,0,16.1-7.2,16.1-16.1c0-8.9-7.2-16.1-16.1-16.1s-16.1,7.2-16.1,16.1c0,2.7,0.7,5.2,1.8,7.4
				c0.7-0.1,1.3-0.2,2-0.4c0,0-0.3,0.8-1,2.2C286,333.1,290.8,335.9,296.3,335.9z"/>
		</g>
		<g>
			<path class="st0" d="M355.3,408c-0.3,0-0.5,0-0.8,0c-13.7,0-24.9,11.1-24.9,24.9c0,13.7,11.1,24.9,24.9,24.9
				c13.7,0,24.9-11.1,24.9-24.9c0,0,0-0.1,0-0.1C369.5,424.8,361.5,416.1,355.3,408z"/>
		</g>
		<g>
			<path class="st1" d="M554.4,171.5c-0.5,0-1-0.2-1.4-0.5c-1-0.8-1.1-2.2-0.3-3.2c1.1-1.3,27-32,75.3-44.5c1.2-0.3,2.5,0.4,2.8,1.6
				c0.3,1.2-0.4,2.5-1.6,2.8c-46.8,12.1-72.6,42.7-72.9,43C555.7,171.3,555.1,171.5,554.4,171.5z"/>
		</g>
		<g>
			<path class="st5" d="M241.8,748.9c-8.6-7.4-20.9-21.3-14.4-36.2c0,0-39.3,6.5-46.7-19.2c0,0-19.8,27.5-53,18.9
				c0,0,12.7,22.8-4.1,45.3c0,0,17.2,8.9,13,24c0,0,35.5-13,40.6,16.9c0,0,7.2-5.3,16.3-8.6c13.8-5.1,25.4,11.1,16.1,22.6
				c-8.5,10.4-25.4,13.8-44,10.4c0,0,4.4,32.9-32,35.8c0,0,19.8,16.3,10.1,42.9c0,0,35.2,3.3,34.6,32.3c0,0,16-20.7,44.7-6.2
				c0,0,9.2-37.6,42.6-30.2c0,0-17.2-31.7,11-43.8c0,0-17.2-27.8,14.5-29c23.7-0.9,27.2,34.8,20.7,44.3c0,0,30.2-21.5,56,8.4
				c0,0,14.8-39.7,49.4-26.9c0,0-8.6-26.1,14.2-30.8c0,0-31.4-13.6-21-34.6c0,0-41.5-0.3-41.7-28.1c0,0-36.1,13.9-44.4-16.3
				c0,0-25.5,31.1-46.8,8.9c0,0-2.7,8.3-16.1,7.6C254.1,756.6,247.3,753.7,241.8,748.9z"/>
		</g>
		<g>
			
				<ellipse transform="matrix(0.7071 -0.7071 0.7071 0.7071 -470.5075 396.0025)" class="st0" cx="242.8" cy="766" rx="26.8" ry="26.8"/>
			<path class="st1" d="M242.8,795.1c-16.1,0-29.1-13.1-29.1-29.1c0-16.1,13.1-29.1,29.1-29.1c16.1,0,29.1,13.1,29.1,29.1
				C271.9,782,258.8,795.1,242.8,795.1z M242.8,741.4c-13.5,0-24.6,11-24.6,24.6s11,24.6,24.6,24.6c13.5,0,24.6-11,24.6-24.6
				S256.3,741.4,242.8,741.4z"/>
		</g>
		<g>
			<circle class="st3" cx="250.7" cy="819.6" r="26.8"/>
			<path class="st1" d="M250.7,848.8c-16.1,0-29.1-13.1-29.1-29.1c0-16.1,13.1-29.1,29.1-29.1c16.1,0,29.1,13.1,29.1,29.1
				C279.8,835.7,266.7,848.8,250.7,848.8z M250.7,795.1c-13.5,0-24.6,11-24.6,24.6s11,24.6,24.6,24.6c13.5,0,24.6-11,24.6-24.6
				S264.2,795.1,250.7,795.1z"/>
		</g>
		<g>
			<circle class="st0" cx="296.5" cy="790.8" r="26.8"/>
			<path class="st1" d="M296.5,819.9c-16.1,0-29.1-13.1-29.1-29.1c0-16.1,13.1-29.1,29.1-29.1c16.1,0,29.1,13.1,29.1,29.1
				C325.6,806.9,312.5,819.9,296.5,819.9z M296.5,766.3c-13.5,0-24.6,11-24.6,24.6c0,13.5,11,24.6,24.6,24.6s24.6-11,24.6-24.6
				C321,777.3,310,766.3,296.5,766.3z"/>
		</g>
		<g>
			<path class="st1" d="M200.8,762.1c-0.7,0-1.3-0.3-1.8-0.8c-0.1-0.2-14.8-17.7-45.1-26.8c-1.2-0.4-1.9-1.6-1.5-2.8
				c0.4-1.2,1.6-1.9,2.8-1.5c31.7,9.6,46.7,27.5,47.3,28.3c0.8,1,0.7,2.4-0.3,3.2C201.8,761.9,201.3,762.1,200.8,762.1z"/>
		</g>
		<g>
			<path class="st1" d="M179.8,896.2c-0.4,0-0.8-0.1-1.1-0.3c-1.1-0.6-1.5-2-0.8-3.1c19-32.9,40.8-50,41.7-50.7
				c1-0.8,2.4-0.6,3.2,0.4c0.8,1,0.6,2.4-0.4,3.2c-0.2,0.2-22.1,17.3-40.6,49.4C181.3,895.8,180.6,896.2,179.8,896.2z"/>
		</g>
		<g>
			<path class="st1" d="M388.2,841.5c-0.9,0-1.7-0.5-2.1-1.4c-11.5-27.5-39.7-34-51.4-35.5c-0.7-0.1-1-0.2-1.1-0.2
				c-1.2-0.4-1.8-1.7-1.4-2.9c0.4-1.1,1.5-1.8,2.7-1.5c0.1,0,0.3,0,0.5,0.1c12.4,1.6,42.6,8.6,55,38.3c0.5,1.2-0.1,2.5-1.2,3
				C388.8,841.4,388.5,841.5,388.2,841.5z"/>
		</g>
		<g>
			<rect x="601.4" y="753.3" class="st2" width="235.7" height="20.1"/>
			<path class="st1" d="M837.1,775.7H601.4c-1.3,0-2.3-1-2.3-2.3v-20.1c0-1.3,1-2.3,2.3-2.3h235.7c1.3,0,2.3,1,2.3,2.3v20.1
				C839.3,774.7,838.3,775.7,837.1,775.7z M603.7,771.2h231.1v-15.6H603.7V771.2z"/>
		</g>
		<g>
			<rect x="517.3" y="813.7" class="st3" width="151" height="25.5"/>
			<path class="st1" d="M668.3,841.5h-151c-1.3,0-2.3-1-2.3-2.3v-25.5c0-1.3,1-2.3,2.3-2.3h151c1.3,0,2.3,1,2.3,2.3v25.5
				C670.6,840.4,669.6,841.5,668.3,841.5z M519.6,836.9H666V816H519.6V836.9z"/>
		</g>
		<g>
			<rect x="517.3" y="839.2" class="st5" width="130.5" height="63"/>
			<path class="st1" d="M647.8,904.4H517.3c-1.3,0-2.3-1-2.3-2.3v-63c0-1.3,1-2.3,2.3-2.3h130.5c1.3,0,2.3,1,2.3,2.3v63
				C650.1,903.4,649,904.4,647.8,904.4z M519.6,899.9h125.9v-58.4H519.6V899.9z"/>
		</g>
		<g>
			<path class="st1" d="M517.3,816c-1.3,0-2.3-1-2.3-2.3v-9.5c0-1.3,1-2.3,2.3-2.3c1.3,0,2.3,1,2.3,2.3v9.5
				C519.6,815,518.6,816,517.3,816z"/>
		</g>
		<g>
			<circle class="st4" cx="457.7" cy="843.8" r="9.9"/>
			<path class="st1" d="M457.7,856c-6.7,0-12.2-5.5-12.2-12.2c0-6.7,5.5-12.2,12.2-12.2c6.7,0,12.2,5.5,12.2,12.2
				C469.9,850.5,464.4,856,457.7,856z M457.7,836.1c-4.2,0-7.6,3.4-7.6,7.6c0,4.2,3.4,7.6,7.6,7.6s7.6-3.4,7.6-7.6
				C465.3,839.6,461.9,836.1,457.7,836.1z"/>
		</g>
		<g>
			<path class="st0" d="M517.3,833.4c-3.3-3.4-7.8-5.5-12.9-5.5c-9.9,0-17.9,8-17.9,17.9c0,9.9,8,17.9,17.9,17.9
				c5.1,0,9.6-2.1,12.9-5.5V833.4z"/>
			<path class="st1" d="M504.4,866c-11.1,0-20.2-9.1-20.2-20.2c0-11.1,9.1-20.2,20.2-20.2c5.5,0,10.7,2.2,14.5,6.2
				c0.4,0.4,0.6,1,0.6,1.6v24.9c0,0.6-0.2,1.2-0.6,1.6C515.1,863.8,510,866,504.4,866z M504.4,830.2c-8.6,0-15.6,7-15.6,15.6
				c0,8.6,7,15.6,15.6,15.6c4,0,7.7-1.5,10.6-4.2v-23C512.1,831.7,508.4,830.2,504.4,830.2z"/>
		</g>
		<g>
			<path class="st6" d="M498.2,883.1c-10.5,0-19.1,8.5-19.1,19.1h38.2C517.3,891.6,508.8,883.1,498.2,883.1z"/>
			<path class="st1" d="M517.3,904.4h-38.2c-1.3,0-2.3-1-2.3-2.3c0-11.8,9.6-21.4,21.4-21.4c11.8,0,21.4,9.6,21.4,21.4
				C519.6,903.4,518.6,904.4,517.3,904.4z M481.6,899.9h33.3c-1.1-8.2-8.2-14.6-16.7-14.6C489.7,885.3,482.7,891.7,481.6,899.9z"/>
		</g>
		<g>
			<path class="st3" d="M451.6,902.1c1.9-3.1,3-6.8,3-10.7c0-11.5-9.3-20.8-20.8-20.8c-11.5,0-20.8,9.3-20.8,20.8
				c0,3.9,1.1,7.5,3,10.7H451.6z"/>
			<path class="st1" d="M451.6,904.4h-35.7c-0.8,0-1.5-0.4-2-1.1c-2.1-3.6-3.3-7.7-3.3-11.8c0-12.7,10.4-23.1,23.1-23.1
				c12.7,0,23.1,10.4,23.1,23.1c0,4.1-1.1,8.2-3.3,11.8C453.1,904,452.4,904.4,451.6,904.4z M417.2,899.9h33.1c1.3-2.6,2-5.5,2-8.4
				c0-10.2-8.3-18.6-18.6-18.6c-10.2,0-18.6,8.3-18.6,18.6C415.2,894.4,415.9,897.3,417.2,899.9z"/>
		</g>
		<g>
			<path class="st1" d="M517.3,904.4h-211c-1.3,0-2.3-1-2.3-2.3s1-2.3,2.3-2.3h211c1.3,0,2.3,1,2.3,2.3S518.6,904.4,517.3,904.4z"/>
		</g>
		<g>
			<path class="st5" d="M1020.9,736.5c-0.8-5.3-2.7-11.4-6-17.9c0,0,32.8-2.4,33.6-33.6c0,0,25.7-7.1,28.4-28.8
				c0,0,14.6,3.2,25.3-10.3c0,0,12.6,18.9,39.5,13c0,0-8.7,24.1,13.8,40.3c0,0-18.6,25.3,0,47.8c0,0-30.8-7.1-43,14.6
				c0,0-30.4-16.2-42.2,11.8c0,0-16.6-10-24.5,6.6c-7.9,16.7,17,36.8,67.1,31.7c0,0-2.8,16.6,42.6,18.2c0,0-22.9,31.2,5.5,62
				c0,0-21.3,3.9-18.9,26.4c0,0-43-15-63.6,18.2c0,0-7.9-34.7-41.1-23.7c0,0,8.3-31.2-22.5-30.4c0,0,23.2-39.1,2.5-49.1
				c-15.5-7.5-23,10.5-19.8,16.4c0,0-35.5-7.5-43.8,14.2c0,0-35.1-20.9-60,12.2c0,0-3.6-33.9-29.6-28c0,0,17.8-22.9,0-48.6
				c0,0,33.2,2,46.2-33.6c0,0,31.6,12.2,45-6.7c0,0,17.8,20.6,42.4,13.7C1013.5,768.6,1023.5,752.7,1020.9,736.5z"/>
		</g>
		<g>
			
				<ellipse transform="matrix(0.9676 -0.2524 0.2524 0.9676 -161.1742 287.8075)" class="st0" cx="1041.2" cy="772.1" rx="20.6" ry="20.6"/>
			<path class="st1" d="M1041.2,795c-12.6,0-22.9-10.3-22.9-22.9c0-12.6,10.3-22.8,22.9-22.8s22.8,10.2,22.8,22.8
				C1064.1,784.7,1053.8,795,1041.2,795z M1041.2,753.8c-10.1,0-18.3,8.2-18.3,18.3c0,10.1,8.2,18.3,18.3,18.3
				c10.1,0,18.3-8.2,18.3-18.3C1059.5,762,1051.3,753.8,1041.2,753.8z"/>
		</g>
		<g>
			<circle class="st2" cx="1043.3" cy="815" r="20.6"/>
			<path class="st1" d="M1043.3,837.9c-12.6,0-22.8-10.3-22.8-22.9c0-12.6,10.2-22.8,22.8-22.8c12.6,0,22.8,10.2,22.8,22.8
				C1066.1,827.6,1055.9,837.9,1043.3,837.9z M1043.3,796.7c-10.1,0-18.3,8.2-18.3,18.3c0,10.1,8.2,18.3,18.3,18.3
				c10.1,0,18.3-8.2,18.3-18.3C1061.6,804.9,1053.4,796.7,1043.3,796.7z"/>
		</g>
		<g>
			
				<ellipse transform="matrix(0.8623 -0.5064 0.5064 0.8623 -267.7536 616.7375)" class="st0" cx="1000.1" cy="800.7" rx="20.6" ry="20.6"/>
			<path class="st1" d="M1000.1,823.5c-12.6,0-22.8-10.2-22.8-22.8c0-12.6,10.2-22.9,22.8-22.9c12.6,0,22.8,10.3,22.8,22.9
				C1022.9,813.3,1012.7,823.5,1000.1,823.5z M1000.1,782.4c-10.1,0-18.3,8.2-18.3,18.3c0,10.1,8.2,18.3,18.3,18.3
				c10.1,0,18.3-8.2,18.3-18.3C1018.4,790.6,1010.2,782.4,1000.1,782.4z"/>
		</g>
		<g>
			<path class="st1" d="M997.5,904.4h-179c-1.3,0-2.3-1-2.3-2.3s1-2.3,2.3-2.3h176.8v-33.5c0-1.3,1-2.3,2.3-2.3c1.3,0,2.3,1,2.3,2.3
				v35.7C999.8,903.4,998.8,904.4,997.5,904.4z"/>
		</g>
		<g>
			<path class="st1" d="M1012.5,904.4h-15c-1.3,0-2.3-1-2.3-2.3s1-2.3,2.3-2.3h15c1.3,0,2.3,1,2.3,2.3S1013.8,904.4,1012.5,904.4z"
				/>
		</g>
		<g>
			<path class="st1" d="M1119.5,904.4c-0.8,0-1.5-0.4-2-1.1c-23.5-39.7-52.3-58.3-52.6-58.5c-1.1-0.7-1.4-2.1-0.7-3.1
				c0.7-1.1,2.1-1.4,3.1-0.7c1.2,0.8,30,19.3,54,60c0.6,1.1,0.3,2.5-0.8,3.1C1120.3,904.3,1119.9,904.4,1119.5,904.4z"/>
		</g>
		<g>
			<path class="st1" d="M886.2,836.1c-0.7,0-1.5-0.4-1.9-1c-0.7-1.1-0.4-2.5,0.7-3.1c35.2-22.5,72-27.5,72.4-27.6
				c1.2-0.2,2.4,0.7,2.5,2c0.2,1.2-0.7,2.4-2,2.5c-0.4,0-36.3,5-70.5,26.9C887.1,836,886.6,836.1,886.2,836.1z"/>
		</g>
		<g>
			<path class="st1" d="M1061.8,735.9c-0.3,0-0.6-0.1-0.9-0.2c-1.1-0.5-1.6-1.9-1.1-3c0.4-1,11.3-24,59.1-38.7
				c1.2-0.4,2.5,0.3,2.8,1.5c0.4,1.2-0.3,2.5-1.5,2.8c-45.6,14.1-56.2,36.1-56.3,36.3C1063.5,735.4,1062.7,735.9,1061.8,735.9z"/>
		</g>
		<g>
			<path class="st1" d="M976.5,904.4c-1.3,0-2.3-1-2.3-2.3v-53.3c0-1.3,1-2.3,2.3-2.3s2.3,1,2.3,2.3v53.3
				C978.8,903.4,977.8,904.4,976.5,904.4z"/>
		</g>
		<g>
			<path class="st1" d="M976,928.5h-2c-1.3,0-2.3-1-2.3-2.3c0-1.3,1-2.3,2.3-2.3h2c1.3,0,2.3,1,2.3,2.3
				C978.3,927.5,977.2,928.5,976,928.5z M963.9,928.5h-2c-1.3,0-2.3-1-2.3-2.3c0-1.3,1-2.3,2.3-2.3h2c1.3,0,2.3,1,2.3,2.3
				C966.2,927.5,965.1,928.5,963.9,928.5z M951.8,928.5h-2c-1.3,0-2.3-1-2.3-2.3c0-1.3,1-2.3,2.3-2.3h2c1.3,0,2.3,1,2.3,2.3
				C954.1,927.5,953,928.5,951.8,928.5z M939.7,928.5h-2c-1.3,0-2.3-1-2.3-2.3c0-1.3,1-2.3,2.3-2.3h2c1.3,0,2.3,1,2.3,2.3
				C942,927.5,940.9,928.5,939.7,928.5z M927.6,928.5h-2c-1.3,0-2.3-1-2.3-2.3c0-1.3,1-2.3,2.3-2.3h2c1.3,0,2.3,1,2.3,2.3
				C929.9,927.5,928.8,928.5,927.6,928.5z M915.5,928.5h-2c-1.3,0-2.3-1-2.3-2.3c0-1.3,1-2.3,2.3-2.3h2c1.3,0,2.3,1,2.3,2.3
				C917.8,927.5,916.7,928.5,915.5,928.5z M903.4,928.5h-2c-1.3,0-2.3-1-2.3-2.3c0-1.3,1-2.3,2.3-2.3h2c1.3,0,2.3,1,2.3,2.3
				C905.7,927.5,904.6,928.5,903.4,928.5z M891.3,928.5h-2c-1.3,0-2.3-1-2.3-2.3c0-1.3,1-2.3,2.3-2.3h2c1.3,0,2.3,1,2.3,2.3
				C893.6,927.5,892.5,928.5,891.3,928.5z M879.2,928.5h-2c-1.3,0-2.3-1-2.3-2.3c0-1.3,1-2.3,2.3-2.3h2c1.3,0,2.3,1,2.3,2.3
				C881.5,927.5,880.5,928.5,879.2,928.5z M867.1,928.5h-2c-1.3,0-2.3-1-2.3-2.3c0-1.3,1-2.3,2.3-2.3h2c1.3,0,2.3,1,2.3,2.3
				C869.4,927.5,868.4,928.5,867.1,928.5z M855,928.5h-2c-1.3,0-2.3-1-2.3-2.3c0-1.3,1-2.3,2.3-2.3h2c1.3,0,2.3,1,2.3,2.3
				C857.3,927.5,856.3,928.5,855,928.5z M842.9,928.5h-2c-1.3,0-2.3-1-2.3-2.3c0-1.3,1-2.3,2.3-2.3h2c1.3,0,2.3,1,2.3,2.3
				C845.2,927.5,844.2,928.5,842.9,928.5z M830.8,928.5h-2c-1.3,0-2.3-1-2.3-2.3c0-1.3,1-2.3,2.3-2.3h2c1.3,0,2.3,1,2.3,2.3
				C833.1,927.5,832.1,928.5,830.8,928.5z M818.7,928.5h-2c-1.3,0-2.3-1-2.3-2.3c0-1.3,1-2.3,2.3-2.3h2c1.3,0,2.3,1,2.3,2.3
				C821,927.5,820,928.5,818.7,928.5z M806.6,928.5h-2c-1.3,0-2.3-1-2.3-2.3c0-1.3,1-2.3,2.3-2.3h2c1.3,0,2.3,1,2.3,2.3
				C808.9,927.5,807.9,928.5,806.6,928.5z M794.5,928.5h-2c-1.3,0-2.3-1-2.3-2.3c0-1.3,1-2.3,2.3-2.3h2c1.3,0,2.3,1,2.3,2.3
				C796.8,927.5,795.8,928.5,794.5,928.5z M782.4,928.5h-2c-1.3,0-2.3-1-2.3-2.3c0-1.3,1-2.3,2.3-2.3h2c1.3,0,2.3,1,2.3,2.3
				C784.7,927.5,783.7,928.5,782.4,928.5z M770.3,928.5h-2c-1.3,0-2.3-1-2.3-2.3c0-1.3,1-2.3,2.3-2.3h2c1.3,0,2.3,1,2.3,2.3
				C772.6,927.5,771.6,928.5,770.3,928.5z M758.2,928.5h-2c-1.3,0-2.3-1-2.3-2.3c0-1.3,1-2.3,2.3-2.3h2c1.3,0,2.3,1,2.3,2.3
				C760.5,927.5,759.5,928.5,758.2,928.5z M746.1,928.5h-2c-1.3,0-2.3-1-2.3-2.3c0-1.3,1-2.3,2.3-2.3h2c1.3,0,2.3,1,2.3,2.3
				C748.4,927.5,747.4,928.5,746.1,928.5z M734,928.5h-2c-1.3,0-2.3-1-2.3-2.3c0-1.3,1-2.3,2.3-2.3h2c1.3,0,2.3,1,2.3,2.3
				C736.3,927.5,735.3,928.5,734,928.5z M721.9,928.5h-2c-1.3,0-2.3-1-2.3-2.3c0-1.3,1-2.3,2.3-2.3h2c1.3,0,2.3,1,2.3,2.3
				C724.2,927.5,723.2,928.5,721.9,928.5z M709.8,928.5h-2c-1.3,0-2.3-1-2.3-2.3c0-1.3,1-2.3,2.3-2.3h2c1.3,0,2.3,1,2.3,2.3
				C712.1,927.5,711.1,928.5,709.8,928.5z M697.7,928.5h-2c-1.3,0-2.3-1-2.3-2.3c0-1.3,1-2.3,2.3-2.3h2c1.3,0,2.3,1,2.3,2.3
				C700,927.5,699,928.5,697.7,928.5z M685.6,928.5h-2c-1.3,0-2.3-1-2.3-2.3c0-1.3,1-2.3,2.3-2.3h2c1.3,0,2.3,1,2.3,2.3
				C687.9,927.5,686.9,928.5,685.6,928.5z M673.5,928.5h-2c-1.3,0-2.3-1-2.3-2.3c0-1.3,1-2.3,2.3-2.3h2c1.3,0,2.3,1,2.3,2.3
				C675.8,927.5,674.8,928.5,673.5,928.5z M661.4,928.5h-2c-1.3,0-2.3-1-2.3-2.3c0-1.3,1-2.3,2.3-2.3h2c1.3,0,2.3,1,2.3,2.3
				C663.7,927.5,662.7,928.5,661.4,928.5z M649.3,928.5h-2c-1.3,0-2.3-1-2.3-2.3c0-1.3,1-2.3,2.3-2.3h2c1.3,0,2.3,1,2.3,2.3
				C651.6,927.5,650.6,928.5,649.3,928.5z M637.2,928.5h-2c-1.3,0-2.3-1-2.3-2.3c0-1.3,1-2.3,2.3-2.3h2c1.3,0,2.3,1,2.3,2.3
				C639.5,927.5,638.5,928.5,637.2,928.5z M625.1,928.5h-2c-1.3,0-2.3-1-2.3-2.3c0-1.3,1-2.3,2.3-2.3h2c1.3,0,2.3,1,2.3,2.3
				C627.4,927.5,626.4,928.5,625.1,928.5z M613,928.5h-2c-1.3,0-2.3-1-2.3-2.3c0-1.3,1-2.3,2.3-2.3h2c1.3,0,2.3,1,2.3,2.3
				C615.3,927.5,614.3,928.5,613,928.5z M600.9,928.5h-2c-1.3,0-2.3-1-2.3-2.3c0-1.3,1-2.3,2.3-2.3h2c1.3,0,2.3,1,2.3,2.3
				C603.2,927.5,602.2,928.5,600.9,928.5z M588.8,928.5h-2c-1.3,0-2.3-1-2.3-2.3c0-1.3,1-2.3,2.3-2.3h2c1.3,0,2.3,1,2.3,2.3
				C591.1,927.5,590.1,928.5,588.8,928.5z M576.7,928.5h-2c-1.3,0-2.3-1-2.3-2.3c0-1.3,1-2.3,2.3-2.3h2c1.3,0,2.3,1,2.3,2.3
				C579,927.5,578,928.5,576.7,928.5z M564.6,928.5h-2c-1.3,0-2.3-1-2.3-2.3c0-1.3,1-2.3,2.3-2.3h2c1.3,0,2.3,1,2.3,2.3
				C566.9,927.5,565.9,928.5,564.6,928.5z M552.5,928.5h-2c-1.3,0-2.3-1-2.3-2.3c0-1.3,1-2.3,2.3-2.3h2c1.3,0,2.3,1,2.3,2.3
				C554.8,927.5,553.8,928.5,552.5,928.5z M540.4,928.5h-2c-1.3,0-2.3-1-2.3-2.3c0-1.3,1-2.3,2.3-2.3h2c1.3,0,2.3,1,2.3,2.3
				C542.7,927.5,541.7,928.5,540.4,928.5z M528.3,928.5h-2c-1.3,0-2.3-1-2.3-2.3c0-1.3,1-2.3,2.3-2.3h2c1.3,0,2.3,1,2.3,2.3
				C530.6,927.5,529.6,928.5,528.3,928.5z M516.2,928.5h-2c-1.3,0-2.3-1-2.3-2.3c0-1.3,1-2.3,2.3-2.3h2c1.3,0,2.3,1,2.3,2.3
				C518.5,927.5,517.5,928.5,516.2,928.5z M504.1,928.5h-2c-1.3,0-2.3-1-2.3-2.3c0-1.3,1-2.3,2.3-2.3h2c1.3,0,2.3,1,2.3,2.3
				C506.4,927.5,505.4,928.5,504.1,928.5z M492,928.5h-2c-1.3,0-2.3-1-2.3-2.3c0-1.3,1-2.3,2.3-2.3h2c1.3,0,2.3,1,2.3,2.3
				C494.3,927.5,493.3,928.5,492,928.5z M479.9,928.5h-2c-1.3,0-2.3-1-2.3-2.3c0-1.3,1-2.3,2.3-2.3h2c1.3,0,2.3,1,2.3,2.3
				C482.2,927.5,481.2,928.5,479.9,928.5z M467.8,928.5h-2c-1.3,0-2.3-1-2.3-2.3c0-1.3,1-2.3,2.3-2.3h2c1.3,0,2.3,1,2.3,2.3
				C470.1,927.5,469.1,928.5,467.8,928.5z M455.7,928.5h-2c-1.3,0-2.3-1-2.3-2.3c0-1.3,1-2.3,2.3-2.3h2c1.3,0,2.3,1,2.3,2.3
				C458,927.5,457,928.5,455.7,928.5z M443.6,928.5h-2c-1.3,0-2.3-1-2.3-2.3c0-1.3,1-2.3,2.3-2.3h2c1.3,0,2.3,1,2.3,2.3
				C445.9,927.5,444.9,928.5,443.6,928.5z M431.6,928.5h-2c-1.3,0-2.3-1-2.3-2.3c0-1.3,1-2.3,2.3-2.3h2c1.3,0,2.3,1,2.3,2.3
				C433.8,927.5,432.8,928.5,431.6,928.5z M419.5,928.5h-2c-1.3,0-2.3-1-2.3-2.3c0-1.3,1-2.3,2.3-2.3h2c1.3,0,2.3,1,2.3,2.3
				C421.7,927.5,420.7,928.5,419.5,928.5z M407.4,928.5h-2c-1.3,0-2.3-1-2.3-2.3c0-1.3,1-2.3,2.3-2.3h2c1.3,0,2.3,1,2.3,2.3
				C409.6,927.5,408.6,928.5,407.4,928.5z M395.3,928.5h-2c-1.3,0-2.3-1-2.3-2.3c0-1.3,1-2.3,2.3-2.3h2c1.3,0,2.3,1,2.3,2.3
				C397.5,927.5,396.5,928.5,395.3,928.5z M383.2,928.5h-2c-1.3,0-2.3-1-2.3-2.3c0-1.3,1-2.3,2.3-2.3h2c1.3,0,2.3,1,2.3,2.3
				C385.4,927.5,384.4,928.5,383.2,928.5z M371.1,928.5h-2c-1.3,0-2.3-1-2.3-2.3c0-1.3,1-2.3,2.3-2.3h2c1.3,0,2.3,1,2.3,2.3
				C373.3,927.5,372.3,928.5,371.1,928.5z M359,928.5h-2c-1.3,0-2.3-1-2.3-2.3c0-1.3,1-2.3,2.3-2.3h2c1.3,0,2.3,1,2.3,2.3
				C361.2,927.5,360.2,928.5,359,928.5z M346.9,928.5h-2c-1.3,0-2.3-1-2.3-2.3c0-1.3,1-2.3,2.3-2.3h2c1.3,0,2.3,1,2.3,2.3
				C349.1,927.5,348.1,928.5,346.9,928.5z M334.8,928.5h-2c-1.3,0-2.3-1-2.3-2.3c0-1.3,1-2.3,2.3-2.3h2c1.3,0,2.3,1,2.3,2.3
				C337,927.5,336,928.5,334.8,928.5z M322.7,928.5h-2c-1.3,0-2.3-1-2.3-2.3c0-1.3,1-2.3,2.3-2.3h2c1.3,0,2.3,1,2.3,2.3
				C324.9,927.5,323.9,928.5,322.7,928.5z M310.6,928.5h-2c-1.3,0-2.3-1-2.3-2.3c0-1.3,1-2.3,2.3-2.3h2c1.3,0,2.3,1,2.3,2.3
				C312.8,927.5,311.8,928.5,310.6,928.5z M298.5,928.5h-2c-1.3,0-2.3-1-2.3-2.3c0-1.3,1-2.3,2.3-2.3h2c1.3,0,2.3,1,2.3,2.3
				C300.7,927.5,299.7,928.5,298.5,928.5z"/>
		</g>
		<g>
			<path class="st1" d="M650,804.4c-0.6,0-1.2-0.2-1.6-0.7c-0.9-0.9-0.9-2.3,0-3.2l13.8-13.8c0.9-0.9,2.3-0.9,3.2,0
				c0.9,0.9,0.9,2.3,0,3.2l-13.8,13.8C651.1,804.2,650.5,804.4,650,804.4z"/>
		</g>
		<g>
			<path class="st1" d="M675.1,808.9c-0.6,0-1.2-0.2-1.6-0.7c-0.9-0.9-0.9-2.3,0-3.2l16.8-16.8c0.9-0.9,2.3-0.9,3.2,0
				c0.9,0.9,0.9,2.3,0,3.2l-16.8,16.8C676.3,808.7,675.7,808.9,675.1,808.9z"/>
		</g>
		<g>
			<path class="st1" d="M687.5,832.1c-0.6,0-1.2-0.2-1.6-0.7c-0.9-0.9-0.9-2.3,0-3.2l40-40c0.9-0.9,2.3-0.9,3.2,0
				c0.9,0.9,0.9,2.3,0,3.2l-40,40C688.7,831.8,688.1,832.1,687.5,832.1z"/>
		</g>
		<g>
			<path class="st1" d="M675.8,879.3c-0.6,0-1.2-0.2-1.6-0.7c-0.9-0.9-0.9-2.3,0-3.2l87.2-87.2c0.9-0.9,2.3-0.9,3.2,0
				c0.9,0.9,0.9,2.3,0,3.2l-87.2,87.2C677,879.1,676.4,879.3,675.8,879.3z"/>
		</g>
		<g>
			<path class="st1" d="M710.3,881c-0.6,0-1.2-0.2-1.6-0.7c-0.9-0.9-0.9-2.3,0-3.2l88.9-88.9c0.9-0.9,2.3-0.9,3.2,0
				c0.9,0.9,0.9,2.3,0,3.2l-88.9,88.9C711.4,880.8,710.8,881,710.3,881z"/>
		</g>
		<g>
			<path class="st1" d="M746.5,881.4c-0.6,0-1.2-0.2-1.6-0.7c-0.9-0.9-0.9-2.3,0-3.2l52.6-52.6c0.9-0.9,2.3-0.9,3.2,0s0.9,2.3,0,3.2
				l-52.6,52.6C747.7,881.1,747.1,881.4,746.5,881.4z"/>
		</g>
		<g>
			<path class="st1" d="M781.7,880.8c-0.6,0-1.2-0.2-1.6-0.7c-0.9-0.9-0.9-2.3,0-3.2l17.4-17.4c0.9-0.9,2.3-0.9,3.2,0
				c0.9,0.9,0.9,2.3,0,3.2l-17.4,17.4C782.9,880.6,782.3,880.8,781.7,880.8z"/>
		</g>
		<g>
			<path class="st6" d="M1040.1,515.7c0,4.4,3.5,7.9,7.9,7.9c4.4,0,7.9-3.5,7.9-7.9c0-4.4-3.5-7.9-7.9-7.9
				C1043.6,507.8,1040.1,511.3,1040.1,515.7z"/>
			<path class="st1" d="M1048,525.8c-5.6,0-10.2-4.6-10.2-10.2c0-5.6,4.6-10.2,10.2-10.2s10.2,4.6,10.2,10.2
				C1058.1,521.3,1053.6,525.8,1048,525.8z M1048,510.1c-3.1,0-5.6,2.5-5.6,5.6c0,3.1,2.5,5.6,5.6,5.6c3.1,0,5.6-2.5,5.6-5.6
				C1053.6,512.6,1051.1,510.1,1048,510.1z"/>
		</g>
		<g>
			<path class="st0" d="M1052.5,575.8c0,3.2,2.6,5.8,5.8,5.8s5.8-2.6,5.8-5.8s-2.6-5.8-5.8-5.8S1052.5,572.6,1052.5,575.8z"/>
			<path class="st1" d="M1058.3,583.9c-4.5,0-8.1-3.6-8.1-8.1c0-4.5,3.6-8.1,8.1-8.1c4.5,0,8.1,3.6,8.1,8.1
				C1066.4,580.2,1062.8,583.9,1058.3,583.9z M1058.3,572.2c-2,0-3.5,1.6-3.5,3.6c0,2,1.6,3.5,3.5,3.5c2,0,3.6-1.6,3.6-3.5
				C1061.9,573.8,1060.3,572.2,1058.3,572.2z"/>
		</g>
		<g>
			<circle class="st6" cx="1071.9" cy="627.8" r="11.3"/>
			<path class="st1" d="M1071.9,641.3c-7.5,0-13.5-6.1-13.5-13.5c0-7.5,6.1-13.5,13.5-13.5s13.5,6.1,13.5,13.5
				C1085.4,635.2,1079.3,641.3,1071.9,641.3z M1071.9,618.8c-4.9,0-9,4-9,9s4,9,9,9c4.9,0,9-4,9-9S1076.8,618.8,1071.9,618.8z"/>
		</g>
		<g>
			<polygon class="st0" points="1085,388.1 1092.8,404.1 1110.4,406.6 1097.7,419 1100.7,436.5 1085,428.3 1069.3,436.5 1072.3,419 
				1059.5,406.6 1077.1,404.1 			"/>
		</g>
		<g>
			<polygon class="st0" points="138.5,459.7 146.3,475.7 163.9,478.2 151.2,490.6 154.2,508.1 138.5,499.9 122.8,508.1 125.8,490.6 
				113,478.2 130.6,475.7 			"/>
		</g>
		<g>
			<polygon class="st0" points="223.8,262.4 231.7,278.3 249.3,280.9 236.5,293.3 239.5,310.8 223.8,302.5 208.1,310.8 211.1,293.3 
				198.4,280.9 216,278.3 			"/>
		</g>
		<g>
			<polygon class="st0" points="936.1,159.3 944,175.2 961.5,177.8 948.8,190.2 951.8,207.7 936.1,199.4 920.4,207.7 923.4,190.2 
				910.7,177.8 928.2,175.2 			"/>
		</g>
		<g>
			<polygon class="st0" points="727.5,268.7 732,277.8 742.1,279.3 734.8,286.4 736.5,296.5 727.5,291.7 718.4,296.5 720.2,286.4 
				712.8,279.3 722.9,277.8 			"/>
		</g>
		<g>
			<path class="st1" d="M571.5,546.7h-2c-1.3,0-2.3-1-2.3-2.3s1-2.3,2.3-2.3h2c1.3,0,2.3,1,2.3,2.3S572.8,546.7,571.5,546.7z
				 M559.4,546.7h-2c-1.3,0-2.3-1-2.3-2.3s1-2.3,2.3-2.3h2c1.3,0,2.3,1,2.3,2.3S560.7,546.7,559.4,546.7z M547.3,546.7h-2
				c-1.3,0-2.3-1-2.3-2.3s1-2.3,2.3-2.3h2c1.3,0,2.3,1,2.3,2.3S548.6,546.7,547.3,546.7z M535.2,546.7h-2c-1.3,0-2.3-1-2.3-2.3
				s1-2.3,2.3-2.3h2c1.3,0,2.3,1,2.3,2.3S536.5,546.7,535.2,546.7z M523.1,546.7h-2c-1.3,0-2.3-1-2.3-2.3s1-2.3,2.3-2.3h2
				c1.3,0,2.3,1,2.3,2.3S524.4,546.7,523.1,546.7z M511,546.7h-2c-1.3,0-2.3-1-2.3-2.3s1-2.3,2.3-2.3h2c1.3,0,2.3,1,2.3,2.3
				S512.3,546.7,511,546.7z M498.9,546.7h-2c-1.3,0-2.3-1-2.3-2.3s1-2.3,2.3-2.3h2c1.3,0,2.3,1,2.3,2.3S500.2,546.7,498.9,546.7z
				 M486.8,546.7h-2c-1.3,0-2.3-1-2.3-2.3s1-2.3,2.3-2.3h2c1.3,0,2.3,1,2.3,2.3S488.1,546.7,486.8,546.7z M474.7,546.7h-2
				c-1.3,0-2.3-1-2.3-2.3s1-2.3,2.3-2.3h2c1.3,0,2.3,1,2.3,2.3S476,546.7,474.7,546.7z M462.6,546.7h-2c-1.3,0-2.3-1-2.3-2.3
				s1-2.3,2.3-2.3h2c1.3,0,2.3,1,2.3,2.3S463.9,546.7,462.6,546.7z M450.5,546.7h-2c-1.3,0-2.3-1-2.3-2.3s1-2.3,2.3-2.3h2
				c1.3,0,2.3,1,2.3,2.3S451.8,546.7,450.5,546.7z M438.4,546.7h-2c-1.3,0-2.3-1-2.3-2.3s1-2.3,2.3-2.3h2c1.3,0,2.3,1,2.3,2.3
				S439.7,546.7,438.4,546.7z M426.3,546.7h-2c-1.3,0-2.3-1-2.3-2.3s1-2.3,2.3-2.3h2c1.3,0,2.3,1,2.3,2.3S427.6,546.7,426.3,546.7z
				 M414.2,546.7h-2c-1.3,0-2.3-1-2.3-2.3s1-2.3,2.3-2.3h2c1.3,0,2.3,1,2.3,2.3S415.5,546.7,414.2,546.7z M402.1,546.7h-2
				c-1.3,0-2.3-1-2.3-2.3s1-2.3,2.3-2.3h2c1.3,0,2.3,1,2.3,2.3S403.4,546.7,402.1,546.7z M390,546.7h-2c-1.3,0-2.3-1-2.3-2.3
				s1-2.3,2.3-2.3h2c1.3,0,2.3,1,2.3,2.3S391.3,546.7,390,546.7z M377.9,546.7h-2c-1.3,0-2.3-1-2.3-2.3s1-2.3,2.3-2.3h2
				c1.3,0,2.3,1,2.3,2.3S379.2,546.7,377.9,546.7z M365.8,546.7h-2c-1.3,0-2.3-1-2.3-2.3s1-2.3,2.3-2.3h2c1.3,0,2.3,1,2.3,2.3
				S367.1,546.7,365.8,546.7z M353.7,546.7h-2c-1.3,0-2.3-1-2.3-2.3s1-2.3,2.3-2.3h2c1.3,0,2.3,1,2.3,2.3S355,546.7,353.7,546.7z
				 M341.6,546.7h-2c-1.3,0-2.3-1-2.3-2.3s1-2.3,2.3-2.3h2c1.3,0,2.3,1,2.3,2.3S342.9,546.7,341.6,546.7z M329.5,546.7h-2
				c-1.3,0-2.3-1-2.3-2.3s1-2.3,2.3-2.3h2c1.3,0,2.3,1,2.3,2.3S330.8,546.7,329.5,546.7z M317.4,546.7h-2c-1.3,0-2.3-1-2.3-2.3
				s1-2.3,2.3-2.3h2c1.3,0,2.3,1,2.3,2.3S318.7,546.7,317.4,546.7z M305.4,546.7h-2c-1.3,0-2.3-1-2.3-2.3s1-2.3,2.3-2.3h2
				c1.3,0,2.3,1,2.3,2.3S306.6,546.7,305.4,546.7z"/>
		</g>
		<g>
			<path class="st1" d="M779.6,453.7c-0.9,0-1.7-0.5-2.1-1.4l-0.2-0.5c-0.5-1.2,0.1-2.5,1.3-3c1.2-0.5,2.5,0.1,3,1.3l0.2,0.5
				c0.5,1.2-0.1,2.5-1.2,3C780.2,453.6,779.9,453.7,779.6,453.7z M775.3,444c-0.8,0-1.6-0.5-2-1.3c-0.3-0.6-0.6-1.2-0.9-1.8
				c-0.6-1.1-0.1-2.5,1-3.1c1.1-0.6,2.5-0.1,3.1,1c0.3,0.6,0.6,1.2,0.9,1.8c0.6,1.1,0.1,2.5-1,3C776,443.9,775.7,444,775.3,444z
				 M769.5,433.4c-0.8,0-1.5-0.4-1.9-1.1c-0.3-0.6-0.7-1.1-1-1.7c-0.7-1.1-0.4-2.5,0.7-3.1c1.1-0.7,2.5-0.4,3.1,0.7
				c0.4,0.6,0.7,1.2,1.1,1.7c0.7,1.1,0.3,2.5-0.7,3.1C770.3,433.3,769.9,433.4,769.5,433.4z M762.7,423.4c-0.7,0-1.4-0.3-1.8-0.9
				c-0.4-0.5-0.8-1.1-1.2-1.6c-0.8-1-0.6-2.4,0.4-3.2c1-0.8,2.4-0.6,3.2,0.4c0.4,0.5,0.8,1.1,1.2,1.6c0.7,1,0.5,2.4-0.5,3.2
				C763.7,423.3,763.2,423.4,762.7,423.4z M755.1,414c-0.6,0-1.2-0.3-1.7-0.8c-0.4-0.5-0.9-1-1.3-1.5c-0.9-0.9-0.8-2.4,0.1-3.2
				c0.9-0.9,2.4-0.8,3.2,0.1c0.5,0.5,0.9,1,1.4,1.5c0.8,0.9,0.8,2.4-0.2,3.2C756.1,413.9,755.6,414,755.1,414z M746.6,405.4
				c-0.6,0-1.1-0.2-1.5-0.6c-0.5-0.4-1-0.9-1.5-1.3c-0.9-0.8-1-2.3-0.2-3.2c0.8-0.9,2.3-1,3.2-0.2c0.5,0.5,1,0.9,1.5,1.4
				c0.9,0.9,1,2.3,0.1,3.2C747.8,405.2,747.2,405.4,746.6,405.4z M737.3,397.6c-0.5,0-1-0.2-1.4-0.5c-0.5-0.4-1.1-0.8-1.6-1.2
				c-1-0.8-1.2-2.2-0.5-3.2c0.8-1,2.2-1.2,3.2-0.5c0.5,0.4,1.1,0.8,1.6,1.2c1,0.8,1.2,2.2,0.4,3.2
				C738.7,397.3,738,397.6,737.3,397.6z M727.4,390.7c-0.4,0-0.8-0.1-1.2-0.4c-0.6-0.4-1.1-0.7-1.7-1.1c-1.1-0.7-1.4-2.1-0.7-3.1
				c0.7-1.1,2.1-1.4,3.1-0.7c0.6,0.4,1.2,0.7,1.7,1.1c1.1,0.7,1.4,2.1,0.7,3.1C728.9,390.3,728.2,390.7,727.4,390.7z M716.9,384.7
				c-0.3,0-0.7-0.1-1-0.3c-0.6-0.3-1.2-0.6-1.8-0.9c-1.1-0.6-1.6-1.9-1-3c0.6-1.1,1.9-1.6,3-1c0.6,0.3,1.2,0.6,1.8,0.9
				c1.1,0.6,1.6,1.9,1,3.1C718.6,384.2,717.8,384.7,716.9,384.7z M705.9,379.6c-0.3,0-0.6-0.1-0.9-0.2c-0.6-0.2-1.2-0.5-1.8-0.7
				c-1.2-0.5-1.8-1.8-1.3-2.9c0.5-1.2,1.8-1.8,2.9-1.3c0.6,0.2,1.3,0.5,1.9,0.8c1.2,0.5,1.7,1.8,1.3,3
				C707.7,379.1,706.8,379.6,705.9,379.6z M694.5,375.6c-0.2,0-0.4,0-0.7-0.1c-0.6-0.2-1.3-0.4-1.9-0.6c-1.2-0.3-1.9-1.6-1.6-2.8
				c0.3-1.2,1.6-1.9,2.8-1.6c0.7,0.2,1.3,0.4,2,0.6c1.2,0.4,1.9,1.6,1.5,2.8C696.4,375,695.5,375.6,694.5,375.6z"/>
		</g>
		<g>
			<path class="st1" d="M992.8,725.3h-2c-1.3,0-2.3-1-2.3-2.3c0-1.3,1-2.3,2.3-2.3h2c1.3,0,2.3,1,2.3,2.3
				C995.1,724.3,994,725.3,992.8,725.3z M980.7,725.3h-2c-1.3,0-2.3-1-2.3-2.3c0-1.3,1-2.3,2.3-2.3h2c1.3,0,2.3,1,2.3,2.3
				C983,724.3,981.9,725.3,980.7,725.3z M968.6,725.3h-2c-1.3,0-2.3-1-2.3-2.3c0-1.3,1-2.3,2.3-2.3h2c1.3,0,2.3,1,2.3,2.3
				C970.9,724.3,969.8,725.3,968.6,725.3z M956.5,725.3h-2c-1.3,0-2.3-1-2.3-2.3c0-1.3,1-2.3,2.3-2.3h2c1.3,0,2.3,1,2.3,2.3
				C958.8,724.3,957.7,725.3,956.5,725.3z M944.4,725.3h-2c-1.3,0-2.3-1-2.3-2.3c0-1.3,1-2.3,2.3-2.3h2c1.3,0,2.3,1,2.3,2.3
				C946.7,724.3,945.6,725.3,944.4,725.3z M932.3,725.3h-2c-1.3,0-2.3-1-2.3-2.3c0-1.3,1-2.3,2.3-2.3h2c1.3,0,2.3,1,2.3,2.3
				C934.6,724.3,933.5,725.3,932.3,725.3z M920.2,725.3h-2c-1.3,0-2.3-1-2.3-2.3c0-1.3,1-2.3,2.3-2.3h2c1.3,0,2.3,1,2.3,2.3
				C922.5,724.3,921.4,725.3,920.2,725.3z M908.1,725.3h-2c-1.3,0-2.3-1-2.3-2.3c0-1.3,1-2.3,2.3-2.3h2c1.3,0,2.3,1,2.3,2.3
				C910.4,724.3,909.3,725.3,908.1,725.3z M896,725.3h-2c-1.3,0-2.3-1-2.3-2.3c0-1.3,1-2.3,2.3-2.3h2c1.3,0,2.3,1,2.3,2.3
				C898.3,724.3,897.3,725.3,896,725.3z M883.9,725.3h-2c-1.3,0-2.3-1-2.3-2.3c0-1.3,1-2.3,2.3-2.3h2c1.3,0,2.3,1,2.3,2.3
				C886.2,724.3,885.2,725.3,883.9,725.3z M871.8,725.3h-2c-1.3,0-2.3-1-2.3-2.3c0-1.3,1-2.3,2.3-2.3h2c1.3,0,2.3,1,2.3,2.3
				C874.1,724.3,873.1,725.3,871.8,725.3z M859.7,725.3h-2c-1.3,0-2.3-1-2.3-2.3c0-1.3,1-2.3,2.3-2.3h2c1.3,0,2.3,1,2.3,2.3
				C862,724.3,861,725.3,859.7,725.3z M847.6,725.3h-2c-1.3,0-2.3-1-2.3-2.3c0-1.3,1-2.3,2.3-2.3h2c1.3,0,2.3,1,2.3,2.3
				C849.9,724.3,848.9,725.3,847.6,725.3z M835.5,725.3h-2c-1.3,0-2.3-1-2.3-2.3c0-1.3,1-2.3,2.3-2.3h2c1.3,0,2.3,1,2.3,2.3
				C837.8,724.3,836.8,725.3,835.5,725.3z M823.4,725.3h-2c-1.3,0-2.3-1-2.3-2.3c0-1.3,1-2.3,2.3-2.3h2c1.3,0,2.3,1,2.3,2.3
				C825.7,724.3,824.7,725.3,823.4,725.3z M811.3,725.3h-2c-1.3,0-2.3-1-2.3-2.3c0-1.3,1-2.3,2.3-2.3h2c1.3,0,2.3,1,2.3,2.3
				C813.6,724.3,812.6,725.3,811.3,725.3z M799.2,725.3h-2c-1.3,0-2.3-1-2.3-2.3c0-1.3,1-2.3,2.3-2.3h2c1.3,0,2.3,1,2.3,2.3
				C801.5,724.3,800.5,725.3,799.2,725.3z M787.1,725.3h-2c-1.3,0-2.3-1-2.3-2.3c0-1.3,1-2.3,2.3-2.3h2c1.3,0,2.3,1,2.3,2.3
				C789.4,724.3,788.4,725.3,787.1,725.3z M775,725.3h-2c-1.3,0-2.3-1-2.3-2.3c0-1.3,1-2.3,2.3-2.3h2c1.3,0,2.3,1,2.3,2.3
				C777.3,724.3,776.3,725.3,775,725.3z M762.9,725.3h-2c-1.3,0-2.3-1-2.3-2.3c0-1.3,1-2.3,2.3-2.3h2c1.3,0,2.3,1,2.3,2.3
				C765.2,724.3,764.2,725.3,762.9,725.3z M750.8,725.3h-2c-1.3,0-2.3-1-2.3-2.3c0-1.3,1-2.3,2.3-2.3h2c1.3,0,2.3,1,2.3,2.3
				C753.1,724.3,752.1,725.3,750.8,725.3z M738.7,725.3h-2c-1.3,0-2.3-1-2.3-2.3c0-1.3,1-2.3,2.3-2.3h2c1.3,0,2.3,1,2.3,2.3
				C741,724.3,740,725.3,738.7,725.3z M726.6,725.3h-2c-1.3,0-2.3-1-2.3-2.3c0-1.3,1-2.3,2.3-2.3h2c1.3,0,2.3,1,2.3,2.3
				C728.9,724.3,727.9,725.3,726.6,725.3z M714.5,725.3h-2c-1.3,0-2.3-1-2.3-2.3c0-1.3,1-2.3,2.3-2.3h2c1.3,0,2.3,1,2.3,2.3
				C716.8,724.3,715.8,725.3,714.5,725.3z M702.4,725.3h-2c-1.3,0-2.3-1-2.3-2.3c0-1.3,1-2.3,2.3-2.3h2c1.3,0,2.3,1,2.3,2.3
				C704.7,724.3,703.7,725.3,702.4,725.3z M690.3,725.3h-2c-1.3,0-2.3-1-2.3-2.3c0-1.3,1-2.3,2.3-2.3h2c1.3,0,2.3,1,2.3,2.3
				C692.6,724.3,691.6,725.3,690.3,725.3z M678.2,725.3h-2c-1.3,0-2.3-1-2.3-2.3c0-1.3,1-2.3,2.3-2.3h2c1.3,0,2.3,1,2.3,2.3
				C680.5,724.3,679.5,725.3,678.2,725.3z M666.1,725.3h-2c-1.3,0-2.3-1-2.3-2.3c0-1.3,1-2.3,2.3-2.3h2c1.3,0,2.3,1,2.3,2.3
				C668.4,724.3,667.4,725.3,666.1,725.3z M654,725.3h-2c-1.3,0-2.3-1-2.3-2.3c0-1.3,1-2.3,2.3-2.3h2c1.3,0,2.3,1,2.3,2.3
				C656.3,724.3,655.3,725.3,654,725.3z M641.9,725.3h-2c-1.3,0-2.3-1-2.3-2.3c0-1.3,1-2.3,2.3-2.3h2c1.3,0,2.3,1,2.3,2.3
				C644.2,724.3,643.2,725.3,641.9,725.3z M629.8,725.3h-2c-1.3,0-2.3-1-2.3-2.3c0-1.3,1-2.3,2.3-2.3h2c1.3,0,2.3,1,2.3,2.3
				C632.1,724.3,631.1,725.3,629.8,725.3z M617.7,725.3h-2c-1.3,0-2.3-1-2.3-2.3c0-1.3,1-2.3,2.3-2.3h2c1.3,0,2.3,1,2.3,2.3
				C620,724.3,619,725.3,617.7,725.3z M605.6,725.3h-2c-1.3,0-2.3-1-2.3-2.3c0-1.3,1-2.3,2.3-2.3h2c1.3,0,2.3,1,2.3,2.3
				C607.9,724.3,606.9,725.3,605.6,725.3z M593.5,725.3h-2c-1.3,0-2.3-1-2.3-2.3c0-1.3,1-2.3,2.3-2.3h2c1.3,0,2.3,1,2.3,2.3
				C595.8,724.3,594.8,725.3,593.5,725.3z M581.4,725.3h-2c-1.3,0-2.3-1-2.3-2.3c0-1.3,1-2.3,2.3-2.3h2c1.3,0,2.3,1,2.3,2.3
				C583.7,724.3,582.7,725.3,581.4,725.3z M569.3,725.3h-2c-1.3,0-2.3-1-2.3-2.3c0-1.3,1-2.3,2.3-2.3h2c1.3,0,2.3,1,2.3,2.3
				C571.6,724.3,570.6,725.3,569.3,725.3z M557.2,725.3h-2c-1.3,0-2.3-1-2.3-2.3c0-1.3,1-2.3,2.3-2.3h2c1.3,0,2.3,1,2.3,2.3
				C559.5,724.3,558.5,725.3,557.2,725.3z M545.1,725.3h-2c-1.3,0-2.3-1-2.3-2.3c0-1.3,1-2.3,2.3-2.3h2c1.3,0,2.3,1,2.3,2.3
				C547.4,724.3,546.4,725.3,545.1,725.3z M533,725.3h-2c-1.3,0-2.3-1-2.3-2.3c0-1.3,1-2.3,2.3-2.3h2c1.3,0,2.3,1,2.3,2.3
				C535.3,724.3,534.3,725.3,533,725.3z M520.9,725.3h-2c-1.3,0-2.3-1-2.3-2.3c0-1.3,1-2.3,2.3-2.3h2c1.3,0,2.3,1,2.3,2.3
				C523.2,724.3,522.2,725.3,520.9,725.3z M508.8,725.3h-2c-1.3,0-2.3-1-2.3-2.3c0-1.3,1-2.3,2.3-2.3h2c1.3,0,2.3,1,2.3,2.3
				C511.1,724.3,510.1,725.3,508.8,725.3z M496.7,725.3h-2c-1.3,0-2.3-1-2.3-2.3c0-1.3,1-2.3,2.3-2.3h2c1.3,0,2.3,1,2.3,2.3
				C499,724.3,498,725.3,496.7,725.3z M484.6,725.3h-2c-1.3,0-2.3-1-2.3-2.3c0-1.3,1-2.3,2.3-2.3h2c1.3,0,2.3,1,2.3,2.3
				C486.9,724.3,485.9,725.3,484.6,725.3z M472.5,725.3h-2c-1.3,0-2.3-1-2.3-2.3c0-1.3,1-2.3,2.3-2.3h2c1.3,0,2.3,1,2.3,2.3
				C474.8,724.3,473.8,725.3,472.5,725.3z M460.4,725.3h-2c-1.3,0-2.3-1-2.3-2.3c0-1.3,1-2.3,2.3-2.3h2c1.3,0,2.3,1,2.3,2.3
				C462.7,724.3,461.7,725.3,460.4,725.3z M457.4,716.3c-1.3,0-2.3-1-2.3-2.3v-2c0-1.3,1-2.3,2.3-2.3c1.3,0,2.3,1,2.3,2.3v2
				C459.6,715.3,458.6,716.3,457.4,716.3z M457.4,704.2c-1.3,0-2.3-1-2.3-2.3v-2c0-1.3,1-2.3,2.3-2.3c1.3,0,2.3,1,2.3,2.3v2
				C459.6,703.2,458.6,704.2,457.4,704.2z"/>
		</g>
		<g>
			<path class="st1" d="M341.8,643.7h-2c-1.3,0-2.3-1-2.3-2.3c0-1.3,1-2.3,2.3-2.3h2c1.3,0,2.3,1,2.3,2.3
				C344.1,642.6,343.1,643.7,341.8,643.7z M329.7,643.7h-2c-1.3,0-2.3-1-2.3-2.3c0-1.3,1-2.3,2.3-2.3h2c1.3,0,2.3,1,2.3,2.3
				C332,642.6,331,643.7,329.7,643.7z M317.6,643.7h-2c-1.3,0-2.3-1-2.3-2.3c0-1.3,1-2.3,2.3-2.3h2c1.3,0,2.3,1,2.3,2.3
				C319.9,642.6,318.9,643.7,317.6,643.7z M305.5,643.7h-2c-1.3,0-2.3-1-2.3-2.3c0-1.3,1-2.3,2.3-2.3h2c1.3,0,2.3,1,2.3,2.3
				C307.8,642.6,306.8,643.7,305.5,643.7z M293.4,643.7h-2c-1.3,0-2.3-1-2.3-2.3c0-1.3,1-2.3,2.3-2.3h2c1.3,0,2.3,1,2.3,2.3
				C295.7,642.6,294.7,643.7,293.4,643.7z M281.3,643.7h-2c-1.3,0-2.3-1-2.3-2.3c0-1.3,1-2.3,2.3-2.3h2c1.3,0,2.3,1,2.3,2.3
				C283.6,642.6,282.6,643.7,281.3,643.7z M269.2,643.7h-2c-1.3,0-2.3-1-2.3-2.3c0-1.3,1-2.3,2.3-2.3h2c1.3,0,2.3,1,2.3,2.3
				C271.5,642.6,270.5,643.7,269.2,643.7z M257.1,643.7h-1c-1.3,0-2.3-1-2.3-2.3c0-1.3,1-2.3,2.3-2.3h1c1.3,0,2.3,1,2.3,2.3
				C259.4,642.6,258.4,643.7,257.1,643.7z"/>
		</g>
		<g>
			<path class="st1" d="M895.1,583.7c-1.3,0-2.3-1-2.3-2.3v-2c0-1.3,1-2.3,2.3-2.3s2.3,1,2.3,2.3v2
				C897.4,582.7,896.4,583.7,895.1,583.7z M895.1,571.6c-1.3,0-2.3-1-2.3-2.3v-2c0-1.3,1-2.3,2.3-2.3s2.3,1,2.3,2.3v2
				C897.4,570.6,896.4,571.6,895.1,571.6z M895.1,559.5c-1.3,0-2.3-1-2.3-2.3v-2c0-1.3,1-2.3,2.3-2.3s2.3,1,2.3,2.3v2
				C897.4,558.5,896.4,559.5,895.1,559.5z M895.1,547.4c-1.3,0-2.3-1-2.3-2.3v-2c0-1.3,1-2.3,2.3-2.3s2.3,1,2.3,2.3v2
				C897.4,546.4,896.4,547.4,895.1,547.4z M895.1,535.3c-1.3,0-2.3-1-2.3-2.3v-2c0-1.3,1-2.3,2.3-2.3s2.3,1,2.3,2.3v2
				C897.4,534.3,896.4,535.3,895.1,535.3z M984.4,525.8h-2c-1.3,0-2.3-1-2.3-2.3c0-1.3,1-2.3,2.3-2.3h2c1.3,0,2.3,1,2.3,2.3
				C986.7,524.8,985.7,525.8,984.4,525.8z M972.3,525.8h-2c-1.3,0-2.3-1-2.3-2.3c0-1.3,1-2.3,2.3-2.3h2c1.3,0,2.3,1,2.3,2.3
				C974.6,524.8,973.6,525.8,972.3,525.8z M960.2,525.8h-2c-1.3,0-2.3-1-2.3-2.3c0-1.3,1-2.3,2.3-2.3h2c1.3,0,2.3,1,2.3,2.3
				C962.5,524.8,961.5,525.8,960.2,525.8z M948.1,525.8h-2c-1.3,0-2.3-1-2.3-2.3c0-1.3,1-2.3,2.3-2.3h2c1.3,0,2.3,1,2.3,2.3
				C950.4,524.8,949.4,525.8,948.1,525.8z M936,525.8h-2c-1.3,0-2.3-1-2.3-2.3c0-1.3,1-2.3,2.3-2.3h2c1.3,0,2.3,1,2.3,2.3
				C938.3,524.8,937.3,525.8,936,525.8z M923.9,525.8h-2c-1.3,0-2.3-1-2.3-2.3c0-1.3,1-2.3,2.3-2.3h2c1.3,0,2.3,1,2.3,2.3
				C926.2,524.8,925.2,525.8,923.9,525.8z M911.8,525.8h-2c-1.3,0-2.3-1-2.3-2.3c0-1.3,1-2.3,2.3-2.3h2c1.3,0,2.3,1,2.3,2.3
				C914.1,524.8,913.1,525.8,911.8,525.8z M899.7,525.8h-2c-1.3,0-2.3-1-2.3-2.3c0-1.3,1-2.3,2.3-2.3h2c1.3,0,2.3,1,2.3,2.3
				C902,524.8,901,525.8,899.7,525.8z"/>
		</g>
		<g>
			<path class="st1" d="M842,546.7h-2c-1.3,0-2.3-1-2.3-2.3s1-2.3,2.3-2.3h2c1.3,0,2.3,1,2.3,2.3S843.2,546.7,842,546.7z
				 M829.9,546.7h-2c-1.3,0-2.3-1-2.3-2.3s1-2.3,2.3-2.3h2c1.3,0,2.3,1,2.3,2.3S831.1,546.7,829.9,546.7z M817.8,546.7h-2
				c-1.3,0-2.3-1-2.3-2.3s1-2.3,2.3-2.3h2c1.3,0,2.3,1,2.3,2.3S819,546.7,817.8,546.7z M805.7,546.7h-2c-1.3,0-2.3-1-2.3-2.3
				s1-2.3,2.3-2.3h2c1.3,0,2.3,1,2.3,2.3S806.9,546.7,805.7,546.7z M793.6,546.7h-2c-1.3,0-2.3-1-2.3-2.3s1-2.3,2.3-2.3h2
				c1.3,0,2.3,1,2.3,2.3S794.8,546.7,793.6,546.7z M781.5,546.7h-2c-1.3,0-2.3-1-2.3-2.3s1-2.3,2.3-2.3h2c1.3,0,2.3,1,2.3,2.3
				S782.7,546.7,781.5,546.7z M769.4,546.7h-2c-1.3,0-2.3-1-2.3-2.3s1-2.3,2.3-2.3h2c1.3,0,2.3,1,2.3,2.3S770.6,546.7,769.4,546.7z
				 M757.3,546.7h-2c-1.3,0-2.3-1-2.3-2.3s1-2.3,2.3-2.3h2c1.3,0,2.3,1,2.3,2.3S758.5,546.7,757.3,546.7z M745.2,546.7h-2
				c-1.3,0-2.3-1-2.3-2.3s1-2.3,2.3-2.3h2c1.3,0,2.3,1,2.3,2.3S746.4,546.7,745.2,546.7z M733.1,546.7h-2c-1.3,0-2.3-1-2.3-2.3
				s1-2.3,2.3-2.3h2c1.3,0,2.3,1,2.3,2.3S734.3,546.7,733.1,546.7z M721,546.7h-2c-1.3,0-2.3-1-2.3-2.3s1-2.3,2.3-2.3h2
				c1.3,0,2.3,1,2.3,2.3S722.2,546.7,721,546.7z M708.9,546.7h-2c-1.3,0-2.3-1-2.3-2.3s1-2.3,2.3-2.3h2c1.3,0,2.3,1,2.3,2.3
				S710.1,546.7,708.9,546.7z M696.8,546.7h-2c-1.3,0-2.3-1-2.3-2.3s1-2.3,2.3-2.3h2c1.3,0,2.3,1,2.3,2.3S698,546.7,696.8,546.7z
				 M684.7,546.7h-2c-1.3,0-2.3-1-2.3-2.3s1-2.3,2.3-2.3h2c1.3,0,2.3,1,2.3,2.3S686,546.7,684.7,546.7z M672.6,546.7h-2
				c-1.3,0-2.3-1-2.3-2.3s1-2.3,2.3-2.3h2c1.3,0,2.3,1,2.3,2.3S673.9,546.7,672.6,546.7z M660.5,546.7h-2c-1.3,0-2.3-1-2.3-2.3
				s1-2.3,2.3-2.3h2c1.3,0,2.3,1,2.3,2.3S661.8,546.7,660.5,546.7z M648.4,546.7h-2c-1.3,0-2.3-1-2.3-2.3s1-2.3,2.3-2.3h2
				c1.3,0,2.3,1,2.3,2.3S649.7,546.7,648.4,546.7z M636.3,546.7h-2c-1.3,0-2.3-1-2.3-2.3s1-2.3,2.3-2.3h2c1.3,0,2.3,1,2.3,2.3
				S637.6,546.7,636.3,546.7z M624.2,546.7h-2c-1.3,0-2.3-1-2.3-2.3s1-2.3,2.3-2.3h2c1.3,0,2.3,1,2.3,2.3S625.5,546.7,624.2,546.7z
				 M612.1,546.7h-2c-1.3,0-2.3-1-2.3-2.3s1-2.3,2.3-2.3h2c1.3,0,2.3,1,2.3,2.3S613.4,546.7,612.1,546.7z"/>
		</g>
		<g>
			<path class="st1" d="M411.3,726.3h-2c-1.3,0-2.3-1-2.3-2.3c0-1.3,1-2.3,2.3-2.3h2c1.3,0,2.3,1,2.3,2.3
				C413.6,725.3,412.6,726.3,411.3,726.3z M399.2,726.3h-2c-1.3,0-2.3-1-2.3-2.3c0-1.3,1-2.3,2.3-2.3h2c1.3,0,2.3,1,2.3,2.3
				C401.5,725.3,400.5,726.3,399.2,726.3z M387.1,726.3h-2c-1.3,0-2.3-1-2.3-2.3c0-1.3,1-2.3,2.3-2.3h2c1.3,0,2.3,1,2.3,2.3
				C389.4,725.3,388.4,726.3,387.1,726.3z M375,726.3h-2c-1.3,0-2.3-1-2.3-2.3c0-1.3,1-2.3,2.3-2.3h2c1.3,0,2.3,1,2.3,2.3
				C377.3,725.3,376.3,726.3,375,726.3z M362.9,726.3h-2c-1.3,0-2.3-1-2.3-2.3c0-1.3,1-2.3,2.3-2.3h2c1.3,0,2.3,1,2.3,2.3
				C365.2,725.3,364.2,726.3,362.9,726.3z M350.8,726.3h-2c-1.3,0-2.3-1-2.3-2.3c0-1.3,1-2.3,2.3-2.3h2c1.3,0,2.3,1,2.3,2.3
				C353.1,725.3,352.1,726.3,350.8,726.3z M338.7,726.3h-2c-1.3,0-2.3-1-2.3-2.3c0-1.3,1-2.3,2.3-2.3h2c1.3,0,2.3,1,2.3,2.3
				C341,725.3,340,726.3,338.7,726.3z M326.6,726.3h-2c-1.3,0-2.3-1-2.3-2.3c0-1.3,1-2.3,2.3-2.3h2c1.3,0,2.3,1,2.3,2.3
				C328.9,725.3,327.9,726.3,326.6,726.3z M314.5,726.3h-2c-1.3,0-2.3-1-2.3-2.3c0-1.3,1-2.3,2.3-2.3h2c1.3,0,2.3,1,2.3,2.3
				C316.8,725.3,315.8,726.3,314.5,726.3z M302.4,726.3h-2c-1.3,0-2.3-1-2.3-2.3c0-1.3,1-2.3,2.3-2.3h2c1.3,0,2.3,1,2.3,2.3
				C304.7,725.3,303.7,726.3,302.4,726.3z M290.3,726.3h-2c-1.3,0-2.3-1-2.3-2.3c0-1.3,1-2.3,2.3-2.3h2c1.3,0,2.3,1,2.3,2.3
				C292.6,725.3,291.6,726.3,290.3,726.3z M278.2,726.3h-2c-1.3,0-2.3-1-2.3-2.3c0-1.3,1-2.3,2.3-2.3h2c1.3,0,2.3,1,2.3,2.3
				C280.5,725.3,279.5,726.3,278.2,726.3z M266.1,726.3h-2c-1.3,0-2.3-1-2.3-2.3c0-1.3,1-2.3,2.3-2.3h2c1.3,0,2.3,1,2.3,2.3
				C268.4,725.3,267.4,726.3,266.1,726.3z"/>
		</g>
		<g>
			<path class="st1" d="M644.4,859.7h-2c-1.3,0-2.3-1-2.3-2.3s1-2.3,2.3-2.3h2c1.3,0,2.3,1,2.3,2.3S645.6,859.7,644.4,859.7z
				 M632.3,859.7h-2c-1.3,0-2.3-1-2.3-2.3s1-2.3,2.3-2.3h2c1.3,0,2.3,1,2.3,2.3S633.5,859.7,632.3,859.7z M620.2,859.7h-2
				c-1.3,0-2.3-1-2.3-2.3s1-2.3,2.3-2.3h2c1.3,0,2.3,1,2.3,2.3S621.4,859.7,620.2,859.7z M608.1,859.7h-2c-1.3,0-2.3-1-2.3-2.3
				s1-2.3,2.3-2.3h2c1.3,0,2.3,1,2.3,2.3S609.3,859.7,608.1,859.7z M596,859.7h-2c-1.3,0-2.3-1-2.3-2.3s1-2.3,2.3-2.3h2
				c1.3,0,2.3,1,2.3,2.3S597.2,859.7,596,859.7z M583.9,859.7h-2c-1.3,0-2.3-1-2.3-2.3s1-2.3,2.3-2.3h2c1.3,0,2.3,1,2.3,2.3
				S585.1,859.7,583.9,859.7z M571.8,859.7h-2c-1.3,0-2.3-1-2.3-2.3s1-2.3,2.3-2.3h2c1.3,0,2.3,1,2.3,2.3S573,859.7,571.8,859.7z
				 M559.7,859.7h-2c-1.3,0-2.3-1-2.3-2.3s1-2.3,2.3-2.3h2c1.3,0,2.3,1,2.3,2.3S560.9,859.7,559.7,859.7z M547.6,859.7h-2
				c-1.3,0-2.3-1-2.3-2.3s1-2.3,2.3-2.3h2c1.3,0,2.3,1,2.3,2.3S548.8,859.7,547.6,859.7z M535.5,859.7h-2c-1.3,0-2.3-1-2.3-2.3
				s1-2.3,2.3-2.3h2c1.3,0,2.3,1,2.3,2.3S536.7,859.7,535.5,859.7z"/>
		</g>
		<g>
			<path class="st1" d="M641.1,124.9c-1.3,0-2.4-0.9-2.6-2.2c-0.3-1.5,0.6-2.9,2.1-3.2c0.2,0,0.4-0.1,0.5-0.1c1.3,0,2.4,0.9,2.6,2.2
				c0.3,1.5-0.6,2.9-2.1,3.2C641.5,124.9,641.3,124.9,641.1,124.9L641.1,124.9z"/>
		</g>
		<g>
			<path class="st1" d="M488.9,390.3c-1.3,0-2.4-0.9-2.6-2.2c-0.3-1.5,0.6-2.9,2.1-3.2c0.2,0,0.4-0.1,0.5-0.1c1.3,0,2.4,0.9,2.6,2.2
				c0.1,0.7,0,1.4-0.4,2c-0.4,0.6-1,1-1.7,1.2C489.3,390.3,489.1,390.3,488.9,390.3z"/>
		</g>
		<g>
			<path class="st1" d="M373.7,510.1c-1.3,0-2.4-0.9-2.6-2.2c-0.1-0.7,0-1.4,0.4-2c0.4-0.6,1-1,1.7-1.2c0.2,0,0.4-0.1,0.5-0.1
				c1.3,0,2.4,0.9,2.6,2.2c0.1,0.7,0,1.4-0.4,2c-0.4,0.6-1,1-1.7,1.2C374,510.1,373.8,510.1,373.7,510.1L373.7,510.1z"/>
		</g>
		<g>
			<path class="st1" d="M244.9,777.9c-1.3,0-2.4-0.9-2.6-2.2c-0.3-1.5,0.6-2.9,2.1-3.2c0.2,0,0.4-0.1,0.5-0.1c1.3,0,2.4,0.9,2.6,2.2
				c0.1,0.7,0,1.4-0.4,2c-0.4,0.6-1,1-1.7,1.2C245.3,777.9,245.1,777.9,244.9,777.9L244.9,777.9z"/>
		</g>
		<g>
			<path class="st1" d="M284.2,797.6c-1.3,0-2.4-0.9-2.6-2.2c-0.1-0.7,0-1.4,0.4-2c0.4-0.6,1-1,1.7-1.2c0.2,0,0.4-0.1,0.5-0.1
				c1.3,0,2.4,0.9,2.6,2.2c0.1,0.7,0,1.4-0.4,2c-0.4,0.6-1,1-1.7,1.2C284.5,797.6,284.3,797.6,284.2,797.6L284.2,797.6z"/>
		</g>
		<g>
			<path class="st1" d="M254,814.3c-1.3,0-2.4-0.9-2.6-2.2c-0.1-0.7,0-1.4,0.4-2c0.4-0.6,1-1,1.7-1.2c0.2,0,0.4-0.1,0.5-0.1
				c1.3,0,2.4,0.9,2.6,2.2c0.3,1.5-0.6,2.9-2.1,3.2C254.4,814.2,254.2,814.3,254,814.3z"/>
		</g>
		<g>
			<path class="st1" d="M1005,802.9c-0.3,0-0.6,0-0.8-0.1c-1.4-0.5-2.2-2-1.7-3.4c0.4-1.1,1.4-1.9,2.6-1.9c0.3,0,0.6,0,0.8,0.1
				c1.4,0.5,2.2,2,1.7,3.4C1007.2,802.1,1006.1,802.9,1005,802.9L1005,802.9z"/>
		</g>
		<g>
			<path class="st1" d="M1041.3,778.2c-0.3,0-0.6,0-0.8-0.1c-0.7-0.2-1.2-0.7-1.6-1.3c-0.3-0.6-0.4-1.4-0.2-2.1
				c0.4-1.1,1.4-1.9,2.6-1.9c0.3,0,0.6,0,0.8,0.1c0.7,0.2,1.2,0.7,1.6,1.3c0.3,0.6,0.4,1.4,0.2,2.1
				C1043.5,777.5,1042.5,778.2,1041.3,778.2L1041.3,778.2z"/>
		</g>
		<g>
			<path class="st1" d="M1038.7,814.4c-0.3,0-0.6,0-0.8-0.1c-1.4-0.5-2.2-2-1.7-3.4c0.4-1.1,1.4-1.9,2.6-1.9c0.3,0,0.6,0,0.8,0.1
				c1.4,0.5,2.2,2,1.7,3.4C1041,813.6,1039.9,814.4,1038.7,814.4C1038.7,814.4,1038.7,814.4,1038.7,814.4z"/>
		</g>
		<g>
			<path class="st1" d="M288.5,904.8c-1.3,0-2.4-0.9-2.6-2.2c-0.3-1.5,0.6-2.9,2.1-3.2c0.2,0,0.4-0.1,0.5-0.1c1.3,0,2.4,0.9,2.6,2.2
				c0.1,0.7,0,1.4-0.4,2c-0.4,0.6-1,1-1.7,1.2C288.8,904.8,288.6,904.8,288.5,904.8L288.5,904.8z"/>
		</g>
		<g>
			<path class="st1" d="M992.2,928.9c-1.3,0-2.4-0.9-2.6-2.2c-0.1-0.7,0-1.4,0.4-2c0.4-0.6,1-1,1.7-1.2c0.2,0,0.4-0.1,0.5-0.1
				c1.3,0,2.4,0.9,2.6,2.2c0.1,0.7,0,1.4-0.4,2c-0.4,0.6-1,1-1.7,1.2C992.5,928.9,992.3,928.9,992.2,928.9z"/>
		</g>
		<g>
			<path class="st1" d="M895.9,318.3c-1.3,0-2.4-0.9-2.6-2.2c-0.3-1.5,0.6-2.9,2.1-3.2c0.2,0,0.4-0.1,0.5-0.1c1.3,0,2.4,0.9,2.6,2.2
				c0.1,0.7,0,1.4-0.4,2c-0.4,0.6-1,1-1.7,1.2C896.3,318.2,896.1,318.3,895.9,318.3L895.9,318.3z"/>
		</g>
		<g>
			<path class="st1" d="M895.9,335.6c-1.3,0-2.4-0.9-2.6-2.2c-0.3-1.5,0.6-2.9,2.1-3.2c0.2,0,0.4-0.1,0.5-0.1c1.3,0,2.4,0.9,2.6,2.2
				c0.3,1.5-0.6,2.9-2.1,3.2C896.3,335.6,896.1,335.6,895.9,335.6z"/>
		</g>
		<g>
			<path class="st1" d="M895.9,390c-1.3,0-2.4-0.9-2.6-2.2c-0.3-1.5,0.6-2.9,2.1-3.2c0.2,0,0.4-0.1,0.5-0.1c1.3,0,2.4,0.9,2.6,2.2
				c0.3,1.5-0.6,2.9-2.1,3.2C896.3,390,896.1,390,895.9,390z"/>
		</g>
		<g>
			<path class="st1" d="M895.9,411c-1.3,0-2.4-0.9-2.6-2.2c-0.3-1.5,0.6-2.9,2.1-3.2c0.2,0,0.4-0.1,0.5-0.1c1.3,0,2.4,0.9,2.6,2.2
				c0.3,1.5-0.6,2.9-2.1,3.2C896.3,411,896.1,411,895.9,411z"/>
		</g>
		<g>
			<path class="st1" d="M895.9,431.9c-1.3,0-2.4-0.9-2.6-2.2c-0.3-1.5,0.6-2.9,2.1-3.2c0.2,0,0.4-0.1,0.5-0.1c1.3,0,2.4,0.9,2.6,2.2
				c0.3,1.5-0.6,2.9-2.1,3.2C896.3,431.9,896.1,431.9,895.9,431.9z"/>
		</g>
		<g>
			<path class="st1" d="M808.1,410.2c-1.3,0-2.4-0.9-2.6-2.2c-0.3-1.5,0.6-2.9,2.1-3.2c0.2,0,0.4-0.1,0.5-0.1c1.3,0,2.4,0.9,2.6,2.2
				c0.1,0.7,0,1.4-0.4,2c-0.4,0.6-1,1-1.7,1.2C808.4,410.2,808.3,410.2,808.1,410.2z"/>
		</g>
		<g>
			<path class="st1" d="M805.9,515c-1.3,0-2.4-0.9-2.6-2.2c-0.1-0.7,0-1.4,0.4-2c0.4-0.6,1-1,1.7-1.2c0.2,0,0.4-0.1,0.5-0.1
				c1.3,0,2.4,0.9,2.6,2.2c0.3,1.5-0.6,2.9-2.1,3.2C806.3,515,806.1,515,805.9,515z"/>
		</g>
	</g>
</g>
</svg>
