<?xml version="1.0" encoding="UTF-8" standalone="no"?><!DOCTYPE svg PUBLIC "-//W3C//DTD SVG 1.1//EN" "http://www.w3.org/Graphics/SVG/1.1/DTD/svg11.dtd"><svg width="100%" height="100%" viewBox="0 0 100 100" version="1.1" xmlns="http://www.w3.org/2000/svg" xmlns:xlink="http://www.w3.org/1999/xlink" xml:space="preserve" xmlns:serif="http://www.serif.com/" style="fill-rule:evenodd;clip-rule:evenodd;stroke-linejoin:round;stroke-miterlimit:1.41421;"><g><path d="M87.723,36.441c-0.742,-2.411 -2.782,-4.081 -5.378,-4.452l-17.99,-2.596l-7.975,-16.321c-1.113,-2.225 -3.339,-3.709 -5.935,-3.709c-2.597,0 -4.822,1.484 -5.935,3.709l-7.975,16.321l-17.99,2.596c-2.597,0.371 -4.637,2.041 -5.379,4.452c-0.741,2.411 -0.185,5.007 1.67,6.862l13.168,12.611l-3.153,17.99c-0.371,2.597 0.556,5.008 2.596,6.492c2.04,1.483 4.822,1.669 7.048,0.556l3.709,-2.04l-3.895,8.902c-0.556,1.113 -0.371,2.411 0.371,3.524c0.742,1.113 1.855,1.669 3.153,1.669l25.594,0c1.299,0 2.411,-0.556 3.153,-1.669c0.742,-1.113 0.742,-2.411 0.371,-3.524l-4.08,-8.902l3.709,2.04c2.226,1.113 5.008,0.927 7.048,-0.556c2.04,-1.484 3.153,-4.081 2.596,-6.492l-3.153,-17.99l13.168,-12.611c1.67,-1.855 2.411,-4.451 1.484,-6.862Zm-55.454,40.245c-0.742,0.371 -1.483,0.371 -2.225,-0.185c-0.557,-0.371 -0.928,-1.113 -0.742,-2.04l3.709,-20.401l-14.837,-14.281c-0.556,-0.556 -0.742,-1.298 -0.556,-2.04c0.185,-0.742 0.927,-1.298 1.669,-1.298l20.401,-2.782l9.088,-18.547c0.371,-0.742 0.927,-1.113 1.854,-1.113c0.742,0 1.484,0.371 1.855,1.113l9.088,18.547l20.401,2.782c0.742,0.185 1.298,0.556 1.669,1.298c0.371,0.742 0,1.484 -0.557,2.04l-14.837,14.281l3.71,20.401c0.185,0.742 -0.186,1.484 -0.742,2.04c-0.557,0.371 -1.484,0.556 -2.04,0.185l-18.732,-9.644l-18.176,9.644Zm31.158,12.612l-25.965,0l7.604,-17.248l5.193,-2.782l5.193,2.782l7.975,17.248Z" style="fill:#fff;fill-rule:nonzero;"/><path d="M54.71,62.591c1.855,0.927 3.895,0.742 5.564,-0.371c1.67,-1.113 2.411,-3.153 2.04,-5.193l-0.741,-4.822l3.523,-3.338c1.484,-1.484 2.041,-3.524 1.299,-5.379c-0.557,-1.854 -2.226,-3.338 -4.266,-3.524l-4.822,-0.741l-2.226,-4.452c-0.927,-1.854 -2.782,-2.967 -4.636,-2.967c-2.04,0 -3.895,1.113 -4.637,2.967l-2.225,4.452l-4.822,0.741c-2.041,0.371 -3.71,1.67 -4.266,3.524c-0.557,1.855 -0.186,4.08 1.298,5.379l3.524,3.338l-0.927,4.822c-0.371,2.04 0.371,3.895 2.04,5.193c0.927,0.742 2.04,0.927 3.153,0.927c0.927,0 1.669,-0.185 2.411,-0.556l4.451,-2.225l4.265,2.225Zm-9.458,-1.484c-1.113,0.557 -2.597,0.557 -3.524,-0.185c-1.113,-0.742 -1.484,-2.04 -1.298,-3.338l1.112,-5.75l-4.265,-4.08c-0.928,-0.927 -1.298,-2.226 -0.928,-3.524c0.371,-1.298 1.484,-2.04 2.782,-2.225l5.935,-0.742l2.597,-5.379c0.556,-1.113 1.669,-1.854 2.967,-1.854c1.298,0 2.411,0.741 2.968,1.854l2.596,5.379l5.935,0.742c1.298,0.185 2.411,1.112 2.782,2.225c0.371,1.298 0,2.597 -0.927,3.524l-4.266,4.08l1.113,5.75c0.185,1.298 -0.186,2.596 -1.298,3.338c-1.113,0.742 -2.412,0.927 -3.524,0.185l-5.564,-2.782l-5.193,2.782Z" style="fill:#fff;fill-rule:nonzero;"/><path d="M55.452,83.919l-10.2,0c-0.557,0 -0.928,0.371 -0.928,0.928c0,0.556 0.371,0.927 0.928,0.927l10.2,0c0.557,0 0.928,-0.371 0.928,-0.927c0,-0.557 -0.371,-0.928 -0.928,-0.928Z" style="fill:#fff;fill-rule:nonzero;"/></g></svg>