<?xml version="1.0" encoding="UTF-8" standalone="no"?><!DOCTYPE svg PUBLIC "-//W3C//DTD SVG 1.1//EN" "http://www.w3.org/Graphics/SVG/1.1/DTD/svg11.dtd"><svg width="100%" height="100%" viewBox="0 0 287 451" version="1.1" xmlns="http://www.w3.org/2000/svg" xmlns:xlink="http://www.w3.org/1999/xlink" xml:space="preserve" xmlns:serif="http://www.serif.com/" style="fill-rule:evenodd;clip-rule:evenodd;stroke-linejoin:round;stroke-miterlimit:1.41421;"><path id="_Compound_Path_" d="M26.83,294.17c-16.422,17.083 -25.603,39.881 -25.603,63.578c0,50.327 41.413,91.74 91.74,91.74c23.704,0 46.508,-9.187 63.593,-25.618l10.12,-10.12l97.36,-97.36c10.43,-10.43 15.39,-24 15.16,-41.37c0,-3.56 0.07,-15.93 0.1,-33.45l0,-0.05c0.034,-0.259 0.034,-0.521 0,-0.78c0.06,-43.19 0.09,-116.74 0.09,-167.16l4.21,0c0.001,0 0.002,0 0.003,0c1.684,0 3.07,-1.386 3.07,-3.07c0,-0.047 -0.001,-0.093 -0.003,-0.14l0,-37.13c-0.022,-18.227 -15.013,-33.218 -33.24,-33.24l-131.55,0c-18.227,0.022 -33.218,15.013 -33.24,33.24l0,37.3c0,1.684 1.386,3.07 3.07,3.07l4.21,0l0,151.45l-69.09,69.11Zm246.43,-160l-171.19,0l0,-7.71l171.19,0c0,2.573 0,5.157 0,7.75l0,-0.04Zm0,6.13c0,2.56 0,5.13 0,7.71l-171.19,0l0,-7.71l171.19,0Zm0,-20l-171.19,0l0,-7.71l171.2,0c0,2.573 0,5.163 0,7.77l-0.01,-0.06Zm-171.19,33.89l171.18,0c0,2.567 0,5.137 0,7.71l-170.51,0c-0.226,0.001 -0.45,0.028 -0.67,0.08l0,-7.79Zm171.2,-47.67l-171.2,0l0,-7.79c0.22,0.052 0.444,0.079 0.67,0.08l170.53,0c0,2.51 0,5.06 0,7.71Zm-172.09,122c0.576,-0.575 0.9,-1.356 0.9,-2.17l0,-58.4c0.22,0.052 0.444,0.079 0.67,0.08l170.5,0c0,25.38 0,50.27 -0.06,69.75c-1.55,-0.11 -3.1,-0.18 -4.65,-0.18c-34.928,0.016 -63.661,28.762 -63.661,63.69c0,17.373 7.108,34.01 19.661,46.02l-32.66,32.64c-0.51,-1.373 -1.308,-2.621 -2.34,-3.66c-1.941,-1.924 -4.567,-3.003 -7.3,-3c0,-0.003 0,-0.007 0,-0.01c0,-5.683 -4.677,-10.36 -10.36,-10.36c0,0 0,0 0,0c-0.011,-5.67 -4.67,-10.334 -10.34,-10.35c0.008,-2.734 -1.072,-5.362 -3,-7.3c-1.938,-1.928 -4.566,-3.008 -7.3,-3c0,-0.01 0,-0.02 0,-0.03c0,-5.685 -4.675,-10.365 -10.36,-10.37c0.005,-2.733 -1.075,-5.36 -3,-7.3c-1.941,-1.93 -4.573,-3.01 -7.31,-3c0.005,-2.733 -1.075,-5.36 -3,-7.3c-1.941,-1.93 -4.573,-3.01 -7.31,-3c0.005,-2.733 -1.075,-5.36 -3,-7.3c-1.94,-1.925 -4.567,-3.005 -7.3,-3c-0.011,-5.67 -4.67,-10.334 -10.34,-10.35c0.008,-2.734 -1.072,-5.362 -3,-7.3c-1.938,-1.928 -4.566,-3.008 -7.3,-3c0,-0.027 0,-0.054 0,-0.081c0,-5.689 -4.681,-10.37 -10.37,-10.37c-0.046,0 -0.093,0 -0.14,0.001c0.005,-2.733 -1.075,-5.36 -3,-7.3c-1.561,-1.564 -3.584,-2.585 -5.77,-2.91l31.14,-31.14Zm61.18,180.95c-1.668,1.596 -4.332,1.596 -6,0c-0.794,-0.795 -1.24,-1.873 -1.24,-2.996c0,-2.326 1.914,-4.24 4.24,-4.24c2.326,0 4.24,1.914 4.24,4.24c0,1.123 -0.446,2.201 -1.24,2.996Zm-16.34,-10.34c-0.794,-0.795 -1.24,-1.873 -1.24,-2.996c0,-2.326 1.914,-4.24 4.24,-4.24c2.326,0 4.24,1.914 4.24,4.24c0,1.123 -0.446,2.201 -1.24,2.996c-1.654,1.643 -4.367,1.634 -6.01,-0.02l0.01,0.02Zm-10.35,-10.36c-0.795,-0.795 -1.243,-1.875 -1.243,-3c0,-2.327 1.916,-4.243 4.243,-4.243c1.125,0 2.205,0.448 3,1.243c0.796,0.795 1.244,1.875 1.244,3c0,1.125 -0.448,2.205 -1.244,3c-1.67,1.591 -4.33,1.591 -6,0Zm-10.34,-10.34c-0.795,-0.795 -1.243,-1.875 -1.243,-3c0,-2.327 1.916,-4.243 4.243,-4.243c1.125,0 2.205,0.448 3,1.243c0.796,0.795 1.244,1.875 1.244,3c0,1.125 -0.448,2.205 -1.244,3c-1.67,1.591 -4.33,1.591 -6,0Zm-10.34,-10.34c-0.795,-0.795 -1.243,-1.875 -1.243,-3c0,-2.327 1.916,-4.243 4.243,-4.243c1.125,0 2.205,0.448 3,1.243c0.796,0.795 1.244,1.875 1.244,3c0,1.125 -0.448,2.205 -1.244,3c-1.667,1.589 -4.323,1.589 -5.99,0l-0.01,0Zm-10.34,-10.34c-0.794,-0.795 -1.24,-1.873 -1.24,-2.996c0,-2.326 1.914,-4.24 4.24,-4.24c2.326,0 4.24,1.914 4.24,4.24c0,1.123 -0.446,2.201 -1.24,2.996c-1.667,1.589 -4.323,1.589 -5.99,0l-0.01,0Zm-20.67,-20.67c-0.794,-0.795 -1.24,-1.873 -1.24,-2.996c0,-2.326 1.914,-4.24 4.24,-4.24c2.326,0 4.24,1.914 4.24,4.24c0,1.123 -0.446,2.201 -1.24,2.996c-0.791,0.803 -1.873,1.256 -3,1.256c-1.127,0 -2.209,-0.453 -3,-1.256Zm-10.34,-10.34c-0.794,-0.795 -1.24,-1.873 -1.24,-2.996c0,-2.326 1.914,-4.24 4.24,-4.24c2.326,0 4.24,1.914 4.24,4.24c0,1.123 -0.446,2.201 -1.24,2.996c-1.648,1.642 -4.352,1.642 -6,0Zm-10.34,-10.34c-0.795,-0.795 -1.243,-1.875 -1.243,-3c0,-2.327 1.916,-4.243 4.243,-4.243c1.125,0 2.205,0.448 3,1.243c0.796,0.795 1.244,1.875 1.244,3c0,1.125 -0.448,2.205 -1.244,3c-1.67,1.591 -4.33,1.591 -6,0Zm-10.34,-10.34c-0.795,-0.795 -1.243,-1.875 -1.243,-3c0,-2.327 1.916,-4.243 4.243,-4.243c1.125,0 2.205,0.448 3,1.243c0.796,0.795 1.244,1.875 1.244,3c0,1.125 -0.448,2.205 -1.244,3c-1.67,1.591 -4.33,1.591 -6,0Zm-10.34,-10.34c-0.795,-0.795 -1.243,-1.875 -1.243,-3c0,-2.327 1.916,-4.243 4.243,-4.243c1.125,0 2.205,0.448 3,1.243c0.796,0.795 1.244,1.875 1.244,3c0,1.125 -0.448,2.205 -1.244,3c-1.667,1.589 -4.323,1.589 -5.99,0l-0.01,0Zm51.69,45.69c0.795,-0.795 1.875,-1.243 3,-1.243c2.327,0 4.243,1.916 4.243,4.243c0,1.125 -0.448,2.205 -1.243,3c-1.668,1.596 -4.332,1.596 -6,0c-0.796,-0.795 -1.244,-1.875 -1.244,-3c0,-1.125 0.448,-2.205 1.244,-3Zm72.37,57.69c-1.941,-1.93 -4.573,-3.01 -7.31,-3c0.005,-2.733 -1.075,-5.36 -3,-7.3c-1.94,-1.925 -4.567,-3.005 -7.3,-3c0.01,-2.737 -1.07,-5.369 -3,-7.31c-1.938,-1.928 -4.566,-3.008 -7.3,-3c-0.016,-5.666 -4.674,-10.324 -10.34,-10.34c-0.016,-5.666 -4.674,-10.324 -10.34,-10.34c0.005,-2.733 -1.075,-5.36 -3,-7.3c-1.941,-1.93 -4.573,-3.01 -7.31,-3c0.005,-2.733 -1.075,-5.36 -3,-7.3c-1.941,-1.93 -4.573,-3.01 -7.31,-3c0.005,-2.733 -1.075,-5.36 -3,-7.3c-1.941,-1.924 -4.567,-3.003 -7.3,-3c0.001,-0.06 0.002,-0.121 0.002,-0.181c0,-5.683 -4.677,-10.36 -10.36,-10.36c-0.044,0 -0.088,0 -0.132,0.001c0.01,-2.737 -1.07,-5.369 -3,-7.31c-1.938,-1.928 -4.566,-3.008 -7.3,-3c-0.016,-5.666 -4.674,-10.324 -10.34,-10.34c-0.011,-5.086 -3.771,-9.448 -8.8,-10.21l11,-11c0.762,5.029 5.124,8.789 10.21,8.8c0.016,5.666 4.674,10.324 10.34,10.34c0.011,5.668 4.672,10.329 10.34,10.34c0.011,5.668 4.672,10.329 10.34,10.34c0.011,5.663 4.667,10.319 10.33,10.33c0.016,5.666 4.674,10.324 10.34,10.34c0.016,5.666 4.674,10.324 10.34,10.34c0.016,5.666 4.674,10.324 10.34,10.34c0.011,5.668 4.672,10.329 10.34,10.34c0.011,5.668 4.672,10.329 10.34,10.34c0.011,5.663 4.667,10.319 10.33,10.33c-0.003,4.291 2.679,8.153 6.7,9.65l-9.46,9.46c-0.518,-1.387 -1.33,-2.646 -2.38,-3.69l-0.01,-0.01Zm-87.9,-123.1c1.125,-0.004 2.206,0.443 3,1.24c0.796,0.795 1.244,1.875 1.244,3c0,1.125 -0.448,2.205 -1.244,3c-1.668,1.596 -4.332,1.596 -6,0c-0.796,-0.795 -1.244,-1.875 -1.244,-3c0,-2.326 1.914,-4.24 4.24,-4.24c0.002,0 0.003,0 0.004,0Zm10.34,10.34c1.125,-0.004 2.206,0.443 3,1.24c0.796,0.795 1.244,1.875 1.244,3c0,1.125 -0.448,2.205 -1.244,3c-1.67,1.591 -4.33,1.591 -6,0c-0.796,-0.795 -1.244,-1.875 -1.244,-3c0,-2.326 1.914,-4.24 4.24,-4.24c0.002,0 0.003,0 0.004,0Zm10.34,10.34c1.125,-0.004 2.206,0.443 3,1.24c0.796,0.795 1.244,1.875 1.244,3c0,1.125 -0.448,2.205 -1.244,3c-1.67,1.591 -4.33,1.591 -6,0c-0.802,-0.796 -1.254,-1.88 -1.254,-3.01c0,-2.326 1.914,-4.24 4.24,-4.24c0.005,0 0.009,0 0.014,0l0,0.01Zm10.34,10.34c2.325,0.002 4.236,1.915 4.236,4.24c0,2.326 -1.914,4.24 -4.24,4.24c-2.326,0 -4.24,-1.914 -4.24,-4.24c0,-1.125 0.448,-2.205 1.244,-3c0.795,-0.796 1.875,-1.242 3,-1.24Zm10.34,10.34c0.001,0 0.002,0 0.004,0c2.326,0 4.24,1.914 4.24,4.24c0,1.125 -0.448,2.205 -1.244,3c-1.668,1.596 -4.332,1.596 -6,0c-0.796,-0.795 -1.244,-1.875 -1.244,-3c0,-2.326 1.914,-4.24 4.24,-4.24c0.002,0 0.003,0 0.004,0Zm10.34,10.34c0.001,0 0.002,0 0.004,0c2.326,0 4.24,1.914 4.24,4.24c0,1.125 -0.448,2.205 -1.244,3c-1.668,1.596 -4.332,1.596 -6,0c-0.796,-0.795 -1.244,-1.875 -1.244,-3c0,-2.326 1.914,-4.24 4.24,-4.24c0.002,0 0.003,0 0.004,0Zm10.34,10.34c1.125,-0.004 2.206,0.443 3,1.24c0.796,0.795 1.244,1.875 1.244,3c0,1.125 -0.448,2.205 -1.244,3c-1.668,1.596 -4.332,1.596 -6,0c-0.796,-0.795 -1.244,-1.875 -1.244,-3c0,-2.326 1.914,-4.24 4.24,-4.24c0.002,0 0.003,0 0.004,0Zm10.34,10.34c1.125,-0.004 2.206,0.443 3,1.24c0.796,0.795 1.244,1.875 1.244,3c0,1.125 -0.448,2.205 -1.244,3c-1.67,1.591 -4.33,1.591 -6,0c-0.796,-0.795 -1.244,-1.875 -1.244,-3c0,-2.326 1.914,-4.24 4.24,-4.24c0.002,0 0.003,0 0.004,0Zm10.34,10.34c1.125,-0.004 2.206,0.443 3,1.24c0.796,0.795 1.244,1.875 1.244,3c0,1.125 -0.448,2.205 -1.244,3c-1.67,1.591 -4.33,1.591 -6,0c-0.802,-0.796 -1.254,-1.88 -1.254,-3.01c0,-2.326 1.914,-4.24 4.24,-4.24c0.005,0 0.009,0 0.014,0l0,0.01Zm10.34,10.34c2.325,0.002 4.236,1.915 4.236,4.24c0,2.326 -1.914,4.24 -4.24,4.24c-2.326,0 -4.24,-1.914 -4.24,-4.24c0,-1.125 0.448,-2.205 1.244,-3c0.791,-0.797 1.867,-1.247 2.99,-1.25l0.01,0.01Zm10.34,10.34c2.325,0.002 4.236,1.915 4.236,4.24c0,2.326 -1.914,4.24 -4.24,4.24c-2.326,0 -4.24,-1.914 -4.24,-4.24c0,-1.125 0.448,-2.205 1.244,-3c0.791,-0.797 1.867,-1.247 2.99,-1.25l0.01,0.01Zm-110.73,-106.53c-1.668,1.596 -4.332,1.596 -6,0c-0.794,-0.795 -1.24,-1.873 -1.24,-2.996c0,-2.326 1.914,-4.24 4.24,-4.24c2.326,0 4.24,1.914 4.24,4.24c0,1.123 -0.446,2.201 -1.24,2.996Zm-40.28,146.7c-33.154,-33.229 -33.154,-87.831 0,-121.06l4.21,-4.21c0.762,5.033 5.13,8.793 10.22,8.8c0.011,5.668 4.672,10.329 10.34,10.34c0.011,5.668 4.672,10.329 10.34,10.34c0.011,5.663 4.667,10.319 10.33,10.33c0.011,5.668 4.672,10.329 10.34,10.34c0.016,5.666 4.674,10.324 10.34,10.34c0.016,5.666 4.674,10.324 10.34,10.34c0.016,5.666 4.674,10.324 10.34,10.34c0.011,5.668 4.672,10.329 10.34,10.34c0.011,5.668 4.672,10.329 10.34,10.34c0.011,5.663 4.667,10.319 10.33,10.33c0.007,4.284 2.674,8.141 6.68,9.66l-3.43,3.43c-33.229,33.154 -87.831,33.154 -121.06,0Zm228.55,-107.49l-30.89,30.89c-11.401,-10.859 -17.862,-25.935 -17.862,-41.68c0,-31.576 25.984,-57.56 57.56,-57.56c0.004,0 0.008,0 0.012,0c1.55,0 3.1,0.08 4.64,0.21c0,16.21 -0.06,27.74 -0.1,31.11c0.21,15.72 -4.2,27.82 -13.36,37.03Zm20.83,-278.84l0,34.24l-18,0l0,-59.76c10.76,3.845 17.988,14.094 18,25.52Zm-24.18,-26.94l0,61.18l-14.49,0l0,-61.35l11.54,0c0.986,0.003 1.97,0.06 2.95,0.17Zm-117.4,61.18l0,-61.35l14.46,0l0,61.34l-14.46,0.01Zm20.59,-61.34l14.46,0l0,61.34l-14.46,0l0,-61.34Zm20.59,0l14.46,0l0,61.34l-14.46,0l0,-61.34Zm20.59,0l14.46,0l0,61.34l-14.47,0l0.01,-61.34Zm20.59,0l14.45,0l0,61.34l-14.46,0l0.01,-61.34Zm-88.49,0l0,61.34l-14.46,0l0,-61.09c1.166,-0.163 2.342,-0.25 3.52,-0.26l10.94,0.01Zm-38,27.1c0.015,-11.209 6.978,-21.303 17.45,-25.3l0,59.53l-17.49,0l0.04,-34.23Zm178.44,40.37c0,5.73 0,12.15 0,19.06l-170.54,0c-0.226,0.001 -0.45,0.028 -0.67,0.08l0,-19.14l171.21,0Z" style="fill:#ff3019;fill-rule:nonzero;"/></svg>