<?xml version="1.0" encoding="utf-8"?>
<!-- Generator: Adobe Illustrator 22.0.1, SVG Export Plug-In . SVG Version: 6.00 Build 0)  -->
<svg version="1.1" xmlns="http://www.w3.org/2000/svg" xmlns:xlink="http://www.w3.org/1999/xlink" x="0px" y="0px"
	 viewBox="0 0 1556.4 1000" style="enable-background:new 0 0 1556.4 1000;" xml:space="preserve">
<style type="text/css">
	.st0{display:none;}
	.st1{display:inline;fill:#9F6BFF;}
	.st2{fill:#FCA203;}
	.st3{fill:#171A04;}
	.st4{fill:#FF3019;}
	.st5{fill:#1D9B50;}
	.st6{fill:#E2E2E2;}
	.st7{fill:#FFFFFF;}
</style>
<g id="Tansparency_test" class="st0">
	<rect x="25.5" y="91" class="st1" width="1448.1" height="891.3"/>
</g>
<g id="Christmas">
	<path class="st2" d="M1194.5,636.4c0,0-19.8,30.4-56.5,25.5c-36.6-4.9-40.2-37.1-39.3-43.5c3.3-22.9,34.9-11.2,34.9-11.2
		L1194.5,636.4z"/>
	<path class="st3" d="M1145.9,664.7c-2.6,0-5.3-0.2-8.1-0.5c-14-1.9-24.9-7.8-32.3-17.5c-8.3-11-9.7-24.1-9-28.7
		c0.9-6.1,3.6-10.5,8.2-13.2c11.1-6.6,29-0.1,29.8,0.2c0.1,0,0.1,0.1,0.2,0.1l60.9,29.2c0.6,0.3,1,0.8,1.2,1.5s0.1,1.3-0.3,1.9
		C1196.2,638,1178.4,664.7,1145.9,664.7z M1117.1,606.5c-3.6,0-7.2,0.6-10.1,2.3c-3.3,2-5.3,5.2-6,9.9c-0.3,2.4,0,14.5,8.1,25.2
		c6.6,8.7,16.4,14,29.2,15.7c29.1,3.9,47.4-15.7,52.6-22.3l-58.3-28C1131.8,609,1124.5,606.5,1117.1,606.5z"/>
	<path class="st3" d="M1219.5,649.1c-1.9,0-3.9-0.4-5.8-1.3l-45.4-21c-3.3-1.5-5.9-4.3-7.2-7.8c-1.3-3.5-1.1-7.2,0.4-10.6
		c1.5-3.3,4.3-5.9,7.8-7.2s7.2-1.1,10.6,0.4l45.4,21c3.3,1.5,5.9,4.3,7.2,7.8c1.3,3.5,1.1,7.2-0.4,10.6l0,0
		C1229.7,646.1,1224.7,649.1,1219.5,649.1z M1174.1,605.1c-1.1,0-2.1,0.2-3.2,0.6c-2.3,0.8-4.1,2.5-5.2,4.8c-1,2.2-1.1,4.7-0.3,7
		c0.8,2.3,2.5,4.1,4.8,5.2l45.4,21c4.6,2.1,10.1,0.1,12.2-4.5c1-2.2,1.1-4.7,0.3-7c-0.8-2.3-2.5-4.1-4.8-5.2l-45.4-21
		C1176.7,605.4,1175.4,605.1,1174.1,605.1z M1229.9,640.1L1229.9,640.1L1229.9,640.1z"/>
	<path class="st2" d="M1110.7,296.4l-4.8,11.9c0.9,6.4,0.6,13-1.1,19.7l-11.4,46.4c-1.3,5.1-3.2,9.8-5.8,14.1l22.6,9.8l16.8-40.5
		l1.9-42.8L1110.7,296.4z"/>
	<path class="st3" d="M1110.3,400.6c-0.3,0-0.6-0.1-0.9-0.2l-22.6-9.8c-0.6-0.3-1.1-0.8-1.3-1.4c-0.2-0.6-0.1-1.3,0.2-1.9
		c2.5-4.2,4.3-8.8,5.5-13.5l11.4-46.4c1.5-6.2,1.9-12.5,1-18.8c-0.1-0.4,0-0.8,0.1-1.2l4.8-11.9c0.3-0.7,0.9-1.3,1.7-1.4
		c0.8-0.2,1.6,0.1,2.1,0.7l18.2,18.7c0.4,0.5,0.7,1.1,0.7,1.7l-1.9,42.8c0,0.3-0.1,0.5-0.2,0.8l-16.8,40.5c-0.2,0.6-0.7,1-1.3,1.3
		C1110.9,400.6,1110.6,400.6,1110.3,400.6z M1090.9,387.4l18.1,7.9l15.7-38l1.8-41.4l-15-15.4l-3.2,8c0.8,6.7,0.4,13.4-1.2,19.9
		l-11.4,46.4C1094.6,379.2,1093,383.4,1090.9,387.4z"/>
	<path class="st4" d="M1016.8,409.7l-2.4-0.6c-28.3-7-45.5-35.5-38.6-63.8l11.4-46.4c0.5-2,1.1-3.9,1.8-5.8
		c-9.6-11.2-15.3-20-15.3-20c8.2,2.9,17.8,3.7,24.9,3.8c1.3-1.5,2.7-2.9,4.1-4.3c-44.6-30.5-75-109.3-75-109.3
		s-33.3,86.3-81.3,113.2c0,0,20,2,35.3-3.5c0,0-28.3,44.2-65.8,59.8c0,0,35.2,4.8,49.1,0c0,0-5.7,12.2-16.6,25.2l185.1,100.1
		l31.4-10.8C1042.5,444.3,1026.5,425.7,1016.8,409.7z"/>
	<path class="st5" d="M1178.9,603.8l43.1,19.9c19.7-34.9,18-97.7-18.9-160.8c-37.6-64.3-112.8-79.7-112.8-79.7
		c-10.2,22.8-35.6,35.8-60.7,29.6l-15.3-3.8c-2.4-0.6-4.6-1.3-6.8-2.2l-18.3,18.7l33.7,26.8l90.3,48.8l47,95.9l10.6,6.1
		C1173.4,602.5,1176.3,602.6,1178.9,603.8z"/>
	<path class="st3" d="M1222,626.1c-0.3,0-0.7-0.1-1-0.2l-43.1-19.9l0,0c-2-0.9-4.3-1.1-6.4-0.5c-0.6,0.2-1.3,0.1-1.8-0.2l-10.6-6.1
		c-0.4-0.2-0.7-0.6-0.9-1l-46.7-95.3l-89.7-48.5c-0.1-0.1-0.2-0.1-0.3-0.2l-33.7-26.8c-0.5-0.4-0.8-1-0.9-1.7c0-0.7,0.2-1.3,0.7-1.8
		l18.3-18.7c0.7-0.7,1.6-0.9,2.5-0.5c2.2,0.9,4.4,1.6,6.5,2.1l15.3,3.8c23.7,5.8,48.1-6.1,58.1-28.3c0.4-1,1.5-1.5,2.6-1.3
		c0.8,0.2,76.6,16.3,114.3,80.8c39,66.7,37.6,129.9,18.9,163.1C1223.6,625.7,1222.8,626.1,1222,626.1z M1179.9,601.8l41.1,19
		c17-32.4,17.4-92.7-19.9-156.6c-33.5-57.3-98-75.4-109.5-78.2c-11.3,23.1-37.3,35.4-62.6,29.1l-15.3-3.8c-1.9-0.5-3.8-1-5.7-1.7
		l-15.4,15.8l31.5,25l90.2,48.7c0.4,0.2,0.8,0.6,1,1l46.7,95.3l9.2,5.3C1174.1,600.2,1177.1,600.5,1179.9,601.8L1179.9,601.8z"/>
	<path class="st4" d="M392.2,676.5c0,0,41.3,18.4,66.3-7.5c19.8-20.4,7.2-55.5-5.5-62.4s-31.3,15.3-31.3,15.3L392.2,676.5z"/>
	<path class="st3" d="M423.3,685.2c-16.8,0-31-6.2-32-6.6c-0.6-0.3-1-0.8-1.2-1.4c-0.2-0.6-0.2-1.3,0.2-1.8l29.5-54.5
		c0.1-0.1,0.2-0.3,0.3-0.4c0.8-1,20-23.6,34.2-15.9c7.6,4.1,14.4,16.2,16.4,29.4c2.2,14.4-1.4,27.4-10.3,36.6
		C449.2,681.9,435.6,685.2,423.3,685.2z M395.5,675.3c8.9,3.3,41.1,13.1,61.4-7.9c10.6-10.9,10.2-25.2,9.1-32.7
		c-2-13.1-8.7-23.2-14-26.1c-9-4.9-23.3,8.7-28.3,14.6L395.5,675.3z"/>
	<path class="st5" d="M375.8,842.8c16.8,0,31.6,7.1,40.9,18.2c8.4-5.4,18.6-8.5,29.7-8.5c0.8,0,1.5,0,2.3,0.1l0.1-0.1
		c-40.6-6-60-68.6-60-68.6c25.3,6,39.3,0,39.3,0c-35.3-14-54-58.6-54-58.6c14,5.3,49.1,0,49.1,0c-37.5-17.3-65.8-66.5-65.8-66.5
		c15.3,6.1,35.3,3.9,35.3,3.9c-48-30-81.3-125.9-81.3-125.9s-33.3,95.9-81.3,125.9c0,0,20,2.2,35.3-3.9c0,0-28.3,49.2-65.8,66.5
		c0,0,35.2,5.3,49.1,0c0,0-18.7,44.6-54,58.6c0,0,14,6,39.3,0c0,0-14,45.2-43.1,62.5c1.8,1.4,3.6,3,5.1,4.8
		c10.1-11.4,25.4-18.6,42.7-18.6c30.3,0,54.9,22.5,54.9,50.2h17.7h13.4C328.1,860.2,349.6,842.8,375.8,842.8z"/>
	<path class="st4" d="M463.2,419.1c-24.5,3-45.8,0.6-45.8,0.6c13-2.2,22.4-7.4,29.9-13.9l-10.8-21.4l-2,2.3c0,0-69.5,57.6-86.2,87.7
		c-16.7,30.2-38.6,61.5-21.3,122.8c17.3,61.3,42.2,64.5,42.2,64.5l48.2-36.5l17.3-117.5l54.9-29.7l5.5-3
		C458.9,451.6,463.2,419.1,463.2,419.1z"/>
	<path class="st3" d="M369.3,664.1c-0.1,0-0.2,0-0.3,0c-1.1-0.1-26.6-4.1-44.1-66.2c-16.2-57.5,1.7-89.4,17.6-117.5
		c1.3-2.3,2.6-4.7,3.9-7c16.4-29.8,81.9-84.4,86.6-88.3l1.8-2.2c0.5-0.6,1.3-0.9,2-0.8c0.8,0.1,1.4,0.6,1.8,1.2l10.8,21.4
		c0.5,0.9,0.3,2.1-0.5,2.8c-5.3,4.6-11,8.1-17.4,10.7c8.3,0.2,19.6,0,31.5-1.4c0.7-0.1,1.4,0.2,1.9,0.7c0.5,0.5,0.7,1.2,0.6,1.9l0,0
		c-0.2,1.3-3.7,31.4,30.8,53.8c0.7,0.4,1.1,1.2,1,2c0,0.8-0.5,1.5-1.2,1.9l-59.3,32.1l-17.2,116.3c-0.1,0.6-0.4,1.1-0.9,1.5
		l-48.2,36.5C370.3,663.9,369.8,664.1,369.3,664.1z M436,388.5c-1.1,0.9-69.4,57.7-85.6,87.1c-1.3,2.3-2.6,4.7-3.9,7
		c-16.2,28.7-32.9,58.4-17.2,114c14.8,52.3,35.1,61.3,39.5,62.6l46.5-35.3l17.2-116.5c0.1-0.7,0.5-1.3,1.2-1.7l57-30.8
		c-28.1-19.9-30.1-44.8-29.9-53.2c-23.3,2.5-43.4,0.3-43.6,0.3c-1.1-0.1-2-1.1-2.1-2.2c0-1.1,0.8-2.1,1.9-2.3
		c10.6-1.8,19.6-5.8,27.4-12.2L436,388.5z M463.2,419.1L463.2,419.1L463.2,419.1z"/>
	<path class="st3" d="M169.9,773.5c-1.3,0-2.3-1-2.3-2.3V730c0-1.3,1-2.3,2.3-2.3c1.3,0,2.3,1,2.3,2.3v41.2
		C172.2,772.5,171.2,773.5,169.9,773.5z"/>
	<path class="st3" d="M152.1,763.2c-0.8,0-1.6-0.4-2-1.2c-0.6-1.1-0.3-2.5,0.8-3.2l35.7-20.6c1.1-0.6,2.5-0.3,3.2,0.8
		c0.6,1.1,0.3,2.5-0.8,3.2l-35.7,20.6C152.9,763.1,152.5,763.2,152.1,763.2z"/>
	<path class="st3" d="M187.8,763.2c-0.4,0-0.8-0.1-1.2-0.3l-35.7-20.6c-1.1-0.6-1.5-2-0.8-3.2c0.6-1.1,2.1-1.5,3.2-0.8l35.7,20.6
		c1.1,0.6,1.5,2,0.8,3.2C189.4,762.8,188.6,763.2,187.8,763.2z"/>
	<path class="st3" d="M842.6,235.5c-1.3,0-2.3-1-2.3-2.3V192c0-1.3,1-2.3,2.3-2.3c1.3,0,2.3,1,2.3,2.3v41.2
		C844.9,234.5,843.9,235.5,842.6,235.5z"/>
	<path class="st3" d="M824.8,225.2c-0.8,0-1.6-0.4-2-1.2c-0.6-1.1-0.3-2.5,0.8-3.2l35.7-20.6c1.1-0.6,2.5-0.3,3.2,0.8
		c0.6,1.1,0.3,2.5-0.8,3.2l-35.7,20.6C825.6,225.1,825.2,225.2,824.8,225.2z"/>
	<path class="st3" d="M860.5,225.2c-0.4,0-0.8-0.1-1.2-0.3l-35.7-20.6c-1.1-0.6-1.5-2-0.8-3.2c0.6-1.1,2-1.5,3.2-0.8l35.7,20.6
		c1.1,0.6,1.5,2,0.8,3.2C862,224.8,861.3,225.2,860.5,225.2z"/>
	<path class="st3" d="M1196.8,425.2c-1.3,0-2.3-1-2.3-2.3v-41.2c0-1.3,1-2.3,2.3-2.3s2.3,1,2.3,2.3v41.2
		C1199.1,424.2,1198.1,425.2,1196.8,425.2z"/>
	<path class="st3" d="M1178.9,414.9c-0.8,0-1.6-0.4-2-1.2c-0.6-1.1-0.3-2.5,0.8-3.2l35.7-20.6c1.1-0.6,2.5-0.3,3.2,0.8
		c0.6,1.1,0.3,2.5-0.8,3.2l-35.7,20.6C1179.7,414.8,1179.3,414.9,1178.9,414.9z"/>
	<path class="st3" d="M1214.6,414.9c-0.4,0-0.8-0.1-1.2-0.3l-35.7-20.6c-1.1-0.6-1.5-2-0.8-3.2c0.6-1.1,2-1.5,3.2-0.8l35.7,20.6
		c1.1,0.6,1.5,2,0.8,3.2C1216.2,414.5,1215.4,414.9,1214.6,414.9z"/>
	<path class="st3" d="M1316.7,605.3c-1.3,0-2.3-1-2.3-2.3v-41.2c0-1.3,1-2.3,2.3-2.3c1.3,0,2.3,1,2.3,2.3v41.2
		C1319,604.2,1318,605.3,1316.7,605.3z"/>
	<path class="st3" d="M1298.8,594.9c-0.8,0-1.6-0.4-2-1.2c-0.6-1.1-0.3-2.5,0.8-3.2l35.7-20.6c1.1-0.6,2.5-0.3,3.2,0.8
		c0.6,1.1,0.3,2.5-0.8,3.2l-35.7,20.6C1299.6,594.8,1299.2,594.9,1298.8,594.9z"/>
	<path class="st3" d="M1334.5,594.9c-0.4,0-0.8-0.1-1.2-0.3l-35.7-20.6c-1.1-0.6-1.5-2-0.8-3.2c0.6-1.1,2-1.5,3.2-0.8l35.7,20.6
		c1.1,0.6,1.5,2,0.8,3.2C1336.1,594.5,1335.3,594.9,1334.5,594.9z"/>
	<path class="st3" d="M235.1,556.1c-1.3,0-2.3-1-2.3-2.3v-22.4c0-1.3,1-2.3,2.3-2.3c1.3,0,2.3,1,2.3,2.3v22.4
		C237.4,555.1,236.4,556.1,235.1,556.1z"/>
	<path class="st3" d="M246.3,544.9h-22.4c-1.3,0-2.3-1-2.3-2.3c0-1.3,1-2.3,2.3-2.3h22.4c1.3,0,2.3,1,2.3,2.3
		C248.6,543.9,247.6,544.9,246.3,544.9z"/>
	<path class="st3" d="M460,830.8c-1.3,0-2.3-1-2.3-2.3v-22.4c0-1.3,1-2.3,2.3-2.3c1.3,0,2.3,1,2.3,2.3v22.4
		C462.3,829.7,461.3,830.8,460,830.8z"/>
	<path class="st3" d="M471.2,819.6h-22.4c-1.3,0-2.3-1-2.3-2.3c0-1.3,1-2.3,2.3-2.3h22.4c1.3,0,2.3,1,2.3,2.3
		C473.5,818.5,472.5,819.6,471.2,819.6z"/>
	<path class="st3" d="M792.8,285c-1.3,0-2.3-1-2.3-2.3v-22.4c0-1.3,1-2.3,2.3-2.3c1.3,0,2.3,1,2.3,2.3v22.4
		C795.1,283.9,794.1,285,792.8,285z"/>
	<path class="st3" d="M804,273.8h-22.4c-1.3,0-2.3-1-2.3-2.3c0-1.3,1-2.3,2.3-2.3H804c1.3,0,2.3,1,2.3,2.3
		C806.3,272.7,805.3,273.8,804,273.8z"/>
	<path class="st3" d="M1317.8,528.8c-1.3,0-2.3-1-2.3-2.3v-22.4c0-1.3,1-2.3,2.3-2.3c1.3,0,2.3,1,2.3,2.3v22.4
		C1320.1,527.8,1319.1,528.8,1317.8,528.8z"/>
	<path class="st3" d="M1329,517.6h-22.4c-1.3,0-2.3-1-2.3-2.3c0-1.3,1-2.3,2.3-2.3h22.4c1.3,0,2.3,1,2.3,2.3
		C1331.3,516.6,1330.3,517.6,1329,517.6z"/>
	<polygon class="st2" points="854.5,361.3 938.7,406.8 864.8,442.9 	"/>
	<path class="st3" d="M864.8,445.2c-0.4,0-0.8-0.1-1.1-0.3c-0.7-0.4-1.1-1-1.2-1.7l-10.3-81.6c-0.1-0.9,0.3-1.7,1-2.2
		c0.7-0.5,1.6-0.5,2.4-0.1l84.2,45.5c0.8,0.4,1.2,1.2,1.2,2.1c0,0.9-0.5,1.6-1.3,2l-73.9,36C865.5,445.1,865.1,445.2,864.8,445.2z
		 M857.3,365.5l9.4,73.9l67-32.7L857.3,365.5z"/>
	<polygon class="st4" points="938.7,406.8 1022.9,452.4 949,488.4 	"/>
	<path class="st3" d="M949,490.7c-0.4,0-0.8-0.1-1.1-0.3c-0.7-0.4-1.1-1-1.2-1.7l-10.3-81.6c-0.1-0.9,0.3-1.7,1-2.2
		c0.7-0.5,1.6-0.5,2.4-0.1l84.2,45.5c0.8,0.4,1.2,1.2,1.2,2.1c0,0.9-0.5,1.6-1.3,2l-73.9,36C949.7,490.7,949.3,490.7,949,490.7z
		 M941.5,411l9.4,73.9l67-32.7L941.5,411z"/>
	<polygon class="st2" points="1022.9,452.4 1107.1,497.9 1033.2,534 	"/>
	<path class="st3" d="M1033.2,536.3c-0.4,0-0.8-0.1-1.1-0.3c-0.7-0.4-1.1-1-1.2-1.7l-10.3-81.6c-0.1-0.9,0.3-1.7,1-2.2
		c0.7-0.5,1.6-0.5,2.4-0.1l84.2,45.5c0.8,0.4,1.2,1.2,1.2,2.1c0,0.9-0.5,1.6-1.3,2l-73.9,36C1033.9,536.2,1033.6,536.3,1033.2,536.3
		z M1025.8,456.5l9.4,73.9l67-32.7L1025.8,456.5z"/>
	<polygon class="st4" points="780.1,321.1 780.1,393.5 780.5,397.4 854.5,361.3 	"/>
	<path class="st3" d="M780.5,399.7c-0.4,0-0.8-0.1-1.1-0.3c-0.7-0.4-1.1-1-1.2-1.7l-0.5-3.8c0-0.1,0-0.2,0-0.3v-72.4
		c0-0.8,0.4-1.6,1.1-2c0.7-0.4,1.6-0.4,2.3,0l74.4,40.2c0.8,0.4,1.2,1.2,1.2,2.1c0,0.9-0.5,1.6-1.3,2l-73.9,36
		C781.2,399.6,780.9,399.7,780.5,399.7z M782.4,393.4l0.1,0.5l67-32.7l-67-36.2V393.4z"/>
	<path class="st3" d="M1108,576.9c-0.4,0-0.7-0.1-1.1-0.3L779.4,399.4c-1.1-0.6-1.5-2-0.9-3.1c0.6-1.1,2-1.5,3.1-0.9l327.5,177.2
		c1.1,0.6,1.5,2,0.9,3.1C1109.7,576.5,1108.9,576.9,1108,576.9z"/>
	<path class="st3" d="M116.6,897.8c-8.4,0-15.2-6.8-15.2-15.2c0-8.4,6.8-15.2,15.2-15.2c8.4,0,15.2,6.8,15.2,15.2
		C131.8,891,125,897.8,116.6,897.8z M116.6,872.1c-5.8,0-10.6,4.7-10.6,10.6s4.7,10.6,10.6,10.6c5.8,0,10.6-4.7,10.6-10.6
		S122.4,872.1,116.6,872.1z"/>
	<path class="st3" d="M1432.4,897.8c-8.4,0-15.2-6.8-15.2-15.2c0-8.4,6.8-15.2,15.2-15.2c8.4,0,15.2,6.8,15.2,15.2
		C1447.6,891,1440.8,897.8,1432.4,897.8z M1432.4,872.1c-5.8,0-10.6,4.7-10.6,10.6s4.7,10.6,10.6,10.6c5.8,0,10.6-4.7,10.6-10.6
		S1438.2,872.1,1432.4,872.1z"/>
	<path class="st3" d="M1419.5,884.9H129.5c-1.3,0-2.3-1-2.3-2.3s1-2.3,2.3-2.3h1290.1c1.3,0,2.3,1,2.3,2.3
		S1420.8,884.9,1419.5,884.9z"/>
	<path class="st3" d="M1068.1,884.9h-573c-1.3,0-2.3-1-2.3-2.3V553c0-1.3,1-2.3,2.3-2.3h573c1.3,0,2.3,1,2.3,2.3v329.7
		C1070.4,883.9,1069.4,884.9,1068.1,884.9z M497.4,880.3h568.4V555.3H497.4V880.3z"/>
	<path class="st2" d="M723.4,210.5c0-23.4,15.5-43.1,36.8-49.5c-10.4-7.2-23.1-11.5-36.8-11.5c-35.7,0-64.6,28.9-64.6,64.6
		c0,35.7,28.9,64.6,64.6,64.6c17,0,32.4-6.5,43.9-17.2C742.5,257.9,723.4,236.4,723.4,210.5z"/>
	<path class="st5" d="M985.2,760.2c1.7-7.6,1.4-28.9,2.2-31.2c0.2-0.6,0.9-1.7,1.8-3.1v-17.1c-6.1-3.1-15.6-5.5-12-10
		c4.9-6.2,9.8-14.2,7.8-16.9c-2-2.7,2-21.8,0.2-44.9c-0.9-12.3,1.5-23.2,4-30.7v-10.6H574v65.5c6.6,4.8,13.3,11,13.3,16.7
		c0,9.7-8.5,13.3-13.3,15.2v6.7c2.5,3.2,5.9,7.4,7.1,11.8c2.2,8.4-2.7,12.3-4.9,17.3c-0.7,1.6-1.5,4.6-2.2,8.1v29.3
		c2.1,5.9,5,12.7,5.3,18.2c0.4,8.4,3.6,20,4.4,32c0.7,9.7-2.9,17.1-6.9,23.1h161.6l7.9-15.5l13.5,15.5h6.3c1-4.9,5.1-10.1,18.9-9.3
		c17.6,0.9,29.4,5.9,37.5,9.3H973c1.2-0.8,2.2-1.7,2.9-2.7c6.2-8.4,8.9-10.7,13.3-10.7v-46.7C986.5,772.1,984.3,764,985.2,760.2z"/>
	<path class="st3" d="M973,842H822.4c-0.3,0-0.6-0.1-0.9-0.2c-8.3-3.5-19.6-8.3-36.7-9.2c-9.9-0.5-15.4,2-16.5,7.5
		c-0.2,1.1-1.2,1.9-2.3,1.9h-6.3c-0.7,0-1.3-0.3-1.7-0.8l-11.2-13l-6.4,12.5c-0.4,0.8-1.2,1.3-2.1,1.3H576.8c-0.9,0-1.6-0.5-2-1.2
		c-0.4-0.8-0.4-1.7,0.1-2.4c3.4-5.1,7.2-12.2,6.5-21.6c-0.5-6.1-1.5-12-2.5-17.7c-0.9-5.2-1.8-10.1-2-14.3c-0.2-4.2-2.1-9.3-4-14.3
		c-0.4-1.1-0.8-2.1-1.2-3.2c-0.1-0.3-0.1-0.5-0.1-0.8v-29.3c0-0.2,0-0.3,0-0.5c0.5-2.7,1.4-6.4,2.4-8.6c0.6-1.4,1.4-2.7,2.2-3.9
		c2.1-3.5,4-6.5,2.6-11.8c-0.9-3.5-3.7-7.1-6-10l-0.7-1c-0.3-0.4-0.5-0.9-0.5-1.4v-6.7c0-0.9,0.6-1.8,1.4-2.1
		c5.7-2.3,11.9-5.4,11.9-13.1c0-3.8-4.4-9.1-12.4-14.8c-0.6-0.4-1-1.1-1-1.9v-65.5c0-1.3,1-2.3,2.3-2.3h415.3c1.3,0,2.3,1,2.3,2.3
		v10.6c0,0.2,0,0.5-0.1,0.7c-2.3,6.9-4.8,17.7-3.9,29.8c1,13,0.2,24.5-0.3,32.9c-0.3,4.8-0.7,9.8-0.2,10.9c3,4-2.7,12.8-7.9,19.5
		c-0.3,0.3-0.3,0.5-0.3,0.5c0.2,1.1,4.9,3.1,7.1,4.1c1.5,0.6,3,1.3,4.4,2c0.8,0.4,1.3,1.2,1.3,2.1V726c0,0.4-0.1,0.9-0.3,1.2
		l-0.2,0.3c-0.6,0.9-1.3,2-1.4,2.4c-0.2,0.9-0.4,5.7-0.5,9.9c-0.2,7.3-0.5,16.4-1.6,20.9l0,0c-0.6,2.7,0.9,9.5,3.9,18.2
		c0.1,0.2,0.1,0.5,0.1,0.8v46.7c0,1.3-1,2.3-2.3,2.3c-3.2,0-5.3,1.4-11.5,9.7c-0.8,1.1-1.9,2.1-3.4,3.2C974,841.9,973.5,842,973,842
		z M822.9,837.4h149.4c0.8-0.6,1.4-1.2,1.8-1.7c5.4-7.3,8.5-10.6,12.9-11.4v-44.2c-3.5-9.8-4.8-16.7-4-20.4l0,0
		c1-4.1,1.3-12.9,1.5-20c0.2-7.5,0.4-10.2,0.9-11.4c0.3-0.7,0.8-1.6,1.6-2.9v-14.9c-0.9-0.4-1.9-0.8-2.8-1.2c-4.6-2-8.9-3.8-9.8-7.2
		c-0.3-1-0.3-2.7,1.1-4.5c6-7.7,8.2-13,7.7-14.1c-1.3-1.7-1.2-4.9-0.6-13.8c0.6-8.3,1.3-19.6,0.3-32.2c-1-12.7,1.6-23.9,4-31.2v-7.9
		H576.3v62c8.8,6.6,13.3,12.6,13.3,17.9c0,10.3-8.4,14.7-13.3,16.8v4.4l0.2,0.3c2.5,3.2,5.6,7.2,6.8,11.7c1.9,7.3-0.9,11.8-3.1,15.4
		c-0.7,1.2-1.4,2.3-1.9,3.4c-0.6,1.3-1.3,4-2,7.4v28.7c0.3,0.9,0.7,1.8,1,2.8c2,5.3,4,10.8,4.3,15.7c0.2,3.9,1,8.7,1.9,13.8
		c1,5.5,2.1,11.8,2.5,18.2c0.6,8.8-2,15.6-5.1,21h156l7.3-14.3c0.3-0.7,1-1.1,1.8-1.2c0.7-0.1,1.5,0.2,2,0.8l12.8,14.8h3.4
		c1.7-5,6.9-10.1,20.8-9.3C802.7,829,814.8,834,822.9,837.4z M985.2,760.2L985.2,760.2L985.2,760.2z"/>
	<path class="st3" d="M1165.5,865h-2c-1.3,0-2.3-1-2.3-2.3c0-1.3,1-2.3,2.3-2.3h2c1.3,0,2.3,1,2.3,2.3
		C1167.8,864,1166.8,865,1165.5,865z M1153.2,865h-2c-1.3,0-2.3-1-2.3-2.3c0-1.3,1-2.3,2.3-2.3h2c1.3,0,2.3,1,2.3,2.3
		C1155.5,864,1154.5,865,1153.2,865z M1141,865h-2c-1.3,0-2.3-1-2.3-2.3c0-1.3,1-2.3,2.3-2.3h2c1.3,0,2.3,1,2.3,2.3
		C1143.3,864,1142.2,865,1141,865z M1128.7,865h-2c-1.3,0-2.3-1-2.3-2.3c0-1.3,1-2.3,2.3-2.3h2c1.3,0,2.3,1,2.3,2.3
		C1131,864,1130,865,1128.7,865z M1116.4,865h-2c-1.3,0-2.3-1-2.3-2.3c0-1.3,1-2.3,2.3-2.3h2c1.3,0,2.3,1,2.3,2.3
		C1118.7,864,1117.7,865,1116.4,865z M1104.1,865h-2c-1.3,0-2.3-1-2.3-2.3c0-1.3,1-2.3,2.3-2.3h2c1.3,0,2.3,1,2.3,2.3
		C1106.4,864,1105.4,865,1104.1,865z M1091.8,865h-2c-1.3,0-2.3-1-2.3-2.3c0-1.3,1-2.3,2.3-2.3h2c1.3,0,2.3,1,2.3,2.3
		C1094.2,864,1093.1,865,1091.8,865z M1079.6,865h-2c-1.3,0-2.3-1-2.3-2.3c0-1.3,1-2.3,2.3-2.3h2c1.3,0,2.3,1,2.3,2.3
		C1081.9,864,1080.8,865,1079.6,865z M1067.3,865h-2c-1.3,0-2.3-1-2.3-2.3c0-1.3,1-2.3,2.3-2.3h2c1.3,0,2.3,1,2.3,2.3
		C1069.6,864,1068.6,865,1067.3,865z M1055,865h-2c-1.3,0-2.3-1-2.3-2.3c0-1.3,1-2.3,2.3-2.3h2c1.3,0,2.3,1,2.3,2.3
		C1057.3,864,1056.3,865,1055,865z M1042.7,865h-2c-1.3,0-2.3-1-2.3-2.3c0-1.3,1-2.3,2.3-2.3h2c1.3,0,2.3,1,2.3,2.3
		C1045,864,1044,865,1042.7,865z M1030.5,865h-2c-1.3,0-2.3-1-2.3-2.3c0-1.3,1-2.3,2.3-2.3h2c1.3,0,2.3,1,2.3,2.3
		C1032.8,864,1031.7,865,1030.5,865z M1018.2,865h-2c-1.3,0-2.3-1-2.3-2.3c0-1.3,1-2.3,2.3-2.3h2c1.3,0,2.3,1,2.3,2.3
		C1020.5,864,1019.4,865,1018.2,865z M1005.9,865h-2c-1.3,0-2.3-1-2.3-2.3c0-1.3,1-2.3,2.3-2.3h2c1.3,0,2.3,1,2.3,2.3
		C1008.2,864,1007.2,865,1005.9,865z M993.6,865h-2c-1.3,0-2.3-1-2.3-2.3c0-1.3,1-2.3,2.3-2.3h2c1.3,0,2.3,1,2.3,2.3
		C995.9,864,994.9,865,993.6,865z M981.3,865h-2c-1.3,0-2.3-1-2.3-2.3c0-1.3,1-2.3,2.3-2.3h2c1.3,0,2.3,1,2.3,2.3
		C983.6,864,982.6,865,981.3,865z M969.1,865h-2c-1.3,0-2.3-1-2.3-2.3c0-1.3,1-2.3,2.3-2.3h2c1.3,0,2.3,1,2.3,2.3
		C971.4,864,970.3,865,969.1,865z M956.8,865h-2c-1.3,0-2.3-1-2.3-2.3c0-1.3,1-2.3,2.3-2.3h2c1.3,0,2.3,1,2.3,2.3
		C959.1,864,958.1,865,956.8,865z M944.5,865h-2c-1.3,0-2.3-1-2.3-2.3c0-1.3,1-2.3,2.3-2.3h2c1.3,0,2.3,1,2.3,2.3
		C946.8,864,945.8,865,944.5,865z M932.2,865h-2c-1.3,0-2.3-1-2.3-2.3c0-1.3,1-2.3,2.3-2.3h2c1.3,0,2.3,1,2.3,2.3
		C934.5,864,933.5,865,932.2,865z M919.9,865h-2c-1.3,0-2.3-1-2.3-2.3c0-1.3,1-2.3,2.3-2.3h2c1.3,0,2.3,1,2.3,2.3
		C922.3,864,921.2,865,919.9,865z M907.7,865h-2c-1.3,0-2.3-1-2.3-2.3c0-1.3,1-2.3,2.3-2.3h2c1.3,0,2.3,1,2.3,2.3
		C910,864,908.9,865,907.7,865z M895.4,865h-2c-1.3,0-2.3-1-2.3-2.3c0-1.3,1-2.3,2.3-2.3h2c1.3,0,2.3,1,2.3,2.3
		C897.7,864,896.7,865,895.4,865z M883.1,865h-2c-1.3,0-2.3-1-2.3-2.3c0-1.3,1-2.3,2.3-2.3h2c1.3,0,2.3,1,2.3,2.3
		C885.4,864,884.4,865,883.1,865z M870.8,865h-2c-1.3,0-2.3-1-2.3-2.3c0-1.3,1-2.3,2.3-2.3h2c1.3,0,2.3,1,2.3,2.3
		C873.1,864,872.1,865,870.8,865z M858.6,865h-2c-1.3,0-2.3-1-2.3-2.3c0-1.3,1-2.3,2.3-2.3h2c1.3,0,2.3,1,2.3,2.3
		C860.9,864,859.8,865,858.6,865z M846.3,865h-2c-1.3,0-2.3-1-2.3-2.3c0-1.3,1-2.3,2.3-2.3h2c1.3,0,2.3,1,2.3,2.3
		C848.6,864,847.6,865,846.3,865z M834,865h-2c-1.3,0-2.3-1-2.3-2.3c0-1.3,1-2.3,2.3-2.3h2c1.3,0,2.3,1,2.3,2.3
		C836.3,864,835.3,865,834,865z M821.7,865h-2c-1.3,0-2.3-1-2.3-2.3c0-1.3,1-2.3,2.3-2.3h2c1.3,0,2.3,1,2.3,2.3
		C824,864,823,865,821.7,865z M809.4,865h-2c-1.3,0-2.3-1-2.3-2.3c0-1.3,1-2.3,2.3-2.3h2c1.3,0,2.3,1,2.3,2.3
		C811.8,864,810.7,865,809.4,865z M797.2,865h-2c-1.3,0-2.3-1-2.3-2.3c0-1.3,1-2.3,2.3-2.3h2c1.3,0,2.3,1,2.3,2.3
		C799.5,864,798.4,865,797.2,865z M784.9,865h-2c-1.3,0-2.3-1-2.3-2.3c0-1.3,1-2.3,2.3-2.3h2c1.3,0,2.3,1,2.3,2.3
		C787.2,864,786.2,865,784.9,865z M772.6,865h-2c-1.3,0-2.3-1-2.3-2.3c0-1.3,1-2.3,2.3-2.3h2c1.3,0,2.3,1,2.3,2.3
		C774.9,864,773.9,865,772.6,865z M760.3,865h-2c-1.3,0-2.3-1-2.3-2.3c0-1.3,1-2.3,2.3-2.3h2c1.3,0,2.3,1,2.3,2.3
		C762.6,864,761.6,865,760.3,865z M748.1,865h-2c-1.3,0-2.3-1-2.3-2.3c0-1.3,1-2.3,2.3-2.3h2c1.3,0,2.3,1,2.3,2.3
		C750.4,864,749.3,865,748.1,865z M735.8,865h-2c-1.3,0-2.3-1-2.3-2.3c0-1.3,1-2.3,2.3-2.3h2c1.3,0,2.3,1,2.3,2.3
		C738.1,864,737,865,735.8,865z M723.5,865h-2c-1.3,0-2.3-1-2.3-2.3c0-1.3,1-2.3,2.3-2.3h2c1.3,0,2.3,1,2.3,2.3
		C725.8,864,724.8,865,723.5,865z M711.2,865h-2c-1.3,0-2.3-1-2.3-2.3c0-1.3,1-2.3,2.3-2.3h2c1.3,0,2.3,1,2.3,2.3
		C713.5,864,712.5,865,711.2,865z M698.9,865h-2c-1.3,0-2.3-1-2.3-2.3c0-1.3,1-2.3,2.3-2.3h2c1.3,0,2.3,1,2.3,2.3
		C701.2,864,700.2,865,698.9,865z M686.7,865h-2c-1.3,0-2.3-1-2.3-2.3c0-1.3,1-2.3,2.3-2.3h2c1.3,0,2.3,1,2.3,2.3
		C689,864,687.9,865,686.7,865z M674.4,865h-2c-1.3,0-2.3-1-2.3-2.3c0-1.3,1-2.3,2.3-2.3h2c1.3,0,2.3,1,2.3,2.3
		C676.7,864,675.7,865,674.4,865z M662.1,865h-2c-1.3,0-2.3-1-2.3-2.3c0-1.3,1-2.3,2.3-2.3h2c1.3,0,2.3,1,2.3,2.3
		C664.4,864,663.4,865,662.1,865z M649.8,865h-2c-1.3,0-2.3-1-2.3-2.3c0-1.3,1-2.3,2.3-2.3h2c1.3,0,2.3,1,2.3,2.3
		C652.1,864,651.1,865,649.8,865z M637.5,865h-2c-1.3,0-2.3-1-2.3-2.3c0-1.3,1-2.3,2.3-2.3h2c1.3,0,2.3,1,2.3,2.3
		C639.9,864,638.8,865,637.5,865z M625.3,865h-2c-1.3,0-2.3-1-2.3-2.3c0-1.3,1-2.3,2.3-2.3h2c1.3,0,2.3,1,2.3,2.3
		C627.6,864,626.5,865,625.3,865z M613,865h-2c-1.3,0-2.3-1-2.3-2.3c0-1.3,1-2.3,2.3-2.3h2c1.3,0,2.3,1,2.3,2.3
		C615.3,864,614.3,865,613,865z M600.7,865h-2c-1.3,0-2.3-1-2.3-2.3c0-1.3,1-2.3,2.3-2.3h2c1.3,0,2.3,1,2.3,2.3
		C603,864,602,865,600.7,865z M588.4,865h-2c-1.3,0-2.3-1-2.3-2.3c0-1.3,1-2.3,2.3-2.3h2c1.3,0,2.3,1,2.3,2.3
		C590.7,864,589.7,865,588.4,865z M576.2,865h-2c-1.3,0-2.3-1-2.3-2.3c0-1.3,1-2.3,2.3-2.3h2c1.3,0,2.3,1,2.3,2.3
		C578.5,864,577.4,865,576.2,865z M563.9,865h-2c-1.3,0-2.3-1-2.3-2.3c0-1.3,1-2.3,2.3-2.3h2c1.3,0,2.3,1,2.3,2.3
		C566.2,864,565.2,865,563.9,865z M551.6,865h-2c-1.3,0-2.3-1-2.3-2.3c0-1.3,1-2.3,2.3-2.3h2c1.3,0,2.3,1,2.3,2.3
		C553.9,864,552.9,865,551.6,865z"/>
	<path class="st3" d="M1394.7,912.8h-0.3c-1.3,0-2.3-1-2.3-2.3s1-2.3,2.3-2.3h0.3c1.3,0,2.3,1,2.3,2.3S1396,912.8,1394.7,912.8z
		 M1384.2,912.8h-2c-1.3,0-2.3-1-2.3-2.3s1-2.3,2.3-2.3h2c1.3,0,2.3,1,2.3,2.3S1385.4,912.8,1384.2,912.8z M1371.9,912.8h-2
		c-1.3,0-2.3-1-2.3-2.3s1-2.3,2.3-2.3h2c1.3,0,2.3,1,2.3,2.3S1373.2,912.8,1371.9,912.8z M1359.6,912.8h-2c-1.3,0-2.3-1-2.3-2.3
		s1-2.3,2.3-2.3h2c1.3,0,2.3,1,2.3,2.3S1360.9,912.8,1359.6,912.8z M1347.3,912.8h-2c-1.3,0-2.3-1-2.3-2.3s1-2.3,2.3-2.3h2
		c1.3,0,2.3,1,2.3,2.3S1348.6,912.8,1347.3,912.8z M1335.1,912.8h-2c-1.3,0-2.3-1-2.3-2.3s1-2.3,2.3-2.3h2c1.3,0,2.3,1,2.3,2.3
		S1336.3,912.8,1335.1,912.8z M1322.8,912.8h-2c-1.3,0-2.3-1-2.3-2.3s1-2.3,2.3-2.3h2c1.3,0,2.3,1,2.3,2.3S1324,912.8,1322.8,912.8z
		 M1310.5,912.8h-2c-1.3,0-2.3-1-2.3-2.3s1-2.3,2.3-2.3h2c1.3,0,2.3,1,2.3,2.3S1311.8,912.8,1310.5,912.8z M1298.2,912.8h-2
		c-1.3,0-2.3-1-2.3-2.3s1-2.3,2.3-2.3h2c1.3,0,2.3,1,2.3,2.3S1299.5,912.8,1298.2,912.8z M1285.9,912.8h-2c-1.3,0-2.3-1-2.3-2.3
		s1-2.3,2.3-2.3h2c1.3,0,2.3,1,2.3,2.3S1287.2,912.8,1285.9,912.8z M1273.7,912.8h-2c-1.3,0-2.3-1-2.3-2.3s1-2.3,2.3-2.3h2
		c1.3,0,2.3,1,2.3,2.3S1274.9,912.8,1273.7,912.8z M1261.4,912.8h-2c-1.3,0-2.3-1-2.3-2.3s1-2.3,2.3-2.3h2c1.3,0,2.3,1,2.3,2.3
		S1262.7,912.8,1261.4,912.8z M1249.1,912.8h-2c-1.3,0-2.3-1-2.3-2.3s1-2.3,2.3-2.3h2c1.3,0,2.3,1,2.3,2.3
		S1250.4,912.8,1249.1,912.8z M1236.8,912.8h-2c-1.3,0-2.3-1-2.3-2.3s1-2.3,2.3-2.3h2c1.3,0,2.3,1,2.3,2.3
		S1238.1,912.8,1236.8,912.8z M1224.5,912.8h-2c-1.3,0-2.3-1-2.3-2.3s1-2.3,2.3-2.3h2c1.3,0,2.3,1,2.3,2.3
		S1225.8,912.8,1224.5,912.8z M1212.3,912.8h-2c-1.3,0-2.3-1-2.3-2.3s1-2.3,2.3-2.3h2c1.3,0,2.3,1,2.3,2.3
		S1213.5,912.8,1212.3,912.8z M1200,912.8h-2c-1.3,0-2.3-1-2.3-2.3s1-2.3,2.3-2.3h2c1.3,0,2.3,1,2.3,2.3S1201.3,912.8,1200,912.8z
		 M1187.7,912.8h-2c-1.3,0-2.3-1-2.3-2.3s1-2.3,2.3-2.3h2c1.3,0,2.3,1,2.3,2.3S1189,912.8,1187.7,912.8z M1175.4,912.8h-2
		c-1.3,0-2.3-1-2.3-2.3s1-2.3,2.3-2.3h2c1.3,0,2.3,1,2.3,2.3S1176.7,912.8,1175.4,912.8z M1163.2,912.8h-2c-1.3,0-2.3-1-2.3-2.3
		s1-2.3,2.3-2.3h2c1.3,0,2.3,1,2.3,2.3S1164.4,912.8,1163.2,912.8z M1150.9,912.8h-2c-1.3,0-2.3-1-2.3-2.3s1-2.3,2.3-2.3h2
		c1.3,0,2.3,1,2.3,2.3S1152.2,912.8,1150.9,912.8z M1138.6,912.8h-2c-1.3,0-2.3-1-2.3-2.3s1-2.3,2.3-2.3h2c1.3,0,2.3,1,2.3,2.3
		S1139.9,912.8,1138.6,912.8z M1126.3,912.8h-2c-1.3,0-2.3-1-2.3-2.3s1-2.3,2.3-2.3h2c1.3,0,2.3,1,2.3,2.3
		S1127.6,912.8,1126.3,912.8z M1114,912.8h-2c-1.3,0-2.3-1-2.3-2.3s1-2.3,2.3-2.3h2c1.3,0,2.3,1,2.3,2.3S1115.3,912.8,1114,912.8z
		 M1101.8,912.8h-2c-1.3,0-2.3-1-2.3-2.3s1-2.3,2.3-2.3h2c1.3,0,2.3,1,2.3,2.3S1103,912.8,1101.8,912.8z M1089.5,912.8h-2
		c-1.3,0-2.3-1-2.3-2.3s1-2.3,2.3-2.3h2c1.3,0,2.3,1,2.3,2.3S1090.8,912.8,1089.5,912.8z M1077.2,912.8h-2c-1.3,0-2.3-1-2.3-2.3
		s1-2.3,2.3-2.3h2c1.3,0,2.3,1,2.3,2.3S1078.5,912.8,1077.2,912.8z M1064.9,912.8h-2c-1.3,0-2.3-1-2.3-2.3s1-2.3,2.3-2.3h2
		c1.3,0,2.3,1,2.3,2.3S1066.2,912.8,1064.9,912.8z M1052.7,912.8h-2c-1.3,0-2.3-1-2.3-2.3s1-2.3,2.3-2.3h2c1.3,0,2.3,1,2.3,2.3
		S1053.9,912.8,1052.7,912.8z M1040.4,912.8h-2c-1.3,0-2.3-1-2.3-2.3s1-2.3,2.3-2.3h2c1.3,0,2.3,1,2.3,2.3
		S1041.6,912.8,1040.4,912.8z M1028.1,912.8h-2c-1.3,0-2.3-1-2.3-2.3s1-2.3,2.3-2.3h2c1.3,0,2.3,1,2.3,2.3
		S1029.4,912.8,1028.1,912.8z M1015.8,912.8h-2c-1.3,0-2.3-1-2.3-2.3s1-2.3,2.3-2.3h2c1.3,0,2.3,1,2.3,2.3
		S1017.1,912.8,1015.8,912.8z M1003.5,912.8h-2c-1.3,0-2.3-1-2.3-2.3s1-2.3,2.3-2.3h2c1.3,0,2.3,1,2.3,2.3
		S1004.8,912.8,1003.5,912.8z M991.3,912.8h-2c-1.3,0-2.3-1-2.3-2.3s1-2.3,2.3-2.3h2c1.3,0,2.3,1,2.3,2.3S992.5,912.8,991.3,912.8z
		 M979,912.8h-2c-1.3,0-2.3-1-2.3-2.3s1-2.3,2.3-2.3h2c1.3,0,2.3,1,2.3,2.3S980.3,912.8,979,912.8z M966.7,912.8h-2
		c-1.3,0-2.3-1-2.3-2.3s1-2.3,2.3-2.3h2c1.3,0,2.3,1,2.3,2.3S968,912.8,966.7,912.8z M954.4,912.8h-2c-1.3,0-2.3-1-2.3-2.3
		s1-2.3,2.3-2.3h2c1.3,0,2.3,1,2.3,2.3S955.7,912.8,954.4,912.8z M942.1,912.8h-2c-1.3,0-2.3-1-2.3-2.3s1-2.3,2.3-2.3h2
		c1.3,0,2.3,1,2.3,2.3S943.4,912.8,942.1,912.8z M929.9,912.8h-2c-1.3,0-2.3-1-2.3-2.3s1-2.3,2.3-2.3h2c1.3,0,2.3,1,2.3,2.3
		S931.1,912.8,929.9,912.8z M917.6,912.8h-2c-1.3,0-2.3-1-2.3-2.3s1-2.3,2.3-2.3h2c1.3,0,2.3,1,2.3,2.3S918.9,912.8,917.6,912.8z
		 M905.3,912.8h-2c-1.3,0-2.3-1-2.3-2.3s1-2.3,2.3-2.3h2c1.3,0,2.3,1,2.3,2.3S906.6,912.8,905.3,912.8z M893,912.8h-2
		c-1.3,0-2.3-1-2.3-2.3s1-2.3,2.3-2.3h2c1.3,0,2.3,1,2.3,2.3S894.3,912.8,893,912.8z M880.8,912.8h-2c-1.3,0-2.3-1-2.3-2.3
		s1-2.3,2.3-2.3h2c1.3,0,2.3,1,2.3,2.3S882,912.8,880.8,912.8z M868.5,912.8h-2c-1.3,0-2.3-1-2.3-2.3s1-2.3,2.3-2.3h2
		c1.3,0,2.3,1,2.3,2.3S869.8,912.8,868.5,912.8z M856.2,912.8h-2c-1.3,0-2.3-1-2.3-2.3s1-2.3,2.3-2.3h2c1.3,0,2.3,1,2.3,2.3
		S857.5,912.8,856.2,912.8z M843.9,912.8h-2c-1.3,0-2.3-1-2.3-2.3s1-2.3,2.3-2.3h2c1.3,0,2.3,1,2.3,2.3S845.2,912.8,843.9,912.8z
		 M831.6,912.8h-2c-1.3,0-2.3-1-2.3-2.3s1-2.3,2.3-2.3h2c1.3,0,2.3,1,2.3,2.3S832.9,912.8,831.6,912.8z M819.4,912.8h-2
		c-1.3,0-2.3-1-2.3-2.3s1-2.3,2.3-2.3h2c1.3,0,2.3,1,2.3,2.3S820.6,912.8,819.4,912.8z M807.1,912.8h-2c-1.3,0-2.3-1-2.3-2.3
		s1-2.3,2.3-2.3h2c1.3,0,2.3,1,2.3,2.3S808.4,912.8,807.1,912.8z M794.8,912.8h-2c-1.3,0-2.3-1-2.3-2.3s1-2.3,2.3-2.3h2
		c1.3,0,2.3,1,2.3,2.3S796.1,912.8,794.8,912.8z M782.5,912.8h-2c-1.3,0-2.3-1-2.3-2.3s1-2.3,2.3-2.3h2c1.3,0,2.3,1,2.3,2.3
		S783.8,912.8,782.5,912.8z M770.3,912.8h-2c-1.3,0-2.3-1-2.3-2.3s1-2.3,2.3-2.3h2c1.3,0,2.3,1,2.3,2.3S771.5,912.8,770.3,912.8z
		 M758,912.8h-2c-1.3,0-2.3-1-2.3-2.3s1-2.3,2.3-2.3h2c1.3,0,2.3,1,2.3,2.3S759.2,912.8,758,912.8z M745.7,912.8h-2
		c-1.3,0-2.3-1-2.3-2.3s1-2.3,2.3-2.3h2c1.3,0,2.3,1,2.3,2.3S747,912.8,745.7,912.8z M733.4,912.8h-2c-1.3,0-2.3-1-2.3-2.3
		s1-2.3,2.3-2.3h2c1.3,0,2.3,1,2.3,2.3S734.7,912.8,733.4,912.8z M721.1,912.8h-2c-1.3,0-2.3-1-2.3-2.3s1-2.3,2.3-2.3h2
		c1.3,0,2.3,1,2.3,2.3S722.4,912.8,721.1,912.8z M708.9,912.8h-2c-1.3,0-2.3-1-2.3-2.3s1-2.3,2.3-2.3h2c1.3,0,2.3,1,2.3,2.3
		S710.1,912.8,708.9,912.8z M696.6,912.8h-2c-1.3,0-2.3-1-2.3-2.3s1-2.3,2.3-2.3h2c1.3,0,2.3,1,2.3,2.3S697.9,912.8,696.6,912.8z
		 M684.3,912.8h-2c-1.3,0-2.3-1-2.3-2.3s1-2.3,2.3-2.3h2c1.3,0,2.3,1,2.3,2.3S685.6,912.8,684.3,912.8z M672,912.8h-2
		c-1.3,0-2.3-1-2.3-2.3s1-2.3,2.3-2.3h2c1.3,0,2.3,1,2.3,2.3S673.3,912.8,672,912.8z M659.7,912.8h-2c-1.3,0-2.3-1-2.3-2.3
		s1-2.3,2.3-2.3h2c1.3,0,2.3,1,2.3,2.3S661,912.8,659.7,912.8z M647.5,912.8h-2c-1.3,0-2.3-1-2.3-2.3s1-2.3,2.3-2.3h2
		c1.3,0,2.3,1,2.3,2.3S648.7,912.8,647.5,912.8z M635.2,912.8h-2c-1.3,0-2.3-1-2.3-2.3s1-2.3,2.3-2.3h2c1.3,0,2.3,1,2.3,2.3
		S636.5,912.8,635.2,912.8z M622.9,912.8h-2c-1.3,0-2.3-1-2.3-2.3s1-2.3,2.3-2.3h2c1.3,0,2.3,1,2.3,2.3S624.2,912.8,622.9,912.8z
		 M610.6,912.8h-2c-1.3,0-2.3-1-2.3-2.3s1-2.3,2.3-2.3h2c1.3,0,2.3,1,2.3,2.3S611.9,912.8,610.6,912.8z M598.4,912.8h-2
		c-1.3,0-2.3-1-2.3-2.3s1-2.3,2.3-2.3h2c1.3,0,2.3,1,2.3,2.3S599.6,912.8,598.4,912.8z M586.1,912.8h-2c-1.3,0-2.3-1-2.3-2.3
		s1-2.3,2.3-2.3h2c1.3,0,2.3,1,2.3,2.3S587.3,912.8,586.1,912.8z M573.8,912.8h-2c-1.3,0-2.3-1-2.3-2.3s1-2.3,2.3-2.3h2
		c1.3,0,2.3,1,2.3,2.3S575.1,912.8,573.8,912.8z M561.5,912.8h-2c-1.3,0-2.3-1-2.3-2.3s1-2.3,2.3-2.3h2c1.3,0,2.3,1,2.3,2.3
		S562.8,912.8,561.5,912.8z M549.2,912.8h-2c-1.3,0-2.3-1-2.3-2.3s1-2.3,2.3-2.3h2c1.3,0,2.3,1,2.3,2.3S550.5,912.8,549.2,912.8z
		 M537,912.8h-2c-1.3,0-2.3-1-2.3-2.3s1-2.3,2.3-2.3h2c1.3,0,2.3,1,2.3,2.3S538.2,912.8,537,912.8z M524.7,912.8h-2
		c-1.3,0-2.3-1-2.3-2.3s1-2.3,2.3-2.3h2c1.3,0,2.3,1,2.3,2.3S526,912.8,524.7,912.8z M512.4,912.8h-2c-1.3,0-2.3-1-2.3-2.3
		s1-2.3,2.3-2.3h2c1.3,0,2.3,1,2.3,2.3S513.7,912.8,512.4,912.8z M500.1,912.8h-2c-1.3,0-2.3-1-2.3-2.3s1-2.3,2.3-2.3h2
		c1.3,0,2.3,1,2.3,2.3S501.4,912.8,500.1,912.8z M487.8,912.8h-2c-1.3,0-2.3-1-2.3-2.3s1-2.3,2.3-2.3h2c1.3,0,2.3,1,2.3,2.3
		S489.1,912.8,487.8,912.8z M475.6,912.8h-2c-1.3,0-2.3-1-2.3-2.3s1-2.3,2.3-2.3h2c1.3,0,2.3,1,2.3,2.3S476.8,912.8,475.6,912.8z
		 M463.3,912.8h-2c-1.3,0-2.3-1-2.3-2.3s1-2.3,2.3-2.3h2c1.3,0,2.3,1,2.3,2.3S464.6,912.8,463.3,912.8z M451,912.8h-2
		c-1.3,0-2.3-1-2.3-2.3s1-2.3,2.3-2.3h2c1.3,0,2.3,1,2.3,2.3S452.3,912.8,451,912.8z M438.7,912.8h-2c-1.3,0-2.3-1-2.3-2.3
		s1-2.3,2.3-2.3h2c1.3,0,2.3,1,2.3,2.3S440,912.8,438.7,912.8z M426.5,912.8h-2c-1.3,0-2.3-1-2.3-2.3s1-2.3,2.3-2.3h2
		c1.3,0,2.3,1,2.3,2.3S427.7,912.8,426.5,912.8z M414.2,912.8h-2c-1.3,0-2.3-1-2.3-2.3s1-2.3,2.3-2.3h2c1.3,0,2.3,1,2.3,2.3
		S415.5,912.8,414.2,912.8z M401.9,912.8h-2c-1.3,0-2.3-1-2.3-2.3s1-2.3,2.3-2.3h2c1.3,0,2.3,1,2.3,2.3S403.2,912.8,401.9,912.8z
		 M389.6,912.8h-2c-1.3,0-2.3-1-2.3-2.3s1-2.3,2.3-2.3h2c1.3,0,2.3,1,2.3,2.3S390.9,912.8,389.6,912.8z M377.3,912.8h-2
		c-1.3,0-2.3-1-2.3-2.3s1-2.3,2.3-2.3h2c1.3,0,2.3,1,2.3,2.3S378.6,912.8,377.3,912.8z M365.1,912.8h-2c-1.3,0-2.3-1-2.3-2.3
		s1-2.3,2.3-2.3h2c1.3,0,2.3,1,2.3,2.3S366.3,912.8,365.1,912.8z M352.8,912.8h-2c-1.3,0-2.3-1-2.3-2.3s1-2.3,2.3-2.3h2
		c1.3,0,2.3,1,2.3,2.3S354.1,912.8,352.8,912.8z M340.5,912.8h-2c-1.3,0-2.3-1-2.3-2.3s1-2.3,2.3-2.3h2c1.3,0,2.3,1,2.3,2.3
		S341.8,912.8,340.5,912.8z M328.2,912.8h-2c-1.3,0-2.3-1-2.3-2.3s1-2.3,2.3-2.3h2c1.3,0,2.3,1,2.3,2.3S329.5,912.8,328.2,912.8z
		 M316,912.8h-2c-1.3,0-2.3-1-2.3-2.3s1-2.3,2.3-2.3h2c1.3,0,2.3,1,2.3,2.3S317.2,912.8,316,912.8z M303.7,912.8h-2
		c-1.3,0-2.3-1-2.3-2.3s1-2.3,2.3-2.3h2c1.3,0,2.3,1,2.3,2.3S304.9,912.8,303.7,912.8z M291.4,912.8h-2c-1.3,0-2.3-1-2.3-2.3
		s1-2.3,2.3-2.3h2c1.3,0,2.3,1,2.3,2.3S292.7,912.8,291.4,912.8z M279.1,912.8h-2c-1.3,0-2.3-1-2.3-2.3s1-2.3,2.3-2.3h2
		c1.3,0,2.3,1,2.3,2.3S280.4,912.8,279.1,912.8z M266.8,912.8h-2c-1.3,0-2.3-1-2.3-2.3s1-2.3,2.3-2.3h2c1.3,0,2.3,1,2.3,2.3
		S268.1,912.8,266.8,912.8z M254.6,912.8h-2c-1.3,0-2.3-1-2.3-2.3s1-2.3,2.3-2.3h2c1.3,0,2.3,1,2.3,2.3S255.8,912.8,254.6,912.8z
		 M242.3,912.8h-2c-1.3,0-2.3-1-2.3-2.3s1-2.3,2.3-2.3h2c1.3,0,2.3,1,2.3,2.3S243.6,912.8,242.3,912.8z M230,912.8h-2
		c-1.3,0-2.3-1-2.3-2.3s1-2.3,2.3-2.3h2c1.3,0,2.3,1,2.3,2.3S231.3,912.8,230,912.8z M217.7,912.8h-2c-1.3,0-2.3-1-2.3-2.3
		s1-2.3,2.3-2.3h2c1.3,0,2.3,1,2.3,2.3S219,912.8,217.7,912.8z M205.4,912.8h-2c-1.3,0-2.3-1-2.3-2.3s1-2.3,2.3-2.3h2
		c1.3,0,2.3,1,2.3,2.3S206.7,912.8,205.4,912.8z M193.2,912.8h-2c-1.3,0-2.3-1-2.3-2.3s1-2.3,2.3-2.3h2c1.3,0,2.3,1,2.3,2.3
		S194.4,912.8,193.2,912.8z M180.9,912.8h-2c-1.3,0-2.3-1-2.3-2.3s1-2.3,2.3-2.3h2c1.3,0,2.3,1,2.3,2.3S182.2,912.8,180.9,912.8z
		 M168.6,912.8h-2c-1.3,0-2.3-1-2.3-2.3s1-2.3,2.3-2.3h2c1.3,0,2.3,1,2.3,2.3S169.9,912.8,168.6,912.8z M156.3,912.8h-2
		c-1.3,0-2.3-1-2.3-2.3s1-2.3,2.3-2.3h2c1.3,0,2.3,1,2.3,2.3S157.6,912.8,156.3,912.8z"/>
	<polygon class="st2" points="1284,420.6 1291.9,436.5 1309.5,439.1 1296.7,451.5 1299.7,469 1284,460.8 1268.2,469 1271.2,451.5 
		1258.5,439.1 1276.1,436.5 	"/>
	<polygon class="st2" points="1415.2,662.6 1423,678.6 1440.6,681.1 1427.9,693.5 1430.9,711.1 1415.2,702.8 1399.4,711.1 
		1402.4,693.5 1389.7,681.1 1407.3,678.6 	"/>
	<path class="st3" d="M679,337.6c-0.5,0-1-0.1-1.4-0.4c-0.7-0.5-1.1-1.4-0.9-2.3l2.8-16.3L667.7,307c-0.6-0.6-0.9-1.5-0.6-2.4
		c0.3-0.8,1-1.4,1.9-1.6l16.4-2.4l7.3-14.9c0.4-0.8,1.2-1.3,2.1-1.3c0.9,0,1.7,0.5,2.1,1.3l7.3,14.9l16.4,2.4
		c0.9,0.1,1.6,0.7,1.9,1.6c0.3,0.8,0,1.8-0.6,2.4L710,318.6l2.8,16.3c0.1,0.9-0.2,1.7-0.9,2.3c-0.7,0.5-1.7,0.6-2.4,0.2l-14.7-7.7
		l-14.7,7.7C679.8,337.5,679.4,337.6,679,337.6z M694.8,324.7c0.4,0,0.7,0.1,1.1,0.3l11.6,6.1l-2.2-12.9c-0.1-0.7,0.1-1.5,0.7-2
		l9.4-9.2l-13-1.9c-0.8-0.1-1.4-0.6-1.7-1.3l-5.8-11.8l-5.8,11.8c-0.3,0.7-1,1.2-1.7,1.3l-13,1.9l9.4,9.2c0.5,0.5,0.8,1.3,0.7,2
		l-2.2,12.9l11.6-6.1C694,324.8,694.4,324.7,694.8,324.7z"/>
	<polygon class="st2" points="295.1,444.8 302.9,460.8 320.5,463.3 307.8,475.7 310.8,493.3 295.1,485 279.3,493.3 282.3,475.7 
		269.6,463.3 287.2,460.8 	"/>
	<polygon class="st2" points="175.1,634.4 183,650.4 200.6,652.9 187.9,665.4 190.9,682.9 175.1,674.6 159.4,682.9 162.4,665.4 
		149.7,652.9 167.3,650.4 	"/>
	<polygon class="st2" points="458.1,722.2 465.9,738.1 483.5,740.7 470.8,753.1 473.8,770.6 458.1,762.4 442.3,770.6 445.3,753.1 
		432.6,740.7 450.2,738.1 	"/>
	<circle class="st4" cx="637.3" cy="523.2" r="13.5"/>
	<path class="st3" d="M637.3,539c-8.7,0-15.8-7.1-15.8-15.8c0-8.7,7.1-15.8,15.8-15.8c8.7,0,15.8,7.1,15.8,15.8
		C653.1,531.9,646,539,637.3,539z M637.3,512c-6.2,0-11.2,5-11.2,11.2c0,6.2,5,11.2,11.2,11.2s11.2-5,11.2-11.2
		C648.5,517,643.5,512,637.3,512z"/>
	
		<ellipse transform="matrix(0.9739 -0.2272 0.2272 0.9739 -92.2452 177.8167)" class="st5" cx="726.4" cy="489.7" rx="26.6" ry="26.6"/>
	<path class="st3" d="M726.4,518.6c-16,0-29-13-29-29c0-16,13-29,29-29c16,0,29,13,29,29C755.4,505.6,742.4,518.6,726.4,518.6z
		 M726.4,465.3c-13.4,0-24.3,10.9-24.3,24.3c0,13.4,10.9,24.3,24.3,24.3c13.4,0,24.3-10.9,24.3-24.3
		C750.8,476.3,739.9,465.3,726.4,465.3z"/>
	<ellipse transform="matrix(0.9739 -0.227 0.227 0.9739 -88.5591 195.8528)" class="st2" cx="807.4" cy="483" rx="28.6" ry="28.6"/>
	<path class="st3" d="M807.4,514c-17.1,0-31-13.9-31-31s13.9-31,31-31c17.1,0,31,13.9,31,31S824.4,514,807.4,514z M807.4,456.7
		c-14.5,0-26.3,11.8-26.3,26.3s11.8,26.3,26.3,26.3c14.5,0,26.3-11.8,26.3-26.3S821.9,456.7,807.4,456.7z"/>
	
		<ellipse transform="matrix(0.9736 -0.2282 0.2282 0.9736 -91.773 217.5437)" class="st6" cx="894.8" cy="505.6" rx="15.8" ry="15.8"/>
	<path class="st3" d="M894.8,523.7c-10,0-18.1-8.1-18.1-18.1c0-10,8.1-18.1,18.1-18.1c10,0,18.1,8.1,18.1,18.1
		C912.9,515.6,904.8,523.7,894.8,523.7z M894.8,492.1c-7.5,0-13.5,6.1-13.5,13.5c0,7.5,6.1,13.5,13.5,13.5c7.5,0,13.5-6.1,13.5-13.5
		C908.3,498.2,902.3,492.1,894.8,492.1z"/>
	<path class="st6" d="M726.4,516.3c14.7,0,26.6-11.9,26.6-26.6c0-5.6-1.7-10.8-4.7-15.1L706,506.8
		C710.9,512.6,718.2,516.3,726.4,516.3z"/>
	<path class="st3" d="M726.4,518.6c-8.6,0-16.7-3.8-22.2-10.4c-0.4-0.5-0.6-1.1-0.5-1.7c0.1-0.6,0.4-1.2,0.9-1.6l42.4-32.1
		c0.5-0.4,1.1-0.5,1.8-0.4c0.6,0.1,1.2,0.5,1.5,1c3.3,4.8,5.1,10.5,5.1,16.4C755.4,505.6,742.4,518.6,726.4,518.6z M709.4,507.1
		c4.5,4.4,10.6,7,17,7c13.4,0,24.3-10.9,24.3-24.3c0-4.1-1-8.1-3-11.7L709.4,507.1z"/>
	<path class="st5" d="M778.7,483c0,3.6,0.7,7,1.9,10.2h53.5c1.2-3.2,1.9-6.6,1.9-10.2c0-7.8-3.1-14.8-8.1-20h-41
		C781.8,468.2,778.7,475.2,778.7,483z"/>
	<path class="st3" d="M834.1,495.5h-53.5c-1,0-1.8-0.6-2.2-1.5c-1.4-3.6-2-7.2-2-11c0-8.1,3.1-15.8,8.8-21.6c0.4-0.4,1-0.7,1.7-0.7
		h41c0.6,0,1.2,0.3,1.7,0.7c5.7,5.8,8.8,13.5,8.8,21.6c0,3.7-0.7,7.4-2,11C836,494.9,835.1,495.5,834.1,495.5z M782.3,490.9h50.2
		c0.8-2.6,1.2-5.2,1.2-7.8c0-6.6-2.4-12.8-6.8-17.7h-39c-4.4,4.9-6.8,11.1-6.8,17.7C781,485.7,781.4,488.3,782.3,490.9z"/>
	<path class="st3" d="M956.5,539.5H729.7c-1.3,0-2.3-1-2.3-2.3s1-2.3,2.3-2.3h226.7c1.3,0,2.3,1,2.3,2.3S957.7,539.5,956.5,539.5z"
		/>
	<path class="st3" d="M894.8,492.1c-1.3,0-2.3-1-2.3-2.3v-30.6c0-1.3,1-2.3,2.3-2.3c1.3,0,2.3,1,2.3,2.3v30.6
		C897.1,491.1,896.1,492.1,894.8,492.1z"/>
	<path class="st3" d="M807.4,456.7c-1.3,0-2.3-1-2.3-2.3v-41c0-1.3,1-2.3,2.3-2.3c1.3,0,2.3,1,2.3,2.3v41
		C809.7,455.6,808.6,456.7,807.4,456.7z"/>
	<path class="st3" d="M726.4,465.3c-1.3,0-2.3-1-2.3-2.3v-37.4c0-1.3,1-2.3,2.3-2.3s2.3,1,2.3,2.3V463
		C728.7,464.3,727.7,465.3,726.4,465.3z"/>
	<path class="st3" d="M637.3,512c-1.3,0-2.3-1-2.3-2.3v-35c0-1.3,1-2.3,2.3-2.3s2.3,1,2.3,2.3v35C639.6,510.9,638.6,512,637.3,512z"
		/>
	<path class="st3" d="M494.4,884.9H325.2c-0.7,0-1.3-0.3-1.7-0.8c-0.4-0.5-0.6-1.2-0.6-1.8c3.1-23.9,25.9-41.8,53-41.8
		c16.2,0,31.2,6.3,41.4,17.5c8.7-5.1,18.8-7.8,29.3-7.8c22.6,0,42.7,12.7,50.1,31.7c0.3,0.7,0.2,1.5-0.2,2.1
		C495.9,884.6,495.2,884.9,494.4,884.9z M327.9,880.3h163c-7.6-15.4-25-25.6-44.4-25.6c-10.3,0-20.2,2.8-28.5,8.2
		c-1,0.6-2.3,0.4-3-0.5c-9.2-10.9-23.8-17.3-39.2-17.3C352.1,845.1,332,860.1,327.9,880.3z"/>
	<path class="st3" d="M294,884.9H156.8c-0.7,0-1.4-0.3-1.8-0.9c-0.1-0.2-12.6-16.8,4.1-33.4c13.9-13.8,31.4-5.7,36.9-2.5
		c10.9-11.5,26.5-18,43.1-18c31.5,0,57.2,23.5,57.2,52.5C296.3,883.9,295.3,884.9,294,884.9z M158.1,880.3h133.6
		c-1.3-25.3-24.4-45.6-52.5-45.6c-16,0-30.9,6.5-40.9,17.9c-0.8,0.9-2.1,1-3,0.4c-0.8-0.5-18.9-12.8-32.8,0.9
		C150.5,865.7,156,877.1,158.1,880.3z"/>
	<path class="st3" d="M139.2,857.4c-0.3,0-0.6-0.1-0.9-0.2c-1.2-0.5-1.7-1.8-1.3-3c0.4-1,10.5-25,34.9-26.7c1.3-0.1,2.4,0.9,2.5,2.1
		c0.1,1.3-0.9,2.4-2.1,2.5c-21.6,1.5-30.9,23.7-31,23.9C140.9,856.8,140.1,857.4,139.2,857.4z"/>
	<circle class="st2" cx="299.1" cy="660.1" r="11.5"/>
	<path class="st3" d="M299.1,674c-7.6,0-13.9-6.2-13.9-13.9s6.2-13.9,13.9-13.9c7.6,0,13.9,6.2,13.9,13.9S306.7,674,299.1,674z
		 M299.1,650.9c-5.1,0-9.2,4.1-9.2,9.2s4.1,9.2,9.2,9.2c5.1,0,9.2-4.1,9.2-9.2S304.2,650.9,299.1,650.9z"/>
	<circle class="st4" cx="336.3" cy="718.2" r="16.3"/>
	<path d="M336.5,736.8c-10.3,0-18.6-8.4-18.6-18.6c0-10.3,8.4-18.6,18.6-18.6c10.3,0,18.6,8.4,18.6,18.6
		C355.1,728.5,346.7,736.8,336.5,736.8z M336.5,704.2c-7.7,0-14,6.3-14,14s6.3,14,14,14c7.7,0,14-6.3,14-14S344.2,704.2,336.5,704.2
		z"/>
	<circle class="st2" cx="353.9" cy="794.9" r="16.7"/>
	<path class="st3" d="M353.9,813.9c-10.5,0-19-8.5-19-19c0-10.5,8.5-19,19-19c10.5,0,19,8.5,19,19
		C372.9,805.4,364.4,813.9,353.9,813.9z M353.9,780.6c-7.9,0-14.3,6.4-14.3,14.3s6.4,14.3,14.3,14.3c7.9,0,14.3-6.4,14.3-14.3
		S361.8,780.6,353.9,780.6z"/>
	<circle class="st4" cx="286.8" cy="820.2" r="12.2"/>
	<path class="st3" d="M286.8,834.8c-8,0-14.5-6.5-14.5-14.5c0-8,6.5-14.5,14.5-14.5c8,0,14.5,6.5,14.5,14.5
		C301.4,828.2,294.9,834.8,286.8,834.8z M286.8,810.3c-5.5,0-9.9,4.4-9.9,9.9c0,5.5,4.4,9.9,9.9,9.9c5.5,0,9.9-4.4,9.9-9.9
		C296.8,814.8,292.3,810.3,286.8,810.3z"/>
	<circle class="st2" cx="272.7" cy="750.6" r="14.1"/>
	<path class="st3" d="M272.7,767c-9,0-16.4-7.4-16.4-16.4c0-9,7.4-16.4,16.4-16.4c9,0,16.4,7.4,16.4,16.4
		C289.2,759.7,281.8,767,272.7,767z M272.7,738.8c-6.5,0-11.8,5.3-11.8,11.8c0,6.5,5.3,11.8,11.8,11.8c6.5,0,11.8-5.3,11.8-11.8
		C284.5,744.1,279.2,738.8,272.7,738.8z"/>
	<path class="st3" d="M242.7,614c-0.6,0-1.2-0.2-1.6-0.6c-0.9-0.9-0.9-2.3-0.1-3.3c21.7-22.5,36.2-57.7,36.4-58
		c0.5-1.2,1.8-1.7,3-1.3c1.2,0.5,1.7,1.8,1.3,3c-0.6,1.5-15.1,36.3-37.3,59.5C243.9,613.8,243.3,614,242.7,614z"/>
	<path class="st3" d="M1252.4,884.9h-184.3c-1.3,0-2.3-1-2.3-2.3v-88.5c0-0.7,0.3-1.3,0.8-1.8c7.1-6,16.1-9.3,25.5-9.3
		c16.8,0,31.6,10.7,37.1,26.3c4.3-2.1,8.9-3.2,13.7-3.2c16.7,0,30.4,13.2,31.1,29.8c6.4-2.1,13.1-3.2,19.9-3.2
		c30.1,0,56.2,21.3,60.7,49.5c0.1,0.7-0.1,1.3-0.5,1.9C1253.7,884.6,1253.1,884.9,1252.4,884.9z M1070.4,880.3h179.2
		c-5.3-24.6-28.7-42.9-55.6-42.9c-7.4,0-14.6,1.3-21.4,4c-0.7,0.3-1.6,0.2-2.2-0.3c-0.6-0.5-1-1.2-0.9-2c0-0.6,0.1-1.2,0.1-1.8
		c0-14.6-11.9-26.6-26.6-26.6c-4.9,0-9.7,1.3-13.9,3.9c-0.6,0.4-1.4,0.4-2.1,0.2c-0.7-0.3-1.2-0.8-1.4-1.5
		c-4.1-15.1-17.9-25.6-33.6-25.6c-7.9,0-15.5,2.7-21.7,7.6V880.3z"/>
	<rect x="1224.6" y="744.1" class="st4" width="171.4" height="23.5"/>
	<path class="st3" d="M1396.1,769.9h-171.4c-1.3,0-2.3-1-2.3-2.3v-23.5c0-1.3,1-2.3,2.3-2.3h171.4c1.3,0,2.3,1,2.3,2.3v23.5
		C1398.4,768.9,1397.4,769.9,1396.1,769.9z M1226.9,765.3h166.8v-18.9h-166.8V765.3z"/>
	<rect x="1290.6" y="744.1" class="st2" width="39.5" height="23.5"/>
	<path class="st3" d="M1330.1,769.9h-39.5c-1.3,0-2.3-1-2.3-2.3v-23.5c0-1.3,1-2.3,2.3-2.3h39.5c1.3,0,2.3,1,2.3,2.3v23.5
		C1332.4,768.9,1331.4,769.9,1330.1,769.9z M1292.9,765.3h34.9v-18.9h-34.9V765.3z"/>
	<rect x="1299.3" y="767.6" class="st4" width="22.2" height="115"/>
	<path class="st3" d="M1321.5,884.9h-22.2c-1.3,0-2.3-1-2.3-2.3v-115c0-1.3,1-2.3,2.3-2.3h22.2c1.3,0,2.3,1,2.3,2.3v115
		C1323.8,883.9,1322.7,884.9,1321.5,884.9z M1301.6,880.3h17.6V769.9h-17.6V880.3z"/>
	<path class="st3" d="M1381.5,884.9c-1.3,0-2.3-1-2.3-2.3v-115c0-1.3,1-2.3,2.3-2.3c1.3,0,2.3,1,2.3,2.3v115
		C1383.8,883.9,1382.7,884.9,1381.5,884.9z"/>
	<path class="st3" d="M1415.2,848.1c-1.3,0-2.3-1-2.3-2.3v-51.1c0-1.3,1-2.3,2.3-2.3c1.3,0,2.3,1,2.3,2.3v51.1
		C1417.5,847,1416.5,848.1,1415.2,848.1z"/>
	<path class="st3" d="M1316.7,709.2c-18.4,0-33.3-14.9-33.3-33.3c0-18.4,14.9-33.3,33.3-33.3c18.4,0,33.3,14.9,33.3,33.3
		C1350,694.2,1335,709.2,1316.7,709.2z M1316.7,647.2c-15.8,0-28.7,12.9-28.7,28.7c0,15.8,12.9,28.7,28.7,28.7s28.7-12.9,28.7-28.7
		C1345.4,660.1,1332.5,647.2,1316.7,647.2z"/>
	<path class="st3" d="M1357.6,734.2c-7.5,0-13.5-6.1-13.5-13.5c0-7.5,6.1-13.5,13.5-13.5c7.5,0,13.5,6.1,13.5,13.5
		C1371.1,728.1,1365,734.2,1357.6,734.2z M1357.6,711.7c-4.9,0-8.9,4-8.9,8.9c0,4.9,4,8.9,8.9,8.9c4.9,0,8.9-4,8.9-8.9
		C1366.5,715.7,1362.5,711.7,1357.6,711.7z"/>
	<path class="st3" d="M1364,746.4h-94.7c-0.7,0-1.3-0.3-1.8-0.8c-0.4-0.5-0.6-1.2-0.5-1.9c3.2-20,18.7-36.5,38.5-40.9
		c0.4-0.1,0.9-0.1,1.3,0.1c6.3,2.3,13.4,2.3,19.7,0c0.4-0.1,0.9-0.2,1.3-0.1c7.8,1.8,15.2,5.5,21.4,10.7c0.8,0.7,1.1,1.9,0.5,2.9
		c-0.7,1.3-1.1,2.8-1.1,4.3c0,4.9,4,8.9,8.9,8.9c0.7,0,1.3-0.1,2.1-0.3c1.1-0.3,2.2,0.3,2.6,1.3c2,4.2,3.3,8.7,4.1,13.1
		c0.1,0.7-0.1,1.3-0.5,1.9C1365.3,746.1,1364.7,746.4,1364,746.4z M1272.1,741.8h89.1c-0.6-2.6-1.4-5.2-2.5-7.7
		c-8,0.7-14.7-5.6-14.7-13.5c0-1.6,0.3-3.2,0.9-4.7c-5.2-4.1-11.1-7-17.4-8.5c-6.9,2.4-14.6,2.4-21.5,0
		C1289.2,711.5,1275.9,725,1272.1,741.8z"/>
	<path class="st3" d="M1307.9,670.4h-7.6c-1.3,0-2.3-1-2.3-2.3c0-1.3,1-2.3,2.3-2.3h7.6c1.3,0,2.3,1,2.3,2.3
		C1310.2,669.4,1309.2,670.4,1307.9,670.4z"/>
	<path class="st3" d="M1331.9,670.4h-7.6c-1.3,0-2.3-1-2.3-2.3c0-1.3,1-2.3,2.3-2.3h7.6c1.3,0,2.3,1,2.3,2.3
		C1334.2,669.4,1333.2,670.4,1331.9,670.4z"/>
	<path class="st3" d="M1314.6,690.6c-0.1,0-0.2,0-0.2,0c-12.5-1.2-17-11.2-17.2-11.6c-0.5-1.2,0-2.5,1.2-3c1.2-0.5,2.5,0,3,1.2
		c0.1,0.3,3.7,7.9,13.4,8.9c1.3,0.1,2.2,1.3,2.1,2.5C1316.8,689.7,1315.8,690.6,1314.6,690.6z"/>
	<path class="st3" d="M1362.8,683.3c0,0-0.1,0-0.1,0l-41.3-2c-1.3-0.1-2.3-1.1-2.2-2.4c0.1-1.3,1.1-2.3,2.4-2.2l41.3,2
		c1.3,0.1,2.3,1.1,2.2,2.4C1365,682.3,1364,683.3,1362.8,683.3z"/>
	<path class="st2" d="M1336.9,644.4c-8.6-11.6-23.3-17-36.8-12.3c-13.5,4.7-21.7,18.1-21.2,32.5L1336.9,644.4z"/>
	<path class="st3" d="M1278.9,666.9c-0.5,0-0.9-0.1-1.3-0.4c-0.6-0.4-1-1.1-1-1.8c-0.5-15.9,8.6-29.8,22.8-34.7
		c14.1-4.9,30,0.4,39.4,13.1c0.4,0.6,0.6,1.4,0.3,2.1c-0.2,0.7-0.8,1.3-1.4,1.5l-58,20.2C1279.4,666.8,1279.2,666.9,1278.9,666.9z
		 M1310.1,632.7c-3.1,0-6.2,0.5-9.3,1.6c-11.3,3.9-18.9,14.6-19.6,27l51.8-18C1327,636.5,1318.6,632.7,1310.1,632.7z"/>
	<path class="st3" d="M1263.8,672.1c-1,0-1.8-0.6-2.2-1.5c-0.4-1.2,0.2-2.5,1.4-2.9l88.3-30.7c1.2-0.4,2.5,0.2,2.9,1.4
		c0.4,1.2-0.2,2.5-1.4,2.9l-88.3,30.7C1264.3,672.1,1264,672.1,1263.8,672.1z"/>
	<rect x="1068.1" y="692.1" class="st6" width="170.8" height="25.7"/>
	<path class="st3" d="M1238.9,720.1h-170.8c-1.3,0-2.3-1-2.3-2.3v-25.7c0-1.3,1-2.3,2.3-2.3h170.8c1.3,0,2.3,1,2.3,2.3v25.7
		C1241.2,719.1,1240.1,720.1,1238.9,720.1z M1070.4,715.5h166.1v-21.1h-166.1V715.5z"/>
	<path class="st5" d="M1208,717.8l-87.4,81c3.3,4,5.9,8.7,7.3,13.9c4.4-2.7,9.5-4.2,15.1-4.2c6,0,11.5,1.8,16.1,4.9l65.6-60.8v-34.8
		H1208z"/>
	<path class="st3" d="M1159,815.7c-0.4,0-0.9-0.1-1.3-0.4c-4.4-3-9.5-4.5-14.8-4.5c-4.9,0-9.7,1.3-13.9,3.9
		c-0.6,0.4-1.4,0.4-2.1,0.2c-0.7-0.3-1.2-0.8-1.4-1.5c-1.3-4.8-3.6-9.2-6.8-13.1c-0.8-0.9-0.7-2.3,0.2-3.2l87.4-81
		c0.4-0.4,1-0.6,1.6-0.6h16.7c1.3,0,2.3,1,2.3,2.3v34.8c0,0.6-0.3,1.3-0.7,1.7l-65.6,60.8C1160.2,815.5,1159.6,815.7,1159,815.7z
		 M1142.9,806.2c5.6,0,11.1,1.5,15.9,4.3l63.6-58.9v-31.5h-13.5l-85.2,78.9c2.4,3.2,4.2,6.6,5.5,10.3
		C1133.5,807.2,1138.1,806.2,1142.9,806.2z"/>
	<path class="st5" d="M1103.9,717.8l-35.6,33V794c4.6-3.8,10.1-6.5,16.1-7.8l73.8-68.4H1103.9z"/>
	<path class="st3" d="M1068.3,796.3c-0.3,0-0.7-0.1-1-0.2c-0.8-0.4-1.3-1.2-1.3-2.1v-43.2c0-0.6,0.3-1.3,0.7-1.7l35.6-33
		c0.4-0.4,1-0.6,1.6-0.6h54.2c0.9,0,1.8,0.6,2.1,1.5c0.3,0.9,0.1,1.9-0.6,2.5l-73.8,68.4c-0.3,0.3-0.7,0.5-1.1,0.6
		c-5.5,1.2-10.7,3.7-15.1,7.3C1069.4,796.1,1068.8,796.3,1068.3,796.3z M1070.6,751.8v37.6c3.9-2.5,8.2-4.3,12.7-5.4l69-64h-47.4
		L1070.6,751.8z"/>
	<path class="st3" d="M1224.6,845.5c-1.3,0-2.3-1-2.3-2.3v-75.6c0-1.3,1-2.3,2.3-2.3c1.3,0,2.3,1,2.3,2.3v75.6
		C1226.9,844.5,1225.9,845.5,1224.6,845.5z"/>
	<path class="st6" d="M540.3,359.9c0,0-14-12.9-44.8-3.7c-30.8,9.2-31.4,55.6-78,63.5c0,0,58.8,6.5,93.5-15.8
		C545.7,381.5,540.3,359.9,540.3,359.9z"/>
	<path class="st3" d="M437.6,423c-11.6,0-19.6-0.9-20.5-1c-1.1-0.1-2-1.1-2.1-2.2c0-1.1,0.8-2.1,1.9-2.3
		c25.4-4.3,36.5-20.2,47.2-35.6c8.4-12.1,16.4-23.6,30.5-27.8c31.7-9.5,46.4,3.7,47.1,4.2c0.3,0.3,0.6,0.7,0.7,1.1
		c0.2,0.9,5.4,23.4-30.3,46.5C489.8,420.3,458.2,423,437.6,423z M431.5,418.2c19.3,0.5,54.7-1.1,78.2-16.3
		c29.5-19,28.9-37,28.5-40.8c-2.8-2.1-16.4-10.4-42.1-2.8c-12.6,3.8-20.1,14.6-28.1,26C459.3,397,449.6,411,431.5,418.2z"/>
	<path class="st6" d="M540.3,359.9c0,0,0.7-19.1,29-34.4c28.2-15.4,61.6,17,100-10.6c0,0-36.8,46.4-77.2,55.2
		C551.8,378.9,540.3,359.9,540.3,359.9z"/>
	<path class="st3" d="M572.2,374.8c-25.2,0-33.5-13-33.9-13.6c-0.2-0.4-0.3-0.8-0.3-1.3c0-0.8,1.1-20.6,30.2-36.4
		c13-7.1,26.7-4.6,41.2-2.1c18.5,3.3,37.6,6.6,58.6-8.4c0.9-0.7,2.2-0.5,3,0.3c0.8,0.8,0.9,2.1,0.1,3c-1.5,1.9-37.8,47.1-78.5,56
		C584.8,374.1,578.1,374.8,572.2,374.8z M542.7,359.3c2.3,2.9,15,16,49,8.6c27.3-6,53.4-30,66.7-44c-17.9,7.7-34.6,4.8-49.7,2.1
		c-13.7-2.4-26.7-4.7-38.2,1.6C546.7,340.4,543.2,355.8,542.7,359.3z M540.3,359.9L540.3,359.9L540.3,359.9z"/>
	<path class="st3" d="M664.9,385.6c-1.2,0-2.2-0.9-2.3-2.1c-1.8-24.2-24-36.8-24.2-36.9c-1.1-0.6-1.5-2-0.9-3.1
		c0.6-1.1,2-1.5,3.1-0.9c1,0.6,24.7,13.9,26.6,40.6c0.1,1.3-0.9,2.4-2.1,2.5C665,385.6,665,385.6,664.9,385.6z"/>
	<path class="st3" d="M621.4,328c-0.8,0-1.7-0.5-2.1-1.3l-33.5-66.8c-0.6-1.1-0.1-2.5,1-3.1c1.1-0.6,2.5-0.1,3.1,1l33.5,66.8
		c0.6,1.1,0.1,2.5-1,3.1C622.1,327.9,621.8,328,621.4,328z"/>
	<path class="st3" d="M447.3,408.1c-0.8,0-1.7-0.5-2.1-1.3l-34.9-68.7c-0.6-1.1-0.1-2.5,1-3.1c1.1-0.6,2.5-0.1,3.1,1l34.9,68.7
		c0.6,1.1,0.1,2.5-1,3.1C448,408,447.7,408.1,447.3,408.1z"/>
	<path class="st3" d="M466,385.6c-0.9,0-1.7-0.5-2.1-1.4L451.6,357l-1.1,0.2c-7.9,1.1-15.6-3-19.2-10.1l-7.4-14.9
		c-0.6-1.1-0.1-2.5,1-3.1c1.1-0.6,2.5-0.1,3.1,1l7.4,14.9c2.7,5.4,8.5,8.4,14.4,7.6l2.8-0.4c1-0.1,2,0.4,2.4,1.3l13,28.9
		c0.5,1.2,0,2.5-1.2,3C466.6,385.6,466.3,385.6,466,385.6z"/>
	<path class="st3" d="M472.6,333.4c-0.9,0-1.7-0.5-2.1-1.4c-0.5-1.2,0-2.5,1.2-3l30.6-13.6c1.2-0.5,2.5,0,3,1.2c0.5,1.2,0,2.5-1.2,3
		l-30.6,13.6C473.2,333.3,472.9,333.4,472.6,333.4z"/>
	<path class="st3" d="M535.4,306.4c-0.9,0-1.7-0.5-2.1-1.4c-0.5-1.2,0-2.5,1.2-3l30.6-13.6c1.2-0.5,2.5,0,3,1.2c0.5,1.2,0,2.5-1.2,3
		l-30.6,13.6C536.1,306.3,535.8,306.4,535.4,306.4z"/>
	<path class="st4" d="M576.3,234.9c0,0-18.8-66.4-93-71.3s-128.8,31.3-141.1,92.9c-9,44.8,29.8,96.4,17.7,127.9
		c-9.4,24.5-40,27.4-53.3-3.7l-7.6-3.6c0,0-9.3,17.8,6.2,36.2c15.5,18.4,60.9,29.9,99.5,7.2c38.6-22.7,31.7-36.2,31.7-36.2
		l-28.6-62.9L576.3,234.9z"/>
	<path class="st3" d="M358.4,435.5c-24,0-45.1-9-54.9-20.6c-16.4-19.4-6.9-38-6.5-38.8c0.6-1.1,1.9-1.5,3-1l7.6,3.6
		c0.5,0.2,0.9,0.7,1.1,1.2c5.8,13.5,15.8,21.5,26.6,21.3c9.8-0.2,18.3-6.9,22.4-17.5c5.7-14.8-0.7-35.2-7.5-56.7
		c-7-22.3-15-47.6-10.3-70.8c6.2-30.9,22.9-56.1,48.4-72.9c25.4-16.8,58.3-24.3,95.2-21.9c74.9,4.9,94.8,72.3,95,73
		c0.3,1.1-0.2,2.2-1.2,2.7l-166.5,85.6l27.7,60.9c0.8,1.5,6.6,16-32.7,39.1C390.4,431.7,373.8,435.5,358.4,435.5z M300.2,380.3
		c-1.8,4.9-4.7,18,6.8,31.6c15,17.7,58.9,28.9,96.6,6.7c35.6-20.9,30.9-33.1,30.8-33.2l-28.6-63c-0.5-1.1,0-2.4,1-3l166.7-85.7
		c-3.7-10.5-25.5-63.6-90.3-67.8c-73.3-4.8-126.5,30.1-138.7,91.1c-4.4,22.1,3,45.7,10.2,68.6c7,22.3,13.6,43.4,7.4,59.7
		c-4.8,12.4-15,20.3-26.6,20.5c-12.6,0.3-24-8.4-30.6-23.2L300.2,380.3z"/>
	<path class="st6" d="M602.1,252.5l-189.6,84.6c-6.7,3-14.6,0-17.6-6.7h0c-3-6.7,0-14.6,6.7-17.6l189.6-84.6c6.7-3,14.6,0,17.6,6.7
		v0C611.8,241.7,608.8,249.5,602.1,252.5z"/>
	<path class="st3" d="M407.1,340.6c-6,0-11.7-3.5-14.3-9.3c-1.7-3.8-1.8-8.1-0.3-12c1.5-3.9,4.4-7,8.2-8.7l189.6-84.6
		c3.8-1.7,8.1-1.8,12-0.3c3.9,1.5,7,4.4,8.7,8.2c3.5,7.9,0,17.1-7.9,20.6l-189.6,84.6C411.4,340.1,409.2,340.6,407.1,340.6z
		 M596.7,229.4c-1.5,0-3,0.3-4.5,1l-189.6,84.6c-2.7,1.2-4.7,3.4-5.8,6.1c-1.1,2.7-1,5.7,0.2,8.4c2.5,5.5,9,8,14.6,5.6l189.6-84.6
		c2.7-1.2,4.7-3.4,5.8-6.1c1.1-2.7,1-5.7-0.2-8.4c-1.2-2.7-3.4-4.7-6.1-5.8C599.3,229.6,598,229.4,596.7,229.4z M602.1,252.5
		L602.1,252.5L602.1,252.5z"/>
	<circle class="st6" cx="304" cy="364" r="23.1"/>
	<path class="st3" d="M304,389.4c-14,0-25.4-11.4-25.4-25.4c0-14,11.4-25.4,25.4-25.4c14,0,25.4,11.4,25.4,25.4
		C329.3,378,318,389.4,304,389.4z M304,343.2c-11.5,0-20.8,9.3-20.8,20.8c0,11.5,9.3,20.8,20.8,20.8c11.5,0,20.8-9.3,20.8-20.8
		C324.7,352.5,315.4,343.2,304,343.2z"/>
	<path class="st3" d="M268.7,380.7c-0.9,0-1.8-0.5-2.1-1.4c-2-4.9-3-10-3-15.3c0-15.5,8.6-29.3,22.5-36.2c1.1-0.6,2.5-0.1,3.1,1
		c0.6,1.1,0.1,2.5-1,3.1c-12.3,6.1-19.9,18.4-19.9,32.1c0,4.7,0.9,9.2,2.6,13.5c0.5,1.2-0.1,2.5-1.3,3
		C269.3,380.6,269,380.7,268.7,380.7z"/>
	<path class="st3" d="M363,285C363,285,363,285,363,285c-1.3,0-2.3-1.1-2.3-2.3c0.9-92.4,81.3-98.7,82.1-98.7
		c1.3-0.1,2.4,0.9,2.4,2.2c0.1,1.3-0.9,2.4-2.2,2.5c-0.2,0-19.6,1.4-38.7,13.7c-25.6,16.4-38.7,43.5-39.1,80.5
		C365.3,283.9,364.3,285,363,285z"/>
	<path class="st3" d="M640.8,196.8c-0.1,0-0.3,0-0.4,0c-1.3-0.2-2.1-1.5-1.8-2.7c8.8-45.6,46-54.3,46.4-54.4
		c1.3-0.3,2.5,0.5,2.7,1.8c0.3,1.2-0.5,2.5-1.8,2.7c-1.4,0.3-34.6,8.3-42.9,50.8C642.9,196.1,641.9,196.8,640.8,196.8z"/>
	<path class="st6" d="M376.3,675.6L376.3,675.6c6.4,4.7,15.3,3.4,20-3l28.3-38.1c4.7-6.4,3.4-15.3-3-20l0,0c-6.4-4.7-15.3-3.4-20,3
		l-28.3,38.1C368.7,661.9,370,670.9,376.3,675.6z"/>
	<path class="st3" d="M384.9,680.8c-3.4,0-6.9-1.1-9.9-3.3c-3.6-2.7-5.9-6.5-6.5-10.9c-0.6-4.4,0.5-8.8,3.1-12.3l28.3-38.1
		c5.5-7.4,15.9-8.9,23.3-3.4c3.6,2.7,5.9,6.5,6.5,10.9c0.6,4.4-0.5,8.8-3.1,12.3L398.2,674C395,678.4,390,680.8,384.9,680.8z
		 M413.2,614c-3.7,0-7.3,1.7-9.7,4.8L375.2,657c-1.9,2.6-2.7,5.7-2.2,8.9c0.5,3.2,2.1,6,4.7,7.9c5.3,4,12.9,2.8,16.8-2.5l28.3-38.1
		c1.9-2.6,2.7-5.7,2.2-8.9c-0.5-3.2-2.1-6-4.7-7.9C418.2,614.8,415.7,614,413.2,614z"/>
	<polygon class="st4" points="705.7,361.3 621.4,406.8 695.4,442.9 	"/>
	<path class="st3" d="M695.4,445.2c-0.3,0-0.7-0.1-1-0.2l-73.9-36c-0.8-0.4-1.3-1.2-1.3-2c0-0.9,0.4-1.7,1.2-2.1l84.2-45.5
		c0.8-0.4,1.7-0.4,2.4,0.1c0.7,0.5,1.1,1.3,1,2.2l-10.3,81.6c-0.1,0.7-0.5,1.4-1.2,1.7C696.1,445.1,695.7,445.2,695.4,445.2z
		 M626.5,406.7l67,32.7l9.4-73.9L626.5,406.7z"/>
	<polygon class="st2" points="621.4,406.8 537.2,452.4 611.1,488.4 	"/>
	<path class="st3" d="M611.1,490.7c-0.3,0-0.7-0.1-1-0.2l-73.9-36c-0.8-0.4-1.3-1.2-1.3-2c0-0.9,0.4-1.7,1.2-2.1l84.2-45.5
		c0.8-0.4,1.7-0.4,2.4,0.1c0.7,0.5,1.1,1.3,1,2.2l-10.3,81.6c-0.1,0.7-0.5,1.4-1.2,1.7C611.9,490.6,611.5,490.7,611.1,490.7z
		 M542.3,452.3l67,32.7l9.3-73.9L542.3,452.3z"/>
	<polygon class="st4" points="537.2,452.4 453,497.9 526.9,534 	"/>
	<path class="st3" d="M526.9,536.3c-0.3,0-0.7-0.1-1-0.2L452,500c-0.8-0.4-1.3-1.2-1.3-2c0-0.9,0.4-1.7,1.2-2.1l84.2-45.5
		c0.8-0.4,1.7-0.4,2.4,0.1c0.7,0.5,1.1,1.3,1,2.2l-10.3,81.6c-0.1,0.7-0.5,1.4-1.2,1.7C527.7,536.2,527.3,536.3,526.9,536.3z
		 M458,497.8l67,32.7l9.3-73.9L458,497.8z"/>
	<polygon class="st2" points="449.6,502.4 389.7,534.8 380.2,542.5 369.2,596.9 439.3,584 	"/>
	<path class="st3" d="M372.6,594.8c-0.6,0-1.2-0.2-1.6-0.7c-0.5-0.5-0.8-1.3-0.6-2.1l11.1-54.4c0.1-0.5,0.4-1,0.8-1.3l9.4-7.7
		c0.1-0.1,0.2-0.2,0.4-0.2l59.9-32.4c0.8-0.4,1.7-0.4,2.4,0.1c0.7,0.5,1.1,1.3,1,2.2L445,579.8c-0.1,1-0.9,1.8-1.9,2l-70.1,13
		C372.8,594.8,372.7,594.8,372.6,594.8z M385.7,539.3l-10.2,50.3l65.1-12l9.5-75.5l-55.8,30.2L385.7,539.3z"/>
	<path class="st2" d="M393.1,530.3c-12.2,8.3-21.8,20.5-26.9,35.5c-9.8,29.3,6,61,35.2,70.8c23.4,7.9,48.8-4.8,56.6-28.2
		c6.3-18.7-3.8-39-22.6-45.3L393.1,530.3z"/>
	<path class="st3" d="M415.7,641.2c-4.9,0-10-0.8-14.9-2.4c-14.7-4.9-26.7-15.3-33.6-29.3c-6.9-13.9-8-29.7-3.1-44.5
		c5.1-15.1,14.7-27.8,27.8-36.7c1.1-0.7,2.5-0.4,3.2,0.6c0.7,1.1,0.4,2.5-0.6,3.2c-12.3,8.4-21.3,20.2-26,34.3
		c-4.6,13.6-3.5,28.1,2.8,40.9c6.4,12.8,17.4,22.4,31,26.9c22.2,7.4,46.3-4.6,53.7-26.7c5.9-17.5-3.6-36.5-21.1-42.4
		c-6.7-2.2-13.8-1.7-20.1,1.4c-6.3,3.1-11,8.5-13.2,15.2c-1.7,5.2-1.4,10.8,1.1,15.7c2.5,4.9,6.7,8.6,11.9,10.3
		c4.1,1.4,8.4,1.1,12.2-0.8c3.8-1.9,6.7-5.2,8-9.2c1-3.1,0.8-6.5-0.7-9.4c-1.5-3-4-5.2-7.1-6.2c-4.9-1.6-10.3,1-11.9,5.9
		c-0.4,1.2-1.7,1.9-2.9,1.5c-1.2-0.4-1.9-1.7-1.5-2.9c2.5-7.3,10.4-11.3,17.8-8.8c4.3,1.4,7.8,4.5,9.8,8.5c2,4.1,2.3,8.7,0.9,13
		c-1.8,5.2-5.4,9.5-10.4,11.9c-4.9,2.5-10.5,2.8-15.8,1.1c-6.4-2.1-11.6-6.6-14.6-12.7c-3-6-3.5-12.9-1.3-19.2
		c2.6-7.8,8.1-14.2,15.5-17.9c7.4-3.7,15.8-4.3,23.6-1.6c19.9,6.7,30.7,28.3,24,48.2C453.7,628.8,435.4,641.2,415.7,641.2z"/>
	<polygon class="st2" points="780.1,321.1 780.1,393.5 779.6,397.4 705.7,361.3 	"/>
	<path class="st3" d="M779.6,399.7c-0.3,0-0.7-0.1-1-0.2l-73.9-36c-0.8-0.4-1.3-1.2-1.3-2c0-0.9,0.4-1.7,1.2-2.1l74.4-40.2
		c0.7-0.4,1.6-0.4,2.3,0c0.7,0.4,1.1,1.2,1.1,2v72.4c0,0.1,0,0.2,0,0.3l-0.5,3.8c-0.1,0.7-0.5,1.4-1.2,1.7
		C780.3,399.6,780,399.7,779.6,399.7z M710.7,361.2l67,32.7l0.1-0.5V325L710.7,361.2z"/>
	<path class="st3" d="M452.1,576.9c-0.8,0-1.6-0.4-2-1.2c-0.6-1.1-0.2-2.5,0.9-3.1l327.5-177.2c1.1-0.6,2.5-0.2,3.1,0.9
		c0.6,1.1,0.2,2.5-0.9,3.1L453.2,576.6C452.8,576.8,452.4,576.9,452.1,576.9z"/>
	<path class="st3" d="M347,581.1c-1.1,0-2.1-0.8-2.3-1.9c-10.6-59.3,23.8-94.6,24.2-94.9c0.9-0.9,2.4-0.9,3.3,0
		c0.9,0.9,0.9,2.4,0,3.3c-0.3,0.3-33.1,34-22.9,90.8c0.2,1.3-0.6,2.5-1.9,2.7C347.3,581.1,347.2,581.1,347,581.1z"/>
	<path class="st3" d="M1042.4,416.8c-4.4,0-8.9-0.5-13.3-1.6l-15.3-3.8c0,0,0,0,0,0c-29.5-7.3-47.5-37.1-40.3-66.6l11.4-46.4
		c3.5-14.3,12.4-26.3,25-33.9c12.6-7.6,27.4-9.9,41.6-6.3l15.3,3.8c14.3,3.5,26.3,12.4,33.9,25c7.6,12.6,9.9,27.4,6.3,41.6
		l-11.4,46.4c-3.5,14.3-12.4,26.3-25,33.9C1062,414.1,1052.3,416.8,1042.4,416.8z M1014.9,406.9l15.3,3.8
		c13.1,3.2,26.6,1.2,38.2-5.8c11.5-7,19.6-18,22.9-31.1l11.4-46.4c3.2-13.1,1.2-26.6-5.8-38.2c-7-11.5-18-19.7-31.1-22.9l-15.3-3.8
		c-13.1-3.2-26.6-1.2-38.2,5.8c-11.5,7-19.6,18-22.9,31.1L978,345.9C971.4,372.9,987.9,400.2,1014.9,406.9L1014.9,406.9z"/>
	<path class="st5" d="M1018.5,410.2L1018.5,410.2l-4.2-1c-15.5-3.8-27.8-14.2-34.4-27.5l0,0c0,0-35-4.9-53.1,18.7l96.1,52
		C1022.9,452.4,1012.5,434.2,1018.5,410.2z"/>
	<path class="st3" d="M1022.9,454.7c-0.4,0-0.7-0.1-1.1-0.3l-96.1-52c-0.6-0.3-1-0.9-1.2-1.5c-0.1-0.7,0-1.3,0.4-1.9
		c18.7-24.4,53.8-19.8,55.3-19.6c0.7,0.1,1.4,0.6,1.7,1.2c6.6,13.2,18.7,22.7,32.9,26.3l4.2,1c0.6,0.1,1.1,0.5,1.4,1
		c0.3,0.5,0.4,1.2,0.3,1.7c-5.7,22.8,4,40.3,4.1,40.5c0.5,0.9,0.4,2-0.4,2.8C1024.1,454.4,1023.5,454.7,1022.9,454.7z M930.3,399.7
		l87.8,47.4c-2.6-7.2-5.6-19.9-2.3-35.3l-2-0.5c-15.2-3.7-28-13.7-35.4-27.5C972.5,383.3,945.9,382,930.3,399.7z"/>
	<path class="st2" d="M987.4,272.4c0,0-7.7,1.6-13.1-10.9c0,0-9,7.6-3.8,22.7c0,0-6.4,7.6-19.5,7.3c0,0,27.1,30.4,79.1,0
		c0,0,7.3,13.1,27.5,25.5c0,0,1.2-15.7,10.9-24.3c-0.9,0.8,25.3,28.5,27.5,39.8c0,0,12.7-8.4,18.2-19c0,0,4.6,47.8,29.1,62
		c0,0-7.1-19.1-3.8-30.9c0.9-3.1,1.4-5.8,1.8-8.1c0.8-5.1-2.6-9.9-7.6-11l0,0l-42.9-52.6L987.4,272.4z"/>
	<path class="st3" d="M1143.1,378c-0.4,0-0.8-0.1-1.2-0.3c-20-11.6-27.2-43.8-29.4-57.5c-6.3,8.2-15.1,14.1-15.5,14.4
		c-0.6,0.4-1.5,0.5-2.2,0.2c-0.7-0.3-1.2-0.9-1.4-1.7c-1.4-7.2-14.4-22.9-21.4-31.4c-1.9-2.3-3.3-4-4.3-5.3
		c-7.2,8.1-8.2,20.7-8.2,20.8c-0.1,0.8-0.5,1.5-1.3,1.9c-0.7,0.4-1.6,0.3-2.3-0.1c-16.1-9.9-24.2-20.2-27.1-24.4
		c-51.7,29.2-79.7-1.3-80-1.6c-0.6-0.7-0.8-1.7-0.4-2.5c0.4-0.8,1.1-1.4,2.1-1.3c9.2,0.2,14.9-3.9,16.9-5.7
		c-4.6-15.5,4.6-23.4,5-23.8c0.6-0.5,1.3-0.7,2-0.5c0.7,0.2,1.3,0.7,1.6,1.3c4.5,10.4,10.4,9.6,10.6,9.5c0.1,0,0.4,0,0.4,0
		l103.4,0.7c0.7,0,1.3,0.3,1.8,0.8l42.4,52.1c5.7,1.7,9.4,7.4,8.5,13.4c-0.4,2.6-1,5.5-1.8,8.4c-3.1,10.9,3.7,29.3,3.7,29.4
		c0.3,0.9,0.1,1.9-0.7,2.6C1144.2,377.8,1143.7,378,1143.1,378z M1114.1,311.3c0.1,0,0.3,0,0.4,0c1,0.2,1.8,1,1.9,2
		c0,0.4,4,39.3,22.5,56.2c-1.9-6.9-3.9-17.5-1.7-25.4c0.8-2.7,1.4-5.4,1.7-7.8c0.6-3.8-2-7.5-5.8-8.4c-0.5-0.1-0.9-0.4-1.3-0.8
		l-42.2-51.8l-102.1-0.7c-1.5,0.2-8.4,0.4-13.8-9c-1.9,3-4.2,8.9-1.2,17.7c0.3,0.8,0.1,1.6-0.4,2.2c-0.3,0.3-5.4,6.2-15.6,7.8
		c9,6.8,33.1,19,72.2-3.9c0.5-0.3,1.2-0.4,1.8-0.2c0.6,0.2,1.1,0.6,1.4,1.1c0.1,0.1,6.6,11.5,23.7,22.8c1-5.4,3.7-15.6,11.2-22.1
		c0.9-0.8,2.4-0.8,3.2,0.2c0.3,0.3,0.5,0.7,0.5,1c0.6,1,2.9,3.8,5.2,6.5c9.1,11,18.1,22.3,21.3,30.1c3.9-2.9,11.2-9.2,15-16.3
		C1112.4,311.8,1113.2,311.3,1114.1,311.3z M1069.9,294.4C1069.9,294.4,1069.9,294.4,1069.9,294.4
		C1069.9,294.4,1069.9,294.4,1069.9,294.4z M1069.9,294.4C1069.9,294.4,1069.9,294.4,1069.9,294.4
		C1069.9,294.4,1069.9,294.4,1069.9,294.4z M1069.9,294.4C1069.9,294.4,1069.9,294.4,1069.9,294.4
		C1069.9,294.4,1069.9,294.4,1069.9,294.4z M1069.9,294.4C1069.9,294.4,1069.9,294.4,1069.9,294.4
		C1069.9,294.4,1069.9,294.4,1069.9,294.4z M1069.9,294.4C1069.9,294.4,1069.9,294.4,1069.9,294.4
		C1069.9,294.4,1069.9,294.4,1069.9,294.4z M1069.9,294.4L1069.9,294.4L1069.9,294.4z"/>
	<path class="st5" d="M1133.6,325.7c0,0-76.4-54.5-148.3-43c0,0,5.8-55.9,64.4-84.9c57.5-28.4,117.2-23.2,151.9,0
		c37.3,24.9,37.3,66.6,37.3,66.6s-3.2-31.5-35.1-35.1C1170,225.5,1136.3,259.1,1133.6,325.7z"/>
	<path class="st3" d="M1133.6,328c-0.5,0-0.9-0.1-1.3-0.4c-0.8-0.5-76.5-53.8-146.6-42.6c-0.7,0.1-1.4-0.1-1.9-0.6
		c-0.5-0.5-0.8-1.2-0.7-1.9c0.1-0.6,6.6-57.5,65.7-86.7c61.1-30.2,121.4-21.7,154.2,0.1c37.9,25.3,38.3,66.8,38.3,68.5
		c0,1.2-1,2.2-2.2,2.3c-1.1,0.1-2.3-0.8-2.4-2.1c-0.1-1.2-3.5-29.7-33.1-33c-12.8-1.5-25.2,2.7-36.1,11.9
		c-18.9,16.2-30.1,45.4-31.5,82.2c0,0.8-0.5,1.6-1.3,2C1134.3,327.9,1133.9,328,1133.6,328z M1005.6,278.8
		c56.7,0,111.8,33.5,125.9,42.7c2.2-36.2,13.8-65.1,32.9-81.5c11.8-10.1,25.5-14.6,39.6-13c14.2,1.6,23.1,8.6,28.6,16.1
		c-4.3-13.5-13.4-30.8-32.3-43.4c-31.6-21.1-90.2-29.2-149.6,0.1c-49,24.2-60.4,68.3-62.6,80.1
		C993.9,279.1,999.8,278.8,1005.6,278.8z"/>
	<path class="st3" d="M1238.9,316.1c-1.3,0-2.3-1-2.3-2.3v-49.4c0-1.3,1-2.3,2.3-2.3s2.3,1,2.3,2.3v49.4
		C1241.2,315.1,1240.1,316.1,1238.9,316.1z"/>
	
		<ellipse transform="matrix(0.3778 -0.9259 0.9259 0.3778 459.1702 1356.4977)" class="st2" cx="1238.9" cy="336.6" rx="21.2" ry="21.2"/>
	<path class="st3" d="M1256.2,372.7c-0.8,0-1.6-0.5-2.1-1.3c-0.6-1.1-0.1-2.5,1-3.1c11.9-6.1,19.3-18.3,19.3-31.7
		c0-9-3.4-17.7-9.5-24.3c-0.9-0.9-0.8-2.4,0.1-3.3c0.9-0.9,2.4-0.8,3.3,0.1c6.9,7.5,10.8,17.2,10.8,27.4c0,15.1-8.4,28.9-21.8,35.8
		C1256.9,372.6,1256.6,372.7,1256.2,372.7z"/>
	<path class="st3" d="M1018.1,330.7c-0.2,0-0.3,0-0.5-0.1l-19.5-4.4c-1.2-0.3-2-1.5-1.7-2.8c0.3-1.2,1.5-2,2.8-1.7l19.5,4.4
		c1.2,0.3,2,1.5,1.7,2.8C1020.1,329.9,1019.2,330.7,1018.1,330.7z"/>
	<path class="st3" d="M1065,341.1c-0.2,0-0.3,0-0.5-0.1l-19.5-4.4c-1.2-0.3-2-1.5-1.7-2.8c0.3-1.2,1.5-2,2.8-1.7l19.5,4.4
		c1.2,0.3,2,1.5,1.7,2.8C1067,340.4,1066.1,341.1,1065,341.1z"/>
	<path class="st3" d="M1033.3,399.7c-2.1,0-4.3-0.2-6.4-0.5c-21.6-3.5-36.3-24-32.8-45.6c0.1-0.6,0.4-1.1,0.9-1.5
		c0.5-0.4,1.1-0.5,1.7-0.4l73.8,12c0.6,0.1,1.1,0.4,1.5,0.9c0.4,0.5,0.5,1.1,0.4,1.7C1069.3,385.8,1052.4,399.7,1033.3,399.7z
		 M998.4,356.6c-1.8,18.2,11,35,29.3,38c18.3,3,35.7-8.9,39.8-26.7L998.4,356.6z"/>
	
		<ellipse transform="matrix(0.9735 -0.2288 0.2288 0.9735 -35.3173 218.8668)" class="st2" cx="926.2" cy="261.7" rx="9.7" ry="9.7"/>
	<path class="st3" d="M926.2,273.8c-6.6,0-12-5.4-12-12c0-6.6,5.4-12,12-12c6.6,0,12,5.4,12,12C938.3,268.4,932.9,273.8,926.2,273.8
		z M926.2,254.3c-4.1,0-7.4,3.3-7.4,7.4c0,4.1,3.3,7.4,7.4,7.4c4.1,0,7.4-3.3,7.4-7.4C933.6,257.7,930.3,254.3,926.2,254.3z"/>
	<circle class="st6" cx="895.2" cy="318.9" r="15.5"/>
	<path class="st3" d="M895.2,336.7c-9.8,0-17.8-8-17.8-17.8c0-9.8,8-17.8,17.8-17.8c9.8,0,17.8,8,17.8,17.8
		C912.9,328.7,905,336.7,895.2,336.7z M895.2,305.8c-7.3,0-13.2,5.9-13.2,13.2c0,7.3,5.9,13.2,13.2,13.2c7.3,0,13.2-5.9,13.2-13.2
		C908.3,311.7,902.4,305.8,895.2,305.8z"/>
	<circle class="st2" cx="929.5" cy="353.7" r="14.8"/>
	<path class="st3" d="M929.5,370.8c-9.5,0-17.1-7.7-17.1-17.1c0-9.4,7.7-17.1,17.1-17.1c9.4,0,17.1,7.7,17.1,17.1
		C946.6,363.1,938.9,370.8,929.5,370.8z M929.5,341.1c-6.9,0-12.5,5.6-12.5,12.5s5.6,12.5,12.5,12.5c6.9,0,12.5-5.6,12.5-12.5
		S936.4,341.1,929.5,341.1z"/>
	<path class="st3" d="M1263.8,576.9c-0.1,0-0.2,0-0.4,0c-1.3-0.2-2.1-1.4-1.9-2.6c5.2-34-8.7-67.4-8.9-67.7c-0.5-1.2,0.1-2.5,1.2-3
		c1.2-0.5,2.5,0.1,3,1.2c0.6,1.4,14.6,35,9.2,70.2C1265.9,576.1,1264.9,576.9,1263.8,576.9z"/>
	<path class="st3" d="M1208,547.5c-1.1,0-2-0.7-2.3-1.8c-22.3-107.2-90.9-126.4-91.6-126.6c-1.2-0.3-2-1.6-1.6-2.8
		c0.3-1.2,1.6-2,2.8-1.6c0.7,0.2,18.4,4.9,39,23.4c18.9,17,44,49.2,55.9,106.7c0.3,1.2-0.5,2.5-1.8,2.7
		C1208.3,547.5,1208.1,547.5,1208,547.5z"/>
	<path class="st3" d="M1215,679.6h-186.8c-1.3,0-2.3-1-2.3-2.3c0-1.3,1-2.3,2.3-2.3H1215c1.3,0,2.3,1,2.3,2.3
		C1217.3,678.5,1216.3,679.6,1215,679.6z"/>
	<path class="st3" d="M183.9,831.3c-1.3,0-2.5-0.9-2.8-2.3c-0.2-0.7,0-1.5,0.4-2.1c0.4-0.6,1.1-1.1,1.8-1.2c0.2,0,0.4-0.1,0.6-0.1
		c1.3,0,2.5,0.9,2.8,2.3c0.3,1.5-0.7,3-2.2,3.3C184.3,831.3,184.1,831.3,183.9,831.3z"/>
	<path class="st3" d="M231.8,626.1c-1.3,0-2.5-0.9-2.8-2.3c-0.2-0.7,0-1.5,0.4-2.1c0.4-0.6,1.1-1.1,1.8-1.2c0.2,0,0.4-0.1,0.6-0.1
		c1.3,0,2.5,0.9,2.8,2.3c0.3,1.5-0.7,3-2.2,3.3C232.1,626.1,232,626.1,231.8,626.1L231.8,626.1z"/>
	<path class="st3" d="M976.4,540c-1.3,0-2.5-0.9-2.8-2.3c-0.3-1.5,0.7-3,2.2-3.3c0.2,0,0.4-0.1,0.6-0.1c1.3,0,2.5,0.9,2.8,2.3
		c0.3,1.5-0.7,3-2.2,3.3C976.7,540,976.5,540,976.4,540L976.4,540z"/>
	<path class="st3" d="M1230.1,680.1c-1.3,0-2.5-0.9-2.8-2.3c-0.3-1.5,0.7-3,2.2-3.3c0.2,0,0.4-0.1,0.6-0.1c1.3,0,2.5,0.9,2.8,2.3
		c0.3,1.5-0.7,3-2.2,3.3C1230.4,680.1,1230.3,680.1,1230.1,680.1z"/>
	<path class="st3" d="M1259.8,592.8c-1.3,0-2.5-0.9-2.8-2.3c-0.3-1.5,0.7-3,2.2-3.3c0.2,0,0.4-0.1,0.6-0.1c1.3,0,2.5,1,2.8,2.3
		c0.2,0.7,0,1.5-0.4,2.1c-0.4,0.6-1.1,1.1-1.8,1.2C1260.2,592.8,1260,592.8,1259.8,592.8z"/>
	<path class="st3" d="M1233.3,375.1c-1.3,0-2.5-1-2.8-2.3c-0.3-1.5,0.7-3,2.2-3.3c0.2,0,0.4-0.1,0.6-0.1c1.3,0,2.5,1,2.8,2.3
		c0.3,1.5-0.7,3-2.2,3.3C1233.7,375.1,1233.5,375.1,1233.3,375.1z"/>
	<path class="st3" d="M697,143c-1.3,0-2.5-1-2.8-2.3c-0.3-1.5,0.7-3,2.2-3.3c0.2,0,0.4-0.1,0.6-0.1c1.3,0,2.5,1,2.8,2.3
		c0.1,0.7,0,1.5-0.4,2.1c-0.4,0.6-1.1,1.1-1.8,1.2C697.3,142.9,697.1,143,697,143z"/>
	<path class="st3" d="M469.4,187.1c-1.3,0-2.5-1-2.8-2.3c-0.3-1.5,0.7-3,2.2-3.3c0.2,0,0.4-0.1,0.6-0.1c1.3,0,2.5,1,2.8,2.3
		c0.3,1.5-0.7,3-2.2,3.3C469.8,187.1,469.6,187.1,469.4,187.1z"/>
	<path class="st3" d="M299.9,329c-1.3,0-2.5-1-2.8-2.3c-0.3-1.5,0.7-3,2.2-3.3c0.2,0,0.4-0.1,0.6-0.1c1.3,0,2.5,1,2.8,2.3
		c0.2,0.7,0,1.5-0.4,2.1c-0.4,0.6-1.1,1.1-1.8,1.2C300.3,329,300.1,329,299.9,329z"/>
	<path class="st3" d="M1209.9,564.6c-1.3,0-2.5-0.9-2.8-2.3c-0.3-1.5,0.7-3,2.2-3.3c0.2,0,0.4-0.1,0.6-0.1c1.3,0,2.5,1,2.8,2.3
		c0.1,0.7,0,1.5-0.4,2.1c-0.4,0.6-1.1,1.1-1.8,1.2C1210.3,564.5,1210.1,564.6,1209.9,564.6z"/>
	<path class="st3" d="M726,264.1c-0.7,0-1.4,0-2.1,0c-1.3-0.1-2.3-1.1-2.2-2.4c0.1-1.3,1.1-2.2,2.4-2.2c0.6,0,1.3,0,1.9,0L726,264.1
		C726,264.1,726,264.1,726,264.1z M713.9,262.6c-0.2,0-0.4,0-0.6-0.1c-0.7-0.2-1.4-0.4-2.1-0.6c-1.2-0.4-1.9-1.6-1.6-2.9
		c0.4-1.2,1.7-1.9,2.9-1.6c0.6,0.2,1.3,0.4,1.9,0.5c1.2,0.3,2,1.6,1.7,2.8C715.9,261.9,714.9,262.6,713.9,262.6z M702.5,258.1
		c-0.4,0-0.7-0.1-1.1-0.3c-0.6-0.3-1.2-0.7-1.9-1.1c-1.1-0.7-1.5-2.1-0.8-3.2c0.7-1.1,2.1-1.4,3.2-0.8c0.6,0.3,1.1,0.7,1.7,1
		c1.1,0.6,1.5,2,0.9,3.1C704.1,257.7,703.3,258.1,702.5,258.1z M692.5,251c-0.6,0-1.1-0.2-1.6-0.6c-0.5-0.5-1-1-1.5-1.5
		c-0.9-0.9-0.9-2.4,0-3.3c0.9-0.9,2.4-0.9,3.3,0c0.5,0.5,0.9,0.9,1.4,1.4c0.9,0.9,1,2.3,0.1,3.3C693.8,250.7,693.2,251,692.5,251z
		 M684.6,241.6c-0.8,0-1.5-0.4-1.9-1c-0.4-0.6-0.8-1.2-1.1-1.8c-0.7-1.1-0.3-2.5,0.8-3.2c1.1-0.7,2.5-0.3,3.2,0.8
		c0.3,0.6,0.7,1.1,1,1.7c0.7,1.1,0.4,2.5-0.7,3.2C685.5,241.5,685.1,241.6,684.6,241.6z M679.3,230.6c-1,0-1.9-0.6-2.2-1.6
		c-0.2-0.7-0.4-1.4-0.6-2c-0.4-1.2,0.3-2.5,1.6-2.9c1.2-0.4,2.5,0.3,2.9,1.6c0.2,0.6,0.4,1.2,0.6,1.9c0.4,1.2-0.2,2.5-1.4,2.9
		C679.8,230.6,679.5,230.6,679.3,230.6z M676.8,218.6c-1.2,0-2.2-0.9-2.3-2.1l-0.1-0.9c0-0.4,0-0.8-0.1-1.3c0-1.3,0.9-2.3,2.2-2.4
		c1.3,0,2.3,0.9,2.4,2.2c0,0.4,0,0.8,0.1,1.2l0.1,0.8c0.1,1.3-0.8,2.4-2.1,2.5C676.9,218.6,676.9,218.6,676.8,218.6z M677.3,206.4
		c-0.1,0-0.3,0-0.4,0c-1.3-0.2-2.1-1.4-1.9-2.7c0.1-0.7,0.3-1.4,0.4-2.1c0.3-1.2,1.5-2,2.7-1.8c1.2,0.3,2,1.5,1.8,2.7
		c-0.1,0.6-0.3,1.3-0.4,1.9C679.4,205.6,678.4,206.4,677.3,206.4z M680.9,194.7c-0.3,0-0.6-0.1-0.9-0.2c-1.2-0.5-1.7-1.9-1.2-3
		c0.3-0.7,0.6-1.3,0.9-1.9c0.6-1.1,1.9-1.6,3.1-1c1.1,0.6,1.6,2,1,3.1c-0.3,0.6-0.6,1.2-0.8,1.8
		C682.6,194.2,681.8,194.7,680.9,194.7z M687.2,184.2c-0.5,0-1-0.2-1.4-0.5c-1-0.8-1.2-2.2-0.4-3.2c0.4-0.6,0.9-1.1,1.4-1.7
		c0.8-1,2.3-1.1,3.3-0.3c1,0.8,1.1,2.3,0.3,3.3c-0.4,0.5-0.8,1-1.2,1.5C688.6,183.9,687.9,184.2,687.2,184.2z M695.9,175.6
		c-0.7,0-1.4-0.3-1.8-0.9c-0.8-1-0.6-2.5,0.4-3.2c0.6-0.4,1.1-0.9,1.7-1.3c1-0.7,2.5-0.5,3.2,0.6c0.7,1,0.5,2.5-0.6,3.2
		c-0.5,0.4-1.1,0.8-1.6,1.2C696.9,175.4,696.4,175.6,695.9,175.6z M706.5,169.4c-0.9,0-1.7-0.5-2.1-1.4c-0.5-1.2,0-2.5,1.2-3
		c0.7-0.3,1.3-0.5,2-0.8c1.2-0.4,2.5,0.1,3,1.3c0.5,1.2-0.1,2.5-1.3,3c-0.6,0.2-1.2,0.5-1.8,0.7
		C707.1,169.3,706.8,169.4,706.5,169.4z M718.2,166c-1.1,0-2.1-0.8-2.3-1.9c-0.2-1.3,0.7-2.4,1.9-2.6c0.7-0.1,1.4-0.2,2.1-0.3
		c1.2-0.1,2.4,0.8,2.6,2c0.1,1.3-0.8,2.4-2,2.6c-0.6,0.1-1.3,0.2-1.9,0.3C718.5,166,718.3,166,718.2,166z"/>
	<path class="st3" d="M552.6,598.2h-56.4c-1.3,0-2.3-1-2.3-2.3s1-2.3,2.3-2.3h56.4c1.3,0,2.3,1,2.3,2.3S553.9,598.2,552.6,598.2z"/>
	<path class="st3" d="M552.6,653.7h-56.4c-1.3,0-2.3-1-2.3-2.3c0-1.3,1-2.3,2.3-2.3h56.4c1.3,0,2.3,1,2.3,2.3
		C555,652.7,553.9,653.7,552.6,653.7z"/>
	<path class="st3" d="M528.7,709.3h-32.4c-1.3,0-2.3-1-2.3-2.3s1-2.3,2.3-2.3h32.4c1.3,0,2.3,1,2.3,2.3S529.9,709.3,528.7,709.3z"/>
	<path class="st3" d="M539.1,764.8h-42.8c-1.3,0-2.3-1-2.3-2.3c0-1.3,1-2.3,2.3-2.3h42.8c1.3,0,2.3,1,2.3,2.3
		C541.4,763.8,540.3,764.8,539.1,764.8z"/>
	<path class="st3" d="M552.6,820.4h-56.4c-1.3,0-2.3-1-2.3-2.3c0-1.3,1-2.3,2.3-2.3h56.4c1.3,0,2.3,1,2.3,2.3
		C555,819.3,553.9,820.4,552.6,820.4z"/>
	<path class="st3" d="M1066,598.2h-42.8c-1.3,0-2.3-1-2.3-2.3s1-2.3,2.3-2.3h42.8c1.3,0,2.3,1,2.3,2.3S1067.3,598.2,1066,598.2z"/>
	<path class="st3" d="M1066,653.7h-56.4c-1.3,0-2.3-1-2.3-2.3c0-1.3,1-2.3,2.3-2.3h56.4c1.3,0,2.3,1,2.3,2.3
		C1068.3,652.7,1067.3,653.7,1066,653.7z"/>
	<path class="st3" d="M1066,709.3h-32.4c-1.3,0-2.3-1-2.3-2.3s1-2.3,2.3-2.3h32.4c1.3,0,2.3,1,2.3,2.3S1067.3,709.3,1066,709.3z"/>
	<path class="st3" d="M1066,764.8h-42.8c-1.3,0-2.3-1-2.3-2.3c0-1.3,1-2.3,2.3-2.3h42.8c1.3,0,2.3,1,2.3,2.3
		C1068.3,763.8,1067.3,764.8,1066,764.8z"/>
	<path class="st3" d="M1066,820.4h-56.4c-1.3,0-2.3-1-2.3-2.3c0-1.3,1-2.3,2.3-2.3h56.4c1.3,0,2.3,1,2.3,2.3
		C1068.3,819.3,1067.3,820.4,1066,820.4z"/>
	<path class="st3" d="M952.1,576.9h-2c-1.3,0-2.3-1-2.3-2.3c0-1.3,1-2.3,2.3-2.3h2c1.3,0,2.3,1,2.3,2.3
		C954.4,575.9,953.4,576.9,952.1,576.9z M939.8,576.9h-2c-1.3,0-2.3-1-2.3-2.3c0-1.3,1-2.3,2.3-2.3h2c1.3,0,2.3,1,2.3,2.3
		C942.1,575.9,941.1,576.9,939.8,576.9z M927.5,576.9h-2c-1.3,0-2.3-1-2.3-2.3c0-1.3,1-2.3,2.3-2.3h2c1.3,0,2.3,1,2.3,2.3
		C929.8,575.9,928.8,576.9,927.5,576.9z M915.3,576.9h-2c-1.3,0-2.3-1-2.3-2.3c0-1.3,1-2.3,2.3-2.3h2c1.3,0,2.3,1,2.3,2.3
		C917.6,575.9,916.5,576.9,915.3,576.9z M903,576.9h-2c-1.3,0-2.3-1-2.3-2.3c0-1.3,1-2.3,2.3-2.3h2c1.3,0,2.3,1,2.3,2.3
		C905.3,575.9,904.3,576.9,903,576.9z M890.7,576.9h-2c-1.3,0-2.3-1-2.3-2.3c0-1.3,1-2.3,2.3-2.3h2c1.3,0,2.3,1,2.3,2.3
		C893,575.9,892,576.9,890.7,576.9z M878.4,576.9h-2c-1.3,0-2.3-1-2.3-2.3c0-1.3,1-2.3,2.3-2.3h2c1.3,0,2.3,1,2.3,2.3
		C880.7,575.9,879.7,576.9,878.4,576.9z M866.1,576.9h-2c-1.3,0-2.3-1-2.3-2.3c0-1.3,1-2.3,2.3-2.3h2c1.3,0,2.3,1,2.3,2.3
		C868.5,575.9,867.4,576.9,866.1,576.9z M853.9,576.9h-2c-1.3,0-2.3-1-2.3-2.3c0-1.3,1-2.3,2.3-2.3h2c1.3,0,2.3,1,2.3,2.3
		C856.2,575.9,855.1,576.9,853.9,576.9z M841.6,576.9h-2c-1.3,0-2.3-1-2.3-2.3c0-1.3,1-2.3,2.3-2.3h2c1.3,0,2.3,1,2.3,2.3
		C843.9,575.9,842.9,576.9,841.6,576.9z M829.3,576.9h-2c-1.3,0-2.3-1-2.3-2.3c0-1.3,1-2.3,2.3-2.3h2c1.3,0,2.3,1,2.3,2.3
		C831.6,575.9,830.6,576.9,829.3,576.9z M817,576.9h-2c-1.3,0-2.3-1-2.3-2.3c0-1.3,1-2.3,2.3-2.3h2c1.3,0,2.3,1,2.3,2.3
		C819.3,575.9,818.3,576.9,817,576.9z M804.8,576.9h-2c-1.3,0-2.3-1-2.3-2.3c0-1.3,1-2.3,2.3-2.3h2c1.3,0,2.3,1,2.3,2.3
		C807.1,575.9,806,576.9,804.8,576.9z M792.5,576.9h-2c-1.3,0-2.3-1-2.3-2.3c0-1.3,1-2.3,2.3-2.3h2c1.3,0,2.3,1,2.3,2.3
		C794.8,575.9,793.8,576.9,792.5,576.9z M780.2,576.9h-2c-1.3,0-2.3-1-2.3-2.3c0-1.3,1-2.3,2.3-2.3h2c1.3,0,2.3,1,2.3,2.3
		C782.5,575.9,781.5,576.9,780.2,576.9z M767.9,576.9h-2c-1.3,0-2.3-1-2.3-2.3c0-1.3,1-2.3,2.3-2.3h2c1.3,0,2.3,1,2.3,2.3
		C770.2,575.9,769.2,576.9,767.9,576.9z M755.6,576.9h-2c-1.3,0-2.3-1-2.3-2.3c0-1.3,1-2.3,2.3-2.3h2c1.3,0,2.3,1,2.3,2.3
		C757.9,575.9,756.9,576.9,755.6,576.9z M743.4,576.9h-2c-1.3,0-2.3-1-2.3-2.3c0-1.3,1-2.3,2.3-2.3h2c1.3,0,2.3,1,2.3,2.3
		C745.7,575.9,744.6,576.9,743.4,576.9z M731.1,576.9h-2c-1.3,0-2.3-1-2.3-2.3c0-1.3,1-2.3,2.3-2.3h2c1.3,0,2.3,1,2.3,2.3
		C733.4,575.9,732.4,576.9,731.1,576.9z M718.8,576.9h-2c-1.3,0-2.3-1-2.3-2.3c0-1.3,1-2.3,2.3-2.3h2c1.3,0,2.3,1,2.3,2.3
		C721.1,575.9,720.1,576.9,718.8,576.9z M706.5,576.9h-2c-1.3,0-2.3-1-2.3-2.3c0-1.3,1-2.3,2.3-2.3h2c1.3,0,2.3,1,2.3,2.3
		C708.8,575.9,707.8,576.9,706.5,576.9z M694.3,576.9h-2c-1.3,0-2.3-1-2.3-2.3c0-1.3,1-2.3,2.3-2.3h2c1.3,0,2.3,1,2.3,2.3
		C696.6,575.9,695.5,576.9,694.3,576.9z M682,576.9h-2c-1.3,0-2.3-1-2.3-2.3c0-1.3,1-2.3,2.3-2.3h2c1.3,0,2.3,1,2.3,2.3
		C684.3,575.9,683.2,576.9,682,576.9z M669.7,576.9h-2c-1.3,0-2.3-1-2.3-2.3c0-1.3,1-2.3,2.3-2.3h2c1.3,0,2.3,1,2.3,2.3
		C672,575.9,671,576.9,669.7,576.9z M657.4,576.9h-2c-1.3,0-2.3-1-2.3-2.3c0-1.3,1-2.3,2.3-2.3h2c1.3,0,2.3,1,2.3,2.3
		C659.7,575.9,658.7,576.9,657.4,576.9z M645.1,576.9h-2c-1.3,0-2.3-1-2.3-2.3c0-1.3,1-2.3,2.3-2.3h2c1.3,0,2.3,1,2.3,2.3
		C647.4,575.9,646.4,576.9,645.1,576.9z M632.9,576.9h-2c-1.3,0-2.3-1-2.3-2.3c0-1.3,1-2.3,2.3-2.3h2c1.3,0,2.3,1,2.3,2.3
		C635.2,575.9,634.1,576.9,632.9,576.9z M620.6,576.9h-2c-1.3,0-2.3-1-2.3-2.3c0-1.3,1-2.3,2.3-2.3h2c1.3,0,2.3,1,2.3,2.3
		C622.9,575.9,621.9,576.9,620.6,576.9z M608.3,576.9h-2c-1.3,0-2.3-1-2.3-2.3c0-1.3,1-2.3,2.3-2.3h2c1.3,0,2.3,1,2.3,2.3
		C610.6,575.9,609.6,576.9,608.3,576.9z M596,576.9h-2c-1.3,0-2.3-1-2.3-2.3c0-1.3,1-2.3,2.3-2.3h2c1.3,0,2.3,1,2.3,2.3
		C598.3,575.9,597.3,576.9,596,576.9z M583.7,576.9h-2c-1.3,0-2.3-1-2.3-2.3c0-1.3,1-2.3,2.3-2.3h2c1.3,0,2.3,1,2.3,2.3
		C586.1,575.9,585,576.9,583.7,576.9z M571.5,576.9h-2c-1.3,0-2.3-1-2.3-2.3c0-1.3,1-2.3,2.3-2.3h2c1.3,0,2.3,1,2.3,2.3
		C573.8,575.9,572.7,576.9,571.5,576.9z M559.2,576.9h-2c-1.3,0-2.3-1-2.3-2.3c0-1.3,1-2.3,2.3-2.3h2c1.3,0,2.3,1,2.3,2.3
		C561.5,575.9,560.5,576.9,559.2,576.9z M546.9,576.9h-2c-1.3,0-2.3-1-2.3-2.3c0-1.3,1-2.3,2.3-2.3h2c1.3,0,2.3,1,2.3,2.3
		C549.2,575.9,548.2,576.9,546.9,576.9z M534.6,576.9h-2c-1.3,0-2.3-1-2.3-2.3c0-1.3,1-2.3,2.3-2.3h2c1.3,0,2.3,1,2.3,2.3
		C536.9,575.9,535.9,576.9,534.6,576.9z M522.4,576.9h-2c-1.3,0-2.3-1-2.3-2.3c0-1.3,1-2.3,2.3-2.3h2c1.3,0,2.3,1,2.3,2.3
		C524.7,575.9,523.6,576.9,522.4,576.9z M510.1,576.9h-2c-1.3,0-2.3-1-2.3-2.3c0-1.3,1-2.3,2.3-2.3h2c1.3,0,2.3,1,2.3,2.3
		C512.4,575.9,511.4,576.9,510.1,576.9z M497.8,576.9h-2c-1.3,0-2.3-1-2.3-2.3c0-1.3,1-2.3,2.3-2.3h2c1.3,0,2.3,1,2.3,2.3
		C500.1,575.9,499.1,576.9,497.8,576.9z M485.5,576.9h-2c-1.3,0-2.3-1-2.3-2.3c0-1.3,1-2.3,2.3-2.3h2c1.3,0,2.3,1,2.3,2.3
		C487.8,575.9,486.8,576.9,485.5,576.9z M473.2,576.9h-2c-1.3,0-2.3-1-2.3-2.3c0-1.3,1-2.3,2.3-2.3h2c1.3,0,2.3,1,2.3,2.3
		C475.5,575.9,474.5,576.9,473.2,576.9z"/>
	<path class="st3" d="M269,874.5c-1,0-1.9-0.7-2.2-1.7c-2.4-8.2-8-15.2-15.6-19.2c-7.6-4-16.6-4.7-24.7-2c-1.2,0.4-2.5-0.3-2.9-1.5
		c-0.4-1.2,0.3-2.5,1.5-2.9c9.3-3.1,19.6-2.2,28.3,2.3c8.7,4.6,15.2,12.6,17.9,22c0.4,1.2-0.4,2.5-1.6,2.9
		C269.5,874.5,269.2,874.5,269,874.5z"/>
	<g id="_x32_018">
		<path class="st7" d="M704.9,747v18H633v-14.3l36.7-34.7c8.4-8,9.9-12.9,9.9-17.5c0-7.5-5.2-11.8-15.2-11.8
			c-8.2,0-15.1,3.1-19.7,9.5l-16-10.3c7.3-10.7,20.7-17.7,37.8-17.7c21.2,0,35.4,10.9,35.4,28.2c0,9.2-2.6,17.7-15.9,30.1L664,747
			H704.9z"/>
		<path class="st7" d="M713.8,717.3c0-31.4,17.4-49.2,40.8-49.2c23.5,0,40.8,17.8,40.8,49.2c0,31.4-17.3,49.2-40.8,49.2
			C731.2,766.6,713.8,748.7,713.8,717.3z M773.2,717.3c0-21.6-7.6-30.6-18.6-30.6c-10.9,0-18.5,9-18.5,30.6s7.6,30.6,18.5,30.6
			C765.6,747.9,773.2,739,773.2,717.3z"/>
		<path class="st7" d="M842,669.7v95.2h-22v-77.5h-19v-17.7H842z"/>
		<path class="st7" d="M938.3,737.3c0,18-16,29.2-40.3,29.2c-24.1,0-40-11.3-40-29.2c0-10.2,5.3-17.8,14.4-22.4
			c-7.1-4.4-11-11-11-19.6c0-16.7,15-27.2,36.6-27.2c21.9,0,36.9,10.5,36.9,27.2c0,8.6-4.1,15.2-11.2,19.6
			C933,719.5,938.3,727.1,938.3,737.3z M916,736.6c0-8.4-6.9-13.6-18-13.6c-10.9,0-17.7,5.2-17.7,13.6c0,8.4,6.8,13.7,17.7,13.7
			C909.1,750.4,916,745.1,916,736.6z M883.4,696.2c0,7.2,5.7,11.7,14.7,11.7c9.1,0,15-4.5,15-11.7c0-7.5-6-12-15-12
			C889.2,684.3,883.4,688.8,883.4,696.2z"/>
	</g>
	<path class="st3" d="M833.9,653.7h-2c-1.3,0-2.3-1-2.3-2.3c0-1.3,1-2.3,2.3-2.3h2c1.3,0,2.3,1,2.3,2.3
		C836.2,652.7,835.1,653.7,833.9,653.7z M821.6,653.7h-2c-1.3,0-2.3-1-2.3-2.3c0-1.3,1-2.3,2.3-2.3h2c1.3,0,2.3,1,2.3,2.3
		C823.9,652.7,822.9,653.7,821.6,653.7z M809.3,653.7h-2c-1.3,0-2.3-1-2.3-2.3c0-1.3,1-2.3,2.3-2.3h2c1.3,0,2.3,1,2.3,2.3
		C811.6,652.7,810.6,653.7,809.3,653.7z M797,653.7h-2c-1.3,0-2.3-1-2.3-2.3c0-1.3,1-2.3,2.3-2.3h2c1.3,0,2.3,1,2.3,2.3
		C799.3,652.7,798.3,653.7,797,653.7z M784.8,653.7h-2c-1.3,0-2.3-1-2.3-2.3c0-1.3,1-2.3,2.3-2.3h2c1.3,0,2.3,1,2.3,2.3
		C787.1,652.7,786,653.7,784.8,653.7z M772.5,653.7h-2c-1.3,0-2.3-1-2.3-2.3c0-1.3,1-2.3,2.3-2.3h2c1.3,0,2.3,1,2.3,2.3
		C774.8,652.7,773.7,653.7,772.5,653.7z M760.2,653.7h-2c-1.3,0-2.3-1-2.3-2.3c0-1.3,1-2.3,2.3-2.3h2c1.3,0,2.3,1,2.3,2.3
		C762.5,652.7,761.5,653.7,760.2,653.7z M747.9,653.7h-2c-1.3,0-2.3-1-2.3-2.3c0-1.3,1-2.3,2.3-2.3h2c1.3,0,2.3,1,2.3,2.3
		C750.2,652.7,749.2,653.7,747.9,653.7z M735.6,653.7h-2c-1.3,0-2.3-1-2.3-2.3c0-1.3,1-2.3,2.3-2.3h2c1.3,0,2.3,1,2.3,2.3
		C737.9,652.7,736.9,653.7,735.6,653.7z M723.4,653.7h-2c-1.3,0-2.3-1-2.3-2.3c0-1.3,1-2.3,2.3-2.3h2c1.3,0,2.3,1,2.3,2.3
		C725.7,652.7,724.6,653.7,723.4,653.7z M711.1,653.7h-2c-1.3,0-2.3-1-2.3-2.3c0-1.3,1-2.3,2.3-2.3h2c1.3,0,2.3,1,2.3,2.3
		C713.4,652.7,712.4,653.7,711.1,653.7z M698.8,653.7h-2c-1.3,0-2.3-1-2.3-2.3c0-1.3,1-2.3,2.3-2.3h2c1.3,0,2.3,1,2.3,2.3
		C701.1,652.7,700.1,653.7,698.8,653.7z M686.5,653.7h-2c-1.3,0-2.3-1-2.3-2.3c0-1.3,1-2.3,2.3-2.3h2c1.3,0,2.3,1,2.3,2.3
		C688.8,652.7,687.8,653.7,686.5,653.7z M674.2,653.7h-2c-1.3,0-2.3-1-2.3-2.3c0-1.3,1-2.3,2.3-2.3h2c1.3,0,2.3,1,2.3,2.3
		C676.6,652.7,675.5,653.7,674.2,653.7z M662,653.7h-2c-1.3,0-2.3-1-2.3-2.3c0-1.3,1-2.3,2.3-2.3h2c1.3,0,2.3,1,2.3,2.3
		C664.3,652.7,663.2,653.7,662,653.7z M649.7,653.7h-2c-1.3,0-2.3-1-2.3-2.3c0-1.3,1-2.3,2.3-2.3h2c1.3,0,2.3,1,2.3,2.3
		C652,652.7,651,653.7,649.7,653.7z M637.4,653.7h-2c-1.3,0-2.3-1-2.3-2.3c0-1.3,1-2.3,2.3-2.3h2c1.3,0,2.3,1,2.3,2.3
		C639.7,652.7,638.7,653.7,637.4,653.7z M625.1,653.7h-2c-1.3,0-2.3-1-2.3-2.3c0-1.3,1-2.3,2.3-2.3h2c1.3,0,2.3,1,2.3,2.3
		C627.4,652.7,626.4,653.7,625.1,653.7z M612.9,653.7h-2c-1.3,0-2.3-1-2.3-2.3c0-1.3,1-2.3,2.3-2.3h2c1.3,0,2.3,1,2.3,2.3
		C615.2,652.7,614.1,653.7,612.9,653.7z M600.6,653.7h-2c-1.3,0-2.3-1-2.3-2.3c0-1.3,1-2.3,2.3-2.3h2c1.3,0,2.3,1,2.3,2.3
		C602.9,652.7,601.8,653.7,600.6,653.7z M588.3,653.7h-2c-1.3,0-2.3-1-2.3-2.3c0-1.3,1-2.3,2.3-2.3h2c1.3,0,2.3,1,2.3,2.3
		C590.6,652.7,589.6,653.7,588.3,653.7z M576,653.7h-2c-1.3,0-2.3-1-2.3-2.3c0-1.3,1-2.3,2.3-2.3h2c1.3,0,2.3,1,2.3,2.3
		C578.3,652.7,577.3,653.7,576,653.7z"/>
	<path class="st3" d="M1058.2,791.9h-2.1c-1.3,0-2.4-1-2.4-2.3c0-1.3,1.1-2.3,2.4-2.3h2.1c1.3,0,2.4,1,2.4,2.3
		C1060.5,790.8,1059.5,791.9,1058.2,791.9z M1045.6,791.9h-2.1c-1.3,0-2.4-1-2.4-2.3c0-1.3,1.1-2.3,2.4-2.3h2.1c1.3,0,2.4,1,2.4,2.3
		C1048,790.8,1046.9,791.9,1045.6,791.9z M1033.1,791.9h-2.1c-1.3,0-2.4-1-2.4-2.3c0-1.3,1.1-2.3,2.4-2.3h2.1c1.3,0,2.4,1,2.4,2.3
		C1035.5,790.8,1034.4,791.9,1033.1,791.9z M1020.6,791.9h-2.1c-1.3,0-2.4-1-2.4-2.3c0-1.3,1.1-2.3,2.4-2.3h2.1c1.3,0,2.4,1,2.4,2.3
		C1022.9,790.8,1021.9,791.9,1020.6,791.9z M1008,791.9h-2.1c-1.3,0-2.4-1-2.4-2.3c0-1.3,1.1-2.3,2.4-2.3h2.1c1.3,0,2.4,1,2.4,2.3
		C1010.4,790.8,1009.3,791.9,1008,791.9z M995.5,791.9h-2.1c-1.3,0-2.4-1-2.4-2.3c0-1.3,1.1-2.3,2.4-2.3h2.1c1.3,0,2.4,1,2.4,2.3
		C997.8,790.8,996.8,791.9,995.5,791.9z M982.9,791.9h-2.1c-1.3,0-2.4-1-2.4-2.3c0-1.3,1.1-2.3,2.4-2.3h2.1c1.3,0,2.4,1,2.4,2.3
		C985.3,790.8,984.2,791.9,982.9,791.9z M970.4,791.9h-2.1c-1.3,0-2.4-1-2.4-2.3c0-1.3,1.1-2.3,2.4-2.3h2.1c1.3,0,2.4,1,2.4,2.3
		C972.7,790.8,971.7,791.9,970.4,791.9z M957.8,791.9h-2.1c-1.3,0-2.4-1-2.4-2.3c0-1.3,1.1-2.3,2.4-2.3h2.1c1.3,0,2.4,1,2.4,2.3
		C960.2,790.8,959.1,791.9,957.8,791.9z M945.3,791.9h-2.1c-1.3,0-2.4-1-2.4-2.3c0-1.3,1.1-2.3,2.4-2.3h2.1c1.3,0,2.4,1,2.4,2.3
		C947.6,790.8,946.6,791.9,945.3,791.9z M932.7,791.9h-2.1c-1.3,0-2.4-1-2.4-2.3c0-1.3,1.1-2.3,2.4-2.3h2.1c1.3,0,2.4,1,2.4,2.3
		C935.1,790.8,934,791.9,932.7,791.9z M920.2,791.9h-2.1c-1.3,0-2.4-1-2.4-2.3c0-1.3,1.1-2.3,2.4-2.3h2.1c1.3,0,2.4,1,2.4,2.3
		C922.6,790.8,921.5,791.9,920.2,791.9z M907.7,791.9h-2.1c-1.3,0-2.4-1-2.4-2.3c0-1.3,1.1-2.3,2.4-2.3h2.1c1.3,0,2.4,1,2.4,2.3
		C910,790.8,909,791.9,907.7,791.9z M895.1,791.9H893c-1.3,0-2.4-1-2.4-2.3c0-1.3,1.1-2.3,2.4-2.3h2.1c1.3,0,2.4,1,2.4,2.3
		C897.5,790.8,896.4,791.9,895.1,791.9z M882.6,791.9h-2.1c-1.3,0-2.4-1-2.4-2.3c0-1.3,1.1-2.3,2.4-2.3h2.1c1.3,0,2.4,1,2.4,2.3
		C884.9,790.8,883.9,791.9,882.6,791.9z M870,791.9h-2.1c-1.3,0-2.4-1-2.4-2.3c0-1.3,1.1-2.3,2.4-2.3h2.1c1.3,0,2.4,1,2.4,2.3
		C872.4,790.8,871.3,791.9,870,791.9z M857.5,791.9h-2.1c-1.3,0-2.4-1-2.4-2.3c0-1.3,1.1-2.3,2.4-2.3h2.1c1.3,0,2.4,1,2.4,2.3
		C859.8,790.8,858.8,791.9,857.5,791.9z M844.9,791.9h-2.1c-1.3,0-2.4-1-2.4-2.3c0-1.3,1.1-2.3,2.4-2.3h2.1c1.3,0,2.4,1,2.4,2.3
		C847.3,790.8,846.2,791.9,844.9,791.9z M832.4,791.9h-2.1c-1.3,0-2.4-1-2.4-2.3c0-1.3,1.1-2.3,2.4-2.3h2.1c1.3,0,2.4,1,2.4,2.3
		C834.7,790.8,833.7,791.9,832.4,791.9z M819.8,791.9h-2.1c-1.3,0-2.4-1-2.4-2.3c0-1.3,1.1-2.3,2.4-2.3h2.1c1.3,0,2.4,1,2.4,2.3
		C822.2,790.8,821.1,791.9,819.8,791.9z M807.3,791.9h-2.1c-1.3,0-2.4-1-2.4-2.3c0-1.3,1.1-2.3,2.4-2.3h2.1c1.3,0,2.4,1,2.4,2.3
		C809.7,790.8,808.6,791.9,807.3,791.9z M794.8,791.9h-2.1c-1.3,0-2.4-1-2.4-2.3c0-1.3,1.1-2.3,2.4-2.3h2.1c1.3,0,2.4,1,2.4,2.3
		C797.1,790.8,796.1,791.9,794.8,791.9z M782.2,791.9h-2.1c-1.3,0-2.4-1-2.4-2.3c0-1.3,1.1-2.3,2.4-2.3h2.1c1.3,0,2.4,1,2.4,2.3
		C784.6,790.8,783.5,791.9,782.2,791.9z M769.7,791.9h-2.1c-1.3,0-2.4-1-2.4-2.3c0-1.3,1.1-2.3,2.4-2.3h2.1c1.3,0,2.4,1,2.4,2.3
		C772,790.8,771,791.9,769.7,791.9z M757.1,791.9H755c-1.3,0-2.4-1-2.4-2.3c0-1.3,1.1-2.3,2.4-2.3h2.1c1.3,0,2.4,1,2.4,2.3
		C759.5,790.8,758.4,791.9,757.1,791.9z"/>
	<path class="st3" d="M944.3,657.4c-1.3,0-2.3-1-2.3-2.3v-41.2c0-1.3,1-2.3,2.3-2.3s2.3,1,2.3,2.3V655
		C946.6,656.3,945.6,657.4,944.3,657.4z"/>
	<path class="st3" d="M926.4,647c-0.8,0-1.6-0.4-2-1.2c-0.6-1.1-0.3-2.5,0.8-3.1l35.7-20.6c1.1-0.6,2.5-0.3,3.1,0.8
		c0.6,1.1,0.3,2.5-0.8,3.1l-35.7,20.6C927.2,646.9,926.8,647,926.4,647z"/>
	<path class="st3" d="M962.1,647c-0.4,0-0.8-0.1-1.2-0.3l-35.7-20.6c-1.1-0.6-1.5-2-0.8-3.1c0.6-1.1,2-1.5,3.1-0.8l35.7,20.6
		c1.1,0.6,1.5,2,0.8,3.1C963.7,646.6,962.9,647,962.1,647z"/>
	<path class="st3" d="M618.3,823.3c-9.9,0-18-8.1-18-18c0-9.9,8.1-18,18-18c9.9,0,18,8.1,18,18C636.3,815.2,628.2,823.3,618.3,823.3
		z M618.3,791.9c-7.4,0-13.4,6-13.4,13.4c0,7.4,6,13.4,13.4,13.4c7.4,0,13.4-6,13.4-13.4C631.7,797.9,625.7,791.9,618.3,791.9z"/>
	<path class="st3" d="M653.1,816.8c-4.6,0-8.4-3.8-8.4-8.4c0-4.6,3.8-8.4,8.4-8.4c4.6,0,8.4,3.8,8.4,8.4
		C661.5,813.1,657.7,816.8,653.1,816.8z M653.1,804.6c-2.1,0-3.8,1.7-3.8,3.8c0,2.1,1.7,3.8,3.8,3.8c2.1,0,3.8-1.7,3.8-3.8
		C656.9,806.3,655.2,804.6,653.1,804.6z"/>
	<path class="st3" d="M479,435.5c-1.2,0-2.3-1-2.3-2.2c-0.1-1.3,0.9-2.3,2.2-2.4c29.2-1.2,55.1-18.4,67.6-44.8
		c0.5-1.2,1.9-1.6,3.1-1.1c1.2,0.5,1.6,1.9,1.1,3.1C537.4,416,510,434.2,479,435.5C479.1,435.5,479,435.5,479,435.5z"/>
	<path class="st3" d="M776.5,229.5c-10.3,0-18.6-8.4-18.6-18.6s8.4-18.6,18.6-18.6c10.3,0,18.6,8.4,18.6,18.6
		S786.7,229.5,776.5,229.5z M776.5,196.8c-7.7,0-14,6.3-14,14c0,7.7,6.3,14,14,14c7.7,0,14-6.3,14-14
		C790.5,203.1,784.2,196.8,776.5,196.8z"/>
	<path class="st3" d="M635.4,285c-4.4,0-7.9-3.5-7.9-7.9c0-4.4,3.5-7.9,7.9-7.9c4.4,0,7.9,3.5,7.9,7.9
		C643.3,281.4,639.7,285,635.4,285z M635.4,273.8c-1.8,0-3.3,1.5-3.3,3.3c0,1.8,1.5,3.3,3.3,3.3c1.8,0,3.3-1.5,3.3-3.3
		C638.7,275.2,637.2,273.8,635.4,273.8z"/>
	<path class="st3" d="M201.5,601.5c-6.9,0-12.5-5.6-12.5-12.5c0-6.9,5.6-12.5,12.5-12.5c6.9,0,12.5,5.6,12.5,12.5
		C214,595.9,208.4,601.5,201.5,601.5z M201.5,581.1c-4.3,0-7.9,3.5-7.9,7.9c0,4.3,3.5,7.9,7.9,7.9c4.3,0,7.9-3.5,7.9-7.9
		C209.4,584.7,205.9,581.1,201.5,581.1z"/>
	<path class="st3" d="M1387.9,639.7c-11.8,0-21.4-9.6-21.4-21.4c0-11.8,9.6-21.4,21.4-21.4c11.8,0,21.4,9.6,21.4,21.4
		C1409.2,630.1,1399.6,639.7,1387.9,639.7z M1387.9,601.5c-9.3,0-16.8,7.5-16.8,16.8c0,9.3,7.5,16.8,16.8,16.8
		c9.3,0,16.8-7.5,16.8-16.8C1404.6,609,1397.1,601.5,1387.9,601.5z"/>
	<path class="st3" d="M1345.1,804.6h-2c-1.3,0-2.3-1-2.3-2.3c0-1.3,1-2.3,2.3-2.3h2c1.3,0,2.3,1,2.3,2.3
		C1347.4,803.6,1346.4,804.6,1345.1,804.6z M1332.8,804.6h-2c-1.3,0-2.3-1-2.3-2.3c0-1.3,1-2.3,2.3-2.3h2c1.3,0,2.3,1,2.3,2.3
		C1335.1,803.6,1334.1,804.6,1332.8,804.6z M1320.5,804.6h-2c-1.3,0-2.3-1-2.3-2.3c0-1.3,1-2.3,2.3-2.3h2c1.3,0,2.3,1,2.3,2.3
		C1322.8,803.6,1321.8,804.6,1320.5,804.6z M1308.3,804.6h-2c-1.3,0-2.3-1-2.3-2.3c0-1.3,1-2.3,2.3-2.3h2c1.3,0,2.3,1,2.3,2.3
		C1310.6,803.6,1309.5,804.6,1308.3,804.6z M1296,804.6h-2c-1.3,0-2.3-1-2.3-2.3c0-1.3,1-2.3,2.3-2.3h2c1.3,0,2.3,1,2.3,2.3
		C1298.3,803.6,1297.3,804.6,1296,804.6z M1283.7,804.6h-2c-1.3,0-2.3-1-2.3-2.3c0-1.3,1-2.3,2.3-2.3h2c1.3,0,2.3,1,2.3,2.3
		C1286,803.6,1285,804.6,1283.7,804.6z M1271.4,804.6h-2c-1.3,0-2.3-1-2.3-2.3c0-1.3,1-2.3,2.3-2.3h2c1.3,0,2.3,1,2.3,2.3
		C1273.7,803.6,1272.7,804.6,1271.4,804.6z M1259.1,804.6h-2c-1.3,0-2.3-1-2.3-2.3c0-1.3,1-2.3,2.3-2.3h2c1.3,0,2.3,1,2.3,2.3
		C1261.5,803.6,1260.4,804.6,1259.1,804.6z M1246.9,804.6h-2c-1.3,0-2.3-1-2.3-2.3c0-1.3,1-2.3,2.3-2.3h2c1.3,0,2.3,1,2.3,2.3
		C1249.2,803.6,1248.1,804.6,1246.9,804.6z M1234.6,804.6h-2c-1.3,0-2.3-1-2.3-2.3c0-1.3,1-2.3,2.3-2.3h2c1.3,0,2.3,1,2.3,2.3
		C1236.9,803.6,1235.9,804.6,1234.6,804.6z M1222.3,804.6h-2c-1.3,0-2.3-1-2.3-2.3c0-1.3,1-2.3,2.3-2.3h2c1.3,0,2.3,1,2.3,2.3
		C1224.6,803.6,1223.6,804.6,1222.3,804.6z M1210,804.6h-2c-1.3,0-2.3-1-2.3-2.3c0-1.3,1-2.3,2.3-2.3h2c1.3,0,2.3,1,2.3,2.3
		C1212.3,803.6,1211.3,804.6,1210,804.6z"/>
	<path class="st3" d="M1018.1,262.6c-0.5,0-0.9-0.1-1.3-0.4c-1-0.7-1.3-2.2-0.6-3.2c0.4-0.6,0.8-1.1,1.2-1.7c0.7-1,2.2-1.3,3.2-0.5
		c1,0.7,1.3,2.2,0.5,3.2c-0.4,0.5-0.8,1.1-1.2,1.6C1019.6,262.2,1018.8,262.6,1018.1,262.6z M1025.6,252.8c-0.5,0-1-0.2-1.5-0.5
		c-1-0.8-1.1-2.3-0.3-3.2c0.4-0.5,0.9-1.1,1.4-1.6c0.8-1,2.3-1.1,3.3-0.2c1,0.8,1.1,2.3,0.2,3.3c-0.4,0.5-0.9,1-1.3,1.5
		C1026.9,252.5,1026.2,252.8,1025.6,252.8z M1033.9,243.8c-0.6,0-1.2-0.2-1.6-0.7c-0.9-0.9-0.9-2.4,0-3.3c0.5-0.5,1-1,1.5-1.5
		c0.9-0.9,2.4-0.9,3.3,0c0.9,0.9,0.9,2.4-0.1,3.3c-0.5,0.5-1,0.9-1.4,1.4C1035.1,243.5,1034.5,243.8,1033.9,243.8z M1042.9,235.5
		c-0.7,0-1.3-0.3-1.8-0.8c-0.8-1-0.7-2.4,0.3-3.2c0.5-0.4,1.1-0.9,1.6-1.3c1-0.8,2.4-0.6,3.2,0.3c0.8,1,0.6,2.4-0.3,3.2
		c-0.5,0.4-1,0.8-1.6,1.3C1044,235.3,1043.5,235.5,1042.9,235.5z M1052.7,228c-0.7,0-1.4-0.3-1.9-1c-0.7-1-0.5-2.5,0.6-3.2
		c0.6-0.4,1.1-0.8,1.7-1.2c1.1-0.7,2.5-0.4,3.2,0.6c0.7,1.1,0.4,2.5-0.6,3.2c-0.6,0.4-1.1,0.8-1.7,1.1
		C1053.6,227.9,1053.2,228,1052.7,228z M1063.1,221.5c-0.8,0-1.6-0.4-2-1.2c-0.6-1.1-0.2-2.5,0.9-3.1c0.6-0.3,1.2-0.7,1.8-1
		c1.1-0.6,2.5-0.2,3.1,0.9c0.6,1.1,0.2,2.5-0.9,3.1c-0.6,0.3-1.2,0.7-1.8,1C1063.9,221.4,1063.5,221.5,1063.1,221.5z M1074,215.9
		c-0.9,0-1.7-0.5-2.1-1.3c-0.5-1.2,0-2.5,1.1-3.1c0.6-0.3,1.3-0.6,1.9-0.9c1.2-0.5,2.5,0,3,1.2c0.5,1.2,0,2.5-1.2,3
		c-0.6,0.3-1.2,0.5-1.8,0.8C1074.7,215.8,1074.3,215.9,1074,215.9z M1183.4,213.1c-0.3,0-0.6-0.1-0.9-0.2c-0.6-0.2-1.2-0.5-1.9-0.7
		c-1.2-0.5-1.8-1.8-1.3-3c0.5-1.2,1.8-1.8,3-1.3c0.6,0.2,1.3,0.5,1.9,0.8c1.2,0.5,1.8,1.8,1.3,3
		C1185.2,212.5,1184.4,213.1,1183.4,213.1z M1085.4,211.2c-0.9,0-1.8-0.6-2.2-1.5c-0.4-1.2,0.2-2.5,1.4-2.9c0.7-0.2,1.3-0.5,2-0.7
		c1.2-0.4,2.5,0.2,2.9,1.4c0.4,1.2-0.2,2.5-1.4,2.9c-0.6,0.2-1.3,0.4-1.9,0.7C1085.9,211.2,1085.6,211.2,1085.4,211.2z M1171.9,209
		c-0.2,0-0.4,0-0.7-0.1c-0.6-0.2-1.3-0.4-1.9-0.6c-1.2-0.3-1.9-1.6-1.6-2.9c0.3-1.2,1.6-1.9,2.9-1.6c0.7,0.2,1.3,0.4,2,0.6
		c1.2,0.4,1.9,1.7,1.5,2.9C1173.8,208.4,1172.9,209,1171.9,209z M1097.1,207.6c-1,0-2-0.7-2.2-1.7c-0.3-1.2,0.4-2.5,1.7-2.8
		c0.7-0.2,1.3-0.3,2-0.5c1.2-0.3,2.5,0.5,2.8,1.7c0.3,1.2-0.5,2.5-1.7,2.8c-0.7,0.2-1.3,0.3-1.9,0.5
		C1097.5,207.6,1097.3,207.6,1097.1,207.6z M1160,206c-0.2,0-0.3,0-0.5,0c-0.7-0.1-1.3-0.3-2-0.4c-1.3-0.2-2.1-1.4-1.8-2.7
		c0.2-1.2,1.4-2.1,2.7-1.8c0.7,0.1,1.4,0.3,2,0.4c1.2,0.3,2,1.5,1.8,2.7C1162,205.3,1161,206,1160,206z M1109.1,205.1
		c-1.1,0-2.1-0.8-2.3-1.9c-0.2-1.3,0.6-2.4,1.9-2.7c0.7-0.1,1.4-0.2,2.1-0.3c1.2-0.2,2.4,0.7,2.6,1.9c0.2,1.3-0.7,2.4-1.9,2.6
		c-0.7,0.1-1.3,0.2-2,0.3C1109.4,205.1,1109.2,205.1,1109.1,205.1z M1147.8,204.1c-0.1,0-0.2,0-0.3,0c-0.7-0.1-1.3-0.1-2-0.2
		c-1.3-0.1-2.2-1.3-2.1-2.5c0.1-1.3,1.3-2.2,2.5-2.1c0.7,0.1,1.4,0.1,2.1,0.2c1.3,0.1,2.2,1.3,2,2.6
		C1150,203.2,1149,204.1,1147.8,204.1z M1121.3,203.6c-1.2,0-2.2-0.9-2.3-2.1c-0.1-1.3,0.9-2.4,2.1-2.5c0.7-0.1,1.4-0.1,2.1-0.1
		c1.3-0.1,2.4,0.9,2.4,2.2c0.1,1.3-0.9,2.4-2.2,2.4c-0.7,0-1.3,0.1-2,0.1C1121.4,203.6,1121.4,203.6,1121.3,203.6z M1135.6,203.2
		C1135.6,203.2,1135.6,203.2,1135.6,203.2c-0.7,0-1.4,0-2.1,0c-1.3,0-2.3-1.1-2.3-2.3c0-1.3,1-2.3,2.3-2.3c0,0,0,0,0,0
		c0.7,0,1.4,0,2.1,0c1.3,0,2.3,1.1,2.2,2.4C1137.9,202.2,1136.8,203.2,1135.6,203.2z"/>
	<path class="st3" d="M1153.9,505.6c-0.4,0-0.8-0.1-1.1-0.3l-1.8-1c-1.1-0.6-1.5-2-0.9-3.1c0.6-1.1,2-1.5,3.1-0.9l1.8,1
		c1.1,0.6,1.5,2,0.9,3.1C1155.5,505.1,1154.7,505.6,1153.9,505.6z M1143.2,499.6c-0.4,0-0.8-0.1-1.1-0.3l-1.8-1
		c-1.1-0.6-1.5-2-0.9-3.1c0.6-1.1,2-1.5,3.1-0.9l1.8,1c1.1,0.6,1.5,2,0.9,3.1C1144.8,499.2,1144,499.6,1143.2,499.6z M1132.4,493.7
		c-0.4,0-0.8-0.1-1.1-0.3l-1.8-1c-1.1-0.6-1.5-2-0.9-3.1c0.6-1.1,2-1.5,3.1-0.9l1.8,1c1.1,0.6,1.5,2,0.9,3.1
		C1134,493.3,1133.2,493.7,1132.4,493.7z M1121.7,487.7c-0.4,0-0.8-0.1-1.1-0.3l-1.8-1c-1.1-0.6-1.5-2-0.9-3.1
		c0.6-1.1,2-1.5,3.1-0.9l1.8,1c1.1,0.6,1.5,2,0.9,3.1C1123.3,487.3,1122.5,487.7,1121.7,487.7z M1110.9,481.8
		c-0.4,0-0.8-0.1-1.1-0.3l-1.8-1c-1.1-0.6-1.5-2-0.9-3.1c0.6-1.1,2-1.5,3.1-0.9l1.8,1c1.1,0.6,1.5,2,0.9,3.1
		C1112.5,481.4,1111.7,481.8,1110.9,481.8z M1100.2,475.9c-0.4,0-0.8-0.1-1.1-0.3l-1.8-1c-1.1-0.6-1.5-2-0.9-3.1
		c0.6-1.1,2-1.5,3.1-0.9l1.8,1c1.1,0.6,1.5,2,0.9,3.1C1101.8,475.4,1101,475.9,1100.2,475.9z M1089.4,469.9c-0.4,0-0.8-0.1-1.1-0.3
		l-1.8-1c-1.1-0.6-1.5-2-0.9-3.1c0.6-1.1,2-1.5,3.1-0.9l1.8,1c1.1,0.6,1.5,2,0.9,3.1C1091,469.5,1090.2,469.9,1089.4,469.9z
		 M1078.7,464c-0.4,0-0.8-0.1-1.1-0.3l-1.8-1c-1.1-0.6-1.5-2-0.9-3.1c0.6-1.1,2-1.5,3.1-0.9l1.8,1c1.1,0.6,1.5,2,0.9,3.1
		C1080.3,463.6,1079.5,464,1078.7,464z M1067.9,458.1c-0.4,0-0.8-0.1-1.1-0.3l-1.8-1c-1.1-0.6-1.5-2-0.9-3.1c0.6-1.1,2-1.5,3.1-0.9
		l1.8,1c1.1,0.6,1.5,2,0.9,3.1C1069.5,457.6,1068.7,458.1,1067.9,458.1z M1057.2,452.1c-0.4,0-0.8-0.1-1.1-0.3l-1.8-1
		c-1.1-0.6-1.5-2-0.9-3.1c0.6-1.1,2-1.5,3.1-0.9l1.8,1c1.1,0.6,1.5,2,0.9,3.1C1058.8,451.7,1058,452.1,1057.2,452.1z M1046.4,446.2
		c-0.4,0-0.8-0.1-1.1-0.3l-1.8-1c-1.1-0.6-1.5-2-0.9-3.1c0.6-1.1,2-1.5,3.1-0.9l1.8,1c1.1,0.6,1.5,2,0.9,3.1
		C1048,445.8,1047.2,446.2,1046.4,446.2z"/>
	<path class="st3" d="M588,194.3c-0.6,0-1.3-0.3-1.7-0.8c-0.5-0.5-0.9-1-1.4-1.5c-0.9-0.9-0.8-2.4,0.1-3.3c0.9-0.9,2.4-0.8,3.3,0.1
		c0.5,0.5,0.9,1,1.4,1.5c0.9,0.9,0.8,2.4-0.2,3.3C589.1,194.1,588.5,194.3,588,194.3z M579.4,185.5c-0.6,0-1.1-0.2-1.6-0.6
		c-0.5-0.5-1-0.9-1.5-1.4c-0.9-0.9-1-2.3-0.1-3.3c0.9-0.9,2.3-1,3.3-0.1c0.5,0.5,1,0.9,1.5,1.4c0.9,0.9,1,2.3,0.1,3.3
		C580.6,185.3,580,185.5,579.4,185.5z M570.1,177.4c-0.5,0-1-0.2-1.5-0.5c-0.5-0.4-1-0.8-1.6-1.3c-1-0.8-1.2-2.2-0.4-3.2
		c0.8-1,2.2-1.2,3.2-0.4c0.5,0.4,1.1,0.9,1.6,1.3c1,0.8,1.1,2.3,0.3,3.2C571.5,177.1,570.8,177.4,570.1,177.4z M560.3,170
		c-0.5,0-0.9-0.1-1.3-0.4c-0.6-0.4-1.1-0.8-1.7-1.1c-1.1-0.7-1.3-2.1-0.6-3.2c0.7-1.1,2.1-1.3,3.2-0.6c0.6,0.4,1.1,0.8,1.7,1.2
		c1,0.7,1.3,2.2,0.6,3.2C561.7,169.7,561,170,560.3,170z M549.9,163.5c-0.4,0-0.8-0.1-1.2-0.3c-0.6-0.3-1.2-0.7-1.8-1
		c-1.1-0.6-1.5-2-0.9-3.1c0.6-1.1,2-1.5,3.1-0.9c0.6,0.3,1.2,0.7,1.8,1c1.1,0.6,1.5,2.1,0.8,3.2C551.5,163,550.7,163.5,549.9,163.5z
		 M395,159.3c-0.8,0-1.6-0.5-2.1-1.3c-0.6-1.1-0.1-2.5,1-3.1c0.6-0.3,1.2-0.6,1.8-0.9c1.1-0.6,2.5-0.1,3.1,1c0.6,1.1,0.1,2.5-1,3.1
		c-0.6,0.3-1.2,0.6-1.8,0.9C395.7,159.2,395.4,159.3,395,159.3z M539.1,157.7c-0.3,0-0.7-0.1-1-0.2c-0.6-0.3-1.2-0.6-1.8-0.9
		c-1.2-0.5-1.7-1.9-1.1-3.1c0.5-1.2,1.9-1.7,3.1-1.1c0.6,0.3,1.3,0.6,1.9,0.9c1.1,0.6,1.6,1.9,1.1,3.1
		C540.8,157.2,539.9,157.7,539.1,157.7z M406.1,154.1c-0.9,0-1.8-0.5-2.1-1.4c-0.5-1.2,0.1-2.5,1.2-3c0.6-0.3,1.3-0.5,1.9-0.8
		c1.2-0.5,2.5,0.1,3,1.3c0.5,1.2-0.1,2.5-1.3,3c-0.6,0.3-1.2,0.5-1.9,0.8C406.7,154.1,406.4,154.1,406.1,154.1z M527.8,152.8
		c-0.3,0-0.6-0.1-0.8-0.2c-0.6-0.2-1.3-0.5-1.9-0.7c-1.2-0.5-1.8-1.8-1.3-3c0.5-1.2,1.8-1.8,3-1.3c0.6,0.2,1.3,0.5,1.9,0.7
		c1.2,0.5,1.8,1.8,1.3,3C529.6,152.2,528.8,152.8,527.8,152.8z M417.6,149.8c-1,0-1.9-0.6-2.2-1.6c-0.4-1.2,0.2-2.5,1.5-2.9
		c0.7-0.2,1.3-0.4,2-0.6c1.2-0.4,2.5,0.3,2.9,1.5c0.4,1.2-0.3,2.5-1.5,2.9c-0.6,0.2-1.3,0.4-1.9,0.6
		C418.1,149.8,417.9,149.8,417.6,149.8z M516.3,148.7c-0.2,0-0.5,0-0.7-0.1c-0.6-0.2-1.3-0.4-1.9-0.6c-1.2-0.4-1.9-1.6-1.6-2.9
		c0.4-1.2,1.6-1.9,2.9-1.6c0.7,0.2,1.3,0.4,2,0.6c1.2,0.4,1.9,1.7,1.5,2.9C518.2,148.1,517.2,148.7,516.3,148.7z M429.4,146.4
		c-1,0-2-0.7-2.2-1.7c-0.3-1.2,0.4-2.5,1.7-2.8c0.7-0.2,1.3-0.3,2-0.5c1.2-0.3,2.5,0.5,2.8,1.7c0.3,1.2-0.5,2.5-1.7,2.8
		c-0.7,0.2-1.3,0.3-2,0.5C429.8,146.3,429.6,146.4,429.4,146.4z M504.4,145.5c-0.2,0-0.3,0-0.5-0.1c-0.7-0.1-1.3-0.3-2-0.4
		c-1.2-0.3-2-1.5-1.8-2.7c0.3-1.2,1.5-2,2.7-1.8c0.7,0.1,1.4,0.3,2,0.4c1.2,0.3,2,1.5,1.7,2.8C506.4,144.8,505.5,145.5,504.4,145.5z
		 M441.4,143.8c-1.1,0-2.1-0.8-2.3-1.9c-0.2-1.3,0.6-2.4,1.9-2.7c0.7-0.1,1.4-0.2,2-0.3c1.3-0.2,2.4,0.7,2.6,1.9
		c0.2,1.3-0.7,2.4-1.9,2.6c-0.7,0.1-1.3,0.2-2,0.3C441.7,143.8,441.5,143.8,441.4,143.8z M492.3,143.3c-0.1,0-0.2,0-0.3,0
		c-0.7-0.1-1.3-0.2-2-0.3c-1.3-0.2-2.1-1.3-2-2.6c0.2-1.3,1.3-2.2,2.6-2c0.7,0.1,1.4,0.2,2.1,0.3c1.3,0.2,2.1,1.4,1.9,2.6
		C494.4,142.4,493.5,143.3,492.3,143.3z M453.6,142.2c-1.2,0-2.2-0.9-2.3-2.1c-0.1-1.3,0.8-2.4,2.1-2.5c0.7-0.1,1.4-0.1,2.1-0.2
		c1.3-0.1,2.4,0.8,2.5,2.1c0.1,1.3-0.8,2.4-2.1,2.5c-0.7,0.1-1.3,0.1-2,0.2C453.7,142.2,453.6,142.2,453.6,142.2z M480.1,141.9
		c-0.1,0-0.1,0-0.2,0c-0.7,0-1.3-0.1-2-0.1c-1.3-0.1-2.2-1.2-2.2-2.4c0.1-1.3,1.1-2.3,2.4-2.2c0.7,0,1.4,0.1,2.1,0.1
		c1.3,0.1,2.2,1.2,2.1,2.5C482.4,141,481.3,141.9,480.1,141.9z M465.8,141.5c-1.3,0-2.3-1-2.3-2.3c0-1.3,1-2.3,2.3-2.3
		c0.7,0,1.4,0,2.1,0c0,0,0,0,0,0c1.3,0,2.3,1,2.3,2.3c0,1.3-1,2.3-2.3,2.3C467.2,141.5,466.5,141.5,465.8,141.5
		C465.9,141.5,465.8,141.5,465.8,141.5z"/>
	<path class="st3" d="M1198.9,296.4h-20.8c-1.3,0-2.3-1-2.3-2.3v-20.8c0-1.3,1-2.3,2.3-2.3h20.8c1.3,0,2.3,1,2.3,2.3v20.8
		C1201.2,295.4,1200.2,296.4,1198.9,296.4z M1180.4,291.8h16.2v-16.2h-16.2V291.8z"/>
	<path class="st3" d="M995,180.7h-20c-1.3,0-2.3-1-2.3-2.3v-20c0-1.3,1-2.3,2.3-2.3h20c1.3,0,2.3,1,2.3,2.3v20
		C997.3,179.7,996.3,180.7,995,180.7z M977.4,176.1h15.3v-15.3h-15.3V176.1z"/>
	<path class="st3" d="M1239,461.5h-14.4c-1.3,0-2.3-1-2.3-2.3v-14.4c0-1.3,1-2.3,2.3-2.3h14.4c1.3,0,2.3,1,2.3,2.3v14.4
		C1241.3,460.5,1240.3,461.5,1239,461.5z M1226.9,456.9h9.8v-9.8h-9.8V456.9z"/>
	<path class="st3" d="M159.3,811.8h-14.4c-1.3,0-2.3-1-2.3-2.3v-14.4c0-1.3,1-2.3,2.3-2.3h14.4c1.3,0,2.3,1,2.3,2.3v14.4
		C161.6,810.8,160.6,811.8,159.3,811.8z M147.2,807.2h9.8v-9.8h-9.8V807.2z"/>
	<path class="st3" d="M1045.5,632.7h-27.4c-1.3,0-2.3-1-2.3-2.3v-12.1c0-1.3,1-2.3,2.3-2.3h27.4c1.3,0,2.3,1,2.3,2.3v12.1
		C1047.8,631.7,1046.8,632.7,1045.5,632.7z M1020.4,628.1h22.7v-7.5h-22.7V628.1z"/>
	<path class="st3" d="M552.6,690.6h-28.2c-1.3,0-2.3-1-2.3-2.3v-11.1c0-1.3,1-2.3,2.3-2.3h28.2c1.3,0,2.3,1,2.3,2.3v11.1
		C555,689.6,553.9,690.6,552.6,690.6z M526.8,686h23.6v-6.4h-23.6V686z"/>
	<path class="st3" d="M538.6,848.1h-26.1c-1.3,0-2.3-1-2.3-2.3V834c0-1.3,1-2.3,2.3-2.3h26.1c1.3,0,2.3,1,2.3,2.3v11.8
		C540.9,847,539.8,848.1,538.6,848.1z M514.8,843.5h21.5v-7.2h-21.5V843.5z"/>
	<path class="st3" d="M240.6,657.4c-0.6,0-1.2-0.2-1.6-0.6c-0.9-0.9-0.9-2.3-0.1-3.3l1.4-1.5c0.9-0.9,2.3-1,3.3-0.1
		c0.9,0.9,1,2.3,0.1,3.3l-1.4,1.5C241.8,657.1,241.2,657.4,240.6,657.4z M249,648.3c-0.5,0-1.1-0.2-1.5-0.6c-1-0.8-1-2.3-0.2-3.3
		l1.3-1.5c0.8-1,2.3-1,3.3-0.2c1,0.8,1.1,2.3,0.2,3.3l-1.4,1.5C250.2,648.1,249.6,648.3,249,648.3z M256.9,639c-0.5,0-1-0.2-1.5-0.5
		c-1-0.8-1.1-2.3-0.3-3.2l1.3-1.6c0.8-1,2.2-1.1,3.2-0.3c1,0.8,1.1,2.3,0.3,3.2l-1.3,1.6C258.3,638.7,257.6,639,256.9,639z
		 M264.5,629.3c-0.5,0-1-0.1-1.4-0.5c-1-0.8-1.2-2.2-0.5-3.2l1.2-1.6c0.8-1,2.2-1.2,3.2-0.5c1,0.8,1.2,2.2,0.5,3.2l-1.2,1.6
		C265.9,629,265.2,629.3,264.5,629.3z M271.7,619.4c-0.5,0-0.9-0.1-1.3-0.4c-1-0.7-1.3-2.2-0.6-3.2l1.2-1.7c0.7-1.1,2.2-1.3,3.2-0.6
		c1.1,0.7,1.3,2.2,0.6,3.2l-1.2,1.7C273.2,619,272.4,619.4,271.7,619.4z M278.5,609.1c-0.4,0-0.8-0.1-1.2-0.4
		c-1.1-0.7-1.4-2.1-0.7-3.2l1.1-1.7c0.7-1.1,2.1-1.4,3.2-0.7c1.1,0.7,1.4,2.1,0.7,3.2l-1.1,1.7C280,608.8,279.2,609.1,278.5,609.1z
		 M284.8,598.6c-0.4,0-0.8-0.1-1.1-0.3c-1.1-0.6-1.5-2-0.8-3.1l1-1.8c0.6-1.1,2-1.5,3.1-0.9c1.1,0.6,1.5,2,0.9,3.1l-1,1.8
		C286.4,598.2,285.6,598.6,284.8,598.6z M290.7,587.9c-0.4,0-0.7-0.1-1.1-0.3c-1.1-0.6-1.6-2-1-3.1l0.9-1.8c0.6-1.1,2-1.6,3.1-1
		c1.1,0.6,1.6,2,1,3.1l-1,1.8C292.4,587.4,291.6,587.9,290.7,587.9z M296.2,576.9c-0.3,0-0.7-0.1-1-0.2c-1.2-0.5-1.6-1.9-1.1-3.1
		l0.9-1.8c0.5-1.2,1.9-1.7,3.1-1.1c1.2,0.5,1.7,1.9,1.1,3.1l-0.9,1.9C297.9,576.4,297.1,576.9,296.2,576.9z M301.2,565.7
		c-0.3,0-0.6-0.1-0.9-0.2c-1.2-0.5-1.7-1.9-1.2-3l0.8-1.9c0.5-1.2,1.8-1.7,3-1.2c1.2,0.5,1.7,1.8,1.2,3l-0.8,1.9
		C303,565.1,302.1,565.7,301.2,565.7z"/>
	<polygon class="st4" points="1112.2,503.1 1172.1,535.5 1181.5,543.3 1192.6,597.7 1122.5,584.7 	"/>
	<path class="st3" d="M1189.6,596.2l-70.1-13c-1-0.2-1.7-1-1.9-2l-10.3-81.6c-0.1-0.9,0.3-1.7,1-2.2c0.7-0.5,1.6-0.5,2.4-0.1
		l59.9,32.4c0.1,0.1,0.3,0.2,0.4,0.2l9.4,7.7c0.4,0.3,0.7,0.8,0.8,1.3l11.1,54.4c0.2,0.8-0.1,1.5-0.6,2.1c-0.4,0.4-1,0.7-1.6,0.7
		C1189.9,596.2,1189.8,596.2,1189.6,596.2z M1168.3,533.7l-55.8-30.2l9.5,75.5l65.1,12l-10.2-50.3L1168.3,533.7z"/>
	<path class="st4" d="M1172,535.5c12.2,8.3,21.8,20.5,26.9,35.5c9.8,29.3-6,61-35.2,70.8c-23.4,7.9-48.8-4.8-56.6-28.2
		c-6.3-18.7,3.8-39,22.6-45.3L1172,535.5z"/>
	<path class="st3" d="M1149,644.2c4.9,0,10-0.8,14.9-2.4c14.7-4.9,26.7-15.3,33.6-29.3c6.9-13.9,8-29.7,3.1-44.5
		c-5.1-15.1-14.7-27.8-27.8-36.7c-1.1-0.7-2.5-0.4-3.2,0.6c-0.7,1.1-0.4,2.5,0.6,3.2c12.3,8.4,21.3,20.2,26,34.3
		c4.6,13.6,3.5,28.1-2.8,40.9c-6.4,12.8-17.4,22.4-31,26.9c-22.2,7.4-46.3-4.6-53.7-26.7c-5.9-17.5,3.6-36.5,21.1-42.4
		c6.7-2.2,13.8-1.7,20.1,1.4c6.3,3.1,11,8.5,13.2,15.2c1.7,5.2,1.4,10.8-1.1,15.7c-2.5,4.9-6.7,8.6-11.9,10.3
		c-4.1,1.4-8.4,1.1-12.2-0.8c-3.8-1.9-6.7-5.2-8-9.2c-1-3.1-0.8-6.5,0.7-9.4c1.5-3,4-5.2,7.1-6.2c4.9-1.6,10.3,1,11.9,5.9
		c0.4,1.2,1.7,1.9,2.9,1.5c1.2-0.4,1.9-1.7,1.5-2.9c-2.5-7.3-10.4-11.3-17.8-8.8c-4.3,1.4-7.8,4.5-9.8,8.5c-2,4.1-2.3,8.7-0.9,13
		c1.8,5.2,5.4,9.5,10.4,11.9c4.9,2.5,10.5,2.8,15.8,1.1c6.4-2.1,11.6-6.6,14.6-12.7c3-6,3.5-12.9,1.3-19.2
		c-2.6-7.8-8.1-14.2-15.5-17.9c-7.4-3.7-15.8-4.3-23.6-1.6c-19.9,6.7-30.7,28.3-24,48.2C1110.9,631.8,1129.3,644.2,1149,644.2z"/>
</g>
</svg>
